<svg xmlns="http://www.w3.org/2000/svg" width="18" height="13" viewBox="0 0 18 13" fill="none">
<path d="M2.03039 0.597656H15.2804C16.5304 0.597656 17.1604 1.18766 17.1604 2.38766V10.8077C17.1604 11.9977 16.5304 12.5977 15.2804 12.5977H2.03039C0.780391 12.5977 0.150391 11.9977 0.150391 10.8077V2.38766C0.150391 1.18766 0.780391 0.597656 2.03039 0.597656ZM8.65039 9.19766L15.3904 3.66766C15.6304 3.46766 15.8204 3.00766 15.5204 2.59766C15.2304 2.18766 14.7004 2.17766 14.3504 2.42766L8.65039 6.28766L2.96039 2.42766C2.61039 2.17766 2.08039 2.18766 1.79039 2.59766C1.49039 3.00766 1.68039 3.46766 1.92039 3.66766L8.65039 9.19766Z" fill="black"/>
</svg>