<svg xmlns="http://www.w3.org/2000/svg" width="19" height="25" viewBox="0 0 19 25" fill="none">
<path d="M8.6957 24.0289C6.24883 21.0195 0.806641 13.7258 0.806641 9.62891C0.806641 4.65828 4.83602 0.628906 9.80664 0.628906C14.7754 0.628906 18.8066 4.65828 18.8066 9.62891C18.8066 13.7258 13.3223 21.0195 10.9176 24.0289C10.341 24.7461 9.27227 24.7461 8.6957 24.0289ZM9.80664 12.6289C11.4613 12.6289 12.8066 11.2836 12.8066 9.62891C12.8066 7.97422 11.4613 6.62891 9.80664 6.62891C8.15195 6.62891 6.80664 7.97422 6.80664 9.62891C6.80664 11.2836 8.15195 12.6289 9.80664 12.6289Z" fill="black"/>
</svg>