<svg xmlns="http://www.w3.org/2000/svg" width="31" height="34" viewBox="0 0 31 34" fill="none">
<path d="M30.2414 27.1206L29.9014 26.8206C28.9368 25.9612 28.0926 24.9757 27.3914 23.8906C26.6256 22.3932 26.1667 20.7579 26.0414 19.0806V14.1406C26.048 11.5062 25.0924 8.9601 23.3541 6.9806C21.6159 5.0011 19.2146 3.72449 16.6014 3.39062V2.10062C16.6014 1.74656 16.4608 1.407 16.2104 1.15664C15.96 0.906276 15.6205 0.765625 15.2664 0.765625C14.9123 0.765625 14.5728 0.906276 14.3224 1.15664C14.0721 1.407 13.9314 1.74656 13.9314 2.10062V3.41062C11.3417 3.76855 8.96938 5.05288 7.25393 7.02573C5.53849 8.99858 4.59614 11.5263 4.60141 14.1406V19.0806C4.47616 20.7579 4.01718 22.3932 3.25141 23.8906C2.56229 24.973 1.7316 25.9584 0.781406 26.8206L0.441406 27.1206V29.9406H30.2414V27.1206Z" fill="black"/>
<path d="M12.7119 30.9902C12.7996 31.6241 13.1137 32.2048 13.5962 32.6252C14.0787 33.0455 14.697 33.2771 15.3369 33.2771C15.9768 33.2771 16.5951 33.0455 17.0776 32.6252C17.5601 32.2048 17.8742 31.6241 17.9619 30.9902H12.7119Z" fill="black"/>
</svg>