<svg xmlns="http://www.w3.org/2000/svg" width="41" height="26" viewBox="0 0 41 26" fill="none">
<path d="M0.945312 7.30692C0.945313 5.41252 1.69786 3.5957 3.03741 2.25616C4.37695 0.916611 6.19377 0.164063 8.08817 0.164062H33.8025C35.6969 0.164062 37.5137 0.916611 38.8532 2.25616C40.1928 3.5957 40.9453 5.41252 40.9453 7.30692V18.7355C40.9453 19.6735 40.7606 20.6023 40.4016 21.4689C40.0426 22.3356 39.5165 23.123 38.8532 23.7863C38.1899 24.4495 37.4025 24.9757 36.5359 25.3346C35.6693 25.6936 34.7405 25.8783 33.8025 25.8783H8.08817C6.19377 25.8783 4.37695 25.1258 3.03741 23.7863C1.69786 22.4467 0.945312 20.6299 0.945312 18.7355V7.30692ZM12.791 9.15263L10.9453 11.0012L9.0996 9.15263C8.96678 9.01981 8.80909 8.91445 8.63555 8.84257C8.46201 8.77068 8.27601 8.73369 8.08817 8.73369C7.90033 8.73369 7.71433 8.77068 7.54079 8.84257C7.36725 8.91445 7.20956 9.01981 7.07674 9.15263C6.94392 9.28546 6.83856 9.44314 6.76667 9.61668C6.69479 9.79022 6.65779 9.97622 6.65779 10.1641C6.65779 10.3519 6.69479 10.5379 6.76667 10.7114C6.83856 10.885 6.94392 11.0427 7.07674 11.1755L8.92531 13.0212L7.07674 14.8669C6.94392 14.9997 6.83856 15.1574 6.76667 15.331C6.69479 15.5045 6.65779 15.6905 6.65779 15.8783C6.65779 16.0662 6.69479 16.2522 6.76667 16.4257C6.83856 16.5993 6.94392 16.757 7.07674 16.8898C7.34499 17.158 7.70881 17.3087 8.08817 17.3087C8.27601 17.3087 8.46201 17.2717 8.63555 17.1998C8.80909 17.128 8.96678 17.0226 9.0996 16.8898L10.9453 15.0412L12.791 16.8898C12.9238 17.0226 13.0815 17.128 13.2551 17.1998C13.4286 17.2717 13.6146 17.3087 13.8025 17.3087C13.9903 17.3087 14.1763 17.2717 14.3498 17.1998C14.5234 17.128 14.6811 17.0226 14.8139 16.8898C14.9467 16.757 15.0521 16.5993 15.124 16.4257C15.1958 16.2522 15.2328 16.0662 15.2328 15.8783C15.2328 15.6905 15.1958 15.5045 15.124 15.331C15.0521 15.1574 14.9467 14.9997 14.8139 14.8669L12.9653 13.0212L14.8139 11.1755C14.9467 11.0427 15.0521 10.885 15.124 10.7114C15.1958 10.5379 15.2328 10.3519 15.2328 10.1641C15.2328 9.97622 15.1958 9.79022 15.124 9.61668C15.0521 9.44314 14.9467 9.28546 14.8139 9.15263C14.6811 9.01981 14.5234 8.91445 14.3498 8.84257C14.1763 8.77068 13.9903 8.73369 13.8025 8.73369C13.6146 8.73369 13.4286 8.77068 13.2551 8.84257C13.0815 8.91445 12.9238 9.01981 12.791 9.15263ZM24.2196 9.15263L22.3739 11.0012L20.5282 9.15263C20.3953 9.01981 20.2377 8.91445 20.0641 8.84257C19.8906 8.77068 19.7046 8.73369 19.5167 8.73369C19.3289 8.73369 19.1429 8.77068 18.9694 8.84257C18.7958 8.91445 18.6381 9.01981 18.5053 9.15263C18.3725 9.28546 18.2671 9.44314 18.1952 9.61668C18.1234 9.79022 18.0864 9.97622 18.0864 10.1641C18.0864 10.3519 18.1234 10.5379 18.1952 10.7114C18.2671 10.885 18.3725 11.0427 18.5053 11.1755L20.3539 13.0212L18.5053 14.8669C18.3725 14.9997 18.2671 15.1574 18.1952 15.331C18.1234 15.5045 18.0864 15.6905 18.0864 15.8783C18.0864 16.0662 18.1234 16.2522 18.1952 16.4257C18.2671 16.5993 18.3725 16.757 18.5053 16.8898C18.7736 17.158 19.1374 17.3087 19.5167 17.3087C19.7046 17.3087 19.8906 17.2717 20.0641 17.1998C20.2377 17.128 20.3953 17.0226 20.5282 16.8898L22.3739 15.0412L24.2196 16.8898C24.4878 17.158 24.8517 17.3087 25.231 17.3087C25.6104 17.3087 25.9742 17.158 26.2425 16.8898C26.5107 16.6215 26.6614 16.2577 26.6614 15.8783C26.6614 15.499 26.5107 15.1352 26.2425 14.8669L24.3939 13.0212L26.2425 11.1755C26.5107 10.9072 26.6614 10.5434 26.6614 10.1641C26.6614 9.7847 26.5107 9.42088 26.2425 9.15263C25.9742 8.88439 25.6104 8.73369 25.231 8.73369C24.8517 8.73369 24.4878 8.88439 24.2196 9.15263ZM29.5167 15.8783C29.5167 16.2572 29.6672 16.6206 29.9352 16.8885C30.2031 17.1564 30.5664 17.3069 30.9453 17.3069H33.8025C34.1813 17.3069 34.5447 17.1564 34.8126 16.8885C35.0805 16.6206 35.231 16.2572 35.231 15.8783C35.231 15.4995 35.0805 15.1361 34.8126 14.8682C34.5447 14.6003 34.1813 14.4498 33.8025 14.4498H30.9453C30.5664 14.4498 30.2031 14.6003 29.9352 14.8682C29.6672 15.1361 29.5167 15.4995 29.5167 15.8783Z" fill="black"/>
</svg>