<svg xmlns="http://www.w3.org/2000/svg" width="25" height="25" viewBox="0 0 25 25" fill="none">
<path d="M19.125 14.5264C20.5104 14.5264 21.6901 15.0133 22.6641 15.9873C23.638 16.9613 24.125 18.141 24.125 19.5264C24.125 20.9118 23.638 22.0915 22.6641 23.0654C21.6901 24.0394 20.5104 24.5264 19.125 24.5264C17.7396 24.5264 16.5599 24.0394 15.5859 23.0654C14.612 22.0915 14.125 20.9118 14.125 19.5264C14.125 19.4014 14.1354 19.2243 14.1562 18.9951L8.53125 16.1826C7.57292 17.0785 6.4375 17.5264 5.125 17.5264C3.73958 17.5264 2.5599 17.0394 1.58594 16.0654C0.611979 15.0915 0.125 13.9118 0.125 12.5264C0.125 11.141 0.611979 9.96126 1.58594 8.9873C2.5599 8.01335 3.73958 7.52637 5.125 7.52637C6.4375 7.52637 7.57292 7.97428 8.53125 8.87012L14.1562 6.05762C14.1354 5.82845 14.125 5.65137 14.125 5.52637C14.125 4.14095 14.612 2.96126 15.5859 1.9873C16.5599 1.01335 17.7396 0.526367 19.125 0.526367C20.5104 0.526367 21.6901 1.01335 22.6641 1.9873C23.638 2.96126 24.125 4.14095 24.125 5.52637C24.125 6.91178 23.638 8.09147 22.6641 9.06543C21.6901 10.0394 20.5104 10.5264 19.125 10.5264C17.8125 10.5264 16.6771 10.0785 15.7188 9.18262L10.0938 11.9951C10.1146 12.2243 10.125 12.4014 10.125 12.5264C10.125 12.6514 10.1146 12.8285 10.0938 13.0576L15.7188 15.8701C16.6771 14.9743 17.8125 14.5264 19.125 14.5264Z" fill="#F2F2F2"/>
</svg>