<svg xmlns="http://www.w3.org/2000/svg" width="18" height="19" viewBox="0 0 18 19" fill="none">
<path d="M17.6377 14.5523L13.5727 10.8563C13.3805 10.6817 13.128 10.5886 12.8685 10.5966C12.6089 10.6046 12.3627 10.7132 12.1817 10.8993L9.78867 13.3603C9.21267 13.2503 8.05467 12.8893 6.86267 11.7003C5.67067 10.5073 5.30967 9.34635 5.20267 8.77435L7.66167 6.38035C7.84808 6.19948 7.95681 5.95317 7.96483 5.69356C7.97286 5.43394 7.87956 5.18139 7.70467 4.98935L4.00967 0.925348C3.83472 0.732705 3.59155 0.615853 3.33183 0.599608C3.0721 0.583363 2.81627 0.669007 2.61867 0.838348L0.448673 2.69935C0.275784 2.87286 0.172592 3.1038 0.158673 3.34835C0.143673 3.59835 -0.142327 9.52035 4.44967 14.1143C8.45567 18.1193 13.4737 18.4123 14.8557 18.4123C15.0577 18.4123 15.1817 18.4063 15.2147 18.4043C15.4592 18.3907 15.69 18.287 15.8627 18.1133L17.7227 15.9423C17.8927 15.7454 17.979 15.4898 17.9631 15.23C17.9472 14.9703 17.8304 14.7271 17.6377 14.5523Z" fill="black"/>
</svg>