<svg xmlns="http://www.w3.org/2000/svg" width="23" height="23" viewBox="0 0 23 23" fill="none">
<path d="M15.732 7.23047C15.0889 3.21895 13.572 0.402344 11.8066 0.402344C10.0413 0.402344 8.52438 3.21895 7.88124 7.23047H15.732ZM7.54858 11.543C7.54858 12.5402 7.6018 13.4971 7.69495 14.418H15.9139C16.007 13.4971 16.0603 12.5402 16.0603 11.543C16.0603 10.5457 16.007 9.58887 15.9139 8.66797H7.69495C7.6018 9.58887 7.54858 10.5457 7.54858 11.543ZM21.9506 7.23047C20.682 4.18027 18.1139 1.82187 14.9425 0.869531C16.0248 2.38789 16.7699 4.67441 17.1603 7.23047H21.9506ZM8.66632 0.869531C5.49938 1.82187 2.9268 4.18027 1.66269 7.23047H6.45301C6.8389 4.67441 7.58406 2.38789 8.66632 0.869531ZM22.4252 8.66797H17.3377C17.4308 9.61133 17.4841 10.5771 17.4841 11.543C17.4841 12.5088 17.4308 13.4746 17.3377 14.418H22.4208C22.6647 13.4971 22.8022 12.5402 22.8022 11.543C22.8022 10.5457 22.6647 9.58887 22.4252 8.66797ZM6.12922 11.543C6.12922 10.5771 6.18245 9.61133 6.27559 8.66797H1.18809C0.948576 9.58887 0.806641 10.5457 0.806641 11.543C0.806641 12.5402 0.948576 13.4971 1.18809 14.418H6.27116C6.18245 13.4746 6.12922 12.5088 6.12922 11.543ZM7.88124 15.8555C8.52438 19.867 10.0413 22.6836 11.8066 22.6836C13.572 22.6836 15.0889 19.867 15.732 15.8555H7.88124ZM14.947 22.2164C18.1139 21.2641 20.6865 18.9057 21.955 15.8555H17.1647C16.7744 18.4115 16.0292 20.698 14.947 22.2164ZM1.66269 15.8555C2.93124 18.9057 5.49938 21.2641 8.67075 22.2164C7.5885 20.698 6.84333 18.4115 6.45301 15.8555H1.66269Z" fill="black"/>
</svg>