<svg xmlns="http://www.w3.org/2000/svg" width="24" height="22" viewBox="0 0 27 24" fill="none">
<path d="M6 24H1.33333C0.6 24 0 23.4 0 22.6667V9.33333C0 8.6 0.6 8 1.33333 8H6C6.73333 8 7.33333 8.6 7.33333 9.33333V22.6667C7.33333 23.4 6.73333 24 6 24ZM15.6667 0H11C10.2667 0 9.66667 0.6 9.66667 1.33333V22.6667C9.66667 23.4 10.2667 24 11 24H15.6667C16.4 24 17 23.4 17 22.6667V1.33333C17 0.6 16.4 0 15.6667 0ZM25.3333 10.6667H20.6667C19.9333 10.6667 19.3333 11.2667 19.3333 12V22.6667C19.3333 23.4 19.9333 24 20.6667 24H25.3333C26.0667 24 26.6667 23.4 26.6667 22.6667V12C26.6667 11.2667 26.0667 10.6667 25.3333 10.6667Z" fill="black"/>
</svg>