<svg xmlns="http://www.w3.org/2000/svg" width="20" height="22" viewBox="0 0 22 24" fill="none">
<path d="M20.4 24H3.6C2.64522 24 1.72955 23.6207 1.05442 22.9456C0.379285 22.2705 0 21.3548 0 20.4V3.6C0 2.64522 0.379285 1.72955 1.05442 1.05442C1.72955 0.379285 2.64522 0 3.6 0H20.4C20.7183 0 21.0235 0.126428 21.2485 0.351472C21.4736 0.576515 21.6 0.88174 21.6 1.2V22.8C21.6 23.1183 21.4736 23.4235 21.2485 23.6485C21.0235 23.8736 20.7183 24 20.4 24ZM19.2 21.6V19.2H3.6C3.28174 19.2 2.97652 19.3264 2.75147 19.5515C2.52643 19.7765 2.4 20.0817 2.4 20.4C2.4 20.7183 2.52643 21.0235 2.75147 21.2485C2.97652 21.4736 3.28174 21.6 3.6 21.6H19.2ZM10.8 9.6C11.4365 9.6 12.047 9.34714 12.4971 8.89706C12.9471 8.44697 13.2 7.83652 13.2 7.2C13.2 6.56348 12.9471 5.95303 12.4971 5.50294C12.047 5.05286 11.4365 4.8 10.8 4.8C10.1635 4.8 9.55303 5.05286 9.10294 5.50294C8.65286 5.95303 8.4 6.56348 8.4 7.2C8.4 7.83652 8.65286 8.44697 9.10294 8.89706C9.55303 9.34714 10.1635 9.6 10.8 9.6ZM7.2 14.4H14.4C14.4 13.4452 14.0207 12.5295 13.3456 11.8544C12.6705 11.1793 11.7548 10.8 10.8 10.8C9.84522 10.8 8.92955 11.1793 8.25442 11.8544C7.57928 12.5295 7.2 13.4452 7.2 14.4Z" fill="white"/>
</svg>