<svg xmlns="http://www.w3.org/2000/svg" width="13" height="16" viewBox="0 0 13 16" fill="none">
<path d="M1.70358 4.64076C1.48273 3.12239 2.50834 1.75852 4.0751 1.25884C4.35313 1.1701 4.65312 1.19536 4.91393 1.32947C5.17474 1.46357 5.37676 1.69643 5.47882 1.9806L5.9818 3.38069C6.06277 3.60592 6.07741 3.85128 6.02384 4.08526C5.97028 4.31925 5.85095 4.53118 5.68117 4.69387L4.18495 6.12413C4.11119 6.19477 4.05624 6.28416 4.02544 6.38358C3.99463 6.483 3.98904 6.58905 4.00919 6.6914L4.02307 6.75416L4.05891 6.91107C4.24499 7.67345 4.52851 8.40622 4.90184 9.08965C5.30851 9.81588 5.8132 10.4772 6.40037 11.0534L6.44662 11.0968C6.52132 11.166 6.61192 11.2139 6.70959 11.2357C6.80726 11.2574 6.90868 11.2525 7.00395 11.2212L8.9384 10.5851C9.15824 10.513 9.3937 10.5112 9.61455 10.5798C9.8354 10.6484 10.0316 10.7843 10.1779 10.9701L11.0937 12.13C11.4753 12.6128 11.429 13.3225 10.9908 13.7485C9.79173 14.9157 8.14288 15.1547 6.99585 14.1927C5.58985 13.0089 4.40458 11.565 3.49927 9.93332C2.58661 8.30287 1.97699 6.50725 1.70242 4.64076H1.70358ZM5.22213 6.77106L6.46165 5.5834C6.80141 5.25817 7.04029 4.83436 7.14763 4.36639C7.25497 3.89841 7.22588 3.40763 7.06407 2.95704L6.56225 1.55696C6.35683 0.985152 5.95027 0.516622 5.42542 0.246839C4.90056 -0.0229448 4.29691 -0.0736795 3.73747 0.104973C1.79145 0.726562 0.229324 2.54788 0.560019 4.82301C0.791274 6.41139 1.32432 8.43185 2.50025 10.5416C3.47697 12.301 4.75552 13.8578 6.27202 15.1341C7.99256 16.5765 10.2889 16.084 11.7805 14.6333C12.2073 14.2184 12.4664 13.6493 12.5048 13.0419C12.5433 12.4345 12.3583 11.8346 11.9875 11.3648L11.0717 10.2037C10.7788 9.83251 10.3863 9.56115 9.94459 9.42438C9.5029 9.28761 9.03214 9.29168 8.59267 9.43605L6.9866 9.9635C6.57193 9.5172 6.2087 9.02179 5.90433 8.48737C5.61031 7.94708 5.38119 7.37105 5.22213 6.77227V6.77106Z" fill="black"/>
</svg>