<svg xmlns="http://www.w3.org/2000/svg" width="12" height="12" viewBox="0 0 12 12" fill="none">
<path d="M0.949322 11.0506C1.25054 11.3523 1.60839 11.5914 2.00232 11.7544C2.39625 11.9173 2.81849 12.0008 3.24478 12C3.67116 12.0007 4.0935 11.9173 4.48753 11.7543C4.88156 11.5914 5.23953 11.3523 5.54089 11.0506L7.37726 9.21362L6.45907 8.29544L4.62271 10.1325C4.25678 10.4968 3.76145 10.7013 3.24511 10.7013C2.72876 10.7013 2.23343 10.4968 1.86751 10.1325C1.5029 9.7667 1.29816 9.27131 1.29816 8.75486C1.29816 8.23841 1.5029 7.74302 1.86751 7.37726L3.70452 5.54089L2.78634 4.62271L0.949322 6.45907C0.341402 7.06846 0 7.89409 0 8.75486C0 9.61563 0.341402 10.4413 0.949322 11.0506ZM11.0506 5.54089C11.6582 4.93133 11.9994 4.10577 11.9994 3.24511C11.9994 2.38444 11.6582 1.55888 11.0506 0.949322C10.4413 0.341402 9.61563 0 8.75486 0C7.89409 0 7.06846 0.341402 6.45907 0.949322L4.62271 2.78634L5.54089 3.70452L7.37726 1.86751C7.74319 1.50321 8.23851 1.29869 8.75486 1.29869C9.2712 1.29869 9.76653 1.50321 10.1325 1.86751C10.4971 2.23327 10.7018 2.72866 10.7018 3.24511C10.7018 3.76156 10.4971 4.25694 10.1325 4.62271L8.29544 6.45907L9.21363 7.37726L11.0506 5.54089Z" fill="black" fill-opacity="0.5"/>
<path d="M3.7079 9.21374L2.78906 8.29556L8.30011 2.78516L9.2183 3.70399L3.7079 9.21374Z" fill="black" fill-opacity="0.5"/>
</svg>