<svg xmlns="http://www.w3.org/2000/svg" width="21" height="16" viewBox="0 0 21 16" fill="none">
<path d="M18.1893 16H2.86131C2.35316 16 1.86582 15.7893 1.5065 15.4142C1.14718 15.0391 0.945313 14.5304 0.945312 14V1.913C0.966803 1.39779 1.17812 0.911159 1.53513 0.554701C1.89215 0.198243 2.36727 -0.000487239 2.86131 8.9712e-07H18.1893C18.6975 8.9712e-07 19.1848 0.210714 19.5441 0.585787C19.9034 0.96086 20.1053 1.46957 20.1053 2V14C20.1053 14.5304 19.9034 15.0391 19.5441 15.4142C19.1848 15.7893 18.6975 16 18.1893 16ZM2.86131 3.868V14H18.1893V3.868L10.5253 9.2L2.86131 3.868ZM3.62771 2L10.5253 6.8L17.4229 2H3.62771Z" fill="black"/>
</svg>