<svg xmlns="http://www.w3.org/2000/svg" width="12" height="12" viewBox="0 0 12 12" fill="none">
<path d="M10.1549 11.9999H0.923169C0.678442 11.9995 0.443843 11.9022 0.270795 11.7291C0.097746 11.5561 0.000366267 11.3215 0 11.0767V1.84504C0.000366267 1.60032 0.097746 1.36572 0.270795 1.19267C0.443843 1.01962 0.678442 0.922241 0.923169 0.921875H5.53902V1.84504H0.923169V11.0767H10.1549V6.46089H11.078V11.0767C11.0777 11.3215 10.9803 11.5561 10.8072 11.7291C10.6342 11.9022 10.3996 11.9995 10.1549 11.9999Z" fill="black"/>
<path d="M7.38411 0V0.923169H10.4241L6.46094 4.88634L7.11362 5.53902L11.0768 1.57585V4.61585H12V0H7.38411Z" fill="black"/>
</svg>