<svg xmlns="http://www.w3.org/2000/svg" width="24" height="22" viewBox="0 0 24 24" fill="none">
<path fill-rule="evenodd" clip-rule="evenodd" d="M12 24C15.1826 24 18.2348 22.7357 20.4853 20.4853C22.7357 18.2348 24 15.1826 24 12C24 8.8174 22.7357 5.76516 20.4853 3.51472C18.2348 1.26428 15.1826 0 12 0C8.8174 0 5.76516 1.26428 3.51472 3.51472C1.26428 5.76516 0 8.8174 0 12C0 15.1826 1.26428 18.2348 3.51472 20.4853C5.76516 22.7357 8.8174 24 12 24ZM7.5 4.5C7.10218 4.5 6.72064 4.65804 6.43934 4.93934C6.15804 5.22064 6 5.60218 6 6C6 6.39782 6.15804 6.77936 6.43934 7.06066C6.72064 7.34196 7.10218 7.5 7.5 7.5H9C9.5266 7.50001 10.0439 7.63864 10.5 7.90194C10.956 8.16525 11.3347 8.54395 11.598 9H7.5C7.10218 9 6.72064 9.15804 6.43934 9.43934C6.15804 9.72064 6 10.1022 6 10.5C6 10.8978 6.15804 11.2794 6.43934 11.5607C6.72064 11.842 7.10218 12 7.5 12H11.598C11.3347 12.456 10.956 12.8348 10.5 13.0981C10.0439 13.3614 9.5266 13.5 9 13.5H7.5C7.20337 13.5001 6.91343 13.5881 6.66681 13.7529C6.4202 13.9177 6.22799 14.152 6.11448 14.426C6.00098 14.7001 5.97127 15.0016 6.02912 15.2925C6.08698 15.5835 6.22979 15.8507 6.4395 16.0605L10.9395 20.5605C11.2224 20.8337 11.6013 20.9849 11.9946 20.9815C12.3879 20.9781 12.7641 20.8203 13.0422 20.5422C13.3203 20.2641 13.4781 19.8879 13.4815 19.4946C13.4849 19.1013 13.3337 18.7224 13.0605 18.4395L10.836 16.2135C11.7998 15.9028 12.6695 15.3537 13.3644 14.6171C14.0593 13.8805 14.5569 12.9803 14.811 12H16.5C16.8978 12 17.2794 11.842 17.5607 11.5607C17.842 11.2794 18 10.8978 18 10.5C18 10.1022 17.842 9.72064 17.5607 9.43934C17.2794 9.15804 16.8978 9 16.5 9H14.811C14.6752 8.47434 14.4683 7.96968 14.196 7.5H16.5C16.8978 7.5 17.2794 7.34196 17.5607 7.06066C17.842 6.77936 18 6.39782 18 6C18 5.60218 17.842 5.22064 17.5607 4.93934C17.2794 4.65804 16.8978 4.5 16.5 4.5H7.5Z" fill="black"/>
</svg>