<svg xmlns="http://www.w3.org/2000/svg" width="32" height="32" viewBox="0 0 32 32" fill="none">
<path d="M9.6 32C8.72 32 7.96693 31.6869 7.3408 31.0608C6.7136 30.4336 6.4 29.68 6.4 28.8C6.4 27.92 6.7136 27.1664 7.3408 26.5392C7.96693 25.9131 8.72 25.6 9.6 25.6C10.48 25.6 11.2331 25.9131 11.8592 26.5392C12.4864 27.1664 12.8 27.92 12.8 28.8C12.8 29.68 12.4864 30.4336 11.8592 31.0608C11.2331 31.6869 10.48 32 9.6 32ZM25.6 32C24.72 32 23.9669 31.6869 23.3408 31.0608C22.7136 30.4336 22.4 29.68 22.4 28.8C22.4 27.92 22.7136 27.1664 23.3408 26.5392C23.9669 25.9131 24.72 25.6 25.6 25.6C26.48 25.6 27.2336 25.9131 27.8608 26.5392C28.4869 27.1664 28.8 27.92 28.8 28.8C28.8 29.68 28.4869 30.4336 27.8608 31.0608C27.2336 31.6869 26.48 32 25.6 32ZM9.6 24C8.4 24 7.49333 23.4731 6.88 22.4192C6.26667 21.3664 6.24 20.32 6.8 19.28L8.96 15.36L3.2 3.2H1.56C1.10667 3.2 0.733333 3.0464 0.44 2.7392C0.146667 2.43307 0 2.05333 0 1.6C0 1.14667 0.1536 0.7664 0.4608 0.4592C0.766933 0.153067 1.14667 0 1.6 0H4.2C4.49333 0 4.77333 0.0800002 5.04 0.24C5.30667 0.4 5.50667 0.626667 5.64 0.92L6.72 3.2H30.32C31.04 3.2 31.5333 3.46667 31.8 4C32.0667 4.53333 32.0533 5.09333 31.76 5.68L26.08 15.92C25.7867 16.4533 25.4 16.8667 24.92 17.16C24.44 17.4533 23.8933 17.6 23.28 17.6H11.36L9.6 20.8H27.24C27.6933 20.8 28.0667 20.9531 28.36 21.2592C28.6533 21.5664 28.8 21.9467 28.8 22.4C28.8 22.8533 28.6464 23.2331 28.3392 23.5392C28.0331 23.8464 27.6533 24 27.2 24H9.6Z" fill="black"/>
</svg>