<svg xmlns="http://www.w3.org/2000/svg" width="25" height="25" viewBox="0 0 60 60" fill="none">
<g clip-path="url(#clip0_4740_1011)">
<path d="M26.265 47.9785C22.9616 47.9785 20.2734 50.668 20.2734 53.97C20.2734 57.2734 22.9616 59.9616 26.265 59.9616C29.5683 59.9616 32.2565 57.2734 32.2565 53.97C32.2565 50.6667 29.5697 47.9785 26.265 47.9785Z" fill="#010002"/>
<path d="M45.0384 47.9785C41.735 47.9785 39.0469 50.668 39.0469 53.97C39.0469 57.2734 41.735 59.9616 45.0384 59.9616C48.3404 59.9616 51.0299 57.2734 51.0299 53.97C51.0299 50.6667 48.3404 47.9785 45.0384 47.9785Z" fill="#010002"/>
<path d="M59.7166 15.197C59.4649 14.8748 59.0789 14.6871 58.6688 14.6871H13.6512L9.94042 1.01982C9.93239 0.990585 9.91119 0.967824 9.90048 0.939932C9.87125 0.853354 9.82729 0.777486 9.78065 0.70028C9.7367 0.62709 9.69675 0.555239 9.64075 0.492537C9.58608 0.430058 9.52226 0.383422 9.45576 0.332769C9.38659 0.279439 9.31987 0.227671 9.24133 0.189067C9.16814 0.151803 9.08959 0.133059 9.00837 0.109183C8.92179 0.0839687 8.83789 0.0625473 8.74618 0.0558531C8.71427 0.0545143 8.68749 0.0371094 8.65425 0.0371094H1.33147C0.596452 0.0371094 0 0.633561 0 1.36858C0 2.1036 0.596452 2.70006 1.33147 2.70006H7.63584L11.3413 16.35L17.9958 43.3077C18.1421 43.9028 18.6761 44.3209 19.2886 44.3209H52.0103C52.6228 44.3209 53.1554 43.9041 53.3031 43.3077L59.9603 16.3379C60.06 15.9398 59.9697 15.5203 59.7166 15.197Z" fill="#010002"/>
</g>
<defs>
<clipPath id="clip0_4740_1011">
<rect width="60" height="60" fill="white"/>
</clipPath>
</defs>
</svg>