<svg xmlns="http://www.w3.org/2000/svg" width="25" height="25" viewBox="0 0 60 60" fill="none">
<g clip-path="url(#clip0_4740_973)">
<path d="M59.2085 0.29325C58.8175 -0.09775 58.1855 -0.09775 57.7945 0.29325L54.0875 4.00025H30.8045L11.9375 23.0222L37.2965 48.3813L55.5015 29.6873V5.41425L59.2085 1.70725C59.5995 1.31625 59.5995 0.68425 59.2085 0.29325ZM44.5015 20.0002C41.7445 20.0002 39.5015 17.7572 39.5015 15.0002C39.5015 12.2432 41.7445 10.0002 44.5015 10.0002C47.2585 10.0002 49.5015 12.2432 49.5015 15.0002C49.5015 17.7572 47.2585 20.0002 44.5015 20.0002Z" fill="black"/>
<path d="M1.534 33.5104C0.867 34.1764 0.5 35.0624 0.5 36.0054C0.5 36.9484 0.867 37.8344 1.534 38.5004L22 58.9664C22.666 59.6324 23.552 59.9994 24.495 59.9994C25.437 59.9994 26.323 59.6324 26.999 58.9564L35.901 49.8144L10.528 24.4414L1.534 33.5104Z" fill="black"/>
</g>
<defs>
<clipPath id="clip0_4740_973">
<rect width="60" height="60" fill="white"/>
</clipPath>
</defs>
</svg>