<svg xmlns="http://www.w3.org/2000/svg" width="25" height="25" viewBox="0 0 60 60" fill="none">
<g clip-path="url(#clip0_4740_1032)">
<path d="M28.5533 0C24.2031 0 20.6641 3.53917 20.6641 7.88927C20.6641 12.2394 24.2031 15.7786 28.5533 15.7786C32.9035 15.7786 36.4427 12.2395 36.4427 7.88938C36.4427 3.53928 32.9035 0 28.5533 0Z" fill="black"/>
<path d="M56.4352 26.3447V29.0038C56.4352 31.0181 55.1651 32.7405 53.3842 33.4148C52.3438 24.154 44.4663 16.9314 34.9322 16.9314H23.0057C22.7098 16.9314 22.4126 16.9385 22.1151 16.9527C20.733 14.1028 17.808 12.2148 14.5594 12.2148H12.7771V20.0012C9.82895 21.951 7.48778 24.7105 6.04779 27.9295H0V43.0731H6.0458C7.13001 45.4947 8.73582 47.6779 10.7389 49.4409C12.7136 51.1791 15.0435 52.4804 17.5435 53.2506V60.0003H27.8153V54.0712H30.1228V60.0003H40.3946V53.2525C43.8931 52.1735 47.0389 50.0552 49.3635 47.1884C51.6952 44.3127 53.1115 40.7815 53.4323 37.1044C57.1788 36.3133 60 32.9823 60 29.0036V26.3446H56.4352V26.3447ZM13.393 31.1856C12.3466 31.1854 11.4953 30.3341 11.4953 29.2878C11.4953 28.2413 12.3467 27.3902 13.393 27.3902C14.4393 27.3902 15.2906 28.2416 15.2906 29.2878C15.2907 30.3342 14.4393 31.1856 13.393 31.1856ZM35.1097 25.543H21.9965V21.9785H35.1097V25.543Z" fill="black"/>
</g>
<defs>
<clipPath id="clip0_4740_1032">
<rect width="60" height="60" fill="white"/>
</clipPath>
</defs>
</svg>