<svg width="71" height="118" viewBox="0 0 71 118" fill="none" xmlns="http://www.w3.org/2000/svg">
<path d="M13.0759 103.168C14.0679 103.456 14.8359 103.96 15.3799 104.68C15.9239 105.4 16.1959 106.28 16.1959 107.32C16.1959 108.76 15.6599 109.904 14.5879 110.752C13.5159 111.584 12.0599 112 10.2199 112H2.10791V94.912H9.97991C11.7559 94.912 13.1559 95.312 14.1799 96.112C15.2199 96.896 15.7399 97.976 15.7399 99.352C15.7399 100.248 15.4999 101.032 15.0199 101.704C14.5559 102.376 13.9079 102.864 13.0759 103.168ZM5.75591 101.872H9.35591C10.3159 101.872 11.0279 101.712 11.4919 101.392C11.9719 101.056 12.2119 100.544 12.2119 99.856C12.2119 99.152 11.9719 98.632 11.4919 98.296C11.0279 97.96 10.3159 97.792 9.35591 97.792H5.75591V101.872ZM9.78791 109.12C10.7959 109.12 11.5239 108.952 11.9719 108.616C12.4359 108.264 12.6679 107.712 12.6679 106.96C12.6679 106.192 12.4359 105.632 11.9719 105.28C11.5239 104.928 10.7959 104.752 9.78791 104.752H5.75591V109.12H9.78791ZM18.9788 94.336H22.6028V112H18.9788V94.336ZM31.7728 112.192C30.4768 112.192 29.3408 111.936 28.3648 111.424C27.4048 110.912 26.6608 110.176 26.1328 109.216C25.6208 108.256 25.3648 107.136 25.3648 105.856C25.3648 104.576 25.6208 103.456 26.1328 102.496C26.6608 101.536 27.4048 100.8 28.3648 100.288C29.3408 99.776 30.4768 99.52 31.7728 99.52C33.0528 99.52 34.1728 99.776 35.1328 100.288C36.0928 100.8 36.8288 101.536 37.3408 102.496C37.8688 103.456 38.1328 104.576 38.1328 105.856C38.1328 107.136 37.8688 108.256 37.3408 109.216C36.8288 110.176 36.0928 110.912 35.1328 111.424C34.1728 111.936 33.0528 112.192 31.7728 112.192ZM31.7728 109.432C32.6688 109.432 33.3488 109.136 33.8128 108.544C34.2928 107.952 34.5328 107.056 34.5328 105.856C34.5328 104.672 34.2928 103.784 33.8128 103.192C33.3488 102.584 32.6688 102.28 31.7728 102.28C30.8608 102.28 30.1648 102.584 29.6848 103.192C29.2048 103.784 28.9648 104.672 28.9648 105.856C28.9648 108.24 29.9008 109.432 31.7728 109.432ZM53.1612 99.832V111.448C53.1612 113.384 52.6012 114.856 51.4812 115.864C50.3612 116.872 48.7292 117.376 46.5852 117.376C44.6492 117.376 42.9692 117 41.5452 116.248L42.0972 113.56C43.5692 114.296 45.0252 114.664 46.4652 114.664C47.5052 114.664 48.2812 114.416 48.7932 113.92C49.3052 113.44 49.5612 112.704 49.5612 111.712V109.6C49.1772 110.192 48.6412 110.688 47.9532 111.088C47.2652 111.472 46.5052 111.664 45.6732 111.664C44.6172 111.664 43.6812 111.416 42.8652 110.92C42.0492 110.408 41.4092 109.696 40.9452 108.784C40.4812 107.856 40.2492 106.792 40.2492 105.592C40.2492 104.392 40.4812 103.336 40.9452 102.424C41.4092 101.496 42.0492 100.784 42.8652 100.288C43.6812 99.776 44.6172 99.52 45.6732 99.52C46.5212 99.52 47.2892 99.704 47.9772 100.072C48.6652 100.44 49.1932 100.936 49.5612 101.56V99.832H53.1612ZM46.7292 108.904C47.6092 108.904 48.2972 108.616 48.7932 108.04C49.3052 107.448 49.5612 106.632 49.5612 105.592C49.5612 104.568 49.3132 103.768 48.8172 103.192C48.3212 102.6 47.6252 102.304 46.7292 102.304C45.8332 102.304 45.1292 102.6 44.6172 103.192C44.1052 103.768 43.8492 104.568 43.8492 105.592C43.8492 106.616 44.1052 107.424 44.6172 108.016C45.1292 108.608 45.8332 108.904 46.7292 108.904Z" fill="white"/>
<g clip-path="url(#clip0)">
<path d="M54.0666 11.9101C54.0666 10.2736 53.4279 8.73303 52.2704 7.57557L46.491 1.79614C45.3496 0.654616 43.7293 0 42.1168 0H41.7656V12.2613H54.0667L54.0666 11.9101Z" fill="white"/>
<path d="M38.3202 42.1702C38.7114 40.9828 39.3939 39.8772 40.2839 38.9812L54.1204 25.2005V16.3484H39.7611C38.6315 16.3484 37.7839 15.4344 37.7839 14.3048V0H7.13064C3.75007 0 1 2.75007 1 6.13064V63.6224C1 67.003 3.75007 69.7531 7.13064 69.7531H47.9352C51.3158 69.7531 54.1204 67.003 54.1204 63.6224V48.3706L51.8747 50.5619C50.9647 51.4639 49.8991 52.1204 48.6976 52.5216L42.1998 54.6909L41.2099 54.7449C39.5735 54.7449 38.0249 53.9486 37.063 52.6155C36.1091 51.2884 35.8497 49.5682 36.3685 48.0136L38.3202 42.1702ZM11.2177 36.7839H31.5869C32.7164 36.7839 33.6304 37.6979 33.6304 38.8274C33.6304 39.9569 32.7164 40.871 31.5869 40.871H11.2177C10.0882 40.871 9.17419 39.9569 9.17419 38.8274C9.17419 37.6979 10.0882 36.7839 11.2177 36.7839ZM9.17419 30.6532C9.17419 29.5237 10.0882 28.6097 11.2177 28.6097H31.5869C32.7164 28.6097 33.6304 29.5237 33.6304 30.6532C33.6304 31.7828 32.7164 32.6968 31.5869 32.6968H11.2177C10.0882 32.6968 9.17419 31.7828 9.17419 30.6532ZM9.17419 47.0016C9.17419 45.8721 10.0882 44.958 11.2177 44.958H31.5869C32.7164 44.958 33.6304 45.8721 33.6304 47.0016C33.6304 48.1311 32.7164 49.0451 31.5869 49.0451H11.2177C10.0882 49.0451 9.17419 48.1311 9.17419 47.0016ZM39.7611 57.2193C40.8906 57.2193 41.8046 58.1333 41.8046 59.2629C41.8046 60.3924 40.8907 61.3064 39.7611 61.3064H27.4998C26.3702 61.3064 25.4562 60.3924 25.4562 59.2629C25.4562 58.1333 26.3702 57.2193 27.4998 57.2193H39.7611ZM11.2177 24.5226C10.0882 24.5226 9.17419 23.6086 9.17419 22.479C9.17419 21.3495 10.0882 20.4355 11.2177 20.4355H39.7611C40.8906 20.4355 41.8046 21.3495 41.8046 22.479C41.8046 23.6086 40.8906 24.5226 39.7611 24.5226H11.2177Z" fill="white"/>
<path d="M42.0236 43.9766L40.2457 49.3104C39.9792 50.1094 40.7395 50.8694 41.5385 50.6026L46.8692 48.8222L42.0236 43.9766Z" fill="white"/>
<path d="M57.8923 27.1523L44.4336 40.611L50.2379 46.4154C53.2798 43.3729 59.1986 37.4533 63.6959 32.956L57.8923 27.1523Z" fill="white"/>
<path d="M69.5502 21.2918C68.8319 20.5693 67.7741 20.1562 66.6525 20.1562C65.5309 20.1562 64.4733 20.5693 63.7508 21.2938L60.7812 24.2634L66.5847 30.0668C68.2104 28.4409 69.334 27.3172 69.5545 27.097C71.1508 25.4982 71.1506 22.8942 69.5502 21.2918Z" fill="white"/>
<path d="M69.5547 27.0988C69.5548 27.0988 69.5548 27.0986 69.555 27.0985C69.5605 27.0929 69.563 27.0905 69.5675 27.0859C69.563 27.0906 69.5605 27.0931 69.5547 27.0988Z" fill="white"/>
<path d="M69.5664 27.0892C69.5732 27.0824 69.5811 27.0744 69.5852 27.0703C69.581 27.0746 69.5732 27.0824 69.5664 27.0892Z" fill="white"/>
<path d="M69.5859 27.0696C69.6004 27.0551 69.6007 27.0548 69.5859 27.0696V27.0696Z" fill="white"/>
</g>
<defs>
<clipPath id="clip0">
<rect width="69.7531" height="69.7531" fill="white" transform="translate(1)"/>
</clipPath>
</defs>
</svg>
