<svg width="95" height="113" viewBox="0 0 95 113" fill="none" xmlns="http://www.w3.org/2000/svg">
<path d="M1.77275 89.912H5.51675V107H1.77275V89.912ZM16.6166 94.52C19.4966 94.52 20.9366 96.224 20.9366 99.632V107H17.3126V99.8C17.3126 98.952 17.1526 98.336 16.8326 97.952C16.5286 97.552 16.0406 97.352 15.3686 97.352C14.5686 97.352 13.9286 97.608 13.4486 98.12C12.9686 98.632 12.7286 99.32 12.7286 100.184V107H9.10462V98.312C9.10462 97.016 9.04062 95.856 8.91262 94.832H12.3206L12.5606 96.752C12.9926 96.032 13.5526 95.48 14.2406 95.096C14.9446 94.712 15.7366 94.52 16.6166 94.52ZM28.8794 107.192C26.5754 107.192 24.7594 106.696 23.4314 105.704L24.3914 103.184C25.0314 103.648 25.7434 104.008 26.5274 104.264C27.3114 104.504 28.1114 104.624 28.9274 104.624C29.5514 104.624 30.0314 104.528 30.3674 104.336C30.7034 104.144 30.8714 103.864 30.8714 103.496C30.8714 103.192 30.7514 102.952 30.5114 102.776C30.2714 102.6 29.8474 102.448 29.2394 102.32L27.2474 101.864C26.0794 101.608 25.2154 101.2 24.6554 100.64C24.1114 100.08 23.8394 99.336 23.8394 98.408C23.8394 97.656 24.0554 96.984 24.4874 96.392C24.9354 95.8 25.5514 95.344 26.3354 95.024C27.1194 94.688 28.0234 94.52 29.0474 94.52C29.9114 94.52 30.7594 94.656 31.5914 94.928C32.4234 95.184 33.1674 95.552 33.8234 96.032L32.8154 98.456C32.1914 98.024 31.5514 97.696 30.8954 97.472C30.2554 97.248 29.6314 97.136 29.0234 97.136C28.4314 97.136 27.9674 97.24 27.6314 97.448C27.2954 97.656 27.1274 97.944 27.1274 98.312C27.1274 98.584 27.2234 98.808 27.4154 98.984C27.6234 99.144 27.9834 99.28 28.4954 99.392L30.5354 99.848C31.7834 100.136 32.6874 100.568 33.2474 101.144C33.8074 101.72 34.0874 102.488 34.0874 103.448C34.0874 104.6 33.6234 105.512 32.6954 106.184C31.7674 106.856 30.4954 107.192 28.8794 107.192ZM36.6937 94.832H40.3177V107H36.6937V94.832ZM40.4377 89.12V92.528H36.5737V89.12H40.4377ZM55.9916 94.832V106.448C55.9916 108.384 55.4316 109.856 54.3116 110.864C53.1916 111.872 51.5596 112.376 49.4156 112.376C47.4796 112.376 45.7996 112 44.3756 111.248L44.9276 108.56C46.3996 109.296 47.8556 109.664 49.2956 109.664C50.3356 109.664 51.1116 109.416 51.6236 108.92C52.1356 108.44 52.3916 107.704 52.3916 106.712V104.6C52.0076 105.192 51.4716 105.688 50.7836 106.088C50.0956 106.472 49.3356 106.664 48.5036 106.664C47.4476 106.664 46.5116 106.416 45.6956 105.92C44.8796 105.408 44.2396 104.696 43.7756 103.784C43.3116 102.856 43.0796 101.792 43.0796 100.592C43.0796 99.392 43.3116 98.336 43.7756 97.424C44.2396 96.496 44.8796 95.784 45.6956 95.288C46.5116 94.776 47.4476 94.52 48.5036 94.52C49.3516 94.52 50.1196 94.704 50.8076 95.072C51.4956 95.44 52.0236 95.936 52.3916 96.56V94.832H55.9916ZM49.5596 103.904C50.4396 103.904 51.1276 103.616 51.6236 103.04C52.1356 102.448 52.3916 101.632 52.3916 100.592C52.3916 99.568 52.1436 98.768 51.6476 98.192C51.1516 97.6 50.4556 97.304 49.5596 97.304C48.6636 97.304 47.9596 97.6 47.4476 98.192C46.9356 98.768 46.6796 99.568 46.6796 100.592C46.6796 101.616 46.9356 102.424 47.4476 103.016C47.9596 103.608 48.6636 103.904 49.5596 103.904ZM66.8026 94.52C69.6826 94.52 71.1226 96.224 71.1226 99.632V107H67.4986V99.8C67.4986 98.952 67.3386 98.336 67.0186 97.952C66.7146 97.552 66.2266 97.352 65.5546 97.352C64.7546 97.352 64.1146 97.608 63.6346 98.12C63.1546 98.632 62.9146 99.32 62.9146 100.184V107H59.2906V89.336H62.9146V96.488C63.3466 95.848 63.8986 95.36 64.5706 95.024C65.2426 94.688 65.9866 94.52 66.8026 94.52ZM78.9693 97.544V102.272C78.9693 102.944 79.1453 103.44 79.4973 103.76C79.8493 104.064 80.3053 104.216 80.8653 104.216C81.2173 104.216 81.6173 104.16 82.0653 104.048V106.856C81.4893 107.08 80.7933 107.192 79.9773 107.192C78.4733 107.192 77.3213 106.768 76.5213 105.92C75.7373 105.072 75.3453 103.88 75.3453 102.344V97.544H73.0413V94.832H75.3453V91.976L78.9693 90.8V94.832H82.0653V97.544H78.9693ZM88.9809 107.192C86.6769 107.192 84.8609 106.696 83.5329 105.704L84.4929 103.184C85.1329 103.648 85.8449 104.008 86.6289 104.264C87.4129 104.504 88.2129 104.624 89.0289 104.624C89.6529 104.624 90.1329 104.528 90.4689 104.336C90.8049 104.144 90.9729 103.864 90.9729 103.496C90.9729 103.192 90.8529 102.952 90.6129 102.776C90.3729 102.6 89.9489 102.448 89.3409 102.32L87.3489 101.864C86.1809 101.608 85.3169 101.2 84.7569 100.64C84.2129 100.08 83.9409 99.336 83.9409 98.408C83.9409 97.656 84.1569 96.984 84.5889 96.392C85.0369 95.8 85.6529 95.344 86.4369 95.024C87.2209 94.688 88.1249 94.52 89.1489 94.52C90.0129 94.52 90.8609 94.656 91.6929 94.928C92.5249 95.184 93.2689 95.552 93.9249 96.032L92.9169 98.456C92.2929 98.024 91.6529 97.696 90.9969 97.472C90.3569 97.248 89.7329 97.136 89.1249 97.136C88.5329 97.136 88.0689 97.24 87.7329 97.448C87.3969 97.656 87.2289 97.944 87.2289 98.312C87.2289 98.584 87.3249 98.808 87.5169 98.984C87.7249 99.144 88.0849 99.28 88.5969 99.392L90.6369 99.848C91.8849 100.136 92.7889 100.568 93.3489 101.144C93.9089 101.72 94.1889 102.488 94.1889 103.448C94.1889 104.6 93.7249 105.512 92.7969 106.184C91.8689 106.856 90.5969 107.192 88.9809 107.192Z" fill="white"/>
<path d="M63.7854 19.2578H56.7305V30.0958H63.7854V19.2578Z" fill="white"/>
<path d="M52.0783 12.4336H45.0234V30.0928H52.0783V12.4336Z" fill="white"/>
<path d="M75.508 4.35547H68.4531V30.0921H75.508V4.35547Z" fill="white"/>
<path d="M45.1445 35.4049L52.6829 53.3346C54.6067 52.421 56.4008 51.2563 58.0183 49.8708L58.0703 49.8253C61.9305 46.5132 64.6234 42.0477 65.7516 37.0881L65.7711 37.0166C65.8946 36.4772 65.9986 35.9248 66.0831 35.3984L45.1445 35.4049ZM60.7412 39.85C60.2482 40.97 59.6498 42.0406 58.9541 43.0473C57.9737 44.4705 56.8139 45.7614 55.5033 46.888L55.4708 46.9205C55.1654 47.1804 54.8535 47.4338 54.535 47.6743L51.0128 39.3041L60.9817 39.2976C60.9037 39.4861 60.8257 39.668 60.7412 39.85Z" fill="white"/>
<path d="M39.6994 33.9632C39.6708 33.8855 39.6531 33.8357 39.6388 33.7861C39.6297 33.754 39.6226 33.7248 39.6076 33.6571L39.5887 33.5668C39.5816 33.5272 39.5756 33.4883 39.5708 33.4454C39.5663 33.4132 39.5632 33.3685 39.5598 33.3055L39.5548 33.0485L40.982 7.81641C39.6281 7.8989 38.2836 8.09458 36.9624 8.40141C33.878 9.12616 30.9682 10.456 28.4017 12.3138C25.8351 14.1716 23.663 16.5204 22.0111 19.2241C20.3592 21.9277 19.2604 24.9324 18.7785 28.0639C18.2966 31.1954 18.4412 34.3914 19.2038 37.4666C19.9664 40.5418 21.3319 43.4351 23.2211 45.9786C25.1103 48.5221 27.4857 50.6652 30.2094 52.2837C32.9332 53.9023 35.9512 54.964 39.0883 55.4074C42.2255 55.8507 45.4195 55.6669 48.4851 54.8665L39.6994 33.9632Z" fill="white"/>
</svg>
