<svg xmlns="http://www.w3.org/2000/svg" width="111" height="145" viewBox="0 0 101 145" fill="none">
<path fill-rule="evenodd" clip-rule="evenodd" d="M55.2751 58.1909L73.7245 55.2244C75.3607 54.9623 76.9192 56.0838 77.1814 57.7248L79.8565 74.3487C80.1187 75.9849 78.9923 77.5434 77.3562 77.8055L58.9068 80.772C57.2706 81.0342 55.7121 79.9078 55.4499 78.2716L52.7747 61.6477C52.5126 60.0116 53.639 58.4531 55.2751 58.1909ZM28.8633 56.2974L46.7884 61.5798C48.3809 62.0507 49.2985 63.7354 48.8275 65.3279L44.0695 81.476C43.5986 83.0685 41.9139 83.9861 40.3214 83.5151L22.4012 78.2376C20.8087 77.7667 19.8911 76.082 20.3621 74.4895L25.1201 58.3414C25.5861 56.7489 27.2709 55.8313 28.8633 56.2974ZM37.3501 72.7756L40.2389 74.9799C39.6757 75.8101 39.0445 76.4461 38.3454 76.8782C37.6462 77.3152 36.8888 77.5579 36.0732 77.6065C35.2575 77.655 34.3156 77.4802 33.2378 77.0724C31.9269 76.5821 30.9316 75.9897 30.2422 75.3003C29.5576 74.6109 29.0964 73.6738 28.8536 72.4892C28.6109 71.3094 28.7662 69.9694 29.3294 68.4789C30.0771 66.4931 31.1792 65.1628 32.6358 64.4928C34.0972 63.8228 35.7964 63.852 37.7336 64.5802C39.2484 65.1483 40.3263 65.9008 40.9623 66.8427C41.5983 67.7797 41.8896 68.9644 41.8313 70.3918L38.2871 69.8869C38.3114 69.479 38.2871 69.1683 38.224 68.9547C38.122 68.5954 37.9473 68.2798 37.7045 68.0176C37.4617 67.7506 37.151 67.5467 36.782 67.4108C35.9372 67.0952 35.1653 67.1874 34.4613 67.6972C33.9369 68.071 33.466 68.7945 33.063 69.8674C32.5629 71.1977 32.4221 72.1833 32.6406 72.8339C32.8591 73.4796 33.3349 73.9409 34.068 74.2128C34.7769 74.4798 35.3886 74.4846 35.9033 74.2176C36.4227 73.9506 36.9034 73.4699 37.3501 72.7756ZM37.9521 31.6432L56.4015 28.6767C58.0377 28.4145 59.5962 29.5361 59.8584 31.1771L62.5335 47.801C62.7957 49.4371 61.6742 50.9956 60.0331 51.2578L41.5837 54.2243C39.9476 54.4865 38.3891 53.3601 38.1269 51.7239L35.4517 35.1C35.1896 33.4638 36.3159 31.9053 37.9521 31.6432ZM51.3619 44.8005L46.9195 45.5045L46.6136 47.6942L42.613 48.3302L45.3707 34.8864L49.6626 34.2067L56.4306 46.1357L52.3281 46.7863L51.3619 44.8005ZM50.0947 42.1885L47.9876 37.848L47.3225 42.6254L50.0947 42.1885ZM60.5963 63.0703L67.9373 61.9051C69.1607 61.7109 70.1463 61.8662 70.8989 62.3663C71.6514 62.8664 72.0981 63.5655 72.2389 64.4588C72.3603 65.2065 72.2292 65.8911 71.8408 66.498C71.5883 66.9058 71.1756 67.2602 70.6076 67.5661C71.5543 67.6389 72.2826 67.9108 72.7972 68.3769C73.3119 68.843 73.6323 69.479 73.7585 70.285C73.8653 70.9453 73.8022 71.557 73.5837 72.1299C73.3604 72.7028 73.006 73.1835 72.5253 73.5767C72.2243 73.8195 71.7485 74.038 71.0979 74.2273C70.2337 74.4846 69.656 74.6352 69.3695 74.6788L62.6015 75.7518L60.5963 63.0703ZM65.3398 67.4205L67.0488 67.1486C67.6605 67.0515 68.0732 66.8767 68.2771 66.6291C68.481 66.3766 68.5539 66.0562 68.4907 65.6581C68.4325 65.2891 68.2674 65.0172 67.9955 64.8521C67.7236 64.6822 67.2867 64.6433 66.6943 64.7356L64.9562 65.0123L65.3398 67.4205ZM66.1312 72.3969L68.1315 72.0814C68.8063 71.9746 69.2627 71.7755 69.5055 71.4939C69.7434 71.2123 69.8307 70.8676 69.7676 70.4646C69.7094 70.0908 69.5249 69.8092 69.2141 69.6247C68.9034 69.4402 68.4033 69.4013 67.7139 69.513L65.7233 69.8286L66.1312 72.3969Z" fill="white"/>
<path d="M70.5201 0.263672H10.7707C4.86835 0.263672 0.0664062 5.13521 0.0664062 11.1231V16.0592H70.5201V0.263672Z" fill="white"/>
<path d="M89.0099 0.263672H76.3594V16.0592H99.7142V11.1231C99.7142 5.13521 94.9123 0.263672 89.0099 0.263672Z" fill="white"/>
<path d="M2.56641 21.9141H97.5665V82.8635C97.5665 87.0056 94.2086 90.3635 90.0665 90.3635H10.0664C5.92428 90.3635 2.56641 87.0056 2.56641 82.8635V21.9141Z" stroke="white" stroke-width="5"/>
<path d="M9.4977 136.055V114.905H14.1777V132.125H23.7177V136.055H9.4977ZM34.1813 136.385C31.5413 136.385 29.4813 135.675 28.0013 134.255C26.5213 132.835 25.7813 130.905 25.7813 128.465C25.7813 126.885 26.0913 125.505 26.7113 124.325C27.3513 123.145 28.2313 122.225 29.3513 121.565C30.4913 120.885 31.8213 120.545 33.3413 120.545C34.8413 120.545 36.0913 120.865 37.0913 121.505C38.1113 122.145 38.8713 123.045 39.3713 124.205C39.8913 125.345 40.1513 126.675 40.1513 128.195V129.245H29.5013V126.995H36.8513L36.3413 127.415C36.3413 126.155 36.0813 125.205 35.5613 124.565C35.0613 123.905 34.3313 123.575 33.3713 123.575C32.3113 123.575 31.4913 123.965 30.9113 124.745C30.3513 125.525 30.0713 126.645 30.0713 128.105V128.585C30.0713 130.065 30.4313 131.165 31.1513 131.885C31.8913 132.605 32.9513 132.965 34.3313 132.965C35.1513 132.965 35.9213 132.865 36.6413 132.665C37.3813 132.445 38.0813 132.105 38.7413 131.645L40.0013 134.645C39.2413 135.205 38.3613 135.635 37.3613 135.935C36.3813 136.235 35.3213 136.385 34.1813 136.385ZM49.3354 136.385C48.0154 136.385 46.8554 136.065 45.8554 135.425C44.8554 134.785 44.0754 133.875 43.5154 132.695C42.9554 131.515 42.6754 130.095 42.6754 128.435C42.6754 126.795 42.9554 125.385 43.5154 124.205C44.0754 123.025 44.8554 122.125 45.8554 121.505C46.8554 120.865 48.0154 120.545 49.3354 120.545C50.5554 120.545 51.6454 120.845 52.6054 121.445C53.5854 122.025 54.2254 122.815 54.5254 123.815H54.1954L54.5554 120.845H58.9054C58.8454 121.505 58.7854 122.175 58.7254 122.855C58.6854 123.515 58.6654 124.165 58.6654 124.805V136.055H54.1654L54.1354 133.205H54.4954C54.1754 134.165 53.5354 134.935 52.5754 135.515C51.6154 136.095 50.5354 136.385 49.3354 136.385ZM50.7154 132.965C51.7554 132.965 52.5954 132.595 53.2354 131.855C53.8754 131.115 54.1954 129.975 54.1954 128.435C54.1954 126.895 53.8754 125.765 53.2354 125.045C52.5954 124.325 51.7554 123.965 50.7154 123.965C49.6754 123.965 48.8354 124.325 48.1954 125.045C47.5554 125.765 47.2354 126.895 47.2354 128.435C47.2354 129.975 47.5454 131.115 48.1654 131.855C48.8054 132.595 49.6554 132.965 50.7154 132.965ZM62.7505 136.055V124.865C62.7505 124.205 62.7305 123.535 62.6905 122.855C62.6705 122.175 62.6205 121.505 62.5405 120.845H66.8905L67.4005 125.285H66.7105C66.9105 124.205 67.2305 123.315 67.6705 122.615C68.1305 121.915 68.6905 121.395 69.3505 121.055C70.0305 120.715 70.8005 120.545 71.6605 120.545C72.0405 120.545 72.3405 120.565 72.5605 120.605C72.7805 120.625 73.0005 120.675 73.2205 120.755L73.1905 124.745C72.7705 124.565 72.4105 124.455 72.1105 124.415C71.8305 124.355 71.4705 124.325 71.0305 124.325C70.1905 124.325 69.4905 124.485 68.9305 124.805C68.3905 125.125 67.9805 125.595 67.7005 126.215C67.4405 126.835 67.3105 127.585 67.3105 128.465V136.055H62.7505ZM75.5145 136.055V124.805C75.5145 124.165 75.4945 123.515 75.4545 122.855C75.4145 122.175 75.3545 121.505 75.2745 120.845H79.6245L79.9545 123.665H79.5945C80.0945 122.665 80.8045 121.895 81.7245 121.355C82.6445 120.815 83.7145 120.545 84.9345 120.545C86.7145 120.545 88.0445 121.065 88.9245 122.105C89.8245 123.125 90.2745 124.715 90.2745 126.875V136.055H85.7445V127.085C85.7445 125.985 85.5445 125.205 85.1445 124.745C84.7445 124.285 84.1445 124.055 83.3445 124.055C82.3445 124.055 81.5445 124.375 80.9445 125.015C80.3445 125.635 80.0445 126.475 80.0445 127.535V136.055H75.5145Z" fill="white"/>
</svg>
