<svg width="134" height="118" viewBox="0 0 134 118" fill="none" xmlns="http://www.w3.org/2000/svg">
<path d="M2.15869 94.912H8.75869C10.6307 94.912 12.2387 95.248 13.5827 95.92C14.9267 96.592 15.9507 97.568 16.6547 98.848C17.3747 100.128 17.7347 101.656 17.7347 103.432C17.7347 105.224 17.3827 106.76 16.6787 108.04C15.9747 109.32 14.9507 110.304 13.6067 110.992C12.2627 111.664 10.6467 112 8.75869 112H2.15869V94.912ZM8.51869 108.976C12.1667 108.976 13.9907 107.128 13.9907 103.432C13.9907 99.768 12.1667 97.936 8.51869 97.936H5.90269V108.976H8.51869ZM33.0263 99.832V112H29.4503V110.2C29.0823 110.824 28.5623 111.312 27.8903 111.664C27.2183 112.016 26.4583 112.192 25.6103 112.192C24.5543 112.192 23.6183 111.936 22.8023 111.424C22.0023 110.912 21.3703 110.184 20.9063 109.24C20.4583 108.28 20.2343 107.176 20.2343 105.928C20.2343 104.68 20.4583 103.568 20.9063 102.592C21.3703 101.616 22.0103 100.864 22.8263 100.336C23.6423 99.792 24.5703 99.52 25.6103 99.52C26.4583 99.52 27.2183 99.704 27.8903 100.072C28.5623 100.44 29.0823 100.936 29.4503 101.56V99.832H33.0263ZM26.6663 109.432C27.5623 109.432 28.2503 109.128 28.7303 108.52C29.2103 107.912 29.4503 107.032 29.4503 105.88C29.4503 104.728 29.2103 103.848 28.7303 103.24C28.2503 102.616 27.5623 102.304 26.6663 102.304C25.7703 102.304 25.0743 102.624 24.5783 103.264C24.0823 103.904 23.8343 104.792 23.8343 105.928C23.8343 107.064 24.0743 107.936 24.5543 108.544C25.0503 109.136 25.7543 109.432 26.6663 109.432ZM41.0075 112.192C38.7035 112.192 36.8875 111.696 35.5595 110.704L36.5195 108.184C37.1595 108.648 37.8715 109.008 38.6555 109.264C39.4395 109.504 40.2395 109.624 41.0555 109.624C41.6795 109.624 42.1595 109.528 42.4955 109.336C42.8315 109.144 42.9995 108.864 42.9995 108.496C42.9995 108.192 42.8795 107.952 42.6395 107.776C42.3995 107.6 41.9755 107.448 41.3675 107.32L39.3755 106.864C38.2075 106.608 37.3435 106.2 36.7835 105.64C36.2395 105.08 35.9675 104.336 35.9675 103.408C35.9675 102.656 36.1835 101.984 36.6155 101.392C37.0635 100.8 37.6795 100.344 38.4635 100.024C39.2475 99.688 40.1515 99.52 41.1755 99.52C42.0395 99.52 42.8875 99.656 43.7195 99.928C44.5515 100.184 45.2955 100.552 45.9515 101.032L44.9435 103.456C44.3195 103.024 43.6795 102.696 43.0235 102.472C42.3835 102.248 41.7595 102.136 41.1515 102.136C40.5595 102.136 40.0955 102.24 39.7595 102.448C39.4235 102.656 39.2555 102.944 39.2555 103.312C39.2555 103.584 39.3515 103.808 39.5435 103.984C39.7515 104.144 40.1115 104.28 40.6235 104.392L42.6635 104.848C43.9115 105.136 44.8155 105.568 45.3755 106.144C45.9355 106.72 46.2155 107.488 46.2155 108.448C46.2155 109.6 45.7515 110.512 44.8235 111.184C43.8955 111.856 42.6235 112.192 41.0075 112.192ZM56.3338 99.52C59.2138 99.52 60.6538 101.224 60.6538 104.632V112H57.0298V104.8C57.0298 103.952 56.8698 103.336 56.5498 102.952C56.2458 102.552 55.7578 102.352 55.0858 102.352C54.2858 102.352 53.6458 102.608 53.1658 103.12C52.6858 103.632 52.4458 104.32 52.4458 105.184V112H48.8218V94.336H52.4458V101.488C52.8778 100.848 53.4298 100.36 54.1018 100.024C54.7738 99.688 55.5178 99.52 56.3338 99.52ZM71.3806 99.52C72.4366 99.52 73.3726 99.784 74.1886 100.312C75.0046 100.824 75.6366 101.56 76.0846 102.52C76.5326 103.464 76.7566 104.56 76.7566 105.808C76.7566 107.056 76.5246 108.168 76.0606 109.144C75.6126 110.104 74.9806 110.856 74.1646 111.4C73.3486 111.928 72.4206 112.192 71.3806 112.192C70.5326 112.192 69.7646 112.016 69.0766 111.664C68.4046 111.296 67.8926 110.8 67.5406 110.176V112H63.9406V94.336H67.5646V101.536C67.9166 100.912 68.4286 100.424 69.1006 100.072C69.7886 99.704 70.5486 99.52 71.3806 99.52ZM70.3486 109.432C71.2446 109.432 71.9326 109.12 72.4126 108.496C72.8926 107.872 73.1326 106.976 73.1326 105.808C73.1326 104.688 72.8926 103.824 72.4126 103.216C71.9326 102.608 71.2446 102.304 70.3486 102.304C69.4526 102.304 68.7566 102.616 68.2606 103.24C67.7806 103.848 67.5406 104.72 67.5406 105.856C67.5406 107.008 67.7806 107.896 68.2606 108.52C68.7566 109.128 69.4526 109.432 70.3486 109.432ZM85.2892 112.192C83.9932 112.192 82.8572 111.936 81.8812 111.424C80.9212 110.912 80.1772 110.176 79.6492 109.216C79.1372 108.256 78.8812 107.136 78.8812 105.856C78.8812 104.576 79.1372 103.456 79.6492 102.496C80.1772 101.536 80.9212 100.8 81.8812 100.288C82.8572 99.776 83.9932 99.52 85.2892 99.52C86.5692 99.52 87.6892 99.776 88.6492 100.288C89.6092 100.8 90.3452 101.536 90.8572 102.496C91.3852 103.456 91.6492 104.576 91.6492 105.856C91.6492 107.136 91.3852 108.256 90.8572 109.216C90.3452 110.176 89.6092 110.912 88.6492 111.424C87.6892 111.936 86.5692 112.192 85.2892 112.192ZM85.2892 109.432C86.1852 109.432 86.8652 109.136 87.3292 108.544C87.8092 107.952 88.0492 107.056 88.0492 105.856C88.0492 104.672 87.8092 103.784 87.3292 103.192C86.8652 102.584 86.1852 102.28 85.2892 102.28C84.3772 102.28 83.6812 102.584 83.2012 103.192C82.7212 103.784 82.4812 104.672 82.4812 105.856C82.4812 108.24 83.4172 109.432 85.2892 109.432ZM106.558 99.832V112H102.982V110.2C102.614 110.824 102.094 111.312 101.422 111.664C100.75 112.016 99.9896 112.192 99.1416 112.192C98.0856 112.192 97.1496 111.936 96.3336 111.424C95.5336 110.912 94.9016 110.184 94.4376 109.24C93.9896 108.28 93.7656 107.176 93.7656 105.928C93.7656 104.68 93.9896 103.568 94.4376 102.592C94.9016 101.616 95.5416 100.864 96.3576 100.336C97.1736 99.792 98.1016 99.52 99.1416 99.52C99.9896 99.52 100.75 99.704 101.422 100.072C102.094 100.44 102.614 100.936 102.982 101.56V99.832H106.558ZM100.198 109.432C101.094 109.432 101.782 109.128 102.262 108.52C102.742 107.912 102.982 107.032 102.982 105.88C102.982 104.728 102.742 103.848 102.262 103.24C101.782 102.616 101.094 102.304 100.198 102.304C99.3016 102.304 98.6056 102.624 98.1096 103.264C97.6136 103.904 97.3656 104.792 97.3656 105.928C97.3656 107.064 97.6056 107.936 98.0856 108.544C98.5816 109.136 99.2856 109.432 100.198 109.432ZM116.963 99.544C117.475 99.544 117.907 99.624 118.259 99.784L118.235 103.096C117.643 102.824 117.051 102.688 116.459 102.688C115.499 102.688 114.763 102.952 114.251 103.48C113.755 103.992 113.507 104.712 113.507 105.64V112H109.883V103.312C109.883 102.016 109.819 100.856 109.691 99.832H113.099L113.339 101.92C113.643 101.152 114.115 100.568 114.755 100.168C115.411 99.752 116.147 99.544 116.963 99.544ZM132.084 94.336V112H128.508V110.2C128.14 110.824 127.62 111.312 126.948 111.664C126.276 112.016 125.516 112.192 124.668 112.192C123.628 112.192 122.7 111.928 121.884 111.4C121.068 110.856 120.428 110.104 119.964 109.144C119.516 108.168 119.292 107.056 119.292 105.808C119.292 104.56 119.516 103.464 119.964 102.52C120.428 101.56 121.06 100.824 121.86 100.312C122.676 99.784 123.612 99.52 124.668 99.52C125.484 99.52 126.228 99.696 126.9 100.048C127.572 100.384 128.092 100.856 128.46 101.464V94.336H132.084ZM125.724 109.432C126.62 109.432 127.308 109.128 127.788 108.52C128.268 107.896 128.508 107.008 128.508 105.856C128.508 104.72 128.26 103.848 127.764 103.24C127.284 102.616 126.604 102.304 125.724 102.304C124.828 102.304 124.132 102.608 123.636 103.216C123.14 103.824 122.892 104.688 122.892 105.808C122.892 106.96 123.14 107.856 123.636 108.496C124.132 109.12 124.828 109.432 125.724 109.432Z" fill="white"/>
<g clip-path="url(#clip0)">
<path d="M83.3176 0H41.493C37.3614 0 34 3.36136 34 7.49301V10.8989H83.3176V0Z" fill="white"/>
<path d="M96.2616 0H87.4062V10.8989H103.755V7.49301C103.755 3.36136 100.393 0 96.2616 0Z" fill="white"/>
<path d="M81.8196 38.0559V30.6211C77.919 31.5464 75.0078 35.0564 75.0078 39.2359C75.0078 40.1179 75.1391 40.9693 75.3803 41.7738L81.8196 38.0559Z" fill="white"/>
<path d="M81.8206 42.7734L77.4297 45.3085C78.5966 46.5438 80.1133 47.4436 81.8206 47.8487V42.7734Z" fill="white"/>
<path d="M53.8908 41.2773C49.7109 41.2773 46.1983 44.188 45.2734 48.0892H62.5083C61.5833 44.188 58.0707 41.2773 53.8908 41.2773Z" fill="white"/>
<path d="M57.2962 33.7869V31.0622C57.2962 29.1841 55.7683 27.6562 53.8903 27.6562C52.0123 27.6562 50.4844 29.1841 50.4844 31.0622V33.7869C50.4844 35.6649 52.0123 37.1928 53.8903 37.1928C55.7683 37.1928 57.2962 35.6649 57.2962 33.7869Z" fill="white"/>
<path d="M34 14.9844V62.2584C34 66.3901 37.3614 69.7514 41.493 69.7514H96.2601C100.392 69.7514 103.753 66.3901 103.753 62.2584V14.9844H34ZM62.7459 61.1685H45.0352C43.9066 61.1685 42.9916 60.2536 42.9916 59.125C42.9916 57.9964 43.9066 57.0815 45.0352 57.0815H62.7459C63.8745 57.0815 64.7894 57.9964 64.7894 59.125C64.7894 60.2536 63.8745 61.1685 62.7459 61.1685ZM64.7894 52.1769H42.9916C41.863 52.1769 40.9481 51.262 40.9481 50.1334C40.9481 45.0713 43.8698 40.6794 48.1149 38.5534C47.0427 37.257 46.3975 35.5949 46.3975 33.785V31.0603C46.3975 26.9286 49.7589 23.5673 53.8905 23.5673C58.0222 23.5673 61.3835 26.9286 61.3835 31.0603V33.785C61.3835 35.5949 60.7383 37.257 59.6661 38.5534C63.9113 40.6794 66.833 45.0713 66.833 50.1334C66.833 51.262 65.918 52.1769 64.7894 52.1769ZM92.7179 61.1685H75.0072C73.8786 61.1685 72.9636 60.2536 72.9636 59.125C72.9636 57.9964 73.8786 57.0815 75.0072 57.0815H92.7179C93.8465 57.0815 94.7615 57.9964 94.7615 59.125C94.7615 60.2536 93.8465 61.1685 92.7179 61.1685ZM83.8626 52.1769C76.7261 52.1769 70.9201 46.3709 70.9201 39.2345C70.9201 32.098 76.7261 26.292 83.8626 26.292C90.999 26.292 96.805 32.098 96.805 39.2345C96.805 46.3709 90.999 52.1769 83.8626 52.1769Z" fill="white"/>
<path d="M85.9062 30.6211V47.8505C89.8068 46.9252 92.7181 43.4152 92.7181 39.2357C92.7181 35.0563 89.8068 31.5464 85.9062 30.6211Z" fill="white"/>
</g>
<defs>
<clipPath id="clip0">
<rect width="69.7531" height="69.7531" fill="white" transform="translate(34)"/>
</clipPath>
</defs>
</svg>
