<svg xmlns="http://www.w3.org/2000/svg" width="101" height="94" viewBox="0 0 101 94" fill="none">
<path d="M0.552979 93.0939H92.1381H100.553V84.5815V19.6445H0.552979V93.0939ZM50.553 27.4021C66.5254 27.4021 79.5202 40.3967 79.5202 56.3693C79.5202 72.342 66.5256 85.3363 50.553 85.3363C34.5803 85.3363 21.5858 72.3418 21.5858 56.3691C21.5858 40.3965 34.5805 27.4021 50.553 27.4021Z" fill="white"/>
<path d="M71.359 0.138672H11.6096C5.70722 0.138672 0.905273 5.01021 0.905273 10.9981V15.9342H71.359V0.138672Z" fill="white"/>
<path d="M89.8488 0.138672H77.1982V15.9342H100.553V10.9981C100.553 5.01021 95.7511 0.138672 89.8488 0.138672Z" fill="white"/>
<path d="M56.8561 56.084C52.3191 56.084 48.6069 59.8499 48.6069 64.4527C48.6069 66.1265 49.1225 67.8002 50.0505 69.2647C50.2568 69.5786 50.5661 69.6832 50.8755 69.6832C51.1848 69.6832 51.4941 69.4739 51.7004 69.2647C52.4222 68.2186 53.4533 67.3818 54.6907 66.9633L59.1246 60.6868C59.434 60.2683 60.0527 60.0591 60.5682 60.4776C60.9807 60.7914 61.1869 61.419 60.7745 61.9421L57.4748 66.5449C59.2277 66.7541 60.8776 67.6956 61.9087 69.1601C62.115 69.4739 62.4243 69.5786 62.7336 69.5786C63.043 69.5786 63.3523 69.3693 63.5586 69.1601C64.4866 67.8002 65.0022 66.1265 65.0022 64.3481C65.1053 59.8499 61.3932 56.084 56.8561 56.084Z" fill="white"/>
<path d="M46.4435 64.4531C46.4435 58.6996 51.0837 53.9922 56.755 53.9922C60.1578 53.9922 63.1481 55.6659 65.0042 58.1765V46.6695C65.0042 44.8912 63.6637 43.5312 61.9107 43.5312H39.2255C37.4726 43.5312 36.1321 44.8912 36.1321 46.6695V65.4992C36.1321 67.2775 37.4726 68.6374 39.2255 68.6374H47.2685C46.7529 67.2775 46.4435 65.9176 46.4435 64.4531ZM46.5467 47.2972C46.6498 47.1926 46.6498 47.088 46.7529 46.9833C47.1653 46.5649 47.784 46.5649 48.1965 46.9833C48.2996 47.088 48.4027 47.1926 48.4027 47.2972C48.5058 47.4018 48.5058 47.611 48.5058 47.7156C48.5058 47.8202 48.5058 48.0294 48.4027 48.134C48.2996 48.2387 48.2996 48.3433 48.1965 48.4479C47.9903 48.6571 47.784 48.7617 47.4747 48.7617C47.3716 48.7617 47.1653 48.7617 47.0622 48.6571C46.9591 48.5525 46.856 48.5525 46.7529 48.4479C46.6498 48.3433 46.5467 48.2387 46.5467 48.134C46.4435 48.0294 46.4435 47.8202 46.4435 47.7156C46.4435 47.611 46.4435 47.4018 46.5467 47.2972ZM43.4532 47.2972C43.5563 47.1926 43.5563 47.088 43.6594 46.9833C43.7626 46.8787 43.8657 46.7741 43.9688 46.7741C44.3813 46.5649 44.7937 46.6695 45.1031 46.9833C45.2062 47.088 45.3093 47.1926 45.3093 47.2972C45.4124 47.4018 45.4124 47.611 45.4124 47.7156C45.4124 48.0294 45.3093 48.2387 45.1031 48.4479C44.8968 48.6571 44.6906 48.7617 44.3813 48.7617C44.0719 48.7617 43.8657 48.6571 43.6594 48.4479C43.4532 48.2387 43.3501 48.0294 43.3501 47.7156C43.3501 47.611 43.3501 47.4018 43.4532 47.2972ZM40.566 46.9833L40.6691 46.8787C40.7722 46.8787 40.7722 46.7741 40.8754 46.7741C40.9785 46.6695 40.9785 46.6695 41.0816 46.6695C41.1847 46.6695 41.3909 46.6695 41.494 46.6695C41.5972 46.6695 41.5972 46.6695 41.7003 46.7741C41.8034 46.7741 41.8034 46.8787 41.9065 46.8787L42.0096 46.9833C42.1127 47.088 42.2158 47.1926 42.2158 47.2972C42.319 47.4018 42.319 47.611 42.319 47.7156C42.319 47.8202 42.319 48.0294 42.2158 48.134C42.2158 48.2387 42.1127 48.3433 42.0096 48.4479C41.8034 48.6571 41.5972 48.7617 41.2878 48.7617C40.9785 48.7617 40.7722 48.6571 40.566 48.4479C40.3598 48.2387 40.2567 48.0294 40.2567 47.7156C40.2567 47.4018 40.3598 47.1926 40.566 46.9833ZM41.2878 53.9922H46.4435C47.0622 53.9922 47.4747 54.4106 47.4747 55.0382C47.4747 55.6659 47.0622 56.0843 46.4435 56.0843H41.2878C40.6691 56.0843 40.2567 55.6659 40.2567 55.0382C40.2567 54.4106 40.6691 53.9922 41.2878 53.9922ZM43.3501 59.2226H41.2878C40.6691 59.2226 40.2567 58.8042 40.2567 58.1765C40.2567 57.5489 40.6691 57.1304 41.2878 57.1304H43.3501C43.9688 57.1304 44.3813 57.5489 44.3813 58.1765C44.3813 58.8042 43.9688 59.2226 43.3501 59.2226Z" fill="white"/>
</svg>
