<svg width="99" height="118" viewBox="0 0 99 118" fill="none" xmlns="http://www.w3.org/2000/svg">
<path d="M72.59 4.66797C62.5842 4.66797 49.1582 11.5326 40.1422 23.3346H32.6681C27.2674 23.3346 24.172 27.3657 22.0407 31.6287L19.1875 37.3346H25.9234H32.6681L39.6681 44.3346L46.6681 51.3346V58.0794V64.8152L52.374 61.9625C56.637 59.8308 60.6681 56.7354 60.6681 51.3346V43.8605C72.4701 34.8445 79.3348 21.4185 79.3348 11.4127V4.66797H72.59ZM60.6681 18.668C63.2455 18.668 65.3348 20.7572 65.3348 23.3346C65.3348 25.912 63.2455 28.0013 60.6681 28.0013C58.0907 28.0013 56.0014 25.912 56.0014 23.3346C56.0014 20.7572 58.0907 18.668 60.6681 18.668ZM30.3348 46.668L28.0014 49.0013C24.6312 52.3716 23.3348 60.668 23.3348 60.668C23.3348 60.668 31.2588 59.744 35.0014 56.0013L37.3348 53.668L30.3348 46.668Z" fill="white"/>
<path d="M8.15578 112.216C6.85978 112.216 5.61178 112.048 4.41178 111.712C3.22778 111.36 2.24378 110.872 1.45978 110.248L2.65978 107.56C4.30778 108.712 6.14778 109.288 8.17978 109.288C9.26778 109.288 10.0998 109.12 10.6758 108.784C11.2678 108.432 11.5638 107.944 11.5638 107.32C11.5638 106.776 11.2918 106.352 10.7478 106.048C10.2198 105.728 9.28378 105.424 7.93978 105.136C6.43578 104.832 5.23578 104.464 4.33978 104.032C3.45978 103.584 2.81178 103.048 2.39578 102.424C1.99578 101.784 1.79578 100.992 1.79578 100.048C1.79578 99.024 2.07578 98.104 2.63578 97.288C3.21178 96.472 4.01178 95.84 5.03578 95.392C6.05978 94.928 7.24378 94.696 8.58778 94.696C9.80378 94.696 10.9718 94.872 12.0918 95.224C13.2118 95.576 14.1078 96.056 14.7798 96.664L13.5798 99.352C12.0758 98.2 10.4198 97.624 8.61178 97.624C7.65178 97.624 6.88378 97.816 6.30778 98.2C5.73178 98.584 5.44378 99.104 5.44378 99.76C5.44378 100.144 5.54778 100.464 5.75578 100.72C5.97978 100.976 6.34778 101.208 6.85978 101.416C7.37178 101.608 8.09978 101.8 9.04378 101.992C11.2358 102.472 12.8118 103.096 13.7718 103.864C14.7478 104.632 15.2358 105.68 15.2358 107.008C15.2358 108.608 14.6118 109.88 13.3638 110.824C12.1158 111.752 10.3798 112.216 8.15578 112.216ZM29.7292 99.832V112H26.2012V110.224C25.8172 110.864 25.3132 111.352 24.6892 111.688C24.0652 112.024 23.3612 112.192 22.5772 112.192C21.0572 112.192 19.9212 111.768 19.1692 110.92C18.4172 110.072 18.0412 108.792 18.0412 107.08V99.832H21.6652V107.152C21.6652 108.624 22.2972 109.36 23.5612 109.36C24.3132 109.36 24.9212 109.104 25.3852 108.592C25.8492 108.08 26.0812 107.408 26.0812 106.576V99.832H29.7292ZM40.5079 99.52C41.5479 99.52 42.4759 99.792 43.2919 100.336C44.1079 100.864 44.7399 101.616 45.1879 102.592C45.6519 103.568 45.8839 104.68 45.8839 105.928C45.8839 107.176 45.6599 108.28 45.2119 109.24C44.7639 110.184 44.1319 110.912 43.3159 111.424C42.4999 111.936 41.5639 112.192 40.5079 112.192C39.6599 112.192 38.8999 112.016 38.2279 111.664C37.5559 111.312 37.0439 110.824 36.6919 110.2V117.184H33.0679V103.312C33.0679 102.016 33.0039 100.856 32.8759 99.832H36.2839L36.5239 101.848C36.8439 101.128 37.3559 100.56 38.0599 100.144C38.7799 99.728 39.5959 99.52 40.5079 99.52ZM39.4759 109.432C40.3719 109.432 41.0599 109.136 41.5399 108.544C42.0199 107.936 42.2599 107.064 42.2599 105.928C42.2599 104.792 42.0119 103.904 41.5159 103.264C41.0359 102.624 40.3559 102.304 39.4759 102.304C38.5799 102.304 37.8839 102.616 37.3879 103.24C36.9079 103.848 36.6679 104.728 36.6679 105.88C36.6679 107.032 36.9079 107.912 37.3879 108.52C37.8839 109.128 38.5799 109.432 39.4759 109.432ZM56.0485 99.52C57.0885 99.52 58.0165 99.792 58.8325 100.336C59.6485 100.864 60.2805 101.616 60.7285 102.592C61.1925 103.568 61.4245 104.68 61.4245 105.928C61.4245 107.176 61.2005 108.28 60.7525 109.24C60.3045 110.184 59.6725 110.912 58.8565 111.424C58.0405 111.936 57.1045 112.192 56.0485 112.192C55.2005 112.192 54.4405 112.016 53.7685 111.664C53.0965 111.312 52.5845 110.824 52.2325 110.2V117.184H48.6085V103.312C48.6085 102.016 48.5445 100.856 48.4165 99.832H51.8245L52.0645 101.848C52.3845 101.128 52.8965 100.56 53.6005 100.144C54.3205 99.728 55.1365 99.52 56.0485 99.52ZM55.0165 109.432C55.9125 109.432 56.6005 109.136 57.0805 108.544C57.5605 107.936 57.8005 107.064 57.8005 105.928C57.8005 104.792 57.5525 103.904 57.0565 103.264C56.5765 102.624 55.8965 102.304 55.0165 102.304C54.1205 102.304 53.4245 102.616 52.9285 103.24C52.4485 103.848 52.2085 104.728 52.2085 105.88C52.2085 107.032 52.4485 107.912 52.9285 108.52C53.4245 109.128 54.1205 109.432 55.0165 109.432ZM69.9572 112.192C68.6612 112.192 67.5252 111.936 66.5492 111.424C65.5892 110.912 64.8452 110.176 64.3172 109.216C63.8052 108.256 63.5492 107.136 63.5492 105.856C63.5492 104.576 63.8052 103.456 64.3172 102.496C64.8452 101.536 65.5892 100.8 66.5492 100.288C67.5252 99.776 68.6612 99.52 69.9572 99.52C71.2372 99.52 72.3572 99.776 73.3172 100.288C74.2772 100.8 75.0132 101.536 75.5252 102.496C76.0532 103.456 76.3172 104.576 76.3172 105.856C76.3172 107.136 76.0532 108.256 75.5252 109.216C75.0132 110.176 74.2772 110.912 73.3172 111.424C72.3572 111.936 71.2372 112.192 69.9572 112.192ZM69.9572 109.432C70.8532 109.432 71.5332 109.136 71.9972 108.544C72.4772 107.952 72.7172 107.056 72.7172 105.856C72.7172 104.672 72.4772 103.784 71.9972 103.192C71.5332 102.584 70.8532 102.28 69.9572 102.28C69.0452 102.28 68.3492 102.584 67.8692 103.192C67.3892 103.784 67.1492 104.672 67.1492 105.856C67.1492 108.24 68.0852 109.432 69.9572 109.432ZM86.1135 99.544C86.6255 99.544 87.0575 99.624 87.4095 99.784L87.3855 103.096C86.7935 102.824 86.2015 102.688 85.6095 102.688C84.6495 102.688 83.9135 102.952 83.4015 103.48C82.9055 103.992 82.6575 104.712 82.6575 105.64V112H79.0335V103.312C79.0335 102.016 78.9695 100.856 78.8415 99.832H82.2495L82.4895 101.92C82.7935 101.152 83.2655 100.568 83.9055 100.168C84.5615 99.752 85.2975 99.544 86.1135 99.544ZM95.0326 102.544V107.272C95.0326 107.944 95.2086 108.44 95.5606 108.76C95.9126 109.064 96.3686 109.216 96.9286 109.216C97.2806 109.216 97.6806 109.16 98.1286 109.048V111.856C97.5526 112.08 96.8566 112.192 96.0406 112.192C94.5366 112.192 93.3846 111.768 92.5846 110.92C91.8006 110.072 91.4086 108.88 91.4086 107.344V102.544H89.1046V99.832H91.4086V96.976L95.0326 95.8V99.832H98.1286V102.544H95.0326Z" fill="white"/>
</svg>
