<svg width="98" height="114" viewBox="0 0 98 114" fill="none" xmlns="http://www.w3.org/2000/svg">
<path d="M26.7196 90.912L20.6476 108H17.6476L13.6636 96.696L9.65556 108H6.65556L0.583562 90.912H4.39956L8.33556 102.72L12.4636 90.912H15.0796L19.1116 102.888L23.1436 90.912H26.7196ZM38.5293 102.216H30.5133C30.5773 103.352 30.8733 104.184 31.4013 104.712C31.9293 105.224 32.7133 105.48 33.7533 105.48C34.3773 105.48 35.0013 105.376 35.6253 105.168C36.2493 104.96 36.8253 104.656 37.3533 104.256L38.3133 106.704C37.7373 107.168 37.0173 107.536 36.1533 107.808C35.3053 108.064 34.4493 108.192 33.5853 108.192C31.5373 108.192 29.9293 107.632 28.7613 106.512C27.5933 105.376 27.0093 103.832 27.0093 101.88C27.0093 100.648 27.2573 99.552 27.7533 98.592C28.2653 97.616 28.9773 96.864 29.8893 96.336C30.8013 95.792 31.8333 95.52 32.9853 95.52C34.6973 95.52 36.0493 96.08 37.0413 97.2C38.0333 98.304 38.5293 99.8 38.5293 101.688V102.216ZM33.0813 98.064C32.3933 98.064 31.8333 98.264 31.4013 98.664C30.9853 99.064 30.7133 99.648 30.5853 100.416H35.4093C35.2173 98.848 34.4413 98.064 33.0813 98.064ZM48.6446 95.52C49.7006 95.52 50.6366 95.784 51.4526 96.312C52.2686 96.824 52.9006 97.56 53.3486 98.52C53.7966 99.464 54.0206 100.56 54.0206 101.808C54.0206 103.056 53.7886 104.168 53.3246 105.144C52.8766 106.104 52.2446 106.856 51.4286 107.4C50.6126 107.928 49.6846 108.192 48.6446 108.192C47.7966 108.192 47.0286 108.016 46.3406 107.664C45.6686 107.296 45.1566 106.8 44.8046 106.176V108H41.2046V90.336H44.8286V97.536C45.1806 96.912 45.6926 96.424 46.3646 96.072C47.0526 95.704 47.8126 95.52 48.6446 95.52ZM47.6126 105.432C48.5086 105.432 49.1966 105.12 49.6766 104.496C50.1566 103.872 50.3966 102.976 50.3966 101.808C50.3966 100.688 50.1566 99.824 49.6766 99.216C49.1966 98.608 48.5086 98.304 47.6126 98.304C46.7166 98.304 46.0206 98.616 45.5246 99.24C45.0446 99.848 44.8046 100.72 44.8046 101.856C44.8046 103.008 45.0446 103.896 45.5246 104.52C46.0206 105.128 46.7166 105.432 47.6126 105.432ZM61.4013 108.192C59.0973 108.192 57.2813 107.696 55.9533 106.704L56.9133 104.184C57.5533 104.648 58.2653 105.008 59.0493 105.264C59.8333 105.504 60.6333 105.624 61.4492 105.624C62.0733 105.624 62.5533 105.528 62.8893 105.336C63.2253 105.144 63.3933 104.864 63.3933 104.496C63.3933 104.192 63.2733 103.952 63.0333 103.776C62.7933 103.6 62.3693 103.448 61.7613 103.32L59.7693 102.864C58.6013 102.608 57.7373 102.2 57.1773 101.64C56.6333 101.08 56.3613 100.336 56.3613 99.408C56.3613 98.656 56.5773 97.984 57.0093 97.392C57.4573 96.8 58.0733 96.344 58.8573 96.024C59.6413 95.688 60.5453 95.52 61.5693 95.52C62.4333 95.52 63.2813 95.656 64.1133 95.928C64.9453 96.184 65.6893 96.552 66.3453 97.032L65.3373 99.456C64.7133 99.024 64.0733 98.696 63.4173 98.472C62.7773 98.248 62.1533 98.136 61.5453 98.136C60.9533 98.136 60.4893 98.24 60.1533 98.448C59.8173 98.656 59.6493 98.944 59.6493 99.312C59.6493 99.584 59.7453 99.808 59.9373 99.984C60.1453 100.144 60.5053 100.28 61.0173 100.392L63.0573 100.848C64.3053 101.136 65.2093 101.568 65.7693 102.144C66.3293 102.72 66.6093 103.488 66.6093 104.448C66.6093 105.6 66.1453 106.512 65.2173 107.184C64.2893 107.856 63.0173 108.192 61.4013 108.192ZM69.2156 95.832H72.8396V108H69.2156V95.832ZM72.9596 90.12V93.528H69.0956V90.12H72.9596ZM80.7615 98.544V103.272C80.7615 103.944 80.9375 104.44 81.2895 104.76C81.6415 105.064 82.0975 105.216 82.6575 105.216C83.0095 105.216 83.4095 105.16 83.8575 105.048V107.856C83.2815 108.08 82.5855 108.192 81.7695 108.192C80.2655 108.192 79.1135 107.768 78.3135 106.92C77.5295 106.072 77.1375 104.88 77.1375 103.344V98.544H74.8335V95.832H77.1375V92.976L80.7615 91.8V95.832H83.8575V98.544H80.7615ZM97.0371 102.216H89.0211C89.0851 103.352 89.3811 104.184 89.9091 104.712C90.4371 105.224 91.2211 105.48 92.2611 105.48C92.8851 105.48 93.5091 105.376 94.1331 105.168C94.7571 104.96 95.3331 104.656 95.8611 104.256L96.8211 106.704C96.2451 107.168 95.5251 107.536 94.6611 107.808C93.8131 108.064 92.9571 108.192 92.0931 108.192C90.0451 108.192 88.4371 107.632 87.2691 106.512C86.1011 105.376 85.5171 103.832 85.5171 101.88C85.5171 100.648 85.7651 99.552 86.2611 98.592C86.7731 97.616 87.4851 96.864 88.3971 96.336C89.3091 95.792 90.3411 95.52 91.4931 95.52C93.2051 95.52 94.5571 96.08 95.5491 97.2C96.5411 98.304 97.0371 99.8 97.0371 101.688V102.216ZM91.5891 98.064C90.9011 98.064 90.3411 98.264 89.9091 98.664C89.4931 99.064 89.2211 99.648 89.0931 100.416H93.9171C93.7251 98.848 92.9491 98.064 91.5891 98.064Z" fill="white"/>
<path d="M22.2031 0H26.3047V6.66285H22.2031V0Z" fill="white"/>
<path d="M30.4062 0H34.5078V6.66285H30.4062V0Z" fill="white"/>
<path d="M14 0H18.1016V6.66285H14V0Z" fill="white"/>
<path d="M38.6094 0H84V6.66285H38.6094V0Z" fill="white"/>
<path d="M42.8994 22.9553C43.0998 22.3325 43.3094 21.7676 43.5256 21.25C37.9107 23.2752 33.7279 28.3233 32.9531 34.4205H41.1193C41.2689 30.1133 41.8871 26.1009 42.8994 22.9553Z" fill="white"/>
<path d="M51.33 24.6536C50.3418 21.3501 49.2738 20.4015 48.9977 20.3008C48.7217 20.4015 47.6537 21.35 46.6654 24.6535C45.8587 27.3505 45.3592 30.762 45.2227 34.421H52.7728C52.6362 30.7621 52.1368 27.3507 51.33 24.6536Z" fill="white"/>
<path d="M48.9977 52.6436C49.2738 52.5428 50.3418 51.5943 51.33 48.2908C52.1368 45.5937 52.6362 42.1823 52.7728 38.5234H45.2227C45.3594 42.1823 45.8587 45.5938 46.6654 48.2909C47.6537 51.5944 48.7218 52.5428 48.9977 52.6436Z" fill="white"/>
<path d="M56.879 34.4207H65.0452C64.2705 28.3234 60.0877 23.2752 54.4727 21.25C54.6888 21.7676 54.8984 22.3325 55.0988 22.9553C56.1112 26.1009 56.7295 30.1133 56.879 34.4207Z" fill="white"/>
<path d="M14 62.1802H84V10.7656H14V62.1802ZM49 16.196C60.1807 16.196 69.277 25.2921 69.277 36.473C69.277 47.6538 60.1809 56.7499 49 56.7499C37.8191 56.7499 28.723 47.6537 28.723 36.4729C28.723 25.292 37.8193 16.196 49 16.196Z" fill="white"/>
<path d="M65.0451 38.5234H56.8789C56.7293 42.8309 56.1111 46.8433 55.0988 49.9888C54.8984 50.6116 54.6888 51.1765 54.4727 51.6941C60.0876 49.6689 64.2703 44.6207 65.0451 38.5234Z" fill="white"/>
<path d="M43.5256 51.6941C43.3094 51.1766 43.0998 50.6116 42.8994 49.9888C41.8871 46.8433 41.2689 42.8309 41.1193 38.5234H32.9531C33.7279 44.6207 37.9107 49.6689 43.5256 51.6941Z" fill="white"/>
</svg>
