<svg width="45" height="45" viewBox="0 0 45 45" fill="none" xmlns="http://www.w3.org/2000/svg">
<circle cx="22.5" cy="22.5" r="22.5" fill="#174365"/>
<path d="M29.0171 24.3478C28.9278 24.3478 28.8369 24.3439 28.7437 24.3354C28.6894 24.3307 28.6366 24.316 28.5876 24.2934L24.7095 22.4778C24.6326 22.4421 24.5674 22.3854 24.52 22.3148L23.8064 21.2485C23.6635 21.035 23.7209 20.7453 23.9345 20.6024C24.1488 20.4596 24.4377 20.517 24.5806 20.7306L25.222 21.6889L28.9053 23.4128C29.2858 23.4338 29.5801 23.3507 29.8014 23.1597C30.0289 22.9632 30.1431 22.6828 30.199 22.4708L26.1485 20.5792C26.0669 20.5411 25.9978 20.4798 25.9497 20.4029L23.4647 16.4059C23.3288 16.1869 23.3963 15.9004 23.6153 15.7645C23.8335 15.6286 24.1209 15.6962 24.2568 15.9151L24.3826 16.1178L26.6688 19.7941L30.915 21.7774C31.0858 21.8574 31.1922 22.0321 31.1829 22.2208C31.1813 22.262 31.1285 23.2389 30.4188 23.8578C30.046 24.1839 29.5754 24.3478 29.0171 24.3478Z" fill="#F2F2F2"/>
<path d="M23.2602 13.5182H21.7412C20.5826 13.5182 19.6406 12.5755 19.6406 11.4176V10.1006C19.6406 8.94197 20.5834 8 21.7412 8H22.114C23.2726 8 24.2146 8.94274 24.2146 10.1006V12.5631C24.2153 13.0896 23.7867 13.5182 23.2602 13.5182ZM21.7412 8.93187C21.0967 8.93187 20.5725 9.45605 20.5725 10.1006V11.4169C20.5725 12.0614 21.0967 12.5856 21.7412 12.5856H23.2602C23.2718 12.5856 23.2835 12.5739 23.2835 12.5623V10.1006C23.2835 9.45605 22.7593 8.93187 22.1147 8.93187H21.7412Z" fill="#F2F2F2"/>
<path d="M16.4857 37.2157C16.3638 37.2157 16.2449 37.1675 16.1564 37.079L13.1364 34.0574C12.9547 33.8757 12.9547 33.5814 13.1356 33.3989L18.111 28.4033L18.7633 23.1794C18.7952 22.9239 19.0281 22.7422 19.2836 22.7748C19.5391 22.8066 19.72 23.0396 19.6882 23.2951L19.0165 28.6774C19.0033 28.7799 18.9575 28.8754 18.8845 28.9484L14.1249 33.7274L16.5331 36.1362C16.6884 35.7643 16.5765 34.9652 16.4383 34.4868C16.3894 34.3183 16.4399 34.1366 16.568 34.017L20.7886 30.0806L21.7104 27.9055C21.8105 27.6687 22.0839 27.5576 22.3215 27.6586C22.5584 27.7587 22.6694 28.0329 22.5685 28.2697L21.6079 30.5357C21.5822 30.5955 21.5442 30.6499 21.4968 30.6949L17.4051 34.5109C17.5177 35.0118 17.6769 36.0299 17.3112 36.6628C17.1496 36.9415 16.9027 37.1287 16.5975 37.2025C16.5595 37.211 16.5222 37.2157 16.4857 37.2157Z" fill="#F2F2F2"/>
<path d="M27.6937 38.0001H23.5104C23.2549 38.0001 23.0475 37.7943 23.0444 37.5388L22.9691 30.3758L18.8246 23.4769C18.6918 23.2563 18.7632 22.9698 18.9838 22.8378C19.2043 22.705 19.4909 22.7764 19.6229 22.997L23.8326 30.0046C23.8753 30.0761 23.8979 30.1568 23.8994 30.2399L23.9716 37.0682H27.3551C27.3535 37.0597 27.3512 37.0504 27.3489 37.041C27.2479 36.6559 26.556 36.1542 26.0963 35.9212C25.9317 35.8382 25.8315 35.665 25.8408 35.4809L26.1429 29.7398L23.7573 23.4016C23.6664 23.1608 23.7884 22.8921 24.0291 22.8013C24.2698 22.7104 24.5385 22.8323 24.6294 23.0731L27.0499 29.503C27.0724 29.5628 27.0825 29.6272 27.0794 29.6917L26.7874 35.2402C27.2324 35.505 28.0602 36.0828 28.2505 36.8042C28.3413 37.1498 28.2823 37.4914 28.0804 37.7935C27.9942 37.9224 27.849 38.0001 27.6937 38.0001Z" fill="#F2F2F2"/>
<path d="M24.1929 23.7034H19.2237C18.9667 23.7034 18.7578 23.4945 18.7578 23.2375V19.284C18.7578 19.027 18.9667 18.8181 19.2237 18.8181C19.4808 18.8181 19.6897 19.027 19.6897 19.284V22.7715H23.727V17.3589C23.727 17.084 23.6727 16.8177 23.5663 16.5668C23.5639 16.5614 23.5608 16.556 23.5585 16.5505C23.4575 16.3191 23.3154 16.1102 23.136 15.9308C22.7548 15.5495 22.2477 15.3399 21.7087 15.3399C21.2273 15.3399 20.7621 15.5115 20.3979 15.8229L20.3886 15.8307C20.1944 15.9999 19.9001 15.9798 19.7308 15.7856C19.5616 15.5915 19.5817 15.2972 19.7759 15.1279L19.7883 15.117C20.3249 14.6581 21.0052 14.4072 21.708 14.4072C22.4962 14.4072 23.237 14.714 23.7938 15.2715C24.0508 15.5286 24.2558 15.8268 24.4034 16.1576C24.4081 16.1669 24.4119 16.1755 24.4158 16.1848C24.5766 16.556 24.6581 16.9505 24.6581 17.3581V23.2367C24.6589 23.4945 24.45 23.7034 24.1929 23.7034Z" fill="#F2F2F2"/>
<path d="M15.8733 24.8678C15.8523 24.8678 15.8313 24.8663 15.8104 24.864C15.7669 24.8577 14.741 24.711 14.1462 23.9235C13.7991 23.4646 13.6702 22.8985 13.7641 22.2415C13.7719 22.1879 13.789 22.1359 13.8146 22.0878L15.829 18.309C15.8593 18.2523 15.9004 18.2026 15.9509 18.163L19.8694 15.0545C20.0706 14.8945 20.3641 14.9287 20.5241 15.1298C20.684 15.3309 20.6507 15.6245 20.4487 15.7844L16.6063 18.8332L14.6781 22.4504C14.6385 22.8216 14.7084 23.1206 14.8909 23.3613C15.0952 23.6316 15.405 23.7814 15.6341 23.8606L17.7285 19.9227C17.7587 19.866 17.8007 19.8155 17.8512 19.7759L21.0273 17.2653C21.2292 17.1054 21.522 17.1403 21.6819 17.3422C21.8419 17.5441 21.8069 17.8369 21.605 17.9968L18.5058 20.4469L16.2856 24.6209C16.2025 24.7746 16.0433 24.8678 15.8733 24.8678Z" fill="#F2F2F2"/>
</svg>
