<svg width="45" height="45" viewBox="0 0 45 45" fill="none" xmlns="http://www.w3.org/2000/svg">
<circle cx="22.5" cy="22.5" r="22.5" fill="#D33325"/>
<path d="M19.7643 12.1382C19.4393 12.1382 19.1752 11.8741 19.1752 11.5491V7.17816H16.9789V11.5491C16.9789 11.8741 16.7148 12.1382 16.3899 12.1382C16.0649 12.1382 15.8008 11.8741 15.8008 11.5491V6.58908C15.8008 6.2641 16.0649 6 16.3899 6H19.7643C20.0893 6 20.3534 6.2641 20.3534 6.58908V11.5491C20.3534 11.8751 20.0893 12.1382 19.7643 12.1382Z" fill="#F2F2F2"/>
<path d="M33.4187 26.8327C32.3348 26.2887 31.1144 25.8479 29.7929 25.5229C29.791 25.5229 29.789 25.522 29.787 25.522C29.7861 25.522 29.7861 25.522 29.7851 25.522C29.0232 25.3344 28.2388 25.1891 27.4376 25.0841C27.0851 24.2034 26.6119 23.3826 26.0258 22.6325C27.1706 21.6498 27.8382 20.2154 27.8382 18.6837C27.8382 15.812 25.5015 13.4753 22.6298 13.4753C22.3372 13.4753 22.0466 13.4999 21.7609 13.548V11.55C21.7609 11.225 21.4968 10.9609 21.1718 10.9609H14.9825C14.6576 10.9609 14.3935 11.225 14.3935 11.55V16.62C14.3935 18.1781 13.6198 19.6469 12.3238 20.5501C9.61702 22.4352 8 25.5288 8 28.8247C8 31.4471 9.00241 33.931 10.8236 35.82C10.9346 35.9349 11.0877 35.9997 11.2478 35.9997H24.9085C24.9095 35.9997 24.9095 35.9997 24.9105 35.9997H35.5237C36.4908 35.9997 37.3773 35.4725 37.8388 34.6252C37.8535 34.5977 37.8662 34.5682 37.877 34.5388C38.0646 34.0037 38.1598 33.4519 38.1598 32.9002C38.1608 30.5566 36.4318 28.3456 33.4187 26.8327ZM21.7618 14.7477C22.0456 14.6849 22.3362 14.6535 22.6307 14.6535C24.8525 14.6535 26.661 16.461 26.661 18.6837C26.661 19.8727 26.1407 20.9851 25.2502 21.746C24.8142 21.3051 24.34 20.9036 23.8325 20.5511C22.5365 19.6479 21.7628 18.1791 21.7628 16.621V14.7477H21.7618ZM12.9983 21.5162C14.6104 20.3931 15.5726 18.563 15.5726 16.62V12.1391H20.5837V14.3C20.5837 14.3049 20.5837 14.3098 20.5837 14.3138V16.619C20.5837 18.562 21.5458 20.3921 23.158 21.5152C23.7353 21.9178 24.2664 22.389 24.7357 22.9173C24.7357 22.9182 24.7367 22.9182 24.7367 22.9192C24.7377 22.9202 24.7386 22.9222 24.7406 22.9231C25.2855 23.5387 25.7362 24.2162 26.0896 24.9456C25.5094 24.9034 24.9232 24.8799 24.3302 24.8799C24.2684 24.8799 24.2065 24.8799 24.1447 24.8818C21.8433 24.8985 19.5715 25.2461 17.5764 25.8872C16.7458 26.1533 15.9604 26.4714 15.2417 26.8327C12.2286 28.3446 10.4997 30.5556 10.4997 32.8992C10.4997 33.122 10.5163 33.3439 10.5468 33.5658C9.65727 32.1569 9.17816 30.5242 9.17816 28.8237C9.17816 25.9137 10.6067 23.1823 12.9983 21.5162ZM36.7814 34.1009C36.5212 34.5466 36.0431 34.8206 35.5237 34.8206H13.1358C12.6164 34.8206 12.1383 34.5457 11.8781 34.1009C11.7456 33.7062 11.6778 33.3027 11.6778 32.9002C11.6778 31.019 13.1692 29.1909 15.7699 27.8861C16.146 27.6976 16.5426 27.5219 16.9559 27.3589C16.9412 27.5346 16.9353 27.7123 16.9422 27.8901C17.0365 30.3259 19.1581 31.5168 19.2484 31.5659C19.3388 31.615 19.435 31.6386 19.5312 31.6386C19.7393 31.6386 19.9416 31.5276 20.0486 31.3322C20.2047 31.0465 20.1006 30.6892 19.8149 30.5321C19.7482 30.4957 18.1881 29.62 18.1194 27.8439C18.1076 27.5317 18.1429 27.2214 18.2234 26.92C19.7384 26.4615 21.4123 26.1798 23.1314 26.0904C22.8988 26.6599 22.7868 27.2735 22.8104 27.8891C22.9047 30.3357 25.0293 31.5168 25.1196 31.5659C25.2089 31.614 25.3051 31.6376 25.3994 31.6376C25.6075 31.6376 25.8098 31.5266 25.9168 31.3303C26.0719 31.0446 25.9669 30.6872 25.6812 30.5311C25.6645 30.5222 24.0553 29.6219 23.9866 27.8439C23.963 27.2195 24.1309 26.596 24.4637 26.059C25.9796 26.0678 27.4523 26.22 28.8514 26.5155C28.7208 26.9613 28.6609 27.4257 28.6796 27.8881C28.7729 30.3347 30.8975 31.5168 30.9878 31.5659C31.0771 31.614 31.1733 31.6376 31.2676 31.6376C31.4757 31.6376 31.678 31.5266 31.785 31.3303C31.9401 31.0446 31.8351 30.6872 31.5494 30.5311C31.5327 30.5222 29.9235 29.6219 29.8558 27.8439C29.842 27.4895 29.8911 27.1341 29.9972 26.7934C31.0447 27.0811 32.0157 27.4473 32.8866 27.8851C35.4874 29.19 36.9787 31.0181 36.9787 32.8992C36.9826 33.3027 36.9149 33.7062 36.7814 34.1009Z" fill="#F2F2F2"/>
</svg>
