<svg width="45" height="45" viewBox="0 0 45 45" fill="none" xmlns="http://www.w3.org/2000/svg">
<circle cx="22.5" cy="22.5" r="22.5" fill="#F5A947"/>
<path d="M37.9983 20.7254C37.8901 17.091 28.3417 15.6288 22.9586 17.8698C21.2107 18.5976 20.2351 19.6098 20.2019 20.7254C20.1994 20.7625 20.2003 22.272 20.2003 28.008C14.8405 28.991 8.94302 27.3166 8.94302 25.2565V22.6658C11.1644 24.6506 15.9474 25.0153 18.9388 24.7135C19.1979 24.6874 19.3867 24.457 19.3605 24.1989C19.3342 23.9408 19.1025 23.7522 18.8439 23.779C13.7674 24.2909 8.94308 22.6845 8.94308 20.836V18.2452C11.1289 20.1984 15.8316 20.6065 18.9389 20.293C19.198 20.267 19.3867 20.0365 19.3605 19.7784C19.3342 19.5203 19.1025 19.3318 18.8439 19.3585C13.7675 19.8702 8.94314 18.2648 8.94314 16.4155V13.8075C12.1398 16.6637 21.6599 16.6637 24.8566 13.8075V15.7214C24.8566 15.9807 25.0677 16.191 25.3281 16.191C25.5885 16.191 25.7996 15.9807 25.7996 15.7214C25.7996 15.2966 25.7996 12.4013 25.7996 11.9778C25.7996 8.75454 18.3243 7.1574 12.7203 8.4476C12.4666 8.50602 12.3084 8.75829 12.3671 9.01104C12.4257 9.26378 12.6789 9.42113 12.9326 9.36289C20.4492 7.63183 28.9653 11.4078 22.6777 14.0255C16.4107 16.6344 6.13011 13.6951 9.66549 10.7658C9.86571 10.6 9.893 10.3038 9.72649 10.1043C9.55993 9.90495 9.26265 9.87777 9.06243 10.0436C8.36742 10.6195 8 11.2883 8 11.9778V29.677C8 32.7818 14.8266 34.3111 20.2003 33.3823V34.0215C20.2003 35.1603 21.1799 36.1954 22.9586 36.936C28.3804 39.193 37.9998 37.6903 37.9998 34.0215C37.9998 33.7444 38.0007 20.7625 37.9983 20.7254ZM23.3223 18.7365C26.5006 17.4134 31.7002 17.4136 34.878 18.7365C40.2218 20.9612 34.8948 24.0747 28.2939 23.807C28.0341 23.7958 27.8142 23.998 27.8037 24.2572C27.7931 24.5164 27.9954 24.735 28.2556 24.7456C31.0096 24.8572 35.0757 24.3841 37.0569 22.6139V25.1805C37.0569 25.9054 36.2627 26.6517 34.878 27.2282C31.6996 28.5513 26.5001 28.5511 23.3223 27.2282C21.9376 26.6517 21.1434 25.9054 21.1434 25.1805V22.616C21.814 23.2149 22.8257 23.727 24.128 24.1079C24.3779 24.1807 24.6398 24.0383 24.7132 23.7895C24.7866 23.5407 24.6435 23.2796 24.3936 23.2065C20.8232 22.1624 19.8231 20.1933 23.3223 18.7365ZM8.94302 29.677V27.0863C11.2373 29.1362 16.5013 29.6011 20.2003 28.9619V32.4286C14.8405 33.4114 8.94302 31.7371 8.94302 29.677ZM34.878 36.0692C31.6996 37.3923 26.5001 37.3921 23.3223 36.0692C21.9376 35.4928 21.1434 34.7464 21.1434 34.0215C21.1434 33.712 21.1434 31.438 21.1434 31.4308C23.9467 33.9356 31.6897 34.2846 35.7483 32.2861C35.9817 32.1711 36.0774 31.8894 35.962 31.6569C35.8466 31.4243 35.5637 31.3291 35.3303 31.444C32.3054 32.9336 26.7251 33.0653 23.3222 31.6487C21.9375 31.0723 21.1433 30.3259 21.1433 29.601C21.1433 25.1225 21.1433 28.8761 21.1433 27.0103C24.3326 29.86 33.8419 29.8828 37.0568 27.0103V34.0215C37.0568 34.7463 36.2627 35.4927 34.878 36.0692Z" fill="#F2F2F2" stroke="#F2F2F2" stroke-width="0.5"/>
</svg>
