<svg width="45" height="45" viewBox="0 0 45 45" fill="none" xmlns="http://www.w3.org/2000/svg">
<circle cx="22.5" cy="22.5" r="22.5" fill="#937B7B"/>
<path d="M33.0909 27.0909C32.9094 27.5022 32.8552 27.9584 32.9354 28.4008C33.0157 28.8432 33.2265 29.2513 33.5409 29.5727L33.6227 29.6545C33.8763 29.9078 34.0775 30.2086 34.2147 30.5397C34.352 30.8708 34.4226 31.2257 34.4226 31.5841C34.4226 31.9425 34.352 32.2974 34.2147 32.6285C34.0775 32.9596 33.8763 33.2603 33.6227 33.5136C33.3694 33.7672 33.0687 33.9684 32.7376 34.1056C32.4065 34.2429 32.0516 34.3135 31.6932 34.3135C31.3348 34.3135 30.9799 34.2429 30.6488 34.1056C30.3177 33.9684 30.0169 33.7672 29.7636 33.5136L29.6818 33.4318C29.3604 33.1174 28.9523 32.9066 28.5099 32.8264C28.0675 32.7462 27.6113 32.8003 27.2 32.9818C26.7967 33.1547 26.4527 33.4417 26.2104 33.8075C25.9681 34.1734 25.8381 34.6021 25.8364 35.0409V35.2727C25.8364 35.996 25.549 36.6897 25.0376 37.2012C24.5261 37.7127 23.8324 38 23.1091 38C22.3858 38 21.6921 37.7127 21.1806 37.2012C20.6692 36.6897 20.3818 35.996 20.3818 35.2727V35.15C20.3713 34.6986 20.2252 34.2609 19.9625 33.8937C19.6999 33.5265 19.3328 33.2468 18.9091 33.0909C18.4978 32.9094 18.0416 32.8552 17.5992 32.9354C17.1568 33.0157 16.7487 33.2265 16.4273 33.5409L16.3455 33.6227C16.0922 33.8763 15.7914 34.0775 15.4603 34.2147C15.1292 34.352 14.7743 34.4226 14.4159 34.4226C14.0575 34.4226 13.7026 34.352 13.3715 34.2147C13.0404 34.0775 12.7397 33.8763 12.4864 33.6227C12.2328 33.3694 12.0316 33.0687 11.8944 32.7376C11.7571 32.4065 11.6865 32.0516 11.6865 31.6932C11.6865 31.3348 11.7571 30.9799 11.8944 30.6488C12.0316 30.3177 12.2328 30.0169 12.4864 29.7636L12.5682 29.6818C12.8826 29.3604 13.0934 28.9523 13.1736 28.5099C13.2539 28.0675 13.1997 27.6113 13.0182 27.2C12.8453 26.7967 12.5583 26.4527 12.1925 26.2104C11.8266 25.9681 11.3979 25.8381 10.9591 25.8364H10.7273C10.004 25.8364 9.31026 25.549 8.7988 25.0376C8.28734 24.5261 8 23.8324 8 23.1091C8 22.3858 8.28734 21.6921 8.7988 21.1806C9.31026 20.6692 10.004 20.3818 10.7273 20.3818H10.85C11.3014 20.3713 11.7391 20.2252 12.1063 19.9625C12.4735 19.6999 12.7532 19.3328 12.9091 18.9091C13.0906 18.4978 13.1448 18.0416 13.0646 17.5992C12.9843 17.1568 12.7735 16.7487 12.4591 16.4273L12.3773 16.3455C12.1237 16.0922 11.9225 15.7914 11.7853 15.4603C11.648 15.1292 11.5774 14.7743 11.5774 14.4159C11.5774 14.0575 11.648 13.7026 11.7853 13.3715C11.9225 13.0404 12.1237 12.7397 12.3773 12.4864C12.6306 12.2328 12.9313 12.0316 13.2624 11.8944C13.5935 11.7571 13.9484 11.6865 14.3068 11.6865C14.6652 11.6865 15.0201 11.7571 15.3512 11.8944C15.6823 12.0316 15.9831 12.2328 16.2364 12.4864L16.3182 12.5682C16.6396 12.8826 17.0477 13.0934 17.4901 13.1736C17.9325 13.2539 18.3887 13.1997 18.8 13.0182H18.9091C19.3124 12.8453 19.6564 12.5583 19.8987 12.1925C20.141 11.8266 20.271 11.3979 20.2727 10.9591V10.7273C20.2727 10.004 20.5601 9.31026 21.0715 8.7988C21.583 8.28734 22.2767 8 23 8C23.7233 8 24.417 8.28734 24.9285 8.7988C25.4399 9.31026 25.7273 10.004 25.7273 10.7273V10.85C25.729 11.2888 25.859 11.7175 26.1013 12.0834C26.3436 12.4492 26.6876 12.7362 27.0909 12.9091C27.5022 13.0906 27.9584 13.1448 28.4008 13.0646C28.8432 12.9843 29.2513 12.7735 29.5727 12.4591L29.6545 12.3773C29.9078 12.1237 30.2086 11.9225 30.5397 11.7853C30.8708 11.648 31.2257 11.5774 31.5841 11.5774C31.9425 11.5774 32.2974 11.648 32.6285 11.7853C32.9596 11.9225 33.2603 12.1237 33.5136 12.3773C33.7672 12.6306 33.9684 12.9313 34.1056 13.2624C34.2429 13.5935 34.3135 13.9484 34.3135 14.3068C34.3135 14.6652 34.2429 15.0201 34.1056 15.3512C33.9684 15.6823 33.7672 15.9831 33.5136 16.2364L33.4318 16.3182C33.1174 16.6396 32.9066 17.0477 32.8264 17.4901C32.7462 17.9325 32.8003 18.3887 32.9818 18.8V18.9091C33.1547 19.3124 33.4417 19.6564 33.8075 19.8987C34.1734 20.141 34.6021 20.271 35.0409 20.2727H35.2727C35.996 20.2727 36.6897 20.5601 37.2012 21.0715C37.7127 21.583 38 22.2767 38 23C38 23.7233 37.7127 24.417 37.2012 24.9285C36.6897 25.4399 35.996 25.7273 35.2727 25.7273H35.15C34.7112 25.729 34.2825 25.859 33.9166 26.1013C33.5508 26.3436 33.2638 26.6876 33.0909 27.0909V27.0909Z" stroke="#F2F2F2" stroke-width="2" stroke-linecap="round" stroke-linejoin="round"/>
</svg>
