<svg width="45" height="45" viewBox="0 0 45 45" fill="none" xmlns="http://www.w3.org/2000/svg">
<circle cx="22.5" cy="22.5" r="22.5" fill="#E4562E"/>
<path fill-rule="evenodd" clip-rule="evenodd" d="M21.0417 16.6667V23.9583L27.2396 27.6333L28.3625 25.7667L23.2292 22.7187V16.6667H21.0417ZM35.625 19.5833V9.375L31.775 13.225C29.4125 10.8479 26.1313 9.375 22.5 9.375C15.2521 9.375 9.375 15.2521 9.375 22.5C9.375 29.7479 15.2521 35.625 22.5 35.625C29.7479 35.625 35.625 29.7479 35.625 22.5H32.7083C32.7083 28.1292 28.1292 32.7083 22.5 32.7083C16.8708 32.7083 12.2917 28.1292 12.2917 22.5C12.2917 16.8708 16.8708 12.2917 22.5 12.2917C25.3146 12.2917 27.8667 13.4438 29.7188 15.2813L25.4167 19.5833H35.625Z" fill="#F2F2F2"/>
</svg>
