<svg width="128" height="128" viewBox="0 0 128 128" fill="none" xmlns="http://www.w3.org/2000/svg">
<path d="M12 51.9998H24V83.9998H16C14.9391 83.9998 13.9217 84.4212 13.1716 85.1713C12.4214 85.9215 12 86.9389 12 87.9998C12 89.0606 12.4214 90.0781 13.1716 90.8282C13.9217 91.5784 14.9391 91.9998 16 91.9998H112C113.061 91.9998 114.078 91.5784 114.828 90.8282C115.579 90.0781 116 89.0606 116 87.9998C116 86.9389 115.579 85.9215 114.828 85.1713C114.078 84.4212 113.061 83.9998 112 83.9998H104V51.9998H116C116.871 51.9998 117.718 51.7155 118.413 51.1902C119.107 50.6649 119.611 49.9272 119.849 49.0892C120.086 48.2512 120.043 47.3587 119.727 46.5473C119.411 45.7358 118.838 45.0498 118.097 44.5933L66.0965 12.5933C65.4661 12.2054 64.7404 12 64.0003 12C63.2601 12 62.5344 12.2054 61.904 12.5933L9.904 44.5933C9.16235 45.0497 8.58994 45.7358 8.27368 46.5472C7.95743 47.3586 7.91462 48.251 8.15176 49.089C8.38889 49.9269 8.89302 50.6646 9.58757 51.19C10.2821 51.7153 11.1291 51.9996 12 51.9998ZM32 51.9998H48V83.9998H32V51.9998ZM72 51.9998V83.9998H56V51.9998H72ZM96 83.9998H80V51.9998H96V83.9998ZM64 20.6968L101.868 43.9998H26.133L64 20.6968ZM124 104C124 105.061 123.579 106.078 122.828 106.828C122.078 107.578 121.061 108 120 108H8C6.93913 108 5.92172 107.578 5.17157 106.828C4.42143 106.078 4 105.061 4 104C4 102.939 4.42143 101.921 5.17157 101.171C5.92172 100.421 6.93913 99.9998 8 99.9998H120C121.061 99.9998 122.078 100.421 122.828 101.171C123.579 101.921 124 102.939 124 104Z" fill="#606060"/>
</svg>
