<svg width="65" height="85" viewBox="0 0 65 85" fill="none" xmlns="http://www.w3.org/2000/svg">
<g filter="url(#filter0_i_1305_14446)">
<path fill-rule="evenodd" clip-rule="evenodd" d="M9.84459 4.41306C8.64 4.41306 7.48474 4.85969 6.63297 5.6547C5.78119 6.44971 5.30267 7.52798 5.30267 8.65229V68.0015C5.30267 69.1258 5.78119 70.2041 6.63297 70.9991C7.48474 71.7941 8.64 72.2408 9.84459 72.2408H34.8252V76.48H9.84459C7.43541 76.48 5.12489 75.5867 3.42134 73.9967C1.71779 72.4067 0.760742 70.2502 0.760742 68.0015V8.65229C0.760742 6.40366 1.71779 4.24713 3.42134 2.65711C5.12489 1.06709 7.43541 0.173828 9.84459 0.173828H55.2638C57.673 0.173828 59.9835 1.06709 61.6871 2.65711C63.3907 4.24713 64.3477 6.40366 64.3477 8.65229V68.0015C64.3477 70.2502 63.3907 72.4067 61.6871 73.9967C59.9835 75.5867 57.673 76.48 55.2638 76.48H48.451V72.2408H55.2638C56.4684 72.2408 57.6237 71.7941 58.4755 70.9991C59.3273 70.2041 59.8058 69.1258 59.8058 68.0015V8.65229C59.8058 7.52798 59.3273 6.44971 58.4755 5.6547C57.6237 4.85969 56.4684 4.41306 55.2638 4.41306H9.84459Z" fill="black"/>
<path d="M19.1282 15.0122C19.1282 14.5077 19.3428 14.0208 19.7298 13.6596C20.1173 13.2979 20.6457 13.0926 21.1992 13.0926H43.9088C44.4623 13.0926 44.9907 13.2979 45.3782 13.6596C45.7652 14.0208 45.9798 14.5077 45.9798 15.0122C45.9798 15.5167 45.7652 16.0035 45.3782 16.3648C44.9907 16.7264 44.4623 16.9318 43.9088 16.9318H21.1992C20.6457 16.9318 20.1173 16.7264 19.7298 16.3648C19.3428 16.0035 19.1282 15.5167 19.1282 15.0122Z" fill="#575757" stroke="black" stroke-width="0.4"/>
<path d="M10.0442 27.7348C10.0442 27.2304 10.2588 26.7435 10.6459 26.3823C11.0333 26.0206 11.5617 25.8152 12.1152 25.8152H52.9925C53.5461 25.8152 54.0744 26.0206 54.4619 26.3823C54.8489 26.7435 55.0635 27.2304 55.0635 27.7348C55.0635 28.2393 54.8489 28.7262 54.4619 29.0874C54.0744 29.4491 53.5461 29.6545 52.9925 29.6545H12.1152C11.5617 29.6545 11.0333 29.4491 10.6459 29.0874C10.2588 28.7262 10.0442 28.2393 10.0442 27.7348Z" fill="#575757" stroke="black" stroke-width="0.4"/>
<path d="M10.0442 36.2075C10.0442 35.703 10.2588 35.2162 10.6459 34.8549C11.0333 34.4933 11.5617 34.2879 12.1152 34.2879H52.9925C53.5461 34.2879 54.0744 34.4933 54.4619 34.8549C54.8489 35.2162 55.0635 35.703 55.0635 36.2075C55.0635 36.712 54.8489 37.1989 54.4619 37.5601C54.0744 37.9218 53.5461 38.1271 52.9925 38.1271H12.1152C11.5617 38.1271 11.0333 37.9218 10.6459 37.5601C10.2588 37.1989 10.0442 36.712 10.0442 36.2075Z" fill="#575757" stroke="black" stroke-width="0.4"/>
<path d="M10.0442 44.6841C10.0442 44.1796 10.2588 43.6927 10.6459 43.3315C11.0333 42.9698 11.5617 42.7645 12.1152 42.7645H52.9925C53.5461 42.7645 54.0744 42.9698 54.4619 43.3315C54.8489 43.6927 55.0635 44.1796 55.0635 44.6841C55.0635 45.1886 54.8489 45.6754 54.4619 46.0367C54.0744 46.3983 53.5461 46.6037 52.9925 46.6037H12.1152C11.5617 46.6037 11.0333 46.3983 10.6459 46.0367C10.2588 45.6754 10.0442 45.1886 10.0442 44.6841Z" fill="#575757" stroke="black" stroke-width="0.4"/>
<path d="M41.6381 66.0798C42.8914 66.0798 44.096 65.6152 44.9861 64.7844C45.8768 63.9531 46.38 62.8226 46.38 61.6406C46.38 60.4586 45.8768 59.3281 44.9861 58.4968C44.096 57.6659 42.8914 57.2013 41.6381 57.2013C40.3847 57.2013 39.1801 57.6659 38.29 58.4968C37.3993 59.3281 36.8961 60.4586 36.8961 61.6406C36.8961 62.8226 37.3993 63.9531 38.29 64.7844C39.1801 65.6152 40.3847 66.0798 41.6381 66.0798ZM47.9248 67.4895C46.2597 69.0437 43.9985 69.919 41.6381 69.919C39.2776 69.919 37.0164 69.0437 35.3513 67.4895C33.6866 65.9358 32.7542 63.8315 32.7542 61.6406C32.7542 59.4496 33.6866 57.3454 35.3513 55.7916C37.0164 54.2374 39.2776 53.3621 41.6381 53.3621C43.9985 53.3621 46.2597 54.2374 47.9248 55.7916C49.5895 57.3454 50.5219 59.4496 50.5219 61.6406C50.5219 63.8315 49.5895 65.9358 47.9248 67.4895Z" fill="#E21717" stroke="black" stroke-width="0.4"/>
<path d="M44.1076 78.0964V66.0789H48.2495V84.6414L41.7212 81.5948L41.6366 81.5553L41.552 81.5948L35.0237 84.6414V66.0789H39.1657V78.0964V78.4104L39.4502 78.2776L41.6366 77.2573L43.823 78.2776L44.1076 78.4104V78.0964Z" fill="#E42525" stroke="black" stroke-width="0.4"/>
</g>
<defs>
<filter id="filter0_i_1305_14446" x="0.760742" y="0.173828" width="63.5869" height="88.7812" filterUnits="userSpaceOnUse" color-interpolation-filters="sRGB">
<feFlood flood-opacity="0" result="BackgroundImageFix"/>
<feBlend mode="normal" in="SourceGraphic" in2="BackgroundImageFix" result="shape"/>
<feColorMatrix in="SourceAlpha" type="matrix" values="0 0 0 0 0 0 0 0 0 0 0 0 0 0 0 0 0 0 127 0" result="hardAlpha"/>
<feOffset dy="4"/>
<feGaussianBlur stdDeviation="2"/>
<feComposite in2="hardAlpha" operator="arithmetic" k2="-1" k3="1"/>
<feColorMatrix type="matrix" values="0 0 0 0 0 0 0 0 0 0 0 0 0 0 0 0 0 0 0.25 0"/>
<feBlend mode="normal" in2="shape" result="effect1_innerShadow_1305_14446"/>
</filter>
</defs>
</svg>
