<svg width="70" height="70" viewBox="0 0 70 70" fill="none" xmlns="http://www.w3.org/2000/svg">
<g clip-path="url(#clip0)">
<g filter="url(#filter0_d)">
<ellipse cx="35" cy="19.0435" rx="20" ry="19.0435" fill="white"/>
</g>
<path d="M52.5 33.3371C52.5 36.7192 49.6132 39.5023 46 39.5023C42.3868 39.5023 39.5 36.7192 39.5 33.3371C39.5 29.9549 42.3868 27.1719 46 27.1719C49.6132 27.1719 52.5 29.9549 52.5 33.3371Z" stroke="#339B31"/>
<ellipse cx="46" cy="33.339" rx="5" ry="4.76087" fill="#62D05F"/>
<path d="M45 8.57422H25V24.6153H32.5278L32.4478 24.8184C32.0513 25.8252 31.0261 26.5017 29.8969 26.5017H29.847V27.6177H40.153V26.5017C39.0237 26.5017 37.9986 25.8252 37.6021 24.8183L37.5221 24.6153H45V8.57422ZM43.8281 9.69018V21.2454H26.1719V9.69018H43.8281ZM36.5048 25.2102C36.6987 25.7026 36.9979 26.1396 37.372 26.5017H32.6779C33.052 26.1396 33.3512 25.7026 33.5451 25.2102L33.7794 24.6153H36.2705L36.5048 25.2102ZM26.1719 23.4993V22.3614H43.8281V23.4993H26.1719Z" fill="black"/>
<path d="M28.2962 17.8373C28.2962 18.7953 29.1147 19.5747 30.1207 19.5747C31.1267 19.5747 31.9452 18.7953 31.9452 17.8373V17.0178H38.0467V17.8373C38.0467 18.7953 38.8651 19.5747 39.8711 19.5747C40.8771 19.5747 41.6956 18.7953 41.6956 17.8373V15.9762H42.7184V14.8602H41.6956V12.9991C41.6956 12.0411 40.8771 11.2617 39.8711 11.2617C38.8651 11.2617 38.0467 12.0411 38.0467 12.9991V13.8186H31.9452V12.9991C31.9452 12.0411 31.1267 11.2617 30.1207 11.2617C29.1146 11.2617 28.2962 12.0411 28.2962 12.9991V14.8602H27.2734V15.9762H28.2962V17.8373ZM39.2186 12.9991C39.2186 12.6565 39.5113 12.3777 39.8711 12.3777C40.231 12.3777 40.5237 12.6565 40.5237 12.9991V17.8373C40.5237 18.18 40.231 18.4587 39.8711 18.4587C39.5113 18.4587 39.2186 18.18 39.2186 17.8373V12.9991ZM38.0467 14.9345V15.9018H31.9452V14.9345H38.0467ZM29.4681 12.9991C29.4681 12.6565 29.7609 12.3777 30.1207 12.3777C30.4805 12.3777 30.7733 12.6565 30.7733 12.9991V17.8373C30.7733 18.18 30.4805 18.4587 30.1207 18.4587C29.7609 18.4587 29.4681 18.18 29.4681 17.8373V12.9991Z" fill="black"/>
<path d="M16.3281 55.09C15.6281 55.09 15.0148 54.94 14.4881 54.64C13.9681 54.34 13.5681 53.9167 13.2881 53.37C13.0081 52.8167 12.8681 52.17 12.8681 51.43C12.8681 50.6967 13.0081 50.0567 13.2881 49.51C13.5681 48.9567 13.9681 48.5333 14.4881 48.24C15.0148 47.94 15.6281 47.79 16.3281 47.79C16.8081 47.79 17.2581 47.8667 17.6781 48.02C18.1048 48.1667 18.4581 48.3733 18.7381 48.64L18.3181 49.58C17.9981 49.32 17.6781 49.1333 17.3581 49.02C17.0448 48.9 16.7081 48.84 16.3481 48.84C15.6615 48.84 15.1281 49.0633 14.7481 49.51C14.3748 49.9567 14.1881 50.5967 14.1881 51.43C14.1881 52.27 14.3748 52.9167 14.7481 53.37C15.1215 53.8167 15.6548 54.04 16.3481 54.04C16.7081 54.04 17.0448 53.9833 17.3581 53.87C17.6781 53.75 17.9981 53.56 18.3181 53.3L18.7381 54.24C18.4581 54.5067 18.1048 54.7167 17.6781 54.87C17.2581 55.0167 16.8081 55.09 16.3281 55.09ZM20.4438 47.88H21.7338V53.94H25.0638V55H20.4438V47.88ZM31.2109 53.33H27.7309L27.0109 55H25.7109L28.9309 47.88H29.9809L33.2109 55H31.9209L31.2109 53.33ZM30.7809 52.33L29.4709 49.28L28.1609 52.33H30.7809ZM36.803 55.09C36.2564 55.09 35.743 55.0167 35.263 54.87C34.7897 54.7233 34.3864 54.5133 34.053 54.24L34.493 53.3C34.8397 53.56 35.1997 53.7533 35.573 53.88C35.953 54 36.3664 54.06 36.813 54.06C37.3064 54.06 37.6864 53.9733 37.953 53.8C38.2264 53.6267 38.363 53.3833 38.363 53.07C38.363 52.8033 38.2364 52.6 37.983 52.46C37.7364 52.3133 37.3264 52.1767 36.753 52.05C35.8597 51.8567 35.2097 51.6067 34.803 51.3C34.3964 50.9933 34.193 50.5467 34.193 49.96C34.193 49.54 34.3064 49.1667 34.533 48.84C34.7597 48.5133 35.0797 48.2567 35.493 48.07C35.913 47.8833 36.3964 47.79 36.943 47.79C37.443 47.79 37.9164 47.8667 38.363 48.02C38.8164 48.1667 39.1864 48.3733 39.473 48.64L39.043 49.58C38.4097 49.0733 37.7097 48.82 36.943 48.82C36.483 48.82 36.1197 48.9167 35.853 49.11C35.5864 49.2967 35.453 49.5533 35.453 49.88C35.453 50.16 35.5697 50.3733 35.803 50.52C36.043 50.6667 36.4497 50.8033 37.023 50.93C37.6164 51.07 38.0997 51.2233 38.473 51.39C38.8464 51.55 39.133 51.76 39.333 52.02C39.533 52.2733 39.633 52.5933 39.633 52.98C39.633 53.4067 39.5197 53.78 39.293 54.1C39.0664 54.4133 38.7397 54.6567 38.313 54.83C37.8864 55.0033 37.383 55.09 36.803 55.09ZM43.7386 55.09C43.1919 55.09 42.6786 55.0167 42.1986 54.87C41.7253 54.7233 41.3219 54.5133 40.9886 54.24L41.4286 53.3C41.7753 53.56 42.1353 53.7533 42.5086 53.88C42.8886 54 43.3019 54.06 43.7486 54.06C44.2419 54.06 44.6219 53.9733 44.8886 53.8C45.1619 53.6267 45.2986 53.3833 45.2986 53.07C45.2986 52.8033 45.1719 52.6 44.9186 52.46C44.6719 52.3133 44.2619 52.1767 43.6886 52.05C42.7953 51.8567 42.1453 51.6067 41.7386 51.3C41.3319 50.9933 41.1286 50.5467 41.1286 49.96C41.1286 49.54 41.2419 49.1667 41.4686 48.84C41.6953 48.5133 42.0153 48.2567 42.4286 48.07C42.8486 47.8833 43.3319 47.79 43.8786 47.79C44.3786 47.79 44.8519 47.8667 45.2986 48.02C45.7519 48.1667 46.1219 48.3733 46.4086 48.64L45.9786 49.58C45.3453 49.0733 44.6453 48.82 43.8786 48.82C43.4186 48.82 43.0553 48.9167 42.7886 49.11C42.5219 49.2967 42.3886 49.5533 42.3886 49.88C42.3886 50.16 42.5053 50.3733 42.7386 50.52C42.9786 50.6667 43.3853 50.8033 43.9586 50.93C44.5519 51.07 45.0353 51.2233 45.4086 51.39C45.7819 51.55 46.0686 51.76 46.2686 52.02C46.4686 52.2733 46.5686 52.5933 46.5686 52.98C46.5686 53.4067 46.4553 53.78 46.2286 54.1C46.0019 54.4133 45.6753 54.6567 45.2486 54.83C44.8219 55.0033 44.3186 55.09 43.7386 55.09ZM48.2641 47.88H49.5541V55H48.2641V47.88ZM54.8262 55.09C54.1262 55.09 53.5128 54.94 52.9862 54.64C52.4662 54.34 52.0662 53.9167 51.7862 53.37C51.5062 52.8167 51.3662 52.17 51.3662 51.43C51.3662 50.6967 51.5062 50.0567 51.7862 49.51C52.0662 48.9567 52.4662 48.5333 52.9862 48.24C53.5128 47.94 54.1262 47.79 54.8262 47.79C55.3062 47.79 55.7562 47.8667 56.1762 48.02C56.6028 48.1667 56.9562 48.3733 57.2362 48.64L56.8162 49.58C56.4962 49.32 56.1762 49.1333 55.8562 49.02C55.5428 48.9 55.2062 48.84 54.8462 48.84C54.1595 48.84 53.6262 49.0633 53.2462 49.51C52.8728 49.9567 52.6862 50.5967 52.6862 51.43C52.6862 52.27 52.8728 52.9167 53.2462 53.37C53.6195 53.8167 54.1528 54.04 54.8462 54.04C55.2062 54.04 55.5428 53.9833 55.8562 53.87C56.1762 53.75 56.4962 53.56 56.8162 53.3L57.2362 54.24C56.9562 54.5067 56.6028 54.7167 56.1762 54.87C55.7562 55.0167 55.3062 55.09 54.8262 55.09Z" fill="black"/>
</g>
<defs>
<filter id="filter0_d" x="8" y="-5" width="54" height="52.087" filterUnits="userSpaceOnUse" color-interpolation-filters="sRGB">
<feFlood flood-opacity="0" result="BackgroundImageFix"/>
<feColorMatrix in="SourceAlpha" type="matrix" values="0 0 0 0 0 0 0 0 0 0 0 0 0 0 0 0 0 0 127 0" result="hardAlpha"/>
<feOffset dy="2"/>
<feGaussianBlur stdDeviation="3.5"/>
<feColorMatrix type="matrix" values="0 0 0 0 0 0 0 0 0 0 0 0 0 0 0 0 0 0 0.2 0"/>
<feBlend mode="normal" in2="BackgroundImageFix" result="effect1_dropShadow"/>
<feBlend mode="normal" in="SourceGraphic" in2="effect1_dropShadow" result="shape"/>
</filter>
<clipPath id="clip0">
<rect width="70" height="70" fill="white"/>
</clipPath>
</defs>
</svg>
