<svg width="20" height="20" viewBox="0 0 20 20" fill="none" xmlns="http://www.w3.org/2000/svg">
<path d="M20 0.574219H0V16.6153H7.52781L7.44781 16.8184C7.05129 17.8252 6.02613 18.5017 4.89691 18.5017H4.84703V19.6177H15.153V18.5017C14.0237 18.5017 12.9986 17.8252 12.6021 16.8183L12.5221 16.6153H20V0.574219ZM18.8281 1.69018V13.2454H1.17188V1.69018H18.8281ZM11.5048 17.2102C11.6987 17.7026 11.9979 18.1396 12.372 18.5017H7.67789C8.05203 18.1396 8.35117 17.7026 8.54508 17.2102L8.77938 16.6153H11.2705L11.5048 17.2102ZM1.17188 15.4993V14.3614H18.8281V15.4993H1.17188Z" fill="#F2F2F2"/>
<path d="M3.29621 9.83728C3.29621 10.7953 4.11469 11.5747 5.1207 11.5747C6.12672 11.5747 6.9452 10.7953 6.9452 9.83728V9.01783H13.0467V9.83728C13.0467 10.7953 13.8651 11.5747 14.8711 11.5747C15.8771 11.5747 16.6956 10.7953 16.6956 9.83728V7.97618H17.7184V6.86022H16.6956V4.99913C16.6956 4.04111 15.8771 3.26172 14.8711 3.26172C13.8651 3.26172 13.0467 4.04111 13.0467 4.99913V5.81858H6.94516V4.99913C6.94516 4.04111 6.12668 3.26172 5.12066 3.26172C4.11465 3.26172 3.29621 4.04111 3.29621 4.99913V6.86022H2.27344V7.97618H3.29621V9.83728ZM14.2186 4.99913C14.2186 4.65645 14.5113 4.37768 14.8711 4.37768C15.231 4.37768 15.5237 4.65645 15.5237 4.99913V9.83728C15.5237 10.18 15.231 10.4587 14.8711 10.4587C14.5113 10.4587 14.2186 10.18 14.2186 9.83728V4.99913ZM13.0467 6.93454V7.90182H6.94516V6.93454H13.0467ZM4.46809 4.99913C4.46809 4.65645 4.76086 4.37768 5.1207 4.37768C5.48055 4.37768 5.77332 4.65645 5.77332 4.99913V9.83728C5.77332 10.18 5.48055 10.4587 5.1207 10.4587C4.76086 10.4587 4.46809 10.18 4.46809 9.83728V4.99913Z" fill="#F2F2F2"/>
</svg>
