<svg width="50" height="50" viewBox="0 0 50 50" fill="none" xmlns="http://www.w3.org/2000/svg">
<g clip-path="url(#clip0)">
<path d="M35 8H15V24.8468H22.5278L22.4478 25.0601C22.0513 26.1175 21.0261 26.828 19.8969 26.828H19.847V28H30.153V26.828C29.0237 26.828 27.9986 26.1175 27.6021 25.06L27.5221 24.8468H35V8ZM33.8281 9.17202V21.3077H16.1719V9.17202H33.8281ZM26.5048 25.4716C26.6987 25.9887 26.9979 26.4477 27.372 26.828H22.6779C23.052 26.4477 23.3512 25.9887 23.5451 25.4716L23.7794 24.8468H26.2705L26.5048 25.4716ZM16.1719 23.6748V22.4797H33.8281V23.6748H16.1719Z" fill="black"/>
<path d="M18.2978 17.7261C18.2978 18.7323 19.1163 19.5508 20.1223 19.5508C21.1283 19.5508 21.9468 18.7323 21.9468 17.7261V16.8655H28.0483V17.7261C28.0483 18.7323 28.8667 19.5508 29.8727 19.5508C30.8787 19.5508 31.6972 18.7323 31.6972 17.7261V15.7716H32.72V14.5996H31.6972V12.645C31.6972 11.6388 30.8787 10.8203 29.8727 10.8203C28.8667 10.8203 28.0483 11.6388 28.0483 12.645V13.5056H21.9467V12.645C21.9467 11.6388 21.1283 10.8203 20.1223 10.8203C19.1162 10.8203 18.2978 11.6388 18.2978 12.645V14.5996H17.275V15.7716H18.2978V17.7261ZM29.2201 12.645C29.2201 12.2851 29.5129 11.9923 29.8727 11.9923C30.2326 11.9923 30.5253 12.2851 30.5253 12.645V17.7261C30.5253 18.086 30.2326 18.3788 29.8727 18.3788C29.5129 18.3788 29.2201 18.086 29.2201 17.7261V12.645ZM28.0483 14.6776V15.6935H21.9467V14.6776H28.0483ZM19.4697 12.645C19.4697 12.2851 19.7624 11.9923 20.1223 11.9923C20.4821 11.9923 20.7749 12.2851 20.7749 12.645V17.7261C20.7749 18.086 20.4821 18.3788 20.1223 18.3788C19.7624 18.3788 19.4697 18.086 19.4697 17.7261V12.645Z" fill="black"/>
<path d="M6.32813 43.09C5.62813 43.09 5.01479 42.94 4.48813 42.64C3.96813 42.34 3.56813 41.9167 3.28813 41.37C3.00813 40.8167 2.86813 40.17 2.86813 39.43C2.86813 38.6967 3.00813 38.0567 3.28813 37.51C3.56813 36.9567 3.96813 36.5333 4.48813 36.24C5.01479 35.94 5.62813 35.79 6.32813 35.79C6.80813 35.79 7.25813 35.8667 7.67813 36.02C8.10479 36.1667 8.45813 36.3733 8.73813 36.64L8.31813 37.58C7.99813 37.32 7.67813 37.1333 7.35813 37.02C7.04479 36.9 6.70813 36.84 6.34813 36.84C5.66146 36.84 5.12813 37.0633 4.74813 37.51C4.37479 37.9567 4.18813 38.5967 4.18813 39.43C4.18813 40.27 4.37479 40.9167 4.74813 41.37C5.12146 41.8167 5.65479 42.04 6.34813 42.04C6.70813 42.04 7.04479 41.9833 7.35813 41.87C7.67813 41.75 7.99813 41.56 8.31813 41.3L8.73813 42.24C8.45813 42.5067 8.10479 42.7167 7.67813 42.87C7.25813 43.0167 6.80813 43.09 6.32813 43.09ZM10.4438 35.88H11.7338V41.94H15.0638V43H10.4438V35.88ZM21.2109 41.33H17.7309L17.0109 43H15.7109L18.9309 35.88H19.9809L23.2109 43H21.9209L21.2109 41.33ZM20.7809 40.33L19.4709 37.28L18.1609 40.33H20.7809ZM26.803 43.09C26.2564 43.09 25.743 43.0167 25.263 42.87C24.7897 42.7233 24.3864 42.5133 24.053 42.24L24.493 41.3C24.8397 41.56 25.1997 41.7533 25.573 41.88C25.953 42 26.3664 42.06 26.813 42.06C27.3064 42.06 27.6864 41.9733 27.953 41.8C28.2264 41.6267 28.363 41.3833 28.363 41.07C28.363 40.8033 28.2364 40.6 27.983 40.46C27.7364 40.3133 27.3264 40.1767 26.753 40.05C25.8597 39.8567 25.2097 39.6067 24.803 39.3C24.3964 38.9933 24.193 38.5467 24.193 37.96C24.193 37.54 24.3064 37.1667 24.533 36.84C24.7597 36.5133 25.0797 36.2567 25.493 36.07C25.913 35.8833 26.3964 35.79 26.943 35.79C27.443 35.79 27.9164 35.8667 28.363 36.02C28.8164 36.1667 29.1864 36.3733 29.473 36.64L29.043 37.58C28.4097 37.0733 27.7097 36.82 26.943 36.82C26.483 36.82 26.1197 36.9167 25.853 37.11C25.5864 37.2967 25.453 37.5533 25.453 37.88C25.453 38.16 25.5697 38.3733 25.803 38.52C26.043 38.6667 26.4497 38.8033 27.023 38.93C27.6164 39.07 28.0997 39.2233 28.473 39.39C28.8464 39.55 29.133 39.76 29.333 40.02C29.533 40.2733 29.633 40.5933 29.633 40.98C29.633 41.4067 29.5197 41.78 29.293 42.1C29.0664 42.4133 28.7397 42.6567 28.313 42.83C27.8864 43.0033 27.383 43.09 26.803 43.09ZM33.7386 43.09C33.1919 43.09 32.6786 43.0167 32.1986 42.87C31.7253 42.7233 31.3219 42.5133 30.9886 42.24L31.4286 41.3C31.7753 41.56 32.1353 41.7533 32.5086 41.88C32.8886 42 33.3019 42.06 33.7486 42.06C34.2419 42.06 34.6219 41.9733 34.8886 41.8C35.1619 41.6267 35.2986 41.3833 35.2986 41.07C35.2986 40.8033 35.1719 40.6 34.9186 40.46C34.6719 40.3133 34.2619 40.1767 33.6886 40.05C32.7953 39.8567 32.1453 39.6067 31.7386 39.3C31.3319 38.9933 31.1286 38.5467 31.1286 37.96C31.1286 37.54 31.2419 37.1667 31.4686 36.84C31.6953 36.5133 32.0153 36.2567 32.4286 36.07C32.8486 35.8833 33.3319 35.79 33.8786 35.79C34.3786 35.79 34.8519 35.8667 35.2986 36.02C35.7519 36.1667 36.1219 36.3733 36.4086 36.64L35.9786 37.58C35.3453 37.0733 34.6453 36.82 33.8786 36.82C33.4186 36.82 33.0553 36.9167 32.7886 37.11C32.5219 37.2967 32.3886 37.5533 32.3886 37.88C32.3886 38.16 32.5053 38.3733 32.7386 38.52C32.9786 38.6667 33.3853 38.8033 33.9586 38.93C34.5519 39.07 35.0353 39.2233 35.4086 39.39C35.7819 39.55 36.0686 39.76 36.2686 40.02C36.4686 40.2733 36.5686 40.5933 36.5686 40.98C36.5686 41.4067 36.4553 41.78 36.2286 42.1C36.0019 42.4133 35.6753 42.6567 35.2486 42.83C34.8219 43.0033 34.3186 43.09 33.7386 43.09ZM38.2641 35.88H39.5541V43H38.2641V35.88ZM44.8262 43.09C44.1262 43.09 43.5128 42.94 42.9862 42.64C42.4662 42.34 42.0662 41.9167 41.7862 41.37C41.5062 40.8167 41.3662 40.17 41.3662 39.43C41.3662 38.6967 41.5062 38.0567 41.7862 37.51C42.0662 36.9567 42.4662 36.5333 42.9862 36.24C43.5128 35.94 44.1262 35.79 44.8262 35.79C45.3062 35.79 45.7562 35.8667 46.1762 36.02C46.6028 36.1667 46.9562 36.3733 47.2362 36.64L46.8162 37.58C46.4962 37.32 46.1762 37.1333 45.8562 37.02C45.5428 36.9 45.2062 36.84 44.8462 36.84C44.1595 36.84 43.6262 37.0633 43.2462 37.51C42.8728 37.9567 42.6862 38.5967 42.6862 39.43C42.6862 40.27 42.8728 40.9167 43.2462 41.37C43.6195 41.8167 44.1528 42.04 44.8462 42.04C45.2062 42.04 45.5428 41.9833 45.8562 41.87C46.1762 41.75 46.4962 41.56 46.8162 41.3L47.2362 42.24C46.9562 42.5067 46.6028 42.7167 46.1762 42.87C45.7562 43.0167 45.3062 43.09 44.8262 43.09Z" fill="black"/>
</g>
<defs>
<clipPath id="clip0">
<rect width="50" height="50" fill="white"/>
</clipPath>
</defs>
</svg>
