<svg xmlns="http://www.w3.org/2000/svg" width="11" height="11" viewBox="0 0 11 11" fill="none">
<path d="M10.9121 8.97097C10.9121 9.19543 10.8335 9.38623 10.6764 9.54336L9.53164 10.6881C9.37451 10.8453 9.18371 10.9238 8.95925 10.9238C8.73478 10.9238 8.54398 10.8453 8.38686 10.6881L5.91211 8.21339L3.43736 10.6881C3.28024 10.8453 3.08944 10.9238 2.86497 10.9238C2.6405 10.9238 2.44971 10.8453 2.29258 10.6881L1.1478 9.54336C0.990673 9.38623 0.912109 9.19543 0.912109 8.97097C0.912109 8.7465 0.990673 8.5557 1.1478 8.39858L3.62255 5.92383L1.1478 3.44908C0.990673 3.29195 0.912109 3.10116 0.912109 2.87669C0.912109 2.65222 0.990673 2.46143 1.1478 2.3043L2.29258 1.15952C2.44971 1.00239 2.6405 0.923828 2.86497 0.923828C3.08944 0.923828 3.28024 1.00239 3.43736 1.15952L5.91211 3.63427L8.38686 1.15952C8.54398 1.00239 8.73478 0.923828 8.95925 0.923828C9.18371 0.923828 9.37451 1.00239 9.53164 1.15952L10.6764 2.3043C10.8335 2.46143 10.9121 2.65222 10.9121 2.87669C10.9121 3.10116 10.8335 3.29195 10.6764 3.44908L8.20167 5.92383L10.6764 8.39858C10.8335 8.5557 10.9121 8.7465 10.9121 8.97097Z" fill="black"/>
</svg>