<svg width="50" height="51" viewBox="0 0 50 51" fill="none" xmlns="http://www.w3.org/2000/svg">
<path d="M6.7475 46.8832C6.01417 46.8832 5.38417 46.7365 4.8575 46.4432C4.3375 46.1432 3.9375 45.7232 3.6575 45.1832C3.3775 44.6365 3.2375 43.9932 3.2375 43.2532C3.2375 42.5132 3.3775 41.8732 3.6575 41.3332C3.9375 40.7932 4.3375 40.3765 4.8575 40.0832C5.38417 39.7832 6.01417 39.6332 6.7475 39.6332C7.24083 39.6332 7.68417 39.7032 8.0775 39.8432C8.4775 39.9832 8.82083 40.1899 9.1075 40.4632L8.6875 41.4832C8.37417 41.2299 8.07083 41.0499 7.7775 40.9432C7.49083 40.8299 7.16083 40.7732 6.7875 40.7732C6.07417 40.7732 5.5275 40.9899 5.1475 41.4232C4.77417 41.8499 4.5875 42.4599 4.5875 43.2532C4.5875 44.0465 4.77417 44.6599 5.1475 45.0932C5.5275 45.5265 6.07417 45.7432 6.7875 45.7432C7.16083 45.7432 7.49083 45.6899 7.7775 45.5832C8.07083 45.4699 8.37417 45.2832 8.6875 45.0232L9.1075 46.0432C8.82083 46.3099 8.4775 46.5165 8.0775 46.6632C7.68417 46.8099 7.24083 46.8832 6.7475 46.8832ZM10.3586 43.2532C10.3586 42.5132 10.4919 41.8732 10.7586 41.3332C11.0319 40.7932 11.4219 40.3765 11.9286 40.0832C12.4353 39.7832 13.0386 39.6332 13.7386 39.6332C14.4319 39.6332 15.0319 39.7832 15.5386 40.0832C16.0453 40.3765 16.4353 40.7932 16.7086 41.3332C16.9886 41.8732 17.1286 42.5099 17.1286 43.2432C17.1286 43.9832 16.9886 44.6265 16.7086 45.1732C16.4353 45.7132 16.0453 46.1332 15.5386 46.4332C15.0319 46.7332 14.4319 46.8832 13.7386 46.8832C13.0386 46.8832 12.4353 46.7332 11.9286 46.4332C11.4286 46.1332 11.0419 45.7132 10.7686 45.1732C10.4953 44.6265 10.3586 43.9865 10.3586 43.2532ZM11.7086 43.2532C11.7086 44.0465 11.8786 44.6665 12.2186 45.1132C12.5586 45.5599 13.0653 45.7832 13.7386 45.7832C14.3919 45.7832 14.8953 45.5599 15.2486 45.1132C15.6019 44.6665 15.7786 44.0465 15.7786 43.2532C15.7786 42.4532 15.6019 41.8332 15.2486 41.3932C14.9019 40.9532 14.3986 40.7332 13.7386 40.7332C13.0653 40.7332 12.5586 40.9532 12.2186 41.3932C11.8786 41.8332 11.7086 42.4532 11.7086 43.2532ZM18.9597 46.7832V39.7332H20.2497V42.6732H23.8597V39.7332H25.1497V46.7832H23.8597V43.7432H20.2497V46.7832H18.9597ZM26.9738 43.2532C26.9738 42.5132 27.1072 41.8732 27.3738 41.3332C27.6472 40.7932 28.0372 40.3765 28.5438 40.0832C29.0505 39.7832 29.6538 39.6332 30.3538 39.6332C31.0472 39.6332 31.6472 39.7832 32.1538 40.0832C32.6605 40.3765 33.0505 40.7932 33.3238 41.3332C33.6038 41.8732 33.7438 42.5099 33.7438 43.2432C33.7438 43.9832 33.6038 44.6265 33.3238 45.1732C33.0505 45.7132 32.6605 46.1332 32.1538 46.4332C31.6472 46.7332 31.0472 46.8832 30.3538 46.8832C29.6538 46.8832 29.0505 46.7332 28.5438 46.4332C28.0438 46.1332 27.6572 45.7132 27.3838 45.1732C27.1105 44.6265 26.9738 43.9865 26.9738 43.2532ZM28.3238 43.2532C28.3238 44.0465 28.4938 44.6665 28.8338 45.1132C29.1738 45.5599 29.6805 45.7832 30.3538 45.7832C31.0072 45.7832 31.5105 45.5599 31.8638 45.1132C32.2172 44.6665 32.3938 44.0465 32.3938 43.2532C32.3938 42.4532 32.2172 41.8332 31.8638 41.3932C31.5172 40.9532 31.0138 40.7332 30.3538 40.7332C29.6805 40.7332 29.1738 40.9532 28.8338 41.3932C28.4938 41.8332 28.3238 42.4532 28.3238 43.2532ZM35.5749 46.7832V39.7332H38.6549C39.4283 39.7332 40.0249 39.9165 40.4449 40.2832C40.8716 40.6499 41.0849 41.1599 41.0849 41.8132C41.0849 42.2465 40.9883 42.6165 40.7949 42.9232C40.6083 43.2299 40.3383 43.4665 39.9849 43.6332C39.6316 43.7932 39.2149 43.8732 38.7349 43.8732L38.8749 43.6832H39.2149C39.4949 43.6832 39.7449 43.7565 39.9649 43.9032C40.1849 44.0499 40.3649 44.2732 40.5049 44.5732L41.5349 46.7832H40.1149L39.0749 44.4932C38.9816 44.2599 38.8383 44.1065 38.6449 44.0332C38.4583 43.9599 38.2316 43.9232 37.9649 43.9232H36.8649V46.7832H35.5749ZM36.8649 42.9732H38.4449C38.8983 42.9732 39.2416 42.8799 39.4749 42.6932C39.7149 42.4999 39.8349 42.2199 39.8349 41.8532C39.8349 41.4865 39.7149 41.2099 39.4749 41.0232C39.2416 40.8365 38.8983 40.7432 38.4449 40.7432H36.8649V42.9732ZM44.5611 46.7832V40.7932H42.2311V39.7332H48.1811V40.7932H45.8511V46.7832H44.5611Z" fill="black"/>
<mask id="path-2-inside-1_1305_13514" fill="white">
<path d="M36.2979 24.4207C36.5284 24.1631 36.6853 23.8515 36.7528 23.517C36.8204 23.1824 36.7963 22.8365 36.683 22.5138C36.5696 22.191 36.371 21.9026 36.1069 21.6774C35.8427 21.4521 35.5223 21.2978 35.1774 21.2298V17.6751C35.1774 17.5715 35.1349 17.4722 35.0593 17.3989C34.9837 17.3257 34.8811 17.2845 34.7742 17.2845H25.9032V14.5501H28.7359C28.8428 14.5501 28.9454 14.509 29.021 14.4357C29.0966 14.3625 29.1391 14.2631 29.1391 14.1595V11.8157C29.1381 11.168 28.9002 10.5416 28.4676 10.0477C28.035 9.55377 27.4358 9.22438 26.7762 9.11799C27.2235 8.84891 27.5679 8.44582 27.7573 7.9699C27.9467 7.49398 27.9706 6.97121 27.8255 6.48092C27.6803 5.99063 27.3741 5.55958 26.9531 5.25319C26.5322 4.9468 26.0196 4.7818 25.4931 4.78321C24.9666 4.78463 24.455 4.95239 24.0358 5.26104C23.6166 5.56969 23.3128 6.00237 23.1705 6.49344C23.0282 6.9845 23.0551 7.50714 23.2472 7.98203C23.4393 8.45692 23.7861 8.85815 24.2349 9.12483C23.5837 9.23895 22.9945 9.57078 22.5699 10.0625C22.1453 10.5542 21.9122 11.1747 21.9113 11.8157V14.1595C21.9113 14.2631 21.9538 14.3625 22.0294 14.4357C22.105 14.509 22.2076 14.5501 22.3145 14.5501H25.0968V17.2845H16.2258C16.1189 17.2845 16.0163 17.3257 15.9407 17.3989C15.8651 17.4722 15.8226 17.5715 15.8226 17.6751V21.2298C15.4777 21.2978 15.1573 21.4521 14.8931 21.6774C14.629 21.9026 14.4304 22.191 14.317 22.5138C14.2037 22.8365 14.1796 23.1824 14.2472 23.517C14.3147 23.8515 14.4716 24.1631 14.7021 24.4207C14.2093 24.5696 13.7784 24.8671 13.4722 25.2698C13.1661 25.6725 13.0006 26.1594 13 26.6595V28.6126C13 28.7162 13.0425 28.8156 13.1181 28.8888C13.1937 28.9621 13.2963 29.0032 13.4032 29.0032H19.0484C19.1553 29.0032 19.2579 28.9621 19.3335 28.8888C19.4091 28.8156 19.4516 28.7162 19.4516 28.6126V26.6595C19.451 26.1594 19.2856 25.6725 18.9794 25.2698C18.6732 24.8671 18.2423 24.5696 17.7495 24.4207C17.98 24.1631 18.1369 23.8515 18.2044 23.517C18.272 23.1824 18.2479 22.8365 18.1346 22.5138C18.0213 22.191 17.8226 21.9026 17.5585 21.6774C17.2943 21.4521 16.9739 21.2978 16.629 21.2298V18.0657H25.0968V21.2298C24.7519 21.2978 24.4315 21.4521 24.1673 21.6774C23.9032 21.9026 23.7046 22.191 23.5912 22.5138C23.4779 22.8365 23.4538 23.1824 23.5214 23.517C23.5889 23.8515 23.7458 24.1631 23.9763 24.4207C23.4835 24.5696 23.0526 24.8671 22.7464 25.2698C22.4403 25.6725 22.2748 26.1594 22.2742 26.6595V28.6126C22.2742 28.7162 22.3167 28.8156 22.3923 28.8888C22.4679 28.9621 22.5705 29.0032 22.6774 29.0032H28.3226C28.4295 29.0032 28.5321 28.9621 28.6077 28.8888C28.6833 28.8156 28.7258 28.7162 28.7258 28.6126V26.6595C28.7252 26.1594 28.5597 25.6725 28.2536 25.2698C27.9474 24.8671 27.5165 24.5696 27.0237 24.4207C27.2542 24.1631 27.4111 23.8515 27.4786 23.517C27.5462 23.1824 27.5221 22.8365 27.4088 22.5138C27.2954 22.191 27.0968 21.9026 26.8327 21.6774C26.5685 21.4521 26.2481 21.2978 25.9032 21.2298V18.0657H34.371V21.2298C34.0261 21.2978 33.7057 21.4521 33.4415 21.6774C33.1774 21.9026 32.9787 22.191 32.8654 22.5138C32.7521 22.8365 32.728 23.1824 32.7956 23.517C32.8631 23.8515 33.02 24.1631 33.2505 24.4207C32.7577 24.5696 32.3268 24.8671 32.0206 25.2698C31.7144 25.6725 31.549 26.1594 31.5484 26.6595V28.6126C31.5484 28.7162 31.5909 28.8156 31.6665 28.8888C31.7421 28.9621 31.8447 29.0032 31.9516 29.0032H37.5968C37.7037 29.0032 37.8063 28.9621 37.8819 28.8888C37.9575 28.8156 38 28.7162 38 28.6126V26.6595C37.9994 26.1594 37.8339 25.6725 37.5278 25.2698C37.2216 24.8671 36.7907 24.5696 36.2979 24.4207V24.4207ZM18.6452 26.6595V28.222H13.8065V26.6595C13.8069 26.2452 13.977 25.8481 14.2794 25.5552C14.5818 25.2622 14.9917 25.0975 15.4194 25.097H17.0323C17.4599 25.0975 17.8698 25.2622 18.1722 25.5552C18.4746 25.8481 18.6447 26.2452 18.6452 26.6595V26.6595ZM17.4355 23.1439C17.4355 23.3756 17.3645 23.6022 17.2316 23.7949C17.0987 23.9876 16.9098 24.1378 16.6887 24.2265C16.4677 24.3152 16.2245 24.3384 15.9898 24.2932C15.7552 24.248 15.5396 24.1364 15.3704 23.9725C15.2013 23.8086 15.086 23.5998 15.0394 23.3725C14.9927 23.1452 15.0167 22.9095 15.1082 22.6954C15.1998 22.4813 15.3548 22.2983 15.5537 22.1695C15.7527 22.0407 15.9866 21.972 16.2258 21.972C16.5465 21.9724 16.8539 22.096 17.0807 22.3157C17.3075 22.5354 17.4351 22.8332 17.4355 23.1439V23.1439ZM23.8871 7.12825C23.8871 6.81921 23.9817 6.51712 24.1589 6.26017C24.3361 6.00322 24.588 5.80295 24.8828 5.68469C25.1775 5.56642 25.5018 5.53548 25.8147 5.59577C26.1275 5.65606 26.4149 5.80487 26.6405 6.02339C26.8661 6.24191 27.0197 6.52032 27.0819 6.82342C27.1441 7.12651 27.1122 7.44068 26.9901 7.72619C26.8681 8.0117 26.6613 8.25573 26.3961 8.42742C26.1308 8.59911 25.819 8.69075 25.5 8.69075C25.0724 8.69036 24.6623 8.52562 24.3599 8.23267C24.0576 7.93973 23.8875 7.54253 23.8871 7.12825V7.12825ZM27.9194 26.6595V28.222H23.0806V26.6595C23.0811 26.2452 23.2512 25.8481 23.5536 25.5552C23.856 25.2622 24.2659 25.0975 24.6935 25.097H26.3065C26.7341 25.0975 27.144 25.2622 27.4464 25.5552C27.7488 25.8481 27.9189 26.2452 27.9194 26.6595V26.6595ZM26.7097 23.1439C26.7097 23.3756 26.6387 23.6022 26.5058 23.7949C26.3729 23.9876 26.184 24.1378 25.9629 24.2265C25.7419 24.3152 25.4987 24.3384 25.264 24.2932C25.0293 24.248 24.8138 24.1364 24.6446 23.9725C24.4755 23.8086 24.3602 23.5998 24.3136 23.3725C24.2669 23.1452 24.2908 22.9095 24.3824 22.6954C24.474 22.4813 24.629 22.2983 24.8279 22.1695C25.0269 22.0407 25.2607 21.972 25.5 21.972C25.8207 21.9724 26.1281 22.096 26.3549 22.3157C26.5817 22.5354 26.7093 22.8332 26.7097 23.1439V23.1439ZM22.7177 13.7689V11.8157C22.7183 11.2979 22.9309 10.8014 23.3088 10.4353C23.6868 10.0691 24.1993 9.86314 24.7339 9.86262H26.3165C26.8511 9.86314 27.3636 10.0691 27.7416 10.4353C28.1195 10.8014 28.3321 11.2979 28.3327 11.8157V13.7689H22.7177ZM34.7742 21.972C35.0134 21.972 35.2473 22.0407 35.4463 22.1695C35.6452 22.2983 35.8002 22.4813 35.8918 22.6954C35.9833 22.9095 36.0073 23.1452 35.9606 23.3725C35.914 23.5998 35.7987 23.8086 35.6296 23.9725C35.4604 24.1364 35.2448 24.248 35.0102 24.2932C34.7755 24.3384 34.5323 24.3152 34.3113 24.2265C34.0902 24.1378 33.9013 23.9876 33.7684 23.7949C33.6355 23.6022 33.5645 23.3756 33.5645 23.1439C33.5649 22.8332 33.6925 22.5354 33.9193 22.3157C34.1461 22.096 34.4535 21.9724 34.7742 21.972ZM37.1935 28.222H32.3548V26.6595C32.3553 26.2452 32.5254 25.8481 32.8278 25.5552C33.1302 25.2622 33.5401 25.0975 33.9677 25.097H35.5806C36.0083 25.0975 36.4182 25.2622 36.7206 25.5552C37.023 25.8481 37.1931 26.2452 37.1935 26.6595V28.222Z"/>
</mask>
<path d="M36.2979 24.4207C36.5284 24.1631 36.6853 23.8515 36.7528 23.517C36.8204 23.1824 36.7963 22.8365 36.683 22.5138C36.5696 22.191 36.371 21.9026 36.1069 21.6774C35.8427 21.4521 35.5223 21.2978 35.1774 21.2298V17.6751C35.1774 17.5715 35.1349 17.4722 35.0593 17.3989C34.9837 17.3257 34.8811 17.2845 34.7742 17.2845H25.9032V14.5501H28.7359C28.8428 14.5501 28.9454 14.509 29.021 14.4357C29.0966 14.3625 29.1391 14.2631 29.1391 14.1595V11.8157C29.1381 11.168 28.9002 10.5416 28.4676 10.0477C28.035 9.55377 27.4358 9.22438 26.7762 9.11799C27.2235 8.84891 27.5679 8.44582 27.7573 7.9699C27.9467 7.49398 27.9706 6.97121 27.8255 6.48092C27.6803 5.99063 27.3741 5.55958 26.9531 5.25319C26.5322 4.9468 26.0196 4.7818 25.4931 4.78321C24.9666 4.78463 24.455 4.95239 24.0358 5.26104C23.6166 5.56969 23.3128 6.00237 23.1705 6.49344C23.0282 6.9845 23.0551 7.50714 23.2472 7.98203C23.4393 8.45692 23.7861 8.85815 24.2349 9.12483C23.5837 9.23895 22.9945 9.57078 22.5699 10.0625C22.1453 10.5542 21.9122 11.1747 21.9113 11.8157V14.1595C21.9113 14.2631 21.9538 14.3625 22.0294 14.4357C22.105 14.509 22.2076 14.5501 22.3145 14.5501H25.0968V17.2845H16.2258C16.1189 17.2845 16.0163 17.3257 15.9407 17.3989C15.8651 17.4722 15.8226 17.5715 15.8226 17.6751V21.2298C15.4777 21.2978 15.1573 21.4521 14.8931 21.6774C14.629 21.9026 14.4304 22.191 14.317 22.5138C14.2037 22.8365 14.1796 23.1824 14.2472 23.517C14.3147 23.8515 14.4716 24.1631 14.7021 24.4207C14.2093 24.5696 13.7784 24.8671 13.4722 25.2698C13.1661 25.6725 13.0006 26.1594 13 26.6595V28.6126C13 28.7162 13.0425 28.8156 13.1181 28.8888C13.1937 28.9621 13.2963 29.0032 13.4032 29.0032H19.0484C19.1553 29.0032 19.2579 28.9621 19.3335 28.8888C19.4091 28.8156 19.4516 28.7162 19.4516 28.6126V26.6595C19.451 26.1594 19.2856 25.6725 18.9794 25.2698C18.6732 24.8671 18.2423 24.5696 17.7495 24.4207C17.98 24.1631 18.1369 23.8515 18.2044 23.517C18.272 23.1824 18.2479 22.8365 18.1346 22.5138C18.0213 22.191 17.8226 21.9026 17.5585 21.6774C17.2943 21.4521 16.9739 21.2978 16.629 21.2298V18.0657H25.0968V21.2298C24.7519 21.2978 24.4315 21.4521 24.1673 21.6774C23.9032 21.9026 23.7046 22.191 23.5912 22.5138C23.4779 22.8365 23.4538 23.1824 23.5214 23.517C23.5889 23.8515 23.7458 24.1631 23.9763 24.4207C23.4835 24.5696 23.0526 24.8671 22.7464 25.2698C22.4403 25.6725 22.2748 26.1594 22.2742 26.6595V28.6126C22.2742 28.7162 22.3167 28.8156 22.3923 28.8888C22.4679 28.9621 22.5705 29.0032 22.6774 29.0032H28.3226C28.4295 29.0032 28.5321 28.9621 28.6077 28.8888C28.6833 28.8156 28.7258 28.7162 28.7258 28.6126V26.6595C28.7252 26.1594 28.5597 25.6725 28.2536 25.2698C27.9474 24.8671 27.5165 24.5696 27.0237 24.4207C27.2542 24.1631 27.4111 23.8515 27.4786 23.517C27.5462 23.1824 27.5221 22.8365 27.4088 22.5138C27.2954 22.191 27.0968 21.9026 26.8327 21.6774C26.5685 21.4521 26.2481 21.2978 25.9032 21.2298V18.0657H34.371V21.2298C34.0261 21.2978 33.7057 21.4521 33.4415 21.6774C33.1774 21.9026 32.9787 22.191 32.8654 22.5138C32.7521 22.8365 32.728 23.1824 32.7956 23.517C32.8631 23.8515 33.02 24.1631 33.2505 24.4207C32.7577 24.5696 32.3268 24.8671 32.0206 25.2698C31.7144 25.6725 31.549 26.1594 31.5484 26.6595V28.6126C31.5484 28.7162 31.5909 28.8156 31.6665 28.8888C31.7421 28.9621 31.8447 29.0032 31.9516 29.0032H37.5968C37.7037 29.0032 37.8063 28.9621 37.8819 28.8888C37.9575 28.8156 38 28.7162 38 28.6126V26.6595C37.9994 26.1594 37.8339 25.6725 37.5278 25.2698C37.2216 24.8671 36.7907 24.5696 36.2979 24.4207V24.4207ZM18.6452 26.6595V28.222H13.8065V26.6595C13.8069 26.2452 13.977 25.8481 14.2794 25.5552C14.5818 25.2622 14.9917 25.0975 15.4194 25.097H17.0323C17.4599 25.0975 17.8698 25.2622 18.1722 25.5552C18.4746 25.8481 18.6447 26.2452 18.6452 26.6595V26.6595ZM17.4355 23.1439C17.4355 23.3756 17.3645 23.6022 17.2316 23.7949C17.0987 23.9876 16.9098 24.1378 16.6887 24.2265C16.4677 24.3152 16.2245 24.3384 15.9898 24.2932C15.7552 24.248 15.5396 24.1364 15.3704 23.9725C15.2013 23.8086 15.086 23.5998 15.0394 23.3725C14.9927 23.1452 15.0167 22.9095 15.1082 22.6954C15.1998 22.4813 15.3548 22.2983 15.5537 22.1695C15.7527 22.0407 15.9866 21.972 16.2258 21.972C16.5465 21.9724 16.8539 22.096 17.0807 22.3157C17.3075 22.5354 17.4351 22.8332 17.4355 23.1439V23.1439ZM23.8871 7.12825C23.8871 6.81921 23.9817 6.51712 24.1589 6.26017C24.3361 6.00322 24.588 5.80295 24.8828 5.68469C25.1775 5.56642 25.5018 5.53548 25.8147 5.59577C26.1275 5.65606 26.4149 5.80487 26.6405 6.02339C26.8661 6.24191 27.0197 6.52032 27.0819 6.82342C27.1441 7.12651 27.1122 7.44068 26.9901 7.72619C26.8681 8.0117 26.6613 8.25573 26.3961 8.42742C26.1308 8.59911 25.819 8.69075 25.5 8.69075C25.0724 8.69036 24.6623 8.52562 24.3599 8.23267C24.0576 7.93973 23.8875 7.54253 23.8871 7.12825V7.12825ZM27.9194 26.6595V28.222H23.0806V26.6595C23.0811 26.2452 23.2512 25.8481 23.5536 25.5552C23.856 25.2622 24.2659 25.0975 24.6935 25.097H26.3065C26.7341 25.0975 27.144 25.2622 27.4464 25.5552C27.7488 25.8481 27.9189 26.2452 27.9194 26.6595V26.6595ZM26.7097 23.1439C26.7097 23.3756 26.6387 23.6022 26.5058 23.7949C26.3729 23.9876 26.184 24.1378 25.9629 24.2265C25.7419 24.3152 25.4987 24.3384 25.264 24.2932C25.0293 24.248 24.8138 24.1364 24.6446 23.9725C24.4755 23.8086 24.3602 23.5998 24.3136 23.3725C24.2669 23.1452 24.2908 22.9095 24.3824 22.6954C24.474 22.4813 24.629 22.2983 24.8279 22.1695C25.0269 22.0407 25.2607 21.972 25.5 21.972C25.8207 21.9724 26.1281 22.096 26.3549 22.3157C26.5817 22.5354 26.7093 22.8332 26.7097 23.1439V23.1439ZM22.7177 13.7689V11.8157C22.7183 11.2979 22.9309 10.8014 23.3088 10.4353C23.6868 10.0691 24.1993 9.86314 24.7339 9.86262H26.3165C26.8511 9.86314 27.3636 10.0691 27.7416 10.4353C28.1195 10.8014 28.3321 11.2979 28.3327 11.8157V13.7689H22.7177ZM34.7742 21.972C35.0134 21.972 35.2473 22.0407 35.4463 22.1695C35.6452 22.2983 35.8002 22.4813 35.8918 22.6954C35.9833 22.9095 36.0073 23.1452 35.9606 23.3725C35.914 23.5998 35.7987 23.8086 35.6296 23.9725C35.4604 24.1364 35.2448 24.248 35.0102 24.2932C34.7755 24.3384 34.5323 24.3152 34.3113 24.2265C34.0902 24.1378 33.9013 23.9876 33.7684 23.7949C33.6355 23.6022 33.5645 23.3756 33.5645 23.1439C33.5649 22.8332 33.6925 22.5354 33.9193 22.3157C34.1461 22.096 34.4535 21.9724 34.7742 21.972ZM37.1935 28.222H32.3548V26.6595C32.3553 26.2452 32.5254 25.8481 32.8278 25.5552C33.1302 25.2622 33.5401 25.0975 33.9677 25.097H35.5806C36.0083 25.0975 36.4182 25.2622 36.7206 25.5552C37.023 25.8481 37.1931 26.2452 37.1935 26.6595V28.222Z" fill="black" stroke="black" stroke-width="12" mask="url(#path-2-inside-1_1305_13514)"/>
</svg>
