<svg xmlns="http://www.w3.org/2000/svg" width="59" height="70" viewBox="0 0 59 70" fill="none">
<path d="M20.5 1.1875C20.5 0.872555 20.3749 0.57051 20.1522 0.347811C19.9295 0.125111 19.6274 0 19.3125 0C18.9976 0 18.6955 0.125111 18.4728 0.347811C18.2501 0.57051 18.125 0.872555 18.125 1.1875V2.375H15.75C14.4902 2.375 13.282 2.87545 12.3912 3.76624C11.5004 4.65704 11 5.86522 11 7.125L11 9.5H49V7.125C49 5.86522 48.4996 4.65704 47.6088 3.76624C46.718 2.87545 45.5098 2.375 44.25 2.375H41.875V1.1875C41.875 0.872555 41.7499 0.57051 41.5272 0.347811C41.3045 0.125111 41.0024 0 40.6875 0C40.3726 0 40.0705 0.125111 39.8478 0.347811C39.6251 0.57051 39.5 0.872555 39.5 1.1875V2.375H20.5V1.1875ZM49 33.25V11.875H11V33.25C11 34.5098 11.5004 35.718 12.3912 36.6088C13.282 37.4996 14.4902 38 15.75 38H44.25C45.5098 38 46.718 37.4996 47.6088 36.6088C48.4996 35.718 49 34.5098 49 33.25ZM40.6875 16.625H43.0625C43.3774 16.625 43.6795 16.7501 43.9022 16.9728C44.1249 17.1955 44.25 17.4976 44.25 17.8125V20.1875C44.25 20.5024 44.1249 20.8045 43.9022 21.0272C43.6795 21.2499 43.3774 21.375 43.0625 21.375H40.6875C40.3726 21.375 40.0705 21.2499 39.8478 21.0272C39.6251 20.8045 39.5 20.5024 39.5 20.1875V17.8125C39.5 17.4976 39.6251 17.1955 39.8478 16.9728C40.0705 16.7501 40.3726 16.625 40.6875 16.625Z" fill="black"/>
<path d="M18.125 26.125C18.7549 26.125 19.359 26.3752 19.8044 26.8206C20.2498 27.266 20.5 27.8701 20.5 28.5C20.5 29.1299 20.2498 29.734 19.8044 30.1794C19.359 30.6248 18.7549 30.875 18.125 30.875C17.4951 30.875 16.891 30.6248 16.4456 30.1794C16.0002 29.734 15.75 29.1299 15.75 28.5C15.75 27.8701 16.0002 27.266 16.4456 26.8206C16.891 26.3752 17.4951 26.125 18.125 26.125ZM18.125 32.0625C20.7494 32.0625 22.875 33.1253 22.875 34.4375V35.625H13.375V34.4375C13.375 33.1253 15.5006 32.0625 18.125 32.0625Z" fill="#F2F2F2"/>
<path d="M18.125 26.125C18.7549 26.125 19.359 26.3752 19.8044 26.8206C20.2498 27.266 20.5 27.8701 20.5 28.5C20.5 29.1299 20.2498 29.734 19.8044 30.1794C19.359 30.6248 18.7549 30.875 18.125 30.875C17.4951 30.875 16.891 30.6248 16.4456 30.1794C16.0002 29.734 15.75 29.1299 15.75 28.5C15.75 27.8701 16.0002 27.266 16.4456 26.8206C16.891 26.3752 17.4951 26.125 18.125 26.125ZM18.125 32.0625C20.7494 32.0625 22.875 33.1253 22.875 34.4375V35.625H13.375V34.4375C13.375 33.1253 15.5006 32.0625 18.125 32.0625Z" fill="#F2F2F2"/>
<path d="M18.125 26.125C18.7549 26.125 19.359 26.3752 19.8044 26.8206C20.2498 27.266 20.5 27.8701 20.5 28.5C20.5 29.1299 20.2498 29.734 19.8044 30.1794C19.359 30.6248 18.7549 30.875 18.125 30.875C17.4951 30.875 16.891 30.6248 16.4456 30.1794C16.0002 29.734 15.75 29.1299 15.75 28.5C15.75 27.8701 16.0002 27.266 16.4456 26.8206C16.891 26.3752 17.4951 26.125 18.125 26.125ZM18.125 32.0625C20.7494 32.0625 22.875 33.1253 22.875 34.4375V35.625H13.375V34.4375C13.375 33.1253 15.5006 32.0625 18.125 32.0625Z" fill="#F2F2F2"/>
<path d="M18.125 26.125C18.7549 26.125 19.359 26.3752 19.8044 26.8206C20.2498 27.266 20.5 27.8701 20.5 28.5C20.5 29.1299 20.2498 29.734 19.8044 30.1794C19.359 30.6248 18.7549 30.875 18.125 30.875C17.4951 30.875 16.891 30.6248 16.4456 30.1794C16.0002 29.734 15.75 29.1299 15.75 28.5C15.75 27.8701 16.0002 27.266 16.4456 26.8206C16.891 26.3752 17.4951 26.125 18.125 26.125ZM18.125 32.0625C20.7494 32.0625 22.875 33.1253 22.875 34.4375V35.625H13.375V34.4375C13.375 33.1253 15.5006 32.0625 18.125 32.0625Z" fill="#F2F2F2"/>
<path d="M30 26.125C30.6299 26.125 31.234 26.3752 31.6794 26.8206C32.1248 27.266 32.375 27.8701 32.375 28.5C32.375 29.1299 32.1248 29.734 31.6794 30.1794C31.234 30.6248 30.6299 30.875 30 30.875C29.3701 30.875 28.766 30.6248 28.3206 30.1794C27.8752 29.734 27.625 29.1299 27.625 28.5C27.625 27.8701 27.8752 27.266 28.3206 26.8206C28.766 26.3752 29.3701 26.125 30 26.125ZM30 32.0625C32.6244 32.0625 34.75 33.1253 34.75 34.4375V35.625H25.25V34.4375C25.25 33.1253 27.3756 32.0625 30 32.0625Z" fill="#F2F2F2"/>
<path d="M30 26.125C30.6299 26.125 31.234 26.3752 31.6794 26.8206C32.1248 27.266 32.375 27.8701 32.375 28.5C32.375 29.1299 32.1248 29.734 31.6794 30.1794C31.234 30.6248 30.6299 30.875 30 30.875C29.3701 30.875 28.766 30.6248 28.3206 30.1794C27.8752 29.734 27.625 29.1299 27.625 28.5C27.625 27.8701 27.8752 27.266 28.3206 26.8206C28.766 26.3752 29.3701 26.125 30 26.125ZM30 32.0625C32.6244 32.0625 34.75 33.1253 34.75 34.4375V35.625H25.25V34.4375C25.25 33.1253 27.3756 32.0625 30 32.0625Z" fill="#F2F2F2"/>
<path d="M30 26.125C30.6299 26.125 31.234 26.3752 31.6794 26.8206C32.1248 27.266 32.375 27.8701 32.375 28.5C32.375 29.1299 32.1248 29.734 31.6794 30.1794C31.234 30.6248 30.6299 30.875 30 30.875C29.3701 30.875 28.766 30.6248 28.3206 30.1794C27.8752 29.734 27.625 29.1299 27.625 28.5C27.625 27.8701 27.8752 27.266 28.3206 26.8206C28.766 26.3752 29.3701 26.125 30 26.125ZM30 32.0625C32.6244 32.0625 34.75 33.1253 34.75 34.4375V35.625H25.25V34.4375C25.25 33.1253 27.3756 32.0625 30 32.0625Z" fill="#F2F2F2"/>
<path d="M30 26.125C30.6299 26.125 31.234 26.3752 31.6794 26.8206C32.1248 27.266 32.375 27.8701 32.375 28.5C32.375 29.1299 32.1248 29.734 31.6794 30.1794C31.234 30.6248 30.6299 30.875 30 30.875C29.3701 30.875 28.766 30.6248 28.3206 30.1794C27.8752 29.734 27.625 29.1299 27.625 28.5C27.625 27.8701 27.8752 27.266 28.3206 26.8206C28.766 26.3752 29.3701 26.125 30 26.125ZM30 32.0625C32.6244 32.0625 34.75 33.1253 34.75 34.4375V35.625H25.25V34.4375C25.25 33.1253 27.3756 32.0625 30 32.0625Z" fill="#F2F2F2"/>
<path d="M41.875 26.125C42.5049 26.125 43.109 26.3752 43.5544 26.8206C43.9998 27.266 44.25 27.8701 44.25 28.5C44.25 29.1299 43.9998 29.734 43.5544 30.1794C43.109 30.6248 42.5049 30.875 41.875 30.875C41.2451 30.875 40.641 30.6248 40.1956 30.1794C39.7502 29.734 39.5 29.1299 39.5 28.5C39.5 27.8701 39.7502 27.266 40.1956 26.8206C40.641 26.3752 41.2451 26.125 41.875 26.125ZM41.875 32.0625C44.4994 32.0625 46.625 33.1253 46.625 34.4375V35.625H37.125V34.4375C37.125 33.1253 39.2506 32.0625 41.875 32.0625Z" fill="#F2F2F2"/>
<path d="M41.875 26.125C42.5049 26.125 43.109 26.3752 43.5544 26.8206C43.9998 27.266 44.25 27.8701 44.25 28.5C44.25 29.1299 43.9998 29.734 43.5544 30.1794C43.109 30.6248 42.5049 30.875 41.875 30.875C41.2451 30.875 40.641 30.6248 40.1956 30.1794C39.7502 29.734 39.5 29.1299 39.5 28.5C39.5 27.8701 39.7502 27.266 40.1956 26.8206C40.641 26.3752 41.2451 26.125 41.875 26.125ZM41.875 32.0625C44.4994 32.0625 46.625 33.1253 46.625 34.4375V35.625H37.125V34.4375C37.125 33.1253 39.2506 32.0625 41.875 32.0625Z" fill="#F2F2F2"/>
<path d="M41.875 26.125C42.5049 26.125 43.109 26.3752 43.5544 26.8206C43.9998 27.266 44.25 27.8701 44.25 28.5C44.25 29.1299 43.9998 29.734 43.5544 30.1794C43.109 30.6248 42.5049 30.875 41.875 30.875C41.2451 30.875 40.641 30.6248 40.1956 30.1794C39.7502 29.734 39.5 29.1299 39.5 28.5C39.5 27.8701 39.7502 27.266 40.1956 26.8206C40.641 26.3752 41.2451 26.125 41.875 26.125ZM41.875 32.0625C44.4994 32.0625 46.625 33.1253 46.625 34.4375V35.625H37.125V34.4375C37.125 33.1253 39.2506 32.0625 41.875 32.0625Z" fill="#F2F2F2"/>
<path d="M41.875 26.125C42.5049 26.125 43.109 26.3752 43.5544 26.8206C43.9998 27.266 44.25 27.8701 44.25 28.5C44.25 29.1299 43.9998 29.734 43.5544 30.1794C43.109 30.6248 42.5049 30.875 41.875 30.875C41.2451 30.875 40.641 30.6248 40.1956 30.1794C39.7502 29.734 39.5 29.1299 39.5 28.5C39.5 27.8701 39.7502 27.266 40.1956 26.8206C40.641 26.3752 41.2451 26.125 41.875 26.125ZM41.875 32.0625C44.4994 32.0625 46.625 33.1253 46.625 34.4375V35.625H37.125V34.4375C37.125 33.1253 39.2506 32.0625 41.875 32.0625Z" fill="#F2F2F2"/>
<rect x="39.5" y="16.625" width="4.75" height="4.75" rx="0.5" fill="white"/>
<path d="M11.1955 57.165C10.0555 57.165 9.08049 56.94 8.27049 56.49C7.46049 56.04 6.83549 55.41 6.39549 54.6C5.96549 53.78 5.75049 52.815 5.75049 51.705C5.75049 50.875 5.87049 50.13 6.11049 49.47C6.36049 48.8 6.72049 48.23 7.19049 47.76C7.66049 47.28 8.23049 46.91 8.90049 46.65C9.58049 46.39 10.3455 46.26 11.1955 46.26C11.6955 46.26 12.2005 46.325 12.7105 46.455C13.2305 46.575 13.6805 46.75 14.0605 46.98C14.3105 47.12 14.4805 47.295 14.5705 47.505C14.6605 47.715 14.6855 47.925 14.6455 48.135C14.6155 48.345 14.5305 48.525 14.3905 48.675C14.2605 48.825 14.0955 48.92 13.8955 48.96C13.6955 49 13.4705 48.955 13.2205 48.825C12.9205 48.645 12.6055 48.515 12.2755 48.435C11.9455 48.355 11.6105 48.315 11.2705 48.315C10.6005 48.315 10.0355 48.45 9.57549 48.72C9.12549 48.98 8.78549 49.36 8.55549 49.86C8.32549 50.36 8.21049 50.975 8.21049 51.705C8.21049 52.425 8.32549 53.04 8.55549 53.55C8.78549 54.06 9.12549 54.45 9.57549 54.72C10.0355 54.98 10.6005 55.11 11.2705 55.11C11.5905 55.11 11.9155 55.07 12.2455 54.99C12.5855 54.91 12.9105 54.785 13.2205 54.615C13.4805 54.485 13.7105 54.44 13.9105 54.48C14.1205 54.51 14.2905 54.6 14.4205 54.75C14.5605 54.89 14.6455 55.06 14.6755 55.26C14.7155 55.46 14.6955 55.66 14.6155 55.86C14.5355 56.06 14.3855 56.23 14.1655 56.37C13.7955 56.62 13.3405 56.815 12.8005 56.955C12.2605 57.095 11.7255 57.165 11.1955 57.165ZM19.1371 57.165C18.3471 57.165 17.6571 57.01 17.0671 56.7C16.4871 56.39 16.0371 55.945 15.7171 55.365C15.3971 54.785 15.2371 54.1 15.2371 53.31C15.2371 52.72 15.3271 52.19 15.5071 51.72C15.6871 51.25 15.9471 50.85 16.2871 50.52C16.6371 50.18 17.0521 49.925 17.5321 49.755C18.0121 49.575 18.5471 49.485 19.1371 49.485C19.9271 49.485 20.6121 49.64 21.1921 49.95C21.7821 50.26 22.2371 50.7 22.5571 51.27C22.8871 51.84 23.0521 52.52 23.0521 53.31C23.0521 53.91 22.9571 54.445 22.7671 54.915C22.5871 55.385 22.3271 55.79 21.9871 56.13C21.6471 56.47 21.2321 56.73 20.7421 56.91C20.2621 57.08 19.7271 57.165 19.1371 57.165ZM19.1371 55.47C19.4671 55.47 19.7521 55.39 19.9921 55.23C20.2321 55.07 20.4221 54.835 20.5621 54.525C20.7021 54.205 20.7721 53.8 20.7721 53.31C20.7721 52.58 20.6221 52.045 20.3221 51.705C20.0221 51.355 19.6271 51.18 19.1371 51.18C18.8171 51.18 18.5321 51.255 18.2821 51.405C18.0421 51.555 17.8521 51.79 17.7121 52.11C17.5821 52.42 17.5171 52.82 17.5171 53.31C17.5171 54.04 17.6671 54.585 17.9671 54.945C18.2671 55.295 18.6571 55.47 19.1371 55.47ZM25.5701 57.135C25.2001 57.135 24.9151 57.035 24.7151 56.835C24.5251 56.635 24.4301 56.35 24.4301 55.98V47.445C24.4301 47.065 24.5251 46.78 24.7151 46.59C24.9151 46.39 25.2001 46.29 25.5701 46.29C25.9301 46.29 26.2051 46.39 26.3951 46.59C26.5951 46.78 26.6951 47.065 26.6951 47.445V51.015H26.4851C26.7151 50.525 27.0551 50.15 27.5051 49.89C27.9651 49.62 28.4851 49.485 29.0651 49.485C29.6551 49.485 30.1401 49.6 30.5201 49.83C30.9001 50.05 31.1851 50.39 31.3751 50.85C31.5651 51.3 31.6601 51.875 31.6601 52.575V55.98C31.6601 56.35 31.5601 56.635 31.3601 56.835C31.1701 57.035 30.8901 57.135 30.5201 57.135C30.1601 57.135 29.8801 57.035 29.6801 56.835C29.4901 56.635 29.3951 56.35 29.3951 55.98V52.68C29.3951 52.17 29.3001 51.805 29.1101 51.585C28.9301 51.355 28.6501 51.24 28.2701 51.24C27.7901 51.24 27.4051 51.39 27.1151 51.69C26.8351 51.99 26.6951 52.39 26.6951 52.89V55.98C26.6951 56.75 26.3201 57.135 25.5701 57.135ZM36.891 57.165C36.101 57.165 35.411 57.01 34.821 56.7C34.241 56.39 33.791 55.945 33.471 55.365C33.151 54.785 32.991 54.1 32.991 53.31C32.991 52.72 33.081 52.19 33.261 51.72C33.441 51.25 33.701 50.85 34.041 50.52C34.391 50.18 34.806 49.925 35.286 49.755C35.766 49.575 36.301 49.485 36.891 49.485C37.681 49.485 38.366 49.64 38.946 49.95C39.536 50.26 39.991 50.7 40.311 51.27C40.641 51.84 40.806 52.52 40.806 53.31C40.806 53.91 40.711 54.445 40.521 54.915C40.341 55.385 40.081 55.79 39.741 56.13C39.401 56.47 38.986 56.73 38.496 56.91C38.016 57.08 37.481 57.165 36.891 57.165ZM36.891 55.47C37.221 55.47 37.506 55.39 37.746 55.23C37.986 55.07 38.176 54.835 38.316 54.525C38.456 54.205 38.526 53.8 38.526 53.31C38.526 52.58 38.376 52.045 38.076 51.705C37.776 51.355 37.381 51.18 36.891 51.18C36.571 51.18 36.286 51.255 36.036 51.405C35.796 51.555 35.606 51.79 35.466 52.11C35.336 52.42 35.271 52.82 35.271 53.31C35.271 54.04 35.421 54.585 35.721 54.945C36.021 55.295 36.411 55.47 36.891 55.47ZM43.354 57.135C42.974 57.135 42.684 57.035 42.484 56.835C42.284 56.635 42.184 56.35 42.184 55.98V50.655C42.184 50.285 42.279 50.005 42.469 49.815C42.669 49.615 42.944 49.515 43.294 49.515C43.654 49.515 43.929 49.615 44.119 49.815C44.309 50.005 44.404 50.285 44.404 50.655V51.435H44.254C44.374 50.835 44.639 50.37 45.049 50.04C45.459 49.71 45.989 49.525 46.639 49.485C46.889 49.465 47.079 49.53 47.209 49.68C47.349 49.82 47.424 50.055 47.434 50.385C47.454 50.695 47.389 50.94 47.239 51.12C47.099 51.3 46.859 51.41 46.519 51.45L46.174 51.48C45.604 51.53 45.179 51.695 44.899 51.975C44.629 52.255 44.494 52.66 44.494 53.19V55.98C44.494 56.35 44.394 56.635 44.194 56.835C44.004 57.035 43.724 57.135 43.354 57.135ZM52.4201 57.165C51.7301 57.165 51.1501 57.05 50.6801 56.82C50.2201 56.59 49.8751 56.255 49.6451 55.815C49.4251 55.375 49.3151 54.82 49.3151 54.15V51.33H48.6851C48.4051 51.33 48.1851 51.255 48.0251 51.105C47.8751 50.955 47.8001 50.75 47.8001 50.49C47.8001 50.21 47.8751 50 48.0251 49.86C48.1851 49.71 48.4051 49.635 48.6851 49.635H49.3151V48.495C49.3151 48.115 49.4151 47.83 49.6151 47.64C49.8151 47.44 50.0951 47.34 50.4551 47.34C50.8251 47.34 51.1051 47.44 51.2951 47.64C51.4851 47.83 51.5801 48.115 51.5801 48.495V49.635H53.0051C53.2851 49.635 53.5001 49.71 53.6501 49.86C53.8001 50 53.8751 50.21 53.8751 50.49C53.8751 50.75 53.8001 50.955 53.6501 51.105C53.5001 51.255 53.2851 51.33 53.0051 51.33H51.5801V54.06C51.5801 54.48 51.6751 54.795 51.8651 55.005C52.0651 55.215 52.3801 55.32 52.8101 55.32C52.9601 55.32 53.1001 55.305 53.2301 55.275C53.3601 55.245 53.4801 55.225 53.5901 55.215C53.7301 55.205 53.8451 55.25 53.9351 55.35C54.0251 55.44 54.0701 55.645 54.0701 55.965C54.0701 56.205 54.0301 56.415 53.9501 56.595C53.8701 56.775 53.7301 56.905 53.5301 56.985C53.4001 57.035 53.2201 57.075 52.9901 57.105C52.7701 57.145 52.5801 57.165 52.4201 57.165Z" fill="black"/>
</svg>
