<svg width="73" height="60" viewBox="0 0 73 60" fill="none" xmlns="http://www.w3.org/2000/svg">
<path d="M59.4016 0C56.9127 2.84294 53.9521 5.03146 50.7107 6.42429C47.2928 7.14416 37.8343 1.90874 33.1735 7.25323C32.3967 8.18033 31.4372 9.10744 30.4319 10.0345C28.2386 8.88929 24.8573 7.14416 22.3898 5.45355C19.9224 3.76295 13.7081 0 13.7081 0L0 19.0874C0 19.0874 3.38132 24.541 5.48323 28.1403C6.85403 30.5399 8.54469 34.1938 9.64134 36.6479L8.08776 38.8293C7.71571 39.7114 7.58185 40.7094 7.70459 41.686C7.82734 42.6626 8.20065 43.5699 8.77316 44.2829C9.43399 44.8741 10.238 45.1929 11.0639 45.1909C11.8898 45.1889 12.6928 44.8664 13.3517 44.2719C13.1074 44.6133 12.9225 45.0094 12.8078 45.4369C12.6931 45.8645 12.6509 46.315 12.6836 46.7623C12.7164 47.2095 12.8234 47.6445 12.9985 48.0418C13.1736 48.4392 13.4133 48.7909 13.7035 49.0765C14.4012 49.5629 15.1951 49.8183 16.0031 49.8164C16.8112 49.8145 17.6041 49.5553 18.3003 49.0656C17.7782 49.8423 17.4925 50.8075 17.49 51.8032C17.4875 52.7989 17.7684 53.7661 18.2866 54.5464C18.9601 54.8247 19.6785 54.9134 20.3855 54.8056C21.0926 54.6977 21.7691 54.3963 22.3624 53.9247C22.0669 54.7597 21.9903 55.6819 22.1428 56.5698C22.2954 57.4578 22.6699 58.2697 23.2169 58.8984C23.9896 59.3082 24.8368 59.4771 25.6792 59.3894C26.5215 59.3016 27.3315 58.96 28.033 58.3967L30.3908 55.8498C32.5475 58.413 35.5222 60 38.8075 60L39.0863 59.9945C40.1689 59.8842 41.2061 59.4245 42.0867 58.6646C42.9673 57.9048 43.6581 56.8733 44.0851 55.6808C44.7523 55.9862 45.5108 56.1934 46.315 56.1934C47.3933 56.1934 48.394 55.8226 49.2394 55.1845C51.9124 53.074 51.2727 51.4379 51.2727 51.4379C52.2232 51.9262 53.279 52.042 54.2882 51.7686C55.2973 51.4952 56.2078 50.8467 56.8885 49.9164C57.5958 49.0528 58.0418 47.9324 58.156 46.7324C58.2702 45.5324 58.0461 44.3213 57.519 43.2903C57.5479 43.3109 57.5814 43.3204 57.615 43.3176C59.5387 43.3176 61.2111 42.0524 62.0838 40.1872C62.5133 38.8616 62.6584 37.4289 62.506 36.0194C62.3536 34.6098 61.9085 33.268 61.2111 32.116L61.2248 32.1432C64.9716 31.2707 64.8346 29.0347 66.6623 25.7626C68.3929 23.0923 70.5463 20.854 73 19.1747L59.4016 0ZM59.1731 38.5021C57.1626 40.9017 55.609 39.8655 52.182 36.757C48.755 33.6484 41.9467 27.8131 41.9467 27.8131C42.2254 29.4765 42.8697 30.9216 43.779 32.0723C45.2366 34.0302 49.5775 38.5021 51.6337 40.7926C52.9131 42.2105 56.2031 45.0464 54.2839 47.2278C52.3648 49.4092 50.8569 47.2278 47.7041 44.1738C44.5512 41.1198 37.5144 33.5939 37.5144 33.5939C37.4756 34.3153 37.5656 35.0383 37.7782 35.7152C37.9909 36.392 38.3215 37.0073 38.7481 37.5205C39.5249 38.6112 43.8658 43.6284 45.6935 45.9189C47.5213 48.2094 49.1206 49.5728 47.567 51.3725C46.0134 53.1722 42.8605 50.3363 41.1242 48.2094C38.4283 45.1009 33.0821 39.3201 33.0821 39.3201L33.0776 39.6092C33.0776 41.158 33.5254 42.5759 34.2793 43.6993C35.5953 45.7608 38.1541 48.433 39.7077 50.5054C41.2613 52.5777 42.1751 54.3228 39.7077 55.9589C37.2402 57.595 33.5848 53.5594 31.9855 51.5961V51.5852C31.9858 51.0465 31.8236 50.5257 31.5285 50.1182C30.982 49.5139 30.3076 49.099 29.5781 48.9184C28.8486 48.7377 28.0916 48.798 27.3887 49.0929C27.6779 48.7839 27.9097 48.406 28.0693 47.9837C28.2289 47.5614 28.3126 47.1039 28.3152 46.6406C28.3178 46.1773 28.2391 45.7185 28.0843 45.2937C27.9295 44.8688 27.7019 44.4874 27.4161 44.1738C26.8163 43.6314 26.0842 43.3383 25.3317 43.3393C24.5792 43.3403 23.8477 43.6353 23.2489 44.1792C23.5517 43.8341 23.7854 43.4119 23.9327 42.9441C24.08 42.4763 24.1372 41.9749 24.0998 41.4772C24.0625 40.9794 23.9317 40.4981 23.7172 40.069C23.5026 39.6398 23.2098 39.2739 22.8605 38.9984C22.0425 38.3849 21.0826 38.0967 20.1188 38.1751C19.155 38.2535 18.2368 38.6944 17.4961 39.4346C17.9911 38.7185 18.2352 37.8018 18.1773 36.876C18.1194 35.9502 17.764 35.0869 17.1853 34.4665C16.4662 33.6676 15.5497 33.1679 14.573 33.0421C13.5962 32.9162 12.6115 33.171 11.7661 33.7684L8.72747 27.6441C6.62556 23.663 4.15811 19.5183 4.15811 19.5183L14.5762 4.41192C14.5762 4.41192 18.2774 7.1387 21.3389 9.21105C22.8468 10.2472 25.4513 11.6106 27.4161 12.7013C24.309 15.4826 21.7044 18.1549 22.4812 20.0091C23.8655 21.1951 25.5199 21.8493 27.2237 21.8843C28.9275 21.9194 30.5997 21.3337 32.0175 20.2054C33.8353 18.7631 35.9713 17.9981 38.1541 18.0076C39.7397 18.0076 41.2476 18.4003 42.6138 19.1147C45.1452 21.1543 49.806 26.1716 54.0555 29.3347C59.4016 33.9702 60.4526 36.9696 59.1731 38.4966V38.5021Z" fill="#874926"/>
</svg>
