<svg width="61" height="60" viewBox="0 0 61 60" fill="none" xmlns="http://www.w3.org/2000/svg">
<path d="M30.6055 1.875C15.0781 1.875 2.48047 14.4727 2.48047 30C2.48047 45.5391 15.0781 58.125 30.6055 58.125C46.1445 58.125 58.7305 45.5391 58.7305 30C58.7305 14.4609 46.1445 1.875 30.6055 1.875ZM30.6055 8.90625C42.2539 8.90625 51.6992 18.3516 51.6992 30C51.6992 41.6484 42.2539 51.0938 30.6055 51.0938C18.957 51.0938 9.51172 41.6484 9.51172 30C9.51172 18.3516 18.957 8.90625 30.6055 8.90625ZM41.3047 16.4297C40.543 16.4297 39.8398 16.7109 39.3359 17.3906C33.2422 25.6055 31.25 28.6992 26.9141 37.2891C25.9297 35.9883 19.2266 28.8047 15.9102 26.2617C14.2461 24.9844 11.0703 29.4492 12.207 30.6094C17.3164 35.8711 26.3984 47.5781 27.875 47.4609C30.3828 47.2617 36.6758 31.4297 45.3125 20.0742C46.25 18.8555 43.5547 16.4062 41.3047 16.4297Z" fill="#339B31"/>
</svg>
