<svg xmlns="http://www.w3.org/2000/svg" width="60" height="60" viewBox="0 0 60 60" fill="none">
<circle cx="30" cy="30" r="30" fill="white"/>
<circle cx="48" cy="54" r="6" fill="#339B31"/>
<rect x="19.4609" y="23.0859" width="22.2497" height="13.8235" rx="1.5" fill="#D9D9D9" stroke="white"/>
<path d="M9 44V40.7059H12.4598V16H47.0575V40.7059H50.5172V44H9ZM26.2989 40.7059H33.2184V39.0588H26.2989V40.7059Z" fill="black"/>
<path d="M23.9664 29.5722C23.9664 30.9366 22.8512 32.0427 21.4754 32.0427C20.0996 32.0427 18.9844 30.9366 18.9844 29.5722C18.9844 28.2077 20.0996 27.1016 21.4754 27.1016C22.8512 27.1016 23.9664 28.2077 23.9664 29.5722Z" fill="white"/>
<path d="M26.9381 31.6562V27.4262H28.8581C29.3341 27.4262 29.7021 27.5402 29.9621 27.7682C30.2221 27.9922 30.3521 28.3062 30.3521 28.7102C30.3521 28.9742 30.2921 29.2022 30.1721 29.3942C30.0561 29.5822 29.8881 29.7282 29.6681 29.8322C29.4521 29.9322 29.1921 29.9822 28.8881 29.9822L28.9601 29.8502H29.2061C29.3781 29.8502 29.5301 29.8962 29.6621 29.9882C29.7981 30.0802 29.9101 30.2142 29.9981 30.3902L30.6281 31.6562H29.5961L28.9421 30.2942C28.8941 30.1782 28.8181 30.1022 28.7141 30.0662C28.6141 30.0262 28.4981 30.0062 28.3661 30.0062H27.8741V31.6562H26.9381ZM27.8741 29.3342H28.6961C28.9401 29.3342 29.1261 29.2842 29.2541 29.1842C29.3821 29.0842 29.4461 28.9362 29.4461 28.7402C29.4461 28.5442 29.3821 28.3982 29.2541 28.3022C29.1261 28.2022 28.9401 28.1522 28.6961 28.1522H27.8741V29.3342ZM31.1862 31.6562V27.4262H34.1262V28.1522H32.0802V29.1422H33.9822V29.8742H32.0802V30.9302H34.1262V31.6562H31.1862ZM36.824 31.7223C36.372 31.7223 35.984 31.6322 35.66 31.4522C35.336 31.2722 35.086 31.0202 34.91 30.6962C34.738 30.3682 34.652 29.9822 34.652 29.5382C34.652 29.0942 34.738 28.7102 34.91 28.3862C35.086 28.0622 35.336 27.8102 35.66 27.6302C35.984 27.4502 36.372 27.3602 36.824 27.3602C37.116 27.3602 37.382 27.4022 37.622 27.4862C37.862 27.5662 38.066 27.6842 38.234 27.8402L37.94 28.5782C37.756 28.4342 37.58 28.3322 37.412 28.2722C37.248 28.2122 37.062 28.1822 36.854 28.1822C36.458 28.1822 36.154 28.3002 35.942 28.5362C35.734 28.7682 35.63 29.1022 35.63 29.5382C35.63 29.9742 35.734 30.3102 35.942 30.5462C36.154 30.7822 36.458 30.9002 36.854 30.9002C37.062 30.9002 37.248 30.8702 37.412 30.8102C37.58 30.7502 37.756 30.6482 37.94 30.5042L38.234 31.2422C38.066 31.3942 37.862 31.5122 37.622 31.5962C37.382 31.6803 37.116 31.7223 36.824 31.7223Z" fill="white"/>
<path d="M25.8984 38.6875H33.6226V41.1013H25.8984V38.6875Z" fill="white"/>
</svg>