<svg xmlns="http://www.w3.org/2000/svg" width="80" height="54" viewBox="0 0 80 54" fill="none">
<rect x="21" width="38" height="29" rx="2" fill="black"/>
<path d="M28.8217 15.6172C29.2663 15.6172 29.6927 15.7935 30.0071 16.1072C30.3215 16.421 30.4982 16.8465 30.4982 17.2903C30.4982 17.734 30.3215 18.1595 30.0071 18.4733C29.6927 18.7871 29.2663 18.9633 28.8217 18.9633C28.3771 18.9633 27.9506 18.7871 27.6362 18.4733C27.3218 18.1595 27.1452 17.734 27.1452 17.2903C27.1452 16.8465 27.3218 16.421 27.6362 16.1072C27.9506 15.7935 28.3771 15.6172 28.8217 15.6172ZM28.8217 19.7999C30.6742 19.7999 32.1746 20.5486 32.1746 21.473V22.3095H25.4688V21.473C25.4688 20.5486 26.9692 19.7999 28.8217 19.7999Z" fill="#F2F2F2"/>
<line x1="37.1484" y1="12.8828" x2="56.2661" y2="12.8828" stroke="#F2F2F2" stroke-linecap="round"/>
<line x1="43.8555" y1="8.42188" x2="56.2672" y2="8.42188" stroke="#F2F2F2" stroke-linecap="round"/>
<line x1="37.1484" y1="17.3438" x2="56.2661" y2="17.3438" stroke="#F2F2F2" stroke-linecap="round"/>
<line x1="37.1484" y1="21.8047" x2="56.2661" y2="21.8047" stroke="#F2F2F2" stroke-linecap="round"/>
<path d="M39.108 9.70373L39.0191 8.98988C38.9709 8.97129 38.9254 8.94898 38.8827 8.92296C38.84 8.89693 38.7983 8.86905 38.7577 8.8393L38.096 9.11815L37.4844 8.05853L38.0571 7.62353C38.0534 7.59751 38.0515 7.57237 38.0515 7.54813V7.39778C38.0515 7.37354 38.0534 7.34841 38.0571 7.32238L37.4844 6.88738L38.096 5.82776L38.7577 6.10661C38.7985 6.07687 38.8411 6.04898 38.8856 6.02296C38.9301 5.99693 38.9746 5.97462 39.0191 5.95603L39.108 5.24219H40.3313L40.4203 5.95603C40.4685 5.97462 40.5139 5.99693 40.5566 6.02296C40.5993 6.04898 40.641 6.07687 40.6816 6.10661L41.3433 5.82776L41.955 6.88738L41.3822 7.32238C41.3859 7.34841 41.3878 7.37354 41.3878 7.39778V7.54813C41.3878 7.57237 41.3841 7.59751 41.3767 7.62353L41.9494 8.05853L41.3378 9.11815L40.6816 8.8393C40.6408 8.86905 40.5982 8.89693 40.5537 8.92296C40.5093 8.94898 40.4648 8.97129 40.4203 8.98988L40.3313 9.70373H39.108ZM39.7308 8.25373C39.9458 8.25373 40.1293 8.17751 40.2813 8.02507C40.4333 7.87264 40.5093 7.6886 40.5093 7.47296C40.5093 7.25732 40.4333 7.07328 40.2813 6.92084C40.1293 6.76841 39.9458 6.69219 39.7308 6.69219C39.5121 6.69219 39.3276 6.76841 39.1774 6.92084C39.0272 7.07328 38.9522 7.25732 38.9523 7.47296C38.9523 7.6886 39.0274 7.87264 39.1774 8.02507C39.3275 8.17751 39.5119 8.25373 39.7308 8.25373Z" fill="#F2F2F2"/>
<path d="M19.0148 47.165C17.8748 47.165 16.8998 46.94 16.0898 46.49C15.2798 46.04 14.6548 45.41 14.2148 44.6C13.7848 43.78 13.5698 42.815 13.5698 41.705C13.5698 40.875 13.6898 40.13 13.9298 39.47C14.1798 38.8 14.5398 38.23 15.0098 37.76C15.4798 37.28 16.0498 36.91 16.7198 36.65C17.3998 36.39 18.1648 36.26 19.0148 36.26C19.5148 36.26 20.0198 36.325 20.5298 36.455C21.0498 36.575 21.4998 36.75 21.8798 36.98C22.1298 37.12 22.2998 37.295 22.3898 37.505C22.4798 37.715 22.5048 37.925 22.4648 38.135C22.4348 38.345 22.3498 38.525 22.2098 38.675C22.0798 38.825 21.9148 38.92 21.7148 38.96C21.5148 39 21.2898 38.955 21.0398 38.825C20.7398 38.645 20.4248 38.515 20.0948 38.435C19.7648 38.355 19.4298 38.315 19.0898 38.315C18.4198 38.315 17.8548 38.45 17.3948 38.72C16.9448 38.98 16.6048 39.36 16.3748 39.86C16.1448 40.36 16.0298 40.975 16.0298 41.705C16.0298 42.425 16.1448 43.04 16.3748 43.55C16.6048 44.06 16.9448 44.45 17.3948 44.72C17.8548 44.98 18.4198 45.11 19.0898 45.11C19.4098 45.11 19.7348 45.07 20.0648 44.99C20.4048 44.91 20.7298 44.785 21.0398 44.615C21.2998 44.485 21.5298 44.44 21.7298 44.48C21.9398 44.51 22.1098 44.6 22.2398 44.75C22.3798 44.89 22.4648 45.06 22.4948 45.26C22.5348 45.46 22.5148 45.66 22.4348 45.86C22.3548 46.06 22.2048 46.23 21.9848 46.37C21.6148 46.62 21.1598 46.815 20.6198 46.955C20.0798 47.095 19.5448 47.165 19.0148 47.165ZM26.4537 47.165C25.8337 47.165 25.3187 47.05 24.9087 46.82C24.4987 46.59 24.1937 46.245 23.9937 45.785C23.8037 45.315 23.7087 44.735 23.7087 44.045V40.655C23.7087 40.275 23.8037 39.99 23.9937 39.8C24.1937 39.61 24.4737 39.515 24.8337 39.515C25.1937 39.515 25.4737 39.61 25.6737 39.8C25.8737 39.99 25.9737 40.275 25.9737 40.655V44.105C25.9737 44.545 26.0637 44.875 26.2437 45.095C26.4237 45.305 26.7087 45.41 27.0987 45.41C27.5287 45.41 27.8787 45.26 28.1487 44.96C28.4287 44.65 28.5687 44.245 28.5687 43.745V40.655C28.5687 40.275 28.6637 39.99 28.8537 39.8C29.0537 39.61 29.3337 39.515 29.6937 39.515C30.0637 39.515 30.3437 39.61 30.5337 39.8C30.7337 39.99 30.8337 40.275 30.8337 40.655V45.98C30.8337 46.75 30.4687 47.135 29.7387 47.135C29.3787 47.135 29.1037 47.035 28.9137 46.835C28.7237 46.635 28.6287 46.35 28.6287 45.98V44.975L28.8537 45.56C28.6337 46.07 28.3187 46.465 27.9087 46.745C27.4987 47.025 27.0137 47.165 26.4537 47.165ZM35.4063 47.165C34.9663 47.165 34.5113 47.125 34.0413 47.045C33.5813 46.965 33.1613 46.83 32.7813 46.64C32.5813 46.54 32.4363 46.415 32.3463 46.265C32.2663 46.105 32.2313 45.945 32.2413 45.785C32.2513 45.625 32.3013 45.48 32.3913 45.35C32.4913 45.22 32.6163 45.135 32.7663 45.095C32.9263 45.045 33.1013 45.06 33.2913 45.14C33.7013 45.31 34.0763 45.43 34.4163 45.5C34.7563 45.57 35.0913 45.605 35.4213 45.605C35.8513 45.605 36.1613 45.54 36.3513 45.41C36.5513 45.27 36.6513 45.09 36.6513 44.87C36.6513 44.67 36.5863 44.52 36.4563 44.42C36.3263 44.32 36.1363 44.25 35.8863 44.21L34.3113 43.925C33.6913 43.815 33.2113 43.59 32.8713 43.25C32.5413 42.9 32.3763 42.455 32.3763 41.915C32.3763 41.415 32.5163 40.985 32.7963 40.625C33.0763 40.255 33.4613 39.975 33.9513 39.785C34.4513 39.585 35.0163 39.485 35.6463 39.485C36.0963 39.485 36.5113 39.525 36.8913 39.605C37.2713 39.685 37.6363 39.815 37.9863 39.995C38.1663 40.085 38.2913 40.205 38.3613 40.355C38.4413 40.505 38.4663 40.66 38.4363 40.82C38.4163 40.98 38.3563 41.125 38.2563 41.255C38.1563 41.385 38.0263 41.47 37.8663 41.51C37.7163 41.55 37.5413 41.53 37.3413 41.45C37.0213 41.3 36.7263 41.195 36.4563 41.135C36.1863 41.065 35.9263 41.03 35.6763 41.03C35.2263 41.03 34.9013 41.105 34.7013 41.255C34.5013 41.395 34.4013 41.575 34.4013 41.795C34.4013 41.965 34.4563 42.11 34.5663 42.23C34.6863 42.34 34.8663 42.415 35.1063 42.455L36.6813 42.74C37.3313 42.85 37.8263 43.07 38.1663 43.4C38.5063 43.72 38.6763 44.16 38.6763 44.72C38.6763 45.48 38.3763 46.08 37.7763 46.52C37.1863 46.95 36.3963 47.165 35.4063 47.165ZM43.5109 47.165C42.8209 47.165 42.2409 47.05 41.7709 46.82C41.3109 46.59 40.9659 46.255 40.7359 45.815C40.5159 45.375 40.4059 44.82 40.4059 44.15V41.33H39.7759C39.4959 41.33 39.2759 41.255 39.1159 41.105C38.9659 40.955 38.8909 40.75 38.8909 40.49C38.8909 40.21 38.9659 40 39.1159 39.86C39.2759 39.71 39.4959 39.635 39.7759 39.635H40.4059V38.495C40.4059 38.115 40.5059 37.83 40.7059 37.64C40.9059 37.44 41.1859 37.34 41.5459 37.34C41.9159 37.34 42.1959 37.44 42.3859 37.64C42.5759 37.83 42.6709 38.115 42.6709 38.495V39.635H44.0959C44.3759 39.635 44.5909 39.71 44.7409 39.86C44.8909 40 44.9659 40.21 44.9659 40.49C44.9659 40.75 44.8909 40.955 44.7409 41.105C44.5909 41.255 44.3759 41.33 44.0959 41.33H42.6709V44.06C42.6709 44.48 42.7659 44.795 42.9559 45.005C43.1559 45.215 43.4709 45.32 43.9009 45.32C44.0509 45.32 44.1909 45.305 44.3209 45.275C44.4509 45.245 44.5709 45.225 44.6809 45.215C44.8209 45.205 44.9359 45.25 45.0259 45.35C45.1159 45.44 45.1609 45.645 45.1609 45.965C45.1609 46.205 45.1209 46.415 45.0409 46.595C44.9609 46.775 44.8209 46.905 44.6209 46.985C44.4909 47.035 44.3109 47.075 44.0809 47.105C43.8609 47.145 43.6709 47.165 43.5109 47.165ZM49.4271 47.165C48.6371 47.165 47.9471 47.01 47.3571 46.7C46.7771 46.39 46.3271 45.945 46.0071 45.365C45.6871 44.785 45.5271 44.1 45.5271 43.31C45.5271 42.72 45.6171 42.19 45.7971 41.72C45.9771 41.25 46.2371 40.85 46.5771 40.52C46.9271 40.18 47.3421 39.925 47.8221 39.755C48.3021 39.575 48.8371 39.485 49.4271 39.485C50.2171 39.485 50.9021 39.64 51.4821 39.95C52.0721 40.26 52.5271 40.7 52.8471 41.27C53.1771 41.84 53.3421 42.52 53.3421 43.31C53.3421 43.91 53.2471 44.445 53.0571 44.915C52.8771 45.385 52.6171 45.79 52.2771 46.13C51.9371 46.47 51.5221 46.73 51.0321 46.91C50.5521 47.08 50.0171 47.165 49.4271 47.165ZM49.4271 45.47C49.7571 45.47 50.0421 45.39 50.2821 45.23C50.5221 45.07 50.7121 44.835 50.8521 44.525C50.9921 44.205 51.0621 43.8 51.0621 43.31C51.0621 42.58 50.9121 42.045 50.6121 41.705C50.3121 41.355 49.9171 41.18 49.4271 41.18C49.1071 41.18 48.8221 41.255 48.5721 41.405C48.3321 41.555 48.1421 41.79 48.0021 42.11C47.8721 42.42 47.8071 42.82 47.8071 43.31C47.8071 44.04 47.9571 44.585 48.2571 44.945C48.5571 45.295 48.9471 45.47 49.4271 45.47ZM55.8901 47.135C55.5201 47.135 55.2351 47.035 55.0351 46.835C54.8451 46.635 54.7501 46.35 54.7501 45.98V40.655C54.7501 40.285 54.8451 40.005 55.0351 39.815C55.2351 39.615 55.5101 39.515 55.8601 39.515C56.2201 39.515 56.4951 39.615 56.6851 39.815C56.8751 40.005 56.9701 40.285 56.9701 40.655V41.615L56.8051 41.015C57.0051 40.555 57.3151 40.185 57.7351 39.905C58.1551 39.625 58.6501 39.485 59.2201 39.485C59.7901 39.485 60.2651 39.62 60.6451 39.89C61.0251 40.16 61.2951 40.575 61.4551 41.135H61.2451C61.4651 40.625 61.8001 40.225 62.2501 39.935C62.7101 39.635 63.2351 39.485 63.8251 39.485C64.3951 39.485 64.8601 39.6 65.2201 39.83C65.5901 40.05 65.8651 40.39 66.0451 40.85C66.2251 41.3 66.3151 41.875 66.3151 42.575V45.98C66.3151 46.35 66.2151 46.635 66.0151 46.835C65.8251 47.035 65.5501 47.135 65.1901 47.135C64.8201 47.135 64.5351 47.035 64.3351 46.835C64.1451 46.635 64.0501 46.35 64.0501 45.98V42.65C64.0501 42.16 63.9701 41.805 63.8101 41.585C63.6601 41.355 63.4001 41.24 63.0301 41.24C62.6001 41.24 62.2651 41.39 62.0251 41.69C61.7851 41.99 61.6651 42.415 61.6651 42.965V45.98C61.6651 46.35 61.5651 46.635 61.3651 46.835C61.1751 47.035 60.9001 47.135 60.5401 47.135C60.1801 47.135 59.9001 47.035 59.7001 46.835C59.5001 46.635 59.4001 46.35 59.4001 45.98V42.65C59.4001 42.16 59.3201 41.805 59.1601 41.585C59.0101 41.355 58.7501 41.24 58.3801 41.24C57.9501 41.24 57.6151 41.39 57.3751 41.69C57.1351 41.99 57.0151 42.415 57.0151 42.965V45.98C57.0151 46.75 56.6401 47.135 55.8901 47.135Z" fill="black"/>
</svg>