<svg xmlns="http://www.w3.org/2000/svg" width="60" height="60" viewBox="0 0 60 60" fill="none">
<circle cx="30" cy="30" r="30" fill="white"/>
<circle cx="49" cy="52" r="6" fill="#D33325"/>
<path d="M36.1 38.6667V42H13V38.6667C13 38.6667 13 32 24.55 32C36.1 32 36.1 38.6667 36.1 38.6667ZM30.325 22.8334C30.325 21.6797 29.9863 20.5519 29.3517 19.5926C28.7172 18.6333 27.8152 17.8856 26.76 17.4441C25.7048 17.0026 24.5436 16.8871 23.4234 17.1122C22.3031 17.3373 21.2741 17.8928 20.4665 18.7086C19.6588 19.5244 19.1088 20.5638 18.886 21.6954C18.6631 22.8269 18.7775 23.9998 19.2146 25.0657C19.6517 26.1316 20.3919 27.0427 21.3416 27.6836C22.2913 28.3246 23.4078 28.6667 24.55 28.6667C26.0816 28.6667 27.5505 28.0521 28.6335 26.9582C29.7166 25.8642 30.325 24.3805 30.325 22.8334ZM36.001 32C37.0153 32.7929 37.8453 33.8007 38.4326 34.9525C39.0198 36.1043 39.35 37.3721 39.4 38.6667V42H46V38.6667C46 38.6667 46 32.6167 36.001 32ZM34.45 17.0001C33.3143 16.9937 32.2036 17.3367 31.2655 17.9834C32.2678 19.398 32.8067 21.0939 32.8067 22.8334C32.8067 24.5729 32.2678 26.2688 31.2655 27.6834C32.2036 28.3301 33.3143 28.6731 34.45 28.6667C35.9816 28.6667 37.4505 28.0521 38.5335 26.9582C39.6166 25.8642 40.225 24.3805 40.225 22.8334C40.225 21.2863 39.6166 19.8026 38.5335 18.7086C37.4505 17.6147 35.9816 17.0001 34.45 17.0001Z" fill="black"/>
</svg>