<svg xmlns="http://www.w3.org/2000/svg" width="60" height="60" viewBox="0 0 60 60" fill="none">
<circle cx="30" cy="30" r="30" fill="white"/>
<path d="M30 17C31.5471 17 33.0308 17.6103 34.1248 18.6968C35.2188 19.7832 35.8333 21.2567 35.8333 22.7931C35.8333 24.3295 35.2188 25.803 34.1248 26.8894C33.0308 27.9759 31.5471 28.5862 30 28.5862C28.4529 28.5862 26.9692 27.9759 25.8752 26.8894C24.7812 25.803 24.1667 24.3295 24.1667 22.7931C24.1667 21.2567 24.7812 19.7832 25.8752 18.6968C26.9692 17.6103 28.4529 17 30 17ZM18.3333 21.1379C19.2667 21.1379 20.1333 21.3862 20.8833 21.8331C20.6333 24.2 21.3333 26.5503 22.7667 28.3876C21.9333 29.9766 20.2667 31.069 18.3333 31.069C17.0073 31.069 15.7355 30.5458 14.7978 29.6146C13.8601 28.6834 13.3333 27.4204 13.3333 26.1034C13.3333 24.7865 13.8601 23.5235 14.7978 22.5923C15.7355 21.6611 17.0073 21.1379 18.3333 21.1379ZM41.6667 21.1379C42.9927 21.1379 44.2645 21.6611 45.2022 22.5923C46.1399 23.5235 46.6667 24.7865 46.6667 26.1034C46.6667 27.4204 46.1399 28.6834 45.2022 29.6146C44.2645 30.5458 42.9927 31.069 41.6667 31.069C39.7333 31.069 38.0667 29.9766 37.2333 28.3876C38.6667 26.5503 39.3667 24.2 39.1167 21.8331C39.8667 21.3862 40.7333 21.1379 41.6667 21.1379ZM19.1667 38.1034C19.1667 34.6772 24.0167 31.8966 30 31.8966C35.9833 31.8966 40.8333 34.6772 40.8333 38.1034V41H19.1667V38.1034ZM10 41V38.5172C10 36.2166 13.15 34.28 17.4167 33.7172C16.4333 34.8428 15.8333 36.3986 15.8333 38.1034V41H10ZM50 41H44.1667V38.1034C44.1667 36.3986 43.5667 34.8428 42.5833 33.7172C46.85 34.28 50 36.2166 50 38.5172V41Z" fill="black"/>
<circle cx="49" cy="53" r="6" fill="#D33325"/>
</svg>