<svg width="50" height="50" viewBox="0 0 50 50" fill="none" xmlns="http://www.w3.org/2000/svg">
<path d="M20.6667 18.9922H18C17.4477 18.9922 17 19.4397 17 19.9918V22.6576C17 23.2097 17.4477 23.6572 18 23.6572H20.6667C21.219 23.6572 21.6667 23.2097 21.6667 22.6576V19.9918C21.6667 19.4397 21.219 18.9922 20.6667 18.9922ZM21 22.6576C21 22.8416 20.8508 22.9908 20.6667 22.9908H18C17.8159 22.9908 17.6667 22.8416 17.6667 22.6576V19.9918C17.6667 19.8078 17.8159 19.6586 18 19.6586H20.6667C20.8508 19.6586 21 19.8078 21 19.9918V22.6576Z" fill="black"/>
<path d="M21.8067 9.3989L21.6667 9.49886V9.33559C21.6667 8.7835 21.219 8.33594 20.6667 8.33594H18C17.4477 8.33594 17 8.7835 17 9.33559V12.0013C17 12.5534 17.4477 13.001 18 13.001H20.6667C21.219 13.001 21.6667 12.5534 21.6667 12.0013V10.3152L22.1933 9.93871C22.3017 9.87452 22.3647 9.75471 22.356 9.62906C22.3473 9.5034 22.2685 9.39337 22.1523 9.34469C22.0361 9.296 21.9024 9.31697 21.8067 9.3989ZM21 12.0013C21 12.1853 20.8508 12.3345 20.6667 12.3345H18C17.8159 12.3345 17.6667 12.1853 17.6667 12.0013V9.33559C17.6667 9.15156 17.8159 9.00237 18 9.00237H20.6667C20.8508 9.00237 21 9.15156 21 9.33559V9.97203L19.79 10.8384L19.63 10.5052C19.54 10.3556 19.3498 10.3009 19.194 10.3796C19.0382 10.4584 18.9695 10.644 19.0367 10.8051L19.37 11.4715C19.4141 11.5577 19.4935 11.6205 19.5875 11.6435C19.6816 11.6666 19.7811 11.6476 19.86 11.5915L21 10.7917V12.0013Z" fill="black"/>
<path d="M21.8067 14.727L21.6667 14.827V14.6637C21.6667 14.1116 21.219 13.6641 20.6667 13.6641H18C17.4477 13.6641 17 14.1116 17 14.6637V17.3294C17 17.8815 17.4477 18.3291 18 18.3291H20.6667C21.219 18.3291 21.6667 17.8815 21.6667 17.3294V15.6434L22.1933 15.2668C22.3017 15.2026 22.3647 15.0828 22.356 14.9572C22.3473 14.8315 22.2685 14.7215 22.1523 14.6728C22.0361 14.6241 21.9024 14.6451 21.8067 14.727ZM21 17.3294C21 17.5135 20.8508 17.6627 20.6667 17.6627H18C17.8159 17.6627 17.6667 17.5135 17.6667 17.3294V14.6637C17.6667 14.4797 17.8159 14.3305 18 14.3305H20.6667C20.8508 14.3305 21 14.4797 21 14.6637V15.3002L19.79 16.1665L19.63 15.8333C19.582 15.718 19.4735 15.6392 19.3489 15.6292C19.2244 15.6193 19.1047 15.6798 19.0389 15.7859C18.9731 15.8921 18.9722 16.0262 19.0367 16.1332L19.37 16.7996C19.4141 16.8858 19.4935 16.9486 19.5875 16.9717C19.6816 16.9947 19.7811 16.9757 19.86 16.9196L21 16.1199V17.3294Z" fill="black"/>
<path d="M23.6709 9.66643H29.3375C29.5216 9.66643 29.6709 9.51725 29.6709 9.33322C29.6709 9.14919 29.5216 9 29.3375 9H23.6709C23.4868 9 23.3375 9.14919 23.3375 9.33322C23.3375 9.51725 23.4868 9.66643 23.6709 9.66643Z" fill="black"/>
<path d="M23.6709 11.6625H26.3375C26.5216 11.6625 26.6709 11.5133 26.6709 11.3293C26.6709 11.1453 26.5216 10.9961 26.3375 10.9961H23.6709C23.4868 10.9961 23.3375 11.1453 23.3375 11.3293C23.3375 11.5133 23.4868 11.6625 23.6709 11.6625Z" fill="black"/>
<path d="M23.6709 14.9946H29.3375C29.5216 14.9946 29.6709 14.8454 29.6709 14.6613C29.6709 14.4773 29.5216 14.3281 29.3375 14.3281H23.6709C23.4868 14.3281 23.3375 14.4773 23.3375 14.6613C23.3375 14.8454 23.4868 14.9946 23.6709 14.9946Z" fill="black"/>
<path d="M23.6709 16.9946H26.3375C26.5216 16.9946 26.6709 16.8454 26.6709 16.6613C26.6709 16.4773 26.5216 16.3281 26.3375 16.3281H23.6709C23.4868 16.3281 23.3375 16.4773 23.3375 16.6613C23.3375 16.8454 23.4868 16.9946 23.6709 16.9946Z" fill="black"/>
<path d="M34.3333 20.9944H33.6067C33.4214 20.4765 32.8524 20.2055 32.3333 20.3879V19.9947C32.3321 19.5721 32.0652 19.1959 31.6667 19.0551V7.33251C31.6667 6.59639 31.0697 5.99965 30.3333 5.99965H27.3333V5.66643C27.3333 5.29837 27.0349 5 26.6667 5H20C19.6318 5 19.3333 5.29837 19.3333 5.66643V5.99965H16.3333C15.597 5.99965 15 6.59639 15 7.33251V23.6601C15 24.3962 15.597 24.993 16.3333 24.993C31.6467 24.993 30.5 25.043 30.8733 24.8763C31.1826 25.0365 31.553 25.0243 31.851 24.844C32.149 24.6638 32.3317 24.3415 32.3333 23.9933V23.6001C32.8524 23.7826 33.4214 23.5116 33.6067 22.9937H34.3333C34.7015 22.9937 35 22.6953 35 22.3272V21.6608C35 21.2927 34.7015 20.9944 34.3333 20.9944ZM20 5.66643H26.6667V6.9993H20V5.66643ZM15.6667 23.6601V7.33251C15.6667 6.96445 15.9651 6.66608 16.3333 6.66608H19.3333V6.9993C19.3333 7.36736 19.6318 7.66573 20 7.66573H26.6667C27.0349 7.66573 27.3333 7.36736 27.3333 6.9993V6.66608H30.3333C30.7015 6.66608 31 6.96445 31 7.33251V19.0551C30.6014 19.1959 30.3345 19.5721 30.3333 19.9947V20.9944H27.6667V19.9947C27.6667 19.4426 27.219 18.9951 26.6667 18.9951C26.1144 18.9951 25.6667 19.4426 25.6667 19.9947V20.3879C25.1476 20.2055 24.5786 20.4765 24.3933 20.9944H23.6667C23.2985 20.9944 23 21.2927 23 21.6608V22.3272C23 22.6953 23.2985 22.9937 23.6667 22.9937H24.3933C24.5786 23.5116 25.1476 23.7826 25.6667 23.6001C25.642 23.8439 25.6623 24.0901 25.7267 24.3265H16.3333C15.9651 24.3265 15.6667 24.0282 15.6667 23.6601ZM23.6667 22.3272V21.6608H24.3333V22.3272H23.6667ZM25 21.3276C25 21.1436 25.1492 20.9944 25.3333 20.9944C25.5174 20.9944 25.6667 21.1436 25.6667 21.3276V22.6605C25.6667 22.8445 25.5174 22.9937 25.3333 22.9937C25.1492 22.9937 25 22.8445 25 22.6605V21.3276ZM26.3333 23.9933V19.9947C26.3333 19.8107 26.4826 19.6615 26.6667 19.6615C26.8508 19.6615 27 19.8107 27 19.9947V23.9933C27 24.1774 26.8508 24.3265 26.6667 24.3265C26.4826 24.3265 26.3333 24.1774 26.3333 23.9933ZM27.6667 21.6608H30.3333V22.3272H27.6667V21.6608ZM27.6067 24.3265C27.6867 24.1 27.6667 24.0733 27.6667 22.9937H30.3333C30.3333 23.9933 30.31 24.08 30.3933 24.3265C30.2567 24.3265 30.8533 24.3265 27.6067 24.3265ZM31.6667 23.9933C31.6667 24.1774 31.5174 24.3265 31.3333 24.3265C31.1492 24.3265 31 24.1774 31 23.9933V19.9947C31 19.8107 31.1492 19.6615 31.3333 19.6615C31.5174 19.6615 31.6667 19.8107 31.6667 19.9947V23.9933ZM32.6667 22.9937C32.4826 22.9937 32.3333 22.8445 32.3333 22.6605V21.3276C32.3333 21.1436 32.4826 20.9944 32.6667 20.9944C32.8508 20.9944 33 21.1436 33 21.3276V22.6605C33 22.8445 32.8508 22.9937 32.6667 22.9937ZM34.3333 22.3272H33.6667V21.6608H34.3333V22.3272Z" fill="black"/>
<path d="M6.41699 42.09C5.71699 42.09 5.10366 41.94 4.57699 41.64C4.05699 41.34 3.65699 40.9167 3.37699 40.37C3.09699 39.8167 2.95699 39.17 2.95699 38.43C2.95699 37.6967 3.09699 37.0567 3.37699 36.51C3.65699 35.9567 4.05699 35.5333 4.57699 35.24C5.10366 34.94 5.71699 34.79 6.41699 34.79C6.89699 34.79 7.34699 34.8667 7.76699 35.02C8.19366 35.1667 8.54699 35.3733 8.82699 35.64L8.40699 36.58C8.08699 36.32 7.76699 36.1333 7.44699 36.02C7.13366 35.9 6.79699 35.84 6.43699 35.84C5.75033 35.84 5.21699 36.0633 4.83699 36.51C4.46366 36.9567 4.27699 37.5967 4.27699 38.43C4.27699 39.27 4.46366 39.9167 4.83699 40.37C5.21033 40.8167 5.74366 41.04 6.43699 41.04C6.79699 41.04 7.13366 40.9833 7.44699 40.87C7.76699 40.75 8.08699 40.56 8.40699 40.3L8.82699 41.24C8.54699 41.5067 8.19366 41.7167 7.76699 41.87C7.34699 42.0167 6.89699 42.09 6.41699 42.09ZM13.4727 42.09C12.4927 42.09 11.7494 41.84 11.2427 41.34C10.7427 40.8333 10.4927 40.0933 10.4927 39.12V34.88H11.7627V39.19C11.7627 39.8033 11.906 40.27 12.1927 40.59C12.4794 40.9033 12.906 41.06 13.4727 41.06C14.026 41.06 14.446 40.9 14.7327 40.58C15.026 40.26 15.1727 39.7967 15.1727 39.19V34.88H16.4427V39.12C16.4427 40.0867 16.1894 40.8233 15.6827 41.33C15.176 41.8367 14.4394 42.09 13.4727 42.09ZM20.845 42.09C20.2984 42.09 19.785 42.0167 19.305 41.87C18.8317 41.7233 18.4284 41.5133 18.095 41.24L18.535 40.3C18.8817 40.56 19.2417 40.7533 19.615 40.88C19.995 41 20.4084 41.06 20.855 41.06C21.3484 41.06 21.7284 40.9733 21.995 40.8C22.2684 40.6267 22.405 40.3833 22.405 40.07C22.405 39.8033 22.2784 39.6 22.025 39.46C21.7784 39.3133 21.3684 39.1767 20.795 39.05C19.9017 38.8567 19.2517 38.6067 18.845 38.3C18.4384 37.9933 18.235 37.5467 18.235 36.96C18.235 36.54 18.3484 36.1667 18.575 35.84C18.8017 35.5133 19.1217 35.2567 19.535 35.07C19.955 34.8833 20.4384 34.79 20.985 34.79C21.485 34.79 21.9584 34.8667 22.405 35.02C22.8584 35.1667 23.2284 35.3733 23.515 35.64L23.085 36.58C22.4517 36.0733 21.7517 35.82 20.985 35.82C20.525 35.82 20.1617 35.9167 19.895 36.11C19.6284 36.2967 19.495 36.5533 19.495 36.88C19.495 37.16 19.6117 37.3733 19.845 37.52C20.085 37.6667 20.4917 37.8033 21.065 37.93C21.6584 38.07 22.1417 38.2233 22.515 38.39C22.8884 38.55 23.175 38.76 23.375 39.02C23.575 39.2733 23.675 39.5933 23.675 39.98C23.675 40.4067 23.5617 40.78 23.335 41.1C23.1084 41.4133 22.7817 41.6567 22.355 41.83C21.9284 42.0033 21.425 42.09 20.845 42.09ZM26.8941 35.94H24.5741V34.88H30.5241V35.94H28.1941V42H26.8941V35.94ZM34.6556 42.09C33.9689 42.09 33.3689 41.9433 32.8556 41.65C32.3489 41.35 31.9556 40.9267 31.6756 40.38C31.4023 39.8267 31.2656 39.1767 31.2656 38.43C31.2656 37.69 31.4023 37.0467 31.6756 36.5C31.9489 35.9467 32.3389 35.5233 32.8456 35.23C33.3589 34.9367 33.9623 34.79 34.6556 34.79C35.3489 34.79 35.9489 34.9367 36.4556 35.23C36.9689 35.5233 37.3589 35.9467 37.6256 36.5C37.8989 37.0467 38.0356 37.69 38.0356 38.43C38.0356 39.1767 37.8989 39.8267 37.6256 40.38C37.3523 40.9267 36.9623 41.35 36.4556 41.65C35.9489 41.9433 35.3489 42.09 34.6556 42.09ZM34.6556 41.06C35.3156 41.06 35.8289 40.8333 36.1956 40.38C36.5623 39.9267 36.7456 39.2767 36.7456 38.43C36.7456 37.59 36.5623 36.9467 36.1956 36.5C35.8289 36.0467 35.3156 35.82 34.6556 35.82C33.9956 35.82 33.4823 36.0433 33.1156 36.49C32.7489 36.9367 32.5656 37.5833 32.5656 38.43C32.5656 39.2767 32.7489 39.9267 33.1156 40.38C33.4823 40.8333 33.9956 41.06 34.6556 41.06ZM46.7969 34.88V42H45.6569V37.58L43.7669 42H42.9169L41.0169 37.63V42H39.8769V34.88H40.8969L43.3469 40.45L45.7769 34.88H46.7969Z" fill="black"/>
</svg>
