<svg width="24" height="24" viewBox="0 0 10 12" fill="none" xmlns="http://www.w3.org/2000/svg">
<path d="M0.661 10.6257C0.662055 10.9757 0.80157 11.3111 1.04908 11.5586C1.29658 11.8061 1.63197 11.9456 1.982 11.9467H7.267C7.61703 11.9456 7.95242 11.8061 8.19992 11.5586C8.44743 11.3111 8.58694 10.9757 8.588 10.6257V2.69769H0.661V10.6257ZM2.286 5.92569L3.218 4.99369L4.625 6.39369L6.025 4.99369L6.957 5.92569L5.557 7.32569L6.957 8.72569L6.025 9.65769L4.625 8.25769L3.225 9.65769L2.293 8.72569L3.693 7.32569L2.286 5.92569ZM6.937 0.719687L6.276 0.0546875H2.976L2.315 0.715687H0V2.03669H9.25V0.715687L6.937 0.719687Z" fill="#D85B5B"/>
</svg>
