<svg xmlns="http://www.w3.org/2000/svg" width="14" height="9" viewBox="0 0 14 9" fill="none">
<path d="M6.70768 8.04199C7.04102 8.04199 7.37435 7.87533 7.54102 7.70866L13.041 2.20866C13.541 1.70866 13.541 0.875325 13.041 0.375325C12.541 -0.124675 11.7077 -0.124675 11.2077 0.375325L6.70768 4.87533L2.20768 0.375325C1.70768 -0.124675 0.874349 -0.124675 0.374349 0.375325C-0.125651 0.875325 -0.125651 1.70866 0.374349 2.20866L5.70768 7.54199C6.04102 7.87533 6.37435 8.04199 6.70768 8.04199Z" fill="#F2F2F2"/>
<path d="M6.70768 8.04199C7.04102 8.04199 7.37435 7.87533 7.54102 7.70866L13.041 2.20866C13.541 1.70866 13.541 0.875325 13.041 0.375325C12.541 -0.124675 11.7077 -0.124675 11.2077 0.375325L6.70768 4.87533L2.20768 0.375325C1.70768 -0.124675 0.874349 -0.124675 0.374349 0.375325C-0.125651 0.875325 -0.125651 1.70866 0.374349 2.20866L5.70768 7.54199C6.04102 7.87533 6.37435 8.04199 6.70768 8.04199Z" fill="#F2F2F2"/>
<path d="M6.70768 8.04199C7.04102 8.04199 7.37435 7.87533 7.54102 7.70866L13.041 2.20866C13.541 1.70866 13.541 0.875325 13.041 0.375325C12.541 -0.124675 11.7077 -0.124675 11.2077 0.375325L6.70768 4.87533L2.20768 0.375325C1.70768 -0.124675 0.874349 -0.124675 0.374349 0.375325C-0.125651 0.875325 -0.125651 1.70866 0.374349 2.20866L5.70768 7.54199C6.04102 7.87533 6.37435 8.04199 6.70768 8.04199Z" fill="#F2F2F2"/>
</svg>