<svg width="100" height="101" viewBox="0 0 100 101" fill="none" xmlns="http://www.w3.org/2000/svg">
<path d="M79.0493 4.07932L49.9993 33.1309C40.3165 23.4512 30.6306 13.7621 20.9462 4.07932C9.7431 -7.1238 -7.62253 10.2481 3.57122 21.4543C13.2572 31.1309 22.9462 40.8215 32.6212 50.5043C22.9418 60.1916 13.2585 69.8749 3.57122 79.5543C-7.62253 90.7543 9.74466 108.122 20.9462 96.9293C30.629 87.2434 40.315 77.5559 49.9978 67.8762L79.0478 96.9293C90.2509 108.129 107.621 90.7559 96.4228 79.5543C86.7368 69.8684 77.054 60.1856 67.365 50.5012C77.0525 40.8153 86.7353 31.1293 96.4228 21.4449C107.623 10.2481 90.2525 -7.1238 79.0478 4.08557" fill="#EC1C24"/>
</svg>
