<svg width="101" height="101" viewBox="0 0 101 101" fill="none" xmlns="http://www.w3.org/2000/svg">
<g filter="url(#filter0_d_2012_779)">
<circle cx="50.4766" cy="46.5" r="30" fill="white"/>
</g>
<path d="M62.6732 29.8047H38.2809C35.7959 29.8047 33.7812 31.8192 33.7812 34.3043V58.6966C33.7812 61.1817 35.7958 63.1962 38.2809 63.1962H50.3111L50.3316 51.2639H47.2315C46.8287 51.2639 46.5017 50.9381 46.5001 50.5353L46.4853 46.689C46.4837 46.2839 46.8117 45.9547 47.2168 45.9547H50.3112V42.2382C50.3112 37.9253 52.9453 35.5769 56.7927 35.5769H59.9499C60.3538 35.5769 60.6813 35.9043 60.6813 36.3083V39.5515C60.6813 39.9554 60.354 40.2828 59.9503 40.283L58.0128 40.2839C55.9204 40.2839 55.5152 41.2782 55.5152 42.7373V45.9548H60.1129C60.551 45.9548 60.8909 46.3373 60.8392 46.7724L60.3834 50.6187C60.3397 50.9867 60.0276 51.2641 59.657 51.2641H55.5357L55.5152 63.1964H62.6734C65.1584 63.1964 67.173 61.1819 67.173 58.6969V34.3043C67.1729 31.8192 65.1584 29.8047 62.6732 29.8047Z" fill="#475993"/>
<defs>
<filter id="filter0_d_2012_779" x="0.476562" y="0.5" width="100" height="100" filterUnits="userSpaceOnUse" color-interpolation-filters="sRGB">
<feFlood flood-opacity="0" result="BackgroundImageFix"/>
<feColorMatrix in="SourceAlpha" type="matrix" values="0 0 0 0 0 0 0 0 0 0 0 0 0 0 0 0 0 0 127 0" result="hardAlpha"/>
<feOffset dy="4"/>
<feGaussianBlur stdDeviation="10"/>
<feColorMatrix type="matrix" values="0 0 0 0 0 0 0 0 0 0 0 0 0 0 0 0 0 0 0.1 0"/>
<feBlend mode="normal" in2="BackgroundImageFix" result="effect1_dropShadow_2012_779"/>
<feBlend mode="normal" in="SourceGraphic" in2="effect1_dropShadow_2012_779" result="shape"/>
</filter>
</defs>
</svg>
