<svg width="25" height="25" viewBox="0 0 25 25" fill="none" xmlns="http://www.w3.org/2000/svg">
<path d="M3.57031 4.07595C3.57031 3.17417 3.94656 2.30932 4.61628 1.67167C5.28601 1.03401 6.19435 0.675781 7.14148 0.675781C8.08862 0.675781 8.99696 1.03401 9.66668 1.67167C10.3364 2.30932 10.7127 3.17417 10.7127 4.07595C10.7127 4.97773 10.3364 5.84257 9.66668 6.48023C8.99696 7.11788 8.08862 7.47611 7.14148 7.47611C6.19435 7.47611 5.28601 7.11788 4.61628 6.48023C3.94656 5.84257 3.57031 4.97773 3.57031 4.07595ZM7.14148 2.37586C6.66792 2.37586 6.21375 2.55498 5.87888 2.87381C5.54402 3.19263 5.3559 3.62506 5.3559 4.07595C5.3559 4.52684 5.54402 4.95926 5.87888 5.27809C6.21375 5.59691 6.66792 5.77603 7.14148 5.77603C7.61505 5.77603 8.06922 5.59691 8.40408 5.27809C8.73895 4.95926 8.92707 4.52684 8.92707 4.07595C8.92707 3.62506 8.73895 3.19263 8.40408 2.87381C8.06922 2.55498 7.61505 2.37586 7.14148 2.37586Z" fill="#F2F2F2"/>
<path d="M15.6749 6.77551C15.3008 6.50382 14.9867 6.16443 14.7508 5.77684C14.5149 5.38925 14.3618 4.96109 14.3002 4.51698C14.2387 4.07286 14.2699 3.62154 14.3921 3.18894C14.5143 2.75635 14.7251 2.35101 15.0123 1.99621C15.2995 1.64142 15.6576 1.34416 16.0659 1.12153C16.4741 0.898891 16.9246 0.755264 17.3914 0.698898C17.8581 0.642533 18.332 0.67454 18.7857 0.79308C19.2394 0.911621 19.6641 1.11436 20.0353 1.38964C20.7661 1.94626 21.2382 2.75378 21.3501 3.63846C21.4619 4.52314 21.2045 5.41427 20.6333 6.12012C20.0621 6.82596 19.2227 7.2901 18.2957 7.41267C17.3687 7.53524 16.4283 7.30644 15.6766 6.77551H15.6749ZM17.8551 2.38249C17.3815 2.38249 16.9273 2.56161 16.5925 2.88043C16.2576 3.19926 16.0695 3.63168 16.0695 4.08257C16.0695 4.53346 16.2576 4.96589 16.5925 5.28471C16.9273 5.60354 17.3815 5.78266 17.8551 5.78266C18.3286 5.78266 18.7828 5.60354 19.1177 5.28471C19.4525 4.96589 19.6406 4.53346 19.6406 4.08257C19.6406 3.63168 19.4525 3.19926 19.1177 2.88043C18.7828 2.56161 18.3286 2.38249 17.8551 2.38249Z" fill="#F2F2F2"/>
<path d="M2.67838 9.18359H7.44589C7.24948 9.71572 7.14234 10.2886 7.14234 10.8837H2.67838C2.44159 10.8837 2.21451 10.9732 2.04708 11.1326C1.87965 11.2921 1.78559 11.5083 1.78559 11.7337C1.78559 13.1227 2.3659 14.1529 3.28191 14.8534C3.7033 15.1764 4.20863 15.4365 4.78001 15.6269C4.36041 16.0516 4.03707 16.5539 3.83008 17.1026C3.23072 16.8733 2.66954 16.5624 2.16413 16.1794C0.821369 15.1509 0 13.631 0 11.7337C0 11.0574 0.282186 10.4087 0.784479 9.93051C1.28677 9.45227 1.96803 9.18359 2.67838 9.18359Z" fill="#F2F2F2"/>
<path d="M9.40792 9.18196C8.93435 9.96335 8.8062 10.8919 9.05165 11.7632C9.2971 12.6346 9.89606 13.3774 10.7167 13.8283C11.5374 14.2792 12.5126 14.4012 13.4278 14.1675C14.343 13.9338 15.1232 13.3635 15.5968 12.5821C16.0703 11.8007 16.1985 10.8722 15.953 10.0009C15.7076 9.12952 15.1086 8.38669 14.2879 7.9358C13.4672 7.48491 12.492 7.36289 11.5769 7.59659C10.6617 7.83029 9.88148 8.40057 9.40792 9.18196ZM12.1006 9.22446C12.3622 9.16819 12.6338 9.16859 12.8952 9.22562C13.1566 9.28266 13.4013 9.39487 13.6111 9.55398C13.8209 9.71309 13.9904 9.91503 14.1073 10.1449C14.2241 10.3748 14.2852 10.6267 14.2861 10.882C14.286 11.2019 14.1911 11.5153 14.0123 11.7861C13.8335 12.0569 13.5781 12.2742 13.2754 12.413C12.9727 12.5518 12.635 12.6065 12.3012 12.5708C11.9673 12.5351 11.6508 12.4104 11.388 12.2111C11.1252 12.0118 10.9268 11.746 10.8156 11.4441C10.7044 11.1423 10.6849 10.8167 10.7593 10.5048C10.8337 10.1928 10.9991 9.90721 11.2363 9.68074C11.4736 9.45426 11.7732 9.29611 12.1006 9.22446Z" fill="#F2F2F2"/>
<path d="M21.7187 14.8534C21.2973 15.1764 20.792 15.4365 20.2206 15.6269C20.6395 16.0517 20.9623 16.554 21.1687 17.1026C21.7758 16.8663 22.3383 16.5586 22.8365 16.1794C24.1792 15.1509 25.0006 13.631 25.0006 11.7337C25.0006 11.0574 24.7184 10.4087 24.2161 9.93051C23.7138 9.45227 23.0326 9.18359 22.3222 9.18359H17.5547C17.7511 9.71572 17.8582 10.2886 17.8582 10.8837H22.3222C22.559 10.8837 22.7861 10.9732 22.9535 11.1326C23.1209 11.2921 23.215 11.5083 23.215 11.7337C23.215 13.1227 22.6347 14.1529 21.7187 14.8534Z" fill="#F2F2F2"/>
<path d="M16.9657 15.9844C17.676 15.9844 18.3573 16.2531 18.8596 16.7313C19.3619 17.2095 19.6441 17.8582 19.6441 18.5345C19.6441 20.4318 18.8245 21.9517 17.4799 22.9802C16.1568 23.9918 14.3819 24.4848 12.5017 24.4848C10.6215 24.4848 8.84663 23.9918 7.52351 22.9802C6.18075 21.9517 5.35938 20.4318 5.35938 18.5345C5.35844 18.1994 5.42708 17.8674 5.56134 17.5576C5.69561 17.2478 5.89286 16.9663 6.14176 16.7293C6.39066 16.4923 6.6863 16.3045 7.01168 16.1767C7.33706 16.0488 7.68577 15.9835 8.03776 15.9844H16.9657ZM16.9657 17.6845H8.03776C7.80098 17.6845 7.57389 17.774 7.40646 17.9334C7.23903 18.0929 7.14497 18.3091 7.14497 18.5345C7.14497 19.9235 7.72528 20.9537 8.64129 21.6542C9.58051 22.3716 10.9304 22.7847 12.5017 22.7847C14.073 22.7847 15.4229 22.3716 16.3622 21.6542C17.2782 20.9537 17.8585 19.9235 17.8585 18.5345C17.8585 18.3091 17.7644 18.0929 17.597 17.9334C17.4296 17.774 17.2025 17.6845 16.9657 17.6845Z" fill="#F2F2F2"/>
</svg>
