<svg width="50" height="50" viewBox="0 0 50 50" fill="none" xmlns="http://www.w3.org/2000/svg">
<path d="M17.8563 9.86395C17.8563 9.10646 18.1573 8.37999 18.693 7.84436C19.2288 7.30873 19.9555 7.00781 20.7132 7.00781C21.4709 7.00781 22.1976 7.30873 22.7334 7.84436C23.2691 8.37999 23.5701 9.10646 23.5701 9.86395C23.5701 10.6214 23.2691 11.3479 22.7334 11.8835C22.1976 12.4192 21.4709 12.7201 20.7132 12.7201C19.9555 12.7201 19.2288 12.4192 18.693 11.8835C18.1573 11.3479 17.8563 10.6214 17.8563 9.86395V9.86395ZM20.7132 8.43588C20.3343 8.43588 19.971 8.58634 19.7031 8.85415C19.4352 9.12197 19.2847 9.4852 19.2847 9.86395C19.2847 10.2427 19.4352 10.6059 19.7031 10.8737C19.971 11.1416 20.3343 11.292 20.7132 11.292C21.0921 11.292 21.4554 11.1416 21.7233 10.8737C21.9912 10.6059 22.1417 10.2427 22.1417 9.86395C22.1417 9.4852 21.9912 9.12197 21.7233 8.85415C21.4554 8.58634 21.0921 8.43588 20.7132 8.43588V8.43588Z" fill="black"/>
<path d="M27.5403 12.127C27.241 11.8988 26.9898 11.6137 26.8011 11.2882C26.6123 10.9626 26.4898 10.6029 26.4406 10.2299C26.3913 9.85683 26.4163 9.47772 26.5141 9.11434C26.6118 8.75096 26.7804 8.41047 27.0102 8.11244C27.24 7.81442 27.5265 7.56472 27.8531 7.37771C28.1797 7.19069 28.5401 7.07005 28.9135 7.0227C29.2869 6.97535 29.666 7.00224 30.029 7.10181C30.3919 7.20139 30.7317 7.37169 31.0286 7.60293C31.6133 8.07048 31.991 8.7488 32.0804 9.49193C32.1699 10.2351 31.964 10.9836 31.507 11.5765C31.0501 12.1694 30.3785 12.5593 29.637 12.6623C28.8954 12.7652 28.143 12.573 27.5417 12.127H27.5403ZM29.2844 8.43692C28.9056 8.43692 28.5422 8.58737 28.2744 8.85519C28.0065 9.123 27.856 9.48624 27.856 9.86499C27.856 10.2437 28.0065 10.607 28.2744 10.8748C28.5422 11.1426 28.9056 11.2931 29.2844 11.2931C29.6633 11.2931 30.0266 11.1426 30.2945 10.8748C30.5624 10.607 30.7129 10.2437 30.7129 9.86499C30.7129 9.48624 30.5624 9.123 30.2945 8.85519C30.0266 8.58737 29.6633 8.43692 29.2844 8.43692V8.43692Z" fill="black"/>
<path d="M17.1427 14.1484H20.9567C20.7996 14.5954 20.7139 15.0767 20.7139 15.5765H17.1427C16.9533 15.5765 16.7716 15.6517 16.6377 15.7856C16.5037 15.9196 16.4285 16.1012 16.4285 16.2905C16.4285 17.4573 16.8927 18.3227 17.6255 18.911C17.9626 19.1824 18.3669 19.4009 18.824 19.5608C18.4883 19.9175 18.2297 20.3395 18.0641 20.8004C17.5846 20.6078 17.1356 20.3466 16.7313 20.0249C15.6571 19.161 15 17.8843 15 16.2905C15 15.7224 15.2257 15.1776 15.6276 14.7758C16.0294 14.3741 16.5744 14.1484 17.1427 14.1484V14.1484Z" fill="black"/>
<path d="M22.5263 14.148C22.1475 14.8044 22.0449 15.5843 22.2413 16.3163C22.4377 17.0482 22.9168 17.6722 23.5734 18.0509C24.2299 18.4297 25.0101 18.5322 25.7422 18.3358C26.4744 18.1395 27.0985 17.6605 27.4774 17.0041C27.8562 16.3478 27.9588 15.5678 27.7624 14.8359C27.566 14.104 27.0869 13.48 26.4303 13.1012C25.7738 12.7225 24.9936 12.62 24.2615 12.8163C23.5293 13.0126 22.9052 13.4916 22.5263 14.148V14.148ZM24.6805 14.1837C24.8897 14.1364 25.107 14.1368 25.3161 14.1847C25.5253 14.2326 25.721 14.3268 25.8888 14.4605C26.0567 14.5942 26.1923 14.7638 26.2858 14.9569C26.3793 15.15 26.4282 15.3616 26.4289 15.5761C26.4288 15.8448 26.3529 16.108 26.2098 16.3355C26.0668 16.563 25.8625 16.7455 25.6203 16.8621C25.3782 16.9787 25.108 17.0246 24.8409 16.9946C24.5738 16.9646 24.3206 16.8599 24.1104 16.6925C23.9002 16.5251 23.7415 16.3018 23.6525 16.0482C23.5635 15.7947 23.5479 15.5212 23.6074 15.2591C23.667 14.9971 23.7993 14.7572 23.9891 14.567C24.1789 14.3767 24.4185 14.2439 24.6805 14.1837Z" fill="black"/>
<path d="M32.375 18.911C32.0378 19.1824 31.6336 19.4009 31.1765 19.5608C31.5116 19.9177 31.7698 20.3396 31.935 20.8004C32.4207 20.6019 32.8706 20.3434 33.2692 20.0249C34.3434 19.161 35.0005 17.8843 35.0005 16.2905C35.0005 15.7224 34.7747 15.1776 34.3729 14.7758C33.9711 14.3741 33.4261 14.1484 32.8578 14.1484H29.0438C29.2009 14.5954 29.2866 15.0767 29.2866 15.5765H32.8578C33.0472 15.5765 33.2289 15.6517 33.3628 15.7856C33.4968 15.9196 33.572 16.1012 33.572 16.2905C33.572 17.4573 33.1078 18.3227 32.375 18.911Z" fill="black"/>
<path d="M28.5725 19.8594C29.1408 19.8594 29.6858 20.0851 30.0876 20.4868C30.4895 20.8885 30.7152 21.4334 30.7152 22.0015C30.7152 23.5952 30.0596 24.8719 28.9839 25.7359C27.9254 26.5856 26.5055 26.9997 25.0014 26.9997C23.4972 26.9997 22.0773 26.5856 21.0188 25.7359C19.9446 24.8719 19.2875 23.5952 19.2875 22.0015C19.2867 21.72 19.3416 21.4411 19.4491 21.1808C19.5565 20.9206 19.7143 20.6842 19.9134 20.4851C20.1125 20.286 20.349 20.1283 20.6093 20.0209C20.8696 19.9135 21.1486 19.8586 21.4302 19.8594H28.5725ZM28.5725 21.2875H21.4302C21.2408 21.2875 21.0591 21.3627 20.9251 21.4966C20.7912 21.6305 20.716 21.8121 20.716 22.0015C20.716 23.1682 21.1802 24.0336 21.913 24.622C22.6644 25.2246 23.7443 25.5717 25.0014 25.5717C26.2584 25.5717 27.3383 25.2246 28.0897 24.622C28.8225 24.0336 29.2868 23.1682 29.2868 22.0015C29.2868 21.8121 29.2115 21.6305 29.0776 21.4966C28.9436 21.3627 28.762 21.2875 28.5725 21.2875V21.2875Z" fill="black"/>
<path d="M12.5655 38.15V41.57C12.2388 41.73 11.8455 41.8567 11.3855 41.95C10.9255 42.0433 10.4555 42.09 9.97547 42.09C9.24214 42.09 8.60547 41.9433 8.06547 41.65C7.52547 41.3567 7.11214 40.9367 6.82547 40.39C6.5388 39.8433 6.39547 39.19 6.39547 38.43C6.39547 37.6833 6.5388 37.0367 6.82547 36.49C7.11214 35.9433 7.5188 35.5233 8.04547 35.23C8.5788 34.9367 9.20214 34.79 9.91547 34.79C10.4155 34.79 10.8821 34.8633 11.3155 35.01C11.7555 35.1567 12.1221 35.3633 12.4155 35.63L11.9755 36.57C11.6421 36.31 11.3155 36.1233 10.9955 36.01C10.6755 35.8967 10.3255 35.84 9.94547 35.84C9.21214 35.84 8.65547 36.06 8.27547 36.5C7.90214 36.94 7.71547 37.5833 7.71547 38.43C7.71547 39.3033 7.9088 39.9633 8.29547 40.41C8.68214 40.85 9.2588 41.07 10.0255 41.07C10.4921 41.07 10.9521 41.0067 11.4055 40.88V39.08H9.86547V38.15H12.5655ZM20.378 42H19.018L18.108 39.63C18.028 39.41 17.9047 39.2567 17.738 39.17C17.5714 39.0833 17.3547 39.04 17.088 39.04H15.798V42H14.518V34.88H17.568C18.3747 34.88 18.988 35.0567 19.408 35.41C19.828 35.7633 20.038 36.27 20.038 36.93C20.038 37.4033 19.9114 37.8067 19.658 38.14C19.4114 38.4667 19.058 38.7 18.598 38.84C19.018 38.9267 19.3214 39.22 19.508 39.72L20.378 42ZM17.388 38.04C17.8747 38.04 18.2347 37.95 18.468 37.77C18.7014 37.59 18.818 37.3167 18.818 36.95C18.818 36.59 18.7014 36.3233 18.468 36.15C18.2414 35.97 17.8814 35.88 17.388 35.88H15.778V38.04H17.388ZM25.1507 42.09C24.464 42.09 23.864 41.9433 23.3507 41.65C22.844 41.35 22.4507 40.9267 22.1707 40.38C21.8974 39.8267 21.7607 39.1767 21.7607 38.43C21.7607 37.69 21.8974 37.0467 22.1707 36.5C22.444 35.9467 22.834 35.5233 23.3407 35.23C23.854 34.9367 24.4574 34.79 25.1507 34.79C25.844 34.79 26.444 34.9367 26.9507 35.23C27.464 35.5233 27.854 35.9467 28.1207 36.5C28.394 37.0467 28.5307 37.69 28.5307 38.43C28.5307 39.1767 28.394 39.8267 28.1207 40.38C27.8474 40.9267 27.4574 41.35 26.9507 41.65C26.444 41.9433 25.844 42.09 25.1507 42.09ZM25.1507 41.06C25.8107 41.06 26.324 40.8333 26.6907 40.38C27.0574 39.9267 27.2407 39.2767 27.2407 38.43C27.2407 37.59 27.0574 36.9467 26.6907 36.5C26.324 36.0467 25.8107 35.82 25.1507 35.82C24.4907 35.82 23.9774 36.0433 23.6107 36.49C23.244 36.9367 23.0607 37.5833 23.0607 38.43C23.0607 39.2767 23.244 39.9267 23.6107 40.38C23.9774 40.8333 24.4907 41.06 25.1507 41.06ZM33.292 42.09C32.312 42.09 31.5687 41.84 31.062 41.34C30.562 40.8333 30.312 40.0933 30.312 39.12V34.88H31.582V39.19C31.582 39.8033 31.7254 40.27 32.012 40.59C32.2987 40.9033 32.7254 41.06 33.292 41.06C33.8454 41.06 34.2654 40.9 34.552 40.58C34.8454 40.26 34.992 39.7967 34.992 39.19V34.88H36.262V39.12C36.262 40.0867 36.0087 40.8233 35.502 41.33C34.9954 41.8367 34.2587 42.09 33.292 42.09ZM38.2544 34.88H41.3444C42.111 34.88 42.7077 35.0667 43.1344 35.44C43.561 35.8067 43.7744 36.31 43.7744 36.95C43.7744 37.59 43.5577 38.0967 43.1244 38.47C42.6977 38.8433 42.1044 39.03 41.3444 39.03H39.5444V42H38.2544V34.88ZM41.1944 38.03C41.641 38.03 41.9777 37.94 42.2044 37.76C42.4377 37.5733 42.5544 37.3067 42.5544 36.96C42.5544 36.6067 42.441 36.34 42.2144 36.16C41.9877 35.9733 41.6477 35.88 41.1944 35.88H39.5444V38.03H41.1944Z" fill="black"/>
</svg>
