<svg xmlns="http://www.w3.org/2000/svg" width="67" height="48" viewBox="0 0 67 48" fill="none">
<path d="M34 0C35.5471 0 37.0308 0.610343 38.1248 1.69676C39.2188 2.78318 39.8333 4.25668 39.8333 5.7931C39.8333 7.32953 39.2188 8.80303 38.1248 9.88945C37.0308 10.9759 35.5471 11.5862 34 11.5862C32.4529 11.5862 30.9692 10.9759 29.8752 9.88945C28.7812 8.80303 28.1667 7.32953 28.1667 5.7931C28.1667 4.25668 28.7812 2.78318 29.8752 1.69676C30.9692 0.610343 32.4529 0 34 0ZM22.3333 4.13793C23.2667 4.13793 24.1333 4.38621 24.8833 4.8331C24.6333 7.2 25.3333 9.55035 26.7667 11.3876C25.9333 12.9766 24.2667 14.069 22.3333 14.069C21.0073 14.069 19.7355 13.5458 18.7978 12.6146C17.8601 11.6834 17.3333 10.4204 17.3333 9.10345C17.3333 7.78651 17.8601 6.52351 18.7978 5.5923C19.7355 4.66108 21.0073 4.13793 22.3333 4.13793ZM45.6667 4.13793C46.9927 4.13793 48.2645 4.66108 49.2022 5.5923C50.1399 6.52351 50.6667 7.78651 50.6667 9.10345C50.6667 10.4204 50.1399 11.6834 49.2022 12.6146C48.2645 13.5458 46.9927 14.069 45.6667 14.069C43.7333 14.069 42.0667 12.9766 41.2333 11.3876C42.6667 9.55035 43.3667 7.2 43.1167 4.8331C43.8667 4.38621 44.7333 4.13793 45.6667 4.13793ZM23.1667 21.1034C23.1667 17.6772 28.0167 14.8966 34 14.8966C39.9833 14.8966 44.8333 17.6772 44.8333 21.1034V24H23.1667V21.1034ZM14 24V21.5172C14 19.2166 17.15 17.28 21.4167 16.7172C20.4333 17.8428 19.8333 19.3986 19.8333 21.1034V24H14ZM54 24H48.1667V21.1034C48.1667 19.3986 47.5667 17.8428 46.5833 16.7172C50.85 17.28 54 19.2166 54 21.5172V24Z" fill="black"/>
<path d="M17.7907 43.165C16.6007 43.165 15.5907 42.94 14.7607 42.49C13.9407 42.04 13.3157 41.41 12.8857 40.6C12.4557 39.79 12.2407 38.84 12.2407 37.75C12.2407 36.91 12.3657 36.155 12.6157 35.485C12.8757 34.805 13.2457 34.23 13.7257 33.76C14.2157 33.28 14.8057 32.91 15.4957 32.65C16.1957 32.39 16.9857 32.26 17.8657 32.26C18.4057 32.26 18.9457 32.32 19.4857 32.44C20.0257 32.56 20.5457 32.76 21.0457 33.04C21.2557 33.16 21.3957 33.315 21.4657 33.505C21.5457 33.685 21.5657 33.88 21.5257 34.09C21.4957 34.29 21.4157 34.47 21.2857 34.63C21.1657 34.78 21.0057 34.88 20.8057 34.93C20.6157 34.97 20.3957 34.93 20.1457 34.81C19.8157 34.63 19.4657 34.5 19.0957 34.42C18.7257 34.33 18.3207 34.285 17.8807 34.285C17.1707 34.285 16.5757 34.42 16.0957 34.69C15.6157 34.95 15.2557 35.34 15.0157 35.86C14.7857 36.37 14.6707 37 14.6707 37.75C14.6707 38.88 14.9407 39.735 15.4807 40.315C16.0307 40.895 16.8407 41.185 17.9107 41.185C18.2707 41.185 18.6407 41.15 19.0207 41.08C19.4007 41.01 19.7757 40.91 20.1457 40.78L19.7107 41.725V38.845H18.3607C18.0607 38.845 17.8307 38.77 17.6707 38.62C17.5107 38.47 17.4307 38.265 17.4307 38.005C17.4307 37.735 17.5107 37.53 17.6707 37.39C17.8307 37.24 18.0607 37.165 18.3607 37.165H20.7157C21.0157 37.165 21.2407 37.245 21.3907 37.405C21.5507 37.565 21.6307 37.795 21.6307 38.095V41.575C21.6307 41.835 21.5807 42.055 21.4807 42.235C21.3807 42.415 21.2107 42.545 20.9707 42.625C20.5207 42.785 20.0157 42.915 19.4557 43.015C18.8957 43.115 18.3407 43.165 17.7907 43.165ZM24.6635 43.135C24.2835 43.135 23.9935 43.035 23.7935 42.835C23.5935 42.635 23.4935 42.35 23.4935 41.98V36.655C23.4935 36.285 23.5885 36.005 23.7785 35.815C23.9785 35.615 24.2535 35.515 24.6035 35.515C24.9635 35.515 25.2385 35.615 25.4285 35.815C25.6185 36.005 25.7135 36.285 25.7135 36.655V37.435H25.5635C25.6835 36.835 25.9485 36.37 26.3585 36.04C26.7685 35.71 27.2985 35.525 27.9485 35.485C28.1985 35.465 28.3885 35.53 28.5185 35.68C28.6585 35.82 28.7335 36.055 28.7435 36.385C28.7635 36.695 28.6985 36.94 28.5485 37.12C28.4085 37.3 28.1685 37.41 27.8285 37.45L27.4835 37.48C26.9135 37.53 26.4885 37.695 26.2085 37.975C25.9385 38.255 25.8035 38.66 25.8035 39.19V41.98C25.8035 42.35 25.7035 42.635 25.5035 42.835C25.3135 43.035 25.0335 43.135 24.6635 43.135ZM33.0833 43.165C32.2933 43.165 31.6033 43.01 31.0133 42.7C30.4333 42.39 29.9833 41.945 29.6633 41.365C29.3433 40.785 29.1833 40.1 29.1833 39.31C29.1833 38.72 29.2733 38.19 29.4533 37.72C29.6333 37.25 29.8933 36.85 30.2333 36.52C30.5833 36.18 30.9983 35.925 31.4783 35.755C31.9583 35.575 32.4933 35.485 33.0833 35.485C33.8733 35.485 34.5583 35.64 35.1383 35.95C35.7283 36.26 36.1833 36.7 36.5033 37.27C36.8333 37.84 36.9983 38.52 36.9983 39.31C36.9983 39.91 36.9033 40.445 36.7133 40.915C36.5333 41.385 36.2733 41.79 35.9333 42.13C35.5933 42.47 35.1783 42.73 34.6883 42.91C34.2083 43.08 33.6733 43.165 33.0833 43.165ZM33.0833 41.47C33.4133 41.47 33.6983 41.39 33.9383 41.23C34.1783 41.07 34.3683 40.835 34.5083 40.525C34.6483 40.205 34.7183 39.8 34.7183 39.31C34.7183 38.58 34.5683 38.045 34.2683 37.705C33.9683 37.355 33.5733 37.18 33.0833 37.18C32.7633 37.18 32.4783 37.255 32.2283 37.405C31.9883 37.555 31.7983 37.79 31.6583 38.11C31.5283 38.42 31.4633 38.82 31.4633 39.31C31.4633 40.04 31.6133 40.585 31.9133 40.945C32.2133 41.295 32.6033 41.47 33.0833 41.47ZM41.0913 43.165C40.4713 43.165 39.9563 43.05 39.5463 42.82C39.1363 42.59 38.8313 42.245 38.6313 41.785C38.4413 41.315 38.3463 40.735 38.3463 40.045V36.655C38.3463 36.275 38.4413 35.99 38.6313 35.8C38.8313 35.61 39.1113 35.515 39.4713 35.515C39.8313 35.515 40.1113 35.61 40.3113 35.8C40.5113 35.99 40.6113 36.275 40.6113 36.655V40.105C40.6113 40.545 40.7013 40.875 40.8813 41.095C41.0613 41.305 41.3463 41.41 41.7363 41.41C42.1663 41.41 42.5163 41.26 42.7863 40.96C43.0663 40.65 43.2063 40.245 43.2063 39.745V36.655C43.2063 36.275 43.3013 35.99 43.4913 35.8C43.6913 35.61 43.9713 35.515 44.3313 35.515C44.7013 35.515 44.9813 35.61 45.1713 35.8C45.3713 35.99 45.4713 36.275 45.4713 36.655V41.98C45.4713 42.75 45.1063 43.135 44.3763 43.135C44.0163 43.135 43.7413 43.035 43.5513 42.835C43.3613 42.635 43.2663 42.35 43.2663 41.98V40.975L43.4913 41.56C43.2713 42.07 42.9563 42.465 42.5463 42.745C42.1363 43.025 41.6513 43.165 41.0913 43.165ZM48.364 45.835C47.994 45.835 47.709 45.735 47.509 45.535C47.319 45.345 47.224 45.06 47.224 44.68V36.655C47.224 36.285 47.319 36.005 47.509 35.815C47.709 35.615 47.984 35.515 48.334 35.515C48.704 35.515 48.984 35.615 49.174 35.815C49.364 36.005 49.459 36.285 49.459 36.655V37.675L49.294 37.09C49.444 36.61 49.744 36.225 50.194 35.935C50.654 35.635 51.179 35.485 51.769 35.485C52.409 35.485 52.969 35.64 53.449 35.95C53.939 36.26 54.319 36.7 54.589 37.27C54.859 37.84 54.994 38.52 54.994 39.31C54.994 40.1 54.859 40.785 54.589 41.365C54.319 41.945 53.944 42.39 53.464 42.7C52.984 43.01 52.419 43.165 51.769 43.165C51.189 43.165 50.674 43.025 50.224 42.745C49.774 42.455 49.469 42.08 49.309 41.62H49.489V44.68C49.489 45.06 49.389 45.345 49.189 45.535C48.999 45.735 48.724 45.835 48.364 45.835ZM51.094 41.47C51.414 41.47 51.694 41.39 51.934 41.23C52.184 41.07 52.374 40.835 52.504 40.525C52.644 40.205 52.714 39.8 52.714 39.31C52.714 38.58 52.564 38.045 52.264 37.705C51.964 37.355 51.574 37.18 51.094 37.18C50.774 37.18 50.489 37.255 50.239 37.405C49.999 37.555 49.809 37.79 49.669 38.11C49.529 38.42 49.459 38.82 49.459 39.31C49.459 40.04 49.609 40.585 49.909 40.945C50.209 41.295 50.604 41.47 51.094 41.47Z" fill="black"/>
</svg>
