<svg width="54" height="54" viewBox="0 0 54 54" fill="none" xmlns="http://www.w3.org/2000/svg">
<g filter="url(#filter0_d)">
<circle cx="27" cy="25" r="20" fill="white"/>
</g>
<circle cx="38" cy="40" r="6.5" stroke="#339B31"/>
<circle cx="38" cy="40" r="5" fill="#62D05F"/>
<path d="M17.5703 15.5819C17.5703 14.635 17.9466 13.7269 18.6163 13.0574C19.286 12.3879 20.1944 12.0117 21.1415 12.0117C22.0886 12.0117 22.997 12.3879 23.6667 13.0574C24.3364 13.7269 24.7127 14.635 24.7127 15.5819C24.7127 16.5288 24.3364 17.4369 23.6667 18.1064C22.997 18.7759 22.0886 19.1521 21.1415 19.1521C20.1944 19.1521 19.286 18.7759 18.6163 18.1064C17.9466 17.4369 17.5703 16.5288 17.5703 15.5819ZM21.1415 13.7968C20.6679 13.7968 20.2137 13.9849 19.8789 14.3196C19.544 14.6544 19.3559 15.1085 19.3559 15.5819C19.3559 16.0553 19.544 16.5094 19.8789 16.8441C20.2137 17.1789 20.6679 17.367 21.1415 17.367C21.6151 17.367 22.0692 17.1789 22.4041 16.8441C22.7389 16.5094 22.9271 16.0553 22.9271 15.5819C22.9271 15.1085 22.7389 14.6544 22.4041 14.3196C22.0692 13.9849 21.6151 13.7968 21.1415 13.7968Z" fill="black"/>
<path d="M29.6752 18.4088C29.3011 18.1235 28.987 17.7672 28.7511 17.3602C28.5152 16.9532 28.3621 16.5037 28.3005 16.0374C28.239 15.571 28.2702 15.0971 28.3924 14.6429C28.5146 14.1887 28.7254 13.7631 29.0126 13.3906C29.2998 13.018 29.6579 12.7059 30.0662 12.4721C30.4744 12.2384 30.9249 12.0876 31.3917 12.0284C31.8584 11.9692 32.3323 12.0028 32.786 12.1273C33.2397 12.2517 33.6644 12.4646 34.0356 12.7537C34.7664 13.3381 35.2385 14.186 35.3504 15.1149C35.4622 16.0438 35.2048 16.9795 34.6336 17.7207C34.0624 18.4618 33.223 18.9491 32.296 19.0778C31.369 19.2065 30.4286 18.9663 29.6769 18.4088H29.6752ZM31.8554 13.7961C31.3818 13.7961 30.9276 13.9842 30.5928 14.319C30.2579 14.6538 30.0698 15.1078 30.0698 15.5812C30.0698 16.0547 30.2579 16.5087 30.5928 16.8435C30.9276 17.1782 31.3818 17.3663 31.8554 17.3663C32.3289 17.3663 32.7831 17.1782 33.118 16.8435C33.4528 16.5087 33.6409 16.0547 33.6409 15.5812C33.6409 15.1078 33.4528 14.6538 33.118 14.319C32.7831 13.9842 32.3289 13.7961 31.8554 13.7961Z" fill="black"/>
<path d="M16.6784 20.9375H21.4459C21.2495 21.4962 21.1423 22.0978 21.1423 22.7226H16.6784C16.4416 22.7226 16.2145 22.8166 16.0471 22.984C15.8796 23.1514 15.7856 23.3784 15.7856 23.6151C15.7856 25.0735 16.3659 26.1553 17.2819 26.8908C17.7033 27.2299 18.2086 27.503 18.78 27.703C18.3604 28.1489 18.0371 28.6763 17.8301 29.2524C17.2307 29.0117 16.6695 28.6852 16.1641 28.2831C14.8214 27.2032 14 25.6073 14 23.6151C14 22.905 14.2822 22.2239 14.7845 21.7218C15.2868 21.2196 15.968 20.9375 16.6784 20.9375Z" fill="black"/>
<path d="M23.4079 20.935C22.9343 21.7555 22.8062 22.7304 23.0517 23.6453C23.2971 24.5602 23.8961 25.3402 24.7167 25.8136C25.5374 26.2871 26.5126 26.4152 27.4278 26.1698C28.343 25.9244 29.1232 25.3256 29.5968 24.5052C30.0703 23.6847 30.1985 22.7098 29.953 21.7949C29.7076 20.8799 29.1086 20.1 28.2879 19.6265C27.4672 19.1531 26.492 19.025 25.5768 19.2704C24.6617 19.5158 23.8815 20.1145 23.4079 20.935ZM26.1006 20.9796C26.3622 20.9205 26.6338 20.921 26.8952 20.9808C27.1566 21.0407 27.4013 21.1586 27.6111 21.3256C27.8209 21.4927 27.9904 21.7047 28.1073 21.9461C28.2241 22.1874 28.2852 22.452 28.2861 22.7201C28.286 23.056 28.1911 23.385 28.0123 23.6693C27.8335 23.9537 27.5781 24.1819 27.2754 24.3276C26.9727 24.4734 26.635 24.5308 26.3012 24.4933C25.9673 24.4558 25.6508 24.3249 25.388 24.1156C25.1252 23.9063 24.9268 23.6272 24.8156 23.3103C24.7044 22.9933 24.6849 22.6515 24.7593 22.3239C24.8337 21.9964 24.9991 21.6965 25.2363 21.4587C25.4736 21.2209 25.7732 21.0549 26.1006 20.9796Z" fill="black"/>
<path d="M35.7187 26.8908C35.2973 27.2299 34.792 27.503 34.2206 27.703C34.6395 28.149 34.9623 28.6764 35.1687 29.2524C35.7758 29.0043 36.3383 28.6812 36.8365 28.2831C38.1792 27.2032 39.0006 25.6073 39.0006 23.6151C39.0006 22.905 38.7184 22.2239 38.2161 21.7218C37.7138 21.2196 37.0326 20.9375 36.3222 20.9375H31.5547C31.7511 21.4962 31.8582 22.0978 31.8582 22.7226H36.3222C36.559 22.7226 36.7861 22.8166 36.9535 22.984C37.1209 23.1514 37.215 23.3784 37.215 23.6151C37.215 25.0735 36.6347 26.1553 35.7187 26.8908Z" fill="black"/>
<path d="M30.9657 28.0742C31.676 28.0742 32.3573 28.3563 32.8596 28.8585C33.3619 29.3606 33.6441 30.0417 33.6441 30.7519C33.6441 32.744 32.8245 34.3399 31.4799 35.4199C30.1568 36.482 28.3819 36.9997 26.5017 36.9997C24.6215 36.9997 22.8466 36.482 21.5235 35.4199C20.1808 34.3399 19.3594 32.744 19.3594 30.7519C19.3584 30.4 19.4271 30.0514 19.5613 29.7261C19.6956 29.4008 19.8929 29.1052 20.1418 28.8564C20.3907 28.6076 20.6863 28.4104 21.0117 28.2761C21.3371 28.1419 21.6858 28.0733 22.0378 28.0742H30.9657ZM30.9657 29.8593H22.0378C21.801 29.8593 21.5739 29.9534 21.4065 30.1207C21.239 30.2881 21.145 30.5151 21.145 30.7519C21.145 32.2103 21.7253 33.292 22.6413 34.0275C23.5805 34.7808 24.9304 35.2146 26.5017 35.2146C28.073 35.2146 29.4229 34.7808 30.3622 34.0275C31.2782 33.292 31.8585 32.2103 31.8585 30.7519C31.8585 30.5151 31.7644 30.2881 31.597 30.1207C31.4296 29.9534 31.2025 29.8593 30.9657 29.8593Z" fill="black"/>
<defs>
<filter id="filter0_d" x="0" y="0" width="54" height="54" filterUnits="userSpaceOnUse" color-interpolation-filters="sRGB">
<feFlood flood-opacity="0" result="BackgroundImageFix"/>
<feColorMatrix in="SourceAlpha" type="matrix" values="0 0 0 0 0 0 0 0 0 0 0 0 0 0 0 0 0 0 127 0" result="hardAlpha"/>
<feOffset dy="2"/>
<feGaussianBlur stdDeviation="3.5"/>
<feColorMatrix type="matrix" values="0 0 0 0 0 0 0 0 0 0 0 0 0 0 0 0 0 0 0.2 0"/>
<feBlend mode="normal" in2="BackgroundImageFix" result="effect1_dropShadow"/>
<feBlend mode="normal" in="SourceGraphic" in2="effect1_dropShadow" result="shape"/>
</filter>
</defs>
</svg>
