<svg xmlns="http://www.w3.org/2000/svg" width="17" height="17" viewBox="0 0 17 17" fill="none">
<path d="M16.6482 8.36072L8.92415 0.186175C8.86853 0.127158 8.80248 0.0803364 8.72976 0.0483901C8.65703 0.0164437 8.57908 0 8.50035 0C8.42162 0 8.34367 0.0164437 8.27095 0.0483901C8.19823 0.0803364 8.13217 0.127158 8.07655 0.186175L0.35254 8.36072C0.127515 8.59905 0 8.92277 0 9.2604C0 9.96147 0.538187 10.5315 1.20014 10.5315H2.01398V16.3645C2.01398 16.716 2.28214 17 2.61405 17H7.30021V12.5513H9.40045V17H14.3867C14.7186 17 14.9867 16.716 14.9867 16.3645V10.5315H15.8006C16.1194 10.5315 16.425 10.3984 16.65 10.1581C17.117 9.66158 17.117 8.85723 16.6482 8.36072Z" fill="black"/>
</svg>