<svg width="101" height="101" viewBox="0 0 101 101" fill="none" xmlns="http://www.w3.org/2000/svg">
<g filter="url(#filter0_d_2012_782)">
<circle cx="50.457" cy="46.5" r="30" fill="white"/>
</g>
<path d="M42.229 63.0783C40.2432 62.988 39.1644 62.6575 38.4469 62.3777C37.4962 62.0075 36.8183 61.5669 36.1048 60.8543C35.3913 60.1417 34.9496 59.4639 34.5815 58.5132C34.3016 57.7957 33.9711 56.7169 33.8808 54.7311C33.7816 52.5845 33.7617 51.9405 33.7617 46.502C33.7617 41.0636 33.7836 40.4205 33.8798 38.272C33.9701 36.2861 34.3026 35.2094 34.5805 34.4899C34.9506 33.5391 35.3923 32.8613 36.1038 32.1468C36.8164 31.4342 37.4942 30.9916 38.4459 30.6234C39.1634 30.3436 40.2422 30.0131 42.228 29.9228C44.3756 29.8245 45.0206 29.8047 50.4571 29.8047C55.8955 29.8047 56.5386 29.8265 58.6872 29.9228C60.673 30.0131 61.7497 30.3456 62.4692 30.6234C63.42 30.9916 64.0978 31.4342 64.8113 32.1468C65.5249 32.8593 65.9645 33.5381 66.3347 34.4889C66.6145 35.2064 66.945 36.2851 67.0353 38.271C67.1336 40.4195 67.1534 41.0626 67.1534 46.501C67.1534 51.9375 67.1336 52.5825 67.0353 54.7311C66.945 56.7169 66.6126 57.7957 66.3347 58.5132C65.9645 59.4639 65.5239 60.1417 64.8113 60.8543C64.0988 61.5669 63.42 62.0075 62.4692 62.3777C61.7517 62.6575 60.673 62.988 58.6872 63.0783C56.5406 63.1765 55.8955 63.1964 50.4571 63.1964C45.0206 63.1964 44.3756 63.1775 42.229 63.0783" fill="url(#paint0_radial_2012_782)"/>
<path d="M42.229 63.0783C40.2432 62.988 39.1644 62.6575 38.4469 62.3777C37.4962 62.0075 36.8183 61.5669 36.1048 60.8543C35.3913 60.1417 34.9496 59.4639 34.5815 58.5132C34.3016 57.7957 33.9711 56.7169 33.8808 54.7311C33.7816 52.5845 33.7617 51.9405 33.7617 46.502C33.7617 41.0636 33.7836 40.4205 33.8798 38.272C33.9701 36.2861 34.3026 35.2094 34.5805 34.4899C34.9506 33.5391 35.3923 32.8613 36.1038 32.1468C36.8164 31.4342 37.4942 30.9916 38.4459 30.6234C39.1634 30.3436 40.2422 30.0131 42.228 29.9228C44.3756 29.8245 45.0206 29.8047 50.4571 29.8047C55.8955 29.8047 56.5386 29.8265 58.6872 29.9228C60.673 30.0131 61.7497 30.3456 62.4692 30.6234C63.42 30.9916 64.0978 31.4342 64.8113 32.1468C65.5249 32.8593 65.9645 33.5381 66.3347 34.4889C66.6145 35.2064 66.945 36.2851 67.0353 38.271C67.1336 40.4195 67.1534 41.0626 67.1534 46.501C67.1534 51.9375 67.1336 52.5825 67.0353 54.7311C66.945 56.7169 66.6126 57.7957 66.3347 58.5132C65.9645 59.4639 65.5239 60.1417 64.8113 60.8543C64.0988 61.5669 63.42 62.0075 62.4692 62.3777C61.7517 62.6575 60.673 62.988 58.6872 63.0783C56.5406 63.1765 55.8955 63.1964 50.4571 63.1964C45.0206 63.1964 44.3756 63.1775 42.229 63.0783" fill="url(#paint1_radial_2012_782)"/>
<path d="M46.3567 46.5692C46.3567 44.2856 48.2075 42.4338 50.4911 42.4338C52.7747 42.4338 54.6265 44.2856 54.6265 46.5692C54.6265 48.8529 52.7747 50.7046 50.4911 50.7046C48.2075 50.7046 46.3567 48.8529 46.3567 46.5692V46.5692ZM44.1212 46.5692C44.1212 50.0873 46.973 52.9391 50.4911 52.9391C54.0092 52.9391 56.861 50.0873 56.861 46.5692C56.861 43.0511 54.0092 40.1993 50.4911 40.1993C46.973 40.1993 44.1213 43.0509 44.1213 46.5692H44.1212ZM55.6246 39.9468C55.6245 40.2412 55.7117 40.529 55.8752 40.7739C56.0387 41.0188 56.2711 41.2096 56.543 41.3224C56.815 41.4352 57.1143 41.4648 57.4031 41.4075C57.6919 41.3502 57.9572 41.2085 58.1655 41.0004C58.3737 40.7923 58.5156 40.5271 58.5732 40.2383C58.6307 39.9496 58.6014 39.6503 58.4888 39.3782C58.3762 39.1062 58.1855 38.8736 57.9408 38.7099C57.6961 38.5463 57.4083 38.4588 57.1139 38.4587H57.1133C56.7186 38.4589 56.3402 38.6157 56.0611 38.8947C55.782 39.1737 55.625 39.5521 55.6246 39.9468V39.9468ZM45.4794 56.6668C44.27 56.6117 43.6126 56.4103 43.1757 56.2401C42.5966 56.0146 42.1833 55.7461 41.7488 55.3122C41.3144 54.8783 41.0454 54.4655 40.8209 53.8863C40.6506 53.4496 40.4492 52.792 40.3942 51.5826C40.334 50.275 40.322 49.8822 40.322 46.5694C40.322 43.2566 40.335 42.8649 40.3942 41.5562C40.4493 40.3468 40.6522 39.6905 40.8209 39.2526C41.0464 38.6734 41.315 38.2601 41.7488 37.8257C42.1827 37.3912 42.5956 37.1222 43.1757 36.8978C43.6124 36.7275 44.27 36.526 45.4794 36.471C46.787 36.4109 47.1798 36.3989 50.4911 36.3989C53.8024 36.3989 54.1956 36.4117 55.5043 36.4712C56.7137 36.5263 57.37 36.7293 57.808 36.898C58.3871 37.1224 58.8004 37.392 59.2348 37.8259C59.6693 38.2597 59.9373 38.6736 60.1627 39.2528C60.333 39.6894 60.5345 40.347 60.5895 41.5564C60.6496 42.8651 60.6616 43.2568 60.6616 46.5696C60.6616 49.8824 60.6496 50.2741 60.5895 51.5828C60.5344 52.7922 60.332 53.4496 60.1627 53.8865C59.9373 54.4657 59.6687 54.8789 59.2348 55.3124C58.801 55.7459 58.3871 56.0148 57.808 56.2403C57.3713 56.4106 56.7137 56.612 55.5043 56.667C54.1967 56.7272 53.8039 56.7392 50.4911 56.7392C47.1783 56.7392 46.7866 56.7272 45.4794 56.667V56.6668ZM45.3767 34.2392C44.0561 34.2993 43.1537 34.5087 42.3656 34.8154C41.55 35.1321 40.8585 35.5569 40.1681 36.2462C39.4777 36.9356 39.0539 37.6271 38.7373 38.4437C38.4306 39.2323 38.2212 40.1342 38.1611 41.4548C38.0999 42.7775 38.0859 43.2004 38.0859 46.5692C38.0859 49.9381 38.0999 50.3609 38.1611 51.6836C38.2212 53.0043 38.4306 53.9061 38.7373 54.6947C39.0539 55.5104 39.4778 56.2032 40.1681 56.8922C40.8584 57.5812 41.549 58.0055 42.3656 58.3231C43.1552 58.6297 44.0561 58.8391 45.3767 58.8993C46.7001 58.9594 47.1223 58.9744 50.4911 58.9744C53.8599 58.9744 54.2828 58.9604 55.6055 58.8993C56.9262 58.8391 57.828 58.6297 58.6166 58.3231C59.4322 58.0055 60.1236 57.5815 60.8141 56.8922C61.5045 56.2029 61.9274 55.5104 62.2449 54.6947C62.5516 53.9061 62.762 53.0042 62.8211 51.6836C62.8813 50.3599 62.8953 49.9381 62.8953 46.5692C62.8953 43.2004 62.8813 42.7775 62.8211 41.4548C62.761 40.1341 62.5516 39.2318 62.2449 38.4437C61.9274 37.6281 61.5034 36.9367 60.8141 36.2462C60.1247 35.5558 59.4322 35.1321 58.6176 34.8154C57.828 34.5087 56.9261 34.2983 55.6065 34.2392C54.2836 34.1788 53.8609 34.1641 50.4926 34.1641C47.1242 34.1641 46.7006 34.1781 45.3772 34.2392" fill="white"/>
<defs>
<filter id="filter0_d_2012_782" x="0.457031" y="0.5" width="100" height="100" filterUnits="userSpaceOnUse" color-interpolation-filters="sRGB">
<feFlood flood-opacity="0" result="BackgroundImageFix"/>
<feColorMatrix in="SourceAlpha" type="matrix" values="0 0 0 0 0 0 0 0 0 0 0 0 0 0 0 0 0 0 127 0" result="hardAlpha"/>
<feOffset dy="4"/>
<feGaussianBlur stdDeviation="10"/>
<feColorMatrix type="matrix" values="0 0 0 0 0 0 0 0 0 0 0 0 0 0 0 0 0 0 0.1 0"/>
<feBlend mode="normal" in2="BackgroundImageFix" result="effect1_dropShadow_2012_782"/>
<feBlend mode="normal" in="SourceGraphic" in2="effect1_dropShadow_2012_782" result="shape"/>
</filter>
<radialGradient id="paint0_radial_2012_782" cx="0" cy="0" r="1" gradientUnits="userSpaceOnUse" gradientTransform="translate(35.9228 62.4649) scale(42.3951)">
<stop offset="0.09" stop-color="#FA8F21"/>
<stop offset="0.78" stop-color="#D82D7E"/>
</radialGradient>
<radialGradient id="paint1_radial_2012_782" cx="0" cy="0" r="1" gradientUnits="userSpaceOnUse" gradientTransform="translate(56.891 61.3927) scale(37.3081)">
<stop offset="0.64" stop-color="#8C3AAA" stop-opacity="0"/>
<stop offset="1" stop-color="#8C3AAA"/>
</radialGradient>
</defs>
</svg>
