<svg xmlns="http://www.w3.org/2000/svg" width="4" height="18" viewBox="0 0 4 18" fill="none">
<path d="M2.32682 4.91805C3.24349 4.91805 3.99349 3.97068 3.99349 2.81278C3.99349 1.65489 3.24349 0.70752 2.32682 0.70752C1.41016 0.70752 0.660156 1.65489 0.660156 2.81278C0.660156 3.97068 1.41016 4.91805 2.32682 4.91805ZM2.32682 7.02331C1.41016 7.02331 0.660156 7.97068 0.660156 9.12857C0.660156 10.2865 1.41016 11.2338 2.32682 11.2338C3.24349 11.2338 3.99349 10.2865 3.99349 9.12857C3.99349 7.97068 3.24349 7.02331 2.32682 7.02331ZM2.32682 13.3391C1.41016 13.3391 0.660156 14.2865 0.660156 15.4444C0.660156 16.6023 1.41016 17.5496 2.32682 17.5496C3.24349 17.5496 3.99349 16.6023 3.99349 15.4444C3.99349 14.2865 3.24349 13.3391 2.32682 13.3391Z" fill="#212121"/>
</svg>