<svg width="101" height="101" viewBox="0 0 101 101" fill="none" xmlns="http://www.w3.org/2000/svg">
<g filter="url(#filter0_d_2012_768)">
<circle cx="50.4375" cy="46.5" r="30" fill="white"/>
</g>
<path d="M64.1133 29.8047H36.7627C35.0946 29.8047 33.7422 31.1571 33.7422 32.8252V60.1758C33.7422 61.844 35.0946 63.1964 36.7627 63.1964H64.1133C65.7815 63.1964 67.1339 61.844 67.1339 60.1758V32.8252C67.1339 31.1571 65.7815 29.8047 64.1133 29.8047ZM44.075 58.6373C44.075 59.1228 43.6815 59.5163 43.196 59.5163H39.4542C38.9687 59.5163 38.5752 59.1228 38.5752 58.6373V42.9518C38.5752 42.4664 38.9687 42.0728 39.4542 42.0728H43.196C43.6815 42.0728 44.075 42.4664 44.075 42.9518V58.6373ZM41.3251 40.5942C39.3619 40.5942 37.7703 39.0027 37.7703 37.0395C37.7703 35.0763 39.3619 33.4848 41.3251 33.4848C43.2883 33.4848 44.8798 35.0763 44.8798 37.0395C44.8798 39.0027 43.2884 40.5942 41.3251 40.5942ZM63.6295 58.7081C63.6295 59.1544 63.2676 59.5163 62.8213 59.5163H58.8061C58.3597 59.5163 57.9979 59.1544 57.9979 58.7081V51.3507C57.9979 50.2532 58.3198 46.5412 55.1296 46.5412C52.655 46.5412 52.1531 49.0819 52.0523 50.2221V58.7081C52.0523 59.1544 51.6905 59.5163 51.2441 59.5163H47.3607C46.9143 59.5163 46.5525 59.1544 46.5525 58.7081V42.881C46.5525 42.4347 46.9143 42.0728 47.3607 42.0728H51.2441C51.6904 42.0728 52.0523 42.4347 52.0523 42.881V44.2495C52.9699 42.8725 54.3335 41.8096 57.2369 41.8096C63.6663 41.8096 63.6295 47.8163 63.6295 51.1166V58.7081Z" fill="#0077B7"/>
<defs>
<filter id="filter0_d_2012_768" x="0.4375" y="0.5" width="100" height="100" filterUnits="userSpaceOnUse" color-interpolation-filters="sRGB">
<feFlood flood-opacity="0" result="BackgroundImageFix"/>
<feColorMatrix in="SourceAlpha" type="matrix" values="0 0 0 0 0 0 0 0 0 0 0 0 0 0 0 0 0 0 127 0" result="hardAlpha"/>
<feOffset dy="4"/>
<feGaussianBlur stdDeviation="10"/>
<feColorMatrix type="matrix" values="0 0 0 0 0 0 0 0 0 0 0 0 0 0 0 0 0 0 0.1 0"/>
<feBlend mode="normal" in2="BackgroundImageFix" result="effect1_dropShadow_2012_768"/>
<feBlend mode="normal" in="SourceGraphic" in2="effect1_dropShadow_2012_768" result="shape"/>
</filter>
</defs>
</svg>
