<svg xmlns="http://www.w3.org/2000/svg" width="94" height="54" viewBox="0 0 94 54" fill="none">
<path d="M57.3333 9.75V2.16667C57.3333 1.59203 57.1051 1.04093 56.6987 0.634602C56.2924 0.228274 55.7413 0 55.1667 0H29.1667C28.592 0 28.0409 0.228274 27.6346 0.634602C27.2283 1.04093 27 1.59203 27 2.16667V23.8333C27 24.408 27.2283 24.9591 27.6346 25.3654C28.0409 25.7717 28.592 26 29.1667 26H55.1667C55.7413 26 56.2924 25.7717 56.6987 25.3654C57.1051 24.9591 57.3333 24.408 57.3333 23.8333V16.25L66 24.9167V1.08333L57.3333 9.75Z" fill="black"/>
<path d="M37.5725 4.33594C36.396 5.72267 35.668 7.63804 35.668 9.7526C35.668 11.8672 36.396 13.7825 37.5725 15.1693L38.489 14.089C37.5465 12.9857 36.968 11.4535 36.968 9.7526C36.968 8.05942 37.5465 6.51946 38.489 5.41621L37.5725 4.33594ZM46.7635 4.33594L45.847 5.41621C46.7895 6.51946 47.368 8.05942 47.368 9.7526C47.368 11.4535 46.7895 12.9857 45.847 14.089L46.7635 15.1693C47.94 13.7825 48.668 11.8672 48.668 9.7526C48.668 7.63804 47.94 5.72267 46.7635 4.33594ZM39.412 6.50414C38.7035 7.33924 38.268 8.48846 38.268 9.7526C38.268 11.0167 38.7035 12.166 39.412 13.0011L40.3285 11.9208C39.8605 11.3692 39.568 10.603 39.568 9.7526C39.568 8.90218 39.8605 8.13603 40.3285 7.58441L39.412 6.50414ZM44.924 6.50414L44.0075 7.58441C44.4755 8.13603 44.768 8.90218 44.768 9.7526C44.768 10.603 44.4755 11.3692 44.0075 11.9208L44.924 13.0011C45.6325 12.166 46.068 11.0167 46.068 9.7526C46.068 8.48846 45.6325 7.33924 44.924 6.50414ZM42.168 8.22031C41.8232 8.22031 41.4925 8.38175 41.2487 8.66911C41.0049 8.95647 40.868 9.34621 40.868 9.7526C40.868 10.159 41.0049 10.5487 41.2487 10.8361C41.4925 11.1235 41.8232 11.2849 42.168 11.2849C42.5127 11.2849 42.8434 11.1235 43.0872 10.8361C43.331 10.5487 43.468 10.159 43.468 9.7526C43.468 9.34621 43.331 8.95647 43.0872 8.66911C42.8434 8.38175 42.5127 8.22031 42.168 8.22031Z" fill="#E5E5E5"/>
<path d="M39 20.924V18.104H39.624V20.4H40.896V20.924H39Z" fill="white"/>
<path d="M41.2373 20.924V18.896H41.8413V20.924H41.2373ZM41.2133 18.564V18H41.8613V18.564H41.2133Z" fill="white"/>
<path d="M42.923 20.924L42.047 18.896H42.683L43.263 20.368H43.131L43.731 18.896H44.327L43.443 20.924H42.923Z" fill="white"/>
<path d="M45.5113 20.968C45.1593 20.968 44.8846 20.8733 44.6873 20.684C44.4899 20.4947 44.3913 20.2373 44.3913 19.912C44.3913 19.7013 44.4326 19.5173 44.5153 19.36C44.6006 19.2027 44.7179 19.08 44.8672 18.992C45.0192 18.9013 45.1966 18.856 45.3993 18.856C45.5992 18.856 45.7659 18.8987 45.8993 18.984C46.0353 19.0693 46.1366 19.1893 46.2032 19.344C46.2726 19.496 46.3073 19.6733 46.3073 19.876V20.016H44.8872V19.716H45.8672L45.7993 19.772C45.7993 19.604 45.7646 19.4773 45.6953 19.392C45.6286 19.304 45.5312 19.26 45.4033 19.26C45.2619 19.26 45.1526 19.312 45.0753 19.416C45.0006 19.52 44.9633 19.6693 44.9633 19.864V19.928C44.9633 20.1253 45.0113 20.272 45.1073 20.368C45.2059 20.464 45.3472 20.512 45.5312 20.512C45.6406 20.512 45.7432 20.4987 45.8393 20.472C45.9379 20.4427 46.0312 20.3973 46.1192 20.336L46.2873 20.736C46.1859 20.8107 46.0686 20.868 45.9352 20.908C45.8046 20.948 45.6632 20.968 45.5113 20.968Z" fill="white"/>
<path d="M7.04785 47C6.66785 47 6.37285 46.895 6.16285 46.685C5.96285 46.475 5.86285 46.185 5.86285 45.815V37.58C5.86285 37.19 5.96285 36.895 6.16285 36.695C6.36285 36.495 6.65285 36.395 7.03285 36.395C7.40285 36.395 7.68785 36.495 7.88785 36.695C8.08785 36.895 8.18785 37.19 8.18785 37.58V45.035H12.2079C12.5279 45.035 12.7729 45.12 12.9429 45.29C13.1229 45.46 13.2129 45.7 13.2129 46.01C13.2129 46.33 13.1229 46.575 12.9429 46.745C12.7729 46.915 12.5279 47 12.2079 47H7.04785ZM15.4065 47.12C15.0365 47.12 14.7515 47.015 14.5515 46.805C14.3615 46.585 14.2665 46.28 14.2665 45.89V40.76C14.2665 40.36 14.3615 40.055 14.5515 39.845C14.7515 39.625 15.0365 39.515 15.4065 39.515C15.7665 39.515 16.0415 39.625 16.2315 39.845C16.4315 40.055 16.5315 40.36 16.5315 40.76V45.89C16.5315 46.28 16.4365 46.585 16.2465 46.805C16.0565 47.015 15.7765 47.12 15.4065 47.12ZM15.4065 38.285C14.9865 38.285 14.6615 38.19 14.4315 38C14.2115 37.8 14.1015 37.52 14.1015 37.16C14.1015 36.79 14.2115 36.51 14.4315 36.32C14.6615 36.12 14.9865 36.02 15.4065 36.02C15.8265 36.02 16.1465 36.12 16.3665 36.32C16.5865 36.51 16.6965 36.79 16.6965 37.16C16.6965 37.52 16.5865 37.8 16.3665 38C16.1465 38.19 15.8265 38.285 15.4065 38.285ZM21.4002 47.135C21.1102 47.135 20.8552 47.06 20.6352 46.91C20.4152 46.75 20.2402 46.515 20.1102 46.205L17.8452 40.985C17.7352 40.725 17.6952 40.485 17.7252 40.265C17.7552 40.035 17.8602 39.855 18.0402 39.725C18.2302 39.585 18.4902 39.515 18.8202 39.515C19.0902 39.515 19.3102 39.58 19.4802 39.71C19.6502 39.83 19.8002 40.065 19.9302 40.415L21.7002 44.915H21.2202L23.0652 40.4C23.2052 40.06 23.3602 39.83 23.5302 39.71C23.7002 39.58 23.9352 39.515 24.2352 39.515C24.4952 39.515 24.7002 39.585 24.8502 39.725C25.0102 39.855 25.1052 40.03 25.1352 40.25C25.1752 40.47 25.1352 40.71 25.0152 40.97L22.7052 46.205C22.5752 46.525 22.4002 46.76 22.1802 46.91C21.9702 47.06 21.7102 47.135 21.4002 47.135ZM29.9421 47.165C29.0721 47.165 28.3221 47.01 27.6921 46.7C27.0721 46.38 26.5921 45.935 26.2521 45.365C25.9221 44.785 25.7571 44.105 25.7571 43.325C25.7571 42.565 25.9171 41.9 26.2371 41.33C26.5571 40.75 27.0021 40.3 27.5721 39.98C28.1521 39.65 28.8071 39.485 29.5371 39.485C30.0671 39.485 30.5471 39.575 30.9771 39.755C31.4071 39.925 31.7771 40.175 32.0871 40.505C32.3971 40.825 32.6321 41.22 32.7921 41.69C32.9521 42.15 33.0321 42.665 33.0321 43.235C33.0321 43.425 32.9721 43.57 32.8521 43.67C32.7321 43.76 32.5571 43.805 32.3271 43.805H27.6171V42.635H31.3971L31.1571 42.845C31.1571 42.435 31.0971 42.095 30.9771 41.825C30.8571 41.545 30.6821 41.335 30.4521 41.195C30.2321 41.055 29.9571 40.985 29.6271 40.985C29.2571 40.985 28.9421 41.07 28.6821 41.24C28.4221 41.41 28.2221 41.655 28.0821 41.975C27.9421 42.295 27.8721 42.68 27.8721 43.13V43.25C27.8721 44.01 28.0471 44.57 28.3971 44.93C28.7571 45.29 29.2871 45.47 29.9871 45.47C30.2271 45.47 30.5021 45.44 30.8121 45.38C31.1221 45.32 31.4121 45.225 31.6821 45.095C31.9121 44.985 32.1171 44.95 32.2971 44.99C32.4771 45.02 32.6171 45.1 32.7171 45.23C32.8171 45.36 32.8721 45.51 32.8821 45.68C32.9021 45.85 32.8671 46.02 32.7771 46.19C32.6871 46.35 32.5371 46.485 32.3271 46.595C31.9871 46.785 31.6021 46.925 31.1721 47.015C30.7521 47.115 30.3421 47.165 29.9421 47.165ZM42.5139 47.165C42.0939 47.165 41.6639 47.13 41.2239 47.06C40.7939 47 40.3789 46.91 39.9789 46.79C39.5889 46.67 39.2389 46.52 38.9289 46.34C38.7089 46.22 38.5539 46.065 38.4639 45.875C38.3739 45.675 38.3389 45.475 38.3589 45.275C38.3889 45.075 38.4639 44.9 38.5839 44.75C38.7139 44.59 38.8739 44.49 39.0639 44.45C39.2639 44.4 39.4839 44.435 39.7239 44.555C40.1339 44.785 40.5789 44.955 41.0589 45.065C41.5489 45.175 42.0339 45.23 42.5139 45.23C43.2439 45.23 43.7639 45.12 44.0739 44.9C44.3839 44.67 44.5389 44.385 44.5389 44.045C44.5389 43.755 44.4289 43.525 44.2089 43.355C43.9889 43.185 43.6039 43.04 43.0539 42.92L41.3589 42.56C40.3989 42.36 39.6839 42.02 39.2139 41.54C38.7539 41.05 38.5239 40.41 38.5239 39.62C38.5239 39.12 38.6289 38.665 38.8389 38.255C39.0489 37.845 39.3439 37.49 39.7239 37.19C40.1039 36.89 40.5539 36.66 41.0739 36.5C41.6039 36.34 42.1839 36.26 42.8139 36.26C43.3739 36.26 43.9239 36.33 44.4639 36.47C45.0039 36.6 45.4789 36.795 45.8889 37.055C46.0889 37.175 46.2239 37.33 46.2939 37.52C46.3739 37.7 46.3989 37.885 46.3689 38.075C46.3489 38.255 46.2739 38.415 46.1439 38.555C46.0239 38.695 45.8689 38.785 45.6789 38.825C45.4889 38.865 45.2589 38.82 44.9889 38.69C44.6589 38.52 44.3089 38.395 43.9389 38.315C43.5689 38.235 43.1889 38.195 42.7989 38.195C42.3789 38.195 42.0189 38.25 41.7189 38.36C41.4289 38.47 41.2039 38.625 41.0439 38.825C40.8939 39.025 40.8189 39.255 40.8189 39.515C40.8189 39.805 40.9239 40.04 41.1339 40.22C41.3439 40.4 41.7089 40.545 42.2289 40.655L43.9239 41.015C44.9039 41.225 45.6339 41.565 46.1139 42.035C46.5939 42.495 46.8339 43.105 46.8339 43.865C46.8339 44.365 46.7339 44.82 46.5339 45.23C46.3339 45.63 46.0439 45.975 45.6639 46.265C45.2839 46.555 44.8289 46.78 44.2989 46.94C43.7689 47.09 43.1739 47.165 42.5139 47.165ZM51.6608 47.165C50.9708 47.165 50.3908 47.05 49.9208 46.82C49.4608 46.59 49.1158 46.255 48.8858 45.815C48.6658 45.375 48.5558 44.82 48.5558 44.15V41.33H47.9258C47.6458 41.33 47.4258 41.255 47.2658 41.105C47.1158 40.955 47.0408 40.75 47.0408 40.49C47.0408 40.21 47.1158 40 47.2658 39.86C47.4258 39.71 47.6458 39.635 47.9258 39.635H48.5558V38.495C48.5558 38.115 48.6558 37.83 48.8558 37.64C49.0558 37.44 49.3358 37.34 49.6958 37.34C50.0658 37.34 50.3458 37.44 50.5358 37.64C50.7258 37.83 50.8208 38.115 50.8208 38.495V39.635H52.2458C52.5258 39.635 52.7408 39.71 52.8908 39.86C53.0408 40 53.1158 40.21 53.1158 40.49C53.1158 40.75 53.0408 40.955 52.8908 41.105C52.7408 41.255 52.5258 41.33 52.2458 41.33H50.8208V44.06C50.8208 44.48 50.9158 44.795 51.1058 45.005C51.3058 45.215 51.6208 45.32 52.0508 45.32C52.2008 45.32 52.3408 45.305 52.4708 45.275C52.6008 45.245 52.7208 45.225 52.8308 45.215C52.9708 45.205 53.0858 45.25 53.1758 45.35C53.2658 45.44 53.3108 45.645 53.3108 45.965C53.3108 46.205 53.2708 46.415 53.1908 46.595C53.1108 46.775 52.9708 46.905 52.7708 46.985C52.6408 47.035 52.4608 47.075 52.2308 47.105C52.0108 47.145 51.8208 47.165 51.6608 47.165ZM55.2802 47.135C54.9002 47.135 54.6102 47.035 54.4102 46.835C54.2102 46.635 54.1102 46.35 54.1102 45.98V40.655C54.1102 40.285 54.2052 40.005 54.3952 39.815C54.5952 39.615 54.8702 39.515 55.2202 39.515C55.5802 39.515 55.8552 39.615 56.0452 39.815C56.2352 40.005 56.3302 40.285 56.3302 40.655V41.435H56.1802C56.3002 40.835 56.5652 40.37 56.9752 40.04C57.3852 39.71 57.9152 39.525 58.5652 39.485C58.8152 39.465 59.0052 39.53 59.1352 39.68C59.2752 39.82 59.3502 40.055 59.3602 40.385C59.3802 40.695 59.3152 40.94 59.1652 41.12C59.0252 41.3 58.7852 41.41 58.4452 41.45L58.1002 41.48C57.5302 41.53 57.1052 41.695 56.8252 41.975C56.5552 42.255 56.4202 42.66 56.4202 43.19V45.98C56.4202 46.35 56.3202 46.635 56.1202 46.835C55.9302 47.035 55.6502 47.135 55.2802 47.135ZM63.985 47.165C63.115 47.165 62.365 47.01 61.735 46.7C61.115 46.38 60.635 45.935 60.295 45.365C59.965 44.785 59.8 44.105 59.8 43.325C59.8 42.565 59.96 41.9 60.28 41.33C60.6 40.75 61.045 40.3 61.615 39.98C62.195 39.65 62.85 39.485 63.58 39.485C64.11 39.485 64.59 39.575 65.02 39.755C65.45 39.925 65.82 40.175 66.13 40.505C66.44 40.825 66.675 41.22 66.835 41.69C66.995 42.15 67.075 42.665 67.075 43.235C67.075 43.425 67.015 43.57 66.895 43.67C66.775 43.76 66.6 43.805 66.37 43.805H61.66V42.635H65.44L65.2 42.845C65.2 42.435 65.14 42.095 65.02 41.825C64.9 41.545 64.725 41.335 64.495 41.195C64.275 41.055 64 40.985 63.67 40.985C63.3 40.985 62.985 41.07 62.725 41.24C62.465 41.41 62.265 41.655 62.125 41.975C61.985 42.295 61.915 42.68 61.915 43.13V43.25C61.915 44.01 62.09 44.57 62.44 44.93C62.8 45.29 63.33 45.47 64.03 45.47C64.27 45.47 64.545 45.44 64.855 45.38C65.165 45.32 65.455 45.225 65.725 45.095C65.955 44.985 66.16 44.95 66.34 44.99C66.52 45.02 66.66 45.1 66.76 45.23C66.86 45.36 66.915 45.51 66.925 45.68C66.945 45.85 66.91 46.02 66.82 46.19C66.73 46.35 66.58 46.485 66.37 46.595C66.03 46.785 65.645 46.925 65.215 47.015C64.795 47.115 64.385 47.165 63.985 47.165ZM70.8825 47.165C70.3425 47.165 69.8575 47.06 69.4275 46.85C68.9975 46.64 68.6625 46.355 68.4225 45.995C68.1825 45.635 68.0625 45.23 68.0625 44.78C68.0625 44.24 68.2025 43.815 68.4825 43.505C68.7625 43.185 69.2175 42.96 69.8475 42.83C70.4775 42.69 71.3125 42.62 72.3525 42.62H73.1475V43.79H72.3675C71.8575 43.79 71.4425 43.82 71.1225 43.88C70.8125 43.93 70.5875 44.02 70.4475 44.15C70.3175 44.28 70.2525 44.46 70.2525 44.69C70.2525 44.97 70.3475 45.2 70.5375 45.38C70.7375 45.56 71.0225 45.65 71.3925 45.65C71.6825 45.65 71.9375 45.585 72.1575 45.455C72.3875 45.315 72.5675 45.13 72.6975 44.9C72.8275 44.66 72.8925 44.39 72.8925 44.09V42.365C72.8925 41.925 72.7925 41.615 72.5925 41.435C72.3925 41.245 72.0525 41.15 71.5725 41.15C71.3025 41.15 71.0075 41.185 70.6875 41.255C70.3775 41.315 70.0325 41.42 69.6525 41.57C69.4325 41.67 69.2375 41.695 69.0675 41.645C68.8975 41.585 68.7675 41.485 68.6775 41.345C68.5875 41.195 68.5425 41.035 68.5425 40.865C68.5425 40.685 68.5925 40.515 68.6925 40.355C68.7925 40.185 68.9575 40.06 69.1875 39.98C69.6575 39.79 70.0975 39.66 70.5075 39.59C70.9275 39.52 71.3125 39.485 71.6625 39.485C72.4325 39.485 73.0625 39.6 73.5525 39.83C74.0525 40.05 74.4275 40.395 74.6775 40.865C74.9275 41.325 75.0525 41.92 75.0525 42.65V45.98C75.0525 46.35 74.9625 46.635 74.7825 46.835C74.6025 47.035 74.3425 47.135 74.0025 47.135C73.6625 47.135 73.3975 47.035 73.2075 46.835C73.0275 46.635 72.9375 46.35 72.9375 45.98V45.425L73.0425 45.515C72.9825 45.855 72.8525 46.15 72.6525 46.4C72.4625 46.64 72.2175 46.83 71.9175 46.97C71.6175 47.1 71.2725 47.165 70.8825 47.165ZM77.9121 47.135C77.5421 47.135 77.2571 47.035 77.0571 46.835C76.8671 46.635 76.7721 46.35 76.7721 45.98V40.655C76.7721 40.285 76.8671 40.005 77.0571 39.815C77.2571 39.615 77.5321 39.515 77.8821 39.515C78.2421 39.515 78.5171 39.615 78.7071 39.815C78.8971 40.005 78.9921 40.285 78.9921 40.655V41.615L78.8271 41.015C79.0271 40.555 79.3371 40.185 79.7571 39.905C80.1771 39.625 80.6721 39.485 81.2421 39.485C81.8121 39.485 82.2871 39.62 82.6671 39.89C83.0471 40.16 83.3171 40.575 83.4771 41.135H83.2671C83.4871 40.625 83.8221 40.225 84.2721 39.935C84.7321 39.635 85.2571 39.485 85.8471 39.485C86.4171 39.485 86.8821 39.6 87.2421 39.83C87.6121 40.05 87.8871 40.39 88.0671 40.85C88.2471 41.3 88.3371 41.875 88.3371 42.575V45.98C88.3371 46.35 88.2371 46.635 88.0371 46.835C87.8471 47.035 87.5721 47.135 87.2121 47.135C86.8421 47.135 86.5571 47.035 86.3571 46.835C86.1671 46.635 86.0721 46.35 86.0721 45.98V42.65C86.0721 42.16 85.9921 41.805 85.8321 41.585C85.6821 41.355 85.4221 41.24 85.0521 41.24C84.6221 41.24 84.2871 41.39 84.0471 41.69C83.8071 41.99 83.6871 42.415 83.6871 42.965V45.98C83.6871 46.35 83.5871 46.635 83.3871 46.835C83.1971 47.035 82.9221 47.135 82.5621 47.135C82.2021 47.135 81.9221 47.035 81.7221 46.835C81.5221 46.635 81.4221 46.35 81.4221 45.98V42.65C81.4221 42.16 81.3421 41.805 81.1821 41.585C81.0321 41.355 80.7721 41.24 80.4021 41.24C79.9721 41.24 79.6371 41.39 79.3971 41.69C79.1571 41.99 79.0371 42.415 79.0371 42.965V45.98C79.0371 46.75 78.6621 47.135 77.9121 47.135Z" fill="black"/>
</svg>
