<svg width="50" height="50" viewBox="0 0 50 50" fill="none" xmlns="http://www.w3.org/2000/svg">
<path d="M37.2305 15.9987V20.6676C37.2304 20.8592 37.2828 21.0457 37.3801 21.2C37.4773 21.3543 37.6142 21.4683 37.7709 21.5255L44.4458 23.9591C44.5611 24.0011 44.6833 24.0109 44.8025 23.9877C44.9217 23.9645 45.0345 23.9089 45.1318 23.8254C45.2292 23.7419 45.3083 23.6328 45.3628 23.507C45.4174 23.3812 45.4458 23.2422 45.4457 23.1013V13.5651C45.4458 13.4241 45.4174 13.2851 45.3628 13.1593C45.3083 13.0335 45.2292 12.9245 45.1318 12.841C45.0345 12.7575 44.9217 12.7019 44.8025 12.6786C44.6833 12.6554 44.5611 12.6652 44.4458 12.7073L37.7709 15.1409C37.6142 15.198 37.4773 15.312 37.3801 15.4664C37.2828 15.6207 37.2304 15.8072 37.2305 15.9987Z" stroke="black"/>
<rect x="5" y="8" width="32.2292" height="20" rx="3" stroke="black"/>
<path d="M21.431 21C23.786 21 25.6966 18.9844 25.6966 16.5C25.6966 14.0156 23.786 12 21.431 12C19.076 12 17.1654 14.0156 17.1654 16.5C17.1654 18.9844 19.076 21 21.431 21ZM25.2227 22H23.5905C22.9328 22.3187 22.2012 22.5 21.431 22.5C20.6608 22.5 19.9321 22.3187 19.2715 22H17.6393C15.545 22 13.8477 23.7906 13.8477 26V26.5C13.8477 27.3281 14.4845 28 15.2695 28H27.5924C28.3774 28 29.0143 27.3281 29.0143 26.5V26C29.0143 23.7906 27.317 22 25.2227 22Z" fill="black"/>
<path d="M10.4841 46V38.95H11.7741V44.91H15.0941V46H10.4841ZM16.5798 46V38.95H17.8698V46H16.5798ZM22.2016 46L19.0616 38.95H20.4516L22.9816 44.87H22.5616L25.0916 38.95H26.4316L23.2916 46H22.2016ZM27.6286 46V38.95H32.3786V39.96H28.8686V41.91H32.1486V42.93H28.8686V44.98H32.3786V46H27.6286Z" fill="black"/>
</svg>
