<svg width="78" height="78" viewBox="0 0 78 78" fill="none" xmlns="http://www.w3.org/2000/svg">
<g filter="url(#filter0_d)">
<path d="M39 70C58.33 70 74 54.33 74 35C74 15.67 58.33 0 39 0C19.67 0 4 15.67 4 35C4 54.33 19.67 70 39 70Z" fill="black"/>
<path d="M49.6753 22.1992H27.2857C26.5446 22.202 25.8347 22.4976 25.3106 23.0216C24.7866 23.5456 24.491 24.2555 24.4883 24.9966V50.1837L30.0857 44.5863H49.6753C50.4164 44.5835 51.1263 44.2879 51.6504 43.7639C52.1744 43.2399 52.47 42.5299 52.4727 41.7888V24.9966C52.47 24.2555 52.1744 23.5456 51.6504 23.0216C51.1263 22.4976 50.4164 22.202 49.6753 22.1992V22.1992ZM49.6753 41.7888H30.0857L27.2857 44.5863V24.9966H49.6727L49.6753 41.7888Z" fill="white"/>
</g>
<defs>
<filter id="filter0_d" x="0" y="0" width="78" height="78" filterUnits="userSpaceOnUse" color-interpolation-filters="sRGB">
<feFlood flood-opacity="0" result="BackgroundImageFix"/>
<feColorMatrix in="SourceAlpha" type="matrix" values="0 0 0 0 0 0 0 0 0 0 0 0 0 0 0 0 0 0 127 0" result="hardAlpha"/>
<feOffset dy="4"/>
<feGaussianBlur stdDeviation="2"/>
<feComposite in2="hardAlpha" operator="out"/>
<feColorMatrix type="matrix" values="0 0 0 0 0 0 0 0 0 0 0 0 0 0 0 0 0 0 0.25 0"/>
<feBlend mode="normal" in2="BackgroundImageFix" result="effect1_dropShadow"/>
<feBlend mode="normal" in="SourceGraphic" in2="effect1_dropShadow" result="shape"/>
</filter>
</defs>
</svg>
