<svg width="72" height="77" viewBox="0 0 72 77" fill="none" xmlns="http://www.w3.org/2000/svg">
<path d="M69.2352 38.106C70.1887 36.8684 71.1106 35.6035 72 34.3125C71.6268 31.1144 71.2176 27.883 70.7688 24.6297L70.614 24.4809L71.1792 23.5954L69.7632 22.2196C62.7636 15.4244 55.7664 8.63042 48.7668 1.83773L46.8744 0L45.4368 2.25482C42.9874 6.07873 40.3409 9.75389 37.5096 13.2633C37.6644 12.56 37.8336 11.8349 38.0184 11.0816C38.7756 8.008 37.8888 5.9213 37.0104 4.71368C35.3748 2.46143 32.2788 1.21917 28.2888 1.21917C16.9752 1.21917 0.6072 10.7338 0.6072 27.9369C0.6072 30.2982 2.0784 31.9486 4.1832 31.9486C5.7372 31.9486 7.5324 31.0194 9.5484 29.1779C9.738 29.8747 10.0236 30.5331 10.4412 31.0926C11.2404 32.1655 12.4188 32.7571 13.7604 32.7571C14.0616 32.7571 14.3712 32.7289 14.6892 32.6698C14.832 33.4103 15.0936 34.1431 15.5112 34.7822C11.609 37.79 7.55314 40.5629 3.3624 43.0879L0.6996 44.6857L2.8248 46.7493C2.3904 47.0367 1.9548 47.3255 1.5216 47.6053C1.0416 49.9769 0.534 52.3176 0 54.6161C7.686 62.08 15.3708 69.5374 23.0556 77C29.7465 73.1074 36.2194 68.8009 42.4416 64.1025C42.444 64.1064 42.444 64.1115 42.4464 64.1141C43.0248 65.1882 43.968 65.9223 45.258 66.3137C43.0248 69.0716 42.222 71.4342 42.87 73.363C43.3872 74.8992 44.718 75.8168 46.4316 75.8168C62.6148 75.8168 71.5644 58.4173 71.5644 46.3899C71.5644 43.5217 71.0304 41.05 70.02 39.2443C69.7902 38.8409 69.5276 38.46 69.2352 38.106ZM36.6312 17.891C40.4964 13.3672 44.0688 8.59962 47.2704 3.57665C54.27 10.3706 61.2684 17.1633 68.2668 23.9598C65.362 28.4956 62.1883 32.8276 58.7652 36.9292C57.6564 37.1794 56.6088 37.3963 55.6488 37.5632C58.6464 34.1084 61.4868 30.5215 64.0944 26.7626L63.3948 26.0838C62.6208 25.333 62.5092 23.9894 63.1224 23.073C63.3072 22.7933 63.4932 22.5174 63.678 22.2402C59.0112 17.7126 54.3456 13.1811 49.6824 8.65352L49.1268 9.4864C48.5124 10.4001 47.3688 10.5272 46.5984 9.77643L45.8976 9.10012C42.9216 13.389 39.6588 17.4674 36.1812 21.3585C36.2856 20.3139 36.4308 19.1627 36.6312 17.891ZM45.0852 30.4715C42.636 28.0922 39.2064 27.5545 36.138 28.635C36.0456 27.9895 35.9124 26.6356 35.9736 24.5052C39.6343 20.5684 43.0572 16.3865 46.2216 11.9851C47.4132 12.646 48.8304 12.4984 49.8768 11.5847L61.2504 22.6252C60.7152 24.0343 60.8448 25.6872 61.6176 26.9346C58.8576 30.7885 55.8624 34.4652 52.692 37.9905C51.3622 38.1489 50.0256 38.2325 48.6876 38.2408C48.3048 38.2408 47.9664 38.2305 47.6508 38.2164C48.0816 35.4547 47.1972 32.521 45.0852 30.4715ZM14.0184 30.3727C13.9344 30.3804 13.8408 30.3996 13.7616 30.3996C11.0796 30.3996 11.3424 26.2891 11.6268 24.2986C13.1064 22.7227 14.4984 21.0775 15.9516 19.5221C17.4852 17.8512 19.0968 16.2701 20.91 15.0099C22.722 13.7599 24.78 12.8731 27.0108 12.6524C24.7824 12.406 22.4532 13.0271 20.4672 14.2181C18.456 15.3872 16.7388 17.0067 15.1596 18.6982C13.5912 20.4076 12.1524 22.2145 10.7028 23.9919C9.2424 25.7462 7.7976 27.507 6.0348 28.9571C5.2944 29.3909 4.6728 29.5898 4.182 29.5898C3.288 29.5898 2.8224 28.9456 2.8224 27.9356C2.8224 11.8464 18.4548 3.57537 28.2864 3.57537C33.4464 3.57537 37.0104 5.85713 35.868 10.4848C32.5584 23.9316 34.08 29.731 34.08 29.731C32.784 32.3169 30.2856 33.1575 30.2856 33.1575C28.9241 32.7649 27.5197 32.5685 26.1096 32.5736C23.2848 32.5736 21.2868 33.323 21.2868 33.323C20.2308 33.9621 19.4148 34.2201 18.7848 34.2201C16.5048 34.2201 16.6776 30.8218 16.8048 29.645C17.106 29.4936 17.3988 29.3293 17.6808 29.1522C18.8112 28.4566 19.8096 27.584 20.784 26.7293C21.7464 25.8592 22.6824 24.9904 23.6736 24.2268C24.6684 23.4747 25.7388 22.8485 27.0084 22.5969C26.6874 22.5358 26.361 22.513 26.0352 22.5289C25.056 22.5764 24.0732 22.946 23.2176 23.4426C22.0524 24.101 21.0456 24.9711 20.0688 25.8271C19.1052 26.7036 18.1716 27.5814 17.1996 28.3886C16.2312 29.1843 15.21 29.8901 14.0184 30.3727ZM38.31 56.6912C34.1855 59.8971 29.8916 62.846 25.4496 65.5231C18.4512 58.7266 11.454 51.9378 4.4544 45.14C8.90627 42.4576 13.2094 39.5023 17.3424 36.2888C17.7924 36.4672 18.2736 36.5801 18.786 36.5801C19.3116 36.5801 19.8624 36.4826 20.4432 36.2927C17.125 38.9748 13.6874 41.4837 10.1424 43.8104C10.3752 44.0376 10.6104 44.2647 10.842 44.4932C11.6124 45.2413 11.484 46.3489 10.5432 46.9431C10.2552 47.1227 9.9696 47.3037 9.684 47.4808L23.6808 61.07C23.9688 60.8903 24.2532 60.7132 24.54 60.5284C25.482 59.9355 26.868 60.0459 27.6396 60.7941L28.3392 61.4768C31.9916 59.0754 35.5299 56.4811 38.9412 53.7036C38.4852 54.7855 38.2764 55.7839 38.31 56.6912ZM39.7416 50.5377C36.1432 53.5899 32.3964 56.4365 28.5168 59.0654C27.2304 58.3172 25.5264 58.1928 24.0804 58.7138L12.7056 47.6733C13.644 46.6581 13.7964 45.2799 13.1184 44.1223C17.2672 41.3152 21.2652 38.2607 25.0932 34.9734C25.4172 34.949 25.7532 34.9323 26.1108 34.9323C27.323 34.9279 28.5304 35.0958 29.7012 35.4315L29.9064 35.4919C29.316 38.1484 30.0228 40.9486 32.1576 43.0212C34.1184 44.9231 36.8628 45.7957 39.5244 45.575C39.9096 47.4577 39.888 49.2004 39.7416 50.5377ZM46.4304 73.4593C44.9556 73.4593 44.3244 72.2581 45.486 70.0225C46.848 68.1604 48.498 66.6281 50.1408 65.0843C51.8124 63.5442 53.5116 62.0119 55.1208 60.3462C56.7096 58.6676 58.2348 56.844 59.334 54.7046C60.4536 52.5936 61.0392 50.1167 60.8076 47.7477C60.5988 50.1193 59.7672 52.3087 58.59 54.2362C57.4044 56.1625 55.9164 57.8758 54.3456 59.5069C52.8828 61.0495 51.336 62.5291 49.8552 64.1012C49.284 64.1936 48.5304 64.2834 47.7552 64.2834C45.9156 64.2834 43.974 63.7714 44.1312 61.5833C44.5848 60.3051 45.2532 59.2117 46.0044 58.1735C46.764 57.1404 47.5896 56.1484 48.414 55.1243C49.2204 54.0848 50.0388 53.0145 50.6568 51.7774C51.2784 50.5646 51.69 49.1119 51.4524 47.7477C51.2172 49.0978 50.628 50.2361 49.9212 51.2936C49.2036 52.3472 48.3864 53.343 47.5656 54.3671C46.7628 55.4041 45.9408 56.4654 45.288 57.6666C45.1198 57.9684 44.9656 58.2789 44.826 58.597C44.4586 58.6412 44.0893 58.6643 43.7196 58.6663C41.8452 58.6663 39.1236 58.0259 41.3652 53.8307C41.3652 53.8307 42.8412 49.3814 41.5212 44.2647C41.5212 44.2647 42.3108 41.6082 44.742 40.2299C44.742 40.2299 45.9936 40.6008 48.6876 40.6008C51.618 40.6008 56.256 40.1619 62.8476 38.328C63.3521 38.1826 63.8719 38.1062 64.3944 38.1009C74.94 38.1009 68.5044 73.4593 46.4304 73.4593Z" fill="#477D3E"/>
</svg>
