<svg width="71" height="70" viewBox="0 0 71 70" fill="none" xmlns="http://www.w3.org/2000/svg">
<path d="M49.7082 0.0898438H7.88363C3.75199 0.0898438 0.390625 3.45121 0.390625 7.58285V10.9888H49.7082V0.0898438Z" fill="white"/>
<path d="M62.6522 0.0898438H53.7969V10.9888H70.1453V7.58285C70.1453 3.45121 66.7839 0.0898438 62.6522 0.0898438Z" fill="white"/>
<path d="M0.390625 14.0898H70.3906V59.0898C70.3906 64.6127 65.9135 69.0898 60.3906 69.0898H10.3906C4.86778 69.0898 0.390625 64.6127 0.390625 59.0898V14.0898Z" fill="white"/>
<path d="M55.3906 38.0898C50.9906 38.0898 47.3906 41.6898 47.3906 46.0898C47.3906 47.6898 47.8906 49.2898 48.7906 50.6898C48.9906 50.9898 49.2906 51.0898 49.5906 51.0898C49.8906 51.0898 50.1906 50.8898 50.3906 50.6898C51.0906 49.6898 52.0906 48.8898 53.2906 48.4898L57.5906 42.4898C57.8906 42.0898 58.4906 41.8898 58.9906 42.2898C59.3906 42.5898 59.5906 43.1898 59.1906 43.6898L55.9906 48.0898C57.6906 48.2898 59.2906 49.1898 60.2906 50.5898C60.4906 50.8898 60.7906 50.9898 61.0906 50.9898C61.3906 50.9898 61.6906 50.7898 61.8906 50.5898C62.7906 49.2898 63.2906 47.6898 63.2906 45.9898C63.3906 41.6898 59.7906 38.0898 55.3906 38.0898Z" fill="#9C528B"/>
<path d="M45.3906 46.0898C45.3906 40.5898 49.8906 36.0898 55.3906 36.0898C58.6906 36.0898 61.5906 37.6898 63.3906 40.0898V29.0898C63.3906 27.3898 62.0906 26.0898 60.3906 26.0898H38.3906C36.6906 26.0898 35.3906 27.3898 35.3906 29.0898V47.0898C35.3906 48.7898 36.6906 50.0898 38.3906 50.0898H46.1906C45.6906 48.7898 45.3906 47.4898 45.3906 46.0898ZM45.4906 29.6898C45.5906 29.5898 45.5906 29.4898 45.6906 29.3898C46.0906 28.9898 46.6906 28.9898 47.0906 29.3898C47.1906 29.4898 47.2906 29.5898 47.2906 29.6898C47.3906 29.7898 47.3906 29.9898 47.3906 30.0898C47.3906 30.1898 47.3906 30.3898 47.2906 30.4898C47.1906 30.5898 47.1906 30.6898 47.0906 30.7898C46.8906 30.9898 46.6906 31.0898 46.3906 31.0898C46.2906 31.0898 46.0906 31.0898 45.9906 30.9898C45.8906 30.8898 45.7906 30.8898 45.6906 30.7898C45.5906 30.6898 45.4906 30.5898 45.4906 30.4898C45.3906 30.3898 45.3906 30.1898 45.3906 30.0898C45.3906 29.9898 45.3906 29.7898 45.4906 29.6898ZM42.4906 29.6898C42.5906 29.5898 42.5906 29.4898 42.6906 29.3898C42.7906 29.2898 42.8906 29.1898 42.9906 29.1898C43.3906 28.9898 43.7906 29.0898 44.0906 29.3898C44.1906 29.4898 44.2906 29.5898 44.2906 29.6898C44.3906 29.7898 44.3906 29.9898 44.3906 30.0898C44.3906 30.3898 44.2906 30.5898 44.0906 30.7898C43.8906 30.9898 43.6906 31.0898 43.3906 31.0898C43.0906 31.0898 42.8906 30.9898 42.6906 30.7898C42.4906 30.5898 42.3906 30.3898 42.3906 30.0898C42.3906 29.9898 42.3906 29.7898 42.4906 29.6898ZM39.6906 29.3898L39.7906 29.2898C39.8906 29.2898 39.8906 29.1898 39.9906 29.1898C40.0906 29.0898 40.0906 29.0898 40.1906 29.0898C40.2906 29.0898 40.4906 29.0898 40.5906 29.0898C40.6906 29.0898 40.6906 29.0898 40.7906 29.1898C40.8906 29.1898 40.8906 29.2898 40.9906 29.2898L41.0906 29.3898C41.1906 29.4898 41.2906 29.5898 41.2906 29.6898C41.3906 29.7898 41.3906 29.9898 41.3906 30.0898C41.3906 30.1898 41.3906 30.3898 41.2906 30.4898C41.2906 30.5898 41.1906 30.6898 41.0906 30.7898C40.8906 30.9898 40.6906 31.0898 40.3906 31.0898C40.0906 31.0898 39.8906 30.9898 39.6906 30.7898C39.4906 30.5898 39.3906 30.3898 39.3906 30.0898C39.3906 29.7898 39.4906 29.5898 39.6906 29.3898ZM40.3906 36.0898H45.3906C45.9906 36.0898 46.3906 36.4898 46.3906 37.0898C46.3906 37.6898 45.9906 38.0898 45.3906 38.0898H40.3906C39.7906 38.0898 39.3906 37.6898 39.3906 37.0898C39.3906 36.4898 39.7906 36.0898 40.3906 36.0898ZM42.3906 41.0898H40.3906C39.7906 41.0898 39.3906 40.6898 39.3906 40.0898C39.3906 39.4898 39.7906 39.0898 40.3906 39.0898H42.3906C42.9906 39.0898 43.3906 39.4898 43.3906 40.0898C43.3906 40.6898 42.9906 41.0898 42.3906 41.0898Z" fill="#9C528B"/>
<g clip-path="url(#clip0_2058_867)">
<path fill-rule="evenodd" clip-rule="evenodd" d="M15.3893 45.0905V40.0905H19.3893V45.0905C19.3893 45.6405 19.8393 46.0905 20.3893 46.0905H23.3893C23.9393 46.0905 24.3893 45.6405 24.3893 45.0905V38.0905H26.0893C26.5493 38.0905 26.7693 37.5205 26.4193 37.2205L18.0593 29.6905C17.6793 29.3505 17.0993 29.3505 16.7193 29.6905L8.35926 37.2205C8.01926 37.5205 8.22926 38.0905 8.68926 38.0905H10.3893V45.0905C10.3893 45.6405 10.8393 46.0905 11.3893 46.0905H14.3893C14.9393 46.0905 15.3893 45.6405 15.3893 45.0905Z" fill="#9C528B"/>
</g>
<line x1="40.8906" y1="57.5898" x2="58.9144" y2="57.5898" stroke="#9C528B" stroke-width="3" stroke-linecap="round"/>
<line x1="7.89062" y1="57.5898" x2="25.9144" y2="57.5898" stroke="#9C528B" stroke-width="3" stroke-linecap="round"/>
<defs>
<clipPath id="clip0_2058_867">
<rect width="20" height="17" fill="white" transform="translate(7.39062 29.0898)"/>
</clipPath>
</defs>
</svg>
