<svg width="32" height="32" viewBox="0 0 32 32" fill="none" xmlns="http://www.w3.org/2000/svg">
<path d="M21.0479 10.0618L9.38974 15.2087C8.73536 15.5087 8.95536 16.5005 9.67536 16.5005H15.2504C15.3167 16.5005 15.3803 16.5269 15.4271 16.5738C15.474 16.6206 15.5004 16.6842 15.5004 16.7505V22.3243C15.5004 23.0443 16.5004 23.2618 16.7991 22.6093L21.9379 10.9518C21.9954 10.8272 22.0133 10.688 21.9892 10.5529C21.9652 10.4179 21.9002 10.2934 21.8032 10.1964C21.7062 10.0994 21.5818 10.0345 21.4467 10.0104C21.3116 9.98633 21.1724 10.0043 21.0479 10.0618Z" fill="black"/>
<path d="M28 16C28 9.375 22.625 4 16 4C9.375 4 4 9.375 4 16C4 22.625 9.375 28 16 28C22.625 28 28 22.625 28 16Z" stroke="black" stroke-miterlimit="10"/>
</svg>
