<svg xmlns="http://www.w3.org/2000/svg" width="13" height="16" viewBox="0 0 13 16" fill="none">
<path d="M3.2 0H1.6C1.17565 0 0.768688 0.168571 0.468629 0.468629C0.168571 0.768687 0 1.17565 0 1.6V14.4C0 14.8243 0.168571 15.2313 0.468629 15.5314C0.768688 15.8314 1.17565 16 1.6 16H3.2C3.62435 16 4.03131 15.8314 4.33137 15.5314C4.63143 15.2313 4.8 14.8243 4.8 14.4V1.6C4.8 1.17565 4.63143 0.768687 4.33137 0.468629C4.03131 0.168571 3.62435 0 3.2 0ZM11.2 0H9.6C9.17565 0 8.76869 0.168571 8.46863 0.468629C8.16857 0.768687 8 1.17565 8 1.6V14.4C8 14.8243 8.16857 15.2313 8.46863 15.5314C8.76869 15.8314 9.17565 16 9.6 16H11.2C11.6243 16 12.0313 15.8314 12.3314 15.5314C12.6314 15.2313 12.8 14.8243 12.8 14.4V1.6C12.8 1.17565 12.6314 0.768687 12.3314 0.468629C12.0313 0.168571 11.6243 0 11.2 0Z" fill="#7CB4B8"/>
</svg>