<svg xmlns="http://www.w3.org/2000/svg" width="40" height="50" viewBox="0 0 40 50" fill="none">
<path d="M34.97 50C36.2961 50 37.5679 49.4732 38.5055 48.5355C39.4432 47.5979 39.97 46.3261 39.97 45V5C39.97 3.67392 39.4432 2.40215 38.5055 1.46447C37.5679 0.526784 36.2961 0 34.97 0H5C3.67392 0 2.40215 0.526784 1.46447 1.46447C0.526784 2.40215 0 3.67392 0 5V45C0 46.3261 0.526784 47.5979 1.46447 48.5355C2.40215 49.4732 3.67392 50 5 50H34.97ZM12.5 7.5H27.5V12.5H12.5V7.5ZM25.625 23.125C25.6191 24.6152 25.0246 26.0428 23.9711 27.0968C22.9175 28.1508 21.4902 28.7459 20 28.7525C16.9125 28.7525 14.375 26.215 14.375 23.125C14.375 20.035 16.9125 17.5 20 17.5C21.49 17.5059 22.9173 18.1005 23.9709 19.1541C25.0245 20.2077 25.6191 21.635 25.625 23.125ZM8.75 40.47C8.75 36.31 13.82 32.0325 20 32.0325C26.18 32.0325 31.25 36.31 31.25 40.47V41.8775H8.75V40.47Z" fill="black"/>
</svg>