<svg xmlns="http://www.w3.org/2000/svg" width="60" height="60" viewBox="0 0 60 60" fill="none">
<circle cx="30" cy="30" r="30" fill="white"/>
<circle cx="49" cy="52" r="6" fill="#339B31"/>
<path d="M37.1 37.6667V41H14V37.6667C14 37.6667 14 31 25.55 31C37.1 31 37.1 37.6667 37.1 37.6667ZM31.325 21.8334C31.325 20.6797 30.9863 19.5519 30.3517 18.5926C29.7172 17.6333 28.8152 16.8856 27.76 16.4441C26.7048 16.0026 25.5436 15.8871 24.4234 16.1122C23.3031 16.3373 22.2741 16.8928 21.4665 17.7086C20.6588 18.5244 20.1088 19.5638 19.886 20.6954C19.6631 21.8269 19.7775 22.9998 20.2146 24.0657C20.6517 25.1316 21.3919 26.0427 22.3416 26.6836C23.2913 27.3246 24.4078 27.6667 25.55 27.6667C27.0816 27.6667 28.5505 27.0521 29.6335 25.9582C30.7166 24.8642 31.325 23.3805 31.325 21.8334ZM37.001 31C38.0153 31.7929 38.8453 32.8007 39.4326 33.9525C40.0198 35.1043 40.35 36.3721 40.4 37.6667V41H47V37.6667C47 37.6667 47 31.6167 37.001 31ZM35.45 16.0001C34.3143 15.9937 33.2036 16.3367 32.2655 16.9834C33.2678 18.398 33.8067 20.0939 33.8067 21.8334C33.8067 23.5729 33.2678 25.2688 32.2655 26.6834C33.2036 27.3301 34.3143 27.6731 35.45 27.6667C36.9816 27.6667 38.4505 27.0521 39.5335 25.9582C40.6166 24.8642 41.225 23.3805 41.225 21.8334C41.225 20.2863 40.6166 18.8026 39.5335 17.7086C38.4505 16.6147 36.9816 16.0001 35.45 16.0001Z" fill="black"/>
</svg>