<svg width="70" height="70" viewBox="0 0 70 70" fill="none" xmlns="http://www.w3.org/2000/svg">
<g clip-path="url(#clip0)">
<g filter="url(#filter0_d)">
<ellipse cx="35" cy="19.0476" rx="20" ry="19.0476" fill="white"/>
</g>
<path d="M52.5 33.3385C52.5 36.7216 49.6131 39.5052 46 39.5052C42.3869 39.5052 39.5 36.7216 39.5 33.3385C39.5 29.9555 42.3869 27.1719 46 27.1719C49.6131 27.1719 52.5 29.9555 52.5 33.3385Z" stroke="#D33325"/>
<ellipse cx="46" cy="33.34" rx="5" ry="4.7619" fill="#D33325"/>
<path d="M35.8262 18.0098C36.4892 18.0098 37.125 18.2834 37.5939 18.7705C38.0627 19.2575 38.3261 19.9181 38.3261 20.6069L38.3244 21.902C38.4961 25.0827 36.1378 26.6687 31.7664 26.6687C27.4099 26.667 25 25.1035 25 21.9488V20.6069C25 19.9181 25.2634 19.2575 25.7322 18.7705C26.201 18.2834 26.8369 18.0098 27.4999 18.0098H35.8262ZM42.4925 18.0098C43.1556 18.0098 43.7914 18.2834 44.2602 18.7705C44.729 19.2575 44.9924 19.9181 44.9924 20.6069V21.5194C45.1424 24.3711 43.0592 25.8013 39.2527 25.8013C38.736 25.8013 38.2494 25.7753 37.7961 25.7233C38.2794 25.2593 38.641 24.707 38.871 24.0646L39.2527 24.0698C42.2259 24.0698 43.4142 23.2543 43.3258 21.5661V20.6069C43.3258 20.3773 43.238 20.1571 43.0818 19.9948C42.9255 19.8324 42.7135 19.7412 42.4925 19.7412H39.0544C38.8871 19.0705 38.5301 18.4674 38.0294 18.0098H42.4925ZM35.8262 19.7412H27.4999C27.2789 19.7412 27.0669 19.8324 26.9107 19.9948C26.7544 20.1571 26.6666 20.3773 26.6666 20.6069V21.9488C26.6666 23.9313 28.2132 24.9355 31.7664 24.9355C35.3062 24.9355 36.7661 23.9538 36.6595 21.9488V20.6069C36.6595 20.3773 36.5717 20.1571 36.4154 19.9948C36.2591 19.8324 36.0472 19.7412 35.8262 19.7412ZM31.6664 7.62109C32.7714 7.62109 33.8311 8.07714 34.6125 8.88891C35.3939 9.70069 35.8328 10.8017 35.8328 11.9497C35.8328 13.0977 35.3939 14.1987 34.6125 15.0105C33.8311 15.8223 32.7714 16.2783 31.6664 16.2783C30.5613 16.2783 29.5016 15.8223 28.7202 15.0105C27.9389 14.1987 27.4999 13.0977 27.4999 11.9497C27.4999 10.8017 27.9389 9.70069 28.7202 8.88891C29.5016 8.07714 30.5613 7.62109 31.6664 7.62109ZM39.9993 9.35254C40.8833 9.35254 41.7311 9.71738 42.3562 10.3668C42.9813 11.0162 43.3325 11.897 43.3325 12.8154C43.3325 13.7338 42.9813 14.6146 42.3562 15.2641C41.7311 15.9135 40.8833 16.2783 39.9993 16.2783C39.1153 16.2783 38.2675 15.9135 37.6424 15.2641C37.0173 14.6146 36.6661 13.7338 36.6661 12.8154C36.6661 11.897 37.0173 11.0162 37.6424 10.3668C38.2675 9.71738 39.1153 9.35254 39.9993 9.35254ZM31.6664 9.35254C31.0034 9.35254 30.3675 9.62617 29.8987 10.1132C29.4299 10.6003 29.1665 11.2609 29.1665 11.9497C29.1665 12.6385 29.4299 13.2991 29.8987 13.7862C30.3675 14.2732 31.0034 14.5469 31.6664 14.5469C32.3294 14.5469 32.9652 14.2732 33.4341 13.7862C33.9029 13.2991 34.1663 12.6385 34.1663 11.9497C34.1663 11.2609 33.9029 10.6003 33.4341 10.1132C32.9652 9.62617 32.3294 9.35254 31.6664 9.35254ZM39.9993 11.084C39.5573 11.084 39.1334 11.2664 38.8209 11.5911C38.5083 11.9158 38.3327 12.3562 38.3327 12.8154C38.3327 13.2746 38.5083 13.715 38.8209 14.0397C39.1334 14.3645 39.5573 14.5469 39.9993 14.5469C40.4413 14.5469 40.8652 14.3645 41.1778 14.0397C41.4903 13.715 41.6659 13.2746 41.6659 12.8154C41.6659 12.3562 41.4903 11.9158 41.1778 11.5911C40.8652 11.2664 40.4413 11.084 39.9993 11.084Z" fill="black"/>
<path d="M29.6772 47.88H32.7672C33.5339 47.88 34.1306 48.0667 34.5572 48.44C34.9839 48.8067 35.1972 49.31 35.1972 49.95C35.1972 50.59 34.9806 51.0967 34.5472 51.47C34.1206 51.8433 33.5272 52.03 32.7672 52.03H30.9672V55H29.6772V47.88ZM32.6172 51.03C33.0639 51.03 33.4006 50.94 33.6272 50.76C33.8606 50.5733 33.9772 50.3067 33.9772 49.96C33.9772 49.6067 33.8639 49.34 33.6372 49.16C33.4106 48.9733 33.0706 48.88 32.6172 48.88H30.9672V51.03H32.6172ZM38.3414 48.94H36.0214V47.88H41.9714V48.94H39.6414V55H38.3414V48.94Z" fill="black"/>
</g>
<defs>
<filter id="filter0_d" x="8" y="-5" width="54" height="52.0952" filterUnits="userSpaceOnUse" color-interpolation-filters="sRGB">
<feFlood flood-opacity="0" result="BackgroundImageFix"/>
<feColorMatrix in="SourceAlpha" type="matrix" values="0 0 0 0 0 0 0 0 0 0 0 0 0 0 0 0 0 0 127 0" result="hardAlpha"/>
<feOffset dy="2"/>
<feGaussianBlur stdDeviation="3.5"/>
<feColorMatrix type="matrix" values="0 0 0 0 0 0 0 0 0 0 0 0 0 0 0 0 0 0 0.2 0"/>
<feBlend mode="normal" in2="BackgroundImageFix" result="effect1_dropShadow"/>
<feBlend mode="normal" in="SourceGraphic" in2="effect1_dropShadow" result="shape"/>
</filter>
<clipPath id="clip0">
<rect width="70" height="70" fill="white"/>
</clipPath>
</defs>
</svg>
