<svg width="70" height="70" viewBox="0 0 70 70" fill="none" xmlns="http://www.w3.org/2000/svg">
<g clip-path="url(#clip0)">
<g filter="url(#filter0_d)">
<ellipse cx="35" cy="19.5196" rx="20" ry="19.5196" fill="white"/>
</g>
<path d="M52.5 34.1678C52.5 37.6534 49.6014 40.4996 46 40.4996C42.3986 40.4996 39.5 37.6534 39.5 34.1678C39.5 30.6822 42.3986 27.8359 46 27.8359C49.6014 27.8359 52.5 30.6822 52.5 34.1678Z" stroke="#339B31"/>
<ellipse cx="46" cy="34.169" rx="5" ry="4.87989" fill="#62D05F"/>
<path d="M35.8262 18.4547C36.4892 18.4547 37.125 18.7351 37.5939 19.2342C38.0627 19.7333 38.3261 20.4103 38.3261 21.1162L38.3244 22.4434C38.4961 25.7029 36.1378 27.3282 31.7664 27.3282C27.4099 27.3264 25 25.7242 25 22.4913V21.1162C25 20.4103 25.2634 19.7333 25.7322 19.2342C26.201 18.7351 26.8369 18.4547 27.4999 18.4547H35.8262ZM42.4925 18.4547C43.1556 18.4547 43.7914 18.7351 44.2602 19.2342C44.729 19.7333 44.9924 20.4103 44.9924 21.1162V22.0513C45.1424 24.9736 43.0592 26.4392 39.2527 26.4392C38.736 26.4392 38.2494 26.4126 37.7961 26.3594C38.2794 25.8838 38.641 25.3178 38.871 24.6595L39.2527 24.6649C42.2259 24.6649 43.4142 23.8292 43.3258 22.0992V21.1162C43.3258 20.8809 43.238 20.6552 43.0818 20.4889C42.9255 20.3225 42.7135 20.229 42.4925 20.229H39.0544C38.8871 19.5417 38.5301 18.9236 38.0294 18.4547H42.4925ZM35.8262 20.229H27.4999C27.2789 20.229 27.0669 20.3225 26.9107 20.4889C26.7544 20.6552 26.6666 20.8809 26.6666 21.1162V22.4913C26.6666 24.5229 28.2132 25.552 31.7664 25.552C35.3062 25.552 36.7661 24.546 36.6595 22.4913V21.1162C36.6595 20.8809 36.5717 20.6552 36.4154 20.4889C36.2591 20.3225 36.0472 20.229 35.8262 20.229ZM31.6664 7.80859C32.7714 7.80859 33.8311 8.27594 34.6125 9.10783C35.3939 9.93971 35.8328 11.068 35.8328 12.2445C35.8328 13.4209 35.3939 14.5492 34.6125 15.3811C33.8311 16.213 32.7714 16.6803 31.6664 16.6803C30.5613 16.6803 29.5016 16.213 28.7202 15.3811C27.9389 14.5492 27.4999 13.4209 27.4999 12.2445C27.4999 11.068 27.9389 9.93971 28.7202 9.10783C29.5016 8.27594 30.5613 7.80859 31.6664 7.80859ZM39.9993 9.58294C40.8833 9.58294 41.7311 9.95682 42.3562 10.6223C42.9813 11.2878 43.3325 12.1905 43.3325 13.1316C43.3325 14.0728 42.9813 14.9754 42.3562 15.6409C41.7311 16.3064 40.8833 16.6803 39.9993 16.6803C39.1153 16.6803 38.2675 16.3064 37.6424 15.6409C37.0173 14.9754 36.6661 14.0728 36.6661 13.1316C36.6661 12.1905 37.0173 11.2878 37.6424 10.6223C38.2675 9.95682 39.1153 9.58294 39.9993 9.58294ZM31.6664 9.58294C31.0034 9.58294 30.3675 9.86335 29.8987 10.3625C29.4299 10.8616 29.1665 11.5386 29.1665 12.2445C29.1665 12.9503 29.4299 13.6273 29.8987 14.1264C30.3675 14.6256 31.0034 14.906 31.6664 14.906C32.3294 14.906 32.9652 14.6256 33.4341 14.1264C33.9029 13.6273 34.1663 12.9503 34.1663 12.2445C34.1663 11.5386 33.9029 10.8616 33.4341 10.3625C32.9652 9.86335 32.3294 9.58294 31.6664 9.58294ZM39.9993 11.3573C39.5573 11.3573 39.1334 11.5442 38.8209 11.877C38.5083 12.2097 38.3327 12.661 38.3327 13.1316C38.3327 13.6022 38.5083 14.0535 38.8209 14.3863C39.1334 14.719 39.5573 14.906 39.9993 14.906C40.4413 14.906 40.8652 14.719 41.1778 14.3863C41.4903 14.0535 41.6659 13.6022 41.6659 13.1316C41.6659 12.661 41.4903 12.2097 41.1778 11.877C40.8652 11.5442 40.4413 11.3573 39.9993 11.3573Z" fill="black"/>
<path d="M29.6772 46.88H32.7672C33.5339 46.88 34.1306 47.0667 34.5572 47.44C34.9839 47.8067 35.1972 48.31 35.1972 48.95C35.1972 49.59 34.9806 50.0967 34.5472 50.47C34.1206 50.8433 33.5272 51.03 32.7672 51.03H30.9672V54H29.6772V46.88ZM32.6172 50.03C33.0639 50.03 33.4006 49.94 33.6272 49.76C33.8606 49.5733 33.9772 49.3067 33.9772 48.96C33.9772 48.6067 33.8639 48.34 33.6372 48.16C33.4106 47.9733 33.0706 47.88 32.6172 47.88H30.9672V50.03H32.6172ZM38.3414 47.94H36.0214V46.88H41.9714V47.94H39.6414V54H38.3414V47.94Z" fill="black"/>
</g>
<defs>
<filter id="filter0_d" x="8" y="-5" width="54" height="53.0391" filterUnits="userSpaceOnUse" color-interpolation-filters="sRGB">
<feFlood flood-opacity="0" result="BackgroundImageFix"/>
<feColorMatrix in="SourceAlpha" type="matrix" values="0 0 0 0 0 0 0 0 0 0 0 0 0 0 0 0 0 0 127 0" result="hardAlpha"/>
<feOffset dy="2"/>
<feGaussianBlur stdDeviation="3.5"/>
<feColorMatrix type="matrix" values="0 0 0 0 0 0 0 0 0 0 0 0 0 0 0 0 0 0 0.2 0"/>
<feBlend mode="normal" in2="BackgroundImageFix" result="effect1_dropShadow"/>
<feBlend mode="normal" in="SourceGraphic" in2="effect1_dropShadow" result="shape"/>
</filter>
<clipPath id="clip0">
<rect width="70" height="70" fill="white"/>
</clipPath>
</defs>
</svg>
