<svg width="32" height="32" viewBox="0 0 32 32" fill="none" xmlns="http://www.w3.org/2000/svg">
<g filter="url(#filter0_d_8603_9781)">
<path d="M16 23.9011C22.6274 23.9011 28 18.5507 28 11.9505C28 5.35044 22.6274 0 16 0C9.37258 0 4 5.35044 4 11.9505C4 18.5507 9.37258 23.9011 16 23.9011Z" fill="white"/>
<path d="M17.2889 8.92412C17.7617 9.016 18.1961 9.24628 18.5368 9.58549C18.8774 9.9247 19.1086 10.3574 19.2009 10.8282L17.2889 8.92412ZM17.2889 6.99609C18.2712 7.10466 19.1872 7.54272 19.8865 8.23831C20.5858 8.9339 21.0267 9.84566 21.1369 10.8238L17.2889 6.99609ZM20.6542 14.671V16.1139C20.6548 16.2482 20.6271 16.381 20.5731 16.504C20.5191 16.627 20.4399 16.7374 20.3406 16.8282C20.2413 16.9189 20.124 16.988 19.9963 17.031C19.8686 17.074 19.7333 17.09 19.5991 17.0779C18.1094 16.9168 16.6785 16.4098 15.4213 15.5978C14.2516 14.8587 13.2595 13.8723 12.5155 12.7085C11.6975 11.451 11.1883 10.0193 11.0293 8.52931C11.0172 8.39598 11.0331 8.26161 11.0761 8.13475C11.119 8.00789 11.188 7.89133 11.2786 7.79248C11.3692 7.69363 11.4796 7.61466 11.6025 7.56061C11.7255 7.50656 11.8585 7.47861 11.9929 7.47854H13.4453C13.6803 7.47625 13.908 7.55915 14.0861 7.71176C14.2642 7.86438 14.3805 8.0763 14.4133 8.308C14.4746 8.77074 14.5882 9.22509 14.752 9.66239C14.8171 9.83493 14.8312 10.0224 14.7926 10.2027C14.754 10.383 14.6644 10.5485 14.5342 10.6795L13.9191 11.2921C14.6084 12.4989 15.612 13.4981 16.824 14.1841L17.4391 13.5716C17.5707 13.4419 17.7369 13.3526 17.9179 13.3142C18.0989 13.2757 18.2872 13.2898 18.4604 13.3547C18.8995 13.5178 19.3558 13.6309 19.8204 13.6919C20.0559 13.7247 20.271 13.8426 20.4248 14.0232C20.5785 14.2037 20.6602 14.4343 20.6542 14.671Z" stroke="black" stroke-width="1.51852" stroke-linecap="round" stroke-linejoin="round"/>
</g>
<defs>
<filter id="filter0_d_8603_9781" x="0" y="0" width="32" height="31.9023" filterUnits="userSpaceOnUse" color-interpolation-filters="sRGB">
<feFlood flood-opacity="0" result="BackgroundImageFix"/>
<feColorMatrix in="SourceAlpha" type="matrix" values="0 0 0 0 0 0 0 0 0 0 0 0 0 0 0 0 0 0 127 0" result="hardAlpha"/>
<feOffset dy="4"/>
<feGaussianBlur stdDeviation="2"/>
<feComposite in2="hardAlpha" operator="out"/>
<feColorMatrix type="matrix" values="0 0 0 0 0 0 0 0 0 0 0 0 0 0 0 0 0 0 0.25 0"/>
<feBlend mode="normal" in2="BackgroundImageFix" result="effect1_dropShadow_8603_9781"/>
<feBlend mode="normal" in="SourceGraphic" in2="effect1_dropShadow_8603_9781" result="shape"/>
</filter>
</defs>
</svg>
