<svg width="78" height="78" viewBox="0 0 78 78" fill="none" xmlns="http://www.w3.org/2000/svg">
<g filter="url(#filter0_d)">
<path d="M39 70C58.33 70 74 54.33 74 35C74 15.67 58.33 0 39 0C19.67 0 4 15.67 4 35C4 54.33 19.67 70 39 70Z" fill="black"/>
<path d="M42.7568 26.131C44.1357 26.4002 45.403 27.0746 46.3964 28.068C47.3899 29.0615 48.0643 30.3288 48.3334 31.7077L42.7568 26.131ZM42.7568 20.4844C45.6219 20.8023 48.2937 22.0853 50.3332 24.1225C52.3728 26.1597 53.6588 28.83 53.9801 31.6947L42.7568 20.4844ZM52.5723 42.9622V47.1881C52.5739 47.5812 52.4934 47.9704 52.3359 48.3306C52.1784 48.6908 51.9474 49.0142 51.6577 49.28C51.368 49.5458 51.026 49.7481 50.6535 49.8741C50.2811 50 49.8865 50.0468 49.4949 50.0114C45.1501 49.5394 40.9765 48.0546 37.3097 45.6766C33.8979 43.512 31.0044 40.6229 28.8346 37.2144C26.4485 33.5315 24.9635 29.3384 24.4997 24.9747C24.4645 24.5843 24.5109 24.1907 24.6361 23.8192C24.7612 23.4477 24.9624 23.1063 25.2268 22.8168C25.4912 22.5273 25.813 22.296 26.1717 22.1377C26.5303 21.9794 26.918 21.8975 27.3101 21.8973H31.5464C32.2317 21.8906 32.896 22.1334 33.4155 22.5804C33.9349 23.0273 34.2741 23.648 34.3697 24.3266C34.5484 25.6818 34.8798 27.0125 35.3575 28.2933C35.5475 28.7986 35.5887 29.3477 35.4761 29.8757C35.3635 30.4037 35.1019 30.8883 34.7223 31.2722L32.9283 33.0662C34.9387 36.6007 37.8658 39.5269 41.4008 41.5362L43.1949 39.7422C43.5788 39.3626 44.0634 39.101 44.5914 38.9884C45.1193 38.8758 45.6685 38.917 46.1738 39.107C47.4546 39.5847 48.7852 39.9161 50.1405 40.0947C50.8272 40.1907 51.4546 40.536 51.9031 41.0648C52.3516 41.5936 52.5898 42.269 52.5723 42.9622Z" stroke="white" stroke-width="2" stroke-linecap="round" stroke-linejoin="round"/>
</g>
<defs>
<filter id="filter0_d" x="0" y="0" width="78" height="78" filterUnits="userSpaceOnUse" color-interpolation-filters="sRGB">
<feFlood flood-opacity="0" result="BackgroundImageFix"/>
<feColorMatrix in="SourceAlpha" type="matrix" values="0 0 0 0 0 0 0 0 0 0 0 0 0 0 0 0 0 0 127 0" result="hardAlpha"/>
<feOffset dy="4"/>
<feGaussianBlur stdDeviation="2"/>
<feComposite in2="hardAlpha" operator="out"/>
<feColorMatrix type="matrix" values="0 0 0 0 0 0 0 0 0 0 0 0 0 0 0 0 0 0 0.25 0"/>
<feBlend mode="normal" in2="BackgroundImageFix" result="effect1_dropShadow"/>
<feBlend mode="normal" in="SourceGraphic" in2="effect1_dropShadow" result="shape"/>
</filter>
</defs>
</svg>
