<svg xmlns="http://www.w3.org/2000/svg" width="25" height="25" viewBox="0 0 25 25" fill="none">
<path d="M17.0512 12.1296H13.5334V8.61185C13.5334 8.51264 13.5138 8.41442 13.4759 8.32277C13.4379 8.23112 13.3823 8.14784 13.3121 8.0777C13.242 8.00755 13.1587 7.95191 13.0671 7.91395C12.9754 7.87598 12.8772 7.85645 12.778 7.85645C12.6788 7.85645 12.5805 7.87598 12.4889 7.91395C12.3972 7.95191 12.314 8.00755 12.2438 8.0777C12.1737 8.14784 12.118 8.23112 12.0801 8.32277C12.0421 8.41442 12.0226 8.51264 12.0226 8.61185V12.1296H8.50418C8.40378 12.1251 8.30353 12.1416 8.20984 12.1779C8.11614 12.2143 8.03105 12.2698 7.95998 12.3408C7.88892 12.4119 7.83343 12.497 7.79707 12.5907C7.76071 12.6844 7.74426 12.7846 7.74878 12.885C7.74544 12.9851 7.76269 13.0849 7.79947 13.178C7.83625 13.2712 7.89177 13.3558 7.96259 13.4266C8.03342 13.4975 8.11803 13.553 8.21119 13.5898C8.30435 13.6265 8.40408 13.6438 8.50418 13.6404H12.022V17.1582C12.0187 17.2583 12.036 17.358 12.0728 17.4511C12.1097 17.5442 12.1652 17.6288 12.236 17.6996C12.3068 17.7704 12.3914 17.826 12.4845 17.8628C12.5776 17.8996 12.6773 17.9169 12.7774 17.9136C12.8767 17.9141 12.9752 17.8949 13.067 17.8571C13.1589 17.8193 13.2423 17.7637 13.3126 17.6935C13.3828 17.6232 13.4385 17.5398 13.4762 17.4479C13.514 17.356 13.5333 17.2576 13.5328 17.1582V13.641H17.0506C17.1498 13.641 17.248 13.6215 17.3397 13.5835C17.4313 13.5456 17.5146 13.4899 17.5847 13.4198C17.6549 13.3496 17.7105 13.2664 17.7485 13.1747C17.7864 13.0831 17.806 12.9848 17.806 12.8856C17.806 12.7864 17.7864 12.6882 17.7485 12.5966C17.7105 12.5049 17.6549 12.4216 17.5847 12.3515C17.5146 12.2813 17.4313 12.2257 17.3397 12.1877C17.248 12.1498 17.1498 12.1302 17.0506 12.1302L17.0512 12.1296Z" fill="black"/>
<path d="M12.7793 2.50094C15.1806 2.50193 17.5073 3.33543 19.3629 4.85946C21.2186 6.38349 22.4885 8.50376 22.9562 10.859C23.424 13.2143 23.0606 15.6589 21.9281 17.7764C20.7956 19.8939 18.964 21.5532 16.7453 22.4716C14.5266 23.3901 12.0581 23.5109 9.76033 22.8135C7.46255 22.1161 5.47765 20.6436 4.14377 18.6468C2.8099 16.6501 2.20958 14.2527 2.44508 11.863C2.68058 9.47324 3.73733 7.2391 5.4353 5.54114C6.39756 4.57391 7.54212 3.80718 8.80273 3.28532C10.0633 2.76347 11.415 2.49686 12.7793 2.50094ZM12.7793 0.885742C10.4059 0.885742 8.08585 1.58953 6.11246 2.90811C4.13907 4.22668 2.601 6.10083 1.69275 8.29354C0.784496 10.4863 0.546856 12.8991 1.00988 15.2268C1.4729 17.5546 2.61579 19.6928 4.29402 21.371C5.97225 23.0492 8.11045 24.1921 10.4382 24.6552C12.766 25.1182 15.1788 24.8805 17.3715 23.9723C19.5642 23.064 21.4384 21.526 22.7569 19.5526C24.0755 17.5792 24.7793 15.2591 24.7793 12.8857C24.7793 11.3099 24.4689 9.74945 23.8659 8.29354C23.2628 6.83763 22.3789 5.51476 21.2646 4.40046C20.1503 3.28616 18.8274 2.40224 17.3715 1.79919C15.9156 1.19613 14.3552 0.885742 12.7793 0.885742Z" fill="black"/>
</svg>