<svg width="70" height="70" viewBox="0 0 70 70" fill="none" xmlns="http://www.w3.org/2000/svg">
<g clip-path="url(#clip0)">
<g filter="url(#filter0_d)">
<ellipse cx="35" cy="19.0476" rx="20" ry="19.0476" fill="white"/>
</g>
<path d="M52.5 33.3385C52.5 36.7216 49.6131 39.5052 46 39.5052C42.3869 39.5052 39.5 36.7216 39.5 33.3385C39.5 29.9555 42.3869 27.1719 46 27.1719C49.6131 27.1719 52.5 29.9555 52.5 33.3385Z" stroke="#339B31"/>
<ellipse cx="46" cy="33.34" rx="5" ry="4.7619" fill="#62D05F"/>
<path d="M25.5703 10.0759C25.5703 9.17417 25.9466 8.30932 26.6163 7.67167C27.286 7.03401 28.1944 6.67578 29.1415 6.67578C30.0886 6.67578 30.997 7.03401 31.6667 7.67167C32.3364 8.30932 32.7127 9.17417 32.7127 10.0759C32.7127 10.9777 32.3364 11.8426 31.6667 12.4802C30.997 13.1179 30.0886 13.4761 29.1415 13.4761C28.1944 13.4761 27.286 13.1179 26.6163 12.4802C25.9466 11.8426 25.5703 10.9777 25.5703 10.0759ZM29.1415 8.37586C28.6679 8.37586 28.2137 8.55498 27.8789 8.87381C27.544 9.19263 27.3559 9.62506 27.3559 10.0759C27.3559 10.5268 27.544 10.9593 27.8789 11.2781C28.2137 11.5969 28.6679 11.776 29.1415 11.776C29.6151 11.776 30.0692 11.5969 30.4041 11.2781C30.7389 10.9593 30.9271 10.5268 30.9271 10.0759C30.9271 9.62506 30.7389 9.19263 30.4041 8.87381C30.0692 8.55498 29.6151 8.37586 29.1415 8.37586Z" fill="black"/>
<path d="M37.6749 12.7755C37.3008 12.5038 36.9867 12.1644 36.7508 11.7768C36.5149 11.3892 36.3618 10.9611 36.3002 10.517C36.2387 10.0729 36.2699 9.62154 36.3921 9.18894C36.5143 8.75635 36.7251 8.35101 37.0123 7.99621C37.2995 7.64142 37.6576 7.34416 38.0659 7.12153C38.4741 6.89889 38.9246 6.75526 39.3914 6.6989C39.8581 6.64253 40.332 6.67454 40.7857 6.79308C41.2394 6.91162 41.6641 7.11436 42.0353 7.38964C42.7661 7.94626 43.2382 8.75378 43.3501 9.63846C43.4619 10.5231 43.2045 11.4143 42.6333 12.1201C42.0621 12.826 41.2227 13.2901 40.2957 13.4127C39.3687 13.5352 38.4283 13.3064 37.6766 12.7755H37.6749ZM39.8551 8.38249C39.3815 8.38249 38.9273 8.56161 38.5925 8.88043C38.2576 9.19926 38.0695 9.63168 38.0695 10.0826C38.0695 10.5335 38.2576 10.9659 38.5925 11.2847C38.9273 11.6035 39.3815 11.7827 39.8551 11.7827C40.3286 11.7827 40.7828 11.6035 41.1177 11.2847C41.4525 10.9659 41.6406 10.5335 41.6406 10.0826C41.6406 9.63168 41.4525 9.19926 41.1177 8.88043C40.7828 8.56161 40.3286 8.38249 39.8551 8.38249Z" fill="black"/>
<path d="M24.6784 15.1836H29.4459C29.2495 15.7157 29.1423 16.2886 29.1423 16.8837H24.6784C24.4416 16.8837 24.2145 16.9732 24.0471 17.1326C23.8796 17.2921 23.7856 17.5083 23.7856 17.7337C23.7856 19.1227 24.3659 20.1529 25.2819 20.8534C25.7033 21.1764 26.2086 21.4365 26.78 21.6269C26.3604 22.0516 26.0371 22.5539 25.8301 23.1026C25.2307 22.8733 24.6695 22.5624 24.1641 22.1794C22.8214 21.1509 22 19.631 22 17.7337C22 17.0574 22.2822 16.4087 22.7845 15.9305C23.2868 15.4523 23.968 15.1836 24.6784 15.1836Z" fill="black"/>
<path d="M31.4079 15.182C30.9343 15.9633 30.8062 16.8919 31.0517 17.7632C31.2971 18.6346 31.8961 19.3774 32.7167 19.8283C33.5374 20.2792 34.5126 20.4012 35.4278 20.1675C36.343 19.9338 37.1232 19.3635 37.5968 18.5821C38.0703 17.8007 38.1985 16.8722 37.953 16.0009C37.7076 15.1295 37.1086 14.3867 36.2879 13.9358C35.4672 13.4849 34.492 13.3629 33.5769 13.5966C32.6617 13.8303 31.8815 14.4006 31.4079 15.182ZM34.1006 15.2245C34.3622 15.1682 34.6338 15.1686 34.8952 15.2256C35.1566 15.2827 35.4013 15.3949 35.6111 15.554C35.8209 15.7131 35.9904 15.915 36.1073 16.1449C36.2241 16.3748 36.2852 16.6267 36.2861 16.882C36.286 17.2019 36.1911 17.5153 36.0123 17.7861C35.8335 18.0569 35.5781 18.2742 35.2754 18.413C34.9727 18.5518 34.635 18.6065 34.3012 18.5708C33.9673 18.5351 33.6508 18.4104 33.388 18.2111C33.1252 18.0118 32.9268 17.746 32.8156 17.4441C32.7044 17.1423 32.6849 16.8167 32.7593 16.5048C32.8337 16.1928 32.9991 15.9072 33.2363 15.6807C33.4736 15.4543 33.7732 15.2961 34.1006 15.2245Z" fill="black"/>
<path d="M43.7187 20.8534C43.2973 21.1764 42.792 21.4365 42.2206 21.6269C42.6395 22.0517 42.9623 22.554 43.1687 23.1026C43.7758 22.8663 44.3383 22.5586 44.8365 22.1794C46.1792 21.1509 47.0006 19.631 47.0006 17.7337C47.0006 17.0574 46.7184 16.4087 46.2161 15.9305C45.7138 15.4523 45.0326 15.1836 44.3222 15.1836H39.5547C39.7511 15.7157 39.8582 16.2886 39.8582 16.8837H44.3222C44.559 16.8837 44.7861 16.9732 44.9535 17.1326C45.1209 17.2921 45.215 17.5083 45.215 17.7337C45.215 19.1227 44.6347 20.1529 43.7187 20.8534Z" fill="black"/>
<path d="M38.9657 21.9844C39.676 21.9844 40.3573 22.2531 40.8596 22.7313C41.3619 23.2095 41.6441 23.8582 41.6441 24.5345C41.6441 26.4318 40.8245 27.9517 39.4799 28.9802C38.1568 29.9918 36.3819 30.4848 34.5017 30.4848C32.6215 30.4848 30.8466 29.9918 29.5235 28.9802C28.1808 27.9517 27.3594 26.4318 27.3594 24.5345C27.3584 24.1994 27.4271 23.8674 27.5613 23.5576C27.6956 23.2478 27.8929 22.9663 28.1418 22.7293C28.3907 22.4923 28.6863 22.3045 29.0117 22.1767C29.3371 22.0488 29.6858 21.9835 30.0378 21.9844H38.9657ZM38.9657 23.6845H30.0378C29.801 23.6845 29.5739 23.774 29.4065 23.9334C29.239 24.0929 29.145 24.3091 29.145 24.5345C29.145 25.9235 29.7253 26.9537 30.6413 27.6542C31.5805 28.3716 32.9304 28.7847 34.5017 28.7847C36.073 28.7847 37.4229 28.3716 38.3622 27.6542C39.2782 26.9537 39.8585 25.9235 39.8585 24.5345C39.8585 24.3091 39.7644 24.0929 39.597 23.9334C39.4296 23.774 39.2025 23.6845 38.9657 23.6845Z" fill="black"/>
<path d="M23.5655 50.15V53.57C23.2388 53.73 22.8455 53.8567 22.3855 53.95C21.9255 54.0433 21.4555 54.09 20.9755 54.09C20.2421 54.09 19.6055 53.9433 19.0655 53.65C18.5255 53.3567 18.1121 52.9367 17.8255 52.39C17.5388 51.8433 17.3955 51.19 17.3955 50.43C17.3955 49.6833 17.5388 49.0367 17.8255 48.49C18.1121 47.9433 18.5188 47.5233 19.0455 47.23C19.5788 46.9367 20.2021 46.79 20.9155 46.79C21.4155 46.79 21.8821 46.8633 22.3155 47.01C22.7555 47.1567 23.1221 47.3633 23.4155 47.63L22.9755 48.57C22.6421 48.31 22.3155 48.1233 21.9955 48.01C21.6755 47.8967 21.3255 47.84 20.9455 47.84C20.2121 47.84 19.6555 48.06 19.2755 48.5C18.9021 48.94 18.7155 49.5833 18.7155 50.43C18.7155 51.3033 18.9088 51.9633 19.2955 52.41C19.6821 52.85 20.2588 53.07 21.0255 53.07C21.4921 53.07 21.9521 53.0067 22.4055 52.88V51.08H20.8655V50.15H23.5655ZM31.378 54H30.018L29.108 51.63C29.028 51.41 28.9047 51.2567 28.738 51.17C28.5714 51.0833 28.3547 51.04 28.088 51.04H26.798V54H25.518V46.88H28.568C29.3747 46.88 29.988 47.0567 30.408 47.41C30.828 47.7633 31.038 48.27 31.038 48.93C31.038 49.4033 30.9114 49.8067 30.658 50.14C30.4114 50.4667 30.058 50.7 29.598 50.84C30.018 50.9267 30.3214 51.22 30.508 51.72L31.378 54ZM28.388 50.04C28.8747 50.04 29.2347 49.95 29.468 49.77C29.7014 49.59 29.818 49.3167 29.818 48.95C29.818 48.59 29.7014 48.3233 29.468 48.15C29.2414 47.97 28.8814 47.88 28.388 47.88H26.778V50.04H28.388ZM36.1507 54.09C35.464 54.09 34.864 53.9433 34.3507 53.65C33.844 53.35 33.4507 52.9267 33.1707 52.38C32.8974 51.8267 32.7607 51.1767 32.7607 50.43C32.7607 49.69 32.8974 49.0467 33.1707 48.5C33.444 47.9467 33.834 47.5233 34.3407 47.23C34.854 46.9367 35.4574 46.79 36.1507 46.79C36.844 46.79 37.444 46.9367 37.9507 47.23C38.464 47.5233 38.854 47.9467 39.1207 48.5C39.394 49.0467 39.5307 49.69 39.5307 50.43C39.5307 51.1767 39.394 51.8267 39.1207 52.38C38.8474 52.9267 38.4574 53.35 37.9507 53.65C37.444 53.9433 36.844 54.09 36.1507 54.09ZM36.1507 53.06C36.8107 53.06 37.324 52.8333 37.6907 52.38C38.0574 51.9267 38.2407 51.2767 38.2407 50.43C38.2407 49.59 38.0574 48.9467 37.6907 48.5C37.324 48.0467 36.8107 47.82 36.1507 47.82C35.4907 47.82 34.9774 48.0433 34.6107 48.49C34.244 48.9367 34.0607 49.5833 34.0607 50.43C34.0607 51.2767 34.244 51.9267 34.6107 52.38C34.9774 52.8333 35.4907 53.06 36.1507 53.06ZM44.292 54.09C43.312 54.09 42.5687 53.84 42.062 53.34C41.562 52.8333 41.312 52.0933 41.312 51.12V46.88H42.582V51.19C42.582 51.8033 42.7254 52.27 43.012 52.59C43.2987 52.9033 43.7254 53.06 44.292 53.06C44.8454 53.06 45.2654 52.9 45.552 52.58C45.8454 52.26 45.992 51.7967 45.992 51.19V46.88H47.262V51.12C47.262 52.0867 47.0087 52.8233 46.502 53.33C45.9954 53.8367 45.2587 54.09 44.292 54.09ZM49.2544 46.88H52.3444C53.111 46.88 53.7077 47.0667 54.1344 47.44C54.561 47.8067 54.7744 48.31 54.7744 48.95C54.7744 49.59 54.5577 50.0967 54.1244 50.47C53.6977 50.8433 53.1044 51.03 52.3444 51.03H50.5444V54H49.2544V46.88ZM52.1944 50.03C52.641 50.03 52.9777 49.94 53.2044 49.76C53.4377 49.5733 53.5544 49.3067 53.5544 48.96C53.5544 48.6067 53.441 48.34 53.2144 48.16C52.9877 47.9733 52.6477 47.88 52.1944 47.88H50.5444V50.03H52.1944Z" fill="black"/>
</g>
<defs>
<filter id="filter0_d" x="8" y="-5" width="54" height="52.0952" filterUnits="userSpaceOnUse" color-interpolation-filters="sRGB">
<feFlood flood-opacity="0" result="BackgroundImageFix"/>
<feColorMatrix in="SourceAlpha" type="matrix" values="0 0 0 0 0 0 0 0 0 0 0 0 0 0 0 0 0 0 127 0" result="hardAlpha"/>
<feOffset dy="2"/>
<feGaussianBlur stdDeviation="3.5"/>
<feColorMatrix type="matrix" values="0 0 0 0 0 0 0 0 0 0 0 0 0 0 0 0 0 0 0.2 0"/>
<feBlend mode="normal" in2="BackgroundImageFix" result="effect1_dropShadow"/>
<feBlend mode="normal" in="SourceGraphic" in2="effect1_dropShadow" result="shape"/>
</filter>
<clipPath id="clip0">
<rect width="70" height="70" fill="white"/>
</clipPath>
</defs>
</svg>
