<svg width="70" height="70" viewBox="0 0 70 70" fill="none" xmlns="http://www.w3.org/2000/svg">
<g clip-path="url(#clip0)">
<g filter="url(#filter0_d)">
<ellipse cx="33" cy="19.0476" rx="20" ry="19.0476" fill="white"/>
</g>
<path d="M50.5 33.3385C50.5 36.7216 47.6131 39.5052 44 39.5052C40.3869 39.5052 37.5 36.7216 37.5 33.3385C37.5 29.9555 40.3869 27.1719 44 27.1719C47.6131 27.1719 50.5 29.9555 50.5 33.3385Z" stroke="#D33325"/>
<ellipse cx="44" cy="33.34" rx="5" ry="4.7619" fill="#D33325"/>
<path d="M23.5703 10.0759C23.5703 9.17417 23.9466 8.30932 24.6163 7.67167C25.286 7.03401 26.1944 6.67578 27.1415 6.67578C28.0886 6.67578 28.997 7.03401 29.6667 7.67167C30.3364 8.30932 30.7127 9.17417 30.7127 10.0759C30.7127 10.9777 30.3364 11.8426 29.6667 12.4802C28.997 13.1179 28.0886 13.4761 27.1415 13.4761C26.1944 13.4761 25.286 13.1179 24.6163 12.4802C23.9466 11.8426 23.5703 10.9777 23.5703 10.0759ZM27.1415 8.37586C26.6679 8.37586 26.2137 8.55498 25.8789 8.87381C25.544 9.19263 25.3559 9.62506 25.3559 10.0759C25.3559 10.5268 25.544 10.9593 25.8789 11.2781C26.2137 11.5969 26.6679 11.776 27.1415 11.776C27.6151 11.776 28.0692 11.5969 28.4041 11.2781C28.7389 10.9593 28.9271 10.5268 28.9271 10.0759C28.9271 9.62506 28.7389 9.19263 28.4041 8.87381C28.0692 8.55498 27.6151 8.37586 27.1415 8.37586Z" fill="black"/>
<path d="M35.6749 12.7755C35.3008 12.5038 34.9867 12.1644 34.7508 11.7768C34.5149 11.3892 34.3618 10.9611 34.3002 10.517C34.2387 10.0729 34.2699 9.62154 34.3921 9.18894C34.5143 8.75635 34.7251 8.35101 35.0123 7.99621C35.2995 7.64142 35.6576 7.34416 36.0659 7.12153C36.4741 6.89889 36.9246 6.75526 37.3914 6.6989C37.8581 6.64253 38.332 6.67454 38.7857 6.79308C39.2394 6.91162 39.6641 7.11436 40.0353 7.38964C40.7661 7.94626 41.2382 8.75378 41.3501 9.63846C41.4619 10.5231 41.2045 11.4143 40.6333 12.1201C40.0621 12.826 39.2227 13.2901 38.2957 13.4127C37.3687 13.5352 36.4283 13.3064 35.6766 12.7755H35.6749ZM37.8551 8.38249C37.3815 8.38249 36.9273 8.56161 36.5925 8.88043C36.2576 9.19926 36.0695 9.63168 36.0695 10.0826C36.0695 10.5335 36.2576 10.9659 36.5925 11.2847C36.9273 11.6035 37.3815 11.7827 37.8551 11.7827C38.3286 11.7827 38.7828 11.6035 39.1177 11.2847C39.4525 10.9659 39.6406 10.5335 39.6406 10.0826C39.6406 9.63168 39.4525 9.19926 39.1177 8.88043C38.7828 8.56161 38.3286 8.38249 37.8551 8.38249Z" fill="black"/>
<path d="M22.6784 15.1836H27.4459C27.2495 15.7157 27.1423 16.2886 27.1423 16.8837H22.6784C22.4416 16.8837 22.2145 16.9732 22.0471 17.1326C21.8796 17.2921 21.7856 17.5083 21.7856 17.7337C21.7856 19.1227 22.3659 20.1529 23.2819 20.8534C23.7033 21.1764 24.2086 21.4365 24.78 21.6269C24.3604 22.0516 24.0371 22.5539 23.8301 23.1026C23.2307 22.8733 22.6695 22.5624 22.1641 22.1794C20.8214 21.1509 20 19.631 20 17.7337C20 17.0574 20.2822 16.4087 20.7845 15.9305C21.2868 15.4523 21.968 15.1836 22.6784 15.1836Z" fill="black"/>
<path d="M29.4079 15.182C28.9343 15.9633 28.8062 16.8919 29.0517 17.7632C29.2971 18.6346 29.8961 19.3774 30.7167 19.8283C31.5374 20.2792 32.5126 20.4012 33.4278 20.1675C34.343 19.9338 35.1232 19.3635 35.5968 18.5821C36.0703 17.8007 36.1985 16.8722 35.953 16.0009C35.7076 15.1295 35.1086 14.3867 34.2879 13.9358C33.4672 13.4849 32.492 13.3629 31.5769 13.5966C30.6617 13.8303 29.8815 14.4006 29.4079 15.182ZM32.1006 15.2245C32.3622 15.1682 32.6338 15.1686 32.8952 15.2256C33.1566 15.2827 33.4013 15.3949 33.6111 15.554C33.8209 15.7131 33.9904 15.915 34.1073 16.1449C34.2241 16.3748 34.2852 16.6267 34.2861 16.882C34.286 17.2019 34.1911 17.5153 34.0123 17.7861C33.8335 18.0569 33.5781 18.2742 33.2754 18.413C32.9727 18.5518 32.635 18.6065 32.3012 18.5708C31.9673 18.5351 31.6508 18.4104 31.388 18.2111C31.1252 18.0118 30.9268 17.746 30.8156 17.4441C30.7044 17.1423 30.6849 16.8167 30.7593 16.5048C30.8337 16.1928 30.9991 15.9072 31.2363 15.6807C31.4736 15.4543 31.7732 15.2961 32.1006 15.2245Z" fill="black"/>
<path d="M41.7187 20.8534C41.2973 21.1764 40.792 21.4365 40.2206 21.6269C40.6395 22.0517 40.9623 22.554 41.1687 23.1026C41.7758 22.8663 42.3383 22.5586 42.8365 22.1794C44.1792 21.1509 45.0006 19.631 45.0006 17.7337C45.0006 17.0574 44.7184 16.4087 44.2161 15.9305C43.7138 15.4523 43.0326 15.1836 42.3222 15.1836H37.5547C37.7511 15.7157 37.8582 16.2886 37.8582 16.8837H42.3222C42.559 16.8837 42.7861 16.9732 42.9535 17.1326C43.1209 17.2921 43.215 17.5083 43.215 17.7337C43.215 19.1227 42.6347 20.1529 41.7187 20.8534Z" fill="black"/>
<path d="M36.9657 21.9844C37.676 21.9844 38.3573 22.2531 38.8596 22.7313C39.3619 23.2095 39.6441 23.8582 39.6441 24.5345C39.6441 26.4318 38.8245 27.9517 37.4799 28.9802C36.1568 29.9918 34.3819 30.4848 32.5017 30.4848C30.6215 30.4848 28.8466 29.9918 27.5235 28.9802C26.1808 27.9517 25.3594 26.4318 25.3594 24.5345C25.3584 24.1994 25.4271 23.8674 25.5613 23.5576C25.6956 23.2478 25.8929 22.9663 26.1418 22.7293C26.3907 22.4923 26.6863 22.3045 27.0117 22.1767C27.3371 22.0488 27.6858 21.9835 28.0378 21.9844H36.9657ZM36.9657 23.6845H28.0378C27.801 23.6845 27.5739 23.774 27.4065 23.9334C27.239 24.0929 27.145 24.3091 27.145 24.5345C27.145 25.9235 27.7253 26.9537 28.6413 27.6542C29.5805 28.3716 30.9304 28.7847 32.5017 28.7847C34.073 28.7847 35.4229 28.3716 36.3622 27.6542C37.2782 26.9537 37.8585 25.9235 37.8585 24.5345C37.8585 24.3091 37.7644 24.0929 37.597 23.9334C37.4296 23.774 37.2025 23.6845 36.9657 23.6845Z" fill="black"/>
<path d="M20.5655 51.15V54.57C20.2388 54.73 19.8455 54.8567 19.3855 54.95C18.9255 55.0433 18.4555 55.09 17.9755 55.09C17.2421 55.09 16.6055 54.9433 16.0655 54.65C15.5255 54.3567 15.1121 53.9367 14.8255 53.39C14.5388 52.8433 14.3955 52.19 14.3955 51.43C14.3955 50.6833 14.5388 50.0367 14.8255 49.49C15.1121 48.9433 15.5188 48.5233 16.0455 48.23C16.5788 47.9367 17.2021 47.79 17.9155 47.79C18.4155 47.79 18.8821 47.8633 19.3155 48.01C19.7555 48.1567 20.1221 48.3633 20.4155 48.63L19.9755 49.57C19.6421 49.31 19.3155 49.1233 18.9955 49.01C18.6755 48.8967 18.3255 48.84 17.9455 48.84C17.2121 48.84 16.6555 49.06 16.2755 49.5C15.9021 49.94 15.7155 50.5833 15.7155 51.43C15.7155 52.3033 15.9088 52.9633 16.2955 53.41C16.6821 53.85 17.2588 54.07 18.0255 54.07C18.4921 54.07 18.9521 54.0067 19.4055 53.88V52.08H17.8655V51.15H20.5655ZM28.378 55H27.018L26.108 52.63C26.028 52.41 25.9047 52.2567 25.738 52.17C25.5714 52.0833 25.3547 52.04 25.088 52.04H23.798V55H22.518V47.88H25.568C26.3747 47.88 26.988 48.0567 27.408 48.41C27.828 48.7633 28.038 49.27 28.038 49.93C28.038 50.4033 27.9114 50.8067 27.658 51.14C27.4114 51.4667 27.058 51.7 26.598 51.84C27.018 51.9267 27.3214 52.22 27.508 52.72L28.378 55ZM25.388 51.04C25.8747 51.04 26.2347 50.95 26.468 50.77C26.7014 50.59 26.818 50.3167 26.818 49.95C26.818 49.59 26.7014 49.3233 26.468 49.15C26.2414 48.97 25.8814 48.88 25.388 48.88H23.778V51.04H25.388ZM33.1507 55.09C32.464 55.09 31.864 54.9433 31.3507 54.65C30.844 54.35 30.4507 53.9267 30.1707 53.38C29.8974 52.8267 29.7607 52.1767 29.7607 51.43C29.7607 50.69 29.8974 50.0467 30.1707 49.5C30.444 48.9467 30.834 48.5233 31.3407 48.23C31.854 47.9367 32.4574 47.79 33.1507 47.79C33.844 47.79 34.444 47.9367 34.9507 48.23C35.464 48.5233 35.854 48.9467 36.1207 49.5C36.394 50.0467 36.5307 50.69 36.5307 51.43C36.5307 52.1767 36.394 52.8267 36.1207 53.38C35.8474 53.9267 35.4574 54.35 34.9507 54.65C34.444 54.9433 33.844 55.09 33.1507 55.09ZM33.1507 54.06C33.8107 54.06 34.324 53.8333 34.6907 53.38C35.0574 52.9267 35.2407 52.2767 35.2407 51.43C35.2407 50.59 35.0574 49.9467 34.6907 49.5C34.324 49.0467 33.8107 48.82 33.1507 48.82C32.4907 48.82 31.9774 49.0433 31.6107 49.49C31.244 49.9367 31.0607 50.5833 31.0607 51.43C31.0607 52.2767 31.244 52.9267 31.6107 53.38C31.9774 53.8333 32.4907 54.06 33.1507 54.06ZM41.292 55.09C40.312 55.09 39.5687 54.84 39.062 54.34C38.562 53.8333 38.312 53.0933 38.312 52.12V47.88H39.582V52.19C39.582 52.8033 39.7254 53.27 40.012 53.59C40.2987 53.9033 40.7254 54.06 41.292 54.06C41.8454 54.06 42.2654 53.9 42.552 53.58C42.8454 53.26 42.992 52.7967 42.992 52.19V47.88H44.262V52.12C44.262 53.0867 44.0087 53.8233 43.502 54.33C42.9954 54.8367 42.2587 55.09 41.292 55.09ZM46.2544 47.88H49.3444C50.111 47.88 50.7077 48.0667 51.1344 48.44C51.561 48.8067 51.7744 49.31 51.7744 49.95C51.7744 50.59 51.5577 51.0967 51.1244 51.47C50.6977 51.8433 50.1044 52.03 49.3444 52.03H47.5444V55H46.2544V47.88ZM49.1944 51.03C49.641 51.03 49.9777 50.94 50.2044 50.76C50.4377 50.5733 50.5544 50.3067 50.5544 49.96C50.5544 49.6067 50.441 49.34 50.2144 49.16C49.9877 48.9733 49.6477 48.88 49.1944 48.88H47.5444V51.03H49.1944Z" fill="black"/>
</g>
<defs>
<filter id="filter0_d" x="6" y="-5" width="54" height="52.0952" filterUnits="userSpaceOnUse" color-interpolation-filters="sRGB">
<feFlood flood-opacity="0" result="BackgroundImageFix"/>
<feColorMatrix in="SourceAlpha" type="matrix" values="0 0 0 0 0 0 0 0 0 0 0 0 0 0 0 0 0 0 127 0" result="hardAlpha"/>
<feOffset dy="2"/>
<feGaussianBlur stdDeviation="3.5"/>
<feColorMatrix type="matrix" values="0 0 0 0 0 0 0 0 0 0 0 0 0 0 0 0 0 0 0.2 0"/>
<feBlend mode="normal" in2="BackgroundImageFix" result="effect1_dropShadow"/>
<feBlend mode="normal" in="SourceGraphic" in2="effect1_dropShadow" result="shape"/>
</filter>
<clipPath id="clip0">
<rect width="70" height="70" fill="white"/>
</clipPath>
</defs>
</svg>
