<svg width="20" height="20" viewBox="0 0 20 20" fill="none" xmlns="http://www.w3.org/2000/svg">
<path d="M10.8262 11.0098C11.4892 11.0098 12.125 11.2834 12.5939 11.7705C13.0627 12.2575 13.3261 12.9181 13.3261 13.6069L13.3244 14.902C13.4961 18.0827 11.1378 19.6687 6.76636 19.6687C2.40989 19.667 0 18.1035 0 14.9488V13.6069C0 12.9181 0.26338 12.2575 0.7322 11.7705C1.20102 11.2834 1.83688 11.0098 2.49989 11.0098H10.8262ZM17.4925 11.0098C18.1556 11.0098 18.7914 11.2834 19.2602 11.7705C19.729 12.2575 19.9924 12.9181 19.9924 13.6069V14.5194C20.1424 17.3711 18.0592 18.8013 14.2527 18.8013C13.736 18.8013 13.2494 18.7753 12.7961 18.7233C13.2794 18.2593 13.641 17.707 13.871 17.0646L14.2527 17.0698C17.2259 17.0698 18.4142 16.2543 18.3258 14.5661V13.6069C18.3258 13.3773 18.238 13.1571 18.0818 12.9948C17.9255 12.8324 17.7135 12.7412 17.4925 12.7412H14.0544C13.8871 12.0705 13.5301 11.4674 13.0294 11.0098H17.4925ZM10.8262 12.7412H2.49989C2.27888 12.7412 2.06693 12.8324 1.91066 12.9948C1.75438 13.1571 1.66659 13.3773 1.66659 13.6069V14.9488C1.66659 16.9313 3.21319 17.9355 6.76636 17.9355C10.3062 17.9355 11.7661 16.9538 11.6595 14.9488V13.6069C11.6595 13.3773 11.5717 13.1571 11.4154 12.9948C11.2591 12.8324 11.0472 12.7412 10.8262 12.7412ZM6.66636 0.621094C7.77138 0.621094 8.83114 1.07714 9.61251 1.88891C10.3939 2.70069 10.8328 3.80169 10.8328 4.9497C10.8328 6.09772 10.3939 7.19872 9.61251 8.01049C8.83114 8.82227 7.77138 9.27831 6.66636 9.27831C5.56135 9.27831 4.50159 8.82227 3.72022 8.01049C2.93885 7.19872 2.49989 6.09772 2.49989 4.9497C2.49989 3.80169 2.93885 2.70069 3.72022 1.88891C4.50159 1.07714 5.56135 0.621094 6.66636 0.621094ZM14.9993 2.35254C15.8833 2.35254 16.7311 2.71738 17.3562 3.36679C17.9813 4.01621 18.3325 4.89701 18.3325 5.81543C18.3325 6.73384 17.9813 7.61464 17.3562 8.26406C16.7311 8.91348 15.8833 9.27831 14.9993 9.27831C14.1153 9.27831 13.2675 8.91348 12.6424 8.26406C12.0173 7.61464 11.6661 6.73384 11.6661 5.81543C11.6661 4.89701 12.0173 4.01621 12.6424 3.36679C13.2675 2.71738 14.1153 2.35254 14.9993 2.35254ZM6.66636 2.35254C6.00335 2.35254 5.3675 2.62617 4.89868 3.11323C4.42986 3.60029 4.16648 4.26089 4.16648 4.9497C4.16648 5.63852 4.42986 6.29912 4.89868 6.78618C5.3675 7.27324 6.00335 7.54687 6.66636 7.54687C7.32937 7.54687 7.96523 7.27324 8.43405 6.78618C8.90287 6.29912 9.16625 5.63852 9.16625 4.9497C9.16625 4.26089 8.90287 3.60029 8.43405 3.11323C7.96523 2.62617 7.32937 2.35254 6.66636 2.35254ZM14.9993 4.08398C14.5573 4.08398 14.1334 4.2664 13.8209 4.59111C13.5083 4.91582 13.3327 5.35622 13.3327 5.81543C13.3327 6.27463 13.5083 6.71503 13.8209 7.03974C14.1334 7.36445 14.5573 7.54687 14.9993 7.54687C15.4413 7.54687 15.8652 7.36445 16.1778 7.03974C16.4903 6.71503 16.6659 6.27463 16.6659 5.81543C16.6659 5.35622 16.4903 4.91582 16.1778 4.59111C15.8652 4.2664 15.4413 4.08398 14.9993 4.08398Z" fill="#F2F2F2"/>
</svg>
