<svg width="54" height="54" viewBox="0 0 54 54" fill="none" xmlns="http://www.w3.org/2000/svg">
<g filter="url(#filter0_d)">
<circle cx="27" cy="25" r="20" fill="white"/>
</g>
<circle cx="38" cy="40" r="6.5" stroke="#339B31"/>
<circle cx="38" cy="40" r="5" fill="#62D05F"/>
<path d="M27.8262 23.9081C28.4892 23.9081 29.125 24.1954 29.5939 24.7068C30.0627 25.2182 30.3261 25.9119 30.3261 26.6351L30.3244 27.995C30.4961 31.3347 28.1378 33 23.7664 33C19.4099 32.9982 17 31.3565 17 28.0441V26.6351C17 25.9119 17.2634 25.2182 17.7322 24.7068C18.201 24.1954 18.8369 23.9081 19.4999 23.9081H27.8262ZM34.4925 23.9081C35.1556 23.9081 35.7914 24.1954 36.2602 24.7068C36.729 25.2182 36.9924 25.9119 36.9924 26.6351V27.5932C37.1424 30.5875 35.0592 32.0892 31.2527 32.0892C30.736 32.0892 30.2494 32.0619 29.7961 32.0074C30.2794 31.5201 30.641 30.9402 30.871 30.2657L31.2527 30.2712C34.2259 30.2712 35.4142 29.4149 35.3258 27.6423V26.6351C35.3258 26.394 35.238 26.1628 35.0818 25.9924C34.9255 25.8219 34.7135 25.7261 34.4925 25.7261H31.0544C30.8871 25.0219 30.5301 24.3886 30.0294 23.9081H34.4925ZM27.8262 25.7261H19.4999C19.2789 25.7261 19.0669 25.8219 18.9107 25.9924C18.7544 26.1628 18.6666 26.394 18.6666 26.6351V28.0441C18.6666 30.1257 20.2132 31.1802 23.7664 31.1802C27.3062 31.1802 28.7661 30.1493 28.6595 28.0441V26.6351C28.6595 26.394 28.5717 26.1628 28.4154 25.9924C28.2591 25.8219 28.0472 25.7261 27.8262 25.7261ZM23.6664 13C24.7714 13 25.8311 13.4789 26.6125 14.3312C27.3939 15.1836 27.8328 16.3396 27.8328 17.545C27.8328 18.7505 27.3939 19.9065 26.6125 20.7589C25.8311 21.6112 24.7714 22.0901 23.6664 22.0901C22.5613 22.0901 21.5016 21.6112 20.7202 20.7589C19.9389 19.9065 19.4999 18.7505 19.4999 17.545C19.4999 16.3396 19.9389 15.1836 20.7202 14.3312C21.5016 13.4789 22.5613 13 23.6664 13ZM31.9993 14.818C32.8833 14.818 33.7311 15.2011 34.3562 15.883C34.9813 16.5649 35.3325 17.4897 35.3325 18.454C35.3325 19.4184 34.9813 20.3432 34.3562 21.0251C33.7311 21.707 32.8833 22.0901 31.9993 22.0901C31.1153 22.0901 30.2675 21.707 29.6424 21.0251C29.0173 20.3432 28.6661 19.4184 28.6661 18.454C28.6661 17.4897 29.0173 16.5649 29.6424 15.883C30.2675 15.2011 31.1153 14.818 31.9993 14.818ZM23.6664 14.818C23.0034 14.818 22.3675 15.1053 21.8987 15.6167C21.4299 16.1282 21.1665 16.8218 21.1665 17.545C21.1665 18.2683 21.4299 18.9619 21.8987 19.4733C22.3675 19.9848 23.0034 20.2721 23.6664 20.2721C24.3294 20.2721 24.9652 19.9848 25.4341 19.4733C25.9029 18.9619 26.1663 18.2683 26.1663 17.545C26.1663 16.8218 25.9029 16.1282 25.4341 15.6167C24.9652 15.1053 24.3294 14.818 23.6664 14.818ZM31.9993 16.636C31.5573 16.636 31.1334 16.8276 30.8209 17.1685C30.5083 17.5095 30.3327 17.9719 30.3327 18.454C30.3327 18.9362 30.5083 19.3986 30.8209 19.7396C31.1334 20.0805 31.5573 20.2721 31.9993 20.2721C32.4413 20.2721 32.8652 20.0805 33.1778 19.7396C33.4903 19.3986 33.6659 18.9362 33.6659 18.454C33.6659 17.9719 33.4903 17.5095 33.1778 17.1685C32.8652 16.8276 32.4413 16.636 31.9993 16.636Z" fill="black"/>
<defs>
<filter id="filter0_d" x="0" y="0" width="54" height="54" filterUnits="userSpaceOnUse" color-interpolation-filters="sRGB">
<feFlood flood-opacity="0" result="BackgroundImageFix"/>
<feColorMatrix in="SourceAlpha" type="matrix" values="0 0 0 0 0 0 0 0 0 0 0 0 0 0 0 0 0 0 127 0" result="hardAlpha"/>
<feOffset dy="2"/>
<feGaussianBlur stdDeviation="3.5"/>
<feColorMatrix type="matrix" values="0 0 0 0 0 0 0 0 0 0 0 0 0 0 0 0 0 0 0.2 0"/>
<feBlend mode="normal" in2="BackgroundImageFix" result="effect1_dropShadow"/>
<feBlend mode="normal" in="SourceGraphic" in2="effect1_dropShadow" result="shape"/>
</filter>
</defs>
</svg>
