<svg width="50" height="50" viewBox="0 0 50 50" fill="none" xmlns="http://www.w3.org/2000/svg">
<path d="M19.1772 33.88H22.2672C23.0339 33.88 23.6306 34.0667 24.0572 34.44C24.4839 34.8067 24.6972 35.31 24.6972 35.95C24.6972 36.59 24.4806 37.0967 24.0472 37.47C23.6206 37.8433 23.0272 38.03 22.2672 38.03H20.4672V41H19.1772V33.88ZM22.1172 37.03C22.5639 37.03 22.9006 36.94 23.1272 36.76C23.3606 36.5733 23.4772 36.3067 23.4772 35.96C23.4772 35.6067 23.3639 35.34 23.1372 35.16C22.9106 34.9733 22.5706 34.88 22.1172 34.88H20.4672V37.03H22.1172ZM27.8414 34.94H25.5214V33.88H31.4714V34.94H29.1414V41H27.8414V34.94Z" fill="black"/>
<path d="M25.8262 15.9081C26.4892 15.9081 27.125 16.1954 27.5939 16.7068C28.0627 17.2182 28.3261 17.9119 28.3261 18.6351L28.3244 19.995C28.4961 23.3347 26.1378 25 21.7664 25C17.4099 24.9982 15 23.3565 15 20.0441V18.6351C15 17.9119 15.2634 17.2182 15.7322 16.7068C16.201 16.1954 16.8369 15.9081 17.4999 15.9081H25.8262ZM32.4925 15.9081C33.1556 15.9081 33.7914 16.1954 34.2602 16.7068C34.729 17.2182 34.9924 17.9119 34.9924 18.6351V19.5932C35.1424 22.5875 33.0592 24.0892 29.2527 24.0892C28.736 24.0892 28.2494 24.0619 27.7961 24.0074C28.2794 23.5201 28.641 22.9402 28.871 22.2657L29.2527 22.2712C32.2259 22.2712 33.4142 21.4149 33.3258 19.6423V18.6351C33.3258 18.394 33.238 18.1628 33.0818 17.9924C32.9255 17.8219 32.7135 17.7261 32.4925 17.7261H29.0544C28.8871 17.0219 28.5301 16.3886 28.0294 15.9081H32.4925ZM25.8262 17.7261H17.4999C17.2789 17.7261 17.0669 17.8219 16.9107 17.9924C16.7544 18.1628 16.6666 18.394 16.6666 18.6351V20.0441C16.6666 22.1257 18.2132 23.1802 21.7664 23.1802C25.3062 23.1802 26.7661 22.1493 26.6595 20.0441V18.6351C26.6595 18.394 26.5717 18.1628 26.4154 17.9924C26.2591 17.8219 26.0472 17.7261 25.8262 17.7261ZM21.6664 5C22.7714 5 23.8311 5.47885 24.6125 6.33121C25.3939 7.18357 25.8328 8.33962 25.8328 9.54504C25.8328 10.7505 25.3939 11.9065 24.6125 12.7589C23.8311 13.6112 22.7714 14.0901 21.6664 14.0901C20.5613 14.0901 19.5016 13.6112 18.7202 12.7589C17.9389 11.9065 17.4999 10.7505 17.4999 9.54504C17.4999 8.33962 17.9389 7.18357 18.7202 6.33121C19.5016 5.47885 20.5613 5 21.6664 5ZM29.9993 6.81802C30.8833 6.81802 31.7311 7.2011 32.3562 7.88299C32.9813 8.56487 33.3325 9.48971 33.3325 10.454C33.3325 11.4184 32.9813 12.3432 32.3562 13.0251C31.7311 13.707 30.8833 14.0901 29.9993 14.0901C29.1153 14.0901 28.2675 13.707 27.6424 13.0251C27.0173 12.3432 26.6661 11.4184 26.6661 10.454C26.6661 9.48971 27.0173 8.56487 27.6424 7.88299C28.2675 7.2011 29.1153 6.81802 29.9993 6.81802ZM21.6664 6.81802C21.0034 6.81802 20.3675 7.10533 19.8987 7.61674C19.4299 8.12816 19.1665 8.82179 19.1665 9.54504C19.1665 10.2683 19.4299 10.9619 19.8987 11.4733C20.3675 11.9848 21.0034 12.2721 21.6664 12.2721C22.3294 12.2721 22.9652 11.9848 23.4341 11.4733C23.9029 10.9619 24.1663 10.2683 24.1663 9.54504C24.1663 8.82179 23.9029 8.12816 23.4341 7.61674C22.9652 7.10533 22.3294 6.81802 21.6664 6.81802ZM29.9993 8.63603C29.5573 8.63603 29.1334 8.82757 28.8209 9.16852C28.5083 9.50946 28.3327 9.97188 28.3327 10.454C28.3327 10.9362 28.5083 11.3986 28.8209 11.7396C29.1334 12.0805 29.5573 12.2721 29.9993 12.2721C30.4413 12.2721 30.8652 12.0805 31.1778 11.7396C31.4903 11.3986 31.6659 10.9362 31.6659 10.454C31.6659 9.97188 31.4903 9.50946 31.1778 9.16852C30.8652 8.82757 30.4413 8.63603 29.9993 8.63603Z" fill="black"/>
</svg>
