<svg xmlns="http://www.w3.org/2000/svg" width="99" height="53" viewBox="0 0 99 53" fill="none">
<path d="M56.1 21.6667V25H33V21.6667C33 21.6667 33 15 44.55 15C56.1 15 56.1 21.6667 56.1 21.6667ZM50.325 5.8334C50.325 4.67968 49.9863 3.55187 49.3517 2.59259C48.7172 1.6333 47.8152 0.885632 46.76 0.444122C45.7048 0.00261277 44.5436 -0.112906 43.4234 0.112173C42.3031 0.337253 41.2741 0.892822 40.4665 1.70863C39.6588 2.52443 39.1088 3.56383 38.886 4.69538C38.6631 5.82693 38.7775 6.99981 39.2146 8.06571C39.6517 9.13161 40.3919 10.0427 41.3416 10.6836C42.2913 11.3246 43.4078 11.6667 44.55 11.6667C46.0816 11.6667 47.5505 11.0521 48.6335 9.95817C49.7166 8.86422 50.325 7.38049 50.325 5.8334ZM56.001 15C57.0153 15.7929 57.8453 16.8007 58.4326 17.9525C59.0198 19.1043 59.35 20.3721 59.4 21.6667V25H66V21.6667C66 21.6667 66 15.6167 56.001 15ZM54.45 8.76314e-05C53.3143 -0.0063002 52.2036 0.336679 51.2655 0.983418C52.2678 2.39797 52.8067 4.09388 52.8067 5.8334C52.8067 7.57292 52.2678 9.26883 51.2655 10.6834C52.2036 11.3301 53.3143 11.6731 54.45 11.6667C55.9816 11.6667 57.4505 11.0521 58.5335 9.95817C59.6166 8.86422 60.225 7.38049 60.225 5.8334C60.225 4.28631 59.6166 2.80258 58.5335 1.70863C57.4505 0.614667 55.9816 8.76314e-05 54.45 8.76314e-05Z" fill="black"/>
<path d="M12.1253 45.165C11.0853 45.165 10.1703 44.94 9.38027 44.49C8.60027 44.03 7.99027 43.39 7.55027 42.57C7.12027 41.75 6.90527 40.795 6.90527 39.705C6.90527 38.875 7.02527 38.13 7.26527 37.47C7.51527 36.8 7.87027 36.23 8.33027 35.76C8.79027 35.28 9.34027 34.91 9.98027 34.65C10.6303 34.39 11.3453 34.26 12.1253 34.26C13.1853 34.26 14.1053 34.485 14.8853 34.935C15.6653 35.385 16.2703 36.02 16.7003 36.84C17.1403 37.65 17.3603 38.6 17.3603 39.69C17.3603 40.52 17.2353 41.27 16.9853 41.94C16.7353 42.61 16.3803 43.185 15.9203 43.665C15.4603 44.145 14.9103 44.515 14.2703 44.775C13.6303 45.035 12.9153 45.165 12.1253 45.165ZM12.1253 43.185C12.7153 43.185 13.2153 43.05 13.6253 42.78C14.0453 42.5 14.3653 42.1 14.5853 41.58C14.8153 41.05 14.9303 40.425 14.9303 39.705C14.9303 38.605 14.6853 37.755 14.1953 37.155C13.7053 36.545 13.0153 36.24 12.1253 36.24C11.5453 36.24 11.0453 36.375 10.6253 36.645C10.2053 36.915 9.88527 37.31 9.66527 37.83C9.44527 38.35 9.33527 38.975 9.33527 39.705C9.33527 40.795 9.58027 41.65 10.0703 42.27C10.5603 42.88 11.2453 43.185 12.1253 43.185ZM20.1038 45.135C19.7338 45.135 19.4488 45.035 19.2488 44.835C19.0588 44.635 18.9638 44.35 18.9638 43.98V38.655C18.9638 38.285 19.0588 38.005 19.2488 37.815C19.4488 37.615 19.7238 37.515 20.0737 37.515C20.4338 37.515 20.7088 37.615 20.8988 37.815C21.0888 38.005 21.1838 38.285 21.1838 38.655V39.51L21.0188 39.015C21.2488 38.525 21.5888 38.15 22.0388 37.89C22.4988 37.62 23.0188 37.485 23.5988 37.485C24.1888 37.485 24.6738 37.6 25.0538 37.83C25.4338 38.05 25.7188 38.39 25.9088 38.85C26.0988 39.3 26.1938 39.875 26.1938 40.575V43.98C26.1938 44.35 26.0938 44.635 25.8938 44.835C25.7038 45.035 25.4238 45.135 25.0538 45.135C24.6938 45.135 24.4138 45.035 24.2138 44.835C24.0238 44.635 23.9288 44.35 23.9288 43.98V40.68C23.9288 40.17 23.8338 39.805 23.6438 39.585C23.4638 39.355 23.1838 39.24 22.8038 39.24C22.3238 39.24 21.9388 39.39 21.6488 39.69C21.3688 39.99 21.2288 40.39 21.2288 40.89V43.98C21.2288 44.75 20.8538 45.135 20.1038 45.135ZM31.7096 45.165C30.8396 45.165 30.0896 45.01 29.4596 44.7C28.8396 44.38 28.3596 43.935 28.0196 43.365C27.6896 42.785 27.5246 42.105 27.5246 41.325C27.5246 40.565 27.6846 39.9 28.0046 39.33C28.3246 38.75 28.7696 38.3 29.3396 37.98C29.9196 37.65 30.5746 37.485 31.3046 37.485C31.8346 37.485 32.3146 37.575 32.7446 37.755C33.1746 37.925 33.5446 38.175 33.8546 38.505C34.1646 38.825 34.3996 39.22 34.5596 39.69C34.7196 40.15 34.7996 40.665 34.7996 41.235C34.7996 41.425 34.7396 41.57 34.6196 41.67C34.4996 41.76 34.3246 41.805 34.0946 41.805H29.3846V40.635H33.1646L32.9246 40.845C32.9246 40.435 32.8646 40.095 32.7446 39.825C32.6246 39.545 32.4496 39.335 32.2196 39.195C31.9996 39.055 31.7246 38.985 31.3946 38.985C31.0246 38.985 30.7096 39.07 30.4496 39.24C30.1896 39.41 29.9896 39.655 29.8496 39.975C29.7096 40.295 29.6396 40.68 29.6396 41.13V41.25C29.6396 42.01 29.8146 42.57 30.1646 42.93C30.5246 43.29 31.0546 43.47 31.7546 43.47C31.9946 43.47 32.2696 43.44 32.5796 43.38C32.8896 43.32 33.1796 43.225 33.4496 43.095C33.6796 42.985 33.8846 42.95 34.0646 42.99C34.2446 43.02 34.3846 43.1 34.4846 43.23C34.5846 43.36 34.6396 43.51 34.6496 43.68C34.6696 43.85 34.6346 44.02 34.5446 44.19C34.4546 44.35 34.3046 44.485 34.0946 44.595C33.7546 44.785 33.3696 44.925 32.9396 45.015C32.5196 45.115 32.1096 45.165 31.7096 45.165ZM37.2071 41.865C36.9571 41.865 36.7421 41.78 36.5621 41.61C36.3921 41.44 36.3071 41.23 36.3071 40.98C36.3071 40.72 36.3921 40.505 36.5621 40.335C36.7421 40.165 36.9571 40.08 37.2071 40.08H40.2971C40.5471 40.08 40.7571 40.165 40.9271 40.335C41.1071 40.505 41.1971 40.72 41.1971 40.98C41.1971 41.23 41.1071 41.44 40.9271 41.61C40.7571 41.78 40.5471 41.865 40.2971 41.865H37.2071ZM46.6883 45.165C45.8983 45.165 45.2083 45.01 44.6183 44.7C44.0383 44.39 43.5883 43.945 43.2683 43.365C42.9483 42.785 42.7883 42.1 42.7883 41.31C42.7883 40.72 42.8783 40.19 43.0583 39.72C43.2383 39.25 43.4983 38.85 43.8383 38.52C44.1883 38.18 44.6033 37.925 45.0833 37.755C45.5633 37.575 46.0983 37.485 46.6883 37.485C47.4783 37.485 48.1633 37.64 48.7433 37.95C49.3333 38.26 49.7883 38.7 50.1083 39.27C50.4383 39.84 50.6033 40.52 50.6033 41.31C50.6033 41.91 50.5083 42.445 50.3183 42.915C50.1383 43.385 49.8783 43.79 49.5383 44.13C49.1983 44.47 48.7833 44.73 48.2933 44.91C47.8133 45.08 47.2783 45.165 46.6883 45.165ZM46.6883 43.47C47.0183 43.47 47.3033 43.39 47.5433 43.23C47.7833 43.07 47.9733 42.835 48.1133 42.525C48.2533 42.205 48.3233 41.8 48.3233 41.31C48.3233 40.58 48.1733 40.045 47.8733 39.705C47.5733 39.355 47.1783 39.18 46.6883 39.18C46.3683 39.18 46.0833 39.255 45.8333 39.405C45.5933 39.555 45.4033 39.79 45.2633 40.11C45.1333 40.42 45.0683 40.82 45.0683 41.31C45.0683 42.04 45.2183 42.585 45.5183 42.945C45.8183 43.295 46.2083 43.47 46.6883 43.47ZM53.1213 45.135C52.7513 45.135 52.4663 45.035 52.2663 44.835C52.0763 44.635 51.9813 44.35 51.9813 43.98V38.655C51.9813 38.285 52.0763 38.005 52.2663 37.815C52.4663 37.615 52.7413 37.515 53.0913 37.515C53.4513 37.515 53.7263 37.615 53.9163 37.815C54.1063 38.005 54.2013 38.285 54.2013 38.655V39.51L54.0363 39.015C54.2663 38.525 54.6063 38.15 55.0563 37.89C55.5163 37.62 56.0363 37.485 56.6163 37.485C57.2063 37.485 57.6913 37.6 58.0713 37.83C58.4513 38.05 58.7363 38.39 58.9263 38.85C59.1163 39.3 59.2113 39.875 59.2113 40.575V43.98C59.2113 44.35 59.1113 44.635 58.9113 44.835C58.7213 45.035 58.4413 45.135 58.0713 45.135C57.7113 45.135 57.4313 45.035 57.2313 44.835C57.0413 44.635 56.9463 44.35 56.9463 43.98V40.68C56.9463 40.17 56.8513 39.805 56.6613 39.585C56.4813 39.355 56.2013 39.24 55.8213 39.24C55.3413 39.24 54.9563 39.39 54.6663 39.69C54.3863 39.99 54.2463 40.39 54.2463 40.89V43.98C54.2463 44.75 53.8713 45.135 53.1213 45.135ZM61.7872 41.865C61.5372 41.865 61.3222 41.78 61.1422 41.61C60.9722 41.44 60.8872 41.23 60.8872 40.98C60.8872 40.72 60.9722 40.505 61.1422 40.335C61.3222 40.165 61.5372 40.08 61.7872 40.08H64.8772C65.1272 40.08 65.3372 40.165 65.5072 40.335C65.6872 40.505 65.7772 40.72 65.7772 40.98C65.7772 41.23 65.6872 41.44 65.5072 41.61C65.3372 41.78 65.1272 41.865 64.8772 41.865H61.7872ZM71.2684 45.165C70.4784 45.165 69.7884 45.01 69.1984 44.7C68.6184 44.39 68.1684 43.945 67.8484 43.365C67.5284 42.785 67.3684 42.1 67.3684 41.31C67.3684 40.72 67.4584 40.19 67.6384 39.72C67.8184 39.25 68.0784 38.85 68.4184 38.52C68.7684 38.18 69.1834 37.925 69.6634 37.755C70.1434 37.575 70.6784 37.485 71.2684 37.485C72.0584 37.485 72.7434 37.64 73.3234 37.95C73.9134 38.26 74.3684 38.7 74.6884 39.27C75.0184 39.84 75.1834 40.52 75.1834 41.31C75.1834 41.91 75.0884 42.445 74.8984 42.915C74.7184 43.385 74.4584 43.79 74.1184 44.13C73.7784 44.47 73.3634 44.73 72.8734 44.91C72.3934 45.08 71.8584 45.165 71.2684 45.165ZM71.2684 43.47C71.5984 43.47 71.8834 43.39 72.1234 43.23C72.3634 43.07 72.5534 42.835 72.6934 42.525C72.8334 42.205 72.9034 41.8 72.9034 41.31C72.9034 40.58 72.7534 40.045 72.4534 39.705C72.1534 39.355 71.7584 39.18 71.2684 39.18C70.9484 39.18 70.6634 39.255 70.4134 39.405C70.1734 39.555 69.9834 39.79 69.8434 40.11C69.7134 40.42 69.6484 40.82 69.6484 41.31C69.6484 42.04 69.7984 42.585 70.0984 42.945C70.3984 43.295 70.7884 43.47 71.2684 43.47ZM77.7014 45.135C77.3314 45.135 77.0464 45.035 76.8464 44.835C76.6564 44.635 76.5614 44.35 76.5614 43.98V38.655C76.5614 38.285 76.6564 38.005 76.8464 37.815C77.0464 37.615 77.3214 37.515 77.6714 37.515C78.0314 37.515 78.3064 37.615 78.4964 37.815C78.6864 38.005 78.7814 38.285 78.7814 38.655V39.51L78.6164 39.015C78.8464 38.525 79.1864 38.15 79.6364 37.89C80.0964 37.62 80.6164 37.485 81.1964 37.485C81.7864 37.485 82.2714 37.6 82.6514 37.83C83.0314 38.05 83.3164 38.39 83.5064 38.85C83.6964 39.3 83.7914 39.875 83.7914 40.575V43.98C83.7914 44.35 83.6914 44.635 83.4914 44.835C83.3014 45.035 83.0214 45.135 82.6514 45.135C82.2914 45.135 82.0114 45.035 81.8114 44.835C81.6214 44.635 81.5264 44.35 81.5264 43.98V40.68C81.5264 40.17 81.4314 39.805 81.2414 39.585C81.0614 39.355 80.7814 39.24 80.4014 39.24C79.9214 39.24 79.5364 39.39 79.2464 39.69C78.9664 39.99 78.8264 40.39 78.8264 40.89V43.98C78.8264 44.75 78.4514 45.135 77.7014 45.135ZM89.3073 45.165C88.4373 45.165 87.6873 45.01 87.0573 44.7C86.4373 44.38 85.9573 43.935 85.6173 43.365C85.2873 42.785 85.1223 42.105 85.1223 41.325C85.1223 40.565 85.2823 39.9 85.6023 39.33C85.9223 38.75 86.3673 38.3 86.9373 37.98C87.5173 37.65 88.1723 37.485 88.9023 37.485C89.4323 37.485 89.9123 37.575 90.3423 37.755C90.7723 37.925 91.1423 38.175 91.4523 38.505C91.7623 38.825 91.9973 39.22 92.1573 39.69C92.3173 40.15 92.3973 40.665 92.3973 41.235C92.3973 41.425 92.3373 41.57 92.2173 41.67C92.0973 41.76 91.9223 41.805 91.6923 41.805H86.9823V40.635H90.7623L90.5223 40.845C90.5223 40.435 90.4623 40.095 90.3423 39.825C90.2223 39.545 90.0473 39.335 89.8173 39.195C89.5973 39.055 89.3223 38.985 88.9923 38.985C88.6223 38.985 88.3073 39.07 88.0473 39.24C87.7873 39.41 87.5873 39.655 87.4473 39.975C87.3073 40.295 87.2373 40.68 87.2373 41.13V41.25C87.2373 42.01 87.4123 42.57 87.7623 42.93C88.1223 43.29 88.6523 43.47 89.3523 43.47C89.5923 43.47 89.8673 43.44 90.1773 43.38C90.4873 43.32 90.7773 43.225 91.0473 43.095C91.2773 42.985 91.4823 42.95 91.6623 42.99C91.8423 43.02 91.9823 43.1 92.0823 43.23C92.1823 43.36 92.2373 43.51 92.2473 43.68C92.2673 43.85 92.2323 44.02 92.1423 44.19C92.0523 44.35 91.9023 44.485 91.6923 44.595C91.3523 44.785 90.9673 44.925 90.5373 45.015C90.1173 45.115 89.7073 45.165 89.3073 45.165Z" fill="black"/>
</svg>
