<svg xmlns="http://www.w3.org/2000/svg" width="75" height="49" viewBox="0 0 75 49" fill="none">
<rect x="26.8203" y="7.32031" width="23.08" height="14.3529" rx="1.5" fill="#D9D9D9" stroke="white"/>
<path d="M16 29V25.5882H19.5833V0H55.4167V25.5882H59V29H16ZM33.9167 25.5882H41.0833V23.8824H33.9167V25.5882Z" fill="black"/>
<path d="M31.4998 14.0588C31.4998 15.472 30.3447 16.6176 28.9198 16.6176C27.4949 16.6176 26.3398 15.472 26.3398 14.0588C26.3398 12.6456 27.4949 11.5 28.9198 11.5C30.3447 11.5 31.4998 12.6456 31.4998 14.0588Z" fill="white"/>
<path d="M34.7784 16V11.77H36.6984C37.1744 11.77 37.5424 11.884 37.8024 12.112C38.0624 12.336 38.1924 12.65 38.1924 13.054C38.1924 13.318 38.1324 13.546 38.0124 13.738C37.8964 13.926 37.7284 14.072 37.5084 14.176C37.2924 14.276 37.0324 14.326 36.7284 14.326L36.8004 14.194H37.0464C37.2184 14.194 37.3704 14.24 37.5024 14.332C37.6384 14.424 37.7504 14.558 37.8384 14.734L38.4684 16H37.4364L36.7824 14.638C36.7344 14.522 36.6584 14.446 36.5544 14.41C36.4544 14.37 36.3384 14.35 36.2064 14.35H35.7144V16H34.7784ZM35.7144 13.678H36.5364C36.7804 13.678 36.9664 13.628 37.0944 13.528C37.2224 13.428 37.2864 13.28 37.2864 13.084C37.2864 12.888 37.2224 12.742 37.0944 12.646C36.9664 12.546 36.7804 12.496 36.5364 12.496H35.7144V13.678ZM39.0264 16V11.77H41.9664V12.496H39.9204V13.486H41.8224V14.218H39.9204V15.274H41.9664V16H39.0264ZM44.6642 16.066C44.2122 16.066 43.8242 15.976 43.5002 15.796C43.1762 15.616 42.9262 15.364 42.7502 15.04C42.5782 14.712 42.4922 14.326 42.4922 13.882C42.4922 13.438 42.5782 13.054 42.7502 12.73C42.9262 12.406 43.1762 12.154 43.5002 11.974C43.8242 11.794 44.2122 11.704 44.6642 11.704C44.9562 11.704 45.2222 11.746 45.4622 11.83C45.7022 11.91 45.9062 12.028 46.0742 12.184L45.7802 12.922C45.5962 12.778 45.4202 12.676 45.2522 12.616C45.0882 12.556 44.9022 12.526 44.6942 12.526C44.2982 12.526 43.9942 12.644 43.7822 12.88C43.5742 13.112 43.4702 13.446 43.4702 13.882C43.4702 14.318 43.5742 14.654 43.7822 14.89C43.9942 15.126 44.2982 15.244 44.6942 15.244C44.9022 15.244 45.0882 15.214 45.2522 15.154C45.4202 15.094 45.5962 14.992 45.7802 14.848L46.0742 15.586C45.9062 15.738 45.7022 15.856 45.4622 15.94C45.2222 16.024 44.9562 16.066 44.6642 16.066Z" fill="white"/>
<path d="M33.5 23.5H41.5V26H33.5V23.5Z" fill="white"/>
<path d="M6.27797 48.135C5.89797 48.135 5.60797 48.03 5.40797 47.82C5.20797 47.61 5.10797 47.315 5.10797 46.935V38.61C5.10797 38.22 5.20797 37.925 5.40797 37.725C5.61797 37.525 5.91297 37.425 6.29297 37.425H9.93797C11.118 37.425 12.028 37.71 12.668 38.28C13.308 38.85 13.628 39.645 13.628 40.665C13.628 41.325 13.483 41.895 13.193 42.375C12.903 42.855 12.483 43.225 11.933 43.485C11.393 43.745 10.728 43.875 9.93797 43.875L10.058 43.62H10.673C11.093 43.62 11.458 43.725 11.768 43.935C12.088 44.135 12.363 44.445 12.593 44.865L13.523 46.59C13.663 46.84 13.728 47.085 13.718 47.325C13.708 47.565 13.618 47.76 13.448 47.91C13.278 48.06 13.028 48.135 12.698 48.135C12.368 48.135 12.098 48.065 11.888 47.925C11.688 47.785 11.508 47.57 11.348 47.28L9.90797 44.625C9.75797 44.345 9.57297 44.155 9.35297 44.055C9.14297 43.955 8.88297 43.905 8.57297 43.905H7.43297V46.935C7.43297 47.315 7.33297 47.61 7.13297 47.82C6.94297 48.03 6.65797 48.135 6.27797 48.135ZM7.43297 42.225H9.51797C10.138 42.225 10.603 42.1 10.913 41.85C11.233 41.6 11.393 41.225 11.393 40.725C11.393 40.235 11.233 39.865 10.913 39.615C10.603 39.365 10.138 39.24 9.51797 39.24H7.43297V42.225ZM18.9772 48.165C18.1072 48.165 17.3572 48.01 16.7272 47.7C16.1072 47.38 15.6272 46.935 15.2872 46.365C14.9572 45.785 14.7922 45.105 14.7922 44.325C14.7922 43.565 14.9522 42.9 15.2722 42.33C15.5922 41.75 16.0372 41.3 16.6072 40.98C17.1872 40.65 17.8422 40.485 18.5722 40.485C19.1022 40.485 19.5822 40.575 20.0122 40.755C20.4422 40.925 20.8122 41.175 21.1222 41.505C21.4322 41.825 21.6672 42.22 21.8272 42.69C21.9872 43.15 22.0672 43.665 22.0672 44.235C22.0672 44.425 22.0072 44.57 21.8872 44.67C21.7672 44.76 21.5922 44.805 21.3622 44.805H16.6522V43.635H20.4322L20.1922 43.845C20.1922 43.435 20.1322 43.095 20.0122 42.825C19.8922 42.545 19.7172 42.335 19.4872 42.195C19.2672 42.055 18.9922 41.985 18.6622 41.985C18.2922 41.985 17.9772 42.07 17.7172 42.24C17.4572 42.41 17.2572 42.655 17.1172 42.975C16.9772 43.295 16.9072 43.68 16.9072 44.13V44.25C16.9072 45.01 17.0822 45.57 17.4322 45.93C17.7922 46.29 18.3222 46.47 19.0222 46.47C19.2622 46.47 19.5372 46.44 19.8472 46.38C20.1572 46.32 20.4472 46.225 20.7172 46.095C20.9472 45.985 21.1522 45.95 21.3322 45.99C21.5122 46.02 21.6522 46.1 21.7522 46.23C21.8522 46.36 21.9072 46.51 21.9172 46.68C21.9372 46.85 21.9022 47.02 21.8122 47.19C21.7222 47.35 21.5722 47.485 21.3622 47.595C21.0222 47.785 20.6372 47.925 20.2072 48.015C19.7872 48.115 19.3772 48.165 18.9772 48.165ZM26.9696 48.165C26.1696 48.165 25.4696 48.01 24.8696 47.7C24.2796 47.38 23.8246 46.93 23.5046 46.35C23.1846 45.77 23.0246 45.085 23.0246 44.295C23.0246 43.705 23.1146 43.175 23.2946 42.705C23.4746 42.235 23.7346 41.835 24.0746 41.505C24.4246 41.175 24.8446 40.925 25.3346 40.755C25.8246 40.575 26.3696 40.485 26.9696 40.485C27.2796 40.485 27.6096 40.525 27.9596 40.605C28.3096 40.675 28.6546 40.8 28.9946 40.98C29.1946 41.07 29.3296 41.2 29.3996 41.37C29.4796 41.53 29.5096 41.7 29.4896 41.88C29.4696 42.05 29.4046 42.205 29.2946 42.345C29.1946 42.475 29.0646 42.565 28.9046 42.615C28.7446 42.655 28.5646 42.625 28.3646 42.525C28.1746 42.415 27.9746 42.335 27.7646 42.285C27.5646 42.235 27.3746 42.21 27.1946 42.21C26.8946 42.21 26.6296 42.26 26.3996 42.36C26.1696 42.45 25.9746 42.585 25.8146 42.765C25.6646 42.935 25.5446 43.15 25.4546 43.41C25.3746 43.67 25.3346 43.97 25.3346 44.31C25.3346 44.97 25.4946 45.49 25.8146 45.87C26.1446 46.24 26.6046 46.425 27.1946 46.425C27.3746 46.425 27.5646 46.405 27.7646 46.365C27.9646 46.315 28.1646 46.235 28.3646 46.125C28.5646 46.025 28.7446 46 28.9046 46.05C29.0646 46.1 29.1896 46.195 29.2796 46.335C29.3796 46.465 29.4346 46.62 29.4446 46.8C29.4646 46.97 29.4346 47.14 29.3546 47.31C29.2846 47.47 29.1546 47.595 28.9646 47.685C28.6246 47.855 28.2846 47.975 27.9446 48.045C27.6046 48.125 27.2796 48.165 26.9696 48.165ZM33.9412 48.165C33.1513 48.165 32.4613 48.01 31.8713 47.7C31.2913 47.39 30.8413 46.945 30.5212 46.365C30.2013 45.785 30.0413 45.1 30.0413 44.31C30.0413 43.72 30.1313 43.19 30.3113 42.72C30.4913 42.25 30.7513 41.85 31.0913 41.52C31.4413 41.18 31.8563 40.925 32.3363 40.755C32.8163 40.575 33.3513 40.485 33.9412 40.485C34.7313 40.485 35.4163 40.64 35.9963 40.95C36.5863 41.26 37.0413 41.7 37.3613 42.27C37.6913 42.84 37.8563 43.52 37.8563 44.31C37.8563 44.91 37.7613 45.445 37.5713 45.915C37.3913 46.385 37.1313 46.79 36.7913 47.13C36.4513 47.47 36.0363 47.73 35.5463 47.91C35.0663 48.08 34.5313 48.165 33.9412 48.165ZM33.9412 46.47C34.2713 46.47 34.5563 46.39 34.7963 46.23C35.0363 46.07 35.2263 45.835 35.3663 45.525C35.5063 45.205 35.5763 44.8 35.5763 44.31C35.5763 43.58 35.4263 43.045 35.1263 42.705C34.8263 42.355 34.4313 42.18 33.9412 42.18C33.6213 42.18 33.3363 42.255 33.0863 42.405C32.8463 42.555 32.6563 42.79 32.5163 43.11C32.3863 43.42 32.3213 43.82 32.3213 44.31C32.3213 45.04 32.4713 45.585 32.7713 45.945C33.0713 46.295 33.4613 46.47 33.9412 46.47ZM40.4043 48.135C40.0243 48.135 39.7343 48.035 39.5343 47.835C39.3343 47.635 39.2343 47.35 39.2343 46.98V41.655C39.2343 41.285 39.3293 41.005 39.5193 40.815C39.7193 40.615 39.9943 40.515 40.3443 40.515C40.7043 40.515 40.9793 40.615 41.1693 40.815C41.3593 41.005 41.4543 41.285 41.4543 41.655V42.435H41.3043C41.4243 41.835 41.6893 41.37 42.0993 41.04C42.5093 40.71 43.0393 40.525 43.6893 40.485C43.9393 40.465 44.1293 40.53 44.2593 40.68C44.3993 40.82 44.4743 41.055 44.4843 41.385C44.5043 41.695 44.4393 41.94 44.2893 42.12C44.1493 42.3 43.9093 42.41 43.5693 42.45L43.2243 42.48C42.6543 42.53 42.2293 42.695 41.9493 42.975C41.6793 43.255 41.5443 43.66 41.5443 44.19V46.98C41.5443 47.35 41.4443 47.635 41.2443 47.835C41.0543 48.035 40.7743 48.135 40.4043 48.135ZM48.1491 48.165C47.5091 48.165 46.9441 48.01 46.4541 47.7C45.9741 47.39 45.5991 46.945 45.3291 46.365C45.0591 45.785 44.9241 45.1 44.9241 44.31C44.9241 43.52 45.0591 42.84 45.3291 42.27C45.5991 41.7 45.9741 41.26 46.4541 40.95C46.9441 40.64 47.5091 40.485 48.1491 40.485C48.7291 40.485 49.2391 40.625 49.6791 40.905C50.1291 41.185 50.4341 41.55 50.5941 42H50.4291V38.445C50.4291 38.065 50.5241 37.78 50.7141 37.59C50.9041 37.39 51.1841 37.29 51.5541 37.29C51.9141 37.29 52.1941 37.39 52.3941 37.59C52.5941 37.78 52.6941 38.065 52.6941 38.445V46.98C52.6941 47.35 52.5941 47.635 52.3941 47.835C52.2041 48.035 51.9291 48.135 51.5691 48.135C51.2091 48.135 50.9291 48.035 50.7291 47.835C50.5391 47.635 50.4441 47.35 50.4441 46.98V45.96L50.6091 46.545C50.4691 47.035 50.1691 47.43 49.7091 47.73C49.2591 48.02 48.7391 48.165 48.1491 48.165ZM48.8241 46.47C49.1541 46.47 49.4391 46.39 49.6791 46.23C49.9191 46.07 50.1091 45.835 50.2491 45.525C50.3891 45.205 50.4591 44.8 50.4591 44.31C50.4591 43.58 50.3091 43.045 50.0091 42.705C49.7091 42.355 49.3141 42.18 48.8241 42.18C48.5041 42.18 48.2191 42.255 47.9691 42.405C47.7291 42.555 47.5391 42.79 47.3991 43.11C47.2691 43.42 47.2041 43.82 47.2041 44.31C47.2041 45.04 47.3541 45.585 47.6541 45.945C47.9541 46.295 48.3441 46.47 48.8241 46.47ZM58.2643 48.165C57.3943 48.165 56.6443 48.01 56.0143 47.7C55.3943 47.38 54.9143 46.935 54.5743 46.365C54.2443 45.785 54.0793 45.105 54.0793 44.325C54.0793 43.565 54.2393 42.9 54.5593 42.33C54.8793 41.75 55.3243 41.3 55.8943 40.98C56.4743 40.65 57.1293 40.485 57.8593 40.485C58.3893 40.485 58.8693 40.575 59.2993 40.755C59.7293 40.925 60.0993 41.175 60.4093 41.505C60.7193 41.825 60.9543 42.22 61.1143 42.69C61.2743 43.15 61.3543 43.665 61.3543 44.235C61.3543 44.425 61.2943 44.57 61.1743 44.67C61.0543 44.76 60.8793 44.805 60.6493 44.805H55.9393V43.635H59.7193L59.4793 43.845C59.4793 43.435 59.4193 43.095 59.2993 42.825C59.1793 42.545 59.0043 42.335 58.7743 42.195C58.5543 42.055 58.2793 41.985 57.9493 41.985C57.5793 41.985 57.2643 42.07 57.0043 42.24C56.7443 42.41 56.5443 42.655 56.4043 42.975C56.2643 43.295 56.1943 43.68 56.1943 44.13V44.25C56.1943 45.01 56.3693 45.57 56.7193 45.93C57.0793 46.29 57.6093 46.47 58.3093 46.47C58.5493 46.47 58.8243 46.44 59.1343 46.38C59.4443 46.32 59.7343 46.225 60.0043 46.095C60.2343 45.985 60.4393 45.95 60.6193 45.99C60.7993 46.02 60.9393 46.1 61.0393 46.23C61.1393 46.36 61.1943 46.51 61.2043 46.68C61.2243 46.85 61.1893 47.02 61.0993 47.19C61.0093 47.35 60.8593 47.485 60.6493 47.595C60.3093 47.785 59.9243 47.925 59.4943 48.015C59.0743 48.115 58.6643 48.165 58.2643 48.165ZM65.5368 48.165C64.8968 48.165 64.3318 48.01 63.8418 47.7C63.3618 47.39 62.9868 46.945 62.7168 46.365C62.4468 45.785 62.3118 45.1 62.3118 44.31C62.3118 43.52 62.4468 42.84 62.7168 42.27C62.9868 41.7 63.3618 41.26 63.8418 40.95C64.3318 40.64 64.8968 40.485 65.5368 40.485C66.1168 40.485 66.6268 40.625 67.0668 40.905C67.5168 41.185 67.8218 41.55 67.9818 42H67.8168V38.445C67.8168 38.065 67.9118 37.78 68.1018 37.59C68.2918 37.39 68.5718 37.29 68.9418 37.29C69.3018 37.29 69.5818 37.39 69.7818 37.59C69.9818 37.78 70.0818 38.065 70.0818 38.445V46.98C70.0818 47.35 69.9818 47.635 69.7818 47.835C69.5918 48.035 69.3168 48.135 68.9568 48.135C68.5968 48.135 68.3168 48.035 68.1168 47.835C67.9268 47.635 67.8318 47.35 67.8318 46.98V45.96L67.9968 46.545C67.8568 47.035 67.5568 47.43 67.0968 47.73C66.6468 48.02 66.1268 48.165 65.5368 48.165ZM66.2118 46.47C66.5418 46.47 66.8268 46.39 67.0668 46.23C67.3068 46.07 67.4968 45.835 67.6368 45.525C67.7768 45.205 67.8468 44.8 67.8468 44.31C67.8468 43.58 67.6968 43.045 67.3968 42.705C67.0968 42.355 66.7018 42.18 66.2118 42.18C65.8918 42.18 65.6068 42.255 65.3568 42.405C65.1168 42.555 64.9268 42.79 64.7868 43.11C64.6568 43.42 64.5918 43.82 64.5918 44.31C64.5918 45.04 64.7418 45.585 65.0418 45.945C65.3418 46.295 65.7318 46.47 66.2118 46.47Z" fill="black"/>
</svg>