<svg width="54" height="54" viewBox="0 0 54 54" fill="none" xmlns="http://www.w3.org/2000/svg">
<g filter="url(#filter0_d)">
<circle cx="27" cy="25" r="20" fill="white"/>
</g>
<circle cx="38" cy="40" r="6.5" stroke="#339B31"/>
<circle cx="38" cy="40" r="5" fill="#62D05F"/>
<path d="M37 14H17V30.8468H24.5278L24.4478 31.0601C24.0513 32.1175 23.0261 32.828 21.8969 32.828H21.847V34H32.153V32.828C31.0237 32.828 29.9986 32.1175 29.6021 31.06L29.5221 30.8468H37V14ZM35.8281 15.172V27.3077H18.1719V15.172H35.8281ZM28.5048 31.4716C28.6987 31.9887 28.9979 32.4477 29.372 32.828H24.6779C25.052 32.4477 25.3512 31.9887 25.5451 31.4716L25.7794 30.8468H28.2705L28.5048 31.4716ZM18.1719 29.6748V28.4797H35.8281V29.6748H18.1719Z" fill="black"/>
<path d="M20.2962 23.7261C20.2962 24.7323 21.1147 25.5508 22.1207 25.5508C23.1267 25.5508 23.9452 24.7323 23.9452 23.7261V22.8655H30.0467V23.7261C30.0467 24.7323 30.8651 25.5508 31.8711 25.5508C32.8771 25.5508 33.6956 24.7323 33.6956 23.7261V21.7716H34.7184V20.5996H33.6956V18.645C33.6956 17.6388 32.8771 16.8203 31.8711 16.8203C30.8651 16.8203 30.0467 17.6388 30.0467 18.645V19.5056H23.9452V18.645C23.9452 17.6388 23.1267 16.8203 22.1207 16.8203C21.1146 16.8203 20.2962 17.6388 20.2962 18.645V20.5996H19.2734V21.7716H20.2962V23.7261ZM31.2186 18.645C31.2186 18.2851 31.5113 17.9923 31.8711 17.9923C32.231 17.9923 32.5237 18.2851 32.5237 18.645V23.7261C32.5237 24.086 32.231 24.3788 31.8711 24.3788C31.5113 24.3788 31.2186 24.086 31.2186 23.7261V18.645ZM30.0467 20.6776V21.6935H23.9452V20.6776H30.0467ZM21.4681 18.645C21.4681 18.2851 21.7609 17.9923 22.1207 17.9923C22.4805 17.9923 22.7733 18.2851 22.7733 18.645V23.7261C22.7733 24.086 22.4805 24.3788 22.1207 24.3788C21.7609 24.3788 21.4681 24.086 21.4681 23.7261V18.645Z" fill="black"/>
<defs>
<filter id="filter0_d" x="0" y="0" width="54" height="54" filterUnits="userSpaceOnUse" color-interpolation-filters="sRGB">
<feFlood flood-opacity="0" result="BackgroundImageFix"/>
<feColorMatrix in="SourceAlpha" type="matrix" values="0 0 0 0 0 0 0 0 0 0 0 0 0 0 0 0 0 0 127 0" result="hardAlpha"/>
<feOffset dy="2"/>
<feGaussianBlur stdDeviation="3.5"/>
<feColorMatrix type="matrix" values="0 0 0 0 0 0 0 0 0 0 0 0 0 0 0 0 0 0 0.2 0"/>
<feBlend mode="normal" in2="BackgroundImageFix" result="effect1_dropShadow"/>
<feBlend mode="normal" in="SourceGraphic" in2="effect1_dropShadow" result="shape"/>
</filter>
</defs>
</svg>
