<svg width="54" height="54" viewBox="0 0 54 54" fill="none" xmlns="http://www.w3.org/2000/svg">
<g filter="url(#filter0_d)">
<path d="M27 45C38.0457 45 47 36.0457 47 25C47 13.9543 38.0457 5 27 5C15.9543 5 7 13.9543 7 25C7 36.0457 15.9543 45 27 45Z" fill="white"/>
</g>
<path d="M37.4778 33.852H19.1332C18.8776 33.8528 18.6261 33.7889 18.4019 33.6663C18.1777 33.5438 17.9881 33.3665 17.8508 33.151L14.2402 27.509C14.1324 27.3407 14.0588 27.1527 14.0237 26.9559C13.9886 26.7591 13.9925 26.5573 14.0354 26.3621C14.0782 26.1668 14.1591 25.9819 14.2734 25.8179C14.3877 25.6539 14.5332 25.514 14.7016 25.4062C15.0416 25.1886 15.4542 25.1149 15.8485 25.2014C16.2429 25.2879 16.5867 25.5276 16.8044 25.8676L19.966 30.8076H37.4778C37.8815 30.8076 38.2687 30.9679 38.5541 31.2534C38.8396 31.5389 39 31.9261 39 32.3298C39 32.7335 38.8396 33.1207 38.5541 33.4062C38.2687 33.6916 37.8815 33.852 37.4778 33.852ZM15.521 25.9227C15.3838 25.9228 15.2492 25.9598 15.1313 26.0299C15.0134 26.0999 14.9165 26.2004 14.8507 26.3208C14.785 26.4412 14.7528 26.577 14.7577 26.7141C14.7625 26.8512 14.8041 26.9845 14.8781 27.0999L18.4892 32.7419C18.558 32.8504 18.6531 32.9398 18.7657 33.0016C18.8783 33.0634 19.0047 33.0957 19.1332 33.0955H37.4778C37.6806 33.0955 37.8751 33.0149 38.0185 32.8715C38.1619 32.7281 38.2424 32.5336 38.2424 32.3308C38.2424 32.128 38.1619 31.9335 38.0185 31.7901C37.8751 31.6467 37.6806 31.5661 37.4778 31.5661H19.7589C19.6953 31.5662 19.6327 31.5502 19.5769 31.5197C19.5211 31.4891 19.474 31.445 19.4397 31.3914L16.166 26.2757C16.1119 26.191 16.0417 26.1178 15.9592 26.0603C15.8768 26.0028 15.7838 25.9622 15.6857 25.9408C15.6315 25.9292 15.5764 25.9228 15.521 25.9227Z" fill="black"/>
<path d="M19.4998 36.7047C19.4374 36.7046 19.376 36.6891 19.321 36.6596C19.2661 36.6301 19.2192 36.5875 19.1846 36.5355C19.1501 36.4836 19.1289 36.4239 19.1229 36.3618C19.1169 36.2997 19.1263 36.237 19.1503 36.1795L20.3493 33.3249C20.3895 33.2342 20.4636 33.163 20.5557 33.1264C20.6479 33.0897 20.7507 33.0907 20.8421 33.1291C20.9335 33.1674 21.0063 33.2401 21.0448 33.3314C21.0832 33.4228 21.0843 33.5256 21.0478 33.6178L19.8488 36.4724C19.82 36.5412 19.7715 36.6 19.7094 36.6413C19.6474 36.6827 19.5744 36.7047 19.4998 36.7047Z" fill="black"/>
<path d="M36.5898 36.706C36.5153 36.706 36.4424 36.684 36.3804 36.6427C36.3183 36.6015 36.2698 36.5429 36.2408 36.4742L35.0413 33.6196C35.0024 33.527 35.0018 33.4227 35.0397 33.3296C35.0776 33.2366 35.151 33.1624 35.2436 33.1234C35.3362 33.0844 35.4406 33.0838 35.5336 33.1218C35.6267 33.1597 35.7009 33.233 35.7398 33.3257L36.9393 36.1803C36.9636 36.2379 36.9732 36.3006 36.9673 36.3628C36.9615 36.4251 36.9403 36.4849 36.9057 36.5369C36.8711 36.589 36.8241 36.6317 36.769 36.6612C36.7139 36.6907 36.6523 36.7061 36.5898 36.706Z" fill="black"/>
<path d="M17.4025 23.1076C17.3757 23.1074 17.349 23.1046 17.3227 23.099C17.2611 23.0858 17.2038 23.0575 17.156 23.0164C17.1081 22.9754 17.0714 22.923 17.049 22.8641C16.9528 22.6176 16.8703 22.3658 16.802 22.1101C16.3304 20.3575 16.5728 18.4895 17.4762 16.9153C18.3795 15.3412 19.8701 14.1895 21.6213 13.7125H21.6243C21.7203 13.6908 21.8209 13.7071 21.905 13.7582C21.9891 13.8093 22.0501 13.891 22.0751 13.9862C22.1001 14.0813 22.0871 14.1825 22.0389 14.2683C21.9907 14.354 21.911 14.4177 21.8167 14.4459C21.2687 14.5898 20.8571 15.3302 20.694 16.4762C20.5288 17.9909 20.6583 19.5233 21.0753 20.9889C21.1389 21.2323 21.2096 21.4646 21.2773 21.6959C21.2955 21.7563 21.2983 21.8202 21.2855 21.882C21.2727 21.9437 21.2447 22.0013 21.2041 22.0495C21.1636 22.098 21.1114 22.1355 21.0525 22.1584C20.9936 22.1814 20.9299 22.1891 20.8672 22.1808C19.45 22.001 18.4041 22.2677 17.6672 22.9975C17.5969 23.0675 17.5018 23.1071 17.4025 23.1076ZM20.2718 15.0939C19.1399 15.7832 18.2616 16.8205 17.7682 18.0505C17.2749 19.2805 17.193 20.6372 17.5349 21.9177C17.549 21.9732 17.5652 22.0283 17.5818 22.0853C18.4126 21.5369 19.4052 21.2876 20.3965 21.3783C20.3778 21.3126 20.3601 21.2464 20.3425 21.1798C19.9 19.6162 19.7648 17.9816 19.9445 16.3666C20.0018 15.9307 20.1117 15.5033 20.2718 15.0939Z" fill="black"/>
<path d="M26.2153 20.7915C26.1702 20.7913 26.1254 20.7833 26.083 20.7677C26.0238 20.7456 25.9711 20.7091 25.9295 20.6615C25.888 20.6139 25.859 20.5567 25.8451 20.495C25.7946 20.2581 25.7395 20.0223 25.6754 19.7783C24.7567 16.2813 22.9087 14.1672 21.8148 14.445C21.7188 14.4667 21.6182 14.4504 21.534 14.3993C21.4499 14.3482 21.389 14.2665 21.364 14.1713C21.339 14.0762 21.352 13.975 21.4002 13.8892C21.4484 13.8035 21.5281 13.7398 21.6223 13.7116C23.382 13.2663 25.2465 13.5366 26.8072 14.4634C28.3679 15.3902 29.4976 16.8979 29.9487 18.6561C30.0147 18.9123 30.0666 19.172 30.1042 19.4339C30.1134 19.4962 30.1069 19.5598 30.0853 19.619C30.0638 19.6782 30.0278 19.731 29.9807 19.7728C29.9336 19.8146 29.8768 19.844 29.8155 19.8584C29.7542 19.8728 29.6903 19.8716 29.6295 19.8551C28.629 19.5829 27.5865 19.8637 26.4416 20.7167C26.376 20.7651 26.2968 20.7913 26.2153 20.7915ZM23.4587 14.251C24.6375 15.1793 25.7638 17.1329 26.4082 19.5859C26.4254 19.6531 26.4431 19.7193 26.4587 19.7854C27.2771 19.2186 28.2642 18.9475 29.2573 19.0167C29.2441 18.9597 29.2305 18.9036 29.2158 18.848C28.8829 17.562 28.1418 16.4186 27.1037 15.5897C26.0656 14.7608 24.7866 14.2911 23.4587 14.251Z" fill="black"/>
<path d="M20.9165 22.1835C20.8794 22.1834 20.8424 22.178 20.8069 22.1674C20.7472 22.1493 20.693 22.1168 20.6489 22.0728C20.6049 22.0287 20.5724 21.9745 20.5543 21.9148C20.4811 21.6734 20.4089 21.4325 20.3422 21.18C19.8997 19.6164 19.7646 17.9818 19.9442 16.3668C20.1579 14.8829 20.7523 13.9429 21.624 13.7116C23.3275 13.2687 25.4337 15.8441 26.416 19.584C26.4786 19.8219 26.5312 20.0547 26.5832 20.2865C26.5977 20.3503 26.597 20.4166 26.5811 20.48C26.5652 20.5435 26.5346 20.6023 26.4918 20.6517C26.4509 20.6992 26.399 20.7361 26.3407 20.7591C26.2823 20.7821 26.2193 20.7904 26.1569 20.7835C25.2786 20.6059 24.3712 20.6319 23.5044 20.8595C22.6377 21.0871 21.8346 21.5103 21.1569 22.0966C21.0892 22.1526 21.0043 22.1833 20.9165 22.1835ZM22.0215 14.4178C21.9523 14.4175 21.884 14.4258 21.8171 14.4436C21.2691 14.5875 20.8568 15.3293 20.6937 16.4753C20.5285 17.99 20.658 19.5224 21.075 20.988C21.0907 21.0491 21.1074 21.1088 21.1256 21.1689C22.4552 20.2037 24.0983 19.7721 25.7307 19.9593C25.7155 19.8976 25.7004 19.837 25.6842 19.7759C24.819 16.4875 23.1276 14.4178 22.0215 14.4178Z" fill="black"/>
<path d="M26.1396 31.4772C26.056 31.4771 25.9748 31.4494 25.9086 31.3983C25.8423 31.3473 25.7948 31.2758 25.7735 31.1949L21.1179 13.4751C21.1052 13.4269 21.1022 13.3768 21.109 13.3275C21.1157 13.2782 21.1321 13.2307 21.1572 13.1878C21.1823 13.1448 21.2156 13.1072 21.2552 13.0771C21.2948 13.047 21.34 13.0251 21.3881 13.0124C21.4853 12.9869 21.5886 13.001 21.6754 13.0517C21.7183 13.0768 21.7559 13.1101 21.786 13.1497C21.8161 13.1893 21.8381 13.2345 21.8507 13.2826L26.5068 31.0025C26.5322 31.0997 26.5179 31.2031 26.4672 31.2898C26.4164 31.3766 26.3333 31.4396 26.2361 31.4651C26.2046 31.4732 26.1722 31.4772 26.1396 31.4772Z" fill="black"/>
<defs>
<filter id="filter0_d" x="0" y="0" width="54" height="54" filterUnits="userSpaceOnUse" color-interpolation-filters="sRGB">
<feFlood flood-opacity="0" result="BackgroundImageFix"/>
<feColorMatrix in="SourceAlpha" type="matrix" values="0 0 0 0 0 0 0 0 0 0 0 0 0 0 0 0 0 0 127 0"/>
<feOffset dy="2"/>
<feGaussianBlur stdDeviation="3.5"/>
<feColorMatrix type="matrix" values="0 0 0 0 0 0 0 0 0 0 0 0 0 0 0 0 0 0 0.2 0"/>
<feBlend mode="normal" in2="BackgroundImageFix" result="effect1_dropShadow"/>
<feBlend mode="normal" in="SourceGraphic" in2="effect1_dropShadow" result="shape"/>
</filter>
</defs>
</svg>
