<svg width="70" height="70" viewBox="0 0 70 70" fill="none" xmlns="http://www.w3.org/2000/svg">
<path d="M2.1875 36.3125C2.1875 50.75 16.8437 67.8125 35 67.8125C53.1562 67.8125 67.8125 50.75 67.8125 36.3125H2.1875Z" fill="#B2C1C0"/>
<path d="M67.8125 36.3125C67.8125 45.6094 53.1562 53.1562 35 53.1562C16.8437 53.1562 2.1875 45.6094 2.1875 36.3125C2.1875 27.0156 16.8437 19.4688 35 19.4688C53.1562 19.4688 67.8125 27.0156 67.8125 36.3125Z" fill="#E8E8E8"/>
<path d="M35 50.9687C18.375 50.9687 4.26562 44.1875 4.26562 36.2031C4.26562 28.2187 18.375 21.4375 35 21.4375C51.625 21.4375 65.7344 28.2187 65.7344 36.2031C65.7344 44.2969 51.625 50.9687 35 50.9687Z" fill="#B2C1C0"/>
<path d="M13.6719 17.9375C13.7813 19.7969 14.6563 26.0312 13.8906 28.875C18.7031 29.75 15.0938 20.4531 13.6719 17.9375Z" fill="#699635"/>
<path d="M60.8125 30.297C63 25.2657 59.6094 20.0157 57.4219 23.0782C55.2344 26.1407 56.875 28.1095 51.2969 27.0157C50.0938 24.9376 53.0469 18.5938 51.2969 17.3907C48.4531 15.5313 48.4531 22.5313 45.1719 18.4845C41.8906 14.547 41.7812 23.8438 36.8594 23.8438C34.4531 23.8438 37.8438 16.6251 32.375 15.2032C26.9062 13.7813 28.4375 20.0157 21.875 16.4063C15.3125 12.797 11.9219 18.2657 14.9844 20.5626C17.9375 22.8595 15.5312 27.4532 15.0938 29.2032C11.375 27.4532 11.5937 35.0001 11.7031 36.2032C9.07812 37.0782 4.8125 38.9376 4.70312 39.0469C7.4375 45.6094 20.125 50.9688 35 50.9688C51.625 50.9688 65.7344 44.1876 65.7344 36.2032C65.7344 28.1095 57.2031 38.5001 60.8125 30.297Z" fill="#83BF4F"/>
<path d="M41.8906 39.375C44.625 33.5781 37.9531 35.9844 35.4375 38.5C35.3281 34.3438 37.5156 31.7188 39.375 28.875C36.3125 31.0625 33.0312 33.5781 29.4219 34.8906C31.5 37.2969 32.5938 40.5781 33.0312 43.75C41.7812 44.625 39.8125 48.7813 39.375 50.8594C49.7656 50.0938 39.2656 45.0625 41.8906 39.375Z" fill="#699635"/>
<path d="M18.9217 24.9375C17.1717 26.6875 16.6248 28.875 17.7186 29.9688C18.7029 31.0625 20.8904 30.5156 22.6404 28.7656C24.3904 27.0156 24.9373 24.8281 23.8436 23.7344C22.7498 22.75 20.5623 23.2969 18.9217 24.9375Z" fill="#ED4C5C"/>
<path d="M41.9998 45.4998C40.2498 47.2498 39.7029 49.4373 40.7967 50.5311C41.7811 51.6248 43.9686 51.0779 45.7186 49.3279C47.4686 47.5779 48.0154 45.3904 46.9217 44.2967C45.9373 43.2029 43.7498 43.7498 41.9998 45.4998Z" fill="#ED4C5C"/>
<path d="M28.5469 21.875C24.2812 22.0938 22.3125 33.1406 19.25 32.4844C21.7656 34.8906 23.0781 38.5 23.0781 42C23.7344 42.1094 24.7188 40.25 25.2656 42.2188C24.5 36.2031 24.7188 29.6406 28.5469 21.875Z" fill="#699635"/>
<path d="M46.3751 25.4841C47.4689 27.6716 47.3595 29.9684 46.047 30.6247C44.7345 31.2809 42.8751 30.1872 41.672 27.9997C40.5783 25.8122 40.6876 23.5153 42.0001 22.8591C43.3126 22.2028 45.2814 23.2966 46.3751 25.4841Z" fill="#ED4C5C"/>
<path d="M54.7969 27.3446C45.5 26.2508 44.0781 26.0321 51.8438 33.7977C53.9219 36.4227 46.0469 42.0008 43.2031 42.5477C46.8125 49.4383 47.4688 50.0946 52.5 48.3446C59.5 45.9383 56 37.7352 59.2812 39.4852C57.5313 36.8602 47.6875 35.6571 54.7969 27.3446Z" fill="#699635"/>
<path d="M60.4844 32.9222C60.2656 31.7191 62.8906 28.9847 62.3437 25.1566C61.7969 21.6566 57.75 19.5785 56.5469 23.6254C55.4531 27.3441 51.9531 26.4691 51.9531 26.4691C54.25 17.5004 53.0469 13.1254 48.0156 18.4847C45.3906 21.2191 47.7969 9.18786 39.4844 21.9847C35.2187 28.5472 36.9687 7.00036 29.3125 14.8754C23.1875 21.1097 18.4844 8.9691 14.4375 16.2972C12.3594 20.1254 16.8437 20.6722 15.6406 28.1097C15.6406 28.1097 11.0469 25.266 11.4844 34.6722C11.5937 36.3129 3.39061 36.641 5.24998 39.3754C7.10936 38.6097 18.8125 33.0316 18.1562 38.1722C17.9375 39.7035 16.9531 44.6254 19.6875 44.4066C22.6406 44.1879 25.375 39.5941 25.4844 44.8441C25.5937 48.891 27.5625 49.1097 30.4062 46.5941C31.1719 45.9379 31.7187 44.8441 32.8125 44.4066C34.7812 43.641 36.6406 44.7347 38.5 45.391C42 46.7035 41.0156 41.7816 38.6094 40.9066C38.1719 40.7972 35.4375 40.3597 35.6562 39.9222C36.0937 38.6097 37.625 37.7347 38.7187 37.1879C39.7031 36.7504 40.7969 36.4222 41.8906 36.4222C43.4219 36.5316 42.875 37.516 42.5469 38.7191C42.2187 40.141 42.4375 42.0004 43.9687 42.4379C45.7187 42.9847 47.1406 41.3441 48.3437 40.3597C49.2187 39.5941 55.0156 35.8754 53.0469 39.8129C51.8437 42.1097 46.0469 42.8754 48.6719 46.266C50.4219 48.4535 52.8281 47.4691 54.1406 45.391C55.2344 43.7504 55.6719 41.7816 56.1094 39.8129C56.4375 38.2816 56.5469 37.4066 58.0781 38.1722C60.1562 39.266 62.7812 41.6722 62.8906 37.7347C63 35.1097 63.9844 30.2972 66.2812 34.891C64.8594 28.8754 60.7031 34.5629 60.4844 32.9222ZM46.2656 40.3597C46.1562 40.4691 43.4219 42.4379 42.9844 40.5785C42.6562 39.1566 44.0781 37.516 43.2031 36.3129C41.6719 34.2347 37.625 36.2035 36.0937 37.2972C35.2187 37.9535 33.0312 40.0316 34.6719 41.016C35.875 41.7816 37.7344 41.3441 38.8281 42.4379C39.7031 43.3129 39.9219 44.9535 38.3906 44.2972C36.4219 43.5316 34.4531 42.5472 32.2656 43.4222C31.0625 43.8597 28.1094 48.2347 26.6875 47.3597C25.9219 46.9222 26.25 43.8597 26.1406 42.9847C25.8125 40.4691 24.0625 40.9066 22.4219 41.891C21.7656 42.3285 19.7969 43.7504 19.0312 43.2035C18.2656 42.6566 18.7031 40.2504 18.8125 39.4847C19.3594 34.7816 16.2969 34.3441 12.3594 35.4379C12.3594 34.016 12.25 28.3285 14.875 29.3129C16.4062 29.8597 20.3437 34.6722 21.7656 31.9379C23.2969 28.9847 30.0781 15.9691 30.0781 25.7035C30.0781 28.3285 27.7812 33.9066 29.6406 35.2191C31.2812 36.3129 35.4375 31.7191 36.5312 31.0629C39.2656 29.2035 42.3281 27.4535 43.75 31.6097C44.7344 34.3441 44.9531 37.9535 48.3437 38.7191C47.4687 39.266 46.8125 39.8129 46.2656 40.3597ZM51.5156 35.766C51.1875 37.7347 48.8906 38.1722 47.3594 37.2972C44.1875 35.4379 45.9375 28.9847 42 28.0004C37.2969 26.7972 31.1719 35.0004 30.2969 34.1254C29.2031 32.9222 31.5 27.891 31.1719 24.6097C30.1875 16.1879 23.625 24.391 21 31.1722C20.4531 32.4847 16.4062 28.9847 16.4062 28.9847C18.4844 20.016 13.5625 20.1254 15.0937 17.2816C18.2656 10.9379 22.9687 23.1879 29.4219 16.516C36.4219 9.40661 33.7969 32.4847 40.3594 22.7504C46.375 13.891 45.3906 21.2191 46.7031 20.7816C49 20.016 52.9375 12.4691 50.8594 26.3597C37.8437 23.9535 52.1719 31.9379 51.5156 35.766ZM61.1406 39.1566C59.5 38.8285 57.75 35.9847 55.7812 36.9691C54.1406 37.7347 54.0312 42.1097 53.375 43.641C52.6094 45.5004 50.0937 47.7972 48.5625 45.0629C48.2344 44.4066 52.9375 41.4535 53.4844 40.141C54.5781 37.6254 52.2812 37.4066 52.5 35.766C53.2656 30.7347 41.2344 25.7035 52.0625 27.5629C58.1875 28.6566 56.7656 21.1097 59.6094 22.7504C65.0781 26.0316 55.5625 34.2347 61.6875 34.3441C61.25 35.9847 61.4687 37.6254 61.1406 39.1566Z" fill="#C7E755"/>
<path d="M9.40606 37.8438C11.1561 39.4844 11.7029 41.7813 10.6092 42.875C9.62481 43.9688 7.43731 43.4219 5.68731 41.6719C3.93731 39.9219 3.39044 37.7344 4.48419 36.6406C5.57794 35.6563 7.76544 36.2031 9.40606 37.8438Z" fill="#ED4C5C"/>
</svg>
