<svg width="285" height="64" viewBox="0 0 285 64" fill="none" xmlns="http://www.w3.org/2000/svg">
<path d="M71.728 35.216C70.448 35.216 69.184 35.048 67.936 34.712C66.688 34.376 65.672 33.92 64.888 33.344L66.304 30.152C67.136 30.68 68.016 31.088 68.944 31.376C69.888 31.648 70.832 31.784 71.776 31.784C72.736 31.784 73.472 31.656 73.984 31.4C74.496 31.128 74.752 30.752 74.752 30.272C74.752 29.84 74.52 29.488 74.056 29.216C73.592 28.928 72.72 28.648 71.44 28.376C69.824 28.056 68.568 27.664 67.672 27.2C66.776 26.72 66.144 26.16 65.776 25.52C65.424 24.88 65.248 24.104 65.248 23.192C65.248 22.152 65.544 21.216 66.136 20.384C66.728 19.536 67.56 18.88 68.632 18.416C69.704 17.936 70.928 17.696 72.304 17.696C73.536 17.696 74.728 17.872 75.88 18.224C77.048 18.56 77.96 19.008 78.616 19.568L77.224 22.76C76.472 22.232 75.68 21.832 74.848 21.56C74.016 21.272 73.184 21.128 72.352 21.128C71.536 21.128 70.88 21.288 70.384 21.608C69.888 21.912 69.64 22.328 69.64 22.856C69.64 23.144 69.728 23.384 69.904 23.576C70.08 23.768 70.408 23.96 70.888 24.152C71.368 24.328 72.088 24.52 73.048 24.728C74.6 25.064 75.816 25.472 76.696 25.952C77.592 26.416 78.224 26.968 78.592 27.608C78.96 28.232 79.144 28.984 79.144 29.864C79.144 31.528 78.496 32.84 77.2 33.8C75.904 34.744 74.08 35.216 71.728 35.216ZM94.661 22.808V35H90.389V33.344C90.037 33.92 89.525 34.376 88.853 34.712C88.181 35.032 87.445 35.192 86.645 35.192C85.605 35.192 84.677 34.936 83.861 34.424C83.045 33.912 82.405 33.184 81.941 32.24C81.493 31.28 81.269 30.176 81.269 28.928C81.269 27.664 81.501 26.544 81.965 25.568C82.429 24.592 83.069 23.832 83.885 23.288C84.701 22.744 85.621 22.472 86.645 22.472C87.445 22.472 88.173 22.648 88.829 23C89.501 23.336 90.021 23.792 90.389 24.368V22.808H94.661ZM87.989 31.952C88.757 31.952 89.349 31.688 89.765 31.16C90.181 30.632 90.389 29.872 90.389 28.88C90.389 27.872 90.181 27.104 89.765 26.576C89.349 26.032 88.757 25.76 87.989 25.76C87.237 25.76 86.645 26.04 86.213 26.6C85.781 27.144 85.565 27.92 85.565 28.928C85.565 29.904 85.773 30.656 86.189 31.184C86.605 31.696 87.205 31.952 87.989 31.952ZM105.683 22.472C106.723 22.472 107.651 22.744 108.467 23.288C109.283 23.832 109.923 24.592 110.387 25.568C110.851 26.544 111.083 27.664 111.083 28.928C111.083 30.176 110.851 31.28 110.387 32.24C109.939 33.184 109.307 33.912 108.491 34.424C107.675 34.936 106.739 35.192 105.683 35.192C104.883 35.192 104.155 35.04 103.499 34.736C102.843 34.416 102.339 33.976 101.987 33.416V40.184H97.6429V26.312C97.6429 25 97.5789 23.832 97.4509 22.808H101.531L101.771 24.704C102.075 24.032 102.579 23.496 103.283 23.096C103.987 22.68 104.787 22.472 105.683 22.472ZM104.363 31.952C105.147 31.952 105.739 31.696 106.139 31.184C106.539 30.672 106.739 29.92 106.739 28.928C106.739 27.92 106.531 27.144 106.115 26.6C105.715 26.04 105.131 25.76 104.363 25.76C103.579 25.76 102.979 26.024 102.563 26.552C102.147 27.08 101.939 27.856 101.939 28.88C101.939 29.872 102.147 30.632 102.563 31.16C102.979 31.688 103.579 31.952 104.363 31.952ZM113.512 22.808H117.856V35H113.512V22.808ZM117.928 16.832V20.744H113.392V16.832H117.928ZM132.105 29.336H124.449C124.529 30.28 124.801 30.96 125.265 31.376C125.729 31.792 126.409 32 127.305 32C127.913 32 128.521 31.904 129.129 31.712C129.737 31.504 130.289 31.224 130.785 30.872L131.889 33.752C131.281 34.2 130.545 34.552 129.681 34.808C128.817 35.064 127.953 35.192 127.089 35.192C125.697 35.192 124.489 34.936 123.465 34.424C122.441 33.912 121.657 33.184 121.113 32.24C120.569 31.28 120.297 30.152 120.297 28.856C120.297 27.624 120.553 26.528 121.065 25.568C121.593 24.592 122.313 23.832 123.225 23.288C124.153 22.744 125.209 22.472 126.393 22.472C127.545 22.472 128.553 22.728 129.417 23.24C130.281 23.752 130.945 24.488 131.409 25.448C131.873 26.392 132.105 27.496 132.105 28.76V29.336ZM126.513 25.448C125.441 25.448 124.769 26.072 124.497 27.32H128.385C128.225 26.072 127.601 25.448 126.513 25.448ZM142.675 22.472C144.115 22.472 145.187 22.912 145.891 23.792C146.611 24.656 146.971 25.968 146.971 27.728V35H142.627V27.92C142.627 27.168 142.499 26.632 142.243 26.312C141.987 25.976 141.587 25.808 141.043 25.808C140.387 25.808 139.859 26.032 139.459 26.48C139.059 26.912 138.859 27.488 138.859 28.208V35H134.515V26.312C134.515 25 134.451 23.832 134.323 22.808H138.403L138.619 24.608C139.083 23.92 139.659 23.392 140.347 23.024C141.035 22.656 141.811 22.472 142.675 22.472ZM163.684 35.216C162.404 35.216 161.14 35.048 159.892 34.712C158.644 34.376 157.628 33.92 156.844 33.344L158.26 30.152C159.092 30.68 159.972 31.088 160.9 31.376C161.844 31.648 162.788 31.784 163.732 31.784C164.692 31.784 165.428 31.656 165.94 31.4C166.452 31.128 166.708 30.752 166.708 30.272C166.708 29.84 166.476 29.488 166.012 29.216C165.548 28.928 164.676 28.648 163.396 28.376C161.78 28.056 160.524 27.664 159.628 27.2C158.732 26.72 158.1 26.16 157.732 25.52C157.38 24.88 157.204 24.104 157.204 23.192C157.204 22.152 157.5 21.216 158.092 20.384C158.684 19.536 159.516 18.88 160.588 18.416C161.66 17.936 162.884 17.696 164.26 17.696C165.492 17.696 166.684 17.872 167.836 18.224C169.004 18.56 169.916 19.008 170.572 19.568L169.18 22.76C168.428 22.232 167.636 21.832 166.804 21.56C165.972 21.272 165.14 21.128 164.308 21.128C163.492 21.128 162.836 21.288 162.34 21.608C161.844 21.912 161.596 22.328 161.596 22.856C161.596 23.144 161.684 23.384 161.86 23.576C162.036 23.768 162.364 23.96 162.844 24.152C163.324 24.328 164.044 24.52 165.004 24.728C166.556 25.064 167.772 25.472 168.652 25.952C169.548 26.416 170.18 26.968 170.548 27.608C170.916 28.232 171.1 28.984 171.1 29.864C171.1 31.528 170.452 32.84 169.156 33.8C167.86 34.744 166.036 35.216 163.684 35.216ZM186.119 22.808L180.527 35.432C179.791 37.08 178.863 38.28 177.743 39.032C176.639 39.8 175.271 40.28 173.639 40.472L172.631 37.16C173.751 36.936 174.591 36.648 175.151 36.296C175.711 35.944 176.135 35.456 176.423 34.832L176.735 34.16L171.767 22.808H176.279L179.015 29.84L181.847 22.808H186.119ZM192.152 35.192C189.72 35.192 187.8 34.704 186.392 33.728L187.496 30.776C188.152 31.224 188.896 31.576 189.728 31.832C190.56 32.072 191.376 32.192 192.176 32.192C192.672 32.192 193.056 32.12 193.328 31.976C193.6 31.832 193.736 31.632 193.736 31.376C193.736 31.152 193.632 30.976 193.424 30.848C193.232 30.704 192.856 30.576 192.296 30.464L190.328 30.008C189.08 29.752 188.176 29.352 187.616 28.808C187.072 28.248 186.8 27.48 186.8 26.504C186.8 25.72 187.032 25.024 187.496 24.416C187.96 23.808 188.6 23.336 189.416 23C190.248 22.648 191.2 22.472 192.272 22.472C193.152 22.472 194.016 22.6 194.864 22.856C195.712 23.112 196.504 23.472 197.24 23.936L196.088 26.816C195.448 26.4 194.792 26.08 194.12 25.856C193.448 25.632 192.816 25.52 192.224 25.52C191.744 25.52 191.368 25.6 191.096 25.76C190.824 25.904 190.688 26.12 190.688 26.408C190.688 26.584 190.768 26.728 190.928 26.84C191.088 26.936 191.392 27.04 191.84 27.152L193.88 27.608C195.176 27.912 196.104 28.36 196.664 28.952C197.24 29.528 197.528 30.32 197.528 31.328C197.528 32.528 197.048 33.472 196.088 34.16C195.144 34.848 193.832 35.192 192.152 35.192ZM206.879 31.688C207.167 31.688 207.551 31.64 208.031 31.544V34.832C207.439 35.072 206.687 35.192 205.775 35.192C204.127 35.192 202.871 34.728 202.007 33.8C201.159 32.872 200.735 31.584 200.735 29.936V26H198.455V22.808H200.735V20.048L205.079 18.656V22.808H208.007V26H205.079V29.936C205.079 30.512 205.247 30.952 205.583 31.256C205.935 31.544 206.367 31.688 206.879 31.688ZM221.319 29.336H213.663C213.743 30.28 214.015 30.96 214.479 31.376C214.943 31.792 215.623 32 216.519 32C217.127 32 217.735 31.904 218.343 31.712C218.951 31.504 219.503 31.224 219.999 30.872L221.103 33.752C220.495 34.2 219.759 34.552 218.895 34.808C218.031 35.064 217.167 35.192 216.303 35.192C214.911 35.192 213.703 34.936 212.679 34.424C211.655 33.912 210.871 33.184 210.327 32.24C209.783 31.28 209.511 30.152 209.511 28.856C209.511 27.624 209.767 26.528 210.279 25.568C210.807 24.592 211.527 23.832 212.439 23.288C213.367 22.744 214.423 22.472 215.607 22.472C216.759 22.472 217.767 22.728 218.631 23.24C219.495 23.752 220.159 24.488 220.623 25.448C221.087 26.392 221.319 27.496 221.319 28.76V29.336ZM215.727 25.448C214.655 25.448 213.983 26.072 213.711 27.32H217.599C217.439 26.072 216.815 25.448 215.727 25.448ZM239.257 22.472C240.665 22.472 241.705 22.904 242.377 23.768C243.065 24.632 243.409 25.952 243.409 27.728V35H239.065V27.848C239.065 27.128 238.953 26.608 238.729 26.288C238.521 25.968 238.161 25.808 237.649 25.808C237.041 25.808 236.569 26.032 236.233 26.48C235.897 26.928 235.729 27.56 235.729 28.376V35H231.385V27.848C231.385 27.128 231.273 26.608 231.049 26.288C230.825 25.968 230.465 25.808 229.969 25.808C229.361 25.808 228.889 26.032 228.553 26.48C228.233 26.928 228.073 27.56 228.073 28.376V35H223.729V26.312C223.729 25 223.665 23.832 223.537 22.808H227.617L227.833 24.512C228.201 23.856 228.713 23.352 229.369 23C230.041 22.648 230.809 22.472 231.673 22.472C233.417 22.472 234.601 23.208 235.225 24.68C235.657 24.008 236.225 23.472 236.929 23.072C237.649 22.672 238.425 22.472 239.257 22.472ZM251.244 35.192C248.812 35.192 246.892 34.704 245.484 33.728L246.588 30.776C247.244 31.224 247.988 31.576 248.82 31.832C249.652 32.072 250.468 32.192 251.268 32.192C251.764 32.192 252.148 32.12 252.42 31.976C252.692 31.832 252.828 31.632 252.828 31.376C252.828 31.152 252.724 30.976 252.516 30.848C252.324 30.704 251.948 30.576 251.388 30.464L249.42 30.008C248.172 29.752 247.268 29.352 246.708 28.808C246.164 28.248 245.892 27.48 245.892 26.504C245.892 25.72 246.124 25.024 246.588 24.416C247.052 23.808 247.692 23.336 248.508 23C249.34 22.648 250.292 22.472 251.364 22.472C252.244 22.472 253.108 22.6 253.956 22.856C254.804 23.112 255.596 23.472 256.332 23.936L255.18 26.816C254.54 26.4 253.884 26.08 253.212 25.856C252.54 25.632 251.908 25.52 251.316 25.52C250.836 25.52 250.46 25.6 250.188 25.76C249.916 25.904 249.78 26.12 249.78 26.408C249.78 26.584 249.86 26.728 250.02 26.84C250.18 26.936 250.484 27.04 250.932 27.152L252.972 27.608C254.268 27.912 255.196 28.36 255.756 28.952C256.332 29.528 256.62 30.32 256.62 31.328C256.62 32.528 256.14 33.472 255.18 34.16C254.236 34.848 252.924 35.192 251.244 35.192Z" fill="#D5D5D5"/>
<path d="M19.1348 22.1847C21.7944 22.1847 24.4541 22.1847 27.0967 22.1847C27.3085 22.1632 27.5219 22.2072 27.7078 22.3107C27.8938 22.4141 28.0435 22.572 28.1367 22.763L31.9216 29.2098C32.0068 29.3459 32.0409 29.533 32.2285 29.55C32.416 29.567 32.4671 29.3629 32.5524 29.2268C33.814 27.0495 35.07 24.8609 36.3202 22.6609C36.4034 22.5042 36.5335 22.3773 36.6925 22.298C36.8514 22.2187 37.0312 22.191 37.2068 22.2187H53.4034C54.0172 22.2187 54.0854 22.3548 53.7785 22.8821L47.9818 32.901C47.2316 34.1767 46.4815 35.4695 45.7484 36.7622C45.4756 37.2385 45.2028 37.3406 44.5549 37.4086C43.9071 37.4767 43.3274 37.4086 42.5261 37.4086C42.3045 37.4086 42.0487 37.4086 41.9294 37.2725C41.81 37.1365 41.9294 36.8643 42.0487 36.6772C44.0378 33.2752 46.0212 29.8732 47.9988 26.4712C48.5956 25.4166 48.5956 25.4166 47.3339 25.4166C44.5549 25.4166 41.7759 25.4166 38.9969 25.4166C38.788 25.3988 38.5787 25.4466 38.3983 25.5534C38.218 25.6601 38.0756 25.8204 37.991 26.0119C36.7465 28.2062 35.4678 30.3835 34.1891 32.5608C34.0937 32.6853 34.042 32.8377 34.042 32.9945C34.042 33.1513 34.0937 33.3037 34.1891 33.4283L40.6336 44.2977C40.7585 44.4712 40.8257 44.6794 40.8257 44.893C40.8257 45.1066 40.7585 45.3149 40.6336 45.4884L32.6376 59.3175C32.6376 59.3175 32.5524 59.4876 32.5012 59.5556C32.2114 59.9809 32.058 59.9809 31.8193 59.5556C31.1544 58.45 30.5236 57.3443 29.8757 56.1536L24.761 47.2914C24.3859 46.611 24.0108 45.9306 23.6016 45.2842C23.5012 45.1393 23.4474 44.9672 23.4474 44.791C23.4474 44.6147 23.5012 44.4426 23.6016 44.2977C24.7951 42.2735 25.9715 40.2493 27.1478 38.2251C28.1026 36.5241 29.0573 34.9081 30.0291 33.2752C30.1244 33.1345 30.1753 32.9687 30.1753 32.7989C30.1753 32.6291 30.1244 32.4633 30.0291 32.3226C28.7334 30.0546 27.449 27.8206 26.176 25.6207C26.1085 25.4962 26.007 25.3934 25.8833 25.3241C25.7596 25.2549 25.6187 25.222 25.477 25.2295H16.2364C15.742 25.2295 15.6909 25.3315 15.9296 25.7738C17.9413 29.1758 19.9418 32.6231 21.9308 36.1159C22.1184 36.422 22.4423 36.7792 22.34 37.1024C22.2377 37.4256 21.641 37.2385 21.283 37.2385C20.6692 37.2385 20.0725 37.2385 19.4587 37.2385C19.29 37.2511 19.1214 37.2124 18.9753 37.1273C18.8292 37.0423 18.7124 36.915 18.6404 36.7622C16.1682 32.4587 13.6791 28.2572 11.207 23.8857C10.9853 23.5114 10.7466 23.1202 10.542 22.729C10.3375 22.3377 10.3375 22.0996 10.9171 22.0996C12.8607 22.0996 14.8214 22.0996 16.782 22.0996H19.1348V22.1847ZM27.1308 45.0121C27.1861 45.2437 27.2844 45.463 27.4206 45.6585L29.279 48.8563C30.1485 50.3532 30.9839 51.8501 31.8875 53.347C32.075 53.6872 32.2285 53.7552 32.416 53.347C32.416 53.2279 32.5524 53.1259 32.6035 53.0238C34.0527 50.5403 35.4678 48.0739 36.917 45.6074C37.0616 45.424 37.1498 45.2026 37.171 44.9702C37.1922 44.7377 37.1454 44.5041 37.0363 44.2977C35.6383 41.9503 34.2914 39.5689 32.9104 37.2215C32.2626 36.0988 32.2285 36.1159 31.5806 37.2215L27.3013 44.4678C27.1796 44.6353 27.1194 44.8395 27.1308 45.0461V45.0121Z" fill="#E3E2E2"/>
<path d="M39.4967 8.34348V16.8485L39.0023 17.1036L34.2967 19.8252C33.5899 20.1906 32.9066 20.5996 32.2509 21.0499H32.0974C32.0033 20.9416 31.8871 20.8546 31.7564 20.7948L29.0286 19.2299L24.8516 16.8485V8.34348C25.0559 8.24596 25.255 8.13809 25.4483 8.02029L30.222 5.29869C30.893 4.95657 31.537 4.56421 32.1486 4.125H32.302C32.4021 4.23416 32.5241 4.3211 32.66 4.38015L35.3367 5.96208L39.4967 8.34348ZM37.1269 12.613C37.1269 11.7795 37.1269 10.912 37.1269 10.1465C37.1397 10.0219 37.1138 9.89641 37.0528 9.78691C36.9919 9.67741 36.8987 9.5892 36.7859 9.53418L32.5577 7.08474C32.4439 7.0018 32.3066 6.9571 32.1656 6.9571C32.0246 6.9571 31.8873 7.0018 31.7735 7.08474C30.3925 7.90122 28.9774 8.78574 27.5794 9.50016C27.471 9.56032 27.3816 9.64956 27.3213 9.75777C27.261 9.86599 27.2323 9.98887 27.2384 10.1125V15.0454C27.2315 15.1669 27.26 15.2878 27.3205 15.3935C27.381 15.4992 27.471 15.585 27.5794 15.6408C28.9945 16.4402 30.3925 17.2567 31.7905 18.0732C31.9027 18.1523 32.0368 18.1947 32.1741 18.1947C32.3115 18.1947 32.4455 18.1523 32.5577 18.0732L36.7859 15.6408C36.8971 15.5793 36.9883 15.4874 37.0487 15.3759C37.1092 15.2643 37.1363 15.1378 37.1269 15.0114C37.0416 14.2289 37.1269 13.4125 37.1269 12.613Z" fill="#E3E2E2"/>
<path d="M18.7987 21.8842H26.8117C27.0251 21.8667 27.2388 21.9142 27.4245 22.0205C27.6102 22.1268 27.7592 22.2869 27.8517 22.4795L31.5684 28.8753C31.5684 29.0114 31.6707 29.2155 31.8753 29.2155C32.0799 29.2155 32.114 29.0284 32.1822 28.8923C33.4438 26.715 34.6998 24.5321 35.95 22.3435C36.0306 22.1836 36.1597 22.0531 36.3188 21.9707C36.478 21.8882 36.6592 21.858 36.8366 21.8842H53.1185C53.7322 21.8842 53.8175 22.0203 53.5106 22.5476L47.6968 32.5665C46.9467 33.8592 46.1965 35.135 45.4634 36.4277C45.1906 36.921 44.9179 37.0061 44.27 37.0741C43.6221 37.1422 43.0424 37.0741 42.2411 37.0741C42.0366 37.0741 41.7638 37.0741 41.6444 36.938C41.5251 36.802 41.6444 36.5298 41.7808 36.3427C43.7585 32.9407 45.7419 29.5387 47.7309 26.1367C48.3277 25.0821 48.3277 25.0821 47.066 25.0821H38.7461C38.5328 25.0646 38.3194 25.1142 38.1359 25.2241C37.9524 25.3339 37.808 25.4984 37.7231 25.6944C36.4729 27.883 35.2056 30.0603 33.9212 32.2263C33.8295 32.3556 33.7802 32.5101 33.7802 32.6685C33.7802 32.827 33.8295 32.9815 33.9212 33.1108C36.0694 36.7679 38.1835 40.4251 40.3316 44.0822C40.4476 44.2593 40.5093 44.4661 40.5093 44.6776C40.5093 44.889 40.4476 45.0959 40.3316 45.2729L32.3186 59.1191L32.1822 59.3402C31.9094 59.7655 31.7389 59.7825 31.5002 59.3402L29.5566 55.9382L24.4419 47.076C24.0668 46.4126 23.7088 45.7322 23.2996 45.0688C23.1918 44.9269 23.1334 44.7537 23.1334 44.5755C23.1334 44.3974 23.1918 44.2242 23.2996 44.0822L26.8117 38.0097C27.7835 36.3087 28.7212 34.6927 29.693 33.0427C29.7929 32.9039 29.8467 32.7374 29.8467 32.5665C29.8467 32.3956 29.7929 32.229 29.693 32.0902L25.8399 25.4053C25.7784 25.2748 25.6786 25.1659 25.5538 25.0931C25.4291 25.0202 25.2851 24.9867 25.1409 24.997H15.8833C15.3889 24.997 15.3377 25.0991 15.5935 25.5413L21.5947 35.8834C21.7652 36.2066 22.0891 36.5638 21.9869 36.87C21.8846 37.1762 21.3049 37.0061 20.9298 37.0231C20.5547 37.0401 19.7193 37.0231 19.1056 37.0231C18.9365 37.0382 18.7669 37.0005 18.6203 36.9151C18.4737 36.8298 18.3573 36.7011 18.2872 36.5468C15.8208 32.2603 13.343 27.9738 10.8538 23.6872L10.1889 22.5136C9.91612 22.0373 10.0014 21.8842 10.564 21.8842H18.7987ZM26.8117 44.6946C26.8618 44.928 26.9606 45.1482 27.1016 45.341L28.9599 48.5389C29.8465 50.0357 30.716 51.5326 31.5684 53.0295C31.773 53.3697 31.9094 53.4377 32.097 53.0295L32.2674 52.8084C33.6314 50.2569 35.1146 47.7054 36.5638 45.307C36.7002 45.1125 36.7734 44.8809 36.7734 44.6436C36.7734 44.4062 36.7002 44.1746 36.5638 43.9802C35.1658 41.6158 33.8189 39.2514 32.4379 36.887C31.7901 35.7814 31.756 35.7814 31.1252 36.887C29.7044 39.2911 28.3007 41.7008 26.914 44.1163C26.8186 44.2931 26.7827 44.4959 26.8117 44.6946Z" fill="white"/>
<path d="M39.1544 7.98703V16.492C38.9845 16.5668 38.8193 16.652 38.66 16.7472L33.9374 19.4688C33.2397 19.8406 32.5624 20.2494 31.9085 20.6935H31.738C31.6395 20.59 31.5242 20.5038 31.3971 20.4384C30.4935 19.911 29.5899 19.3837 28.6692 18.8734L24.4922 16.492V7.98703L25.106 7.68085L29.8285 4.94224C30.4995 4.60012 31.1435 4.20777 31.7551 3.76855H31.9256C32.019 3.88196 32.1352 3.97466 32.2666 4.04071L34.9944 5.60563L39.1544 7.98703ZM36.7675 12.2565C36.7675 11.4401 36.7675 10.5555 36.7675 9.79009C36.7803 9.66548 36.7544 9.53996 36.6935 9.43046C36.6325 9.32097 36.5393 9.23276 36.4265 9.17774C35.0115 8.36126 33.5964 7.56178 32.1984 6.72829C32.0862 6.64922 31.9521 6.60676 31.8148 6.60676C31.6774 6.60676 31.5434 6.64922 31.4312 6.72829L27.22 9.16072C27.1116 9.22089 27.0222 9.31012 26.9619 9.41834C26.9017 9.52656 26.873 9.64944 26.8791 9.77308V14.706C26.8725 14.8318 26.9028 14.9567 26.9664 15.0655C27.03 15.1743 27.1241 15.2622 27.2371 15.3183L31.4312 17.7338C31.5434 17.8128 31.6774 17.8553 31.8148 17.8553C31.9521 17.8553 32.0862 17.8128 32.1984 17.7338L36.4436 15.3864C36.5516 15.3227 36.6393 15.2298 36.6967 15.1184C36.754 15.007 36.7786 14.8817 36.7675 14.757V12.2565Z" fill="white"/>
<path d="M255.864 49.216C256.401 49.372 256.817 49.645 257.112 50.035C257.407 50.425 257.554 50.9017 257.554 51.465C257.554 52.245 257.264 52.8647 256.683 53.324C256.102 53.7747 255.314 54 254.317 54H249.923V44.744H254.187C255.149 44.744 255.907 44.9607 256.462 45.394C257.025 45.8187 257.307 46.4037 257.307 47.149C257.307 47.6343 257.177 48.059 256.917 48.423C256.666 48.787 256.315 49.0513 255.864 49.216ZM251.899 48.514H253.849C254.369 48.514 254.755 48.4273 255.006 48.254C255.266 48.072 255.396 47.7947 255.396 47.422C255.396 47.0407 255.266 46.759 255.006 46.577C254.755 46.395 254.369 46.304 253.849 46.304H251.899V48.514ZM254.083 52.44C254.629 52.44 255.023 52.349 255.266 52.167C255.517 51.9763 255.643 51.6773 255.643 51.27C255.643 50.854 255.517 50.5507 255.266 50.36C255.023 50.1693 254.629 50.074 254.083 50.074H251.899V52.44H254.083ZM259.375 44.744H265.758V46.317H261.351V48.501H265.485V50.087H261.351V52.427H265.758V54H259.375V44.744ZM269.791 46.395H266.892V44.744H274.744V46.395H271.845V54H269.791V46.395ZM281.242 51.946H276.913L276.029 54H273.988L278.239 44.744H279.877L284.128 54H282.126L281.242 51.946ZM280.579 50.399L279.084 46.928L277.589 50.399H280.579Z" fill="#D4D4D4"/>
</svg>
