<svg width="279" height="64" viewBox="0 0 279 64" fill="none" xmlns="http://www.w3.org/2000/svg">
<path d="M19.1348 22.1847C21.7944 22.1847 24.4541 22.1847 27.0967 22.1847C27.3085 22.1632 27.5219 22.2072 27.7078 22.3107C27.8938 22.4141 28.0435 22.572 28.1367 22.763L31.9216 29.2098C32.0068 29.3459 32.0409 29.533 32.2285 29.55C32.416 29.567 32.4671 29.3629 32.5524 29.2268C33.814 27.0495 35.07 24.8609 36.3202 22.6609C36.4034 22.5042 36.5335 22.3773 36.6925 22.298C36.8514 22.2187 37.0312 22.191 37.2068 22.2187H53.4034C54.0172 22.2187 54.0854 22.3548 53.7785 22.8821L47.9818 32.901C47.2316 34.1767 46.4815 35.4695 45.7484 36.7622C45.4756 37.2385 45.2028 37.3406 44.5549 37.4086C43.9071 37.4767 43.3274 37.4086 42.5261 37.4086C42.3045 37.4086 42.0487 37.4086 41.9294 37.2725C41.81 37.1365 41.9294 36.8643 42.0487 36.6772C44.0378 33.2752 46.0212 29.8732 47.9988 26.4712C48.5956 25.4166 48.5956 25.4166 47.3339 25.4166C44.5549 25.4166 41.7759 25.4166 38.9969 25.4166C38.788 25.3988 38.5787 25.4466 38.3983 25.5534C38.218 25.6601 38.0756 25.8204 37.991 26.0119C36.7465 28.2062 35.4678 30.3835 34.1891 32.5608C34.0937 32.6853 34.042 32.8377 34.042 32.9945C34.042 33.1513 34.0937 33.3037 34.1891 33.4283L40.6336 44.2977C40.7585 44.4712 40.8257 44.6794 40.8257 44.893C40.8257 45.1066 40.7585 45.3149 40.6336 45.4884L32.6376 59.3175C32.6376 59.3175 32.5524 59.4876 32.5012 59.5556C32.2114 59.9809 32.058 59.9809 31.8193 59.5556C31.1544 58.45 30.5236 57.3443 29.8757 56.1536L24.761 47.2914C24.3859 46.611 24.0108 45.9306 23.6016 45.2842C23.5012 45.1393 23.4474 44.9672 23.4474 44.791C23.4474 44.6147 23.5012 44.4426 23.6016 44.2977C24.7951 42.2735 25.9715 40.2493 27.1478 38.2251C28.1026 36.5241 29.0573 34.9081 30.0291 33.2752C30.1244 33.1345 30.1753 32.9687 30.1753 32.7989C30.1753 32.6291 30.1244 32.4633 30.0291 32.3226C28.7334 30.0546 27.449 27.8206 26.176 25.6207C26.1085 25.4962 26.007 25.3934 25.8833 25.3241C25.7596 25.2549 25.6187 25.222 25.477 25.2295H16.2364C15.742 25.2295 15.6909 25.3315 15.9296 25.7738C17.9413 29.1758 19.9418 32.6231 21.9308 36.1159C22.1184 36.422 22.4423 36.7792 22.34 37.1024C22.2377 37.4256 21.641 37.2385 21.283 37.2385C20.6692 37.2385 20.0725 37.2385 19.4587 37.2385C19.29 37.2511 19.1214 37.2124 18.9753 37.1273C18.8292 37.0423 18.7124 36.915 18.6404 36.7622C16.1682 32.4587 13.6791 28.2572 11.207 23.8857C10.9853 23.5114 10.7466 23.1202 10.542 22.729C10.3375 22.3377 10.3375 22.0996 10.9171 22.0996C12.8607 22.0996 14.8214 22.0996 16.782 22.0996H19.1348V22.1847ZM27.1308 45.0121C27.1861 45.2437 27.2844 45.463 27.4206 45.6585L29.279 48.8563C30.1485 50.3532 30.9839 51.8501 31.8875 53.347C32.075 53.6872 32.2285 53.7552 32.416 53.347C32.416 53.2279 32.5524 53.1259 32.6035 53.0238C34.0527 50.5403 35.4678 48.0739 36.917 45.6074C37.0616 45.424 37.1498 45.2026 37.171 44.9702C37.1922 44.7377 37.1454 44.5041 37.0363 44.2977C35.6383 41.9503 34.2914 39.5689 32.9104 37.2215C32.2626 36.0988 32.2285 36.1159 31.5806 37.2215L27.3013 44.4678C27.1796 44.6353 27.1194 44.8395 27.1308 45.0461V45.0121Z" fill="#E3E2E2"/>
<path d="M39.4967 8.34348V16.8485L39.0023 17.1036L34.2967 19.8252C33.5899 20.1906 32.9066 20.5996 32.2509 21.0499H32.0974C32.0033 20.9416 31.8871 20.8546 31.7564 20.7948L29.0286 19.2299L24.8516 16.8485V8.34348C25.0559 8.24596 25.255 8.13809 25.4483 8.02029L30.222 5.29869C30.893 4.95657 31.537 4.56421 32.1486 4.125H32.302C32.4021 4.23416 32.5241 4.3211 32.66 4.38015L35.3367 5.96208L39.4967 8.34348ZM37.1269 12.613C37.1269 11.7795 37.1269 10.912 37.1269 10.1465C37.1397 10.0219 37.1138 9.89641 37.0528 9.78691C36.9919 9.67741 36.8987 9.5892 36.7859 9.53418L32.5577 7.08474C32.4439 7.0018 32.3066 6.9571 32.1656 6.9571C32.0246 6.9571 31.8873 7.0018 31.7735 7.08474C30.3925 7.90122 28.9774 8.78574 27.5794 9.50016C27.471 9.56032 27.3816 9.64956 27.3213 9.75777C27.261 9.86599 27.2323 9.98887 27.2384 10.1125V15.0454C27.2315 15.1669 27.26 15.2878 27.3205 15.3935C27.381 15.4992 27.471 15.585 27.5794 15.6408C28.9945 16.4402 30.3925 17.2567 31.7905 18.0732C31.9027 18.1523 32.0368 18.1947 32.1741 18.1947C32.3115 18.1947 32.4455 18.1523 32.5577 18.0732L36.7859 15.6408C36.8971 15.5793 36.9883 15.4874 37.0487 15.3759C37.1092 15.2643 37.1363 15.1378 37.1269 15.0114C37.0416 14.2289 37.1269 13.4125 37.1269 12.613Z" fill="#E3E2E2"/>
<path d="M18.7987 21.8842H26.8117C27.0251 21.8667 27.2388 21.9142 27.4245 22.0205C27.6102 22.1268 27.7592 22.2869 27.8517 22.4795L31.5684 28.8753C31.5684 29.0114 31.6707 29.2155 31.8753 29.2155C32.0799 29.2155 32.114 29.0284 32.1822 28.8923C33.4438 26.715 34.6998 24.5321 35.95 22.3435C36.0306 22.1836 36.1597 22.0531 36.3188 21.9707C36.478 21.8882 36.6592 21.858 36.8366 21.8842H53.1185C53.7322 21.8842 53.8175 22.0203 53.5106 22.5476L47.6968 32.5665C46.9467 33.8592 46.1965 35.135 45.4634 36.4277C45.1906 36.921 44.9179 37.0061 44.27 37.0741C43.6221 37.1422 43.0424 37.0741 42.2411 37.0741C42.0366 37.0741 41.7638 37.0741 41.6444 36.938C41.5251 36.802 41.6444 36.5298 41.7808 36.3427C43.7585 32.9407 45.7419 29.5387 47.7309 26.1367C48.3277 25.0821 48.3277 25.0821 47.066 25.0821H38.7461C38.5328 25.0646 38.3194 25.1142 38.1359 25.2241C37.9524 25.3339 37.808 25.4984 37.7231 25.6944C36.4729 27.883 35.2056 30.0603 33.9212 32.2263C33.8295 32.3556 33.7802 32.5101 33.7802 32.6685C33.7802 32.827 33.8295 32.9815 33.9212 33.1108C36.0694 36.7679 38.1835 40.4251 40.3316 44.0822C40.4476 44.2593 40.5093 44.4661 40.5093 44.6776C40.5093 44.889 40.4476 45.0959 40.3316 45.2729L32.3186 59.1191L32.1822 59.3402C31.9094 59.7655 31.7389 59.7825 31.5002 59.3402L29.5566 55.9382L24.4419 47.076C24.0668 46.4126 23.7088 45.7322 23.2996 45.0688C23.1918 44.9269 23.1334 44.7537 23.1334 44.5755C23.1334 44.3974 23.1918 44.2242 23.2996 44.0822L26.8117 38.0097C27.7835 36.3087 28.7212 34.6927 29.693 33.0427C29.7929 32.9039 29.8467 32.7374 29.8467 32.5665C29.8467 32.3956 29.7929 32.229 29.693 32.0902L25.8399 25.4053C25.7784 25.2748 25.6786 25.1659 25.5538 25.0931C25.4291 25.0202 25.2851 24.9867 25.1409 24.997H15.8833C15.3889 24.997 15.3377 25.0991 15.5935 25.5413L21.5947 35.8834C21.7652 36.2066 22.0891 36.5638 21.9869 36.87C21.8846 37.1762 21.3049 37.0061 20.9298 37.0231C20.5547 37.0401 19.7193 37.0231 19.1056 37.0231C18.9365 37.0382 18.7669 37.0005 18.6203 36.9151C18.4737 36.8298 18.3573 36.7011 18.2872 36.5468C15.8208 32.2603 13.343 27.9738 10.8538 23.6872L10.1889 22.5136C9.91612 22.0373 10.0014 21.8842 10.564 21.8842H18.7987ZM26.8117 44.6946C26.8618 44.928 26.9606 45.1482 27.1016 45.341L28.9599 48.5389C29.8465 50.0357 30.716 51.5326 31.5684 53.0295C31.773 53.3697 31.9094 53.4377 32.097 53.0295L32.2674 52.8084C33.6314 50.2569 35.1146 47.7054 36.5638 45.307C36.7002 45.1125 36.7734 44.8809 36.7734 44.6436C36.7734 44.4062 36.7002 44.1746 36.5638 43.9802C35.1658 41.6158 33.8189 39.2514 32.4379 36.887C31.7901 35.7814 31.756 35.7814 31.1252 36.887C29.7044 39.2911 28.3007 41.7008 26.914 44.1163C26.8186 44.2931 26.7827 44.4959 26.8117 44.6946Z" fill="#8B0000"/>
<path d="M39.1544 7.98703V16.492C38.9845 16.5668 38.8193 16.652 38.66 16.7472L33.9374 19.4688C33.2397 19.8406 32.5624 20.2494 31.9085 20.6935H31.738C31.6395 20.59 31.5242 20.5038 31.3971 20.4384C30.4935 19.911 29.5899 19.3837 28.6692 18.8734L24.4922 16.492V7.98703L25.106 7.68085L29.8285 4.94224C30.4995 4.60012 31.1435 4.20777 31.7551 3.76855H31.9256C32.019 3.88196 32.1352 3.97466 32.2666 4.04071L34.9944 5.60563L39.1544 7.98703ZM36.7675 12.2565C36.7675 11.4401 36.7675 10.5555 36.7675 9.79009C36.7803 9.66548 36.7544 9.53996 36.6935 9.43046C36.6325 9.32097 36.5393 9.23276 36.4265 9.17774C35.0115 8.36126 33.5964 7.56178 32.1984 6.72829C32.0862 6.64922 31.9521 6.60676 31.8148 6.60676C31.6774 6.60676 31.5434 6.64922 31.4312 6.72829L27.22 9.16072C27.1116 9.22089 27.0222 9.31012 26.9619 9.41834C26.9017 9.52656 26.873 9.64944 26.8791 9.77308V14.706C26.8725 14.8318 26.9028 14.9567 26.9664 15.0655C27.03 15.1743 27.1241 15.2622 27.2371 15.3183L31.4312 17.7338C31.5434 17.8128 31.6774 17.8553 31.8148 17.8553C31.9521 17.8553 32.0862 17.8128 32.1984 17.7338L36.4436 15.3864C36.5516 15.3227 36.6393 15.2298 36.6967 15.1184C36.754 15.007 36.7786 14.8817 36.7675 14.757V12.2565Z" fill="#8B0000"/>
<path d="M71.83 36.216C70.534 36.216 69.286 36.048 68.086 35.712C66.902 35.36 65.918 34.872 65.134 34.248L66.334 31.56C67.982 32.712 69.822 33.288 71.854 33.288C72.942 33.288 73.774 33.12 74.35 32.784C74.942 32.432 75.238 31.944 75.238 31.32C75.238 30.776 74.966 30.352 74.422 30.048C73.894 29.728 72.958 29.424 71.614 29.136C70.11 28.832 68.91 28.464 68.014 28.032C67.134 27.584 66.486 27.048 66.07 26.424C65.67 25.784 65.47 24.992 65.47 24.048C65.47 23.024 65.75 22.104 66.31 21.288C66.886 20.472 67.686 19.84 68.71 19.392C69.734 18.928 70.918 18.696 72.262 18.696C73.478 18.696 74.646 18.872 75.766 19.224C76.886 19.576 77.782 20.056 78.454 20.664L77.254 23.352C75.75 22.2 74.094 21.624 72.286 21.624C71.326 21.624 70.558 21.816 69.982 22.2C69.406 22.584 69.118 23.104 69.118 23.76C69.118 24.144 69.222 24.464 69.43 24.72C69.654 24.976 70.022 25.208 70.534 25.416C71.046 25.608 71.774 25.8 72.718 25.992C74.91 26.472 76.486 27.096 77.446 27.864C78.422 28.632 78.91 29.68 78.91 31.008C78.91 32.608 78.286 33.88 77.038 34.824C75.79 35.752 74.054 36.216 71.83 36.216ZM93.9794 23.832V36H90.4034V34.2C90.0354 34.824 89.5154 35.312 88.8434 35.664C88.1714 36.016 87.4114 36.192 86.5634 36.192C85.5074 36.192 84.5714 35.936 83.7554 35.424C82.9554 34.912 82.3234 34.184 81.8594 33.24C81.4114 32.28 81.1874 31.176 81.1874 29.928C81.1874 28.68 81.4114 27.568 81.8594 26.592C82.3234 25.616 82.9634 24.864 83.7794 24.336C84.5954 23.792 85.5234 23.52 86.5634 23.52C87.4114 23.52 88.1714 23.704 88.8434 24.072C89.5154 24.44 90.0354 24.936 90.4034 25.56V23.832H93.9794ZM87.6194 33.432C88.5154 33.432 89.2034 33.128 89.6834 32.52C90.1634 31.912 90.4034 31.032 90.4034 29.88C90.4034 28.728 90.1634 27.848 89.6834 27.24C89.2034 26.616 88.5154 26.304 87.6194 26.304C86.7234 26.304 86.0274 26.624 85.5314 27.264C85.0354 27.904 84.7874 28.792 84.7874 29.928C84.7874 31.064 85.0274 31.936 85.5074 32.544C86.0034 33.136 86.7074 33.432 87.6194 33.432ZM104.745 23.52C105.785 23.52 106.713 23.792 107.529 24.336C108.345 24.864 108.977 25.616 109.425 26.592C109.889 27.568 110.121 28.68 110.121 29.928C110.121 31.176 109.897 32.28 109.449 33.24C109.001 34.184 108.369 34.912 107.553 35.424C106.737 35.936 105.801 36.192 104.745 36.192C103.897 36.192 103.137 36.016 102.465 35.664C101.793 35.312 101.281 34.824 100.929 34.2V41.184H97.3046V27.312C97.3046 26.016 97.2406 24.856 97.1126 23.832H100.521L100.761 25.848C101.081 25.128 101.593 24.56 102.297 24.144C103.017 23.728 103.833 23.52 104.745 23.52ZM103.713 33.432C104.609 33.432 105.297 33.136 105.777 32.544C106.257 31.936 106.497 31.064 106.497 29.928C106.497 28.792 106.249 27.904 105.753 27.264C105.273 26.624 104.593 26.304 103.713 26.304C102.817 26.304 102.121 26.616 101.625 27.24C101.145 27.848 100.905 28.728 100.905 29.88C100.905 31.032 101.145 31.912 101.625 32.52C102.121 33.128 102.817 33.432 103.713 33.432ZM112.845 23.832H116.469V36H112.845V23.832ZM116.589 18.12V21.528H112.725V18.12H116.589ZM130.751 30.216H122.735C122.799 31.352 123.095 32.184 123.623 32.712C124.151 33.224 124.935 33.48 125.975 33.48C126.599 33.48 127.223 33.376 127.847 33.168C128.471 32.96 129.047 32.656 129.575 32.256L130.535 34.704C129.959 35.168 129.239 35.536 128.375 35.808C127.527 36.064 126.671 36.192 125.807 36.192C123.759 36.192 122.151 35.632 120.983 34.512C119.815 33.376 119.231 31.832 119.231 29.88C119.231 28.648 119.479 27.552 119.975 26.592C120.487 25.616 121.199 24.864 122.111 24.336C123.023 23.792 124.055 23.52 125.207 23.52C126.919 23.52 128.271 24.08 129.263 25.2C130.255 26.304 130.751 27.8 130.751 29.688V30.216ZM125.303 26.064C124.615 26.064 124.055 26.264 123.623 26.664C123.207 27.064 122.935 27.648 122.807 28.416H127.631C127.439 26.848 126.663 26.064 125.303 26.064ZM140.939 23.52C143.819 23.52 145.259 25.224 145.259 28.632V36H141.635V28.8C141.635 27.952 141.475 27.336 141.155 26.952C140.851 26.552 140.363 26.352 139.691 26.352C138.891 26.352 138.251 26.608 137.771 27.12C137.291 27.632 137.051 28.32 137.051 29.184V36H133.427V27.312C133.427 26.016 133.363 24.856 133.235 23.832H136.643L136.883 25.752C137.315 25.032 137.875 24.48 138.563 24.096C139.267 23.712 140.059 23.52 140.939 23.52ZM161.911 36.216C160.615 36.216 159.367 36.048 158.167 35.712C156.983 35.36 155.999 34.872 155.215 34.248L156.415 31.56C158.063 32.712 159.903 33.288 161.935 33.288C163.023 33.288 163.855 33.12 164.431 32.784C165.023 32.432 165.319 31.944 165.319 31.32C165.319 30.776 165.047 30.352 164.503 30.048C163.975 29.728 163.039 29.424 161.695 29.136C160.191 28.832 158.991 28.464 158.095 28.032C157.215 27.584 156.567 27.048 156.151 26.424C155.751 25.784 155.551 24.992 155.551 24.048C155.551 23.024 155.831 22.104 156.391 21.288C156.967 20.472 157.767 19.84 158.791 19.392C159.815 18.928 160.999 18.696 162.343 18.696C163.559 18.696 164.727 18.872 165.847 19.224C166.967 19.576 167.863 20.056 168.535 20.664L167.335 23.352C165.831 22.2 164.175 21.624 162.367 21.624C161.407 21.624 160.639 21.816 160.063 22.2C159.487 22.584 159.199 23.104 159.199 23.76C159.199 24.144 159.303 24.464 159.511 24.72C159.735 24.976 160.103 25.208 160.615 25.416C161.127 25.608 161.855 25.8 162.799 25.992C164.991 26.472 166.567 27.096 167.527 27.864C168.503 28.632 168.991 29.68 168.991 31.008C168.991 32.608 168.367 33.88 167.119 34.824C165.871 35.752 164.135 36.216 161.911 36.216ZM183.634 23.832L178.018 36.648C177.33 38.2 176.458 39.336 175.402 40.056C174.362 40.792 173.082 41.264 171.562 41.472L170.722 38.688C171.842 38.448 172.682 38.144 173.242 37.776C173.818 37.408 174.266 36.872 174.586 36.168L174.946 35.376L169.93 23.832H173.722L176.842 31.728L180.058 23.832H183.634ZM189.768 36.192C187.464 36.192 185.648 35.696 184.32 34.704L185.28 32.184C185.92 32.648 186.632 33.008 187.416 33.264C188.2 33.504 189 33.624 189.816 33.624C190.44 33.624 190.92 33.528 191.256 33.336C191.592 33.144 191.76 32.864 191.76 32.496C191.76 32.192 191.64 31.952 191.4 31.776C191.16 31.6 190.736 31.448 190.128 31.32L188.136 30.864C186.968 30.608 186.104 30.2 185.544 29.64C185 29.08 184.728 28.336 184.728 27.408C184.728 26.656 184.944 25.984 185.376 25.392C185.824 24.8 186.44 24.344 187.224 24.024C188.008 23.688 188.912 23.52 189.936 23.52C190.8 23.52 191.648 23.656 192.48 23.928C193.312 24.184 194.056 24.552 194.712 25.032L193.704 27.456C193.08 27.024 192.44 26.696 191.784 26.472C191.144 26.248 190.52 26.136 189.912 26.136C189.32 26.136 188.856 26.24 188.52 26.448C188.184 26.656 188.016 26.944 188.016 27.312C188.016 27.584 188.112 27.808 188.304 27.984C188.512 28.144 188.872 28.28 189.384 28.392L191.424 28.848C192.672 29.136 193.576 29.568 194.136 30.144C194.696 30.72 194.976 31.488 194.976 32.448C194.976 33.6 194.512 34.512 193.584 35.184C192.656 35.856 191.384 36.192 189.768 36.192ZM202.026 26.544V31.272C202.026 31.944 202.202 32.44 202.554 32.76C202.906 33.064 203.362 33.216 203.922 33.216C204.274 33.216 204.674 33.16 205.122 33.048V35.856C204.546 36.08 203.85 36.192 203.034 36.192C201.53 36.192 200.378 35.768 199.578 34.92C198.794 34.072 198.402 32.88 198.402 31.344V26.544H196.098V23.832H198.402V20.976L202.026 19.8V23.832H205.122V26.544H202.026ZM218.301 30.216H210.285C210.349 31.352 210.645 32.184 211.173 32.712C211.701 33.224 212.485 33.48 213.525 33.48C214.149 33.48 214.773 33.376 215.397 33.168C216.021 32.96 216.597 32.656 217.125 32.256L218.085 34.704C217.509 35.168 216.789 35.536 215.925 35.808C215.077 36.064 214.221 36.192 213.357 36.192C211.309 36.192 209.701 35.632 208.533 34.512C207.365 33.376 206.781 31.832 206.781 29.88C206.781 28.648 207.029 27.552 207.525 26.592C208.037 25.616 208.749 24.864 209.661 24.336C210.573 23.792 211.605 23.52 212.757 23.52C214.469 23.52 215.821 24.08 216.813 25.2C217.805 26.304 218.301 27.8 218.301 29.688V30.216ZM212.853 26.064C212.165 26.064 211.605 26.264 211.173 26.664C210.757 27.064 210.485 27.648 210.357 28.416H215.181C214.989 26.848 214.213 26.064 212.853 26.064ZM235.857 23.52C237.249 23.52 238.281 23.944 238.953 24.792C239.641 25.624 239.985 26.904 239.985 28.632V36H236.361V28.752C236.361 27.904 236.225 27.296 235.953 26.928C235.681 26.544 235.233 26.352 234.609 26.352C233.873 26.352 233.305 26.608 232.905 27.12C232.505 27.632 232.305 28.352 232.305 29.28V36H228.681V28.752C228.681 27.92 228.537 27.312 228.249 26.928C227.977 26.544 227.537 26.352 226.929 26.352C226.193 26.352 225.617 26.608 225.201 27.12C224.801 27.632 224.601 28.352 224.601 29.28V36H220.977V27.312C220.977 26.016 220.913 24.856 220.785 23.832H224.193L224.409 25.656C224.777 24.968 225.289 24.44 225.945 24.072C226.617 23.704 227.385 23.52 228.249 23.52C230.057 23.52 231.257 24.272 231.849 25.776C232.249 25.088 232.801 24.544 233.505 24.144C234.225 23.728 235.009 23.52 235.857 23.52ZM247.9 36.192C245.596 36.192 243.78 35.696 242.452 34.704L243.412 32.184C244.052 32.648 244.764 33.008 245.548 33.264C246.332 33.504 247.132 33.624 247.948 33.624C248.572 33.624 249.052 33.528 249.388 33.336C249.724 33.144 249.892 32.864 249.892 32.496C249.892 32.192 249.772 31.952 249.532 31.776C249.292 31.6 248.868 31.448 248.26 31.32L246.268 30.864C245.1 30.608 244.236 30.2 243.676 29.64C243.132 29.08 242.86 28.336 242.86 27.408C242.86 26.656 243.076 25.984 243.508 25.392C243.956 24.8 244.572 24.344 245.356 24.024C246.14 23.688 247.044 23.52 248.068 23.52C248.932 23.52 249.78 23.656 250.612 23.928C251.444 24.184 252.188 24.552 252.844 25.032L251.836 27.456C251.212 27.024 250.572 26.696 249.916 26.472C249.276 26.248 248.652 26.136 248.044 26.136C247.452 26.136 246.988 26.24 246.652 26.448C246.316 26.656 246.148 26.944 246.148 27.312C246.148 27.584 246.244 27.808 246.436 27.984C246.644 28.144 247.004 28.28 247.516 28.392L249.556 28.848C250.804 29.136 251.708 29.568 252.268 30.144C252.828 30.72 253.108 31.488 253.108 32.448C253.108 33.6 252.644 34.512 251.716 35.184C250.788 35.856 249.516 36.192 247.9 36.192Z" fill="#767676"/>
<path d="M249.864 50.216C250.401 50.372 250.817 50.645 251.112 51.035C251.407 51.425 251.554 51.9017 251.554 52.465C251.554 53.245 251.264 53.8647 250.683 54.324C250.102 54.7747 249.314 55 248.317 55H243.923V45.744H248.187C249.149 45.744 249.907 45.9607 250.462 46.394C251.025 46.8187 251.307 47.4037 251.307 48.149C251.307 48.6343 251.177 49.059 250.917 49.423C250.666 49.787 250.315 50.0513 249.864 50.216ZM245.899 49.514H247.849C248.369 49.514 248.755 49.4273 249.006 49.254C249.266 49.072 249.396 48.7947 249.396 48.422C249.396 48.0407 249.266 47.759 249.006 47.577C248.755 47.395 248.369 47.304 247.849 47.304H245.899V49.514ZM248.083 53.44C248.629 53.44 249.023 53.349 249.266 53.167C249.517 52.9763 249.643 52.6773 249.643 52.27C249.643 51.854 249.517 51.5507 249.266 51.36C249.023 51.1693 248.629 51.074 248.083 51.074H245.899V53.44H248.083ZM253.375 45.744H259.758V47.317H255.351V49.501H259.485V51.087H255.351V53.427H259.758V55H253.375V45.744ZM263.791 47.395H260.892V45.744H268.744V47.395H265.845V55H263.791V47.395ZM275.242 52.946H270.913L270.029 55H267.988L272.239 45.744H273.877L278.128 55H276.126L275.242 52.946ZM274.579 51.399L273.084 47.928L271.589 51.399H274.579Z" fill="#B73642"/>
</svg>
