<svg xmlns="http://www.w3.org/2000/svg" width="48" height="50" viewBox="0 0 48 50" fill="none">
<path d="M23.688 18.1925C22.0171 18.1925 20.4524 18.8407 19.2677 20.0254C18.0886 21.2101 17.4348 22.7748 17.4348 24.4457C17.4348 26.1166 18.0886 27.6813 19.2677 28.866C20.4524 30.0451 22.0171 30.6989 23.688 30.6989C25.3589 30.6989 26.9236 30.0451 28.1083 28.866C29.2874 27.6813 29.9412 26.1166 29.9412 24.4457C29.9412 22.7748 29.2874 21.2101 28.1083 20.0254C27.5296 19.4423 26.8409 18.98 26.0821 18.6654C25.3233 18.3507 24.5095 18.19 23.688 18.1925ZM46.7283 31.3528L43.0736 28.2289C43.2468 27.1672 43.3362 26.0831 43.3362 25.0045C43.3362 23.926 43.2468 22.8363 43.0736 21.7801L46.7283 18.6563C47.0043 18.42 47.2019 18.1052 47.2948 17.7538C47.3876 17.4024 47.3713 17.0311 47.248 16.6892L47.1977 16.544C46.1919 13.7313 44.6848 11.1242 42.7494 8.84896L42.6489 8.73161C42.4139 8.45528 42.1006 8.25664 41.7505 8.16187C41.4003 8.0671 41.0297 8.08065 40.6874 8.20073L36.1498 9.81572C34.4733 8.44102 32.6068 7.3569 30.5839 6.60249L29.7065 1.85809C29.6403 1.50068 29.467 1.17187 29.2094 0.91534C28.9519 0.658814 28.6224 0.486716 28.2648 0.421911L28.1139 0.39397C25.208 -0.131323 22.1457 -0.131323 19.2398 0.39397L19.0889 0.421911C18.7312 0.486716 18.4017 0.658814 18.1442 0.91534C17.8867 1.17187 17.7133 1.50068 17.6471 1.85809L16.7642 6.62485C14.7604 7.38527 12.8938 8.46676 11.2374 9.8269L6.66626 8.20073C6.32407 8.0797 5.95315 8.06566 5.60279 8.16049C5.25243 8.25531 4.93923 8.45451 4.70479 8.73161L4.6042 8.84896C2.67231 11.1267 1.16561 13.7331 0.155974 16.544L0.105679 16.6892C-0.145791 17.3878 0.0609738 18.1701 0.625385 18.6563L4.32479 21.8137C4.15156 22.8642 4.06773 23.9372 4.06773 24.9989C4.06773 26.0719 4.15156 27.1448 4.32479 28.1842L0.636561 31.3416C0.360479 31.5779 0.162883 31.8927 0.0700487 32.2441C-0.0227856 32.5955 -0.00645977 32.9668 0.116856 33.3086L0.16715 33.4539C1.17862 36.2648 2.67068 38.8633 4.61538 41.1489L4.71597 41.2663C4.95098 41.5426 5.26419 41.7412 5.61434 41.836C5.96449 41.9308 6.33514 41.9172 6.67744 41.7972L11.2486 40.171C12.9139 41.5401 14.7692 42.6242 16.7754 43.373L17.6583 48.1398C17.7245 48.4972 17.8979 48.826 18.1554 49.0825C18.4129 49.3391 18.7424 49.5112 19.1001 49.576L19.2509 49.6039C22.1854 50.132 25.1906 50.132 28.1251 49.6039L28.2759 49.576C28.6336 49.5112 28.9631 49.3391 29.2206 49.0825C29.4781 48.826 29.6515 48.4972 29.7177 48.1398L30.5951 43.3954C32.618 42.6354 34.4845 41.5569 36.1609 40.1822L40.6986 41.7972C41.0408 41.9182 41.4117 41.9322 41.762 41.8374C42.1124 41.7426 42.4256 41.5434 42.66 41.2663L42.7606 41.1489C44.7053 38.8522 46.1974 36.2648 47.2089 33.4539L47.2591 33.3086C47.4994 32.6157 47.2927 31.8389 46.7283 31.3528ZM23.688 34.2698C18.2618 34.2698 13.8639 29.8719 13.8639 24.4457C13.8639 19.0195 18.2618 14.6216 23.688 14.6216C29.1142 14.6216 33.5121 19.0195 33.5121 24.4457C33.5121 29.8719 29.1142 34.2698 23.688 34.2698Z" fill="black"/>
</svg>