<svg width="68" height="44" viewBox="0 0 68 44" fill="none" xmlns="http://www.w3.org/2000/svg">
<path d="M11.8731 13.8057C11.4865 13.8057 11.0942 13.8001 10.6852 13.7777C8.51112 13.6881 6.80773 12.9541 5.61984 11.6093C3.48499 9.18865 3.61386 5.47368 3.64188 4.95818L3.65869 4.90775C3.78756 4.46509 4.16859 3.1091 5.28364 2.52075C6.01206 2.13413 6.66765 1.94922 7.28401 1.94922C8.08528 1.94922 8.82491 2.263 9.54773 2.91298C11.3912 4.57155 13.4588 5.60255 14.9381 5.60255C15.9971 5.60255 18.8268 5.44006 19.981 5.36722L21.7292 11.133C20.8439 11.8222 17.7958 13.8057 11.8731 13.8057Z" fill="#37474F"/>
<path d="M7.27867 2.56984C7.91745 2.56984 8.5226 2.8332 9.12215 3.37111C11.1057 5.15856 13.2798 6.22318 14.9327 6.22318C15.8741 6.22318 18.1826 6.0943 19.5218 6.01586L20.9955 10.8907C19.8748 11.6527 17.006 13.1712 11.8734 13.1712C11.4923 13.1712 11.1001 13.1656 10.7135 13.1488C8.71872 13.0648 7.16661 12.4092 6.09638 11.1989C4.19127 9.04163 4.2361 5.70207 4.26411 5.0577C4.37618 4.65986 4.70677 3.5224 5.57528 3.06854C6.20285 2.73234 6.76317 2.56984 7.27867 2.56984ZM7.27867 1.32031C6.4718 1.32031 5.69855 1.58927 4.98133 1.96469C3.49646 2.74915 3.10423 4.58142 3.02019 4.84477C3.02019 4.84477 2.23012 14.0453 10.6575 14.3984C11.0777 14.4152 11.4811 14.4264 11.8734 14.4264C19.4042 14.4264 22.4411 11.3446 22.4411 11.3446L20.4352 4.71029C20.4352 4.71029 16.2439 4.97365 14.9384 4.97365C13.6328 4.97365 11.7109 4.01549 9.96264 2.44097C9.04931 1.62849 8.14718 1.32031 7.27867 1.32031Z" fill="#90A4AE"/>
<path d="M1.46699 23.2261C0.620896 26.039 0.704946 31.0035 0.704946 31.0035C0.704946 31.7935 1.20364 33.1719 2.35791 33.609C8.42065 35.8895 15.3295 35.29 18.938 36.9429C23.1293 38.8649 36.7116 44.7763 48.075 43.5268C61.6013 42.0419 65.8934 35.9344 66.6275 34.231C67.1486 33.0094 67.5016 28.3811 66.9749 28.2074C61.2259 26.2911 39.7822 34.7969 35.8599 31.8328C32.4923 29.2889 2.31309 20.4133 1.46699 23.2261Z" fill="#E0E0E0"/>
<path d="M4.72308 2.01072C4.72308 2.01072 1.53482 4.49297 0.711137 9.69281C-0.168578 15.1896 -0.947433 23.2303 3.01969 26.3794C5.9502 28.7047 14.9995 27.5785 19.1907 29.5004C23.382 31.4223 36.0902 40.9983 47.4537 39.7544C60.98 38.2695 65.7484 32.3861 66.4768 30.6771C66.9979 29.4556 68.4435 27.2871 60.8063 24.2109C55.1806 21.9472 50.8885 18.5908 46.9606 15.6211C43.593 13.0772 31.4283 5.66966 31.4283 5.66966C31.4283 5.66966 29.3943 0.839633 26.0155 0.0831904C23.7966 -0.415501 18.8601 2.20123 17.986 4.58822C17.0167 7.23857 18.2214 9.6816 18.2214 9.6816C12.9879 12.416 11.1837 12.825 7.63118 10.5557C4.07871 8.28638 4.72308 2.01072 4.72308 2.01072Z" fill="#0277BD"/>
<path d="M4.65595 1.88348C4.65595 1.88348 1.513 4.20696 0.701028 9.0742C-0.166181 14.2194 -0.933965 21.7458 2.97676 24.6934C5.86562 26.8701 14.7863 25.8158 18.918 27.6148C23.0496 29.4138 35.5772 38.3773 46.7791 37.2129C60.1132 35.823 64.8138 30.3159 65.5319 28.7162C66.0455 27.5729 67.4706 25.5431 59.9419 22.6637C54.3962 20.5447 50.1651 17.4031 46.2931 14.6233C42.9734 12.2421 30.9816 5.30838 30.9816 5.30838C30.9816 5.30838 28.9765 0.787301 25.6457 0.0792435C23.4584 -0.38755 18.5921 2.06181 17.7304 4.29612C16.7748 6.77695 17.9624 9.06371 17.9624 9.06371C12.8033 11.6232 11.0247 12.0061 7.52271 9.88191C4.02073 7.75774 4.65595 1.88348 4.65595 1.88348Z" fill="#0277BD"/>
<path d="M18.6524 9.64426C19.9972 9.42013 21.0954 9.39212 22.429 9.56021C22.485 8.20983 21.8351 6.67453 21.1403 5.54267C20.9722 5.2681 20.7816 4.99915 20.6752 4.69657C20.1149 3.11645 23.107 1.4915 24.3005 1.1441C25.6117 0.757469 27.0405 0.819106 28.3181 1.30659C27.6457 0.735057 26.878 0.286794 26.0263 0.0906789C23.9643 -0.374393 21.342 1.04323 19.745 2.20872C17.2684 4.00737 16.7977 6.70254 18.1481 9.47056C18.1817 9.5434 18.2266 9.62185 18.2938 9.65547C18.3666 9.69469 18.4563 9.68349 18.5403 9.66668C18.5684 9.65547 18.6076 9.64987 18.6524 9.64426Z" fill="#BDBDBD"/>
<path d="M38.3207 24.1591C36.9535 24.1591 35.5975 23.5484 34.2807 22.7975C32.1683 21.5928 23.6681 16.0008 21.1018 14.3086C20.5079 15.0202 19.5049 16.0568 18.3282 16.5387C17.2187 16.9926 16.2998 16.8917 15.4873 16.8076C14.6748 16.7236 14.0305 16.6508 13.1564 17.0878C11.9853 17.6762 10.9431 18.4942 9.76077 19.0602C8.50004 19.6653 6.17468 19.5925 4.98678 19.1442C2.21876 18.102 1.79291 16.6283 1.65283 16.0456C3.01443 17.0094 4.78506 18.0572 6.76302 17.9731C9.69353 17.8499 10.7582 16.2249 12.3327 15.4348C13.6887 14.7568 14.7925 14.8745 15.6834 14.9698C16.3894 15.0426 16.9498 15.1042 17.6334 14.8241C18.7092 14.387 19.7962 13.031 20.1268 12.5436L20.6367 11.7871L21.3988 12.2914C21.5108 12.3698 32.807 19.8278 35.194 21.1894C36.5052 21.9402 38.1694 22.7863 39.6262 21.9402C41.2904 20.9765 42.6464 19.4188 44.1593 18.2365C44.9213 17.6369 45.7394 17.071 46.6752 16.8076C47.6109 16.5499 48.6979 16.6564 49.4264 17.2951C46.4118 17.4688 43.9352 20.1472 42.0581 22.2596C40.8309 23.6436 39.5758 24.1591 38.3207 24.1591Z" fill="#004A7C"/>
<path d="M23.478 11.6426C26.3917 8.81851 30.258 6.26342 32.1799 5.91602" stroke="#E0E0E0" stroke-width="3.349" stroke-miterlimit="10" stroke-linecap="round"/>
<path d="M18.0539 9.30005C18.0707 9.34488 17.8186 9.19919 17.8017 9.24402C17.7625 9.33927 17.6224 9.30005 17.5384 9.24402C17.1237 8.95825 16.8548 8.51559 16.6139 8.07854C16.3617 7.61346 16.1376 7.11477 16.1096 6.58806C16.0255 5.07518 17.6729 4.83984 17.6729 4.83984C17.3927 5.47862 17.3983 6.3079 17.3927 6.73375C17.3815 7.59105 17.7401 8.50438 18.0539 9.30005Z" fill="#37474F"/>
<path d="M2.38102 33.5488C3.07022 33.7505 3.75943 33.913 4.45983 34.0531C5.15464 34.1988 5.85505 34.3277 6.55546 34.4285C7.96188 34.6303 9.37951 34.7479 10.8027 34.8432C12.226 34.9609 13.6548 35.0617 15.1005 35.2242C16.5349 35.3979 18.0478 35.6164 19.4878 36.244C22.1158 37.3142 24.7493 38.3676 27.4389 39.2362C30.1172 40.1327 32.8348 40.9171 35.5804 41.4999C38.3204 42.1162 41.0997 42.5197 43.8789 42.6373C45.2685 42.699 46.6525 42.6822 48.0309 42.5533C49.4261 42.4132 50.8157 42.2395 52.1997 42.0042C54.9566 41.5223 57.6685 40.7322 60.1732 39.4995C61.4339 38.9 62.6498 38.1883 63.7481 37.3142C64.2972 36.8828 64.8183 36.4065 65.3002 35.891C65.7877 35.3811 66.2415 34.832 66.5777 34.21L66.6898 34.2604C66.0734 35.5772 65.0817 36.6586 64.017 37.6168C62.9412 38.575 61.7365 39.3762 60.4814 40.0654C57.9543 41.4382 55.1975 42.3404 52.3959 42.9343C49.5942 43.5171 46.7253 43.8869 43.8509 43.7916C40.982 43.7132 38.1299 43.3041 35.3227 42.699C29.7194 41.4607 24.301 39.4883 19.0956 37.1125C17.8124 36.5018 16.3948 36.2384 14.9884 36.0199C13.5764 35.8069 12.1531 35.6613 10.7299 35.4876C7.89464 35.1402 5.03697 34.6807 2.3418 33.6665L2.38102 33.5488Z" fill="#82AEC0"/>
</svg>
