<svg width="73" height="71" viewBox="0 0 73 71" fill="none" xmlns="http://www.w3.org/2000/svg">
<g filter="url(#filter0_i_1305_14434)">
<g filter="url(#filter1_i_1305_14434)">
<path fill-rule="evenodd" clip-rule="evenodd" d="M27.4823 17.4179C23.2727 18.1838 20.2059 21.9376 19.7037 26.4033L15.981 59.6749H56.9747L53.2443 26.3574C52.7472 21.9133 49.7086 18.1676 45.5221 17.3964C39.2449 16.2395 34.0131 16.2287 27.4823 17.4179ZM30.6618 29.0622C30.7291 28.3616 30.5333 27.6611 30.1164 27.1104C29.6994 26.5598 29.0944 26.2026 28.4305 26.1153C27.7667 26.0279 27.0967 26.2173 26.5638 26.643C26.0309 27.0687 25.6773 27.697 25.5786 28.3934L23.2599 47.912C23.2095 48.2675 23.2272 48.6301 23.3119 48.9784C23.3966 49.3267 23.5466 49.6536 23.7531 49.94C23.9596 50.2264 24.2184 50.4664 24.5143 50.6459C24.8103 50.8255 25.1373 50.9409 25.4762 50.9855C25.8151 51.0301 26.1591 51.0029 26.4879 50.9056C26.8167 50.8082 27.1237 50.6426 27.3908 50.4186C27.6579 50.1945 27.8798 49.9165 28.0433 49.6009C28.2069 49.2853 28.3088 48.9384 28.3431 48.5807L30.6618 29.0622Z" fill="#E24444"/>
</g>
<path fill-rule="evenodd" clip-rule="evenodd" d="M32.5681 22.129C33.701 22.9756 34.5946 24.1296 35.1541 25.4682C35.7135 26.8068 35.9177 28.2799 35.7451 29.731L33.4289 49.2495C33.1881 51.272 32.2606 53.0249 30.9181 54.2815H51.21L48.1559 26.9884C47.8946 24.6423 46.3522 23.0243 44.6407 22.7088C40.3594 21.9214 36.6726 21.7191 32.5681 22.129ZM53.2443 26.3574C52.7472 21.9133 49.7086 18.1676 45.5221 17.3964C39.2449 16.2395 34.0131 16.2287 27.4823 17.4179C23.2727 18.1838 20.2059 21.9376 19.7037 26.4033L15.981 59.6749H56.9747L53.2443 26.3574ZM30.6618 29.0622L28.3431 48.5807C28.3088 48.9384 28.2069 49.2853 28.0433 49.6009C27.8798 49.9165 27.6579 50.1945 27.3908 50.4186C27.1237 50.6426 26.8167 50.8082 26.4879 50.9056C26.1591 51.0029 25.8151 51.0301 25.4762 50.9855C25.1373 50.9409 24.8103 50.8255 24.5143 50.6459C24.2184 50.4664 23.9596 50.2264 23.7531 49.94C23.5466 49.6536 23.3966 49.3267 23.3119 48.9784C23.2272 48.6301 23.2095 48.2675 23.2599 47.912L25.5786 28.3934C25.613 28.0357 25.7149 27.6889 25.8784 27.3733C26.042 27.0577 26.2638 26.7796 26.5309 26.5556C26.7981 26.3315 27.105 26.166 27.4338 26.0686C27.7626 25.9712 28.1066 25.944 28.4455 25.9886C28.7845 26.0332 29.1115 26.1487 29.4074 26.3282C29.7033 26.5078 29.9621 26.7478 30.1686 27.0342C30.3751 27.3205 30.5251 27.6475 30.6098 27.9958C30.6945 28.344 30.7122 28.7066 30.6618 29.0622Z" fill="#F05B5B"/>
<path fill-rule="evenodd" clip-rule="evenodd" d="M59.5379 70.4559H13.4199V65.0625H59.5379V70.4559Z" fill="black"/>
<path d="M8.29522 38.0834C8.29522 38.9922 8.33365 39.8902 8.41051 40.7801H0.608887V35.3867H8.41051C8.33365 36.2766 8.29522 37.1746 8.29522 38.0834Z" fill="#ED3A3A"/>
<path d="M13.4506 21.0047C12.4625 22.4762 11.604 24.0396 10.8859 25.6754L4.13477 21.571L6.69688 16.9004L13.4506 21.0047Z" fill="#ED3A3A"/>
<path d="M24.6592 11.1636C23.0989 11.9268 21.6155 12.8328 20.2268 13.8657L16.3247 6.75723L20.7623 4.06055L24.6592 11.1663V11.1636Z" fill="#ED3A3A"/>
<path d="M36.4781 8.43769C35.6147 8.43769 34.7615 8.47814 33.916 8.55904V0.347656H39.0402V8.55904C38.1883 8.47832 37.3335 8.43783 36.4781 8.43769Z" fill="#ED3A3A"/>
<path d="M52.7325 13.8657C51.3344 12.8257 49.849 11.9222 48.2949 11.1663L52.1945 4.06055L56.632 6.75723L52.7325 13.8657Z" fill="#ED3A3A"/>
<path d="M62.0746 25.6727C61.3554 24.0387 60.4961 22.4771 59.5073 21.0074L66.261 16.9004L68.8232 21.571L62.072 25.6727H62.0746Z" fill="#ED3A3A"/>
<path d="M64.6612 38.0834C64.6612 37.1746 64.6228 36.2766 64.5459 35.3867H72.3475V40.7801H64.5459C64.6228 39.8902 64.6612 38.9922 64.6612 38.0834Z" fill="#ED3A3A"/>
</g>
<defs>
<filter id="filter0_i_1305_14434" x="0.608887" y="0.347656" width="71.7388" height="74.1074" filterUnits="userSpaceOnUse" color-interpolation-filters="sRGB">
<feFlood flood-opacity="0" result="BackgroundImageFix"/>
<feBlend mode="normal" in="SourceGraphic" in2="BackgroundImageFix" result="shape"/>
<feColorMatrix in="SourceAlpha" type="matrix" values="0 0 0 0 0 0 0 0 0 0 0 0 0 0 0 0 0 0 127 0" result="hardAlpha"/>
<feOffset dy="4"/>
<feGaussianBlur stdDeviation="2"/>
<feComposite in2="hardAlpha" operator="arithmetic" k2="-1" k3="1"/>
<feColorMatrix type="matrix" values="0 0 0 0 0 0 0 0 0 0 0 0 0 0 0 0 0 0 0.25 0"/>
<feBlend mode="normal" in2="shape" result="effect1_innerShadow_1305_14434"/>
</filter>
<filter id="filter1_i_1305_14434" x="15.981" y="16.5273" width="40.9937" height="47.1484" filterUnits="userSpaceOnUse" color-interpolation-filters="sRGB">
<feFlood flood-opacity="0" result="BackgroundImageFix"/>
<feBlend mode="normal" in="SourceGraphic" in2="BackgroundImageFix" result="shape"/>
<feColorMatrix in="SourceAlpha" type="matrix" values="0 0 0 0 0 0 0 0 0 0 0 0 0 0 0 0 0 0 127 0" result="hardAlpha"/>
<feOffset dy="4"/>
<feGaussianBlur stdDeviation="2"/>
<feComposite in2="hardAlpha" operator="arithmetic" k2="-1" k3="1"/>
<feColorMatrix type="matrix" values="0 0 0 0 0 0 0 0 0 0 0 0 0 0 0 0 0 0 0.25 0"/>
<feBlend mode="normal" in2="shape" result="effect1_innerShadow_1305_14434"/>
</filter>
</defs>
</svg>
