<svg width="781" height="1080" viewBox="0 0 781 1080" fill="none" xmlns="http://www.w3.org/2000/svg">
<rect x="0.341797" y="0.767578" width="780" height="1080" fill="url(#paint0_linear_2012_609)"/>
<path d="M158.362 877.136V884H155.866V877.088L149.074 866.912H151.906L157.138 874.976L162.346 866.912H165.178L158.362 877.136ZM170.043 884.168C168.859 884.168 167.819 883.912 166.923 883.4C166.027 882.888 165.331 882.16 164.835 881.216C164.355 880.272 164.115 879.168 164.115 877.904C164.115 876.64 164.355 875.536 164.835 874.592C165.331 873.632 166.027 872.896 166.923 872.384C167.819 871.872 168.859 871.616 170.043 871.616C171.211 871.616 172.243 871.872 173.139 872.384C174.035 872.896 174.723 873.632 175.203 874.592C175.699 875.536 175.947 876.64 175.947 877.904C175.947 879.168 175.699 880.272 175.203 881.216C174.723 882.16 174.035 882.888 173.139 883.4C172.243 883.912 171.211 884.168 170.043 884.168ZM170.019 882.248C171.139 882.248 171.995 881.88 172.587 881.144C173.179 880.408 173.475 879.328 173.475 877.904C173.475 876.512 173.171 875.44 172.563 874.688C171.971 873.936 171.131 873.56 170.043 873.56C168.939 873.56 168.083 873.936 167.475 874.688C166.867 875.44 166.563 876.512 166.563 877.904C166.563 879.328 166.859 880.408 167.451 881.144C168.059 881.88 168.915 882.248 170.019 882.248ZM189.693 871.904V884H187.341V881.984C186.957 882.688 186.429 883.232 185.757 883.616C185.085 883.984 184.325 884.168 183.477 884.168C180.565 884.168 179.109 882.552 179.109 879.32V871.904H181.509V879.296C181.509 880.288 181.709 881.024 182.109 881.504C182.525 881.968 183.149 882.2 183.981 882.2C184.973 882.2 185.765 881.88 186.357 881.24C186.965 880.6 187.269 879.752 187.269 878.696V871.904H189.693ZM219.21 871.904L214.602 884H212.394L209.154 875.24L205.938 884H203.73L199.122 871.904H201.642L204.93 881.144L208.266 871.904H210.186L213.522 881.144L216.834 871.904H219.21ZM221.865 871.904H224.265V884H221.865V871.904ZM224.457 866.624V869.168H221.649V866.624H224.457ZM228.218 866.336H230.618V884H228.218V866.336ZM234.571 866.336H236.971V884H234.571V866.336ZM254.131 871.616C255.187 871.616 256.123 871.872 256.939 872.384C257.755 872.896 258.387 873.624 258.835 874.568C259.283 875.512 259.507 876.608 259.507 877.856C259.507 879.104 259.275 880.208 258.811 881.168C258.363 882.112 257.731 882.848 256.915 883.376C256.099 883.904 255.171 884.168 254.131 884.168C253.203 884.168 252.387 883.976 251.683 883.592C250.995 883.192 250.475 882.624 250.123 881.888V884H247.723V866.336H250.123V873.896C250.475 873.176 250.995 872.616 251.683 872.216C252.387 871.816 253.203 871.616 254.131 871.616ZM253.579 882.248C254.667 882.248 255.515 881.864 256.123 881.096C256.731 880.312 257.035 879.232 257.035 877.856C257.035 876.496 256.731 875.44 256.123 874.688C255.515 873.936 254.667 873.56 253.579 873.56C252.475 873.56 251.619 873.936 251.011 874.688C250.419 875.44 250.123 876.512 250.123 877.904C250.123 879.296 250.419 880.368 251.011 881.12C251.619 881.872 252.475 882.248 253.579 882.248ZM273.068 878H264.428C264.508 880.832 265.796 882.248 268.292 882.248C269.684 882.248 270.956 881.792 272.108 880.88L272.852 882.608C272.308 883.088 271.612 883.472 270.764 883.76C269.932 884.032 269.092 884.168 268.244 884.168C266.308 884.168 264.788 883.616 263.684 882.512C262.58 881.392 262.028 879.864 262.028 877.928C262.028 876.696 262.268 875.6 262.748 874.64C263.244 873.68 263.932 872.936 264.812 872.408C265.692 871.88 266.692 871.616 267.812 871.616C269.444 871.616 270.724 872.144 271.652 873.2C272.596 874.256 273.068 875.72 273.068 877.592V878ZM267.86 873.416C266.948 873.416 266.204 873.688 265.628 874.232C265.052 874.776 264.684 875.552 264.524 876.56H270.932C270.836 875.536 270.524 874.76 269.996 874.232C269.468 873.688 268.756 873.416 267.86 873.416ZM294.112 871.904V884H291.712V881.936C291.36 882.656 290.832 883.208 290.128 883.592C289.44 883.976 288.632 884.168 287.704 884.168C286.632 884.168 285.688 883.912 284.872 883.4C284.072 882.888 283.448 882.168 283 881.24C282.552 880.296 282.328 879.2 282.328 877.952C282.328 876.704 282.552 875.6 283 874.64C283.464 873.68 284.104 872.936 284.92 872.408C285.736 871.88 286.664 871.616 287.704 871.616C288.632 871.616 289.44 871.816 290.128 872.216C290.816 872.6 291.344 873.152 291.712 873.872V871.904H294.112ZM288.28 882.248C289.368 882.248 290.208 881.872 290.8 881.12C291.408 880.352 291.712 879.28 291.712 877.904C291.712 876.512 291.408 875.44 290.8 874.688C290.208 873.936 289.36 873.56 288.256 873.56C287.168 873.56 286.312 873.952 285.688 874.736C285.08 875.504 284.776 876.576 284.776 877.952C284.776 879.312 285.08 880.368 285.688 881.12C286.312 881.872 287.176 882.248 288.28 882.248ZM304.481 871.616C305.537 871.616 306.473 871.872 307.289 872.384C308.105 872.896 308.737 873.624 309.185 874.568C309.633 875.512 309.857 876.608 309.857 877.856C309.857 879.104 309.625 880.208 309.161 881.168C308.713 882.112 308.081 882.848 307.265 883.376C306.449 883.904 305.521 884.168 304.481 884.168C303.553 884.168 302.737 883.976 302.033 883.592C301.345 883.192 300.825 882.624 300.473 881.888V884H298.073V866.336H300.473V873.896C300.825 873.176 301.345 872.616 302.033 872.216C302.737 871.816 303.553 871.616 304.481 871.616ZM303.929 882.248C305.017 882.248 305.865 881.864 306.473 881.096C307.081 880.312 307.385 879.232 307.385 877.856C307.385 876.496 307.081 875.44 306.473 874.688C305.865 873.936 305.017 873.56 303.929 873.56C302.825 873.56 301.969 873.936 301.361 874.688C300.769 875.44 300.473 876.512 300.473 877.904C300.473 879.296 300.769 880.368 301.361 881.12C301.969 881.872 302.825 882.248 303.929 882.248ZM313.098 866.336H315.498V884H313.098V866.336ZM329.771 878H321.131C321.211 880.832 322.499 882.248 324.995 882.248C326.387 882.248 327.659 881.792 328.811 880.88L329.555 882.608C329.011 883.088 328.315 883.472 327.467 883.76C326.635 884.032 325.795 884.168 324.947 884.168C323.011 884.168 321.491 883.616 320.387 882.512C319.283 881.392 318.731 879.864 318.731 877.928C318.731 876.696 318.971 875.6 319.451 874.64C319.947 873.68 320.635 872.936 321.515 872.408C322.395 871.88 323.395 871.616 324.515 871.616C326.147 871.616 327.427 872.144 328.355 873.2C329.299 874.256 329.771 875.72 329.771 877.592V878ZM324.563 873.416C323.651 873.416 322.907 873.688 322.331 874.232C321.755 874.776 321.387 875.552 321.227 876.56H327.635C327.539 875.536 327.227 874.76 326.699 874.232C326.171 873.688 325.459 873.416 324.563 873.416ZM342.895 873.776V879.848C342.895 880.68 343.071 881.272 343.423 881.624C343.791 881.96 344.295 882.128 344.935 882.128C345.351 882.128 345.775 882.064 346.207 881.936V883.904C345.679 884.08 345.079 884.168 344.407 884.168C343.159 884.168 342.191 883.816 341.503 883.112C340.815 882.408 340.471 881.384 340.471 880.04V873.776H338.119V871.904H340.471V868.88L342.895 868.04V871.904H346.231V873.776H342.895ZM354.078 884.168C352.894 884.168 351.854 883.912 350.958 883.4C350.062 882.888 349.366 882.16 348.87 881.216C348.39 880.272 348.15 879.168 348.15 877.904C348.15 876.64 348.39 875.536 348.87 874.592C349.366 873.632 350.062 872.896 350.958 872.384C351.854 871.872 352.894 871.616 354.078 871.616C355.246 871.616 356.278 871.872 357.174 872.384C358.07 872.896 358.758 873.632 359.238 874.592C359.734 875.536 359.982 876.64 359.982 877.904C359.982 879.168 359.734 880.272 359.238 881.216C358.758 882.16 358.07 882.888 357.174 883.4C356.278 883.912 355.246 884.168 354.078 884.168ZM354.054 882.248C355.174 882.248 356.03 881.88 356.622 881.144C357.214 880.408 357.51 879.328 357.51 877.904C357.51 876.512 357.206 875.44 356.598 874.688C356.006 873.936 355.166 873.56 354.078 873.56C352.974 873.56 352.118 873.936 351.51 874.688C350.902 875.44 350.598 876.512 350.598 877.904C350.598 879.328 350.894 880.408 351.486 881.144C352.094 881.88 352.95 882.248 354.054 882.248ZM373.157 873.776V879.848C373.157 880.68 373.333 881.272 373.685 881.624C374.053 881.96 374.557 882.128 375.197 882.128C375.613 882.128 376.037 882.064 376.469 881.936V883.904C375.941 884.08 375.341 884.168 374.669 884.168C373.421 884.168 372.453 883.816 371.765 883.112C371.077 882.408 370.733 881.384 370.733 880.04V873.776H368.381V871.904H370.733V868.88L373.157 868.04V871.904H376.493V873.776H373.157ZM385.156 871.616C385.524 871.616 385.908 871.672 386.308 871.784L386.26 873.992C385.828 873.832 385.356 873.752 384.844 873.752C383.74 873.752 382.908 874.088 382.348 874.76C381.804 875.416 381.532 876.248 381.532 877.256V884H379.132V875.312C379.132 874.048 379.068 872.912 378.94 871.904H381.196L381.412 874.088C381.732 873.288 382.228 872.68 382.9 872.264C383.572 871.832 384.324 871.616 385.156 871.616ZM400.274 871.904L394.634 884.984C394.01 886.408 393.226 887.448 392.282 888.104C391.354 888.776 390.202 889.224 388.826 889.448L388.298 887.576C389.434 887.32 390.29 886.984 390.866 886.568C391.458 886.168 391.93 885.56 392.282 884.744L392.714 883.736L387.626 871.904H390.194L393.986 881.264L397.85 871.904H400.274ZM412.492 873.776V879.848C412.492 880.68 412.668 881.272 413.02 881.624C413.388 881.96 413.892 882.128 414.532 882.128C414.948 882.128 415.372 882.064 415.804 881.936V883.904C415.276 884.08 414.676 884.168 414.004 884.168C412.756 884.168 411.788 883.816 411.1 883.112C410.412 882.408 410.068 881.384 410.068 880.04V873.776H407.716V871.904H410.068V868.88L412.492 868.04V871.904H415.828V873.776H412.492ZM424.899 871.616C427.795 871.616 429.243 873.232 429.243 876.464V884H426.819V876.608C426.819 875.552 426.611 874.784 426.195 874.304C425.795 873.824 425.147 873.584 424.251 873.584C423.227 873.584 422.403 873.904 421.779 874.544C421.171 875.184 420.867 876.04 420.867 877.112V884H418.467V866.336H420.867V873.776C421.267 873.072 421.819 872.536 422.523 872.168C423.227 871.8 424.019 871.616 424.899 871.616ZM443.413 878H434.773C434.853 880.832 436.141 882.248 438.637 882.248C440.029 882.248 441.301 881.792 442.453 880.88L443.197 882.608C442.653 883.088 441.957 883.472 441.109 883.76C440.277 884.032 439.437 884.168 438.589 884.168C436.653 884.168 435.133 883.616 434.029 882.512C432.925 881.392 432.373 879.864 432.373 877.928C432.373 876.696 432.613 875.6 433.093 874.64C433.589 873.68 434.277 872.936 435.157 872.408C436.037 871.88 437.037 871.616 438.157 871.616C439.789 871.616 441.069 872.144 441.997 873.2C442.941 874.256 443.413 875.72 443.413 877.592V878ZM438.205 873.416C437.293 873.416 436.549 873.688 435.973 874.232C435.397 874.776 435.029 875.552 434.869 876.56H441.277C441.181 875.536 440.869 874.76 440.341 874.232C439.813 873.688 439.101 873.416 438.205 873.416ZM463.665 875.192C464.657 875.464 465.425 875.96 465.969 876.68C466.513 877.4 466.785 878.288 466.785 879.344C466.785 880.816 466.273 881.96 465.249 882.776C464.241 883.592 462.825 884 461.001 884H453.609V866.912H460.761C462.521 866.912 463.889 867.304 464.865 868.088C465.857 868.872 466.353 869.968 466.353 871.376C466.353 872.288 466.113 873.08 465.633 873.752C465.169 874.408 464.513 874.888 463.665 875.192ZM456.057 874.328H460.377C462.761 874.328 463.953 873.408 463.953 871.568C463.953 869.792 462.761 868.904 460.377 868.904H456.057V874.328ZM460.761 882.008C462.009 882.008 462.921 881.784 463.497 881.336C464.073 880.872 464.361 880.16 464.361 879.2C464.361 878.224 464.065 877.504 463.473 877.04C462.897 876.56 461.993 876.32 460.761 876.32H456.057V882.008H460.761ZM470.439 866.912H481.527V868.928H472.887V874.304H481.047V876.32H472.887V881.984H481.527V884H470.439V866.912ZM488.958 868.976H483.174V866.912H497.238V868.976H491.454V884H488.958V868.976ZM509.119 879.776H500.479L498.655 884H496.135L503.743 866.912H505.831L513.463 884H510.943L509.119 879.776ZM508.279 877.808L504.799 869.672L501.319 877.808H508.279ZM518.873 881.12V883.088C518.873 883.84 518.745 884.52 518.489 885.128C518.233 885.752 517.801 886.368 517.193 886.976L516.161 886.136C516.833 885.4 517.217 884.688 517.313 884H515.993V881.12H518.873ZM540.453 871.904V883.784C540.453 885.624 539.965 887.008 538.989 887.936C538.029 888.88 536.597 889.352 534.693 889.352C532.853 889.352 531.245 888.952 529.869 888.152L530.277 886.256C531.029 886.656 531.749 886.952 532.437 887.144C533.141 887.336 533.885 887.432 534.669 887.432C536.925 887.432 538.053 886.28 538.053 883.976V881.36C537.685 882.064 537.149 882.624 536.445 883.04C535.741 883.44 534.925 883.64 533.997 883.64C532.941 883.64 531.997 883.392 531.165 882.896C530.349 882.4 529.709 881.696 529.245 880.784C528.797 879.872 528.573 878.824 528.573 877.64C528.573 876.456 528.797 875.408 529.245 874.496C529.709 873.584 530.349 872.88 531.165 872.384C531.997 871.872 532.941 871.616 533.997 871.616C534.925 871.616 535.741 871.816 536.445 872.216C537.149 872.6 537.685 873.152 538.053 873.872V871.904H540.453ZM534.549 881.696C535.637 881.696 536.493 881.336 537.117 880.616C537.741 879.896 538.053 878.904 538.053 877.64C538.053 876.376 537.741 875.384 537.117 874.664C536.509 873.928 535.653 873.56 534.549 873.56C533.461 873.56 532.597 873.928 531.957 874.664C531.333 875.384 531.021 876.376 531.021 877.64C531.021 878.888 531.333 879.88 531.957 880.616C532.597 881.336 533.461 881.696 534.549 881.696ZM554.732 878H546.092C546.172 880.832 547.46 882.248 549.956 882.248C551.348 882.248 552.62 881.792 553.772 880.88L554.516 882.608C553.972 883.088 553.276 883.472 552.428 883.76C551.596 884.032 550.756 884.168 549.908 884.168C547.972 884.168 546.452 883.616 545.348 882.512C544.244 881.392 543.692 879.864 543.692 877.928C543.692 876.696 543.932 875.6 544.412 874.64C544.908 873.68 545.596 872.936 546.476 872.408C547.356 871.88 548.356 871.616 549.476 871.616C551.108 871.616 552.388 872.144 553.316 873.2C554.26 874.256 554.732 875.72 554.732 877.592V878ZM549.524 873.416C548.612 873.416 547.868 873.688 547.292 874.232C546.716 874.776 546.348 875.552 546.188 876.56H552.596C552.5 875.536 552.188 874.76 551.66 874.232C551.132 873.688 550.42 873.416 549.524 873.416ZM560.94 873.776V879.848C560.94 880.68 561.116 881.272 561.468 881.624C561.836 881.96 562.34 882.128 562.98 882.128C563.396 882.128 563.82 882.064 564.252 881.936V883.904C563.724 884.08 563.124 884.168 562.452 884.168C561.204 884.168 560.236 883.816 559.548 883.112C558.86 882.408 558.516 881.384 558.516 880.04V873.776H556.164V871.904H558.516V868.88L560.94 868.04V871.904H564.276V873.776H560.94ZM578.922 884.168C577.738 884.168 576.698 883.912 575.802 883.4C574.906 882.888 574.21 882.16 573.714 881.216C573.234 880.272 572.994 879.168 572.994 877.904C572.994 876.64 573.234 875.536 573.714 874.592C574.21 873.632 574.906 872.896 575.802 872.384C576.698 871.872 577.738 871.616 578.922 871.616C580.09 871.616 581.122 871.872 582.018 872.384C582.914 872.896 583.602 873.632 584.082 874.592C584.578 875.536 584.826 876.64 584.826 877.904C584.826 879.168 584.578 880.272 584.082 881.216C583.602 882.16 582.914 882.888 582.018 883.4C581.122 883.912 580.09 884.168 578.922 884.168ZM578.898 882.248C580.018 882.248 580.874 881.88 581.466 881.144C582.058 880.408 582.354 879.328 582.354 877.904C582.354 876.512 582.05 875.44 581.442 874.688C580.85 873.936 580.01 873.56 578.922 873.56C577.818 873.56 576.962 873.936 576.354 874.688C575.746 875.44 575.442 876.512 575.442 877.904C575.442 879.328 575.738 880.408 576.33 881.144C576.938 881.88 577.794 882.248 578.898 882.248ZM598.571 871.904V884H596.219V881.984C595.835 882.688 595.307 883.232 594.635 883.616C593.963 883.984 593.203 884.168 592.355 884.168C589.443 884.168 587.987 882.552 587.987 879.32V871.904H590.387V879.296C590.387 880.288 590.587 881.024 590.987 881.504C591.403 881.968 592.027 882.2 592.859 882.2C593.851 882.2 594.643 881.88 595.235 881.24C595.843 880.6 596.147 879.752 596.147 878.696V871.904H598.571ZM608.545 871.616C608.913 871.616 609.297 871.672 609.697 871.784L609.649 873.992C609.217 873.832 608.745 873.752 608.233 873.752C607.129 873.752 606.297 874.088 605.737 874.76C605.193 875.416 604.921 876.248 604.921 877.256V884H602.521V875.312C602.521 874.048 602.457 872.912 602.329 871.904H604.585L604.801 874.088C605.121 873.288 605.617 872.68 606.289 872.264C606.961 871.832 607.713 871.616 608.545 871.616ZM124.878 914.168C123.662 914.168 122.598 913.912 121.686 913.4C120.79 912.888 120.102 912.168 119.622 911.24C119.142 910.296 118.902 909.2 118.902 907.952C118.902 906.704 119.15 905.6 119.646 904.64C120.158 903.68 120.87 902.936 121.782 902.408C122.694 901.88 123.758 901.616 124.974 901.616C125.822 901.616 126.638 901.76 127.422 902.048C128.206 902.32 128.838 902.696 129.318 903.176L128.574 904.928C127.438 904.032 126.294 903.584 125.142 903.584C123.974 903.584 123.062 903.968 122.406 904.736C121.75 905.488 121.422 906.552 121.422 907.928C121.422 909.304 121.75 910.368 122.406 911.12C123.062 911.856 123.974 912.224 125.142 912.224C126.326 912.224 127.47 911.776 128.574 910.88L129.318 912.632C128.806 913.112 128.15 913.488 127.35 913.76C126.566 914.032 125.742 914.168 124.878 914.168ZM137.207 914.168C136.023 914.168 134.983 913.912 134.087 913.4C133.191 912.888 132.495 912.16 131.999 911.216C131.519 910.272 131.279 909.168 131.279 907.904C131.279 906.64 131.519 905.536 131.999 904.592C132.495 903.632 133.191 902.896 134.087 902.384C134.983 901.872 136.023 901.616 137.207 901.616C138.375 901.616 139.407 901.872 140.303 902.384C141.199 902.896 141.887 903.632 142.367 904.592C142.863 905.536 143.111 906.64 143.111 907.904C143.111 909.168 142.863 910.272 142.367 911.216C141.887 912.16 141.199 912.888 140.303 913.4C139.407 913.912 138.375 914.168 137.207 914.168ZM137.183 912.248C138.303 912.248 139.159 911.88 139.751 911.144C140.343 910.408 140.639 909.328 140.639 907.904C140.639 906.512 140.335 905.44 139.727 904.688C139.135 903.936 138.295 903.56 137.207 903.56C136.103 903.56 135.247 903.936 134.639 904.688C134.031 905.44 133.727 906.512 133.727 907.904C133.727 909.328 134.023 910.408 134.615 911.144C135.223 911.88 136.079 912.248 137.183 912.248ZM152.776 901.616C155.672 901.616 157.12 903.232 157.12 906.464V914H154.696V906.608C154.696 905.552 154.488 904.784 154.072 904.304C153.672 903.824 153.024 903.584 152.128 903.584C151.104 903.584 150.28 903.904 149.656 904.544C149.048 905.184 148.744 906.04 148.744 907.112V914H146.344V905.312C146.344 904.048 146.28 902.912 146.152 901.904H148.408L148.624 903.992C149.008 903.224 149.56 902.64 150.28 902.24C151.016 901.824 151.848 901.616 152.776 901.616ZM165.195 914.168C163.083 914.168 161.419 913.656 160.203 912.632L160.923 910.88C162.187 911.84 163.635 912.32 165.267 912.32C166.099 912.32 166.731 912.184 167.163 911.912C167.595 911.624 167.811 911.224 167.811 910.712C167.811 910.28 167.659 909.944 167.355 909.704C167.067 909.448 166.571 909.232 165.867 909.056L163.851 908.576C162.795 908.352 161.987 907.96 161.427 907.4C160.883 906.824 160.611 906.112 160.611 905.264C160.611 904.176 161.043 903.296 161.907 902.624C162.787 901.952 163.947 901.616 165.387 901.616C166.251 901.616 167.067 901.752 167.835 902.024C168.619 902.296 169.283 902.68 169.827 903.176L169.083 904.88C167.915 903.952 166.683 903.488 165.387 903.488C164.603 903.488 163.995 903.64 163.563 903.944C163.131 904.232 162.915 904.64 162.915 905.168C162.915 905.584 163.051 905.92 163.323 906.176C163.595 906.432 164.027 906.632 164.619 906.776L166.683 907.28C167.835 907.536 168.683 907.944 169.227 908.504C169.787 909.048 170.067 909.76 170.067 910.64C170.067 911.728 169.627 912.592 168.747 913.232C167.883 913.856 166.699 914.168 165.195 914.168ZM176.35 903.776V909.848C176.35 910.68 176.526 911.272 176.878 911.624C177.246 911.96 177.75 912.128 178.39 912.128C178.806 912.128 179.23 912.064 179.662 911.936V913.904C179.134 914.08 178.534 914.168 177.862 914.168C176.614 914.168 175.646 913.816 174.958 913.112C174.27 912.408 173.926 911.384 173.926 910.04V903.776H171.574V901.904H173.926V898.88L176.35 898.04V901.904H179.686V903.776H176.35ZM193.389 901.904V914H190.989V911.936C190.637 912.656 190.109 913.208 189.405 913.592C188.717 913.976 187.909 914.168 186.981 914.168C185.909 914.168 184.965 913.912 184.149 913.4C183.349 912.888 182.725 912.168 182.277 911.24C181.829 910.296 181.605 909.2 181.605 907.952C181.605 906.704 181.829 905.6 182.277 904.64C182.741 903.68 183.381 902.936 184.197 902.408C185.013 901.88 185.941 901.616 186.981 901.616C187.909 901.616 188.717 901.816 189.405 902.216C190.093 902.6 190.621 903.152 190.989 903.872V901.904H193.389ZM187.557 912.248C188.645 912.248 189.485 911.872 190.077 911.12C190.685 910.352 190.989 909.28 190.989 907.904C190.989 906.512 190.685 905.44 190.077 904.688C189.485 903.936 188.637 903.56 187.533 903.56C186.445 903.56 185.589 903.952 184.965 904.736C184.357 905.504 184.053 906.576 184.053 907.952C184.053 909.312 184.357 910.368 184.965 911.12C185.589 911.872 186.453 912.248 187.557 912.248ZM203.782 901.616C206.678 901.616 208.126 903.232 208.126 906.464V914H205.702V906.608C205.702 905.552 205.494 904.784 205.078 904.304C204.678 903.824 204.03 903.584 203.134 903.584C202.11 903.584 201.286 903.904 200.662 904.544C200.054 905.184 199.75 906.04 199.75 907.112V914H197.35V905.312C197.35 904.048 197.286 902.912 197.158 901.904H199.414L199.63 903.992C200.014 903.224 200.566 902.64 201.286 902.24C202.022 901.824 202.854 901.616 203.782 901.616ZM215.121 903.776V909.848C215.121 910.68 215.297 911.272 215.649 911.624C216.017 911.96 216.521 912.128 217.161 912.128C217.577 912.128 218.001 912.064 218.433 911.936V913.904C217.905 914.08 217.305 914.168 216.633 914.168C215.385 914.168 214.417 913.816 213.729 913.112C213.041 912.408 212.697 911.384 212.697 910.04V903.776H210.345V901.904H212.697V898.88L215.121 898.04V901.904H218.457V903.776H215.121ZM232.118 914.168C230.006 914.168 228.342 913.656 227.126 912.632L227.846 910.88C229.11 911.84 230.558 912.32 232.19 912.32C233.022 912.32 233.654 912.184 234.086 911.912C234.518 911.624 234.734 911.224 234.734 910.712C234.734 910.28 234.582 909.944 234.278 909.704C233.99 909.448 233.494 909.232 232.79 909.056L230.774 908.576C229.718 908.352 228.91 907.96 228.35 907.4C227.806 906.824 227.534 906.112 227.534 905.264C227.534 904.176 227.966 903.296 228.83 902.624C229.71 901.952 230.87 901.616 232.31 901.616C233.174 901.616 233.99 901.752 234.758 902.024C235.542 902.296 236.206 902.68 236.75 903.176L236.006 904.88C234.838 903.952 233.606 903.488 232.31 903.488C231.526 903.488 230.918 903.64 230.486 903.944C230.054 904.232 229.838 904.64 229.838 905.168C229.838 905.584 229.974 905.92 230.246 906.176C230.518 906.432 230.95 906.632 231.542 906.776L233.606 907.28C234.758 907.536 235.606 907.944 236.15 908.504C236.71 909.048 236.99 909.76 236.99 910.64C236.99 911.728 236.55 912.592 235.67 913.232C234.806 913.856 233.622 914.168 232.118 914.168ZM250.759 901.904V914H248.407V911.984C248.023 912.688 247.495 913.232 246.823 913.616C246.151 913.984 245.391 914.168 244.543 914.168C241.631 914.168 240.175 912.552 240.175 909.32V901.904H242.575V909.296C242.575 910.288 242.775 911.024 243.175 911.504C243.591 911.968 244.215 912.2 245.047 912.2C246.039 912.2 246.831 911.88 247.423 911.24C248.031 910.6 248.335 909.752 248.335 908.696V901.904H250.759ZM261.118 901.616C262.158 901.616 263.086 901.88 263.902 902.408C264.718 902.936 265.35 903.68 265.798 904.64C266.262 905.6 266.494 906.704 266.494 907.952C266.494 909.2 266.27 910.296 265.822 911.24C265.374 912.168 264.742 912.888 263.926 913.4C263.11 913.912 262.174 914.168 261.118 914.168C260.19 914.168 259.374 913.976 258.67 913.592C257.982 913.192 257.462 912.624 257.11 911.888V919.184H254.71V905.312C254.71 904.048 254.646 902.912 254.518 901.904H256.774L257.014 904.136C257.334 903.336 257.854 902.72 258.574 902.288C259.294 901.84 260.142 901.616 261.118 901.616ZM260.566 912.248C261.654 912.248 262.502 911.872 263.11 911.12C263.718 910.368 264.022 909.312 264.022 907.952C264.022 906.576 263.718 905.504 263.11 904.736C262.502 903.952 261.654 903.56 260.566 903.56C259.446 903.56 258.59 903.936 257.998 904.688C257.406 905.44 257.11 906.512 257.11 907.904C257.11 909.296 257.406 910.368 257.998 911.12C258.606 911.872 259.462 912.248 260.566 912.248ZM276.143 901.616C277.183 901.616 278.111 901.88 278.927 902.408C279.743 902.936 280.375 903.68 280.823 904.64C281.287 905.6 281.519 906.704 281.519 907.952C281.519 909.2 281.295 910.296 280.847 911.24C280.399 912.168 279.767 912.888 278.951 913.4C278.135 913.912 277.199 914.168 276.143 914.168C275.215 914.168 274.399 913.976 273.695 913.592C273.007 913.192 272.487 912.624 272.135 911.888V919.184H269.735V905.312C269.735 904.048 269.671 902.912 269.543 901.904H271.799L272.039 904.136C272.359 903.336 272.879 902.72 273.599 902.288C274.319 901.84 275.167 901.616 276.143 901.616ZM275.591 912.248C276.679 912.248 277.527 911.872 278.135 911.12C278.743 910.368 279.047 909.312 279.047 907.952C279.047 906.576 278.743 905.504 278.135 904.736C277.527 903.952 276.679 903.56 275.591 903.56C274.471 903.56 273.615 903.936 273.023 904.688C272.431 905.44 272.135 906.512 272.135 907.904C272.135 909.296 272.431 910.368 273.023 911.12C273.631 911.872 274.487 912.248 275.591 912.248ZM289.968 914.168C288.784 914.168 287.744 913.912 286.848 913.4C285.952 912.888 285.256 912.16 284.76 911.216C284.28 910.272 284.04 909.168 284.04 907.904C284.04 906.64 284.28 905.536 284.76 904.592C285.256 903.632 285.952 902.896 286.848 902.384C287.744 901.872 288.784 901.616 289.968 901.616C291.136 901.616 292.168 901.872 293.064 902.384C293.96 902.896 294.648 903.632 295.128 904.592C295.624 905.536 295.872 906.64 295.872 907.904C295.872 909.168 295.624 910.272 295.128 911.216C294.648 912.16 293.96 912.888 293.064 913.4C292.168 913.912 291.136 914.168 289.968 914.168ZM289.944 912.248C291.064 912.248 291.92 911.88 292.512 911.144C293.104 910.408 293.4 909.328 293.4 907.904C293.4 906.512 293.096 905.44 292.488 904.688C291.896 903.936 291.056 903.56 289.968 903.56C288.864 903.56 288.008 903.936 287.4 904.688C286.792 905.44 286.488 906.512 286.488 907.904C286.488 909.328 286.784 910.408 287.376 911.144C287.984 911.88 288.84 912.248 289.944 912.248ZM305.129 901.616C305.497 901.616 305.881 901.672 306.281 901.784L306.233 903.992C305.801 903.832 305.329 903.752 304.817 903.752C303.713 903.752 302.881 904.088 302.321 904.76C301.777 905.416 301.505 906.248 301.505 907.256V914H299.105V905.312C299.105 904.048 299.041 902.912 298.913 901.904H301.169L301.385 904.088C301.705 903.288 302.201 902.68 302.873 902.264C303.545 901.832 304.297 901.616 305.129 901.616ZM312.68 903.776V909.848C312.68 910.68 312.856 911.272 313.208 911.624C313.576 911.96 314.08 912.128 314.72 912.128C315.136 912.128 315.56 912.064 315.992 911.936V913.904C315.464 914.08 314.864 914.168 314.192 914.168C312.944 914.168 311.976 913.816 311.288 913.112C310.6 912.408 310.256 911.384 310.256 910.04V903.776H307.904V901.904H310.256V898.88L312.68 898.04V901.904H316.016V903.776H312.68ZM339.037 914.216C337.725 913.688 336.581 912.96 335.605 912.032C334.917 912.72 334.133 913.248 333.253 913.616C332.389 913.984 331.461 914.168 330.469 914.168C329.349 914.168 328.357 913.984 327.493 913.616C326.645 913.232 325.981 912.696 325.501 912.008C325.037 911.32 324.805 910.528 324.805 909.632C324.805 908.592 325.101 907.664 325.693 906.848C326.301 906.032 327.277 905.24 328.621 904.472C327.917 903.688 327.413 903.008 327.109 902.432C326.821 901.84 326.677 901.232 326.677 900.608C326.677 899.456 327.085 898.528 327.901 897.824C328.717 897.104 329.781 896.744 331.093 896.744C332.325 896.744 333.301 897.064 334.021 897.704C334.757 898.344 335.125 899.208 335.125 900.296C335.125 901.16 334.869 901.928 334.357 902.6C333.845 903.272 332.973 903.992 331.741 904.76L335.485 908.84C336.189 907.448 336.573 905.792 336.637 903.872H338.725C338.629 906.432 338.021 908.608 336.901 910.4C337.829 911.312 338.965 912.032 340.309 912.56L339.037 914.216ZM331.117 898.496C330.477 898.496 329.957 898.688 329.557 899.072C329.157 899.456 328.957 899.96 328.957 900.584C328.957 901 329.061 901.408 329.269 901.808C329.493 902.192 329.901 902.728 330.493 903.416C331.469 902.824 332.141 902.312 332.509 901.88C332.877 901.432 333.061 900.944 333.061 900.416C333.061 899.84 332.885 899.376 332.533 899.024C332.181 898.672 331.709 898.496 331.117 898.496ZM330.541 912.272C331.965 912.272 333.205 911.72 334.261 910.616L329.869 905.84C328.909 906.448 328.221 907.032 327.805 907.592C327.389 908.152 327.181 908.792 327.181 909.512C327.181 910.344 327.485 911.016 328.093 911.528C328.701 912.024 329.517 912.272 330.541 912.272ZM360.077 901.904V913.784C360.077 915.624 359.589 917.008 358.613 917.936C357.653 918.88 356.221 919.352 354.317 919.352C352.477 919.352 350.869 918.952 349.493 918.152L349.901 916.256C350.653 916.656 351.373 916.952 352.061 917.144C352.765 917.336 353.509 917.432 354.293 917.432C356.549 917.432 357.677 916.28 357.677 913.976V911.36C357.309 912.064 356.773 912.624 356.069 913.04C355.365 913.44 354.549 913.64 353.621 913.64C352.565 913.64 351.621 913.392 350.789 912.896C349.973 912.4 349.333 911.696 348.869 910.784C348.421 909.872 348.197 908.824 348.197 907.64C348.197 906.456 348.421 905.408 348.869 904.496C349.333 903.584 349.973 902.88 350.789 902.384C351.621 901.872 352.565 901.616 353.621 901.616C354.549 901.616 355.365 901.816 356.069 902.216C356.773 902.6 357.309 903.152 357.677 903.872V901.904H360.077ZM354.173 911.696C355.261 911.696 356.117 911.336 356.741 910.616C357.365 909.896 357.677 908.904 357.677 907.64C357.677 906.376 357.365 905.384 356.741 904.664C356.133 903.928 355.277 903.56 354.173 903.56C353.085 903.56 352.221 903.928 351.581 904.664C350.957 905.384 350.645 906.376 350.645 907.64C350.645 908.888 350.957 909.88 351.581 910.616C352.221 911.336 353.085 911.696 354.173 911.696ZM374.548 901.904V914H372.196V911.984C371.812 912.688 371.284 913.232 370.612 913.616C369.94 913.984 369.18 914.168 368.332 914.168C365.42 914.168 363.964 912.552 363.964 909.32V901.904H366.364V909.296C366.364 910.288 366.564 911.024 366.964 911.504C367.38 911.968 368.004 912.2 368.836 912.2C369.828 912.2 370.62 911.88 371.212 911.24C371.82 910.6 372.124 909.752 372.124 908.696V901.904H374.548ZM378.499 901.904H380.899V914H378.499V901.904ZM381.091 896.624V899.168H378.283V896.624H381.091ZM395.916 896.336V914H393.516V911.936C393.164 912.656 392.636 913.208 391.932 913.592C391.244 913.976 390.436 914.168 389.508 914.168C388.468 914.168 387.54 913.904 386.724 913.376C385.908 912.848 385.268 912.112 384.804 911.168C384.356 910.208 384.132 909.104 384.132 907.856C384.132 906.608 384.356 905.512 384.804 904.568C385.252 903.624 385.876 902.896 386.676 902.384C387.492 901.872 388.436 901.616 389.508 901.616C390.42 901.616 391.22 901.808 391.908 902.192C392.612 902.576 393.14 903.12 393.492 903.824V896.336H395.916ZM390.06 912.248C391.164 912.248 392.012 911.872 392.604 911.12C393.212 910.352 393.516 909.28 393.516 907.904C393.516 906.528 393.212 905.464 392.604 904.712C392.012 903.944 391.172 903.56 390.084 903.56C388.98 903.56 388.116 903.936 387.492 904.688C386.884 905.44 386.58 906.496 386.58 907.856C386.58 909.232 386.884 910.312 387.492 911.096C388.116 911.864 388.972 912.248 390.06 912.248ZM410.941 901.904V914H408.541V911.936C408.189 912.656 407.661 913.208 406.957 913.592C406.269 913.976 405.461 914.168 404.533 914.168C403.461 914.168 402.517 913.912 401.701 913.4C400.901 912.888 400.277 912.168 399.829 911.24C399.381 910.296 399.157 909.2 399.157 907.952C399.157 906.704 399.381 905.6 399.829 904.64C400.293 903.68 400.933 902.936 401.749 902.408C402.565 901.88 403.493 901.616 404.533 901.616C405.461 901.616 406.269 901.816 406.957 902.216C407.645 902.6 408.173 903.152 408.541 903.872V901.904H410.941ZM405.109 912.248C406.197 912.248 407.037 911.872 407.629 911.12C408.237 910.352 408.541 909.28 408.541 907.904C408.541 906.512 408.237 905.44 407.629 904.688C407.037 903.936 406.189 903.56 405.085 903.56C403.997 903.56 403.141 903.952 402.517 904.736C401.909 905.504 401.605 906.576 401.605 907.952C401.605 909.312 401.909 910.368 402.517 911.12C403.141 911.872 404.005 912.248 405.109 912.248ZM421.334 901.616C424.23 901.616 425.678 903.232 425.678 906.464V914H423.254V906.608C423.254 905.552 423.046 904.784 422.63 904.304C422.23 903.824 421.582 903.584 420.686 903.584C419.662 903.584 418.838 903.904 418.214 904.544C417.606 905.184 417.302 906.04 417.302 907.112V914H414.902V905.312C414.902 904.048 414.838 902.912 414.71 901.904H416.966L417.182 903.992C417.566 903.224 418.118 902.64 418.838 902.24C419.574 901.824 420.406 901.616 421.334 901.616ZM434.784 914.168C433.568 914.168 432.504 913.912 431.592 913.4C430.696 912.888 430.008 912.168 429.528 911.24C429.048 910.296 428.808 909.2 428.808 907.952C428.808 906.704 429.056 905.6 429.552 904.64C430.064 903.68 430.776 902.936 431.688 902.408C432.6 901.88 433.664 901.616 434.88 901.616C435.728 901.616 436.544 901.76 437.328 902.048C438.112 902.32 438.744 902.696 439.224 903.176L438.48 904.928C437.344 904.032 436.2 903.584 435.048 903.584C433.88 903.584 432.968 903.968 432.312 904.736C431.656 905.488 431.328 906.552 431.328 907.928C431.328 909.304 431.656 910.368 432.312 911.12C432.968 911.856 433.88 912.224 435.048 912.224C436.232 912.224 437.376 911.776 438.48 910.88L439.224 912.632C438.712 913.112 438.056 913.488 437.256 913.76C436.472 914.032 435.648 914.168 434.784 914.168ZM452.225 908H443.585C443.665 910.832 444.953 912.248 447.449 912.248C448.841 912.248 450.113 911.792 451.265 910.88L452.009 912.608C451.465 913.088 450.769 913.472 449.921 913.76C449.089 914.032 448.249 914.168 447.401 914.168C445.465 914.168 443.945 913.616 442.841 912.512C441.737 911.392 441.185 909.864 441.185 907.928C441.185 906.696 441.425 905.6 441.905 904.64C442.401 903.68 443.089 902.936 443.969 902.408C444.849 901.88 445.849 901.616 446.969 901.616C448.601 901.616 449.881 902.144 450.809 903.2C451.753 904.256 452.225 905.72 452.225 907.592V908ZM447.017 903.416C446.105 903.416 445.361 903.688 444.785 904.232C444.209 904.776 443.841 905.552 443.681 906.56H450.089C449.993 905.536 449.681 904.76 449.153 904.232C448.625 903.688 447.913 903.416 447.017 903.416ZM467.413 914.168C466.229 914.168 465.189 913.912 464.293 913.4C463.397 912.888 462.701 912.16 462.205 911.216C461.725 910.272 461.485 909.168 461.485 907.904C461.485 906.64 461.725 905.536 462.205 904.592C462.701 903.632 463.397 902.896 464.293 902.384C465.189 901.872 466.229 901.616 467.413 901.616C468.581 901.616 469.613 901.872 470.509 902.384C471.405 902.896 472.093 903.632 472.573 904.592C473.069 905.536 473.317 906.64 473.317 907.904C473.317 909.168 473.069 910.272 472.573 911.216C472.093 912.16 471.405 912.888 470.509 913.4C469.613 913.912 468.581 914.168 467.413 914.168ZM467.389 912.248C468.509 912.248 469.365 911.88 469.957 911.144C470.549 910.408 470.845 909.328 470.845 907.904C470.845 906.512 470.541 905.44 469.933 904.688C469.341 903.936 468.501 903.56 467.413 903.56C466.309 903.56 465.453 903.936 464.845 904.688C464.237 905.44 463.933 906.512 463.933 907.904C463.933 909.328 464.229 910.408 464.821 911.144C465.429 911.88 466.285 912.248 467.389 912.248ZM482.982 901.616C485.878 901.616 487.326 903.232 487.326 906.464V914H484.902V906.608C484.902 905.552 484.694 904.784 484.278 904.304C483.878 903.824 483.23 903.584 482.334 903.584C481.31 903.584 480.486 903.904 479.862 904.544C479.254 905.184 478.95 906.04 478.95 907.112V914H476.55V905.312C476.55 904.048 476.486 902.912 476.358 901.904H478.614L478.83 903.992C479.214 903.224 479.766 902.64 480.486 902.24C481.222 901.824 482.054 901.616 482.982 901.616ZM508.967 901.904L503.327 914.984C502.703 916.408 501.919 917.448 500.975 918.104C500.047 918.776 498.895 919.224 497.519 919.448L496.991 917.576C498.127 917.32 498.983 916.984 499.559 916.568C500.151 916.168 500.623 915.56 500.975 914.744L501.407 913.736L496.319 901.904H498.887L502.679 911.264L506.543 901.904H508.967ZM516.286 914.168C515.102 914.168 514.062 913.912 513.166 913.4C512.27 912.888 511.574 912.16 511.078 911.216C510.598 910.272 510.358 909.168 510.358 907.904C510.358 906.64 510.598 905.536 511.078 904.592C511.574 903.632 512.27 902.896 513.166 902.384C514.062 901.872 515.102 901.616 516.286 901.616C517.454 901.616 518.486 901.872 519.382 902.384C520.278 902.896 520.966 903.632 521.446 904.592C521.942 905.536 522.19 906.64 522.19 907.904C522.19 909.168 521.942 910.272 521.446 911.216C520.966 912.16 520.278 912.888 519.382 913.4C518.486 913.912 517.454 914.168 516.286 914.168ZM516.262 912.248C517.382 912.248 518.238 911.88 518.83 911.144C519.422 910.408 519.718 909.328 519.718 907.904C519.718 906.512 519.414 905.44 518.806 904.688C518.214 903.936 517.374 903.56 516.286 903.56C515.182 903.56 514.326 903.936 513.718 904.688C513.11 905.44 512.806 906.512 512.806 907.904C512.806 909.328 513.102 910.408 513.694 911.144C514.302 911.88 515.158 912.248 516.262 912.248ZM535.936 901.904V914H533.584V911.984C533.2 912.688 532.672 913.232 532 913.616C531.328 913.984 530.568 914.168 529.72 914.168C526.808 914.168 525.352 912.552 525.352 909.32V901.904H527.752V909.296C527.752 910.288 527.952 911.024 528.352 911.504C528.768 911.968 529.392 912.2 530.224 912.2C531.216 912.2 532.008 911.88 532.6 911.24C533.208 910.6 533.512 909.752 533.512 908.696V901.904H535.936ZM545.91 901.616C546.278 901.616 546.662 901.672 547.062 901.784L547.014 903.992C546.582 903.832 546.11 903.752 545.598 903.752C544.494 903.752 543.662 904.088 543.102 904.76C542.558 905.416 542.286 906.248 542.286 907.256V914H539.886V905.312C539.886 904.048 539.822 902.912 539.694 901.904H541.95L542.166 904.088C542.486 903.288 542.982 902.68 543.654 902.264C544.326 901.832 545.078 901.616 545.91 901.616ZM554.236 916.184C554.86 916.296 555.436 916.352 555.964 916.352C556.78 916.352 557.34 916.144 557.644 915.728C557.948 915.312 558.1 914.576 558.1 913.52V896.912H560.596V913.544C560.596 915.256 560.276 916.504 559.636 917.288C558.996 918.072 557.924 918.464 556.42 918.464C555.684 918.464 554.956 918.4 554.236 918.272V916.184ZM569.966 914.168C568.782 914.168 567.742 913.912 566.846 913.4C565.95 912.888 565.254 912.16 564.758 911.216C564.278 910.272 564.038 909.168 564.038 907.904C564.038 906.64 564.278 905.536 564.758 904.592C565.254 903.632 565.95 902.896 566.846 902.384C567.742 901.872 568.782 901.616 569.966 901.616C571.134 901.616 572.166 901.872 573.062 902.384C573.958 902.896 574.646 903.632 575.126 904.592C575.622 905.536 575.87 906.64 575.87 907.904C575.87 909.168 575.622 910.272 575.126 911.216C574.646 912.16 573.958 912.888 573.062 913.4C572.166 913.912 571.134 914.168 569.966 914.168ZM569.942 912.248C571.062 912.248 571.918 911.88 572.51 911.144C573.102 910.408 573.398 909.328 573.398 907.904C573.398 906.512 573.094 905.44 572.486 904.688C571.894 903.936 571.054 903.56 569.966 903.56C568.862 903.56 568.006 903.936 567.398 904.688C566.79 905.44 566.486 906.512 566.486 907.904C566.486 909.328 566.782 910.408 567.374 911.144C567.982 911.88 568.838 912.248 569.942 912.248ZM589.615 901.904V914H587.263V911.984C586.879 912.688 586.351 913.232 585.679 913.616C585.007 913.984 584.247 914.168 583.399 914.168C580.487 914.168 579.031 912.552 579.031 909.32V901.904H581.431V909.296C581.431 910.288 581.631 911.024 582.031 911.504C582.447 911.968 583.071 912.2 583.903 912.2C584.895 912.2 585.687 911.88 586.279 911.24C586.887 910.6 587.191 909.752 587.191 908.696V901.904H589.615ZM599.59 901.616C599.958 901.616 600.342 901.672 600.742 901.784L600.694 903.992C600.262 903.832 599.79 903.752 599.278 903.752C598.174 903.752 597.342 904.088 596.782 904.76C596.238 905.416 595.966 906.248 595.966 907.256V914H593.566V905.312C593.566 904.048 593.502 902.912 593.374 901.904H595.63L595.846 904.088C596.166 903.288 596.662 902.68 597.334 902.264C598.006 901.832 598.758 901.616 599.59 901.616ZM609.421 901.616C612.317 901.616 613.765 903.232 613.765 906.464V914H611.341V906.608C611.341 905.552 611.133 904.784 610.717 904.304C610.317 903.824 609.669 903.584 608.773 903.584C607.749 903.584 606.925 903.904 606.301 904.544C605.693 905.184 605.389 906.04 605.389 907.112V914H602.989V905.312C602.989 904.048 602.925 902.912 602.797 901.904H605.053L605.269 903.992C605.653 903.224 606.205 902.64 606.925 902.24C607.661 901.824 608.493 901.616 609.421 901.616ZM627.936 908H619.296C619.376 910.832 620.664 912.248 623.16 912.248C624.552 912.248 625.824 911.792 626.976 910.88L627.72 912.608C627.176 913.088 626.48 913.472 625.632 913.76C624.8 914.032 623.96 914.168 623.112 914.168C621.176 914.168 619.656 913.616 618.552 912.512C617.448 911.392 616.896 909.864 616.896 907.928C616.896 906.696 617.136 905.6 617.616 904.64C618.112 903.68 618.8 902.936 619.68 902.408C620.56 901.88 621.56 901.616 622.68 901.616C624.312 901.616 625.592 902.144 626.52 903.2C627.464 904.256 627.936 905.72 627.936 907.592V908ZM622.728 903.416C621.816 903.416 621.072 903.688 620.496 904.232C619.92 904.776 619.552 905.552 619.392 906.56H625.8C625.704 905.536 625.392 904.76 624.864 904.232C624.336 903.688 623.624 903.416 622.728 903.416ZM641.945 901.904L636.305 914.984C635.681 916.408 634.897 917.448 633.953 918.104C633.025 918.776 631.873 919.224 630.497 919.448L629.969 917.576C631.105 917.32 631.961 916.984 632.537 916.568C633.129 916.168 633.601 915.56 633.953 914.744L634.385 913.736L629.297 901.904H631.865L635.657 911.264L639.521 901.904H641.945Z" fill="#F7F7F7"/>
<path d="M250.797 962.448L253.005 959.736L249.597 958.8L250.269 956.784L253.533 958.032L253.365 954.528H255.477L255.309 958.008L258.597 956.784L259.245 958.8L255.861 959.712L258.069 962.448L256.341 963.696L254.421 960.768L252.501 963.696L250.797 962.448ZM276.566 954.912V972H274.262L265.046 960.024V972H262.166V954.912H264.47L273.662 966.864V954.912H276.566ZM285.963 972.192C284.731 972.192 283.643 971.936 282.699 971.424C281.771 970.912 281.051 970.184 280.539 969.24C280.043 968.28 279.795 967.16 279.795 965.88C279.795 964.6 280.043 963.488 280.539 962.544C281.051 961.584 281.771 960.848 282.699 960.336C283.643 959.824 284.731 959.568 285.963 959.568C287.179 959.568 288.251 959.824 289.179 960.336C290.107 960.848 290.819 961.584 291.315 962.544C291.827 963.488 292.083 964.6 292.083 965.88C292.083 967.16 291.827 968.28 291.315 969.24C290.819 970.184 290.107 970.912 289.179 971.424C288.251 971.936 287.179 972.192 285.963 972.192ZM285.939 969.84C286.963 969.84 287.739 969.512 288.267 968.856C288.811 968.184 289.083 967.192 289.083 965.88C289.083 964.584 288.811 963.6 288.267 962.928C287.723 962.24 286.955 961.896 285.963 961.896C284.955 961.896 284.179 962.24 283.635 962.928C283.091 963.6 282.819 964.584 282.819 965.88C282.819 967.192 283.083 968.184 283.611 968.856C284.155 969.512 284.931 969.84 285.939 969.84ZM308.056 972.216C306.744 972.216 305.512 972.04 304.36 971.688C303.224 971.336 302.256 970.832 301.456 970.176L302.512 967.92C303.344 968.544 304.208 969.008 305.104 969.312C306.016 969.6 307.008 969.744 308.08 969.744C309.264 969.744 310.176 969.536 310.816 969.12C311.472 968.704 311.8 968.12 311.8 967.368C311.8 966.728 311.496 966.24 310.888 965.904C310.296 965.552 309.312 965.224 307.936 964.92C305.792 964.456 304.232 963.856 303.256 963.12C302.28 962.384 301.792 961.312 301.792 959.904C301.792 958.896 302.064 958 302.608 957.216C303.152 956.432 303.92 955.816 304.912 955.368C305.92 954.92 307.08 954.696 308.392 954.696C309.592 954.696 310.728 954.88 311.8 955.248C312.888 955.6 313.776 956.096 314.464 956.736L313.432 958.992C311.912 957.776 310.232 957.168 308.392 957.168C307.288 957.168 306.416 957.4 305.776 957.864C305.136 958.312 304.816 958.928 304.816 959.712C304.816 960.384 305.096 960.896 305.656 961.248C306.232 961.6 307.208 961.928 308.584 962.232C310.008 962.568 311.168 962.936 312.064 963.336C312.96 963.72 313.648 964.224 314.128 964.848C314.608 965.456 314.848 966.224 314.848 967.152C314.848 968.176 314.576 969.072 314.032 969.84C313.488 970.592 312.704 971.176 311.68 971.592C310.656 972.008 309.448 972.216 308.056 972.216ZM321.553 962.136V967.56C321.553 968.984 322.217 969.696 323.545 969.696C323.913 969.696 324.313 969.632 324.745 969.504V971.88C324.217 972.072 323.577 972.168 322.825 972.168C321.449 972.168 320.393 971.784 319.657 971.016C318.921 970.248 318.553 969.144 318.553 967.704V962.136H316.225V959.88H318.553V956.928L321.553 955.92V959.88H324.769V962.136H321.553ZM333.759 959.592C334.223 959.592 334.623 959.656 334.959 959.784L334.935 962.52C334.423 962.312 333.895 962.208 333.351 962.208C332.327 962.208 331.543 962.504 330.999 963.096C330.471 963.688 330.207 964.472 330.207 965.448V972H327.231V963.312C327.231 962.032 327.167 960.888 327.039 959.88H329.847L330.087 962.016C330.391 961.232 330.871 960.632 331.527 960.216C332.183 959.8 332.927 959.592 333.759 959.592ZM337.03 959.88H340.006V972H337.03V959.88ZM340.174 954.384V957.336H336.838V954.384H340.174ZM350.623 959.568C353.519 959.568 354.967 961.232 354.967 964.56V972H351.967V964.704C351.967 963.744 351.783 963.048 351.415 962.616C351.047 962.168 350.479 961.944 349.711 961.944C348.799 961.944 348.063 962.24 347.503 962.832C346.943 963.408 346.663 964.176 346.663 965.136V972H343.687V963.312C343.687 962.032 343.623 960.888 343.495 959.88H346.303L346.519 961.872C346.935 961.136 347.495 960.568 348.199 960.168C348.919 959.768 349.727 959.568 350.623 959.568ZM370.26 959.88V971.616C370.26 973.504 369.74 974.936 368.7 975.912C367.66 976.888 366.132 977.376 364.116 977.376C362.244 977.376 360.596 976.984 359.172 976.2L359.652 973.92C361.124 974.688 362.588 975.072 364.044 975.072C366.204 975.072 367.284 974 367.284 971.856V969.456C366.916 970.112 366.38 970.648 365.676 971.064C364.972 971.464 364.18 971.664 363.3 971.664C362.244 971.664 361.3 971.416 360.468 970.92C359.652 970.408 359.012 969.696 358.548 968.784C358.1 967.856 357.876 966.8 357.876 965.616C357.876 964.432 358.1 963.384 358.548 962.472C359.012 961.544 359.652 960.832 360.468 960.336C361.3 959.824 362.244 959.568 363.3 959.568C364.196 959.568 364.988 959.76 365.676 960.144C366.38 960.512 366.916 961.032 367.284 961.704V959.88H370.26ZM364.092 969.312C365.084 969.312 365.86 968.984 366.42 968.328C366.996 967.672 367.284 966.768 367.284 965.616C367.284 964.464 367.004 963.56 366.444 962.904C365.884 962.248 365.1 961.92 364.092 961.92C363.1 961.92 362.316 962.248 361.74 962.904C361.18 963.56 360.9 964.464 360.9 965.616C360.9 966.768 361.18 967.672 361.74 968.328C362.316 968.984 363.1 969.312 364.092 969.312ZM378.342 972.192C376.15 972.192 374.406 971.68 373.11 970.656L373.95 968.544C375.246 969.504 376.726 969.984 378.39 969.984C379.11 969.984 379.662 969.864 380.046 969.624C380.446 969.384 380.646 969.048 380.646 968.616C380.646 968.248 380.51 967.96 380.238 967.752C379.966 967.528 379.502 967.336 378.846 967.176L376.83 966.72C374.622 966.24 373.518 965.112 373.518 963.336C373.518 962.6 373.726 961.952 374.142 961.392C374.558 960.816 375.142 960.368 375.894 960.048C376.646 959.728 377.518 959.568 378.51 959.568C379.374 959.568 380.206 959.704 381.006 959.976C381.806 960.232 382.51 960.608 383.118 961.104L382.23 963.144C381.014 962.248 379.766 961.8 378.486 961.8C377.798 961.8 377.262 961.928 376.878 962.184C376.494 962.44 376.302 962.792 376.302 963.24C376.302 963.592 376.414 963.872 376.638 964.08C376.878 964.288 377.278 964.464 377.838 964.608L379.902 965.064C381.102 965.336 381.974 965.76 382.518 966.336C383.078 966.896 383.358 967.632 383.358 968.544C383.358 969.664 382.91 970.552 382.014 971.208C381.118 971.864 379.894 972.192 378.342 972.192ZM404.879 967.992H396.527L394.799 972H391.679L399.407 954.912H401.927L409.679 972H406.583L404.879 967.992ZM403.847 965.592L400.703 958.272L397.559 965.592H403.847ZM415.199 962.136V967.56C415.199 968.984 415.863 969.696 417.191 969.696C417.559 969.696 417.959 969.632 418.391 969.504V971.88C417.863 972.072 417.223 972.168 416.471 972.168C415.095 972.168 414.039 971.784 413.303 971.016C412.567 970.248 412.199 969.144 412.199 967.704V962.136H409.871V959.88H412.199V956.928L415.199 955.92V959.88H418.415V962.136H415.199ZM424.528 962.136V967.56C424.528 968.984 425.192 969.696 426.52 969.696C426.888 969.696 427.288 969.632 427.72 969.504V971.88C427.192 972.072 426.552 972.168 425.8 972.168C424.424 972.168 423.368 971.784 422.632 971.016C421.896 970.248 421.528 969.144 421.528 967.704V962.136H419.2V959.88H421.528V956.928L424.528 955.92V959.88H427.744V962.136H424.528ZM441.798 959.88V972H438.846V970.056C438.478 970.728 437.95 971.256 437.262 971.64C436.574 972.008 435.79 972.192 434.91 972.192C433.854 972.192 432.918 971.936 432.102 971.424C431.286 970.912 430.654 970.184 430.206 969.24C429.758 968.296 429.534 967.2 429.534 965.952C429.534 964.704 429.758 963.6 430.206 962.64C430.67 961.664 431.31 960.912 432.126 960.384C432.942 959.84 433.87 959.568 434.91 959.568C435.79 959.568 436.574 959.76 437.262 960.144C437.95 960.512 438.478 961.032 438.846 961.704V959.88H441.798ZM435.726 969.84C436.718 969.84 437.486 969.496 438.03 968.808C438.574 968.12 438.846 967.152 438.846 965.904C438.846 964.624 438.574 963.64 438.03 962.952C437.486 962.264 436.71 961.92 435.702 961.92C434.71 961.92 433.934 962.28 433.374 963C432.83 963.704 432.558 964.688 432.558 965.952C432.558 967.2 432.83 968.16 433.374 968.832C433.934 969.504 434.718 969.84 435.726 969.84ZM450.962 972.192C449.698 972.192 448.602 971.936 447.674 971.424C446.746 970.912 446.034 970.192 445.538 969.264C445.042 968.32 444.794 967.216 444.794 965.952C444.794 964.688 445.05 963.576 445.562 962.616C446.09 961.656 446.826 960.912 447.77 960.384C448.73 959.84 449.834 959.568 451.082 959.568C451.946 959.568 452.778 959.704 453.578 959.976C454.394 960.248 455.042 960.624 455.522 961.104L454.682 963.216C454.17 962.8 453.626 962.488 453.05 962.28C452.474 962.056 451.906 961.944 451.346 961.944C450.258 961.944 449.41 962.288 448.802 962.976C448.194 963.648 447.89 964.624 447.89 965.904C447.89 967.184 448.186 968.16 448.778 968.832C449.386 969.504 450.242 969.84 451.346 969.84C451.906 969.84 452.474 969.728 453.05 969.504C453.626 969.28 454.17 968.96 454.682 968.544L455.522 970.656C455.01 971.136 454.346 971.512 453.53 971.784C452.714 972.056 451.858 972.192 450.962 972.192ZM464.872 959.568C467.768 959.568 469.216 961.232 469.216 964.56V972H466.216V964.704C466.216 963.744 466.032 963.048 465.664 962.616C465.296 962.168 464.728 961.944 463.96 961.944C463.048 961.944 462.312 962.24 461.752 962.832C461.192 963.408 460.912 964.176 460.912 965.136V972H457.936V954.336H460.912V961.632C461.328 960.976 461.88 960.472 462.568 960.12C463.256 959.752 464.024 959.568 464.872 959.568ZM483.405 966.096H475.053C475.117 967.392 475.437 968.352 476.013 968.976C476.605 969.584 477.477 969.888 478.629 969.888C479.957 969.888 481.189 969.456 482.325 968.592L483.189 970.656C482.613 971.12 481.901 971.496 481.053 971.784C480.221 972.056 479.373 972.192 478.509 972.192C476.525 972.192 474.965 971.632 473.829 970.512C472.693 969.392 472.125 967.856 472.125 965.904C472.125 964.672 472.373 963.576 472.869 962.616C473.365 961.656 474.061 960.912 474.957 960.384C475.853 959.84 476.869 959.568 478.005 959.568C479.669 959.568 480.981 960.112 481.941 961.2C482.917 962.272 483.405 963.752 483.405 965.64V966.096ZM478.077 961.728C477.277 961.728 476.621 961.968 476.109 962.448C475.613 962.912 475.293 963.592 475.149 964.488H480.789C480.693 963.576 480.413 962.888 479.949 962.424C479.501 961.96 478.877 961.728 478.077 961.728ZM497.937 954.336V972H494.985V970.056C494.617 970.728 494.089 971.256 493.401 971.64C492.713 972.008 491.929 972.192 491.049 972.192C490.009 972.192 489.081 971.928 488.265 971.4C487.449 970.872 486.809 970.128 486.345 969.168C485.897 968.192 485.673 967.08 485.673 965.832C485.673 964.584 485.897 963.488 486.345 962.544C486.793 961.6 487.425 960.872 488.241 960.36C489.057 959.832 489.993 959.568 491.049 959.568C491.913 959.568 492.681 959.752 493.353 960.12C494.041 960.472 494.569 960.976 494.937 961.632V954.336H497.937ZM491.841 969.84C492.833 969.84 493.601 969.496 494.145 968.808C494.705 968.12 494.985 967.144 494.985 965.88C494.985 964.616 494.713 963.64 494.169 962.952C493.625 962.264 492.857 961.92 491.865 961.92C490.857 961.92 490.073 962.264 489.513 962.952C488.969 963.624 488.697 964.584 488.697 965.832C488.697 967.096 488.969 968.08 489.513 968.784C490.073 969.488 490.849 969.84 491.841 969.84ZM501.821 962.448L504.029 959.736L500.621 958.8L501.293 956.784L504.557 958.032L504.389 954.528H506.501L506.333 958.008L509.621 956.784L510.269 958.8L506.885 959.712L509.093 962.448L507.365 963.696L505.445 960.768L503.525 963.696L501.821 962.448Z" fill="#F7F7F7"/>
<circle cx="379.945" cy="1012" r="5" fill="#E7E7E7"/>
<circle cx="379.945" cy="1012" r="5" fill="#E7E7E7"/>
<circle cx="379.945" cy="1012" r="5" fill="#E7E7E7"/>
<rect x="359.945" y="1006" width="40" height="11" rx="5.5" fill="#E7E7E7"/>
<path d="M202.681 791.136V807.888C201.017 808.688 199.065 809.312 196.825 809.76C194.617 810.208 192.345 810.432 190.009 810.432C186.393 810.432 183.257 809.728 180.601 808.32C177.945 806.912 175.897 804.896 174.457 802.272C173.049 799.648 172.345 796.512 172.345 792.864C172.345 789.312 173.049 786.224 174.457 783.6C175.897 780.976 177.913 778.96 180.505 777.552C183.129 776.112 186.185 775.392 189.673 775.392C192.137 775.392 194.425 775.728 196.537 776.4C198.681 777.072 200.441 778.016 201.817 779.232L199.417 784.608C197.817 783.456 196.265 782.624 194.761 782.112C193.257 781.6 191.625 781.344 189.865 781.344C183.273 781.344 179.977 785.184 179.977 792.864C179.977 800.704 183.417 804.624 190.297 804.624C192.185 804.624 194.073 804.384 195.961 803.904V796.368H189.241V791.136H202.681ZM230.879 798.432H214.847C214.975 800.704 215.567 802.368 216.623 803.424C217.679 804.448 219.247 804.96 221.327 804.96C222.575 804.96 223.823 804.752 225.071 804.336C226.319 803.92 227.471 803.312 228.527 802.512L230.447 807.408C229.295 808.336 227.855 809.072 226.127 809.616C224.431 810.128 222.719 810.384 220.991 810.384C216.895 810.384 213.679 809.264 211.343 807.024C209.007 804.752 207.839 801.664 207.839 797.76C207.839 795.296 208.335 793.104 209.327 791.184C210.351 789.232 211.775 787.728 213.599 786.672C215.423 785.584 217.487 785.04 219.791 785.04C223.215 785.04 225.919 786.16 227.903 788.4C229.887 790.608 230.879 793.6 230.879 797.376V798.432ZM219.983 790.128C218.607 790.128 217.487 790.528 216.623 791.328C215.791 792.128 215.247 793.296 214.991 794.832H224.639C224.255 791.696 222.703 790.128 219.983 790.128ZM244.481 791.088V800.544C244.481 801.888 244.833 802.88 245.537 803.52C246.241 804.128 247.153 804.432 248.273 804.432C248.977 804.432 249.777 804.32 250.673 804.096V809.712C249.521 810.16 248.129 810.384 246.497 810.384C243.489 810.384 241.185 809.536 239.585 807.84C238.017 806.144 237.233 803.76 237.233 800.688V791.088H232.625V785.664H237.233V779.952L244.481 777.6V785.664H250.673V791.088H244.481ZM269.172 775.824H292.74V781.632H276.468V789.696H291.732V795.552H276.468V804.192H292.74V810H269.172V775.824ZM322.21 785.664V810H315.058V806.4C314.322 807.648 313.282 808.624 311.938 809.328C310.594 810.032 309.074 810.384 307.378 810.384C305.266 810.384 303.394 809.872 301.762 808.848C300.162 807.824 298.898 806.368 297.97 804.48C297.074 802.56 296.626 800.352 296.626 797.856C296.626 795.36 297.074 793.136 297.97 791.184C298.898 789.232 300.178 787.728 301.81 786.672C303.442 785.584 305.298 785.04 307.378 785.04C309.074 785.04 310.594 785.408 311.938 786.144C313.282 786.88 314.322 787.872 315.058 789.12V785.664H322.21ZM309.49 804.864C311.282 804.864 312.658 804.256 313.618 803.04C314.578 801.824 315.058 800.064 315.058 797.76C315.058 795.456 314.578 793.696 313.618 792.48C312.658 791.232 311.282 790.608 309.49 790.608C307.698 790.608 306.306 791.248 305.314 792.528C304.322 793.808 303.826 795.584 303.826 797.856C303.826 800.128 304.306 801.872 305.266 803.088C306.258 804.272 307.666 804.864 309.49 804.864ZM342.621 785.088C343.645 785.088 344.509 785.248 345.213 785.568L345.165 792.192C343.981 791.648 342.797 791.376 341.613 791.376C339.693 791.376 338.221 791.904 337.197 792.96C336.205 793.984 335.709 795.424 335.709 797.28V810H328.461V792.624C328.461 790.032 328.333 787.712 328.077 785.664H334.893L335.373 789.84C335.981 788.304 336.925 787.136 338.205 786.336C339.517 785.504 340.989 785.088 342.621 785.088ZM348.548 774.672H355.796V810H348.548V774.672ZM386.12 785.664L374.888 811.296C373.512 814.4 371.768 816.672 369.656 818.112C367.576 819.584 365.016 820.528 361.976 820.944L360.296 815.376C362.536 814.896 364.216 814.288 365.336 813.552C366.488 812.816 367.384 811.744 368.024 810.336L368.744 808.752L358.712 785.664H366.296L372.536 801.456L378.968 785.664H386.12ZM426.139 802.416H410.155L406.891 810H399.355L415.051 775.824H421.099L436.795 810H429.403L426.139 802.416ZM423.691 796.704L418.171 783.888L412.651 796.704H423.691ZM451.153 810.384C447.185 810.384 444.065 809.264 441.793 807.024C439.553 804.784 438.433 801.728 438.433 797.856C438.433 795.328 438.977 793.104 440.065 791.184C441.153 789.232 442.673 787.728 444.625 786.672C446.609 785.584 448.897 785.04 451.489 785.04C453.249 785.04 454.961 785.312 456.625 785.856C458.289 786.4 459.617 787.136 460.609 788.064L458.689 793.104C457.729 792.336 456.673 791.744 455.521 791.328C454.369 790.88 453.249 790.656 452.161 790.656C450.177 790.656 448.625 791.264 447.505 792.48C446.417 793.664 445.873 795.408 445.873 797.712C445.873 800.048 446.417 801.824 447.505 803.04C448.593 804.224 450.145 804.816 452.161 804.816C453.249 804.816 454.369 804.608 455.521 804.192C456.673 803.744 457.729 803.136 458.689 802.368L460.609 807.408C459.553 808.336 458.177 809.072 456.481 809.616C454.785 810.128 453.009 810.384 451.153 810.384ZM486.295 798.432H470.263C470.391 800.704 470.983 802.368 472.039 803.424C473.095 804.448 474.663 804.96 476.743 804.96C477.991 804.96 479.239 804.752 480.487 804.336C481.735 803.92 482.887 803.312 483.943 802.512L485.863 807.408C484.711 808.336 483.271 809.072 481.543 809.616C479.847 810.128 478.135 810.384 476.407 810.384C472.311 810.384 469.095 809.264 466.759 807.024C464.423 804.752 463.255 801.664 463.255 797.76C463.255 795.296 463.751 793.104 464.743 791.184C465.767 789.232 467.191 787.728 469.015 786.672C470.839 785.584 472.903 785.04 475.207 785.04C478.631 785.04 481.335 786.16 483.319 788.4C485.303 790.608 486.295 793.6 486.295 797.376V798.432ZM475.399 790.128C474.023 790.128 472.903 790.528 472.039 791.328C471.207 792.128 470.663 793.296 470.407 794.832H480.055C479.671 791.696 478.119 790.128 475.399 790.128ZM500.557 810.384C495.949 810.384 492.317 809.392 489.661 807.408L491.581 802.368C492.861 803.296 494.285 804.016 495.853 804.528C497.421 805.008 499.021 805.248 500.653 805.248C501.901 805.248 502.861 805.056 503.533 804.672C504.205 804.288 504.541 803.728 504.541 802.992C504.541 802.384 504.301 801.904 503.821 801.552C503.341 801.2 502.493 800.896 501.277 800.64L497.293 799.728C494.957 799.216 493.229 798.4 492.109 797.28C491.021 796.16 490.477 794.672 490.477 792.816C490.477 791.312 490.909 789.968 491.773 788.784C492.669 787.6 493.901 786.688 495.469 786.048C497.037 785.376 498.845 785.04 500.893 785.04C502.621 785.04 504.317 785.312 505.981 785.856C507.645 786.368 509.133 787.104 510.445 788.064L508.429 792.912C507.181 792.048 505.901 791.392 504.589 790.944C503.309 790.496 502.061 790.272 500.845 790.272C499.661 790.272 498.733 790.48 498.061 790.896C497.389 791.312 497.053 791.888 497.053 792.624C497.053 793.168 497.245 793.616 497.629 793.968C498.045 794.288 498.765 794.56 499.789 794.784L503.869 795.696C506.365 796.272 508.173 797.136 509.293 798.288C510.413 799.44 510.973 800.976 510.973 802.896C510.973 805.2 510.045 807.024 508.189 808.368C506.333 809.712 503.789 810.384 500.557 810.384ZM525.098 810.384C520.49 810.384 516.858 809.392 514.202 807.408L516.122 802.368C517.402 803.296 518.826 804.016 520.394 804.528C521.962 805.008 523.562 805.248 525.194 805.248C526.442 805.248 527.402 805.056 528.074 804.672C528.746 804.288 529.082 803.728 529.082 802.992C529.082 802.384 528.842 801.904 528.362 801.552C527.882 801.2 527.034 800.896 525.818 800.64L521.834 799.728C519.498 799.216 517.77 798.4 516.65 797.28C515.562 796.16 515.018 794.672 515.018 792.816C515.018 791.312 515.45 789.968 516.314 788.784C517.21 787.6 518.442 786.688 520.01 786.048C521.578 785.376 523.386 785.04 525.434 785.04C527.162 785.04 528.858 785.312 530.522 785.856C532.186 786.368 533.674 787.104 534.986 788.064L532.97 792.912C531.722 792.048 530.442 791.392 529.13 790.944C527.85 790.496 526.602 790.272 525.386 790.272C524.202 790.272 523.274 790.48 522.602 790.896C521.93 791.312 521.594 791.888 521.594 792.624C521.594 793.168 521.786 793.616 522.17 793.968C522.586 794.288 523.306 794.56 524.33 794.784L528.41 795.696C530.906 796.272 532.714 797.136 533.834 798.288C534.954 799.44 535.514 800.976 535.514 802.896C535.514 805.2 534.586 807.024 532.73 808.368C530.874 809.712 528.33 810.384 525.098 810.384ZM562.166 798.432H546.134C546.262 800.704 546.854 802.368 547.91 803.424C548.966 804.448 550.534 804.96 552.614 804.96C553.862 804.96 555.11 804.752 556.358 804.336C557.606 803.92 558.758 803.312 559.814 802.512L561.734 807.408C560.582 808.336 559.142 809.072 557.414 809.616C555.718 810.128 554.006 810.384 552.278 810.384C548.182 810.384 544.966 809.264 542.63 807.024C540.294 804.752 539.126 801.664 539.126 797.76C539.126 795.296 539.622 793.104 540.614 791.184C541.638 789.232 543.062 787.728 544.886 786.672C546.71 785.584 548.774 785.04 551.078 785.04C554.502 785.04 557.206 786.16 559.19 788.4C561.174 790.608 562.166 793.6 562.166 797.376V798.432ZM551.27 790.128C549.894 790.128 548.774 790.528 547.91 791.328C547.078 792.128 546.534 793.296 546.278 794.832H555.926C555.542 791.696 553.99 790.128 551.27 790.128ZM576.429 810.384C571.821 810.384 568.189 809.392 565.533 807.408L567.453 802.368C568.733 803.296 570.157 804.016 571.725 804.528C573.293 805.008 574.893 805.248 576.525 805.248C577.773 805.248 578.733 805.056 579.405 804.672C580.077 804.288 580.413 803.728 580.413 802.992C580.413 802.384 580.173 801.904 579.693 801.552C579.213 801.2 578.365 800.896 577.149 800.64L573.165 799.728C570.829 799.216 569.101 798.4 567.981 797.28C566.893 796.16 566.349 794.672 566.349 792.816C566.349 791.312 566.781 789.968 567.645 788.784C568.541 787.6 569.773 786.688 571.341 786.048C572.909 785.376 574.717 785.04 576.765 785.04C578.493 785.04 580.189 785.312 581.853 785.856C583.517 786.368 585.005 787.104 586.317 788.064L584.301 792.912C583.053 792.048 581.773 791.392 580.461 790.944C579.181 790.496 577.933 790.272 576.717 790.272C575.533 790.272 574.605 790.48 573.933 790.896C573.261 791.312 572.925 791.888 572.925 792.624C572.925 793.168 573.117 793.616 573.501 793.968C573.917 794.288 574.637 794.56 575.661 794.784L579.741 795.696C582.237 796.272 584.045 797.136 585.165 798.288C586.285 799.44 586.845 800.976 586.845 802.896C586.845 805.2 585.917 807.024 584.061 808.368C582.205 809.712 579.661 810.384 576.429 810.384Z" fill="#F7F7F7"/>
<circle cx="380.945" cy="434" r="232" fill="white"/>
<path d="M595.528 454.625C594.448 435.472 562.679 434.674 562.679 434.674C562.679 434.674 535.22 461.997 529.022 461.475C522.824 460.954 547.935 433.531 547.935 433.531C536.473 429.926 503.624 437.971 503.624 437.971C503.624 437.971 497.697 475.364 491.817 473.329C485.937 471.3 498.756 440.491 498.756 440.491C486.715 441.498 473.353 452.475 473.353 452.475C455.598 471.2 480.558 493.035 480.558 493.035C480.558 493.035 478.226 505.948 467.186 518.997C467.186 518.997 464.823 521.339 462.031 525.571L465.12 526.223C465.548 525.451 465.991 524.704 466.466 524.005C466.466 524 466.471 523.995 466.476 523.995C466.482 523.985 466.492 523.974 466.497 523.964C466.81 523.531 467.259 522.915 467.812 522.169C467.812 522.169 467.812 522.169 467.812 522.164C467.812 522.164 467.812 522.164 467.817 522.158C469.148 520.51 470.076 519.284 470.687 518.381C470.687 518.376 470.692 518.376 470.692 518.371C474.741 513.174 480.407 506.48 483.459 505.468C483.459 505.468 483.219 504.915 483.099 503.913C483.214 504.409 483.334 504.925 483.459 505.468C486.349 517.906 512.374 525.378 527.734 525.466C543.093 525.555 537.553 520.051 531.052 511.635C524.551 503.219 507.563 501.487 503.217 497.809C498.866 494.131 506.598 493.004 516.255 495.832C525.907 498.659 528.746 509.512 544.278 514.369C559.815 519.226 578.191 491.96 578.191 491.96C566.525 493.046 548.175 482.861 548.217 478.927C548.259 474.993 577.246 481.51 582.015 481.333C586.768 481.166 596.608 473.778 595.528 454.625Z" fill="#DFEBFD"/>
<path opacity="0.5" d="M539.105 354.48C539.105 354.48 558.232 285.845 600.493 249.642C606.107 244.831 614.679 249.767 613.401 257.05C613.38 257.17 613.359 257.296 613.333 257.421C610.943 269.817 562.719 316.247 539.105 354.48Z" fill="#AFCDFB"/>
<path opacity="0.5" d="M528.812 407.77C528.812 407.77 577.986 325.878 644.93 296.625C649.01 294.84 653.915 296.473 655.85 300.486C657.108 303.099 657.269 306.903 654.561 312.386C647.33 327.011 571.339 368.27 528.812 407.77Z" fill="#AFCDFB"/>
<path d="M167.322 284.682C180.068 245.38 246.673 261.126 246.673 261.126C246.673 261.126 288.892 333.073 302.087 335.384C315.281 337.696 278.003 266.823 278.003 266.823C303.85 265.597 367.862 300.35 367.862 300.35C367.862 300.35 359.718 381.469 373.079 380.462C386.436 379.455 376.627 308.264 376.627 308.264C401.154 316.957 422.963 347.139 422.963 347.139C449.686 395.869 385.737 427.664 385.737 427.664C385.737 427.664 383.519 455.838 399.359 489.057C399.359 489.057 403.001 495.224 406.497 505.58L399.709 505.246C399.244 503.399 398.717 501.61 398.128 499.888C398.128 499.872 398.123 499.867 398.117 499.857C398.107 499.831 398.102 499.81 398.091 499.784C397.679 498.714 397.084 497.185 396.338 495.328C396.338 495.328 396.338 495.323 396.333 495.323C396.333 495.318 396.328 495.318 396.328 495.312C394.455 491.149 393.198 488.086 392.42 485.874C392.415 485.869 392.415 485.858 392.415 485.853C386.827 472.805 378.693 455.765 372.892 451.987C372.892 451.987 373.695 450.97 374.499 448.946C373.987 449.916 373.455 450.928 372.892 451.987C360.052 476.311 301.758 477.61 269.718 469.382C237.678 461.154 252.235 452.718 270.391 438.761C288.548 424.8 324.866 430.502 335.942 425.222C347.013 419.942 331.533 413.358 309.876 413.958C288.219 414.558 276.37 435.605 241.357 437.212C206.338 438.819 183.006 371.958 183.006 371.958C206.703 380.608 250.508 369.449 252.574 361.231C254.64 353.014 190.701 350.708 180.866 347.729C171.026 344.755 154.576 323.984 167.322 284.682Z" fill="#DFEBFD"/>
<path d="M214.56 553.829C228.615 527.194 274.486 546.817 274.486 546.817C274.486 546.817 295.825 603.754 305.013 607.062C314.201 610.37 296.274 554.815 296.274 554.815C314.989 557.163 356.623 590.105 356.623 590.105C356.623 590.105 340.653 647.345 350.373 648.289C360.093 649.234 361.929 596.883 361.929 596.883C378.458 606.185 390.354 630.587 390.354 630.587C403.465 668.914 353.571 683.773 353.571 683.773C353.571 683.773 348.463 703.729 355.695 729.56C355.695 729.56 357.536 734.444 358.757 742.317L353.926 741.232C353.822 739.849 353.67 738.498 353.456 737.183C353.456 737.173 353.456 737.167 353.451 737.157C353.446 737.136 353.446 737.12 353.441 737.099C353.279 736.28 353.039 735.106 352.736 733.682V733.677C352.736 733.672 352.731 733.672 352.736 733.672C351.912 730.447 351.39 728.089 351.109 726.409C351.109 726.404 351.109 726.399 351.109 726.393C348.724 716.324 345.01 703.072 341.316 699.639C341.316 699.639 342.02 699.007 342.85 697.656C342.359 698.287 341.853 698.95 341.316 699.639C329.06 715.505 287.034 709.16 265.053 699.253C243.073 689.345 254.577 685.103 269.358 677.345C284.139 669.587 309.511 678.211 318.119 675.801C326.728 673.39 316.434 666.733 300.803 664.458C285.177 662.189 274.038 675.822 248.692 672.608C223.346 669.394 214.93 618.462 214.93 618.462C230.869 627.634 263.723 625.083 266.233 619.443C268.742 613.797 223.111 604.161 216.422 600.796C209.723 597.431 200.504 580.464 214.56 553.829Z" fill="#CDE0FB"/>
<path d="M417.764 523.307C417.445 523.76 416.087 525.926 417.829 528.367C417.941 528.519 418.014 528.646 418.061 528.751C438.928 541.287 501.51 592.004 501.51 627.75V701.804H312.629V627.721C312.629 591.746 376.066 540.226 396.473 528.367C396.477 528.367 396.477 528.367 396.477 528.367C397.132 527.451 397.346 526.574 397.346 525.81C397.346 524.285 396.477 523.216 396.477 523.216C376.019 511.093 312.629 459.953 312.629 423.978V349.932H501.51V424.014C501.51 459.927 438.279 511.343 417.764 523.307Z" fill="#B0D4FF"/>
<path d="M512.345 720.881H300.293V711.753C300.293 706.258 304.745 701.807 310.239 701.807H502.808C508.075 701.807 512.345 706.077 512.345 711.344V720.881Z" fill="#A0453F"/>
<path d="M366.696 632.307C365.729 648.881 368.88 684.635 368.594 701.808H312.629V627.725C312.629 591.75 376.066 540.229 396.473 528.371C396.477 528.371 396.477 528.371 396.477 528.371C397.132 527.454 397.346 526.578 397.346 525.813C397.346 524.289 396.477 523.22 396.477 523.22C376.019 511.097 312.629 459.956 312.629 423.982V349.932H350.071L376.798 357.245V415.807C376.798 415.807 374.15 432.675 380.779 449.242C387.407 465.81 401.635 518.964 401.414 525.868C401.193 532.771 368.355 603.895 366.696 632.307Z" fill="#A4C8FC"/>
<path d="M477.037 399.16C465.587 399.334 445.901 401.398 414.052 409.432C392.247 414.93 354.653 410.79 334.768 407.94C327.792 406.94 321.551 412.348 321.551 419.396V427.93C321.551 451.448 384.829 502.393 401.563 515.451C404.098 517.429 405.58 520.464 405.58 523.68V654.46C405.58 658.926 403.378 663.084 399.719 665.645C386.56 674.856 364.386 701.808 364.386 701.808H448.252C448.252 701.808 425.762 675.797 413.139 666.141C410.256 663.939 408.557 660.527 408.557 656.901V523.644C408.557 520.446 410.01 517.421 412.509 515.422C428.913 502.285 490.808 451.151 490.808 427.651V412.721C490.808 405.147 484.61 399.044 477.037 399.16Z" fill="#6187A5"/>
<path d="M502.453 357.24H309.83C304.563 357.24 300.293 352.97 300.293 347.703V338.166H512.345V347.348C512.345 352.814 507.919 357.24 502.453 357.24Z" fill="#A0453F"/>
<path d="M98.3066 478.201L169.873 488.412L122.38 456.043L119.964 466.42L102.559 469.572L98.3066 478.201Z" fill="#9EC3F6"/>
<path d="M169.873 488.413L110.317 457.709L51.9453 454.771L169.873 488.413Z" fill="#CDE0FB"/>
<path d="M122.379 456.045L169.873 488.413L133.106 437.82L122.379 456.045Z" fill="#CDE0FB"/>
<path d="M406.587 322.707C400.217 333.794 392.203 338.077 392.203 338.077H358.869C358.869 338.077 411.45 314.249 406.587 322.707Z" fill="#233862"/>
<path d="M380.984 408.494C380.113 409.49 380.003 410.602 380.436 411.791C380.436 411.796 380.441 411.802 380.447 411.807C381.24 414.003 383.869 416.456 386.921 418.908C387.313 419.221 387.657 419.508 387.96 419.774C388.038 419.842 388.116 419.915 388.194 419.982C388.257 420.035 388.314 420.092 388.372 420.144C391.215 422.769 390.146 423.369 395.259 428.69C401.086 434.753 405.099 434.862 406.241 434.309C407.206 433.84 405.245 430.621 403.069 427.005C402.965 426.833 402.86 426.655 402.751 426.478C402.464 425.998 402.172 425.508 401.885 425.028C399.339 420.676 399.991 418.636 400.596 412.162C401.086 406.897 408.782 382.767 408.782 382.767L397.612 380.842C397.612 380.842 394.247 400.057 390.542 403.021C388.56 404.596 386.342 404.617 384.438 405.786C384.302 405.87 384.172 405.953 384.041 406.036C382.956 406.756 381.855 407.497 380.984 408.494Z" fill="#FFB27D"/>
<path d="M380.984 408.497C380.113 409.493 380.003 410.605 380.436 411.794C380.436 411.799 380.441 411.805 380.447 411.81C381.422 414.006 383.979 416.448 386.932 418.89C387.318 419.208 387.657 419.506 387.96 419.777C388.038 419.845 388.116 419.918 388.194 419.986C388.257 420.038 388.314 420.095 388.372 420.147C391.215 422.772 390.146 423.372 395.259 428.693C401.086 434.756 405.099 434.865 406.241 434.312C407.206 433.843 405.245 430.624 403.069 427.008C401.937 426.591 396.662 424.452 392.681 419.354C389.17 414.878 386.833 409.123 384.443 405.789C384.307 405.873 384.177 405.956 384.047 406.039C382.956 406.759 381.855 407.5 380.984 408.497Z" fill="#233862"/>
<path d="M471.047 401.52C471.736 404.968 476.651 404.394 482.145 403.048C487.633 401.707 486.329 403.304 494.145 402.438C501.96 401.572 504.329 398.66 504.564 397.497C504.778 396.464 500.917 396.104 496.774 395.624C496.252 395.567 495.731 395.499 495.209 395.436C490.534 394.852 487.106 391.831 482.859 389.353C478.837 387.005 472.832 377.441 472.832 377.441L462.115 378.292C462.115 378.292 467.74 386.833 469.915 390.547C471.193 392.734 471.126 395.619 470.969 397.852C470.886 399.067 470.807 400.304 471.047 401.52Z" fill="#FFB27D"/>
<path d="M482.144 403.055C487.633 401.714 486.328 403.311 494.144 402.445C501.959 401.579 504.328 398.667 504.563 397.504C504.777 396.471 500.916 396.111 496.773 395.631L496.737 395.709C496.737 395.709 492.052 399.033 485.546 399.189C480.245 399.32 474.631 397.801 470.968 397.859C470.885 399.069 470.807 400.311 471.052 401.527C471.74 404.97 476.655 404.396 482.144 403.055Z" fill="#233862"/>
<path d="M429.982 332.994L419.964 359.952L406.884 395.153C406.884 395.153 403.337 395.498 399.935 394.517C396.804 393.614 393.215 391.246 393.215 391.246C393.215 391.246 396.846 353.451 403.623 331.757C405.361 326.19 407.307 321.682 409.451 319.147C419.954 306.735 429.982 332.994 429.982 332.994Z" fill="#233862"/>
<path d="M419.792 290.181C413.229 288.063 394.509 290.781 375.706 294.465L371.767 287.969L331.149 284.797C331.149 284.797 317.746 314.52 325.082 333.459C326.162 336.245 328.828 337.419 332.485 337.477L332.49 337.482C332.49 337.482 356.725 338.071 364.577 338.071C384.779 338.071 407.328 324.188 410.245 323.604C415.019 322.649 416.928 332.197 421.702 342.224C426.476 352.252 466.582 386.629 466.582 386.629C466.582 386.629 472.743 386.692 475.295 385.737C478.034 384.709 479.036 383.374 479.036 383.374C479.036 383.374 434.594 294.955 419.792 290.181Z" fill="#2B478B"/>
<path d="M367.457 168.7C364.41 166.89 361.446 166.624 359.646 166.681C358.347 166.723 357.053 166.597 355.764 166.425C340.373 164.359 331.112 186.721 330.565 193.498C329.563 205.989 322.952 207.893 313.65 215.714C295.003 231.397 300.471 249.627 310.666 256.399C316.786 260.463 327.57 256.399 327.57 256.399C327.721 256.503 357.064 239.995 371.526 232.034C393.215 228.955 376.164 173.886 367.457 168.7Z" fill="#233862"/>
<path d="M359.406 225.257C359.468 225.299 352.289 227.751 347.489 225.623C342.971 223.624 339.553 216.195 339.616 216.19C341.672 216.096 343.926 214.301 345.663 202.51L346.54 202.823L361.247 208.113C361.247 208.113 360.183 212.835 359.494 217.327C358.915 221.11 358.602 224.725 359.406 225.257Z" fill="#FFB27D"/>
<path d="M361.253 208.122C361.253 208.122 360.188 212.844 359.5 217.336C351.053 215.817 347.734 207.397 346.545 202.826L361.253 208.122Z" fill="#ED975D"/>
<path d="M363.444 212.806C363.444 212.806 343.316 210.104 345.194 197.598C347.067 185.092 345.737 176.316 358.665 177.516C371.594 178.711 373.368 183.86 373.759 188.185C374.145 192.505 368.724 213.187 363.444 212.806Z" fill="#FFB27D"/>
<path d="M373.023 181.326C373.023 181.326 360.142 192.429 351.376 193.326C342.611 194.224 339.293 191.406 339.293 191.406C339.293 191.406 344.458 187.118 347.568 180.194C348.486 178.154 350.422 176.756 352.649 176.563C358.905 176.026 370.769 175.775 373.023 181.326Z" fill="#233862"/>
<path d="M364.967 180.329C364.967 180.329 369.276 184.497 370.633 187.586C371.942 190.57 372.334 197.702 371.29 200.535C371.29 200.535 378.005 187.476 374.202 181.132C370.179 174.412 364.967 180.329 364.967 180.329Z" fill="#233862"/>
<path d="M376.358 254.907C375.748 295.65 376.191 287.135 371.736 291.001C370.661 291.93 367.645 292.488 363.669 292.749C351.179 293.578 329.219 291.517 328.384 289.211C325.504 281.224 327.539 278.74 325.134 266.511C324.884 265.211 324.576 263.803 324.211 262.269C322.207 253.869 320.256 251.01 327.367 237.518C333.816 225.293 340.515 215.375 341.12 215.73C358.134 225.831 359.506 217.342 359.506 217.342C359.506 217.342 376.655 235.034 376.358 254.907Z" fill="white"/>
<path d="M419.964 359.952L406.884 395.154C406.884 395.154 403.337 395.498 399.935 394.518C396.804 393.615 393.215 391.246 393.215 391.246C393.215 391.246 396.846 353.452 403.623 331.758L419.964 359.952Z" fill="#2B478B"/>
<path d="M359.494 217.336C359.494 217.336 377.004 220.305 379.059 227.844C381.115 235.383 393.214 279.694 393.214 279.694C393.214 279.694 384.313 281.29 380.202 277.179C376.091 273.068 365.896 239.035 365.896 239.035L359.494 217.336Z" fill="white"/>
<path d="M363.664 292.746C351.174 293.576 329.214 291.515 328.379 289.209C325.499 281.221 327.534 278.737 325.129 266.508L331.155 249.541C331.155 249.541 330.158 268.433 335.731 273.405C341.297 278.372 358.546 283 361.254 287.148C362.558 289.146 363.414 291.144 363.664 292.746Z" fill="#EBF3FF"/>
<path d="M349.352 284.796C349.352 284.796 361.675 282.051 363.663 283.147C365.651 284.243 370.513 288.223 371.118 289.611C371.729 290.999 366.689 288.557 365.051 288.119C363.991 287.832 361.195 288.803 359.818 289.267C354 291.208 350.437 290.206 350.437 290.206L349.352 284.796Z" fill="#FFB27D"/>
<path d="M341.098 215.721C341.098 215.721 324.549 216.738 318.82 224.731C310.754 235.98 294.758 283.912 303.925 290.308C314.25 297.508 350.917 292.192 350.917 292.192C350.917 292.192 352.138 286.489 350.437 283.729C348.742 280.969 321.152 276.513 319.879 275.24C318.606 273.967 335.797 250.411 335.797 246.592C335.797 242.773 341.098 215.721 341.098 215.721Z" fill="white"/>
<path d="M364.264 286.576C364.264 286.576 366.846 289.905 367.691 290.307C368.537 290.703 369.085 290.604 369.085 290.604L367.347 287.474L364.264 286.576Z" fill="#FFB27D"/>
<path d="M363.664 283.148L371.172 286.795C371.172 286.795 370.854 287.317 369.93 287.275C369.007 287.234 366.674 286.378 366.674 286.378L363.664 283.148Z" fill="#FFB27D"/>
<path d="M367.689 295.41H427.079L444.943 250.984H385.648L367.689 295.41Z" fill="#D0D0D0"/>
<path d="M427.779 293.678H349.352V295.41H427.08L427.779 293.678Z" fill="#DB5461"/>
<path d="M412.091 273.199C412.54 271.639 411.637 270.371 410.072 270.371C408.512 270.371 406.879 271.639 406.435 273.199C405.987 274.759 406.889 276.027 408.455 276.027C410.015 276.027 411.642 274.759 412.091 273.199Z" fill="white"/>
<path d="M717.817 492.671L730.568 533.643C730.756 534.248 730.829 534.864 730.803 535.459C730.709 537.629 729.269 539.612 727.078 540.29L655.918 562.438C653.711 563.127 651.4 562.297 650.096 560.544C649.741 560.074 649.464 559.537 649.277 558.942L636.531 517.986C635.659 515.184 637.219 512.21 640.016 511.339L711.17 489.191C713.967 488.325 716.935 489.875 717.817 492.671Z" fill="#CDE0FB"/>
<path d="M730.803 535.46C730.709 537.63 729.269 539.613 727.078 540.291L655.918 562.439C653.711 563.127 651.4 562.298 650.096 560.545L685.814 526.465L730.803 535.46Z" fill="#BED7FB"/>
<path d="M717.818 492.673L686.67 533.233L637.189 520.085L636.536 517.988C635.665 515.186 637.225 512.212 640.022 511.341L711.176 489.193C713.967 488.327 716.936 489.877 717.818 492.673Z" fill="#DFEBFD"/>
<path d="M549.782 174.982L540.85 209.208C540.72 209.714 540.501 210.173 540.224 210.58C539.212 212.062 537.344 212.818 535.513 212.338L476.072 196.827C474.23 196.347 472.972 194.756 472.821 192.966C472.779 192.481 472.816 191.985 472.946 191.49L481.873 157.279C482.484 154.937 484.873 153.539 487.211 154.149L546.652 169.66C548.984 170.265 550.382 172.645 549.782 174.982Z" fill="#CDE0FB"/>
<path d="M540.223 210.579C539.211 212.061 537.343 212.818 535.512 212.338L476.071 196.826C474.229 196.346 472.972 194.755 472.82 192.966L512.665 184.686L540.223 210.579Z" fill="#BED7FB"/>
<path d="M549.782 174.981L510.308 189.788L481.414 159.027L481.873 157.274C482.484 154.931 484.873 153.533 487.211 154.143L546.652 169.654C548.984 170.265 550.382 172.644 549.782 174.981Z" fill="#DFEBFD"/>
<defs>
<linearGradient id="paint0_linear_2012_609" x1="141.245" y1="250.612" x2="662.794" y2="985.267" gradientUnits="userSpaceOnUse">
<stop stop-color="#B06AB3"/>
<stop offset="1" stop-color="#4A68DB"/>
</linearGradient>
</defs>
</svg>
