<svg width="781" height="1080" viewBox="0 0 781 1080" fill="none" xmlns="http://www.w3.org/2000/svg">
<rect x="0.0546875" width="780" height="1080" fill="url(#paint0_linear_2012_767)"/>
<path d="M178.672 630.955L176.8 640.507H181.312V645.019H175.888L174.304 653.035H169.456L171.04 645.019H165.808L164.224 653.035H159.376L160.96 645.019H158.08V640.507H161.872L163.744 630.955H159.136V626.491H164.656L166.144 618.859H170.992L169.504 626.491H174.736L176.224 618.859H181.072L179.584 626.491H182.416V630.955H178.672ZM173.824 630.955H168.592L166.72 640.507H171.952L173.824 630.955ZM210.533 635.371C212.517 635.947 214.053 636.955 215.141 638.395C216.229 639.835 216.773 641.595 216.773 643.675C216.773 646.555 215.701 648.843 213.557 650.539C211.413 652.203 208.501 653.035 204.821 653.035H188.597V618.859H204.341C207.893 618.859 210.693 619.659 212.741 621.259C214.821 622.827 215.861 624.987 215.861 627.739C215.861 629.531 215.381 631.099 214.421 632.443C213.493 633.787 212.197 634.763 210.533 635.371ZM195.893 632.779H203.093C205.013 632.779 206.437 632.459 207.365 631.819C208.325 631.147 208.805 630.123 208.805 628.747C208.805 627.339 208.325 626.299 207.365 625.627C206.437 624.955 205.013 624.619 203.093 624.619H195.893V632.779ZM203.957 647.275C205.973 647.275 207.429 646.939 208.325 646.267C209.253 645.563 209.717 644.459 209.717 642.955C209.717 641.419 209.253 640.299 208.325 639.595C207.429 638.891 205.973 638.539 203.957 638.539H195.893V647.275H203.957ZM243.779 641.467H227.747C227.875 643.739 228.467 645.403 229.523 646.459C230.579 647.483 232.147 647.995 234.227 647.995C235.475 647.995 236.723 647.787 237.971 647.371C239.219 646.955 240.371 646.347 241.427 645.547L243.347 650.443C242.195 651.371 240.755 652.107 239.027 652.651C237.331 653.163 235.619 653.419 233.891 653.419C229.795 653.419 226.579 652.299 224.243 650.059C221.907 647.787 220.739 644.699 220.739 640.795C220.739 638.331 221.235 636.139 222.227 634.219C223.251 632.267 224.675 630.763 226.499 629.707C228.323 628.619 230.387 628.075 232.691 628.075C236.115 628.075 238.819 629.195 240.803 631.435C242.787 633.643 243.779 636.635 243.779 640.411V641.467ZM232.883 633.163C231.507 633.163 230.387 633.563 229.523 634.363C228.691 635.163 228.147 636.331 227.891 637.867H237.539C237.155 634.731 235.603 633.163 232.883 633.163ZM272.058 645.451H256.074L252.81 653.035H245.274L260.97 618.859H267.018L282.714 653.035H275.322L272.058 645.451ZM269.61 639.739L264.09 626.923L258.57 639.739H269.61ZM301.126 653.467C297.67 653.467 294.646 652.747 292.054 651.307C289.494 649.835 287.526 647.787 286.15 645.163C284.774 642.507 284.086 639.419 284.086 635.899C284.086 632.411 284.774 629.355 286.15 626.731C287.526 624.075 289.494 622.027 292.054 620.587C294.646 619.147 297.67 618.427 301.126 618.427C303.398 618.427 305.558 618.779 307.606 619.483C309.686 620.155 311.382 621.115 312.694 622.363L310.342 627.739C308.806 626.587 307.302 625.755 305.83 625.243C304.39 624.699 302.87 624.427 301.27 624.427C298.198 624.427 295.846 625.403 294.214 627.355C292.582 629.307 291.766 632.155 291.766 635.899C291.766 639.675 292.582 642.555 294.214 644.539C295.846 646.491 298.198 647.467 301.27 647.467C302.87 647.467 304.39 647.211 305.83 646.699C307.302 646.155 308.806 645.307 310.342 644.155L312.694 649.531C311.382 650.779 309.686 651.755 307.606 652.459C305.558 653.131 303.398 653.467 301.126 653.467ZM332.897 628.075C338.657 628.075 341.537 631.483 341.537 638.299V653.035H334.289V638.635C334.289 636.939 333.969 635.707 333.329 634.939C332.721 634.139 331.745 633.739 330.401 633.739C328.801 633.739 327.521 634.251 326.561 635.275C325.601 636.299 325.121 637.675 325.121 639.403V653.035H317.873V617.707H325.121V632.011C325.985 630.731 327.089 629.755 328.433 629.083C329.777 628.411 331.265 628.075 332.897 628.075ZM372.095 628.699V653.035H364.943V649.435C364.207 650.683 363.167 651.659 361.823 652.363C360.479 653.067 358.959 653.419 357.263 653.419C355.151 653.419 353.279 652.907 351.647 651.883C350.047 650.859 348.783 649.403 347.855 647.515C346.959 645.595 346.511 643.387 346.511 640.891C346.511 638.395 346.959 636.171 347.855 634.219C348.783 632.267 350.063 630.763 351.695 629.707C353.327 628.619 355.183 628.075 357.263 628.075C358.959 628.075 360.479 628.443 361.823 629.179C363.167 629.915 364.207 630.907 364.943 632.155V628.699H372.095ZM359.375 647.899C361.167 647.899 362.543 647.291 363.503 646.075C364.463 644.859 364.943 643.099 364.943 640.795C364.943 638.491 364.463 636.731 363.503 635.515C362.543 634.267 361.167 633.643 359.375 633.643C357.583 633.643 356.191 634.283 355.199 635.563C354.207 636.843 353.711 638.619 353.711 640.891C353.711 643.163 354.191 644.907 355.151 646.123C356.143 647.307 357.551 647.899 359.375 647.899ZM393.369 628.075C399.129 628.075 402.009 631.483 402.009 638.299V653.035H394.761V638.635C394.761 636.939 394.441 635.707 393.801 634.939C393.193 634.139 392.217 633.739 390.873 633.739C389.273 633.739 387.993 634.251 387.033 635.275C386.073 636.299 385.593 637.675 385.593 639.403V653.035H378.345V635.659C378.345 633.067 378.217 630.747 377.961 628.699H384.777L385.257 632.539C386.121 631.099 387.241 629.995 388.617 629.227C390.025 628.459 391.609 628.075 393.369 628.075ZM432.807 628.699V651.931C432.807 655.803 431.687 658.747 429.447 660.763C427.207 662.779 423.943 663.787 419.655 663.787C415.783 663.787 412.423 663.035 409.575 661.531L410.679 656.155C413.623 657.627 416.535 658.363 419.415 658.363C421.495 658.363 423.047 657.867 424.071 656.875C425.095 655.915 425.607 654.443 425.607 652.459V648.235C424.839 649.419 423.767 650.411 422.391 651.211C421.015 651.979 419.495 652.363 417.831 652.363C415.719 652.363 413.847 651.867 412.215 650.875C410.583 649.851 409.303 648.427 408.375 646.603C407.447 644.747 406.983 642.619 406.983 640.219C406.983 637.819 407.447 635.707 408.375 633.883C409.303 632.027 410.583 630.603 412.215 629.611C413.847 628.587 415.719 628.075 417.831 628.075C419.527 628.075 421.063 628.443 422.439 629.179C423.815 629.915 424.871 630.907 425.607 632.155V628.699H432.807ZM419.943 646.843C421.703 646.843 423.079 646.267 424.071 645.115C425.095 643.931 425.607 642.299 425.607 640.219C425.607 638.171 425.111 636.571 424.119 635.419C423.127 634.235 421.735 633.643 419.943 633.643C418.151 633.643 416.743 634.235 415.719 635.419C414.695 636.571 414.183 638.171 414.183 640.219C414.183 642.267 414.695 643.883 415.719 645.067C416.743 646.251 418.151 646.843 419.943 646.843ZM468.765 628.075C471.549 628.075 473.613 628.923 474.957 630.619C476.333 632.283 477.021 634.843 477.021 638.299V653.035H469.773V638.539C469.773 636.843 469.501 635.627 468.957 634.891C468.413 634.123 467.517 633.739 466.269 633.739C464.797 633.739 463.661 634.251 462.861 635.275C462.061 636.299 461.661 637.739 461.661 639.595V653.035H454.413V638.539C454.413 636.875 454.125 635.659 453.549 634.891C453.005 634.123 452.125 633.739 450.909 633.739C449.437 633.739 448.285 634.251 447.453 635.275C446.653 636.299 446.253 637.739 446.253 639.595V653.035H439.005V635.659C439.005 633.067 438.877 630.747 438.621 628.699H445.437L445.869 632.347C446.605 630.971 447.629 629.915 448.941 629.179C450.285 628.443 451.821 628.075 453.549 628.075C457.165 628.075 459.565 629.579 460.749 632.587C461.549 631.211 462.653 630.123 464.061 629.323C465.501 628.491 467.069 628.075 468.765 628.075ZM507.523 628.699V653.035H500.371V649.435C499.635 650.683 498.595 651.659 497.251 652.363C495.907 653.067 494.387 653.419 492.691 653.419C490.579 653.419 488.707 652.907 487.075 651.883C485.475 650.859 484.211 649.403 483.283 647.515C482.387 645.595 481.939 643.387 481.939 640.891C481.939 638.395 482.387 636.171 483.283 634.219C484.211 632.267 485.491 630.763 487.123 629.707C488.755 628.619 490.611 628.075 492.691 628.075C494.387 628.075 495.907 628.443 497.251 629.179C498.595 629.915 499.635 630.907 500.371 632.155V628.699H507.523ZM494.803 647.899C496.595 647.899 497.971 647.291 498.931 646.075C499.891 644.859 500.371 643.099 500.371 640.795C500.371 638.491 499.891 636.731 498.931 635.515C497.971 634.267 496.595 633.643 494.803 633.643C493.011 633.643 491.619 634.283 490.627 635.563C489.635 636.843 489.139 638.619 489.139 640.891C489.139 643.163 489.619 644.907 490.579 646.123C491.571 647.307 492.979 647.899 494.803 647.899ZM530.573 653.035L521.021 642.139V653.035H513.773V617.707H521.021V639.163L530.141 628.747H538.829L528.509 640.411L539.453 653.035H530.573ZM563.295 641.467H547.263C547.391 643.739 547.983 645.403 549.039 646.459C550.095 647.483 551.663 647.995 553.743 647.995C554.991 647.995 556.239 647.787 557.487 647.371C558.735 646.955 559.887 646.347 560.943 645.547L562.863 650.443C561.711 651.371 560.271 652.107 558.543 652.651C556.847 653.163 555.135 653.419 553.407 653.419C549.311 653.419 546.095 652.299 543.759 650.059C541.423 647.787 540.255 644.699 540.255 640.795C540.255 638.331 540.751 636.139 541.743 634.219C542.767 632.267 544.191 630.763 546.015 629.707C547.839 628.619 549.903 628.075 552.207 628.075C555.631 628.075 558.335 629.195 560.319 631.435C562.303 633.643 563.295 636.635 563.295 640.411V641.467ZM552.399 633.163C551.023 633.163 549.903 633.563 549.039 634.363C548.207 635.163 547.663 636.331 547.407 637.867H557.055C556.671 634.731 555.119 633.163 552.399 633.163ZM582.405 628.123C583.429 628.123 584.293 628.283 584.997 628.603L584.949 635.227C583.765 634.683 582.581 634.411 581.397 634.411C579.477 634.411 578.005 634.939 576.981 635.995C575.989 637.019 575.493 638.459 575.493 640.315V653.035H568.245V635.659C568.245 633.067 568.117 630.747 567.861 628.699H574.677L575.157 632.875C575.765 631.339 576.709 630.171 577.989 629.371C579.301 628.539 580.773 628.123 582.405 628.123Z" fill="#F7F7F7"/>
<path d="M79.0318 849.123V856.035H77.0638V849.099L70.3438 838.947H72.6478L78.0718 847.347L83.4958 838.947H85.7518L79.0318 849.123ZM90.7663 856.203C89.6303 856.203 88.6303 855.947 87.7663 855.435C86.9023 854.923 86.2303 854.195 85.7503 853.251C85.2863 852.307 85.0543 851.203 85.0543 849.939C85.0543 848.675 85.2863 847.571 85.7503 846.627C86.2303 845.683 86.9023 844.955 87.7663 844.443C88.6303 843.931 89.6303 843.675 90.7663 843.675C91.9023 843.675 92.9023 843.931 93.7663 844.443C94.6304 844.955 95.2944 845.683 95.7583 846.627C96.2384 847.571 96.4784 848.675 96.4784 849.939C96.4784 851.203 96.2384 852.307 95.7583 853.251C95.2944 854.195 94.6304 854.923 93.7663 855.435C92.9023 855.947 91.9023 856.203 90.7663 856.203ZM90.7663 854.595C91.9664 854.595 92.8864 854.203 93.5264 853.419C94.1663 852.619 94.4863 851.459 94.4863 849.939C94.4863 848.467 94.1583 847.331 93.5023 846.531C92.8463 845.715 91.9344 845.307 90.7663 845.307C89.5823 845.307 88.6623 845.715 88.0063 846.531C87.3503 847.331 87.0223 848.467 87.0223 849.939C87.0223 851.459 87.3423 852.619 87.9823 853.419C88.6383 854.203 89.5663 854.595 90.7663 854.595ZM110.013 843.963V856.035H108.117V853.947C107.733 854.683 107.197 855.243 106.509 855.627C105.821 856.011 105.045 856.203 104.181 856.203C102.757 856.203 101.677 855.803 100.941 855.003C100.205 854.203 99.8367 853.019 99.8367 851.451V843.963H101.781V851.403C101.781 852.491 102.005 853.291 102.453 853.803C102.901 854.315 103.581 854.571 104.493 854.571C105.565 854.571 106.429 854.227 107.085 853.539C107.741 852.835 108.069 851.915 108.069 850.779V843.963H110.013ZM134.21 843.675C136.882 843.675 138.218 845.267 138.218 848.451V856.035H136.274V848.547C136.274 847.411 136.074 846.587 135.674 846.075C135.29 845.563 134.658 845.307 133.778 845.307C132.754 845.307 131.954 845.651 131.378 846.339C130.802 847.027 130.514 847.963 130.514 849.147V856.035H128.57V848.547C128.57 847.427 128.37 846.611 127.97 846.099C127.57 845.571 126.93 845.307 126.05 845.307C125.026 845.307 124.218 845.651 123.626 846.339C123.05 847.027 122.762 847.963 122.762 849.147V856.035H120.818V847.347C120.818 846.099 120.754 844.971 120.626 843.963H122.474L122.666 846.075C123.002 845.307 123.498 844.715 124.154 844.299C124.826 843.883 125.602 843.675 126.482 843.675C127.442 843.675 128.226 843.867 128.834 844.251C129.442 844.635 129.89 845.227 130.178 846.027C130.546 845.307 131.082 844.739 131.786 844.323C132.506 843.891 133.314 843.675 134.21 843.675ZM152.416 843.963V856.035H150.52V853.947C150.136 854.683 149.6 855.243 148.912 855.627C148.224 856.011 147.448 856.203 146.584 856.203C145.16 856.203 144.08 855.803 143.344 855.003C142.608 854.203 142.24 853.019 142.24 851.451V843.963H144.184V851.403C144.184 852.491 144.408 853.291 144.856 853.803C145.304 854.315 145.984 854.571 146.896 854.571C147.968 854.571 148.832 854.227 149.488 853.539C150.144 852.835 150.472 851.915 150.472 850.779V843.963H152.416ZM160.643 856.203C158.611 856.203 157.003 855.683 155.819 854.643L156.467 853.203C157.123 853.715 157.787 854.083 158.459 854.307C159.131 854.531 159.883 854.643 160.715 854.643C161.627 854.643 162.315 854.491 162.779 854.187C163.259 853.867 163.499 853.411 163.499 852.819C163.499 852.339 163.339 851.955 163.019 851.667C162.699 851.379 162.171 851.155 161.435 850.995L159.395 850.515C158.387 850.291 157.603 849.891 157.043 849.315C156.499 848.739 156.227 848.051 156.227 847.251C156.227 846.195 156.651 845.339 157.499 844.683C158.347 844.011 159.467 843.675 160.859 843.675C161.707 843.675 162.507 843.811 163.259 844.083C164.011 844.355 164.643 844.747 165.155 845.259L164.507 846.675C163.371 845.731 162.155 845.259 160.859 845.259C159.995 845.259 159.323 845.427 158.843 845.763C158.379 846.083 158.147 846.539 158.147 847.131C158.147 847.627 158.291 848.019 158.579 848.307C158.883 848.595 159.363 848.819 160.019 848.979L162.059 849.483C163.179 849.739 164.011 850.139 164.555 850.683C165.099 851.211 165.371 851.907 165.371 852.771C165.371 853.811 164.947 854.643 164.099 855.267C163.251 855.891 162.099 856.203 160.643 856.203ZM171.344 845.499V852.099C171.344 852.995 171.528 853.627 171.896 853.995C172.264 854.347 172.784 854.523 173.456 854.523C173.904 854.523 174.336 854.451 174.752 854.307V855.963C174.256 856.123 173.696 856.203 173.072 856.203C171.92 856.203 171.016 855.883 170.36 855.243C169.72 854.587 169.4 853.627 169.4 852.363V845.499H167.048V843.963H169.4V840.867L171.344 840.171V843.963H174.8V845.499H171.344ZM190.225 843.675C191.281 843.675 192.217 843.931 193.033 844.443C193.849 844.955 194.481 845.683 194.929 846.627C195.377 847.555 195.601 848.643 195.601 849.891C195.601 851.139 195.377 852.243 194.929 853.203C194.481 854.147 193.849 854.883 193.033 855.411C192.217 855.939 191.281 856.203 190.225 856.203C189.281 856.203 188.457 855.995 187.753 855.579C187.049 855.163 186.513 854.571 186.145 853.803V856.035H184.201V838.371H186.145V846.099C186.497 845.315 187.025 844.715 187.729 844.299C188.449 843.883 189.281 843.675 190.225 843.675ZM189.865 854.595C191.033 854.595 191.945 854.187 192.601 853.371C193.257 852.539 193.585 851.379 193.585 849.891C193.585 848.435 193.257 847.307 192.601 846.507C191.961 845.707 191.049 845.307 189.865 845.307C188.665 845.307 187.745 845.707 187.105 846.507C186.465 847.307 186.145 848.451 186.145 849.939C186.145 851.427 186.465 852.579 187.105 853.395C187.745 854.195 188.665 854.595 189.865 854.595ZM209.096 849.939H200.24C200.256 851.475 200.608 852.635 201.296 853.419C202 854.203 203.016 854.595 204.344 854.595C205.752 854.595 207.048 854.123 208.232 853.179L208.88 854.595C208.352 855.091 207.672 855.483 206.84 855.771C206.024 856.059 205.184 856.203 204.32 856.203C202.432 856.203 200.952 855.651 199.88 854.547C198.808 853.427 198.272 851.899 198.272 849.963C198.272 848.731 198.512 847.643 198.992 846.699C199.472 845.739 200.144 844.995 201.008 844.467C201.872 843.939 202.856 843.675 203.96 843.675C205.56 843.675 206.816 844.203 207.728 845.259C208.64 846.299 209.096 847.739 209.096 849.579V849.939ZM203.984 845.187C202.976 845.187 202.152 845.491 201.512 846.099C200.888 846.707 200.488 847.563 200.312 848.667H207.344C207.248 847.531 206.912 846.667 206.336 846.075C205.776 845.483 204.992 845.187 203.984 845.187ZM221.696 845.499V852.099C221.696 852.995 221.88 853.627 222.248 853.995C222.616 854.347 223.136 854.523 223.808 854.523C224.256 854.523 224.688 854.451 225.104 854.307V855.963C224.608 856.123 224.048 856.203 223.424 856.203C222.272 856.203 221.368 855.883 220.712 855.243C220.072 854.587 219.752 853.627 219.752 852.363V845.499H217.4V843.963H219.752V840.867L221.696 840.171V843.963H225.152V845.499H221.696ZM233.919 843.675C236.815 843.675 238.263 845.267 238.263 848.451V856.035H236.319V848.547C236.319 847.427 236.095 846.611 235.647 846.099C235.199 845.571 234.495 845.307 233.535 845.307C232.415 845.307 231.519 845.651 230.847 846.339C230.175 847.027 229.839 847.955 229.839 849.123V856.035H227.895V838.371H229.839V845.931C230.223 845.195 230.767 844.635 231.471 844.251C232.191 843.867 233.007 843.675 233.919 843.675ZM252.438 849.939H243.582C243.598 851.475 243.95 852.635 244.638 853.419C245.342 854.203 246.358 854.595 247.686 854.595C249.094 854.595 250.39 854.123 251.574 853.179L252.222 854.595C251.694 855.091 251.014 855.483 250.182 855.771C249.366 856.059 248.526 856.203 247.662 856.203C245.774 856.203 244.294 855.651 243.222 854.547C242.15 853.427 241.614 851.899 241.614 849.963C241.614 848.731 241.854 847.643 242.334 846.699C242.814 845.739 243.486 844.995 244.35 844.467C245.214 843.939 246.198 843.675 247.302 843.675C248.902 843.675 250.158 844.203 251.07 845.259C251.982 846.299 252.438 847.739 252.438 849.579V849.939ZM247.326 845.187C246.318 845.187 245.494 845.491 244.854 846.099C244.23 846.707 243.83 847.563 243.654 848.667H250.686C250.59 847.531 250.254 846.667 249.678 846.075C249.118 845.483 248.334 845.187 247.326 845.187ZM267.51 856.203C266.342 856.203 265.318 855.947 264.438 855.435C263.574 854.923 262.902 854.203 262.422 853.275C261.958 852.331 261.726 851.235 261.726 849.987C261.726 848.739 261.966 847.643 262.446 846.699C262.926 845.739 263.606 844.995 264.486 844.467C265.382 843.939 266.422 843.675 267.606 843.675C268.422 843.675 269.206 843.819 269.958 844.107C270.726 844.379 271.358 844.763 271.854 845.259L271.206 846.699C270.598 846.219 270.006 845.867 269.43 845.643C268.87 845.419 268.294 845.307 267.702 845.307C266.47 845.307 265.502 845.723 264.798 846.555C264.094 847.371 263.742 848.515 263.742 849.987C263.742 851.443 264.086 852.579 264.774 853.395C265.478 854.195 266.454 854.595 267.702 854.595C268.294 854.595 268.87 854.483 269.43 854.259C270.006 854.035 270.598 853.683 271.206 853.203L271.854 854.643C271.342 855.123 270.694 855.507 269.91 855.795C269.142 856.067 268.342 856.203 267.51 856.203ZM280.753 843.675C283.649 843.675 285.097 845.267 285.097 848.451V856.035H283.153V848.547C283.153 847.427 282.929 846.611 282.481 846.099C282.033 845.571 281.329 845.307 280.369 845.307C279.249 845.307 278.353 845.651 277.681 846.339C277.009 847.027 276.673 847.955 276.673 849.123V856.035H274.729V838.371H276.673V845.931C277.057 845.195 277.601 844.635 278.305 844.251C279.025 843.867 279.841 843.675 280.753 843.675ZM299.8 843.963V856.035H297.88V853.851C297.528 854.603 296.992 855.187 296.272 855.603C295.568 856.003 294.744 856.203 293.8 856.203C292.728 856.203 291.784 855.947 290.968 855.435C290.168 854.923 289.544 854.203 289.096 853.275C288.664 852.331 288.448 851.235 288.448 849.987C288.448 848.739 288.672 847.643 289.12 846.699C289.568 845.739 290.192 844.995 290.992 844.467C291.808 843.939 292.744 843.675 293.8 843.675C294.744 843.675 295.568 843.883 296.272 844.299C296.976 844.715 297.512 845.299 297.88 846.051V843.963H299.8ZM294.184 854.595C295.368 854.595 296.28 854.195 296.92 853.395C297.56 852.579 297.88 851.427 297.88 849.939C297.88 848.451 297.56 847.307 296.92 846.507C296.28 845.707 295.368 845.307 294.184 845.307C293 845.307 292.072 845.723 291.4 846.555C290.744 847.371 290.416 848.515 290.416 849.987C290.416 851.459 290.744 852.595 291.4 853.395C292.056 854.195 292.984 854.595 294.184 854.595ZM309.983 843.675C312.879 843.675 314.327 845.267 314.327 848.451V856.035H312.383V848.547C312.383 847.427 312.159 846.611 311.711 846.099C311.263 845.571 310.559 845.307 309.599 845.307C308.479 845.307 307.583 845.651 306.911 846.339C306.239 847.027 305.903 847.955 305.903 849.123V856.035H303.959V847.347C303.959 846.099 303.895 844.971 303.767 843.963H305.615L305.807 846.123C306.175 845.339 306.727 844.739 307.463 844.323C308.199 843.891 309.039 843.675 309.983 843.675ZM329.15 843.963V855.939C329.15 857.731 328.686 859.083 327.758 859.995C326.846 860.923 325.494 861.387 323.702 861.387C321.862 861.387 320.278 860.971 318.95 860.139L319.286 858.555C320.054 858.987 320.774 859.299 321.446 859.491C322.134 859.683 322.886 859.779 323.702 859.779C324.87 859.779 325.75 859.467 326.342 858.843C326.934 858.235 327.23 857.323 327.23 856.107V853.251C326.862 854.019 326.318 854.619 325.598 855.051C324.894 855.467 324.054 855.675 323.078 855.675C322.022 855.675 321.078 855.427 320.246 854.931C319.43 854.435 318.798 853.731 318.35 852.819C317.902 851.907 317.678 850.859 317.678 849.675C317.678 848.491 317.902 847.443 318.35 846.531C318.798 845.619 319.43 844.915 320.246 844.419C321.078 843.923 322.022 843.675 323.078 843.675C324.038 843.675 324.87 843.883 325.574 844.299C326.294 844.715 326.838 845.299 327.206 846.051V843.963H329.15ZM323.462 854.043C324.63 854.043 325.542 853.659 326.198 852.891C326.87 852.107 327.206 851.035 327.206 849.675C327.206 848.315 326.87 847.251 326.198 846.483C325.542 845.699 324.63 845.307 323.462 845.307C322.278 845.307 321.342 845.699 320.654 846.483C319.982 847.251 319.646 848.315 319.646 849.675C319.646 851.035 319.982 852.107 320.654 852.891C321.342 853.659 322.278 854.043 323.462 854.043ZM343.386 849.939H334.53C334.546 851.475 334.898 852.635 335.586 853.419C336.29 854.203 337.306 854.595 338.634 854.595C340.042 854.595 341.338 854.123 342.522 853.179L343.17 854.595C342.642 855.091 341.962 855.483 341.13 855.771C340.314 856.059 339.474 856.203 338.61 856.203C336.722 856.203 335.242 855.651 334.17 854.547C333.098 853.427 332.562 851.899 332.562 849.963C332.562 848.731 332.802 847.643 333.282 846.699C333.762 845.739 334.434 844.995 335.298 844.467C336.162 843.939 337.146 843.675 338.25 843.675C339.85 843.675 341.106 844.203 342.018 845.259C342.93 846.299 343.386 847.739 343.386 849.579V849.939ZM338.274 845.187C337.266 845.187 336.442 845.491 335.802 846.099C335.178 846.707 334.778 847.563 334.602 848.667H341.634C341.538 847.531 341.202 846.667 340.626 846.075C340.066 845.483 339.282 845.187 338.274 845.187ZM364.003 843.963L358.363 857.139C357.771 858.515 357.027 859.523 356.131 860.163C355.235 860.803 354.131 861.243 352.819 861.483L352.411 859.971C353.547 859.715 354.403 859.371 354.979 858.939C355.571 858.523 356.059 857.875 356.443 856.995L356.923 855.915L351.811 843.963H353.851L357.931 853.923L362.059 843.963H364.003ZM371.396 856.203C370.26 856.203 369.26 855.947 368.396 855.435C367.532 854.923 366.86 854.195 366.38 853.251C365.916 852.307 365.684 851.203 365.684 849.939C365.684 848.675 365.916 847.571 366.38 846.627C366.86 845.683 367.532 844.955 368.396 844.443C369.26 843.931 370.26 843.675 371.396 843.675C372.532 843.675 373.532 843.931 374.396 844.443C375.26 844.955 375.924 845.683 376.388 846.627C376.868 847.571 377.108 848.675 377.108 849.939C377.108 851.203 376.868 852.307 376.388 853.251C375.924 854.195 375.26 854.923 374.396 855.435C373.532 855.947 372.532 856.203 371.396 856.203ZM371.396 854.595C372.596 854.595 373.516 854.203 374.156 853.419C374.796 852.619 375.116 851.459 375.116 849.939C375.116 848.467 374.788 847.331 374.132 846.531C373.476 845.715 372.564 845.307 371.396 845.307C370.212 845.307 369.292 845.715 368.636 846.531C367.98 847.331 367.652 848.467 367.652 849.939C367.652 851.459 367.972 852.619 368.612 853.419C369.268 854.203 370.196 854.595 371.396 854.595ZM390.642 843.963V856.035H388.746V853.947C388.362 854.683 387.826 855.243 387.138 855.627C386.45 856.011 385.674 856.203 384.81 856.203C383.386 856.203 382.306 855.803 381.57 855.003C380.834 854.203 380.466 853.019 380.466 851.451V843.963H382.41V851.403C382.41 852.491 382.634 853.291 383.082 853.803C383.53 854.315 384.21 854.571 385.122 854.571C386.194 854.571 387.058 854.227 387.714 853.539C388.37 852.835 388.698 851.915 388.698 850.779V843.963H390.642ZM419.784 843.963L415.32 856.035H413.448L409.992 846.603L406.56 856.035H404.688L400.224 843.963H402.264L405.672 853.707L409.2 843.963H410.904L414.384 853.731L417.864 843.963H419.784ZM422.707 843.963H424.651V856.035H422.707V843.963ZM424.891 838.851V841.059H422.515V838.851H424.891ZM432.906 856.203C430.874 856.203 429.266 855.683 428.082 854.643L428.73 853.203C429.386 853.715 430.05 854.083 430.722 854.307C431.394 854.531 432.146 854.643 432.978 854.643C433.89 854.643 434.578 854.491 435.042 854.187C435.522 853.867 435.762 853.411 435.762 852.819C435.762 852.339 435.602 851.955 435.282 851.667C434.962 851.379 434.434 851.155 433.698 850.995L431.658 850.515C430.65 850.291 429.866 849.891 429.306 849.315C428.762 848.739 428.49 848.051 428.49 847.251C428.49 846.195 428.914 845.339 429.762 844.683C430.61 844.011 431.73 843.675 433.122 843.675C433.97 843.675 434.77 843.811 435.522 844.083C436.274 844.355 436.906 844.747 437.418 845.259L436.77 846.675C435.634 845.731 434.418 845.259 433.122 845.259C432.258 845.259 431.586 845.427 431.106 845.763C430.642 846.083 430.41 846.539 430.41 847.131C430.41 847.627 430.554 848.019 430.842 848.307C431.146 848.595 431.626 848.819 432.282 848.979L434.322 849.483C435.442 849.739 436.274 850.139 436.818 850.683C437.362 851.211 437.634 851.907 437.634 852.771C437.634 853.811 437.21 854.643 436.362 855.267C435.514 855.891 434.362 856.203 432.906 856.203ZM447.156 843.675C450.052 843.675 451.5 845.267 451.5 848.451V856.035H449.556V848.547C449.556 847.427 449.332 846.611 448.884 846.099C448.436 845.571 447.732 845.307 446.772 845.307C445.652 845.307 444.756 845.651 444.084 846.339C443.412 847.027 443.076 847.955 443.076 849.123V856.035H441.132V838.371H443.076V845.931C443.46 845.195 444.004 844.635 444.708 844.251C445.428 843.867 446.244 843.675 447.156 843.675ZM464.821 845.499V852.099C464.821 852.995 465.005 853.627 465.373 853.995C465.741 854.347 466.261 854.523 466.933 854.523C467.381 854.523 467.813 854.451 468.229 854.307V855.963C467.733 856.123 467.173 856.203 466.549 856.203C465.397 856.203 464.493 855.883 463.837 855.243C463.197 854.587 462.877 853.627 462.877 852.363V845.499H460.525V843.963H462.877V840.867L464.821 840.171V843.963H468.277V845.499H464.821ZM476.012 856.203C474.876 856.203 473.876 855.947 473.012 855.435C472.148 854.923 471.476 854.195 470.996 853.251C470.532 852.307 470.3 851.203 470.3 849.939C470.3 848.675 470.532 847.571 470.996 846.627C471.476 845.683 472.148 844.955 473.012 844.443C473.876 843.931 474.876 843.675 476.012 843.675C477.148 843.675 478.148 843.931 479.012 844.443C479.876 844.955 480.54 845.683 481.004 846.627C481.484 847.571 481.724 848.675 481.724 849.939C481.724 851.203 481.484 852.307 481.004 853.251C480.54 854.195 479.876 854.923 479.012 855.435C478.148 855.947 477.148 856.203 476.012 856.203ZM476.012 854.595C477.212 854.595 478.132 854.203 478.772 853.419C479.412 852.619 479.732 851.459 479.732 849.939C479.732 848.467 479.404 847.331 478.748 846.531C478.092 845.715 477.18 845.307 476.012 845.307C474.828 845.307 473.908 845.715 473.252 846.531C472.596 847.331 472.268 848.467 472.268 849.939C472.268 851.459 472.588 852.619 473.228 853.419C473.884 854.203 474.812 854.595 476.012 854.595ZM495.892 856.203C493.86 856.203 492.252 855.683 491.068 854.643L491.716 853.203C492.372 853.715 493.036 854.083 493.708 854.307C494.38 854.531 495.132 854.643 495.964 854.643C496.876 854.643 497.564 854.491 498.028 854.187C498.508 853.867 498.748 853.411 498.748 852.819C498.748 852.339 498.588 851.955 498.268 851.667C497.948 851.379 497.42 851.155 496.684 850.995L494.644 850.515C493.636 850.291 492.852 849.891 492.292 849.315C491.748 848.739 491.476 848.051 491.476 847.251C491.476 846.195 491.9 845.339 492.748 844.683C493.596 844.011 494.716 843.675 496.108 843.675C496.956 843.675 497.756 843.811 498.508 844.083C499.26 844.355 499.892 844.747 500.404 845.259L499.756 846.675C498.62 845.731 497.404 845.259 496.108 845.259C495.244 845.259 494.572 845.427 494.092 845.763C493.628 846.083 493.396 846.539 493.396 847.131C493.396 847.627 493.54 848.019 493.828 848.307C494.132 848.595 494.612 848.819 495.268 848.979L497.308 849.483C498.428 849.739 499.26 850.139 499.804 850.683C500.348 851.211 500.62 851.907 500.62 852.771C500.62 853.811 500.196 854.643 499.348 855.267C498.5 855.891 497.348 856.203 495.892 856.203ZM514.222 849.939H505.366C505.382 851.475 505.734 852.635 506.422 853.419C507.126 854.203 508.142 854.595 509.47 854.595C510.878 854.595 512.174 854.123 513.358 853.179L514.006 854.595C513.478 855.091 512.798 855.483 511.966 855.771C511.15 856.059 510.31 856.203 509.446 856.203C507.558 856.203 506.078 855.651 505.006 854.547C503.934 853.427 503.398 851.899 503.398 849.963C503.398 848.731 503.638 847.643 504.118 846.699C504.598 845.739 505.27 844.995 506.134 844.467C506.998 843.939 507.982 843.675 509.086 843.675C510.686 843.675 511.942 844.203 512.854 845.259C513.766 846.299 514.222 847.739 514.222 849.579V849.939ZM509.11 845.187C508.102 845.187 507.278 845.491 506.638 846.099C506.014 846.707 505.614 847.563 505.438 848.667H512.47C512.374 847.531 512.038 846.667 511.462 846.075C510.902 845.483 510.118 845.187 509.11 845.187ZM527.677 849.939H518.821C518.837 851.475 519.189 852.635 519.877 853.419C520.581 854.203 521.597 854.595 522.925 854.595C524.333 854.595 525.629 854.123 526.813 853.179L527.461 854.595C526.933 855.091 526.253 855.483 525.421 855.771C524.605 856.059 523.765 856.203 522.901 856.203C521.013 856.203 519.533 855.651 518.461 854.547C517.389 853.427 516.853 851.899 516.853 849.963C516.853 848.731 517.093 847.643 517.573 846.699C518.053 845.739 518.725 844.995 519.589 844.467C520.453 843.939 521.437 843.675 522.541 843.675C524.141 843.675 525.397 844.203 526.309 845.259C527.221 846.299 527.677 847.739 527.677 849.579V849.939ZM522.565 845.187C521.557 845.187 520.733 845.491 520.093 846.099C519.469 846.707 519.069 847.563 518.893 848.667H525.925C525.829 847.531 525.493 846.667 524.917 846.075C524.357 845.483 523.573 845.187 522.565 845.187ZM537.685 843.963H539.629V856.035H537.685V843.963ZM539.869 838.851V841.059H537.493V838.851H539.869ZM549.828 843.675C552.724 843.675 554.172 845.267 554.172 848.451V856.035H552.228V848.547C552.228 847.427 552.004 846.611 551.556 846.099C551.108 845.571 550.404 845.307 549.444 845.307C548.324 845.307 547.428 845.651 546.756 846.339C546.084 847.027 545.748 847.955 545.748 849.123V856.035H543.804V847.347C543.804 846.099 543.74 844.971 543.612 843.963H545.46L545.652 846.123C546.02 845.339 546.572 844.739 547.308 844.323C548.044 843.891 548.884 843.675 549.828 843.675ZM567.493 845.499V852.099C567.493 852.995 567.677 853.627 568.045 853.995C568.413 854.347 568.933 854.523 569.605 854.523C570.053 854.523 570.485 854.451 570.901 854.307V855.963C570.405 856.123 569.845 856.203 569.221 856.203C568.069 856.203 567.165 855.883 566.509 855.243C565.869 854.587 565.549 853.627 565.549 852.363V845.499H563.197V843.963H565.549V840.867L567.493 840.171V843.963H570.949V845.499H567.493ZM579.716 843.675C582.612 843.675 584.06 845.267 584.06 848.451V856.035H582.116V848.547C582.116 847.427 581.892 846.611 581.444 846.099C580.996 845.571 580.292 845.307 579.332 845.307C578.212 845.307 577.316 845.651 576.644 846.339C575.972 847.027 575.636 847.955 575.636 849.123V856.035H573.692V838.371H575.636V845.931C576.02 845.195 576.564 844.635 577.268 844.251C577.988 843.867 578.804 843.675 579.716 843.675ZM598.235 849.939H589.379C589.395 851.475 589.747 852.635 590.435 853.419C591.139 854.203 592.155 854.595 593.483 854.595C594.891 854.595 596.187 854.123 597.371 853.179L598.019 854.595C597.491 855.091 596.811 855.483 595.979 855.771C595.163 856.059 594.323 856.203 593.459 856.203C591.571 856.203 590.091 855.651 589.019 854.547C587.947 853.427 587.411 851.899 587.411 849.963C587.411 848.731 587.651 847.643 588.131 846.699C588.611 845.739 589.283 844.995 590.147 844.467C591.011 843.939 591.995 843.675 593.099 843.675C594.699 843.675 595.955 844.203 596.867 845.259C597.779 846.299 598.235 847.739 598.235 849.579V849.939ZM593.123 845.187C592.115 845.187 591.291 845.491 590.651 846.099C590.027 846.707 589.627 847.563 589.451 848.667H596.483C596.387 847.531 596.051 846.667 595.475 846.075C594.915 845.483 594.131 845.187 593.123 845.187ZM626.579 843.963L622.115 856.035H620.243L616.787 846.603L613.355 856.035H611.483L607.019 843.963H609.059L612.467 853.707L615.995 843.963H617.699L621.179 853.731L624.659 843.963H626.579ZM634.354 856.203C633.218 856.203 632.218 855.947 631.354 855.435C630.49 854.923 629.818 854.195 629.338 853.251C628.874 852.307 628.642 851.203 628.642 849.939C628.642 848.675 628.874 847.571 629.338 846.627C629.818 845.683 630.49 844.955 631.354 844.443C632.218 843.931 633.218 843.675 634.354 843.675C635.49 843.675 636.49 843.931 637.354 844.443C638.218 844.955 638.882 845.683 639.346 846.627C639.826 847.571 640.066 848.675 640.066 849.939C640.066 851.203 639.826 852.307 639.346 853.251C638.882 854.195 638.218 854.923 637.354 855.435C636.49 855.947 635.49 856.203 634.354 856.203ZM634.354 854.595C635.554 854.595 636.474 854.203 637.114 853.419C637.754 852.619 638.074 851.459 638.074 849.939C638.074 848.467 637.746 847.331 637.09 846.531C636.434 845.715 635.522 845.307 634.354 845.307C633.17 845.307 632.25 845.715 631.594 846.531C630.938 847.331 630.61 848.467 630.61 849.939C630.61 851.459 630.93 852.619 631.57 853.419C632.226 854.203 633.154 854.595 634.354 854.595ZM649.112 843.675C649.512 843.675 649.88 843.723 650.216 843.819L650.168 845.595C649.8 845.467 649.376 845.403 648.896 845.403C647.728 845.403 646.856 845.771 646.28 846.507C645.72 847.227 645.44 848.107 645.44 849.147V856.035H643.496V847.347C643.496 846.099 643.432 844.971 643.304 843.963H645.152L645.344 846.195C645.648 845.379 646.136 844.755 646.808 844.323C647.48 843.891 648.248 843.675 649.112 843.675ZM652.591 838.371H654.535V856.035H652.591V838.371ZM669.342 838.371V856.035H667.422V853.851C667.07 854.603 666.534 855.187 665.814 855.603C665.11 856.003 664.286 856.203 663.342 856.203C662.286 856.203 661.35 855.939 660.534 855.411C659.734 854.883 659.11 854.147 658.662 853.203C658.214 852.243 657.99 851.139 657.99 849.891C657.99 848.643 658.206 847.555 658.638 846.627C659.086 845.683 659.718 844.955 660.534 844.443C661.35 843.931 662.286 843.675 663.342 843.675C664.286 843.675 665.11 843.883 665.814 844.299C666.518 844.699 667.046 845.267 667.398 846.003V838.371H669.342ZM663.726 854.595C664.91 854.595 665.822 854.195 666.462 853.395C667.102 852.579 667.422 851.427 667.422 849.939C667.422 848.467 667.102 847.331 666.462 846.531C665.822 845.715 664.91 845.307 663.726 845.307C662.542 845.307 661.614 845.707 660.942 846.507C660.286 847.307 659.958 848.435 659.958 849.891C659.958 851.379 660.286 852.539 660.942 853.371C661.614 854.187 662.542 854.595 663.726 854.595ZM675.637 853.563V856.035H673.165V853.563H675.637Z" fill="#F7F7F7"/>
<path d="M236.792 678.947H238.76V694.355H247.328V696.035H236.792V678.947ZM260.11 689.939H251.254C251.27 691.475 251.622 692.635 252.31 693.419C253.014 694.203 254.03 694.595 255.358 694.595C256.766 694.595 258.062 694.123 259.246 693.179L259.894 694.595C259.366 695.091 258.686 695.483 257.854 695.771C257.038 696.059 256.198 696.203 255.334 696.203C253.446 696.203 251.966 695.651 250.894 694.547C249.822 693.427 249.286 691.899 249.286 689.963C249.286 688.731 249.526 687.643 250.006 686.699C250.486 685.739 251.158 684.995 252.022 684.467C252.886 683.939 253.87 683.675 254.974 683.675C256.574 683.675 257.83 684.203 258.742 685.259C259.654 686.299 260.11 687.739 260.11 689.579V689.939ZM254.998 685.187C253.99 685.187 253.166 685.491 252.526 686.099C251.902 686.707 251.502 687.563 251.326 688.667H258.358C258.262 687.531 257.926 686.667 257.35 686.075C256.79 685.483 256.006 685.187 254.998 685.187ZM274.093 683.963V696.035H272.173V693.851C271.821 694.603 271.285 695.187 270.565 695.603C269.861 696.003 269.037 696.203 268.093 696.203C267.021 696.203 266.077 695.947 265.261 695.435C264.461 694.923 263.837 694.203 263.389 693.275C262.957 692.331 262.741 691.235 262.741 689.987C262.741 688.739 262.965 687.643 263.413 686.699C263.861 685.739 264.485 684.995 265.285 684.467C266.101 683.939 267.037 683.675 268.093 683.675C269.037 683.675 269.861 683.883 270.565 684.299C271.269 684.715 271.805 685.299 272.173 686.051V683.963H274.093ZM268.477 694.595C269.661 694.595 270.573 694.195 271.213 693.395C271.853 692.579 272.173 691.427 272.173 689.939C272.173 688.451 271.853 687.307 271.213 686.507C270.573 685.707 269.661 685.307 268.477 685.307C267.293 685.307 266.365 685.723 265.693 686.555C265.037 687.371 264.709 688.515 264.709 689.987C264.709 691.459 265.037 692.595 265.693 693.395C266.349 694.195 267.277 694.595 268.477 694.595ZM288.884 678.371V696.035H286.964V693.851C286.612 694.603 286.076 695.187 285.356 695.603C284.652 696.003 283.828 696.203 282.884 696.203C281.828 696.203 280.892 695.939 280.076 695.411C279.276 694.883 278.652 694.147 278.204 693.203C277.756 692.243 277.532 691.139 277.532 689.891C277.532 688.643 277.748 687.555 278.18 686.627C278.628 685.683 279.26 684.955 280.076 684.443C280.892 683.931 281.828 683.675 282.884 683.675C283.828 683.675 284.652 683.883 285.356 684.299C286.06 684.699 286.588 685.267 286.94 686.003V678.371H288.884ZM283.268 694.595C284.452 694.595 285.364 694.195 286.004 693.395C286.644 692.579 286.964 691.427 286.964 689.939C286.964 688.467 286.644 687.331 286.004 686.531C285.364 685.715 284.452 685.307 283.268 685.307C282.084 685.307 281.156 685.707 280.484 686.507C279.828 687.307 279.5 688.435 279.5 689.891C279.5 691.379 279.828 692.539 280.484 693.371C281.156 694.187 282.084 694.595 283.268 694.595ZM302.292 685.499V692.099C302.292 692.995 302.476 693.627 302.844 693.995C303.212 694.347 303.732 694.523 304.404 694.523C304.852 694.523 305.284 694.451 305.7 694.307V695.963C305.204 696.123 304.644 696.203 304.02 696.203C302.868 696.203 301.964 695.883 301.308 695.243C300.668 694.587 300.348 693.627 300.348 692.363V685.499H297.996V683.963H300.348V680.867L302.292 680.171V683.963H305.748V685.499H302.292ZM314.515 683.675C317.411 683.675 318.859 685.267 318.859 688.451V696.035H316.915V688.547C316.915 687.427 316.691 686.611 316.243 686.099C315.795 685.571 315.091 685.307 314.131 685.307C313.011 685.307 312.115 685.651 311.443 686.339C310.771 687.027 310.435 687.955 310.435 689.123V696.035H308.491V678.371H310.435V685.931C310.819 685.195 311.363 684.635 312.067 684.251C312.787 683.867 313.603 683.675 314.515 683.675ZM333.034 689.939H324.178C324.194 691.475 324.546 692.635 325.234 693.419C325.938 694.203 326.954 694.595 328.282 694.595C329.69 694.595 330.986 694.123 332.17 693.179L332.818 694.595C332.29 695.091 331.61 695.483 330.778 695.771C329.962 696.059 329.122 696.203 328.258 696.203C326.37 696.203 324.89 695.651 323.818 694.547C322.746 693.427 322.21 691.899 322.21 689.963C322.21 688.731 322.45 687.643 322.93 686.699C323.41 685.739 324.082 684.995 324.946 684.467C325.81 683.939 326.794 683.675 327.898 683.675C329.498 683.675 330.754 684.203 331.666 685.259C332.578 686.299 333.034 687.739 333.034 689.579V689.939ZM327.922 685.187C326.914 685.187 326.09 685.491 325.45 686.099C324.826 686.707 324.426 687.563 324.25 688.667H331.282C331.186 687.531 330.85 686.667 330.274 686.075C329.714 685.483 328.93 685.187 327.922 685.187ZM361.378 683.963L356.914 696.035H355.042L351.586 686.603L348.154 696.035H346.282L341.818 683.963H343.858L347.266 693.707L350.794 683.963H352.498L355.978 693.731L359.458 683.963H361.378ZM374.793 683.963V696.035H372.873V693.851C372.521 694.603 371.985 695.187 371.265 695.603C370.561 696.003 369.737 696.203 368.793 696.203C367.721 696.203 366.777 695.947 365.961 695.435C365.161 694.923 364.537 694.203 364.089 693.275C363.657 692.331 363.441 691.235 363.441 689.987C363.441 688.739 363.665 687.643 364.113 686.699C364.561 685.739 365.185 684.995 365.985 684.467C366.801 683.939 367.737 683.675 368.793 683.675C369.737 683.675 370.561 683.883 371.265 684.299C371.969 684.715 372.505 685.299 372.873 686.051V683.963H374.793ZM369.177 694.595C370.361 694.595 371.273 694.195 371.913 693.395C372.553 692.579 372.873 691.427 372.873 689.939C372.873 688.451 372.553 687.307 371.913 686.507C371.273 685.707 370.361 685.307 369.177 685.307C367.993 685.307 367.065 685.723 366.393 686.555C365.737 687.371 365.409 688.515 365.409 689.987C365.409 691.459 365.737 692.595 366.393 693.395C367.049 694.195 367.977 694.595 369.177 694.595ZM389.56 683.963L383.92 697.139C383.328 698.515 382.584 699.523 381.688 700.163C380.792 700.803 379.688 701.243 378.376 701.483L377.968 699.971C379.104 699.715 379.96 699.371 380.536 698.939C381.128 698.523 381.616 697.875 382 696.995L382.48 695.915L377.368 683.963H379.408L383.488 693.923L387.616 683.963H389.56ZM403.391 679.955C402.751 679.955 402.247 680.139 401.879 680.507C401.527 680.859 401.351 681.475 401.351 682.355V683.963H404.303V685.499H401.351V696.035H399.407V685.499H397.055V683.963H399.407V682.115C399.407 680.851 399.719 679.899 400.343 679.259C400.983 678.603 401.871 678.275 403.007 678.275C403.567 678.275 404.111 678.347 404.639 678.491V680.147C404.191 680.019 403.775 679.955 403.391 679.955ZM412.12 696.203C410.984 696.203 409.984 695.947 409.12 695.435C408.256 694.923 407.584 694.195 407.104 693.251C406.64 692.307 406.408 691.203 406.408 689.939C406.408 688.675 406.64 687.571 407.104 686.627C407.584 685.683 408.256 684.955 409.12 684.443C409.984 683.931 410.984 683.675 412.12 683.675C413.256 683.675 414.256 683.931 415.12 684.443C415.984 684.955 416.648 685.683 417.112 686.627C417.592 687.571 417.832 688.675 417.832 689.939C417.832 691.203 417.592 692.307 417.112 693.251C416.648 694.195 415.984 694.923 415.12 695.435C414.256 695.947 413.256 696.203 412.12 696.203ZM412.12 694.595C413.32 694.595 414.24 694.203 414.88 693.419C415.52 692.619 415.84 691.459 415.84 689.939C415.84 688.467 415.512 687.331 414.856 686.531C414.2 685.715 413.288 685.307 412.12 685.307C410.936 685.307 410.016 685.715 409.36 686.531C408.704 687.331 408.376 688.467 408.376 689.939C408.376 691.459 408.696 692.619 409.336 693.419C409.992 694.203 410.92 694.595 412.12 694.595ZM426.879 683.675C427.279 683.675 427.647 683.723 427.983 683.819L427.935 685.595C427.567 685.467 427.143 685.403 426.663 685.403C425.495 685.403 424.623 685.771 424.047 686.507C423.487 687.227 423.207 688.107 423.207 689.147V696.035H421.263V687.347C421.263 686.099 421.199 684.971 421.071 683.963H422.919L423.111 686.195C423.415 685.379 423.903 684.755 424.575 684.323C425.247 683.891 426.015 683.675 426.879 683.675ZM442.008 696.203C440.872 696.203 439.872 695.947 439.008 695.435C438.144 694.923 437.472 694.195 436.992 693.251C436.528 692.307 436.296 691.203 436.296 689.939C436.296 688.675 436.528 687.571 436.992 686.627C437.472 685.683 438.144 684.955 439.008 684.443C439.872 683.931 440.872 683.675 442.008 683.675C443.144 683.675 444.144 683.931 445.008 684.443C445.872 684.955 446.536 685.683 447 686.627C447.48 687.571 447.72 688.675 447.72 689.939C447.72 691.203 447.48 692.307 447 693.251C446.536 694.195 445.872 694.923 445.008 695.435C444.144 695.947 443.144 696.203 442.008 696.203ZM442.008 694.595C443.208 694.595 444.128 694.203 444.768 693.419C445.408 692.619 445.728 691.459 445.728 689.939C445.728 688.467 445.4 687.331 444.744 686.531C444.088 685.715 443.176 685.307 442.008 685.307C440.824 685.307 439.904 685.715 439.248 686.531C438.592 687.331 438.264 688.467 438.264 689.939C438.264 691.459 438.584 692.619 439.224 693.419C439.88 694.203 440.808 694.595 442.008 694.595ZM453.719 685.499V692.099C453.719 692.995 453.903 693.627 454.271 693.995C454.639 694.347 455.159 694.523 455.831 694.523C456.279 694.523 456.711 694.451 457.127 694.307V695.963C456.631 696.123 456.071 696.203 455.447 696.203C454.295 696.203 453.391 695.883 452.735 695.243C452.095 694.587 451.775 693.627 451.775 692.363V685.499H449.423V683.963H451.775V680.867L453.719 680.171V683.963H457.175V685.499H453.719ZM465.941 683.675C468.837 683.675 470.285 685.267 470.285 688.451V696.035H468.341V688.547C468.341 687.427 468.117 686.611 467.669 686.099C467.221 685.571 466.517 685.307 465.557 685.307C464.437 685.307 463.541 685.651 462.869 686.339C462.197 687.027 461.861 687.955 461.861 689.123V696.035H459.917V678.371H461.861V685.931C462.245 685.195 462.789 684.635 463.493 684.251C464.213 683.867 465.029 683.675 465.941 683.675ZM484.46 689.939H475.604C475.62 691.475 475.972 692.635 476.66 693.419C477.364 694.203 478.38 694.595 479.708 694.595C481.116 694.595 482.412 694.123 483.596 693.179L484.244 694.595C483.716 695.091 483.036 695.483 482.204 695.771C481.388 696.059 480.548 696.203 479.684 696.203C477.796 696.203 476.316 695.651 475.244 694.547C474.172 693.427 473.636 691.899 473.636 689.963C473.636 688.731 473.876 687.643 474.356 686.699C474.836 685.739 475.508 684.995 476.372 684.467C477.236 683.939 478.22 683.675 479.324 683.675C480.924 683.675 482.18 684.203 483.092 685.259C484.004 686.299 484.46 687.739 484.46 689.579V689.939ZM479.348 685.187C478.34 685.187 477.516 685.491 476.876 686.099C476.252 686.707 475.852 687.563 475.676 688.667H482.708C482.612 687.531 482.276 686.667 481.7 686.075C481.14 685.483 480.356 685.187 479.348 685.187ZM493.427 683.675C493.827 683.675 494.195 683.723 494.531 683.819L494.483 685.595C494.115 685.467 493.691 685.403 493.211 685.403C492.043 685.403 491.171 685.771 490.595 686.507C490.035 687.227 489.755 688.107 489.755 689.147V696.035H487.811V687.347C487.811 686.099 487.747 684.971 487.619 683.963H489.467L489.659 686.195C489.963 685.379 490.451 684.755 491.123 684.323C491.795 683.891 492.563 683.675 493.427 683.675ZM500.869 696.203C498.837 696.203 497.229 695.683 496.045 694.643L496.693 693.203C497.349 693.715 498.013 694.083 498.685 694.307C499.357 694.531 500.109 694.643 500.941 694.643C501.853 694.643 502.541 694.491 503.005 694.187C503.485 693.867 503.725 693.411 503.725 692.819C503.725 692.339 503.565 691.955 503.245 691.667C502.925 691.379 502.397 691.155 501.661 690.995L499.621 690.515C498.613 690.291 497.829 689.891 497.269 689.315C496.725 688.739 496.453 688.051 496.453 687.251C496.453 686.195 496.877 685.339 497.725 684.683C498.573 684.011 499.693 683.675 501.085 683.675C501.933 683.675 502.733 683.811 503.485 684.083C504.237 684.355 504.869 684.747 505.381 685.259L504.733 686.675C503.597 685.731 502.381 685.259 501.085 685.259C500.221 685.259 499.549 685.427 499.069 685.763C498.605 686.083 498.373 686.539 498.373 687.131C498.373 687.627 498.517 688.019 498.805 688.307C499.109 688.595 499.589 688.819 500.245 688.979L502.285 689.483C503.405 689.739 504.237 690.139 504.781 690.683C505.325 691.211 505.597 691.907 505.597 692.771C505.597 693.811 505.173 694.643 504.325 695.267C503.477 695.891 502.325 696.203 500.869 696.203Z" fill="#F7F7F7"/>
<path d="M268.261 896.787H275.053V898.395H268.261V896.787ZM302.119 886.947V904.035H300.295V891.339L294.751 904.035H293.359L287.767 891.435L287.791 904.035H285.967V886.947H287.599L294.079 901.683L300.487 886.947H302.119ZM317.127 891.963V904.035H315.207V901.851C314.855 902.603 314.319 903.187 313.599 903.603C312.895 904.003 312.071 904.203 311.127 904.203C310.055 904.203 309.111 903.947 308.295 903.435C307.495 902.923 306.871 902.203 306.423 901.275C305.991 900.331 305.775 899.235 305.775 897.987C305.775 896.739 305.999 895.643 306.447 894.699C306.895 893.739 307.519 892.995 308.319 892.467C309.135 891.939 310.071 891.675 311.127 891.675C312.071 891.675 312.895 891.883 313.599 892.299C314.303 892.715 314.839 893.299 315.207 894.051V891.963H317.127ZM311.511 902.595C312.695 902.595 313.607 902.195 314.247 901.395C314.887 900.579 315.207 899.427 315.207 897.939C315.207 896.451 314.887 895.307 314.247 894.507C313.607 893.707 312.695 893.307 311.511 893.307C310.327 893.307 309.399 893.723 308.727 894.555C308.071 895.371 307.743 896.515 307.743 897.987C307.743 899.459 308.071 900.595 308.727 901.395C309.383 902.195 310.311 902.595 311.511 902.595ZM327.309 891.675C330.205 891.675 331.653 893.267 331.653 896.451V904.035H329.709V896.547C329.709 895.427 329.485 894.611 329.037 894.099C328.589 893.571 327.885 893.307 326.925 893.307C325.805 893.307 324.909 893.651 324.237 894.339C323.565 895.027 323.229 895.955 323.229 897.123V904.035H321.285V886.371H323.229V893.931C323.613 893.195 324.157 892.635 324.861 892.251C325.581 891.867 326.397 891.675 327.309 891.675ZM346.356 891.963V904.035H344.436V901.851C344.084 902.603 343.548 903.187 342.828 903.603C342.124 904.003 341.3 904.203 340.356 904.203C339.284 904.203 338.34 903.947 337.524 903.435C336.724 902.923 336.1 902.203 335.652 901.275C335.22 900.331 335.004 899.235 335.004 897.987C335.004 896.739 335.228 895.643 335.676 894.699C336.124 893.739 336.748 892.995 337.548 892.467C338.364 891.939 339.3 891.675 340.356 891.675C341.3 891.675 342.124 891.883 342.828 892.299C343.532 892.715 344.068 893.299 344.436 894.051V891.963H346.356ZM340.74 902.595C341.924 902.595 342.836 902.195 343.476 901.395C344.116 900.579 344.436 899.427 344.436 897.939C344.436 896.451 344.116 895.307 343.476 894.507C342.836 893.707 341.924 893.307 340.74 893.307C339.556 893.307 338.628 893.723 337.956 894.555C337.3 895.371 336.972 896.515 336.972 897.987C336.972 899.459 337.3 900.595 337.956 901.395C338.612 902.195 339.54 902.595 340.74 902.595ZM353.107 893.499V900.099C353.107 900.995 353.291 901.627 353.659 901.995C354.027 902.347 354.547 902.523 355.219 902.523C355.667 902.523 356.099 902.451 356.515 902.307V903.963C356.019 904.123 355.459 904.203 354.835 904.203C353.683 904.203 352.779 903.883 352.123 903.243C351.483 902.587 351.163 901.627 351.163 900.363V893.499H348.811V891.963H351.163V888.867L353.107 888.171V891.963H356.563V893.499H353.107ZM372.698 891.675C375.37 891.675 376.706 893.267 376.706 896.451V904.035H374.762V896.547C374.762 895.411 374.562 894.587 374.162 894.075C373.778 893.563 373.146 893.307 372.266 893.307C371.242 893.307 370.442 893.651 369.866 894.339C369.29 895.027 369.002 895.963 369.002 897.147V904.035H367.058V896.547C367.058 895.427 366.858 894.611 366.458 894.099C366.058 893.571 365.418 893.307 364.538 893.307C363.514 893.307 362.706 893.651 362.114 894.339C361.538 895.027 361.25 895.963 361.25 897.147V904.035H359.306V895.347C359.306 894.099 359.242 892.971 359.114 891.963H360.962L361.154 894.075C361.49 893.307 361.986 892.715 362.642 892.299C363.314 891.883 364.09 891.675 364.97 891.675C365.93 891.675 366.714 891.867 367.322 892.251C367.93 892.635 368.378 893.227 368.666 894.027C369.034 893.307 369.57 892.739 370.274 892.323C370.994 891.891 371.802 891.675 372.698 891.675ZM391.431 891.963V904.035H389.511V901.851C389.159 902.603 388.623 903.187 387.903 903.603C387.199 904.003 386.375 904.203 385.431 904.203C384.359 904.203 383.415 903.947 382.599 903.435C381.799 902.923 381.175 902.203 380.727 901.275C380.295 900.331 380.079 899.235 380.079 897.987C380.079 896.739 380.303 895.643 380.751 894.699C381.199 893.739 381.823 892.995 382.623 892.467C383.439 891.939 384.375 891.675 385.431 891.675C386.375 891.675 387.199 891.883 387.903 892.299C388.607 892.715 389.143 893.299 389.511 894.051V891.963H391.431ZM385.815 902.595C386.999 902.595 387.911 902.195 388.551 901.395C389.191 900.579 389.511 899.427 389.511 897.939C389.511 896.451 389.191 895.307 388.551 894.507C387.911 893.707 386.999 893.307 385.815 893.307C384.631 893.307 383.703 893.723 383.031 894.555C382.375 895.371 382.047 896.515 382.047 897.987C382.047 899.459 382.375 900.595 383.031 901.395C383.687 902.195 384.615 902.595 385.815 902.595ZM416 895.131V903.051C415.328 903.403 414.448 903.691 413.36 903.915C412.272 904.123 411.168 904.227 410.048 904.227C408.352 904.227 406.888 903.883 405.656 903.195C404.424 902.491 403.48 901.483 402.824 900.171C402.184 898.859 401.864 897.291 401.864 895.467C401.864 893.659 402.184 892.107 402.824 890.811C403.48 889.499 404.408 888.499 405.608 887.811C406.824 887.107 408.256 886.755 409.904 886.755C411.104 886.755 412.2 886.939 413.192 887.307C414.2 887.659 415.064 888.195 415.784 888.915L415.016 890.427C414.184 889.723 413.368 889.219 412.568 888.915C411.784 888.595 410.896 888.435 409.904 888.435C407.968 888.435 406.48 889.043 405.44 890.259C404.416 891.459 403.904 893.195 403.904 895.467C403.904 897.787 404.432 899.555 405.488 900.771C406.544 901.971 408.08 902.571 410.096 902.571C411.52 902.571 412.888 902.347 414.2 901.899V896.691H409.952V895.131H416ZM430.834 891.963V904.035H428.914V901.851C428.562 902.603 428.026 903.187 427.306 903.603C426.602 904.003 425.778 904.203 424.834 904.203C423.762 904.203 422.818 903.947 422.002 903.435C421.202 902.923 420.578 902.203 420.13 901.275C419.698 900.331 419.482 899.235 419.482 897.987C419.482 896.739 419.706 895.643 420.154 894.699C420.602 893.739 421.226 892.995 422.026 892.467C422.842 891.939 423.778 891.675 424.834 891.675C425.778 891.675 426.602 891.883 427.306 892.299C428.01 892.715 428.546 893.299 428.914 894.051V891.963H430.834ZM425.218 902.595C426.402 902.595 427.314 902.195 427.954 901.395C428.594 900.579 428.914 899.427 428.914 897.939C428.914 896.451 428.594 895.307 427.954 894.507C427.314 893.707 426.402 893.307 425.218 893.307C424.034 893.307 423.106 893.723 422.434 894.555C421.778 895.371 421.45 896.515 421.45 897.987C421.45 899.459 421.778 900.595 422.434 901.395C423.09 902.195 424.018 902.595 425.218 902.595ZM441.017 891.675C443.913 891.675 445.361 893.267 445.361 896.451V904.035H443.417V896.547C443.417 895.427 443.193 894.611 442.745 894.099C442.297 893.571 441.593 893.307 440.633 893.307C439.513 893.307 438.617 893.651 437.945 894.339C437.273 895.027 436.937 895.955 436.937 897.123V904.035H434.993V895.347C434.993 894.099 434.929 892.971 434.801 891.963H436.649L436.841 894.123C437.209 893.339 437.761 892.739 438.497 892.323C439.233 891.891 440.073 891.675 441.017 891.675ZM460.064 886.371V904.035H458.144V901.851C457.792 902.603 457.256 903.187 456.536 903.603C455.832 904.003 455.008 904.203 454.064 904.203C453.008 904.203 452.072 903.939 451.256 903.411C450.456 902.883 449.832 902.147 449.384 901.203C448.936 900.243 448.712 899.139 448.712 897.891C448.712 896.643 448.928 895.555 449.36 894.627C449.808 893.683 450.44 892.955 451.256 892.443C452.072 891.931 453.008 891.675 454.064 891.675C455.008 891.675 455.832 891.883 456.536 892.299C457.24 892.699 457.768 893.267 458.12 894.003V886.371H460.064ZM454.448 902.595C455.632 902.595 456.544 902.195 457.184 901.395C457.824 900.579 458.144 899.427 458.144 897.939C458.144 896.467 457.824 895.331 457.184 894.531C456.544 893.715 455.632 893.307 454.448 893.307C453.264 893.307 452.336 893.707 451.664 894.507C451.008 895.307 450.68 896.435 450.68 897.891C450.68 899.379 451.008 900.539 451.664 901.371C452.336 902.187 453.264 902.595 454.448 902.595ZM470.247 891.675C473.143 891.675 474.591 893.267 474.591 896.451V904.035H472.647V896.547C472.647 895.427 472.423 894.611 471.975 894.099C471.527 893.571 470.823 893.307 469.863 893.307C468.743 893.307 467.847 893.651 467.175 894.339C466.503 895.027 466.167 895.955 466.167 897.123V904.035H464.223V886.371H466.167V893.931C466.551 893.195 467.095 892.635 467.799 892.251C468.519 891.867 469.335 891.675 470.247 891.675ZM478.662 891.963H480.606V904.035H478.662V891.963ZM480.846 886.851V889.059H478.47V886.851H480.846Z" fill="#F7F7F7"/>
<circle cx="361.68" cy="336.035" r="210" fill="white"/>
<path d="M370.354 577.4C509.995 577.4 623.196 568.624 623.196 557.799C623.196 546.975 509.995 538.199 370.354 538.199C230.713 538.199 117.512 546.975 117.512 557.799C117.512 568.624 230.713 577.4 370.354 577.4Z" fill="#F2F2F2"/>
<path opacity="0.5" d="M126.973 460.685C128.733 460.685 130.16 459.258 130.16 457.498C130.16 455.738 128.733 454.311 126.973 454.311C125.212 454.311 123.785 455.738 123.785 457.498C123.785 459.258 125.212 460.685 126.973 460.685Z" fill="#F55F44"/>
<g opacity="0.5">
<path opacity="0.5" d="M397.223 317.068H395.629V326.093H397.223V317.068Z" fill="#B73642"/>
<path opacity="0.5" d="M400.939 322.377V320.783H391.914V322.377H400.939Z" fill="#B73642"/>
</g>
<path d="M728.193 329.136C726.97 328.141 725.828 327.05 724.776 325.875C724.776 326.155 724.776 326.435 724.776 326.715C716.431 318.2 716.725 307.885 720.142 298.474L721.272 298.056C726.636 283.873 738.931 271.977 738.931 271.977L737.094 272.749C737.664 272.161 737.99 271.83 737.99 271.83C661.748 304.353 608.7 306.25 602.785 306.36C599.138 304.982 569.091 294.042 540.023 289.963C530.878 288.636 521.798 287.97 513.641 288.484L504.483 249.165L504.308 249.27C503.881 245.899 502.297 238.56 496.501 234.008C488.762 227.964 494.526 255.774 494.526 255.774L495.159 255.475L498.402 290.491L496.822 291.814C487.66 294.545 478.206 296.175 468.658 296.669C470.419 295.04 471.869 293.106 472.939 290.96C473.554 291.087 474.19 291.06 474.792 290.881C475.394 290.702 475.942 290.377 476.388 289.936C476.689 289.619 476.944 289.262 477.146 288.875C477.568 288.193 477.907 287.464 478.157 286.702C480.058 281.595 482.134 276.474 482.749 271.063C483.365 265.653 482.354 259.783 478.712 255.728C475.07 251.672 468.429 250.129 463.969 253.261C462.816 254.07 461.838 255.145 460.57 255.76C456.708 257.629 452.423 254.598 448.826 252.256C444.647 249.532 439.126 247.58 434.795 250.051C433.443 250.837 432.332 251.977 431.58 253.349C430.392 255.231 429.834 257.443 429.986 259.664C430.234 263.233 432.159 266.553 434.735 269.015C435.601 269.923 436.665 270.618 437.845 271.045C438.145 271.137 438.452 271.205 438.763 271.247C437.327 273.421 436.333 275.857 435.84 278.415C435.347 280.973 435.363 283.604 435.888 286.156L434.285 295.856C432.862 296.522 432.067 297.978 431.621 299.402C424.92 299.599 418.063 304.192 418.063 304.192L391.728 330.528C384.898 335.162 389.532 343.695 389.532 343.695L404.895 389.785L405.745 389.151C408.896 394.892 418.146 410.738 419.923 402.838C422.096 393.266 415.331 384.577 415.331 384.577H415.248L413.498 382.326L407.068 348.063L415.202 339.984L426.133 338.391L426.62 409.337C406.622 462.013 409.061 486.153 409.061 486.153L426.62 551.996L428.861 551.624L429.403 553.792L429.601 553.723L430.574 558.583H428.82L426.624 565.169C426.624 565.169 415.409 564.925 415.652 567.364C415.895 569.803 421.995 573.95 437.601 569.56L441.992 565.169C441.992 565.169 444.188 562.973 439.797 558.583H439.484L438.267 550.058L439.797 549.801L426.62 483.944C437.592 474.919 457.346 440.049 457.346 440.049C457.346 440.049 477.096 474.923 488.073 483.944L474.905 549.783L476.434 550.04L475.235 558.564H474.923C470.532 562.955 472.728 565.15 472.728 565.15L477.119 569.541C492.734 573.932 498.825 569.785 499.068 567.346C499.311 564.907 488.096 565.15 488.096 565.15L485.9 558.564H484.146L485.409 552.244L485.634 551.569L488.096 551.978L505.654 486.134C505.654 486.134 505.328 448.092 488.279 400.537L523.305 449.653L551.018 493.35C552.484 489.816 554.289 486.432 556.406 483.246L576.458 464.511C599.767 450.645 630.884 449.814 650.1 450.958L667.82 452.873L676.151 408.983C681.006 402.732 688.212 397.34 698.689 393.308C720.422 384.949 738.647 367.202 738.5 349.946C738.816 350.3 739.124 350.654 739.418 351.012C739.643 343.378 736.332 335.8 728.193 329.136ZM487.636 394.24L487.613 393.432L488.624 395.021L487.636 394.24Z" fill="url(#paint1_linear_2012_767)"/>
<path d="M419.049 384.996H418.967L415.067 379.967L408.757 386.277L409.455 387.325L408.66 387.517C408.66 387.517 421.396 412.117 423.518 402.78C425.64 393.442 419.049 384.996 419.049 384.996Z" fill="#FDB797"/>
<path d="M445.639 297.102C445.639 297.102 468.865 304.069 501.387 293.616C533.909 283.163 601.269 308.713 601.269 308.713C601.269 308.713 654.693 308.713 733.672 275.033C733.672 275.033 697.669 309.875 723.219 330.782C748.769 351.688 725.543 381.882 695.345 393.497C665.146 405.113 662.827 428.339 665.146 450.408C667.466 472.477 665.146 451.57 665.146 451.57C665.146 451.57 574.556 435.311 551.326 491.069L436.347 309.879C436.347 309.879 429.38 295.945 445.639 297.102Z" fill="#2B478B"/>
<path opacity="0.1" d="M388.086 262.908L677.277 470.801L694.698 419.7L388.086 262.908Z" fill="black"/>
<path opacity="0.1" d="M405.506 327.947L565.779 490.545L589.01 473.124L405.506 327.947Z" fill="black"/>
<g opacity="0.1">
<path opacity="0.1" d="M452.349 313.496C452.349 313.496 475.575 320.463 508.097 310.01C540.619 299.556 607.969 325.111 607.969 325.111C607.969 325.111 651.188 325.111 717.344 300.603C722.576 286.77 734.563 275.168 734.563 275.168C655.565 308.848 602.159 308.848 602.159 308.848C602.159 308.848 534.795 283.297 502.278 293.751C469.76 304.204 446.529 297.237 446.529 297.237C430.271 296.075 437.238 310.014 437.238 310.014L442.019 317.551C443.016 315.011 445.794 313.027 452.349 313.496Z" fill="black"/>
<path opacity="0.1" d="M724.124 330.915C722.93 329.944 721.815 328.88 720.789 327.732C720.523 334.59 722.888 341.41 729.929 347.174C731.806 348.692 733.526 350.394 735.064 352.254C735.289 344.804 732.06 337.41 724.124 330.915Z" fill="black"/>
</g>
<path d="M486.284 546.4L484.144 557.106H475.578L477.723 542.119L486.284 546.4Z" fill="#FDB797"/>
<path opacity="0.1" d="M486.11 547.88L485.509 549.69L477.062 547.278L477.664 546.07L486.11 547.88Z" fill="black"/>
<path d="M430.633 546.4L432.773 557.106H441.334L439.194 542.119L430.633 546.4Z" fill="#FDB797"/>
<path opacity="0.1" d="M430.602 547.88L431.203 550.291L439.654 547.278V546.07L430.602 547.88Z" fill="black"/>
<path d="M505.922 254.782C505.922 254.782 505.683 244.053 498.146 238.146C490.609 232.24 496.249 259.361 496.249 259.361L505.922 254.782Z" fill="#FDB797"/>
<path d="M441.332 554.969H430.631L428.49 561.399C428.49 561.399 417.55 561.16 417.789 563.539C418.028 565.918 423.971 569.969 439.192 565.679L443.472 561.399C443.472 561.399 445.613 559.249 441.332 554.969Z" fill="#333333"/>
<path d="M475.578 554.969H486.279L488.419 561.399C488.419 561.399 499.36 561.16 499.121 563.539C498.882 565.918 492.939 569.969 477.718 565.679L473.437 561.399C473.437 561.399 471.297 559.249 475.578 554.969Z" fill="#333333"/>
<path d="M489.933 409.113H430.015C410.513 460.485 412.892 484.032 412.892 484.032L430.015 548.246L442.875 546.105L430.015 481.906C440.716 473.106 459.983 439.096 459.983 439.096C459.983 439.096 479.241 473.088 489.933 481.906L477.073 546.119L489.933 548.259L507.056 484.046C507.056 484.046 509.449 460.485 489.933 409.113Z" fill="#333333"/>
<path opacity="0.1" d="M430.012 409.945C430.012 409.945 463.999 422.805 489.944 409.945H430.012Z" fill="black"/>
<path d="M428.12 332.264L410.998 349.386L417.428 383.635L408.867 390.065L393.885 345.115C393.885 345.115 389.366 336.792 396.025 332.255L421.713 306.567C421.713 306.567 432.736 299.181 440.314 302.966C447.893 306.75 427.973 331.993 427.973 331.993" fill="#B73642"/>
<path d="M427.867 332.055L430.007 409.115C430.007 409.115 463.995 421.975 489.94 409.115L487.8 336.575L487.253 334.177L487.648 332.997L513.368 311.667C520.418 307.786 516.694 299.078 516.694 299.078L505.946 252.934L496.82 258.528L500.035 293.222L481.719 308.416L481.259 308.393V308.507L434.306 306.372" fill="#B73642"/>
<path d="M461.387 295.785H458.806C454.79 295.785 451.535 299.04 451.535 303.056V307.777C451.535 311.793 454.79 315.048 458.806 315.048H461.387C465.402 315.048 468.657 311.793 468.657 307.777V303.056C468.657 299.04 465.402 295.785 461.387 295.785Z" fill="#FDB797"/>
<path opacity="0.1" d="M452.082 304.009C454.8 304.958 457.696 305.286 460.558 304.968C463.419 304.65 466.173 303.695 468.616 302.172C468.013 300.521 466.919 299.095 465.48 298.086C464.041 297.076 462.327 296.532 460.57 296.527C458.489 296.534 456.481 297.297 454.92 298.673C453.359 300.049 452.35 301.945 452.082 304.009Z" fill="black"/>
<path d="M457.954 304.345C468.592 304.345 477.217 295.721 477.217 285.083C477.217 274.444 468.592 265.82 457.954 265.82C447.316 265.82 438.691 274.444 438.691 285.083C438.691 295.721 447.316 304.345 457.954 304.345Z" fill="#FDB797"/>
<path opacity="0.1" d="M444.577 274.458C443.38 274.609 442.166 274.54 440.994 274.256C439.844 273.838 438.806 273.159 437.963 272.272C435.446 269.856 433.572 266.632 433.329 263.15C433.085 259.669 434.707 255.981 437.724 254.254C441.949 251.847 447.337 253.749 451.411 256.403C454.915 258.7 459.099 261.644 462.865 259.82C464.101 259.223 465.056 258.172 466.182 257.386C470.531 254.332 477.007 255.838 480.557 259.793C484.108 263.747 485.104 269.47 484.493 274.752C483.883 280.034 481.862 285.026 480.006 290.005C479.717 290.987 479.228 291.899 478.569 292.683C476.309 295.002 472.079 293.202 470.591 290.326C468.005 285.325 470.591 276.653 464.482 273.737C459.618 271.422 449.799 274.118 444.577 274.458Z" fill="black"/>
<path d="M444.866 273.981C443.669 274.132 442.455 274.064 441.283 273.779C440.133 273.361 439.095 272.682 438.252 271.795C435.735 269.379 433.861 266.155 433.618 262.674C433.374 259.192 434.996 255.504 438.013 253.777C442.239 251.371 447.626 253.272 451.7 255.927C455.204 258.223 459.388 261.167 463.155 259.344C464.39 258.747 465.345 257.695 466.471 256.91C470.82 253.855 477.296 255.362 480.846 259.316C484.397 263.271 485.393 268.994 484.782 274.275C484.172 279.557 482.123 284.55 480.286 289.528C479.997 290.511 479.508 291.423 478.848 292.206C476.589 294.525 472.359 292.725 470.871 289.85C468.285 284.848 470.871 276.177 464.762 273.26C459.921 270.946 450.083 273.646 444.866 273.981Z" fill="#333333"/>
<path d="M468.656 289.364C469.838 289.364 470.796 287.447 470.796 285.083C470.796 282.719 469.838 280.803 468.656 280.803C467.474 280.803 466.516 282.719 466.516 285.083C466.516 287.447 467.474 289.364 468.656 289.364Z" fill="#FDB797"/>
<path opacity="0.1" d="M427.895 332.045L433.328 334.589L427.895 341.231V332.045Z" fill="black"/>
<path opacity="0.1" d="M487.631 332.982L484.012 337.006L486.423 340.625L487.833 336.602L487.631 332.982Z" fill="black"/>
<path d="M460.35 313.346V316.832C460.35 316.832 434.929 312.189 434.281 305.217L451.059 306.379L460.35 313.346Z" fill="#2B478B"/>
<path d="M460.348 313.346V316.832C460.348 316.832 485.769 312.189 486.417 305.217L469.639 306.379L460.348 313.346Z" fill="#2B478B"/>
<path opacity="0.1" d="M615.723 351.174L699.345 370.919L669.147 383.696L615.723 351.174Z" fill="black"/>
<path d="M434.359 305.388C434.359 305.388 434.359 298.09 439.228 298.09C444.096 298.09 448.96 312.691 448.96 312.691L434.359 305.388Z" fill="#2B478B"/>
<path opacity="0.5" d="M221.836 233.322C223.596 233.322 225.023 231.895 225.023 230.135C225.023 228.374 223.596 226.947 221.836 226.947C220.076 226.947 218.648 228.374 218.648 230.135C218.648 231.895 220.076 233.322 221.836 233.322Z" fill="#F55F44"/>
<path opacity="0.5" d="M317.683 377.953C317.244 377.762 316.891 377.416 316.69 376.982C316.49 376.547 316.456 376.055 316.595 375.597C316.617 375.527 316.631 375.454 316.636 375.381C316.649 375.171 316.594 374.962 316.479 374.786C316.364 374.609 316.195 374.475 315.997 374.402C315.8 374.329 315.584 374.322 315.382 374.382C315.18 374.442 315.003 374.565 314.877 374.733C314.832 374.793 314.795 374.858 314.767 374.926C314.575 375.363 314.23 375.714 313.796 375.914C313.363 376.114 312.872 376.148 312.415 376.01C312.345 375.988 312.272 375.974 312.199 375.969C311.989 375.956 311.78 376.011 311.604 376.126C311.428 376.241 311.293 376.41 311.22 376.607C311.148 376.805 311.141 377.02 311.2 377.222C311.26 377.424 311.383 377.601 311.552 377.728C311.611 377.772 311.676 377.809 311.744 377.838C312.18 378.031 312.529 378.377 312.727 378.81C312.925 379.243 312.958 379.734 312.819 380.19C312.797 380.26 312.783 380.332 312.778 380.405C312.765 380.615 312.82 380.824 312.935 381.001C313.05 381.177 313.219 381.311 313.416 381.384C313.614 381.457 313.83 381.464 314.031 381.404C314.233 381.345 314.411 381.221 314.537 381.053C314.581 380.993 314.618 380.929 314.647 380.86C314.838 380.421 315.184 380.068 315.618 379.868C316.052 379.667 316.545 379.633 317.003 379.772C317.073 379.794 317.146 379.808 317.219 379.813C317.428 379.826 317.636 379.771 317.812 379.656C317.988 379.542 318.122 379.374 318.195 379.177C318.268 378.981 318.276 378.766 318.218 378.564C318.16 378.363 318.038 378.186 317.871 378.058C317.813 378.016 317.75 377.98 317.683 377.953Z" fill="#4D8AF0"/>
<path opacity="0.5" d="M643.836 467.33C643.397 467.139 643.044 466.793 642.843 466.359C642.643 465.924 642.609 465.431 642.748 464.974C642.77 464.904 642.784 464.831 642.789 464.758C642.802 464.548 642.747 464.339 642.632 464.163C642.517 463.986 642.348 463.852 642.15 463.779C641.953 463.706 641.737 463.699 641.535 463.759C641.333 463.819 641.156 463.942 641.03 464.11C640.985 464.17 640.948 464.235 640.92 464.303C640.729 464.742 640.383 465.095 639.949 465.296C639.514 465.496 639.021 465.53 638.563 465.392C638.493 465.369 638.421 465.355 638.348 465.35C638.137 465.337 637.929 465.392 637.752 465.507C637.576 465.622 637.442 465.791 637.369 465.989C637.296 466.186 637.289 466.402 637.349 466.604C637.408 466.806 637.532 466.983 637.7 467.109C637.76 467.154 637.824 467.191 637.893 467.22C638.332 467.411 638.685 467.756 638.885 468.19C639.086 468.625 639.12 469.118 638.981 469.576C638.959 469.646 638.945 469.718 638.94 469.792C638.927 470.002 638.982 470.21 639.097 470.387C639.212 470.563 639.381 470.698 639.578 470.77C639.776 470.843 639.992 470.85 640.194 470.79C640.396 470.731 640.573 470.608 640.699 470.439C640.744 470.38 640.781 470.315 640.809 470.246C641 469.808 641.346 469.454 641.78 469.254C642.215 469.053 642.708 469.019 643.166 469.158C643.236 469.18 643.308 469.194 643.381 469.199C643.591 469.212 643.8 469.157 643.977 469.042C644.153 468.927 644.287 468.758 644.36 468.561C644.433 468.363 644.44 468.147 644.38 467.945C644.321 467.744 644.197 467.566 644.029 467.44C643.969 467.396 643.905 467.359 643.836 467.33Z" fill="#4D8AF0"/>
<path opacity="0.5" d="M592.863 523.199C594.624 523.199 596.051 521.772 596.051 520.012C596.051 518.251 594.624 516.824 592.863 516.824C591.103 516.824 589.676 518.251 589.676 520.012C589.676 521.772 591.103 523.199 592.863 523.199Z" fill="#B73642"/>
<path opacity="0.5" d="M346.945 412.492C348.706 412.492 350.133 411.065 350.133 409.305C350.133 407.544 348.706 406.117 346.945 406.117C345.185 406.117 343.758 407.544 343.758 409.305C343.758 411.065 345.185 412.492 346.945 412.492Z" fill="#B73642"/>
<g opacity="0.5">
<path opacity="0.5" d="M649.68 272.035H648.086V281.06H649.68V272.035Z" fill="#B73642"/>
<path opacity="0.5" d="M653.4 277.344V275.75H644.375V277.344H653.4Z" fill="#B73642"/>
</g>
<path d="M328.925 487.672C330.316 488.177 331.806 488.353 333.277 488.185C334.748 488.017 336.159 487.509 337.401 486.702C338.642 485.896 339.679 484.812 340.43 483.536C341.18 482.26 341.624 480.827 341.727 479.35C341.83 477.873 341.588 476.393 341.02 475.025C340.453 473.658 339.576 472.441 338.458 471.47C337.341 470.5 336.013 469.802 334.579 469.432C333.146 469.062 331.646 469.03 330.198 469.339L330.437 474.259L328.11 470.042C325.825 471.116 324.06 473.052 323.203 475.427C322.898 476.258 322.713 477.129 322.653 478.012C322.506 480.085 323.039 482.15 324.171 483.893C325.302 485.636 326.972 486.962 328.925 487.672Z" fill="#57B894"/>
<path d="M340.441 544.735C339.62 540.551 343.18 536.841 346.697 534.43C350.214 532.019 354.324 529.65 355.524 525.558C357.248 519.677 352.111 514.292 348.113 509.647C345.146 506.201 342.599 502.415 340.524 498.368C339.692 496.746 338.927 495.05 338.709 493.24C338.393 490.633 339.231 488.039 340.074 485.553C342.885 477.27 345.89 469.056 349.09 460.912" stroke="#3F3D56" stroke-width="0.585822" stroke-miterlimit="10"/>
<path d="M329.32 486.408C330.711 486.914 332.201 487.089 333.672 486.921C335.142 486.753 336.554 486.246 337.795 485.439C339.036 484.632 340.073 483.548 340.824 482.272C341.575 480.996 342.019 479.563 342.122 478.086C342.224 476.609 341.982 475.129 341.415 473.762C340.848 472.394 339.971 471.177 338.853 470.207C337.735 469.236 336.407 468.538 334.974 468.168C333.54 467.798 332.04 467.767 330.593 468.075L330.832 472.995L328.504 468.779C326.22 469.852 324.455 471.789 323.597 474.163C323.293 474.994 323.108 475.865 323.047 476.749C322.9 478.822 323.433 480.886 324.565 482.629C325.697 484.372 327.366 485.699 329.32 486.408Z" stroke="#3F3D56" stroke-width="0.585822" stroke-miterlimit="10"/>
<path d="M339.272 459.217C339.818 457.71 340.735 456.365 341.937 455.306C343.14 454.247 344.589 453.507 346.153 453.155L346.94 457.832L348.399 452.92C350.425 452.95 352.389 453.623 354.007 454.842C355.626 456.061 356.815 457.763 357.403 459.702C357.991 461.641 357.948 463.717 357.28 465.629C356.612 467.542 355.353 469.193 353.685 470.344C352.017 471.494 350.027 472.085 348.001 472.031C345.976 471.977 344.02 471.28 342.416 470.042C340.812 468.804 339.643 467.088 339.078 465.142C338.513 463.196 338.581 461.121 339.272 459.217Z" fill="#57B894"/>
<path d="M339.8 457.525C340.346 456.019 341.262 454.674 342.465 453.614C343.667 452.555 345.117 451.815 346.68 451.464L347.467 456.141L348.926 451.229C350.952 451.259 352.916 451.932 354.535 453.151C356.153 454.37 357.342 456.072 357.93 458.01C358.519 459.949 358.476 462.025 357.807 463.938C357.139 465.851 355.88 467.502 354.212 468.652C352.544 469.803 350.554 470.394 348.529 470.34C346.503 470.285 344.547 469.589 342.943 468.351C341.34 467.112 340.171 465.397 339.606 463.451C339.041 461.505 339.109 459.43 339.8 457.525H339.8Z" stroke="#3F3D56" stroke-width="0.585822" stroke-miterlimit="10"/>
<path d="M346.437 509.747C348.643 510.547 351.067 510.508 353.247 509.636C355.426 508.764 357.208 507.121 358.253 505.019C359.299 502.918 359.535 500.505 358.916 498.241C358.296 495.977 356.866 494.02 354.897 492.743L353.775 496.518L352.98 491.785C352.972 491.782 352.964 491.779 352.956 491.776C351.776 491.347 350.523 491.155 349.268 491.211C348.014 491.266 346.783 491.568 345.645 492.1C344.507 492.631 343.486 493.382 342.638 494.308C341.791 495.235 341.134 496.32 340.706 497.5C340.278 498.68 340.086 499.934 340.142 501.188C340.199 502.442 340.502 503.674 341.034 504.811C341.566 505.948 342.317 506.969 343.244 507.816C344.171 508.663 345.256 509.319 346.437 509.747H346.437Z" fill="#57B894"/>
<path d="M346.891 508.034C349.098 508.835 351.522 508.795 353.701 507.923C355.88 507.051 357.662 505.408 358.708 503.307C359.753 501.205 359.989 498.793 359.37 496.528C358.751 494.264 357.32 492.307 355.351 491.03L354.23 494.805L353.435 490.073C353.427 490.069 353.419 490.066 353.41 490.064C352.23 489.634 350.977 489.442 349.722 489.498C348.468 489.553 347.236 489.855 346.099 490.387C344.961 490.918 343.939 491.669 343.091 492.595C342.244 493.522 341.587 494.607 341.159 495.787C340.731 496.968 340.539 498.221 340.596 499.475C340.652 500.73 340.955 501.961 341.487 503.098C342.02 504.236 342.771 505.257 343.698 506.104C344.625 506.951 345.71 507.607 346.891 508.034V508.034Z" stroke="#3F3D56" stroke-width="0.585822" stroke-miterlimit="10"/>
<path d="M336.483 525.62C336.862 527.778 337.972 529.741 339.627 531.178C341.282 532.616 343.38 533.441 345.571 533.514C347.761 533.588 349.911 532.906 351.658 531.584C353.406 530.261 354.646 528.377 355.169 526.249C355.693 524.121 355.469 521.877 354.535 519.894C353.601 517.911 352.013 516.31 350.039 515.359C348.064 514.408 345.822 514.164 343.69 514.67C341.557 515.175 339.663 516.398 338.325 518.134L342.584 524.544L336.764 521.142C336.313 522.591 336.217 524.126 336.483 525.62Z" fill="#57B894"/>
<path d="M336.877 524.352C337.257 526.511 338.367 528.473 340.021 529.911C341.676 531.348 343.775 532.173 345.965 532.247C348.156 532.321 350.305 531.639 352.053 530.316C353.801 528.993 355.04 527.11 355.564 524.981C356.088 522.853 355.864 520.609 354.93 518.627C353.995 516.644 352.408 515.042 350.433 514.091C348.459 513.14 346.217 512.897 344.084 513.402C341.951 513.907 340.057 515.131 338.719 516.867L342.978 523.277L337.159 519.875C336.708 521.323 336.611 522.859 336.877 524.352Z" stroke="#3F3D56" stroke-width="0.585822" stroke-miterlimit="10"/>
<path d="M114.973 402.765C115.332 395.893 118.315 389.421 123.307 384.684C128.298 379.948 134.917 377.307 141.798 377.307C142.614 377.307 143.42 377.349 144.218 377.42C147.356 372.022 151.856 367.541 157.267 364.426C162.679 361.31 168.813 359.669 175.057 359.666C181.302 359.663 187.437 361.298 192.852 364.409C198.266 367.519 202.77 371.996 205.913 377.391C206.586 377.341 207.264 377.307 207.95 377.307C214.831 377.307 221.45 379.948 226.441 384.684C231.432 389.421 234.415 395.893 234.775 402.765" fill="#F2F2F2"/>
<path d="M120.566 400.697C120.926 393.825 123.909 387.353 128.9 382.616C133.892 377.879 140.51 375.238 147.392 375.238C148.208 375.238 149.014 375.281 149.812 375.352C152.95 369.954 157.449 365.473 162.861 362.357C168.272 359.242 174.407 357.601 180.651 357.598C186.895 357.595 193.031 359.23 198.446 362.34C203.86 365.451 208.364 369.927 211.507 375.323C212.18 375.272 212.858 375.238 213.544 375.238C220.425 375.238 227.044 377.879 232.035 382.616C237.026 387.353 240.009 393.825 240.369 400.697" stroke="#3F3D56" stroke-width="0.585822" stroke-miterlimit="10"/>
<path d="M176.195 322.68C176.195 322.68 224.476 346.654 233.133 343.324C241.79 339.995 244.787 310.361 244.787 310.361L209.159 303.701L176.195 322.68Z" fill="#2B478B"/>
<path opacity="0.1" d="M176.195 322.68C176.195 322.68 224.476 346.654 233.133 343.324C241.79 339.995 244.787 310.361 244.787 310.361L209.159 303.701L176.195 322.68Z" fill="black"/>
<path d="M276.249 286.887H244.617V314.523H276.249V286.887Z" fill="#634148"/>
<path opacity="0.1" d="M276.249 286.887H244.617V314.523H276.249V286.887Z" fill="black"/>
<path d="M215.816 404.594C215.816 404.594 214.484 433.562 223.474 432.896C232.464 432.23 223.474 405.593 223.474 405.593L215.816 404.594Z" fill="#FBBEBE"/>
<path d="M252.775 291.049C252.775 291.049 254.773 303.702 251.111 305.366C247.448 307.031 245.117 308.363 245.117 308.363L253.441 314.024L268.758 315.023L272.754 312.026L276.416 308.696C276.416 308.696 270.423 307.364 270.423 304.368C270.423 301.371 270.09 292.381 270.09 292.381L252.775 291.049Z" fill="#FBBEBE"/>
<path opacity="0.1" d="M252.775 291.049C252.775 291.049 254.773 303.702 251.111 305.366C247.448 307.031 245.117 308.363 245.117 308.363L253.441 314.024L268.758 315.023L272.754 312.026L276.416 308.696C276.416 308.696 270.423 307.364 270.423 304.368C270.423 301.371 270.09 292.381 270.09 292.381L252.775 291.049Z" fill="black"/>
<path d="M231.8 409.584C231.8 409.584 222.144 440.55 222.144 463.192C222.144 463.192 206.162 499.152 206.828 516.8L202.832 541.106L208.492 543.104L212.821 539.442C212.821 539.442 214.153 526.456 218.482 520.129C222.81 513.803 232.799 483.836 232.799 483.836C232.799 483.836 259.437 427.897 258.438 419.906C257.439 411.915 231.8 409.584 231.8 409.584Z" fill="#FBBEBE"/>
<path d="M290.736 402.594C290.736 402.594 297.062 405.59 288.072 458.865C288.072 458.865 293.066 494.16 288.738 513.472L288.072 532.784H281.079L279.748 530.787C279.748 530.787 279.415 513.472 277.084 508.811C274.753 504.149 272.755 477.179 272.755 477.179C272.755 477.179 262.1 422.239 264.431 417.577C266.762 412.916 290.736 402.594 290.736 402.594Z" fill="#FBBEBE"/>
<path d="M201.83 535.449C201.83 535.449 204.161 540.777 208.49 539.445C212.818 538.113 213.817 538.113 213.817 538.113C213.817 538.113 210.821 553.43 211.82 560.755C212.818 568.08 211.154 572.742 204.494 572.742C197.835 572.742 196.836 564.75 196.836 564.75L199.833 545.771L201.83 535.449Z" fill="#2F2E41"/>
<path d="M278.414 527.121C278.414 527.121 280.745 531.783 284.407 530.784C288.07 529.785 289.402 528.12 289.402 528.12C289.402 528.12 289.069 538.442 290.401 543.104C291.733 547.765 294.73 561.084 287.737 561.75C285.817 561.983 283.872 561.591 282.193 560.631C280.513 559.671 279.188 558.195 278.414 556.422V527.121L278.414 527.121Z" fill="#2F2E41"/>
<path d="M261.768 299.706C269.859 299.706 276.418 293.146 276.418 285.055C276.418 276.964 269.859 270.404 261.768 270.404C253.676 270.404 247.117 276.964 247.117 285.055C247.117 293.146 253.676 299.706 261.768 299.706Z" fill="#FBBEBE"/>
<path d="M288.737 311.361C288.737 311.361 277.132 306.804 272.945 307.418C271.141 308.951 269.039 310.093 266.771 310.772C264.502 311.45 262.118 311.651 259.769 311.361C251.777 310.362 248.652 306.527 248.652 306.527C248.652 306.527 227.138 311.361 228.47 313.359C229.801 315.357 235.795 347.988 235.795 347.988C235.795 347.988 239.79 376.29 235.129 385.946C230.467 395.602 228.137 411.585 230.134 412.917C232.132 414.248 254.441 420.242 257.105 421.907C259.769 423.572 260.767 417.911 262.432 418.91C264.097 419.909 267.76 421.574 270.091 420.242C272.421 418.91 295.063 406.923 294.397 404.592C293.731 402.262 285.074 373.959 282.077 368.299C279.081 362.638 281.412 350.652 283.076 348.321C284.741 345.99 288.071 343.326 288.737 336.667C289.403 330.007 288.737 311.361 288.737 311.361Z" fill="#2F2E41"/>
<path d="M229.204 312.328C229.204 312.328 226.472 314.356 225.473 318.685C224.474 323.013 223.143 357.642 223.143 357.642C223.143 357.642 210.823 405.256 213.487 406.255C216.15 407.254 223.809 409.252 224.807 408.253C225.806 407.254 237.127 366.965 236.128 362.637C235.129 358.308 237.46 345.655 237.46 345.655L229.204 312.328Z" fill="#2F2E41"/>
<path d="M290.733 374.289C290.733 374.289 272.753 365.299 270.755 371.293C268.757 377.286 289.734 383.612 289.734 383.612C289.734 383.612 297.06 380.949 297.06 379.284C297.06 377.619 290.733 374.289 290.733 374.289Z" fill="#FBBEBE"/>
<path d="M285.074 312.69L288.737 311.358C288.737 311.358 290.735 310.027 293.065 315.021C295.396 320.016 320.702 349.317 316.04 358.64C311.379 367.963 296.062 386.942 295.396 385.61C294.73 384.278 287.072 374.289 288.404 373.291C289.736 372.292 305.052 358.64 303.054 356.642C301.057 354.644 292.732 337.663 288.071 336.997C283.409 336.331 285.074 312.69 285.074 312.69Z" fill="#2F2E41"/>
<path d="M245.618 284.555C245.618 284.555 194.844 264.139 150.892 244.494C150.892 244.494 127.917 238.834 115.931 249.489C115.931 249.489 125.92 248.157 125.92 253.817C125.92 253.817 134.577 265.138 107.606 267.136C88.8234 268.528 81.3449 279.77 78.5354 286.468C76.342 291.844 72.4863 296.378 67.5319 299.406C61.0401 303.286 51.6313 306.14 40.6797 301.099C40.6797 301.099 41.3023 302.056 42.4833 303.651C63.6281 332.206 142.37 357.057 170.176 334.937C187.36 321.266 214.602 303.988 234.13 312.691C264.763 326.342 270.424 320.349 270.424 320.349L271.756 316.686C271.756 316.686 242.122 308.695 241.456 298.373C240.79 288.051 245.618 284.555 245.618 284.555Z" fill="#2B478B"/>
<path d="M275.252 287.219C275.252 287.219 282.411 290.049 283.743 299.372C283.743 299.372 291.401 314.356 282.744 318.018C274.087 321.681 272.422 320.682 272.422 320.682V319.017C272.422 319.017 281.745 313.357 279.747 309.028C277.749 304.7 275.252 287.219 275.252 287.219Z" fill="#2B478B"/>
<path d="M262.434 329.672C262.434 329.672 264.764 323.678 264.098 323.678C263.432 323.678 266.807 319.992 268.117 321.336C269.426 322.679 271.757 326.675 269.093 327.674C266.429 328.673 262.434 329.672 262.434 329.672Z" fill="#2B478B"/>
<path d="M278.841 326.115C278.841 326.115 272.755 324.039 272.783 324.705C272.811 325.37 268.985 322.154 270.273 320.789C271.56 319.424 275.453 316.927 276.564 319.546C277.674 322.165 278.841 326.115 278.841 326.115Z" fill="#2B478B"/>
<path d="M269.093 317.019C269.093 317.019 272.133 315.313 273.943 317.997C275.753 320.682 271.757 325.343 269.093 325.343C266.43 325.343 266.43 319.683 266.43 319.683L269.093 317.019Z" fill="#2B478B"/>
<path opacity="0.1" d="M269.093 317.019C269.093 317.019 272.133 315.313 273.943 317.997C275.753 320.682 271.757 325.343 269.093 325.343C266.43 325.343 266.43 319.683 266.43 319.683L269.093 317.019Z" fill="black"/>
<path d="M249.064 261.146C247.309 262.593 245.644 264.215 244.552 266.211C243.98 267.331 243.501 268.496 243.121 269.694C241.775 273.57 238.428 277.494 239.844 281.344C240.249 282.443 240.879 283.601 240.516 284.714C240.195 285.703 239.201 286.28 238.483 287.031C236.941 288.644 236.682 291.064 236.587 293.293C236.415 297.376 238.66 302.187 241.372 305.243C241.961 305.818 242.507 306.436 243.005 307.091C243.34 307.614 243.56 308.202 243.648 308.817C243.736 309.432 243.691 310.059 243.516 310.655L247.467 309.83C247.61 311.289 247.655 312.755 247.601 314.22C248.538 314.323 249.482 314.1 250.273 313.588C251.065 313.077 251.656 312.308 251.947 311.411C252.171 312.456 252.536 313.465 253.033 314.411C254.192 312.961 255.081 311.315 255.657 309.55C256.413 307.291 256.575 304.874 256.128 302.533C255.71 300.824 255.14 299.155 254.427 297.546C253.031 294.017 251.891 290.394 250.752 286.774C250.16 284.894 249.561 282.953 249.741 280.99L251.145 280.837C251.16 280.062 251.31 279.295 251.588 278.571C252.411 278.745 253.203 279.043 253.936 279.455L255.555 275.348C256.623 276.456 258.156 276.957 259.624 277.419L265.204 279.176L265.238 278.072C267.593 280.157 270.275 281.839 273.177 283.052C273.014 282.854 272.894 282.624 272.826 282.376C272.759 282.128 272.745 281.869 272.785 281.615C274.16 284.078 273.61 287.147 272.762 289.837C271.913 292.528 270.787 295.267 271.129 298.067C271.385 300.161 272.458 302.164 272.259 304.265C272.161 305.299 271.756 306.283 271.63 307.314C271.33 309.774 272.624 312.117 273.872 314.257L276.3 310.923C277.188 309.703 278.104 308.456 279.362 307.623C280.653 306.766 282.254 306.382 283.379 305.317C285.388 303.416 285.133 300.177 284.479 297.49C284.132 296.061 283.712 294.612 283.84 293.148C284.056 290.665 285.781 288.61 286.753 286.315C287.446 284.642 287.746 282.832 287.631 281.024C287.516 279.217 286.988 277.46 286.088 275.888C284.883 273.819 283.061 272.154 281.924 270.047C280.793 267.949 280.362 265.453 278.812 263.643C278.055 262.819 277.175 262.118 276.203 261.564C271.798 258.917 266.85 257.303 261.732 256.843C256.878 256.336 252.784 258.08 249.064 261.146Z" fill="#634148"/>
<path d="M470.219 163.087L476.448 158.105C471.609 157.571 469.62 160.21 468.807 162.299C465.026 160.729 460.91 162.787 460.91 162.787L473.374 167.312C472.745 165.632 471.651 164.167 470.219 163.087Z" fill="#3F3D56"/>
<path d="M439.988 178.861L446.218 173.878C441.378 173.344 439.39 175.984 438.576 178.073C434.795 176.503 430.68 178.56 430.68 178.56L443.144 183.085C442.515 181.406 441.42 179.94 439.988 178.861Z" fill="#3F3D56"/>
<path d="M470.219 203.835L476.448 198.853C471.609 198.319 469.62 200.958 468.807 203.047C465.026 201.477 460.91 203.535 460.91 203.535L473.374 208.06C472.745 206.38 471.651 204.915 470.219 203.835Z" fill="#3F3D56"/>
<defs>
<linearGradient id="paint0_linear_2012_767" x1="140.958" y1="249.844" x2="662.507" y2="984.499" gradientUnits="userSpaceOnUse">
<stop stop-color="#B06AB3"/>
<stop offset="1" stop-color="#4A68DB"/>
</linearGradient>
<linearGradient id="paint1_linear_2012_767" x1="563.727" y1="571.466" x2="563.727" y2="233.154" gradientUnits="userSpaceOnUse">
<stop stop-color="#808080" stop-opacity="0.25"/>
<stop offset="0.54" stop-color="#808080" stop-opacity="0.12"/>
<stop offset="1" stop-color="#808080" stop-opacity="0.1"/>
</linearGradient>
</defs>
</svg>
