<svg width="780" height="1076" viewBox="0 0 780 1076" fill="none" xmlns="http://www.w3.org/2000/svg">
<rect y="-4.62891" width="780" height="1080" fill="url(#paint0_linear_2012_676)"/>
<path d="M107.419 689.824H130.987V695.632H114.715V703.696H129.979V709.552H114.715V718.192H130.987V724H107.419V689.824ZM165.833 699.04C168.617 699.04 170.681 699.888 172.025 701.584C173.401 703.248 174.089 705.808 174.089 709.264V724H166.841V709.504C166.841 707.808 166.569 706.592 166.025 705.856C165.481 705.088 164.585 704.704 163.337 704.704C161.865 704.704 160.729 705.216 159.929 706.24C159.129 707.264 158.729 708.704 158.729 710.56V724H151.481V709.504C151.481 707.84 151.193 706.624 150.617 705.856C150.073 705.088 149.193 704.704 147.977 704.704C146.505 704.704 145.353 705.216 144.521 706.24C143.721 707.264 143.321 708.704 143.321 710.56V724H136.073V706.624C136.073 704.032 135.945 701.712 135.689 699.664H142.505L142.937 703.312C143.673 701.936 144.697 700.88 146.009 700.144C147.353 699.408 148.889 699.04 150.617 699.04C154.233 699.04 156.633 700.544 157.817 703.552C158.617 702.176 159.721 701.088 161.129 700.288C162.569 699.456 164.137 699.04 165.833 699.04ZM195.088 699.04C197.2 699.04 199.072 699.568 200.704 700.624C202.336 701.648 203.6 703.12 204.496 705.04C205.392 706.928 205.84 709.12 205.84 711.616C205.84 714.112 205.376 716.336 204.448 718.288C203.552 720.208 202.288 721.712 200.656 722.8C199.024 723.856 197.168 724.384 195.088 724.384C193.392 724.384 191.856 724.032 190.48 723.328C189.136 722.592 188.112 721.6 187.408 720.352V724H180.208V688.672H187.456V703.072C188.16 701.824 189.184 700.848 190.528 700.144C191.904 699.408 193.424 699.04 195.088 699.04ZM193.024 718.864C194.816 718.864 196.192 718.24 197.152 716.992C198.112 715.744 198.592 713.952 198.592 711.616C198.592 709.376 198.112 707.648 197.152 706.432C196.192 705.216 194.816 704.608 193.024 704.608C191.232 704.608 189.84 705.232 188.848 706.48C187.888 707.696 187.408 709.44 187.408 711.712C187.408 714.016 187.888 715.792 188.848 717.04C189.84 718.256 191.232 718.864 193.024 718.864ZM235.273 699.664V724H228.121V720.4C227.385 721.648 226.345 722.624 225.001 723.328C223.657 724.032 222.137 724.384 220.441 724.384C218.329 724.384 216.457 723.872 214.825 722.848C213.225 721.824 211.961 720.368 211.033 718.48C210.137 716.56 209.689 714.352 209.689 711.856C209.689 709.36 210.137 707.136 211.033 705.184C211.961 703.232 213.241 701.728 214.873 700.672C216.505 699.584 218.361 699.04 220.441 699.04C222.137 699.04 223.657 699.408 225.001 700.144C226.345 700.88 227.385 701.872 228.121 703.12V699.664H235.273ZM222.553 718.864C224.345 718.864 225.721 718.256 226.681 717.04C227.641 715.824 228.121 714.064 228.121 711.76C228.121 709.456 227.641 707.696 226.681 706.48C225.721 705.232 224.345 704.608 222.553 704.608C220.761 704.608 219.369 705.248 218.377 706.528C217.385 707.808 216.889 709.584 216.889 711.856C216.889 714.128 217.369 715.872 218.329 717.088C219.321 718.272 220.729 718.864 222.553 718.864ZM255.683 699.088C256.707 699.088 257.571 699.248 258.275 699.568L258.227 706.192C257.043 705.648 255.859 705.376 254.675 705.376C252.755 705.376 251.283 705.904 250.259 706.96C249.267 707.984 248.771 709.424 248.771 711.28V724H241.523V706.624C241.523 704.032 241.395 701.712 241.139 699.664H247.955L248.435 703.84C249.043 702.304 249.987 701.136 251.267 700.336C252.579 699.504 254.051 699.088 255.683 699.088ZM278.411 724L268.859 713.104V724H261.611V688.672H268.859V710.128L277.979 699.712H286.667L276.347 711.376L287.291 724H278.411ZM315.042 724.384C312.45 724.384 310.178 723.872 308.226 722.848C306.306 721.824 304.818 720.352 303.762 718.432C302.738 716.512 302.226 714.272 302.226 711.712C302.226 709.152 302.738 706.912 303.762 704.992C304.818 703.072 306.306 701.6 308.226 700.576C310.178 699.552 312.45 699.04 315.042 699.04C317.602 699.04 319.842 699.552 321.762 700.576C323.682 701.6 325.154 703.072 326.178 704.992C327.234 706.912 327.762 709.152 327.762 711.712C327.762 714.272 327.234 716.512 326.178 718.432C325.154 720.352 323.682 721.824 321.762 722.848C319.842 723.872 317.602 724.384 315.042 724.384ZM315.042 718.864C316.834 718.864 318.194 718.272 319.122 717.088C320.082 715.904 320.562 714.112 320.562 711.712C320.562 709.344 320.082 707.568 319.122 706.384C318.194 705.168 316.834 704.56 315.042 704.56C313.218 704.56 311.826 705.168 310.866 706.384C309.906 707.568 309.426 709.344 309.426 711.712C309.426 716.48 311.298 718.864 315.042 718.864ZM347.819 699.04C353.579 699.04 356.459 702.448 356.459 709.264V724H349.211V709.6C349.211 707.904 348.891 706.672 348.251 705.904C347.643 705.104 346.667 704.704 345.323 704.704C343.723 704.704 342.443 705.216 341.483 706.24C340.523 707.264 340.043 708.64 340.043 710.368V724H332.795V706.624C332.795 704.032 332.667 701.712 332.411 699.664H339.227L339.707 703.504C340.571 702.064 341.691 700.96 343.067 700.192C344.475 699.424 346.059 699.04 347.819 699.04ZM400.533 699.664L389.301 725.296C387.925 728.4 386.181 730.672 384.069 732.112C381.989 733.584 379.429 734.528 376.389 734.944L374.709 729.376C376.949 728.896 378.629 728.288 379.749 727.552C380.901 726.816 381.797 725.744 382.437 724.336L383.157 722.752L373.125 699.664H380.709L386.949 715.456L393.381 699.664H400.533ZM414.471 724.384C411.879 724.384 409.607 723.872 407.655 722.848C405.735 721.824 404.247 720.352 403.191 718.432C402.167 716.512 401.655 714.272 401.655 711.712C401.655 709.152 402.167 706.912 403.191 704.992C404.247 703.072 405.735 701.6 407.655 700.576C409.607 699.552 411.879 699.04 414.471 699.04C417.031 699.04 419.271 699.552 421.191 700.576C423.111 701.6 424.583 703.072 425.607 704.992C426.663 706.912 427.191 709.152 427.191 711.712C427.191 714.272 426.663 716.512 425.607 718.432C424.583 720.352 423.111 721.824 421.191 722.848C419.271 723.872 417.031 724.384 414.471 724.384ZM414.471 718.864C416.263 718.864 417.623 718.272 418.551 717.088C419.511 715.904 419.991 714.112 419.991 711.712C419.991 709.344 419.511 707.568 418.551 706.384C417.623 705.168 416.263 704.56 414.471 704.56C412.647 704.56 411.255 705.168 410.295 706.384C409.335 707.568 408.855 709.344 408.855 711.712C408.855 716.48 410.727 718.864 414.471 718.864ZM455.455 699.664V724H448.399V720.448C447.631 721.728 446.623 722.704 445.375 723.376C444.127 724.048 442.719 724.384 441.151 724.384C438.111 724.384 435.839 723.536 434.335 721.84C432.831 720.144 432.079 717.584 432.079 714.16V699.664H439.327V714.304C439.327 717.248 440.591 718.72 443.119 718.72C444.623 718.72 445.839 718.208 446.767 717.184C447.695 716.16 448.159 714.816 448.159 713.152V699.664H455.455ZM475.893 699.088C476.917 699.088 477.781 699.248 478.485 699.568L478.437 706.192C477.253 705.648 476.069 705.376 474.885 705.376C472.965 705.376 471.493 705.904 470.469 706.96C469.477 707.984 468.981 709.424 468.981 711.28V724H461.733V706.624C461.733 704.032 461.605 701.712 461.349 699.664H468.165L468.645 703.84C469.253 702.304 470.197 701.136 471.477 700.336C472.789 699.504 474.261 699.088 475.893 699.088ZM489.672 728.464C490.6 728.688 491.384 728.8 492.024 728.8C493.112 728.8 493.992 728.48 494.664 727.84C495.368 727.2 495.72 726.208 495.72 724.864V699.664H502.968V725.056C502.968 728.128 502.184 730.512 500.616 732.208C499.048 733.904 496.776 734.752 493.8 734.752C492.136 734.752 490.76 734.544 489.672 734.128V728.464ZM503.16 688.24V695.056H495.432V688.24H503.16ZM520.908 724.384C518.316 724.384 516.044 723.872 514.092 722.848C512.172 721.824 510.684 720.352 509.628 718.432C508.604 716.512 508.092 714.272 508.092 711.712C508.092 709.152 508.604 706.912 509.628 704.992C510.684 703.072 512.172 701.6 514.092 700.576C516.044 699.552 518.316 699.04 520.908 699.04C523.468 699.04 525.708 699.552 527.628 700.576C529.548 701.6 531.02 703.072 532.044 704.992C533.1 706.912 533.628 709.152 533.628 711.712C533.628 714.272 533.1 716.512 532.044 718.432C531.02 720.352 529.548 721.824 527.628 722.848C525.708 723.872 523.468 724.384 520.908 724.384ZM520.908 718.864C522.7 718.864 524.06 718.272 524.988 717.088C525.948 715.904 526.428 714.112 526.428 711.712C526.428 709.344 525.948 707.568 524.988 706.384C524.06 705.168 522.7 704.56 520.908 704.56C519.084 704.56 517.692 705.168 516.732 706.384C515.772 707.568 515.292 709.344 515.292 711.712C515.292 716.48 517.164 718.864 520.908 718.864ZM561.893 699.664V724H554.837V720.448C554.069 721.728 553.061 722.704 551.813 723.376C550.565 724.048 549.157 724.384 547.589 724.384C544.549 724.384 542.277 723.536 540.773 721.84C539.269 720.144 538.517 717.584 538.517 714.16V699.664H545.765V714.304C545.765 717.248 547.029 718.72 549.557 718.72C551.061 718.72 552.277 718.208 553.205 717.184C554.133 716.16 554.597 714.816 554.597 713.152V699.664H561.893ZM582.33 699.088C583.354 699.088 584.218 699.248 584.922 699.568L584.874 706.192C583.69 705.648 582.506 705.376 581.322 705.376C579.402 705.376 577.93 705.904 576.906 706.96C575.914 707.984 575.418 709.424 575.418 711.28V724H568.17V706.624C568.17 704.032 568.042 701.712 567.786 699.664H574.602L575.082 703.84C575.69 702.304 576.634 701.136 577.914 700.336C579.226 699.504 580.698 699.088 582.33 699.088ZM603.282 699.04C609.042 699.04 611.922 702.448 611.922 709.264V724H604.674V709.6C604.674 707.904 604.354 706.672 603.714 705.904C603.106 705.104 602.13 704.704 600.786 704.704C599.186 704.704 597.906 705.216 596.946 706.24C595.986 707.264 595.506 708.64 595.506 710.368V724H588.258V706.624C588.258 704.032 588.13 701.712 587.874 699.664H594.69L595.17 703.504C596.034 702.064 597.154 700.96 598.53 700.192C599.938 699.424 601.522 699.04 603.282 699.04ZM639.935 712.432H623.903C624.031 714.704 624.623 716.368 625.679 717.424C626.735 718.448 628.303 718.96 630.383 718.96C631.631 718.96 632.879 718.752 634.127 718.336C635.375 717.92 636.527 717.312 637.583 716.512L639.503 721.408C638.351 722.336 636.911 723.072 635.183 723.616C633.487 724.128 631.775 724.384 630.047 724.384C625.951 724.384 622.735 723.264 620.399 721.024C618.063 718.752 616.895 715.664 616.895 711.76C616.895 709.296 617.391 707.104 618.383 705.184C619.407 703.232 620.831 701.728 622.655 700.672C624.479 699.584 626.543 699.04 628.847 699.04C632.271 699.04 634.975 700.16 636.959 702.4C638.943 704.608 639.935 707.6 639.935 711.376V712.432ZM629.039 704.128C627.663 704.128 626.543 704.528 625.679 705.328C624.847 706.128 624.303 707.296 624.047 708.832H633.695C633.311 705.696 631.759 704.128 629.039 704.128ZM668.417 699.664L657.185 725.296C655.809 728.4 654.065 730.672 651.953 732.112C649.873 733.584 647.313 734.528 644.273 734.944L642.593 729.376C644.833 728.896 646.513 728.288 647.633 727.552C648.785 726.816 649.681 725.744 650.321 724.336L651.041 722.752L641.009 699.664H648.593L654.833 715.456L661.265 699.664H668.417Z" fill="#F7F7F7"/>
<path d="M159.87 840.912H162.342V858H159.87V840.912ZM172.931 845.616C175.827 845.616 177.275 847.232 177.275 850.464V858H174.851V850.608C174.851 849.552 174.643 848.784 174.227 848.304C173.827 847.824 173.179 847.584 172.283 847.584C171.259 847.584 170.435 847.904 169.811 848.544C169.203 849.184 168.899 850.04 168.899 851.112V858H166.499V849.312C166.499 848.048 166.435 846.912 166.307 845.904H168.563L168.779 847.992C169.163 847.224 169.715 846.64 170.435 846.24C171.171 845.824 172.003 845.616 172.931 845.616ZM198.988 845.904V858H196.588V855.936C196.236 856.656 195.708 857.208 195.004 857.592C194.316 857.976 193.508 858.168 192.58 858.168C191.508 858.168 190.564 857.912 189.748 857.4C188.948 856.888 188.324 856.168 187.876 855.24C187.428 854.296 187.204 853.2 187.204 851.952C187.204 850.704 187.428 849.6 187.876 848.64C188.34 847.68 188.98 846.936 189.796 846.408C190.612 845.88 191.54 845.616 192.58 845.616C193.508 845.616 194.316 845.816 195.004 846.216C195.692 846.6 196.22 847.152 196.588 847.872V845.904H198.988ZM193.156 856.248C194.244 856.248 195.084 855.872 195.676 855.12C196.284 854.352 196.588 853.28 196.588 851.904C196.588 850.512 196.284 849.44 195.676 848.688C195.084 847.936 194.236 847.56 193.132 847.56C192.044 847.56 191.188 847.952 190.564 848.736C189.956 849.504 189.652 850.576 189.652 851.952C189.652 853.312 189.956 854.368 190.564 855.12C191.188 855.872 192.052 856.248 193.156 856.248ZM220.908 845.904V857.784C220.908 859.624 220.42 861.008 219.444 861.936C218.484 862.88 217.052 863.352 215.148 863.352C213.308 863.352 211.7 862.952 210.324 862.152L210.732 860.256C211.484 860.656 212.204 860.952 212.892 861.144C213.596 861.336 214.34 861.432 215.124 861.432C217.38 861.432 218.508 860.28 218.508 857.976V855.36C218.14 856.064 217.604 856.624 216.9 857.04C216.196 857.44 215.38 857.64 214.452 857.64C213.396 857.64 212.452 857.392 211.62 856.896C210.804 856.4 210.164 855.696 209.7 854.784C209.252 853.872 209.028 852.824 209.028 851.64C209.028 850.456 209.252 849.408 209.7 848.496C210.164 847.584 210.804 846.88 211.62 846.384C212.452 845.872 213.396 845.616 214.452 845.616C215.38 845.616 216.196 845.816 216.9 846.216C217.604 846.6 218.14 847.152 218.508 847.872V845.904H220.908ZM215.004 855.696C216.092 855.696 216.948 855.336 217.572 854.616C218.196 853.896 218.508 852.904 218.508 851.64C218.508 850.376 218.196 849.384 217.572 848.664C216.964 847.928 216.108 847.56 215.004 847.56C213.916 847.56 213.052 847.928 212.412 848.664C211.788 849.384 211.476 850.376 211.476 851.64C211.476 852.888 211.788 853.88 212.412 854.616C213.052 855.336 213.916 855.696 215.004 855.696ZM235.187 852H226.547C226.627 854.832 227.915 856.248 230.411 856.248C231.803 856.248 233.075 855.792 234.227 854.88L234.971 856.608C234.427 857.088 233.731 857.472 232.883 857.76C232.051 858.032 231.211 858.168 230.363 858.168C228.427 858.168 226.907 857.616 225.803 856.512C224.699 855.392 224.147 853.864 224.147 851.928C224.147 850.696 224.387 849.6 224.867 848.64C225.363 847.68 226.051 846.936 226.931 846.408C227.811 845.88 228.811 845.616 229.931 845.616C231.563 845.616 232.843 846.144 233.771 847.2C234.715 848.256 235.187 849.72 235.187 851.592V852ZM229.979 847.416C229.067 847.416 228.323 847.688 227.747 848.232C227.171 848.776 226.803 849.552 226.643 850.56H233.051C232.955 849.536 232.643 848.76 232.115 848.232C231.587 847.688 230.875 847.416 229.979 847.416ZM244.8 845.616C247.696 845.616 249.144 847.232 249.144 850.464V858H246.72V850.608C246.72 849.552 246.512 848.784 246.096 848.304C245.696 847.824 245.048 847.584 244.152 847.584C243.128 847.584 242.304 847.904 241.68 848.544C241.072 849.184 240.768 850.04 240.768 851.112V858H238.368V849.312C238.368 848.048 238.304 846.912 238.176 845.904H240.432L240.648 847.992C241.032 847.224 241.584 846.64 242.304 846.24C243.04 845.824 243.872 845.616 244.8 845.616ZM256.139 847.776V853.848C256.139 854.68 256.315 855.272 256.667 855.624C257.035 855.96 257.539 856.128 258.179 856.128C258.595 856.128 259.019 856.064 259.451 855.936V857.904C258.923 858.08 258.323 858.168 257.651 858.168C256.403 858.168 255.435 857.816 254.747 857.112C254.059 856.408 253.715 855.384 253.715 854.04V847.776H251.363V845.904H253.715V842.88L256.139 842.04V845.904H259.475V847.776H256.139ZM262.113 840.336H264.513V858H262.113V840.336ZM278.787 852H270.147C270.227 854.832 271.515 856.248 274.011 856.248C275.403 856.248 276.675 855.792 277.827 854.88L278.571 856.608C278.027 857.088 277.331 857.472 276.483 857.76C275.651 858.032 274.811 858.168 273.963 858.168C272.027 858.168 270.507 857.616 269.403 856.512C268.299 855.392 267.747 853.864 267.747 851.928C267.747 850.696 267.987 849.6 268.467 848.64C268.963 847.68 269.651 846.936 270.531 846.408C271.411 845.88 272.411 845.616 273.531 845.616C275.163 845.616 276.443 846.144 277.371 847.2C278.315 848.256 278.787 849.72 278.787 851.592V852ZM273.579 847.416C272.667 847.416 271.923 847.688 271.347 848.232C270.771 848.776 270.403 849.552 270.243 850.56H276.651C276.555 849.536 276.243 848.76 275.715 848.232C275.187 847.688 274.475 847.416 273.579 847.416ZM307.535 845.904L302.927 858H300.719L297.479 849.24L294.263 858H292.055L287.447 845.904H289.967L293.255 855.144L296.591 845.904H298.511L301.847 855.144L305.159 845.904H307.535ZM321.09 845.904V858H318.69V855.936C318.338 856.656 317.81 857.208 317.106 857.592C316.418 857.976 315.61 858.168 314.682 858.168C313.61 858.168 312.666 857.912 311.85 857.4C311.05 856.888 310.426 856.168 309.978 855.24C309.53 854.296 309.306 853.2 309.306 851.952C309.306 850.704 309.53 849.6 309.978 848.64C310.442 847.68 311.082 846.936 311.898 846.408C312.714 845.88 313.642 845.616 314.682 845.616C315.61 845.616 316.418 845.816 317.106 846.216C317.794 846.6 318.322 847.152 318.69 847.872V845.904H321.09ZM315.258 856.248C316.346 856.248 317.186 855.872 317.778 855.12C318.386 854.352 318.69 853.28 318.69 851.904C318.69 850.512 318.386 849.44 317.778 848.688C317.186 847.936 316.338 847.56 315.234 847.56C314.146 847.56 313.29 847.952 312.666 848.736C312.058 849.504 311.754 850.576 311.754 851.952C311.754 853.312 312.058 854.368 312.666 855.12C313.29 855.872 314.154 856.248 315.258 856.248ZM336.043 845.904L330.403 858.984C329.779 860.408 328.995 861.448 328.051 862.104C327.123 862.776 325.971 863.224 324.595 863.448L324.067 861.576C325.203 861.32 326.059 860.984 326.635 860.568C327.227 860.168 327.699 859.56 328.051 858.744L328.483 857.736L323.395 845.904H325.963L329.755 855.264L333.619 845.904H336.043ZM339.948 855.12V857.088C339.948 857.84 339.82 858.52 339.564 859.128C339.308 859.752 338.876 860.368 338.268 860.976L337.236 860.136C337.908 859.4 338.292 858.688 338.388 858H337.068V855.12H339.948ZM361.36 845.904L355.72 858.984C355.096 860.408 354.312 861.448 353.368 862.104C352.44 862.776 351.288 863.224 349.912 863.448L349.384 861.576C350.52 861.32 351.376 860.984 351.952 860.568C352.544 860.168 353.016 859.56 353.368 858.744L353.8 857.736L348.712 845.904H351.28L355.072 855.264L358.936 845.904H361.36ZM368.679 858.168C367.495 858.168 366.455 857.912 365.559 857.4C364.663 856.888 363.967 856.16 363.471 855.216C362.991 854.272 362.751 853.168 362.751 851.904C362.751 850.64 362.991 849.536 363.471 848.592C363.967 847.632 364.663 846.896 365.559 846.384C366.455 845.872 367.495 845.616 368.679 845.616C369.847 845.616 370.879 845.872 371.775 846.384C372.671 846.896 373.359 847.632 373.839 848.592C374.335 849.536 374.583 850.64 374.583 851.904C374.583 853.168 374.335 854.272 373.839 855.216C373.359 856.16 372.671 856.888 371.775 857.4C370.879 857.912 369.847 858.168 368.679 858.168ZM368.655 856.248C369.775 856.248 370.631 855.88 371.223 855.144C371.815 854.408 372.111 853.328 372.111 851.904C372.111 850.512 371.807 849.44 371.199 848.688C370.607 847.936 369.767 847.56 368.679 847.56C367.575 847.56 366.719 847.936 366.111 848.688C365.503 849.44 365.199 850.512 365.199 851.904C365.199 853.328 365.495 854.408 366.087 855.144C366.695 855.88 367.551 856.248 368.655 856.248ZM388.329 845.904V858H385.977V855.984C385.593 856.688 385.065 857.232 384.393 857.616C383.721 857.984 382.961 858.168 382.113 858.168C379.201 858.168 377.745 856.552 377.745 853.32V845.904H380.145V853.296C380.145 854.288 380.345 855.024 380.745 855.504C381.161 855.968 381.785 856.2 382.617 856.2C383.609 856.2 384.401 855.88 384.993 855.24C385.601 854.6 385.905 853.752 385.905 852.696V845.904H388.329ZM404.334 858.168C403.118 858.168 402.054 857.912 401.142 857.4C400.246 856.888 399.558 856.168 399.078 855.24C398.598 854.296 398.358 853.2 398.358 851.952C398.358 850.704 398.606 849.6 399.102 848.64C399.614 847.68 400.326 846.936 401.238 846.408C402.15 845.88 403.214 845.616 404.43 845.616C405.278 845.616 406.094 845.76 406.878 846.048C407.662 846.32 408.294 846.696 408.774 847.176L408.03 848.928C406.894 848.032 405.75 847.584 404.598 847.584C403.43 847.584 402.518 847.968 401.862 848.736C401.206 849.488 400.878 850.552 400.878 851.928C400.878 853.304 401.206 854.368 401.862 855.12C402.518 855.856 403.43 856.224 404.598 856.224C405.782 856.224 406.926 855.776 408.03 854.88L408.774 856.632C408.262 857.112 407.606 857.488 406.806 857.76C406.022 858.032 405.198 858.168 404.334 858.168ZM422.518 845.904V858H420.118V855.936C419.766 856.656 419.238 857.208 418.534 857.592C417.846 857.976 417.038 858.168 416.11 858.168C415.038 858.168 414.094 857.912 413.278 857.4C412.478 856.888 411.854 856.168 411.406 855.24C410.958 854.296 410.734 853.2 410.734 851.952C410.734 850.704 410.958 849.6 411.406 848.64C411.87 847.68 412.51 846.936 413.326 846.408C414.142 845.88 415.07 845.616 416.11 845.616C417.038 845.616 417.846 845.816 418.534 846.216C419.222 846.6 419.75 847.152 420.118 847.872V845.904H422.518ZM416.686 856.248C417.774 856.248 418.614 855.872 419.206 855.12C419.814 854.352 420.118 853.28 420.118 851.904C420.118 850.512 419.814 849.44 419.206 848.688C418.614 847.936 417.766 847.56 416.662 847.56C415.574 847.56 414.718 847.952 414.094 848.736C413.486 849.504 413.182 850.576 413.182 851.952C413.182 853.312 413.486 854.368 414.094 855.12C414.718 855.872 415.582 856.248 416.686 856.248ZM432.911 845.616C435.807 845.616 437.255 847.232 437.255 850.464V858H434.831V850.608C434.831 849.552 434.623 848.784 434.207 848.304C433.807 847.824 433.159 847.584 432.263 847.584C431.239 847.584 430.415 847.904 429.791 848.544C429.183 849.184 428.879 850.04 428.879 851.112V858H426.479V849.312C426.479 848.048 426.415 846.912 426.287 845.904H428.543L428.759 847.992C429.143 847.224 429.695 846.64 430.415 846.24C431.151 845.824 431.983 845.616 432.911 845.616ZM452.128 858.168C450.016 858.168 448.352 857.656 447.136 856.632L447.856 854.88C449.12 855.84 450.568 856.32 452.2 856.32C453.032 856.32 453.664 856.184 454.096 855.912C454.528 855.624 454.744 855.224 454.744 854.712C454.744 854.28 454.592 853.944 454.288 853.704C454 853.448 453.504 853.232 452.8 853.056L450.784 852.576C449.728 852.352 448.92 851.96 448.36 851.4C447.816 850.824 447.544 850.112 447.544 849.264C447.544 848.176 447.976 847.296 448.84 846.624C449.72 845.952 450.88 845.616 452.32 845.616C453.184 845.616 454 845.752 454.768 846.024C455.552 846.296 456.216 846.68 456.76 847.176L456.016 848.88C454.848 847.952 453.616 847.488 452.32 847.488C451.536 847.488 450.928 847.64 450.496 847.944C450.064 848.232 449.848 848.64 449.848 849.168C449.848 849.584 449.984 849.92 450.256 850.176C450.528 850.432 450.96 850.632 451.552 850.776L453.616 851.28C454.768 851.536 455.616 851.944 456.16 852.504C456.72 853.048 457 853.76 457 854.64C457 855.728 456.56 856.592 455.68 857.232C454.816 857.856 453.632 858.168 452.128 858.168ZM466.689 845.616C469.585 845.616 471.033 847.232 471.033 850.464V858H468.609V850.608C468.609 849.552 468.401 848.784 467.985 848.304C467.585 847.824 466.937 847.584 466.041 847.584C465.017 847.584 464.193 847.904 463.569 848.544C462.961 849.184 462.657 850.04 462.657 851.112V858H460.257V840.336H462.657V847.776C463.057 847.072 463.609 846.536 464.313 846.168C465.017 845.8 465.809 845.616 466.689 845.616ZM485.948 845.904V858H483.548V855.936C483.196 856.656 482.668 857.208 481.964 857.592C481.276 857.976 480.468 858.168 479.54 858.168C478.468 858.168 477.524 857.912 476.708 857.4C475.908 856.888 475.284 856.168 474.836 855.24C474.388 854.296 474.164 853.2 474.164 851.952C474.164 850.704 474.388 849.6 474.836 848.64C475.3 847.68 475.94 846.936 476.756 846.408C477.572 845.88 478.5 845.616 479.54 845.616C480.468 845.616 481.276 845.816 481.964 846.216C482.652 846.6 483.18 847.152 483.548 847.872V845.904H485.948ZM480.116 856.248C481.204 856.248 482.044 855.872 482.636 855.12C483.244 854.352 483.548 853.28 483.548 851.904C483.548 850.512 483.244 849.44 482.636 848.688C482.044 847.936 481.196 847.56 480.092 847.56C479.004 847.56 478.148 847.952 477.524 848.736C476.916 849.504 476.612 850.576 476.612 851.952C476.612 853.312 476.916 854.368 477.524 855.12C478.148 855.872 479.012 856.248 480.116 856.248ZM498.093 858L492.309 852.288V858H489.909V840.336H492.309V851.376L497.685 845.928H500.685L494.901 851.736L501.189 858H498.093ZM513.191 852H504.551C504.631 854.832 505.919 856.248 508.415 856.248C509.807 856.248 511.079 855.792 512.231 854.88L512.975 856.608C512.431 857.088 511.735 857.472 510.887 857.76C510.055 858.032 509.215 858.168 508.367 858.168C506.431 858.168 504.911 857.616 503.807 856.512C502.703 855.392 502.151 853.864 502.151 851.928C502.151 850.696 502.391 849.6 502.871 848.64C503.367 847.68 504.055 846.936 504.935 846.408C505.815 845.88 506.815 845.616 507.935 845.616C509.567 845.616 510.847 846.144 511.775 847.2C512.719 848.256 513.191 849.72 513.191 851.592V852ZM507.983 847.416C507.071 847.416 506.327 847.688 505.751 848.232C505.175 848.776 504.807 849.552 504.647 850.56H511.055C510.959 849.536 510.647 848.76 510.119 848.232C509.591 847.688 508.879 847.416 507.983 847.416ZM526.315 847.776V853.848C526.315 854.68 526.491 855.272 526.843 855.624C527.211 855.96 527.715 856.128 528.355 856.128C528.771 856.128 529.195 856.064 529.627 855.936V857.904C529.099 858.08 528.499 858.168 527.827 858.168C526.579 858.168 525.611 857.816 524.923 857.112C524.235 856.408 523.891 855.384 523.891 854.04V847.776H521.539V845.904H523.891V842.88L526.315 842.04V845.904H529.651V847.776H526.315ZM538.722 845.616C541.618 845.616 543.066 847.232 543.066 850.464V858H540.642V850.608C540.642 849.552 540.434 848.784 540.018 848.304C539.618 847.824 538.97 847.584 538.074 847.584C537.05 847.584 536.226 847.904 535.602 848.544C534.994 849.184 534.69 850.04 534.69 851.112V858H532.29V840.336H534.69V847.776C535.09 847.072 535.642 846.536 536.346 846.168C537.05 845.8 537.842 845.616 538.722 845.616ZM557.237 852H548.597C548.677 854.832 549.965 856.248 552.461 856.248C553.853 856.248 555.125 855.792 556.277 854.88L557.021 856.608C556.477 857.088 555.781 857.472 554.933 857.76C554.101 858.032 553.261 858.168 552.413 858.168C550.477 858.168 548.957 857.616 547.853 856.512C546.749 855.392 546.197 853.864 546.197 851.928C546.197 850.696 546.437 849.6 546.917 848.64C547.413 847.68 548.101 846.936 548.981 846.408C549.861 845.88 550.861 845.616 551.981 845.616C553.613 845.616 554.893 846.144 555.821 847.2C556.765 848.256 557.237 849.72 557.237 851.592V852ZM552.029 847.416C551.117 847.416 550.373 847.688 549.797 848.232C549.221 848.776 548.853 849.552 548.693 850.56H555.101C555.005 849.536 554.693 848.76 554.165 848.232C553.637 847.688 552.925 847.416 552.029 847.416ZM585.985 845.904L581.377 858H579.169L575.929 849.24L572.713 858H570.505L565.897 845.904H568.417L571.705 855.144L575.041 845.904H576.961L580.297 855.144L583.609 845.904H585.985ZM593.684 858.168C592.5 858.168 591.46 857.912 590.564 857.4C589.668 856.888 588.972 856.16 588.476 855.216C587.996 854.272 587.756 853.168 587.756 851.904C587.756 850.64 587.996 849.536 588.476 848.592C588.972 847.632 589.668 846.896 590.564 846.384C591.46 845.872 592.5 845.616 593.684 845.616C594.852 845.616 595.884 845.872 596.78 846.384C597.676 846.896 598.364 847.632 598.844 848.592C599.34 849.536 599.588 850.64 599.588 851.904C599.588 853.168 599.34 854.272 598.844 855.216C598.364 856.16 597.676 856.888 596.78 857.4C595.884 857.912 594.852 858.168 593.684 858.168ZM593.66 856.248C594.78 856.248 595.636 855.88 596.228 855.144C596.82 854.408 597.116 853.328 597.116 851.904C597.116 850.512 596.812 849.44 596.204 848.688C595.612 847.936 594.772 847.56 593.684 847.56C592.58 847.56 591.724 847.936 591.116 848.688C590.508 849.44 590.204 850.512 590.204 851.904C590.204 853.328 590.5 854.408 591.092 855.144C591.7 855.88 592.556 856.248 593.66 856.248ZM608.845 845.616C609.213 845.616 609.597 845.672 609.997 845.784L609.949 847.992C609.517 847.832 609.045 847.752 608.533 847.752C607.429 847.752 606.597 848.088 606.037 848.76C605.493 849.416 605.221 850.248 605.221 851.256V858H602.821V849.312C602.821 848.048 602.757 846.912 602.629 845.904H604.885L605.101 848.088C605.421 847.288 605.917 846.68 606.589 846.264C607.261 845.832 608.013 845.616 608.845 845.616ZM612.245 840.336H614.645V858H612.245V840.336ZM629.662 840.336V858H627.262V855.936C626.91 856.656 626.382 857.208 625.678 857.592C624.99 857.976 624.182 858.168 623.254 858.168C622.214 858.168 621.286 857.904 620.47 857.376C619.654 856.848 619.014 856.112 618.55 855.168C618.102 854.208 617.878 853.104 617.878 851.856C617.878 850.608 618.102 849.512 618.55 848.568C618.998 847.624 619.622 846.896 620.422 846.384C621.238 845.872 622.182 845.616 623.254 845.616C624.166 845.616 624.966 845.808 625.654 846.192C626.358 846.576 626.886 847.12 627.238 847.824V840.336H629.662ZM623.806 856.248C624.91 856.248 625.758 855.872 626.35 855.12C626.958 854.352 627.262 853.28 627.262 851.904C627.262 850.528 626.958 849.464 626.35 848.712C625.758 847.944 624.918 847.56 623.83 847.56C622.726 847.56 621.862 847.936 621.238 848.688C620.63 849.44 620.326 850.496 620.326 851.856C620.326 853.232 620.63 854.312 621.238 855.096C621.862 855.864 622.718 856.248 623.806 856.248ZM636.167 855.12V858H633.287V855.12H636.167Z" fill="#F7F7F7"/>
<path d="M294.327 893.416C294.023 894.168 293.607 894.752 293.079 895.168C292.551 895.584 291.927 895.792 291.207 895.792C290.679 895.792 290.175 895.696 289.695 895.504C289.215 895.312 288.639 895.04 287.967 894.688C287.439 894.4 287.015 894.192 286.695 894.064C286.375 893.92 286.063 893.848 285.759 893.848C285.247 893.848 284.831 893.992 284.511 894.28C284.191 894.552 283.927 894.944 283.719 895.456L282.519 894.784C282.807 894.032 283.215 893.456 283.743 893.056C284.287 892.64 284.919 892.432 285.639 892.432C286.167 892.432 286.671 892.528 287.151 892.72C287.631 892.912 288.207 893.184 288.879 893.536C289.375 893.808 289.791 894.016 290.127 894.16C290.463 894.288 290.783 894.352 291.087 894.352C291.599 894.352 292.015 894.216 292.335 893.944C292.655 893.656 292.919 893.264 293.127 892.768L294.327 893.416ZM314.278 883.912V901H312.454V888.304L306.91 901H305.518L299.926 888.4L299.95 901H298.126V883.912H299.758L306.238 898.648L312.646 883.912H314.278ZM329.285 888.928V901H327.365V898.816C327.013 899.568 326.477 900.152 325.757 900.568C325.053 900.968 324.229 901.168 323.285 901.168C322.213 901.168 321.269 900.912 320.453 900.4C319.653 899.888 319.029 899.168 318.581 898.24C318.149 897.296 317.933 896.2 317.933 894.952C317.933 893.704 318.157 892.608 318.605 891.664C319.053 890.704 319.677 889.96 320.477 889.432C321.293 888.904 322.229 888.64 323.285 888.64C324.229 888.64 325.053 888.848 325.757 889.264C326.461 889.68 326.997 890.264 327.365 891.016V888.928H329.285ZM323.669 899.56C324.853 899.56 325.765 899.16 326.405 898.36C327.045 897.544 327.365 896.392 327.365 894.904C327.365 893.416 327.045 892.272 326.405 891.472C325.765 890.672 324.853 890.272 323.669 890.272C322.485 890.272 321.557 890.688 320.885 891.52C320.229 892.336 319.901 893.48 319.901 894.952C319.901 896.424 320.229 897.56 320.885 898.36C321.541 899.16 322.469 899.56 323.669 899.56ZM339.468 888.64C342.364 888.64 343.812 890.232 343.812 893.416V901H341.868V893.512C341.868 892.392 341.644 891.576 341.196 891.064C340.748 890.536 340.044 890.272 339.084 890.272C337.964 890.272 337.068 890.616 336.396 891.304C335.724 891.992 335.388 892.92 335.388 894.088V901H333.444V883.336H335.388V890.896C335.772 890.16 336.316 889.6 337.02 889.216C337.74 888.832 338.556 888.64 339.468 888.64ZM358.515 888.928V901H356.595V898.816C356.243 899.568 355.707 900.152 354.987 900.568C354.283 900.968 353.459 901.168 352.515 901.168C351.443 901.168 350.499 900.912 349.683 900.4C348.883 899.888 348.259 899.168 347.811 898.24C347.379 897.296 347.163 896.2 347.163 894.952C347.163 893.704 347.387 892.608 347.835 891.664C348.283 890.704 348.907 889.96 349.707 889.432C350.523 888.904 351.459 888.64 352.515 888.64C353.459 888.64 354.283 888.848 354.987 889.264C355.691 889.68 356.227 890.264 356.595 891.016V888.928H358.515ZM352.899 899.56C354.083 899.56 354.995 899.16 355.635 898.36C356.275 897.544 356.595 896.392 356.595 894.904C356.595 893.416 356.275 892.272 355.635 891.472C354.995 890.672 354.083 890.272 352.899 890.272C351.715 890.272 350.787 890.688 350.115 891.52C349.459 892.336 349.131 893.48 349.131 894.952C349.131 896.424 349.459 897.56 350.115 898.36C350.771 899.16 351.699 899.56 352.899 899.56ZM365.266 890.464V897.064C365.266 897.96 365.45 898.592 365.818 898.96C366.186 899.312 366.706 899.488 367.378 899.488C367.826 899.488 368.258 899.416 368.674 899.272V900.928C368.178 901.088 367.618 901.168 366.994 901.168C365.842 901.168 364.938 900.848 364.282 900.208C363.642 899.552 363.322 898.592 363.322 897.328V890.464H360.97V888.928H363.322V885.832L365.266 885.136V888.928H368.722V890.464H365.266ZM384.856 888.64C387.528 888.64 388.864 890.232 388.864 893.416V901H386.92V893.512C386.92 892.376 386.72 891.552 386.32 891.04C385.936 890.528 385.304 890.272 384.424 890.272C383.4 890.272 382.6 890.616 382.024 891.304C381.448 891.992 381.16 892.928 381.16 894.112V901H379.216V893.512C379.216 892.392 379.016 891.576 378.616 891.064C378.216 890.536 377.576 890.272 376.696 890.272C375.672 890.272 374.864 890.616 374.272 891.304C373.696 891.992 373.408 892.928 373.408 894.112V901H371.464V892.312C371.464 891.064 371.4 889.936 371.272 888.928H373.12L373.312 891.04C373.648 890.272 374.144 889.68 374.8 889.264C375.472 888.848 376.248 888.64 377.128 888.64C378.088 888.64 378.872 888.832 379.48 889.216C380.088 889.6 380.536 890.192 380.824 890.992C381.192 890.272 381.728 889.704 382.432 889.288C383.152 888.856 383.96 888.64 384.856 888.64ZM403.59 888.928V901H401.67V898.816C401.318 899.568 400.782 900.152 400.062 900.568C399.358 900.968 398.534 901.168 397.59 901.168C396.518 901.168 395.574 900.912 394.758 900.4C393.958 899.888 393.334 899.168 392.886 898.24C392.454 897.296 392.238 896.2 392.238 894.952C392.238 893.704 392.462 892.608 392.91 891.664C393.358 890.704 393.982 889.96 394.782 889.432C395.598 888.904 396.534 888.64 397.59 888.64C398.534 888.64 399.358 888.848 400.062 889.264C400.766 889.68 401.302 890.264 401.67 891.016V888.928H403.59ZM397.974 899.56C399.158 899.56 400.07 899.16 400.71 898.36C401.35 897.544 401.67 896.392 401.67 894.904C401.67 893.416 401.35 892.272 400.71 891.472C400.07 890.672 399.158 890.272 397.974 890.272C396.79 890.272 395.862 890.688 395.19 891.52C394.534 892.336 394.206 893.48 394.206 894.952C394.206 896.424 394.534 897.56 395.19 898.36C395.846 899.16 396.774 899.56 397.974 899.56ZM428.158 892.096V900.016C427.486 900.368 426.606 900.656 425.518 900.88C424.43 901.088 423.326 901.192 422.206 901.192C420.51 901.192 419.046 900.848 417.814 900.16C416.582 899.456 415.638 898.448 414.982 897.136C414.342 895.824 414.022 894.256 414.022 892.432C414.022 890.624 414.342 889.072 414.982 887.776C415.638 886.464 416.566 885.464 417.766 884.776C418.982 884.072 420.414 883.72 422.062 883.72C423.262 883.72 424.358 883.904 425.35 884.272C426.358 884.624 427.222 885.16 427.942 885.88L427.174 887.392C426.342 886.688 425.526 886.184 424.726 885.88C423.942 885.56 423.054 885.4 422.062 885.4C420.126 885.4 418.638 886.008 417.598 887.224C416.574 888.424 416.062 890.16 416.062 892.432C416.062 894.752 416.59 896.52 417.646 897.736C418.702 898.936 420.238 899.536 422.254 899.536C423.678 899.536 425.046 899.312 426.358 898.864V893.656H422.11V892.096H428.158ZM442.993 888.928V901H441.073V898.816C440.721 899.568 440.185 900.152 439.465 900.568C438.761 900.968 437.937 901.168 436.993 901.168C435.921 901.168 434.977 900.912 434.161 900.4C433.361 899.888 432.737 899.168 432.289 898.24C431.857 897.296 431.641 896.2 431.641 894.952C431.641 893.704 431.865 892.608 432.313 891.664C432.761 890.704 433.385 889.96 434.185 889.432C435.001 888.904 435.937 888.64 436.993 888.64C437.937 888.64 438.761 888.848 439.465 889.264C440.169 889.68 440.705 890.264 441.073 891.016V888.928H442.993ZM437.377 899.56C438.561 899.56 439.473 899.16 440.113 898.36C440.753 897.544 441.073 896.392 441.073 894.904C441.073 893.416 440.753 892.272 440.113 891.472C439.473 890.672 438.561 890.272 437.377 890.272C436.193 890.272 435.265 890.688 434.593 891.52C433.937 892.336 433.609 893.48 433.609 894.952C433.609 896.424 433.937 897.56 434.593 898.36C435.249 899.16 436.177 899.56 437.377 899.56ZM453.176 888.64C456.072 888.64 457.52 890.232 457.52 893.416V901H455.576V893.512C455.576 892.392 455.352 891.576 454.904 891.064C454.456 890.536 453.752 890.272 452.792 890.272C451.672 890.272 450.776 890.616 450.104 891.304C449.432 891.992 449.096 892.92 449.096 894.088V901H447.152V892.312C447.152 891.064 447.088 889.936 446.96 888.928H448.808L449 891.088C449.368 890.304 449.92 889.704 450.656 889.288C451.392 888.856 452.232 888.64 453.176 888.64ZM472.223 883.336V901H470.303V898.816C469.951 899.568 469.415 900.152 468.695 900.568C467.991 900.968 467.167 901.168 466.223 901.168C465.167 901.168 464.231 900.904 463.415 900.376C462.615 899.848 461.991 899.112 461.543 898.168C461.095 897.208 460.871 896.104 460.871 894.856C460.871 893.608 461.087 892.52 461.519 891.592C461.967 890.648 462.599 889.92 463.415 889.408C464.231 888.896 465.167 888.64 466.223 888.64C467.167 888.64 467.991 888.848 468.695 889.264C469.399 889.664 469.927 890.232 470.279 890.968V883.336H472.223ZM466.607 899.56C467.791 899.56 468.703 899.16 469.343 898.36C469.983 897.544 470.303 896.392 470.303 894.904C470.303 893.432 469.983 892.296 469.343 891.496C468.703 890.68 467.791 890.272 466.607 890.272C465.423 890.272 464.495 890.672 463.823 891.472C463.167 892.272 462.839 893.4 462.839 894.856C462.839 896.344 463.167 897.504 463.823 898.336C464.495 899.152 465.423 899.56 466.607 899.56ZM482.405 888.64C485.301 888.64 486.749 890.232 486.749 893.416V901H484.805V893.512C484.805 892.392 484.581 891.576 484.133 891.064C483.685 890.536 482.981 890.272 482.021 890.272C480.901 890.272 480.005 890.616 479.333 891.304C478.661 891.992 478.325 892.92 478.325 894.088V901H476.381V883.336H478.325V890.896C478.709 890.16 479.253 889.6 479.957 889.216C480.677 888.832 481.493 888.64 482.405 888.64ZM490.82 888.928H492.764V901H490.82V888.928ZM493.004 883.816V886.024H490.628V883.816H493.004Z" fill="#F7F7F7"/>
<path d="M642.595 450.675L624.416 421.028L642.624 447.61L642.595 450.675ZM661.406 463.093L644.159 488.272L643.198 387.91L641.602 554.391C642.617 554.527 643.682 554.78 644.8 555.175L644.187 491.174L661.406 463.093ZM71.0469 423.106L89.2261 452.754L89.2554 449.689L71.0469 423.106ZM90.7897 490.35L89.8286 389.988L89.2566 449.689L89.2274 452.754L88.0334 577.418C88.4419 576.989 88.8859 576.592 89.3823 576.246C90.1189 575.733 90.8604 575.334 91.6019 574.981L90.8189 493.253L108.038 465.17L90.7897 490.35Z" fill="#2B1A12"/>
<path d="M630.588 614.099H540.65L525.313 576.085C527.752 572.2 531.742 569.566 538.235 570.368C546.946 571.445 548.635 581.835 548.635 581.835C548.635 581.835 553.027 564.484 574.321 565.885C593.967 567.179 597.168 588.501 597.168 588.501C614.411 574.565 623.834 594.823 617.166 600.645C617.166 600.645 639.033 597.845 630.588 614.099ZM187.836 600.361C187.328 600.324 187.401 599.852 187.401 599.852C187.401 599.852 187.491 596.093 187.583 595.84C187.673 595.586 188.094 595.626 188.094 595.626L188.722 593.27L188.01 593.214L194.642 565.83C193.533 565.795 192.377 565.806 191.16 565.886C171.513 567.18 168.313 588.503 168.313 588.503C151.069 574.566 141.647 594.824 148.314 600.646C148.314 600.646 126.448 597.846 134.893 614.101H179.338L193.866 600.375C191.029 600.379 188.094 600.38 187.836 600.361ZM216.844 581.835C216.844 581.835 214.699 573.399 206.181 568.767L193.345 593.636L189.122 593.3L192.377 593.559L191.827 595.163C191.932 595.191 192.081 595.232 192.211 595.276C192.429 595.349 193.065 597.092 193.845 597.528C194.626 597.963 195.625 597.654 196.842 597.728C196.783 597.724 196.728 597.725 196.671 597.723L198.138 596.336L204.252 593.949L216.05 591.553L221.997 572.576C217.805 575.947 216.844 581.835 216.844 581.835ZM199.293 600.361C199.293 600.361 199.227 600.361 199.127 600.361C199.227 600.362 199.293 600.361 199.293 600.361Z" fill="#6187A5"/>
<path d="M642.625 447.609L642.616 448.557L642.625 447.609ZM626.93 523.751C631.285 525.439 636.49 526.446 641.868 526.64L642.616 448.557L642.595 450.674L624.416 421.027L642.625 447.609L643.197 387.909L644.158 488.271L661.405 463.092L644.186 491.174L644.526 526.671C656.204 526.5 668.176 522.422 673.695 512.992C682.194 498.469 681.033 470.899 667.326 457.129C653.619 443.36 670.839 432.789 672.124 421.404C673.41 410.019 665.619 402.803 657.746 393.173C649.874 383.543 653.266 374.014 653.284 360.07C653.302 346.126 646.197 344.352 643.241 344.379C641.145 344.397 635.499 344.102 633.134 352.369C630.397 361.939 636.136 366.014 633.339 382.792C631.062 396.445 618.945 394.739 614.345 409.02C609.221 424.925 622.315 434.391 623.711 445.573C625.108 456.754 617.266 462.714 609.833 479.37C602.4 496.025 612.409 518.123 626.93 523.751ZM73.5596 525.829C77.9148 527.517 83.12 528.524 88.4984 528.718L89.2265 452.752L71.0473 423.105L89.2558 449.687L89.2302 452.339L89.8278 389.987L90.7888 490.349L108.036 465.17L90.8169 493.253L91.1572 528.749C102.834 528.579 114.808 524.5 120.326 515.07C128.826 500.547 127.664 472.977 113.957 459.208C100.25 445.438 117.47 434.867 118.755 423.482C120.041 412.096 112.25 404.88 104.378 395.251C96.5039 385.622 99.8968 376.092 99.9151 362.149C99.9334 348.204 92.828 346.431 89.8717 346.457C87.7764 346.476 82.1297 346.181 79.7649 354.447C77.0282 364.017 82.7676 368.093 79.9698 384.87C77.6928 398.523 65.5762 396.817 60.9759 411.098C55.8536 427.003 68.9459 436.47 70.3423 447.651C71.7388 458.833 63.8968 464.792 56.4634 481.448C49.0312 498.103 59.0404 520.201 73.5596 525.829ZM89.2265 452.752L89.2302 452.339L89.2265 452.752ZM694.496 597.844C683.03 594.911 679.297 602.644 679.297 602.644C679.297 602.644 684.897 582.378 676.096 576.245C667.297 570.111 657.696 576.245 657.696 576.245C657.696 576.245 662.497 563.978 647.297 556.246C632.097 548.512 625.431 565.826 625.431 565.826C625.431 565.826 617.164 540.78 597.698 560.512C597.698 560.512 595.032 534.113 572.632 532.247C546.024 530.029 537.701 557.579 537.701 557.579C537.701 557.579 535.3 547.179 526.634 546.646C523.272 546.439 519.097 547.479 514.895 550.271L525.311 576.085C527.75 572.201 531.74 569.566 538.234 570.369C546.944 571.446 548.633 581.835 548.633 581.835C548.633 581.835 553.025 564.484 574.319 565.886C593.965 567.18 597.166 588.502 597.166 588.502C614.409 574.565 623.832 594.823 617.164 600.645C617.164 600.645 638.944 597.858 630.629 614.012L701.429 614.1C701.43 614.099 705.963 600.777 694.496 597.844ZM121.89 529.828C121.89 529.828 125.918 534.699 124.761 538.903C123.604 543.107 128.544 544.588 128.544 544.588C130.805 539.58 128.805 536.441 126.367 533.569C123.928 530.699 121.89 529.828 121.89 529.828ZM220.487 563.032L220.489 563.027C220.306 563.105 220.065 563.184 219.777 563.252C220.058 563.187 220.309 563.111 220.487 563.032ZM238.843 546.646C230.176 547.179 227.776 557.579 227.776 557.579C227.776 557.579 227.441 556.482 226.706 554.759C224.1 558.562 222.079 561.267 222.079 561.267H221.431L220.489 563.027C220.788 562.899 220.948 562.787 220.948 562.787C220.948 562.787 221.238 562.86 221.456 562.932C221.674 563.004 222.31 564.748 223.09 565.183C223.708 565.528 224.464 565.409 225.354 565.378L226.594 564.226L229.829 564.211L241.077 549.326L241.51 546.743C240.579 546.631 239.683 546.594 238.843 546.646ZM183.656 534.762C169.672 541.784 167.778 560.512 167.778 560.512C148.312 540.779 140.046 565.826 140.046 565.826C140.046 565.826 134.654 551.847 122.525 554.636C124.091 551.527 126.54 548.075 130.348 544.505C133.328 541.71 135.902 538.626 138.107 535.529C138.94 536.459 141.535 538.886 144.461 536.815C148.02 534.296 153.971 536.425 153.971 536.425C153.971 536.425 152.459 534.805 148.928 533.489C145.773 532.314 142.536 531.552 139.071 534.135C141.453 530.611 143.358 527.124 144.829 524.072C145.522 524.496 147.84 525.683 149.405 523.63C151.26 521.196 155.693 521.372 155.693 521.372C155.693 521.372 154.341 520.604 151.699 520.464C149.468 520.346 147.267 520.492 145.53 522.583C145.991 521.578 146.399 520.636 146.76 519.769C146.786 519.773 146.805 519.774 146.805 519.774C146.821 519.703 146.829 519.637 146.845 519.567C148.201 516.276 148.827 514.153 148.827 514.153C148.827 514.153 148.211 515.746 147.054 518.257C147.512 513.894 145.168 511.5 142.508 509.396C139.553 507.058 137.385 506.605 137.385 506.605C137.385 506.605 142.29 510.592 141.98 514.941C141.725 518.514 145.144 519.478 146.372 519.707C143.284 526.156 137.424 536.791 129.596 543.721C125.263 547.557 122.578 551.53 120.886 555.095C120.015 555.391 119.113 555.769 118.177 556.246C102.977 563.979 107.778 576.245 107.778 576.245C107.778 576.245 98.1784 570.111 89.379 576.245C80.5796 582.378 86.1788 602.644 86.1788 602.644C86.1788 602.644 82.4456 594.911 70.979 597.844C59.5124 600.777 64.0456 614.099 64.0456 614.099L134.845 614.011C126.529 597.857 148.31 600.644 148.31 600.644C141.643 594.822 151.065 574.564 168.309 588.5C168.309 588.5 171.509 567.178 191.155 565.884C192.372 565.804 193.527 565.793 194.637 565.828L196.463 558.289C196.463 558.289 196.22 557.345 190.7 550.517C186.522 545.346 184.428 538.017 183.656 534.762ZM217.081 568.016C216.573 567.98 216.646 567.508 216.646 567.508C216.646 567.508 216.736 563.749 216.828 563.495C216.918 563.241 217.339 563.282 217.339 563.282C217.453 563.305 217.555 563.31 217.663 563.326L218.15 561.268H216.997L221.431 545.551C219.945 543.555 218.161 541.542 216.052 539.697L206.83 539.776L209.154 563.012L206.183 568.769C214.701 573.401 216.846 581.837 216.846 581.837C216.846 581.837 217.807 575.948 221.999 572.579L223.423 568.031C223.467 568.031 223.51 568.031 223.554 568.031C220.588 568.033 217.352 568.034 217.081 568.016ZM226.53 565.394C226.387 565.394 226.239 565.392 226.088 565.382C226.086 565.382 226.083 565.382 226.081 565.382C226.083 565.382 226.086 565.382 226.088 565.382C226.239 565.392 226.387 565.395 226.53 565.394ZM227.107 568.02C226.436 568.021 225.587 568.023 224.655 568.026C225.584 568.025 226.436 568.022 227.107 568.02ZM226.08 565.383C225.828 565.368 225.587 565.371 225.354 565.379C225.588 565.371 225.828 565.368 226.08 565.383Z" fill="#258775"/>
<path d="M243.845 499.21C243.845 499.404 243.894 507.441 243.845 507.586C243.796 507.732 242.247 507.829 242.247 507.829L239.508 508.258L239.403 505.778L241.631 505.408C241.631 505.408 242.975 497.758 243.362 497.709C243.747 497.661 243.845 499.016 243.845 499.21ZM244.594 468.495C244.594 468.301 244.497 466.946 244.109 466.993C243.722 467.042 242.379 474.693 242.379 474.693L238.316 477.728L239.084 480.121L242.996 477.114C242.996 477.114 244.545 477.017 244.594 476.871C244.642 476.727 244.594 468.689 244.594 468.495ZM204.673 474.843C203.72 475.27 202.651 474.901 201.808 475.765C200.822 476.775 201.152 477.167 200.285 477.661C199.419 478.156 198.669 477.582 197.759 477.644C196.849 477.706 198.583 479.31 198.472 480.267C198.362 481.225 196.993 481.371 196.658 480.408C196.321 479.444 195.97 478.836 195.293 478.798C194.615 478.76 194.009 480.074 194.642 481.31C195.274 482.547 196.56 483.457 196.767 484.217C196.973 484.976 196.384 485.396 195.988 485.578C195.593 485.759 195.605 485.941 195.761 486.789C195.894 487.508 194.816 488.178 194.107 488.309C194.241 488.656 194.365 488.997 194.481 489.335L194.483 489.333C194.483 489.333 199.837 490.299 201.774 489.04C201.532 488.195 201.437 487.366 201.888 487.144C202.891 486.651 205.556 486.813 205.889 485.901C206.22 484.987 205.041 481.918 206.229 480.893C206.5 480.659 206.991 480.637 207.074 480.142C207.157 479.647 205.332 478.823 205.003 476.142C204.951 475.707 204.83 475.271 204.673 474.843ZM188.09 595.626C190.416 596.085 191.701 595.133 191.701 595.133C191.701 595.133 191.755 595.146 191.825 595.165L192.376 593.56L188.719 593.27L188.09 595.626ZM217.66 563.325C219.004 563.522 219.965 563.261 220.485 563.033L221.429 561.268H218.146L217.66 563.325Z" fill="#FFD2BB"/>
<path d="M243.216 508.656L247.683 516.075L246.285 518.212L241.076 549.329L241.509 546.745C240.58 546.633 239.683 546.597 238.843 546.648C230.177 547.181 227.776 557.58 227.776 557.58C227.776 557.58 227.441 556.484 226.707 554.761C231.703 547.47 238.855 536.139 238.059 532.071C237.139 527.375 219.901 524.227 209.732 524.518L209.636 512.559C209.636 512.559 215.252 516.82 216.899 517.498C218.545 518.176 239.536 508.908 239.536 508.908L239.442 506.694L239.509 508.261L242.248 507.832C242.248 507.832 242.78 507.798 243.231 507.74L243.216 508.656ZM209.928 499.098L218.062 508.007L239.367 504.908L239.404 505.779L241.632 505.41C241.632 505.41 242.976 497.759 243.363 497.71C243.375 497.709 243.385 497.72 243.397 497.721L243.737 477.052C243.359 477.091 242.998 477.114 242.998 477.114L239.086 480.121L239.27 480.697L223.291 495.416L209.928 499.098ZM702.313 521.525C696.379 515.207 687.844 508.727 677.903 501.636C677 505.871 675.589 509.758 673.695 512.994C668.177 522.424 656.204 526.503 644.526 526.673L644.799 555.178H644.798C645.606 555.463 646.436 555.811 647.297 556.249C662.497 563.982 657.697 576.247 657.697 576.247C657.697 576.247 667.296 570.114 676.097 576.247C684.896 582.381 679.297 602.647 679.297 602.647C679.297 602.647 683.03 594.913 694.497 597.846C698.941 598.983 700.975 601.681 701.808 604.558C722.206 586.392 725.716 546.442 702.313 521.525ZM641.869 526.643L641.603 554.394C641.603 554.394 641.603 554.394 641.604 554.394C630.424 552.892 625.434 565.828 625.434 565.828C625.434 565.828 617.167 540.783 597.701 560.515C597.701 560.515 595.035 534.115 572.635 532.249C546.027 530.032 537.703 557.582 537.703 557.582C537.703 557.582 535.303 547.182 526.637 546.649C523.274 546.442 519.1 547.482 514.898 550.274L525.313 576.088L540.627 614.043L482.724 470.531L461.382 459.219L399.645 359.862L363.822 343.837L350.865 333.42H334.097C334.097 333.42 318.862 363.862 318.091 367.074C317.321 370.276 270.296 422.59 270.296 422.59L244.273 467.077C244.273 467.077 244.273 467.078 244.274 467.078C244.226 467.024 244.174 466.988 244.112 466.995C243.724 467.044 242.381 474.694 242.381 474.694L238.317 477.73L238.12 477.115L221.838 488.737L201.777 489.039C201.536 488.194 201.44 487.365 201.892 487.143C202.894 486.65 205.559 486.812 205.892 485.9C206.225 484.988 205.044 481.917 206.232 480.892C206.503 480.658 206.995 480.636 207.077 480.141C207.16 479.646 205.336 478.823 205.007 476.141C204.953 475.71 204.833 475.274 204.676 474.845C204.838 474.772 204.998 474.683 205.152 474.554C206.208 473.666 205.81 472.751 205.579 472.036C205.579 472.036 206.414 471.289 206.057 470.385C205.699 469.482 204.871 469.707 204.719 468.785C204.566 467.863 204.17 466.858 202.583 466.883C200.995 466.907 199.054 467.399 198.746 466.814C198.439 466.23 196.611 465.913 195.782 466.274C194.952 466.635 193.535 467.417 191.628 467.491C189.72 467.566 188.988 469.099 188.476 470.759C187.964 472.417 187.007 472.307 186.424 473.208C185.841 474.108 186.277 475.62 186.769 477.154C187.26 478.688 186.646 479.153 186.635 480.341C186.625 481.53 188.436 484.373 189.597 484.873C190.758 485.373 190.767 485.036 191.048 486.072C191.33 487.107 193.158 488.241 193.777 488.332C193.869 488.345 193.988 488.334 194.113 488.31C194.247 488.656 194.37 488.998 194.486 489.335L194.489 489.333C194.489 489.333 192.824 491.086 190.867 494.126L190.868 494.12C190.868 494.12 184.459 493.246 181.409 492.976C178.358 492.706 173.492 501.641 173.854 502.222C174.218 502.802 176.469 502.875 176.469 502.875C176.469 502.875 169.061 519.87 170.586 526.771C172.112 533.67 183.297 529.749 183.297 529.749V533.09C183.297 533.09 183.411 533.724 183.659 534.769C183.659 534.768 183.658 534.765 183.658 534.764C169.674 541.787 167.78 560.515 167.78 560.515C148.314 540.782 140.047 565.828 140.047 565.828C140.047 565.828 134.656 551.849 122.527 554.639C124.093 551.53 126.542 548.077 130.349 544.507C133.33 541.712 135.903 538.629 138.108 535.531C138.941 536.462 141.536 538.889 144.462 536.818C148.021 534.298 153.973 536.428 153.973 536.428C153.973 536.428 152.46 534.808 148.93 533.492C145.775 532.316 142.538 531.554 139.073 534.137C141.455 530.614 143.36 527.127 144.831 524.074C145.523 524.499 147.842 525.685 149.407 523.633C151.262 521.199 155.695 521.374 155.695 521.374C155.695 521.374 154.342 520.607 151.701 520.467C149.47 520.349 147.269 520.495 145.532 522.585C145.993 521.58 146.4 520.639 146.761 519.772C146.788 519.775 146.806 519.777 146.806 519.777C146.822 519.706 146.831 519.64 146.847 519.569C148.203 516.279 148.828 514.155 148.828 514.155C148.828 514.155 148.213 515.748 147.055 518.259C147.514 513.897 145.17 511.503 142.51 509.399C139.555 507.061 137.386 506.607 137.386 506.607C137.386 506.607 142.291 510.594 141.982 514.943C141.727 518.517 145.145 519.48 146.373 519.71C143.285 526.159 137.425 536.794 129.598 543.723C125.265 547.56 122.579 551.532 120.888 555.097C120.017 555.394 119.114 555.772 118.179 556.249C102.979 563.982 107.779 576.247 107.779 576.247C107.779 576.247 99.719 571.104 91.599 574.962L91.4258 556.91C92.832 547.572 96.5932 537.464 103.935 526.87C110.831 524.813 116.854 521.002 120.325 515.073C122.163 511.932 123.547 508.179 124.454 504.089C175.37 454.733 203.093 440.17 179.335 305.424C155.619 170.917 328.709 98.3202 448.5 143.348C565.694 187.399 558.213 248.074 565.694 350.307C569.255 398.972 593.487 432.751 621.184 458.293C618.472 463.806 614.089 469.834 609.833 479.373C602.399 496.029 612.408 518.126 626.929 523.755C631.285 525.443 636.49 526.449 641.869 526.643ZM126.367 533.573C123.928 530.7 121.89 529.831 121.89 529.831C121.89 529.831 125.918 534.702 124.761 538.906C123.605 543.11 128.544 544.59 128.544 544.59C130.805 539.584 128.806 536.445 126.367 533.573ZM221.43 545.553L223.098 539.638L216.051 539.697C218.16 541.544 219.944 543.557 221.43 545.553Z" fill="white"/>
<path d="M183.528 525.6C183.366 528.115 183.297 529.749 183.297 529.749C183.297 529.749 172.112 533.671 170.586 526.771C169.06 519.871 176.469 502.876 176.469 502.876C176.469 502.876 174.218 502.802 173.854 502.222C173.491 501.641 178.357 492.708 181.409 492.976C184.459 493.244 190.868 494.12 190.868 494.12L190.867 494.126C190.699 494.386 190.53 494.655 190.36 494.932C194.381 492.8 200.042 490.434 203.778 491.545C203.778 491.545 191.642 495.888 186.769 502.379C185.149 507.289 184.215 516.351 183.732 522.7C192.43 523.199 207.081 510.526 207.081 510.526L209.153 512.269C198.23 524.429 187.31 525.598 183.528 525.6ZM223.099 539.64L216.998 561.272H222.082C222.082 561.272 239.273 538.263 238.061 532.075C237.142 527.378 219.904 524.231 209.735 524.522L183.298 529.752V533.092C183.298 533.092 185.186 543.697 190.706 550.524C196.225 557.351 196.468 558.295 196.468 558.295L188.01 593.218L193.347 593.641L209.154 563.016L206.83 539.78L223.099 539.64ZM196.843 597.732C195.625 597.659 194.628 597.968 193.846 597.532C193.065 597.096 192.43 595.352 192.212 595.28C191.993 595.209 191.703 595.135 191.703 595.135C191.703 595.135 190.418 596.088 188.092 595.629C188.092 595.629 187.672 595.589 187.581 595.843C187.491 596.096 187.399 599.855 187.399 599.855C187.399 599.855 187.326 600.327 187.835 600.364C188.343 600.4 199.291 600.364 199.291 600.364C199.291 600.364 199.6 599.293 199.291 598.384C198.985 597.477 198.06 597.804 196.843 597.732ZM226.088 565.387C224.871 565.314 223.874 565.624 223.092 565.187C222.311 564.752 221.676 563.008 221.458 562.936C221.239 562.862 220.949 562.791 220.949 562.791C220.949 562.791 219.664 563.743 217.338 563.284C217.338 563.284 216.918 563.244 216.827 563.498C216.737 563.752 216.645 567.51 216.645 567.51C216.645 567.51 216.572 567.982 217.08 568.019C217.589 568.056 228.537 568.019 228.537 568.019C228.537 568.019 228.846 566.948 228.537 566.04C228.231 565.132 227.306 565.459 226.088 565.387Z" fill="#2B478B"/>
<path d="M239.537 508.904C239.537 508.904 218.547 518.173 216.9 517.495C215.254 516.817 209.638 512.556 209.638 512.556L209.734 524.515L183.297 529.745C183.297 529.745 183.299 529.693 183.303 529.62C183.305 529.576 183.307 529.53 183.31 529.462C183.312 529.447 183.312 529.429 183.313 529.413C183.316 529.342 183.32 529.257 183.325 529.164C183.327 529.114 183.33 529.057 183.333 529.002C183.338 528.913 183.343 528.815 183.348 528.712C183.352 528.647 183.355 528.579 183.359 528.508C183.365 528.396 183.371 528.275 183.379 528.149C183.382 528.079 183.386 528.008 183.391 527.934C183.399 527.784 183.408 527.621 183.418 527.454C183.421 527.385 183.425 527.318 183.43 527.246C183.441 527.049 183.454 526.841 183.466 526.626C183.47 526.572 183.473 526.522 183.476 526.468C183.493 526.19 183.512 525.899 183.531 525.594C187.312 525.592 198.232 524.422 209.156 512.263L207.084 510.52C207.084 510.52 192.433 523.194 183.735 522.694C183.763 522.32 183.793 521.933 183.825 521.542C183.831 521.467 183.837 521.392 183.843 521.317C183.869 520.998 183.897 520.674 183.925 520.345C183.935 520.237 183.943 520.127 183.953 520.018C183.98 519.711 184.008 519.399 184.037 519.084C184.047 518.974 184.057 518.865 184.068 518.754C184.101 518.402 184.135 518.047 184.17 517.69C184.177 517.619 184.184 517.549 184.191 517.478C184.323 516.153 184.471 514.797 184.638 513.45C184.647 513.381 184.656 513.312 184.664 513.243C184.712 512.865 184.76 512.487 184.81 512.112C184.821 512.032 184.832 511.953 184.842 511.874C184.893 511.499 184.946 511.128 184.999 510.758C185.009 510.69 185.019 510.62 185.03 510.552C185.091 510.142 185.153 509.735 185.218 509.333C185.221 509.314 185.224 509.293 185.227 509.272C185.437 507.974 185.668 506.73 185.919 505.582C185.93 505.533 185.941 505.487 185.951 505.438C186.023 505.114 186.097 504.798 186.171 504.49C186.186 504.431 186.201 504.371 186.217 504.311C186.292 504.011 186.369 503.72 186.448 503.438C186.462 503.39 186.475 503.342 186.489 503.295C186.58 502.976 186.674 502.667 186.77 502.374V502.373C191.645 495.881 203.78 491.54 203.78 491.54C200.043 490.429 194.384 492.795 190.363 494.925C190.38 494.898 190.396 494.872 190.413 494.845C190.566 494.597 190.718 494.353 190.868 494.119C192.826 491.079 194.49 489.326 194.49 489.326C194.49 489.326 199.844 490.292 201.781 489.033L221.842 488.731L238.124 477.109L239.273 480.693L223.293 495.412L209.929 499.091L218.064 508L239.369 504.901L239.537 508.904Z" fill="#FBC02D"/>
<path d="M205.577 472.034C205.809 472.75 206.206 473.665 205.15 474.553C204.094 475.44 202.796 474.756 201.81 475.765C200.824 476.775 201.153 477.166 200.286 477.661C199.42 478.156 198.67 477.582 197.761 477.644C196.851 477.706 198.585 479.31 198.474 480.268C198.363 481.225 196.995 481.371 196.659 480.408C196.323 479.444 195.973 478.836 195.295 478.798C194.616 478.76 194.01 480.074 194.643 481.31C195.276 482.547 196.562 483.457 196.769 484.217C196.975 484.976 196.386 485.396 195.99 485.578C195.595 485.759 195.607 485.941 195.763 486.789C195.919 487.636 194.391 488.422 193.772 488.331C193.154 488.24 191.326 487.107 191.044 486.072C190.763 485.036 190.755 485.372 189.593 484.873C188.431 484.374 186.62 481.53 186.631 480.341C186.64 479.152 187.256 478.688 186.765 477.154C186.273 475.62 185.837 474.107 186.42 473.207C187.003 472.307 187.96 472.418 188.472 470.758C188.984 469.098 189.716 467.565 191.624 467.491C193.531 467.417 194.949 466.635 195.778 466.274C196.606 465.913 198.435 466.231 198.742 466.814C199.05 467.398 200.991 466.907 202.579 466.882C204.167 466.858 204.562 467.863 204.715 468.785C204.867 469.707 205.695 469.481 206.053 470.385C206.411 471.288 205.577 472.034 205.577 472.034Z" fill="#546878"/>
<path d="M510.014 437.951L486.092 423.105L416.891 292.704L376.737 271.671L362.213 258H343.418L362.961 332.244L400.847 361.612L436.872 481.132L417.617 490.334L423.207 578.331L395.258 584.877L399.379 626.382H574.944L510.014 437.951Z" fill="#672D25"/>
<path d="M423.208 578.333L417.618 490.336L436.871 481.134L400.847 361.613L362.959 332.244L343.416 258C343.416 258 326.339 297.954 325.475 302.169C324.613 306.372 271.902 375.032 271.902 375.032L242.732 433.419C243.015 433.787 243.094 435.068 243.094 435.283C243.094 435.537 243.149 446.085 243.094 446.276C243.066 446.375 242.587 446.455 242.132 446.511L241.751 473.639C242.15 473.691 242.255 475.349 242.255 475.595C242.255 475.85 242.31 486.398 242.255 486.589C242.233 486.667 241.921 486.735 241.566 486.787L241.55 487.991L246.556 497.728L244.989 500.532L239.15 541.372L226.542 560.908L222.917 560.927L221.527 562.438C221.79 562.427 222.062 562.424 222.348 562.443C223.711 562.539 224.75 562.11 225.096 563.301C225.442 564.492 225.096 565.899 225.096 565.899C225.096 565.899 222.328 565.91 219.361 565.917L211.099 596.792L197.874 599.937L191.021 603.07L189.375 604.89C189.439 604.891 189.501 604.891 189.566 604.896C190.929 604.992 191.968 604.563 192.314 605.754C192.66 606.945 192.314 608.352 192.314 608.352C192.314 608.352 189.326 608.363 186.23 608.37L169.945 626.384H399.377L395.256 584.878L423.208 578.333Z" fill="#A0453F"/>
<path d="M521.484 227.052L527.714 222.07C522.874 221.536 520.886 224.175 520.072 226.264C516.291 224.694 512.176 226.752 512.176 226.752L524.64 231.277C524.011 229.597 522.916 228.132 521.484 227.052Z" fill="#3F3D56"/>
<path d="M491.254 242.826L497.483 237.843C492.644 237.309 490.656 239.949 489.842 242.038C486.061 240.468 481.945 242.525 481.945 242.525L494.409 247.05C493.78 245.37 492.686 243.905 491.254 242.826Z" fill="#3F3D56"/>
<path d="M521.484 267.8L527.714 262.818C522.874 262.284 520.886 264.923 520.072 267.012C516.291 265.442 512.176 267.5 512.176 267.5L524.64 272.025C524.011 270.345 522.916 268.88 521.484 267.8Z" fill="#3F3D56"/>
<defs>
<linearGradient id="paint0_linear_2012_676" x1="140.903" y1="245.215" x2="662.453" y2="979.87" gradientUnits="userSpaceOnUse">
<stop stop-color="#B06AB3"/>
<stop offset="1" stop-color="#4A68DB"/>
</linearGradient>
</defs>
</svg>
