<svg width="781" height="1080" viewBox="0 0 781 1080" fill="none" xmlns="http://www.w3.org/2000/svg">
<rect x="0.0546875" width="780" height="1080" fill="url(#paint0_linear_2012_678)"/>
<path d="M230.081 708.824L217.937 743H211.937L203.969 720.392L195.953 743H189.953L177.809 708.824H185.441L193.313 732.44L201.569 708.824H206.801L214.865 732.776L222.929 708.824H230.081ZM253.301 731.432H237.269C237.397 733.704 237.989 735.368 239.045 736.424C240.101 737.448 241.669 737.96 243.749 737.96C244.997 737.96 246.245 737.752 247.493 737.336C248.741 736.92 249.893 736.312 250.949 735.512L252.869 740.408C251.717 741.336 250.277 742.072 248.549 742.616C246.853 743.128 245.141 743.384 243.413 743.384C239.317 743.384 236.101 742.264 233.765 740.024C231.429 737.752 230.261 734.664 230.261 730.76C230.261 728.296 230.757 726.104 231.749 724.184C232.773 722.232 234.197 720.728 236.021 719.672C237.845 718.584 239.909 718.04 242.213 718.04C245.637 718.04 248.341 719.16 250.325 721.4C252.309 723.608 253.301 726.6 253.301 730.376V731.432ZM242.405 723.128C241.029 723.128 239.909 723.528 239.045 724.328C238.213 725.128 237.669 726.296 237.413 727.832H247.061C246.677 724.696 245.125 723.128 242.405 723.128ZM296.775 718.664V741.896C296.775 745.768 295.655 748.712 293.415 750.728C291.175 752.744 287.911 753.752 283.623 753.752C279.751 753.752 276.391 753 273.543 751.496L274.647 746.12C277.591 747.592 280.503 748.328 283.383 748.328C285.463 748.328 287.015 747.832 288.039 746.84C289.063 745.88 289.575 744.408 289.575 742.424V738.2C288.807 739.384 287.735 740.376 286.359 741.176C284.983 741.944 283.463 742.328 281.799 742.328C279.687 742.328 277.815 741.832 276.183 740.84C274.551 739.816 273.271 738.392 272.343 736.568C271.415 734.712 270.951 732.584 270.951 730.184C270.951 727.784 271.415 725.672 272.343 723.848C273.271 721.992 274.551 720.568 276.183 719.576C277.815 718.552 279.687 718.04 281.799 718.04C283.495 718.04 285.031 718.408 286.407 719.144C287.783 719.88 288.839 720.872 289.575 722.12V718.664H296.775ZM283.911 736.808C285.671 736.808 287.047 736.232 288.039 735.08C289.063 733.896 289.575 732.264 289.575 730.184C289.575 728.136 289.079 726.536 288.087 725.384C287.095 724.2 285.703 723.608 283.911 723.608C282.119 723.608 280.711 724.2 279.687 725.384C278.663 726.536 278.151 728.136 278.151 730.184C278.151 732.232 278.663 733.848 279.687 735.032C280.711 736.216 282.119 736.808 283.911 736.808ZM314.589 743.384C311.997 743.384 309.725 742.872 307.773 741.848C305.853 740.824 304.365 739.352 303.309 737.432C302.285 735.512 301.773 733.272 301.773 730.712C301.773 728.152 302.285 725.912 303.309 723.992C304.365 722.072 305.853 720.6 307.773 719.576C309.725 718.552 311.997 718.04 314.589 718.04C317.149 718.04 319.389 718.552 321.309 719.576C323.229 720.6 324.701 722.072 325.725 723.992C326.781 725.912 327.309 728.152 327.309 730.712C327.309 733.272 326.781 735.512 325.725 737.432C324.701 739.352 323.229 740.824 321.309 741.848C319.389 742.872 317.149 743.384 314.589 743.384ZM314.589 737.864C316.381 737.864 317.741 737.272 318.669 736.088C319.629 734.904 320.109 733.112 320.109 730.712C320.109 728.344 319.629 726.568 318.669 725.384C317.741 724.168 316.381 723.56 314.589 723.56C312.765 723.56 311.373 724.168 310.413 725.384C309.453 726.568 308.973 728.344 308.973 730.712C308.973 735.48 310.845 737.864 314.589 737.864ZM341.228 724.088V733.544C341.228 734.888 341.58 735.88 342.284 736.52C342.988 737.128 343.9 737.432 345.02 737.432C345.724 737.432 346.524 737.32 347.42 737.096V742.712C346.268 743.16 344.876 743.384 343.244 743.384C340.236 743.384 337.932 742.536 336.332 740.84C334.764 739.144 333.98 736.76 333.98 733.688V724.088H329.372V718.664H333.98V712.952L341.228 710.6V718.664H347.42V724.088H341.228ZM389.439 718.664L378.207 744.296C376.831 747.4 375.087 749.672 372.975 751.112C370.895 752.584 368.335 753.528 365.295 753.944L363.615 748.376C365.855 747.896 367.535 747.288 368.655 746.552C369.807 745.816 370.703 744.744 371.343 743.336L372.063 741.752L362.031 718.664H369.615L375.855 734.456L382.287 718.664H389.439ZM403.377 743.384C400.785 743.384 398.513 742.872 396.561 741.848C394.641 740.824 393.153 739.352 392.097 737.432C391.073 735.512 390.561 733.272 390.561 730.712C390.561 728.152 391.073 725.912 392.097 723.992C393.153 722.072 394.641 720.6 396.561 719.576C398.513 718.552 400.785 718.04 403.377 718.04C405.937 718.04 408.177 718.552 410.097 719.576C412.017 720.6 413.489 722.072 414.513 723.992C415.569 725.912 416.097 728.152 416.097 730.712C416.097 733.272 415.569 735.512 414.513 737.432C413.489 739.352 412.017 740.824 410.097 741.848C408.177 742.872 405.937 743.384 403.377 743.384ZM403.377 737.864C405.169 737.864 406.529 737.272 407.457 736.088C408.417 734.904 408.897 733.112 408.897 730.712C408.897 728.344 408.417 726.568 407.457 725.384C406.529 724.168 405.169 723.56 403.377 723.56C401.553 723.56 400.161 724.168 399.201 725.384C398.241 726.568 397.761 728.344 397.761 730.712C397.761 735.48 399.633 737.864 403.377 737.864ZM444.362 718.664V743H437.306V739.448C436.538 740.728 435.53 741.704 434.282 742.376C433.034 743.048 431.626 743.384 430.058 743.384C427.018 743.384 424.746 742.536 423.242 740.84C421.738 739.144 420.986 736.584 420.986 733.16V718.664H428.234V733.304C428.234 736.248 429.498 737.72 432.026 737.72C433.53 737.72 434.746 737.208 435.674 736.184C436.602 735.16 437.066 733.816 437.066 732.152V718.664H444.362ZM464.799 718.088C465.823 718.088 466.687 718.248 467.391 718.568L467.343 725.192C466.159 724.648 464.975 724.376 463.791 724.376C461.871 724.376 460.399 724.904 459.375 725.96C458.383 726.984 457.887 728.424 457.887 730.28V743H450.639V725.624C450.639 723.032 450.511 720.712 450.255 718.664H457.071L457.551 722.84C458.159 721.304 459.103 720.136 460.383 719.336C461.695 718.504 463.167 718.088 464.799 718.088ZM499.506 718.04C501.618 718.04 503.49 718.568 505.122 719.624C506.754 720.648 508.018 722.12 508.914 724.04C509.81 725.928 510.258 728.12 510.258 730.616C510.258 733.112 509.794 735.336 508.866 737.288C507.97 739.208 506.706 740.712 505.074 741.8C503.442 742.856 501.586 743.384 499.506 743.384C497.81 743.384 496.274 743.032 494.898 742.328C493.554 741.592 492.53 740.6 491.826 739.352V743H484.626V707.672H491.874V722.072C492.578 720.824 493.602 719.848 494.946 719.144C496.322 718.408 497.842 718.04 499.506 718.04ZM497.442 737.864C499.234 737.864 500.61 737.24 501.57 735.992C502.53 734.744 503.01 732.952 503.01 730.616C503.01 728.376 502.53 726.648 501.57 725.432C500.61 724.216 499.234 723.608 497.442 723.608C495.65 723.608 494.258 724.232 493.266 725.48C492.306 726.696 491.826 728.44 491.826 730.712C491.826 733.016 492.306 734.792 493.266 736.04C494.258 737.256 495.65 737.864 497.442 737.864ZM539.692 718.664V743H532.54V739.4C531.804 740.648 530.764 741.624 529.42 742.328C528.076 743.032 526.556 743.384 524.86 743.384C522.748 743.384 520.876 742.872 519.244 741.848C517.644 740.824 516.38 739.368 515.452 737.48C514.556 735.56 514.108 733.352 514.108 730.856C514.108 728.36 514.556 726.136 515.452 724.184C516.38 722.232 517.66 720.728 519.292 719.672C520.924 718.584 522.78 718.04 524.86 718.04C526.556 718.04 528.076 718.408 529.42 719.144C530.764 719.88 531.804 720.872 532.54 722.12V718.664H539.692ZM526.972 737.864C528.764 737.864 530.14 737.256 531.1 736.04C532.06 734.824 532.54 733.064 532.54 730.76C532.54 728.456 532.06 726.696 531.1 725.48C530.14 724.232 528.764 723.608 526.972 723.608C525.18 723.608 523.788 724.248 522.796 725.528C521.804 726.808 521.308 728.584 521.308 730.856C521.308 733.128 521.788 734.872 522.748 736.088C523.74 737.272 525.148 737.864 526.972 737.864ZM557.462 743.384C553.494 743.384 550.374 742.264 548.102 740.024C545.862 737.784 544.742 734.728 544.742 730.856C544.742 728.328 545.286 726.104 546.374 724.184C547.462 722.232 548.982 720.728 550.934 719.672C552.918 718.584 555.206 718.04 557.798 718.04C559.558 718.04 561.27 718.312 562.934 718.856C564.598 719.4 565.926 720.136 566.918 721.064L564.998 726.104C564.038 725.336 562.982 724.744 561.83 724.328C560.678 723.88 559.558 723.656 558.47 723.656C556.486 723.656 554.934 724.264 553.814 725.48C552.726 726.664 552.182 728.408 552.182 730.712C552.182 733.048 552.726 734.824 553.814 736.04C554.902 737.224 556.454 737.816 558.47 737.816C559.558 737.816 560.678 737.608 561.83 737.192C562.982 736.744 564.038 736.136 564.998 735.368L566.918 740.408C565.862 741.336 564.486 742.072 562.79 742.616C561.094 743.128 559.318 743.384 557.462 743.384ZM587.564 743L578.012 732.104V743H570.764V707.672H578.012V729.128L587.132 718.712H595.82L585.5 730.376L596.444 743H587.564Z" fill="#F7F7F7"/>
<path d="M93.1512 828.72V831.6H90.2712V829.656C90.2712 828.904 90.3992 828.216 90.6552 827.592C90.9112 826.968 91.3352 826.36 91.9272 825.768L92.9832 826.584C92.2952 827.352 91.9032 828.064 91.8072 828.72H93.1512ZM97.4472 828.72V831.6H94.5672V829.656C94.5672 828.904 94.6952 828.216 94.9512 827.592C95.2072 826.968 95.6312 826.36 96.2232 825.768L97.2792 826.584C96.5912 827.352 96.1992 828.064 96.1032 828.72H97.4472ZM105.405 827.976H99.6208V825.912H113.685V827.976H107.901V843H105.405V827.976ZM122.589 830.616C125.485 830.616 126.933 832.232 126.933 835.464V843H124.509V835.608C124.509 834.552 124.301 833.784 123.885 833.304C123.485 832.824 122.837 832.584 121.941 832.584C120.917 832.584 120.093 832.904 119.469 833.544C118.861 834.184 118.557 835.04 118.557 836.112V843H116.157V825.336H118.557V832.776C118.957 832.072 119.509 831.536 120.213 831.168C120.917 830.8 121.709 830.616 122.589 830.616ZM141.104 837H132.464C132.544 839.832 133.832 841.248 136.328 841.248C137.72 841.248 138.992 840.792 140.144 839.88L140.888 841.608C140.344 842.088 139.648 842.472 138.8 842.76C137.968 843.032 137.128 843.168 136.28 843.168C134.344 843.168 132.824 842.616 131.72 841.512C130.616 840.392 130.064 838.864 130.064 836.928C130.064 835.696 130.304 834.6 130.784 833.64C131.28 832.68 131.968 831.936 132.848 831.408C133.728 830.88 134.728 830.616 135.848 830.616C137.48 830.616 138.76 831.144 139.688 832.2C140.632 833.256 141.104 834.72 141.104 836.592V837ZM135.896 832.416C134.984 832.416 134.24 832.688 133.664 833.232C133.088 833.776 132.72 834.552 132.56 835.56H138.968C138.872 834.536 138.56 833.76 138.032 833.232C137.504 832.688 136.792 832.416 135.896 832.416ZM162.244 830.904V842.784C162.244 844.624 161.756 846.008 160.78 846.936C159.82 847.88 158.388 848.352 156.484 848.352C154.644 848.352 153.036 847.952 151.66 847.152L152.068 845.256C152.82 845.656 153.54 845.952 154.228 846.144C154.932 846.336 155.676 846.432 156.46 846.432C158.716 846.432 159.844 845.28 159.844 842.976V840.36C159.476 841.064 158.94 841.624 158.236 842.04C157.532 842.44 156.716 842.64 155.788 842.64C154.732 842.64 153.788 842.392 152.956 841.896C152.14 841.4 151.5 840.696 151.036 839.784C150.588 838.872 150.364 837.824 150.364 836.64C150.364 835.456 150.588 834.408 151.036 833.496C151.5 832.584 152.14 831.88 152.956 831.384C153.788 830.872 154.732 830.616 155.788 830.616C156.716 830.616 157.532 830.816 158.236 831.216C158.94 831.6 159.476 832.152 159.844 832.872V830.904H162.244ZM156.34 840.696C157.428 840.696 158.284 840.336 158.908 839.616C159.532 838.896 159.844 837.904 159.844 836.64C159.844 835.376 159.532 834.384 158.908 833.664C158.3 832.928 157.444 832.56 156.34 832.56C155.252 832.56 154.388 832.928 153.748 833.664C153.124 834.384 152.812 835.376 152.812 836.64C152.812 837.888 153.124 838.88 153.748 839.616C154.388 840.336 155.252 840.696 156.34 840.696ZM172.227 830.616C172.595 830.616 172.979 830.672 173.379 830.784L173.331 832.992C172.899 832.832 172.427 832.752 171.915 832.752C170.811 832.752 169.979 833.088 169.419 833.76C168.875 834.416 168.603 835.248 168.603 836.256V843H166.203V834.312C166.203 833.048 166.139 831.912 166.011 830.904H168.267L168.483 833.088C168.803 832.288 169.299 831.68 169.971 831.264C170.643 830.832 171.395 830.616 172.227 830.616ZM185.712 837H177.072C177.152 839.832 178.44 841.248 180.936 841.248C182.328 841.248 183.6 840.792 184.752 839.88L185.496 841.608C184.952 842.088 184.256 842.472 183.408 842.76C182.576 843.032 181.736 843.168 180.888 843.168C178.952 843.168 177.432 842.616 176.328 841.512C175.224 840.392 174.672 838.864 174.672 836.928C174.672 835.696 174.912 834.6 175.392 833.64C175.888 832.68 176.576 831.936 177.456 831.408C178.336 830.88 179.336 830.616 180.456 830.616C182.088 830.616 183.368 831.144 184.296 832.2C185.24 833.256 185.712 834.72 185.712 836.592V837ZM180.504 832.416C179.592 832.416 178.848 832.688 178.272 833.232C177.696 833.776 177.328 834.552 177.168 835.56H183.576C183.48 834.536 183.168 833.76 182.64 833.232C182.112 832.688 181.4 832.416 180.504 832.416ZM199.957 830.904V843H197.557V840.936C197.205 841.656 196.677 842.208 195.973 842.592C195.285 842.976 194.477 843.168 193.549 843.168C192.477 843.168 191.533 842.912 190.717 842.4C189.917 841.888 189.293 841.168 188.845 840.24C188.397 839.296 188.173 838.2 188.173 836.952C188.173 835.704 188.397 834.6 188.845 833.64C189.309 832.68 189.949 831.936 190.765 831.408C191.581 830.88 192.509 830.616 193.549 830.616C194.477 830.616 195.285 830.816 195.973 831.216C196.661 831.6 197.189 832.152 197.557 832.872V830.904H199.957ZM194.125 841.248C195.213 841.248 196.053 840.872 196.645 840.12C197.253 839.352 197.557 838.28 197.557 836.904C197.557 835.512 197.253 834.44 196.645 833.688C196.053 832.936 195.205 832.56 194.101 832.56C193.013 832.56 192.157 832.952 191.533 833.736C190.925 834.504 190.621 835.576 190.621 836.952C190.621 838.312 190.925 839.368 191.533 840.12C192.157 840.872 193.021 841.248 194.125 841.248ZM207.062 832.776V838.848C207.062 839.68 207.238 840.272 207.59 840.624C207.958 840.96 208.462 841.128 209.102 841.128C209.518 841.128 209.942 841.064 210.374 840.936V842.904C209.846 843.08 209.246 843.168 208.574 843.168C207.326 843.168 206.358 842.816 205.67 842.112C204.982 841.408 204.638 840.384 204.638 839.04V832.776H202.286V830.904H204.638V827.88L207.062 827.04V830.904H210.398V832.776H207.062ZM223.357 837H214.717C214.797 839.832 216.085 841.248 218.581 841.248C219.973 841.248 221.245 840.792 222.397 839.88L223.141 841.608C222.597 842.088 221.901 842.472 221.053 842.76C220.221 843.032 219.381 843.168 218.533 843.168C216.597 843.168 215.077 842.616 213.973 841.512C212.869 840.392 212.317 838.864 212.317 836.928C212.317 835.696 212.557 834.6 213.037 833.64C213.533 832.68 214.221 831.936 215.101 831.408C215.981 830.88 216.981 830.616 218.101 830.616C219.733 830.616 221.013 831.144 221.941 832.2C222.885 833.256 223.357 834.72 223.357 836.592V837ZM218.149 832.416C217.237 832.416 216.493 832.688 215.917 833.232C215.341 833.776 214.973 834.552 214.813 835.56H221.221C221.125 834.536 220.813 833.76 220.285 833.232C219.757 832.688 219.045 832.416 218.149 832.416ZM230.762 843.168C228.65 843.168 226.986 842.656 225.77 841.632L226.49 839.88C227.754 840.84 229.202 841.32 230.834 841.32C231.666 841.32 232.298 841.184 232.73 840.912C233.162 840.624 233.378 840.224 233.378 839.712C233.378 839.28 233.226 838.944 232.922 838.704C232.634 838.448 232.138 838.232 231.434 838.056L229.418 837.576C228.362 837.352 227.554 836.96 226.994 836.4C226.45 835.824 226.178 835.112 226.178 834.264C226.178 833.176 226.61 832.296 227.474 831.624C228.354 830.952 229.514 830.616 230.954 830.616C231.818 830.616 232.634 830.752 233.402 831.024C234.186 831.296 234.85 831.68 235.394 832.176L234.65 833.88C233.482 832.952 232.25 832.488 230.954 832.488C230.17 832.488 229.562 832.64 229.13 832.944C228.698 833.232 228.482 833.64 228.482 834.168C228.482 834.584 228.618 834.92 228.89 835.176C229.162 835.432 229.594 835.632 230.186 835.776L232.25 836.28C233.402 836.536 234.25 836.944 234.794 837.504C235.354 838.048 235.634 838.76 235.634 839.64C235.634 840.728 235.194 841.592 234.314 842.232C233.45 842.856 232.266 843.168 230.762 843.168ZM241.918 832.776V838.848C241.918 839.68 242.094 840.272 242.446 840.624C242.814 840.96 243.318 841.128 243.958 841.128C244.374 841.128 244.798 841.064 245.23 840.936V842.904C244.702 843.08 244.102 843.168 243.43 843.168C242.182 843.168 241.214 842.816 240.526 842.112C239.838 841.408 239.494 840.384 239.494 839.04V832.776H237.142V830.904H239.494V827.88L241.918 827.04V830.904H245.254V832.776H241.918ZM265.852 830.904V842.784C265.852 844.624 265.364 846.008 264.388 846.936C263.428 847.88 261.996 848.352 260.092 848.352C258.252 848.352 256.644 847.952 255.268 847.152L255.676 845.256C256.428 845.656 257.148 845.952 257.836 846.144C258.54 846.336 259.284 846.432 260.068 846.432C262.324 846.432 263.452 845.28 263.452 842.976V840.36C263.084 841.064 262.548 841.624 261.844 842.04C261.14 842.44 260.324 842.64 259.396 842.64C258.34 842.64 257.396 842.392 256.564 841.896C255.748 841.4 255.108 840.696 254.644 839.784C254.196 838.872 253.972 837.824 253.972 836.64C253.972 835.456 254.196 834.408 254.644 833.496C255.108 832.584 255.748 831.88 256.564 831.384C257.396 830.872 258.34 830.616 259.396 830.616C260.324 830.616 261.14 830.816 261.844 831.216C262.548 831.6 263.084 832.152 263.452 832.872V830.904H265.852ZM259.948 840.696C261.036 840.696 261.892 840.336 262.516 839.616C263.14 838.896 263.452 837.904 263.452 836.64C263.452 835.376 263.14 834.384 262.516 833.664C261.908 832.928 261.052 832.56 259.948 832.56C258.86 832.56 257.996 832.928 257.356 833.664C256.732 834.384 256.42 835.376 256.42 836.64C256.42 837.888 256.732 838.88 257.356 839.616C257.996 840.336 258.86 840.696 259.948 840.696ZM269.81 825.336H272.21V843H269.81V825.336ZM281.371 843.168C280.187 843.168 279.147 842.912 278.251 842.4C277.355 841.888 276.659 841.16 276.163 840.216C275.683 839.272 275.443 838.168 275.443 836.904C275.443 835.64 275.683 834.536 276.163 833.592C276.659 832.632 277.355 831.896 278.251 831.384C279.147 830.872 280.187 830.616 281.371 830.616C282.539 830.616 283.571 830.872 284.467 831.384C285.363 831.896 286.051 832.632 286.531 833.592C287.027 834.536 287.275 835.64 287.275 836.904C287.275 838.168 287.027 839.272 286.531 840.216C286.051 841.16 285.363 841.888 284.467 842.4C283.571 842.912 282.539 843.168 281.371 843.168ZM281.347 841.248C282.467 841.248 283.323 840.88 283.915 840.144C284.507 839.408 284.803 838.328 284.803 836.904C284.803 835.512 284.499 834.44 283.891 833.688C283.299 832.936 282.459 832.56 281.371 832.56C280.267 832.56 279.411 832.936 278.803 833.688C278.195 834.44 277.891 835.512 277.891 836.904C277.891 838.328 278.187 839.408 278.779 840.144C279.387 840.88 280.243 841.248 281.347 841.248ZM296.533 830.616C296.901 830.616 297.285 830.672 297.685 830.784L297.637 832.992C297.205 832.832 296.733 832.752 296.221 832.752C295.117 832.752 294.285 833.088 293.725 833.76C293.181 834.416 292.909 835.248 292.909 836.256V843H290.509V834.312C290.509 833.048 290.445 831.912 290.317 830.904H292.573L292.789 833.088C293.109 832.288 293.605 831.68 294.277 831.264C294.949 830.832 295.701 830.616 296.533 830.616ZM311.651 830.904L306.011 843.984C305.387 845.408 304.603 846.448 303.659 847.104C302.731 847.776 301.579 848.224 300.203 848.448L299.675 846.576C300.811 846.32 301.667 845.984 302.243 845.568C302.835 845.168 303.307 844.56 303.659 843.744L304.091 842.736L299.003 830.904H301.571L305.363 840.264L309.227 830.904H311.651ZM320.724 830.904H323.124V843H320.724V830.904ZM323.316 825.624V828.168H320.508V825.624H323.316ZM333.51 830.616C336.406 830.616 337.854 832.232 337.854 835.464V843H335.43V835.608C335.43 834.552 335.222 833.784 334.806 833.304C334.406 832.824 333.758 832.584 332.862 832.584C331.838 832.584 331.014 832.904 330.39 833.544C329.782 834.184 329.478 835.04 329.478 836.112V843H327.078V834.312C327.078 833.048 327.014 831.912 326.886 830.904H329.142L329.358 832.992C329.742 832.224 330.294 831.64 331.014 831.24C331.75 830.824 332.582 830.616 333.51 830.616ZM348.503 825.336H350.903V843H348.503V825.336ZM354.856 830.904H357.256V843H354.856V830.904ZM357.448 825.624V828.168H354.64V825.624H357.448ZM372.201 830.928L366.945 843H364.761L359.553 830.928H362.121L365.913 840.264L369.777 830.928H372.201ZM374.476 830.904H376.876V843H374.476V830.904ZM377.068 825.624V828.168H374.26V825.624H377.068ZM387.261 830.616C390.157 830.616 391.605 832.232 391.605 835.464V843H389.181V835.608C389.181 834.552 388.973 833.784 388.557 833.304C388.157 832.824 387.509 832.584 386.613 832.584C385.589 832.584 384.765 832.904 384.141 833.544C383.533 834.184 383.229 835.04 383.229 836.112V843H380.829V834.312C380.829 833.048 380.765 831.912 380.637 830.904H382.893L383.109 832.992C383.493 832.224 384.045 831.64 384.765 831.24C385.501 830.824 386.333 830.616 387.261 830.616ZM406.616 830.904V842.784C406.616 844.624 406.128 846.008 405.152 846.936C404.192 847.88 402.76 848.352 400.856 848.352C399.016 848.352 397.408 847.952 396.032 847.152L396.44 845.256C397.192 845.656 397.912 845.952 398.6 846.144C399.304 846.336 400.048 846.432 400.832 846.432C403.088 846.432 404.216 845.28 404.216 842.976V840.36C403.848 841.064 403.312 841.624 402.608 842.04C401.904 842.44 401.088 842.64 400.16 842.64C399.104 842.64 398.16 842.392 397.328 841.896C396.512 841.4 395.872 840.696 395.408 839.784C394.96 838.872 394.736 837.824 394.736 836.64C394.736 835.456 394.96 834.408 395.408 833.496C395.872 832.584 396.512 831.88 397.328 831.384C398.16 830.872 399.104 830.616 400.16 830.616C401.088 830.616 401.904 830.816 402.608 831.216C403.312 831.6 403.848 832.152 404.216 832.872V830.904H406.616ZM400.712 840.696C401.8 840.696 402.656 840.336 403.28 839.616C403.904 838.896 404.216 837.904 404.216 836.64C404.216 835.376 403.904 834.384 403.28 833.664C402.672 832.928 401.816 832.56 400.712 832.56C399.624 832.56 398.76 832.928 398.12 833.664C397.496 834.384 397.184 835.376 397.184 836.64C397.184 837.888 397.496 838.88 398.12 839.616C398.76 840.336 399.624 840.696 400.712 840.696ZM417.373 825.336H419.773V843H417.373V825.336ZM423.726 830.904H426.126V843H423.726V830.904ZM426.318 825.624V828.168H423.51V825.624H426.318ZM440.399 837H431.759C431.839 839.832 433.127 841.248 435.623 841.248C437.015 841.248 438.287 840.792 439.439 839.88L440.183 841.608C439.639 842.088 438.943 842.472 438.095 842.76C437.263 843.032 436.423 843.168 435.575 843.168C433.639 843.168 432.119 842.616 431.015 841.512C429.911 840.392 429.359 838.864 429.359 836.928C429.359 835.696 429.599 834.6 430.079 833.64C430.575 832.68 431.263 831.936 432.143 831.408C433.023 830.88 434.023 830.616 435.143 830.616C436.775 830.616 438.055 831.144 438.983 832.2C439.927 833.256 440.399 834.72 440.399 836.592V837ZM435.191 832.416C434.279 832.416 433.535 832.688 432.959 833.232C432.383 833.776 432.015 834.552 431.855 835.56H438.263C438.167 834.536 437.855 833.76 437.327 833.232C436.799 832.688 436.087 832.416 435.191 832.416ZM447.805 843.168C445.693 843.168 444.029 842.656 442.813 841.632L443.533 839.88C444.797 840.84 446.245 841.32 447.877 841.32C448.709 841.32 449.341 841.184 449.773 840.912C450.205 840.624 450.421 840.224 450.421 839.712C450.421 839.28 450.269 838.944 449.965 838.704C449.677 838.448 449.181 838.232 448.477 838.056L446.461 837.576C445.405 837.352 444.597 836.96 444.037 836.4C443.493 835.824 443.221 835.112 443.221 834.264C443.221 833.176 443.653 832.296 444.517 831.624C445.397 830.952 446.557 830.616 447.997 830.616C448.861 830.616 449.677 830.752 450.445 831.024C451.229 831.296 451.893 831.68 452.437 832.176L451.693 833.88C450.525 832.952 449.293 832.488 447.997 832.488C447.213 832.488 446.605 832.64 446.173 832.944C445.741 833.232 445.525 833.64 445.525 834.168C445.525 834.584 445.661 834.92 445.933 835.176C446.205 835.432 446.637 835.632 447.229 835.776L449.293 836.28C450.445 836.536 451.293 836.944 451.837 837.504C452.397 838.048 452.677 838.76 452.677 839.64C452.677 840.728 452.237 841.592 451.357 842.232C450.493 842.856 449.309 843.168 447.805 843.168ZM469.164 830.616C472.06 830.616 473.508 832.232 473.508 835.464V843H471.084V835.608C471.084 834.552 470.876 833.784 470.46 833.304C470.06 832.824 469.412 832.584 468.516 832.584C467.492 832.584 466.668 832.904 466.044 833.544C465.436 834.184 465.132 835.04 465.132 836.112V843H462.732V834.312C462.732 833.048 462.668 831.912 462.54 830.904H464.796L465.012 832.992C465.396 832.224 465.948 831.64 466.668 831.24C467.404 830.824 468.236 830.616 469.164 830.616ZM482.567 843.168C481.383 843.168 480.343 842.912 479.447 842.4C478.551 841.888 477.855 841.16 477.359 840.216C476.879 839.272 476.639 838.168 476.639 836.904C476.639 835.64 476.879 834.536 477.359 833.592C477.855 832.632 478.551 831.896 479.447 831.384C480.343 830.872 481.383 830.616 482.567 830.616C483.735 830.616 484.767 830.872 485.663 831.384C486.559 831.896 487.247 832.632 487.727 833.592C488.223 834.536 488.471 835.64 488.471 836.904C488.471 838.168 488.223 839.272 487.727 840.216C487.247 841.16 486.559 841.888 485.663 842.4C484.767 842.912 483.735 843.168 482.567 843.168ZM482.543 841.248C483.663 841.248 484.519 840.88 485.111 840.144C485.703 839.408 485.999 838.328 485.999 836.904C485.999 835.512 485.695 834.44 485.087 833.688C484.495 832.936 483.655 832.56 482.567 832.56C481.463 832.56 480.607 832.936 479.999 833.688C479.391 834.44 479.087 835.512 479.087 836.904C479.087 838.328 479.383 839.408 479.975 840.144C480.583 840.88 481.439 841.248 482.543 841.248ZM494.801 832.776V838.848C494.801 839.68 494.977 840.272 495.329 840.624C495.697 840.96 496.201 841.128 496.841 841.128C497.257 841.128 497.681 841.064 498.113 840.936V842.904C497.585 843.08 496.985 843.168 496.313 843.168C495.065 843.168 494.097 842.816 493.409 842.112C492.721 841.408 492.377 840.384 492.377 839.04V832.776H490.025V830.904H492.377V827.88L494.801 827.04V830.904H498.137V832.776H494.801ZM507.574 830.904H509.974V843H507.574V830.904ZM510.166 825.624V828.168H507.358V825.624H510.166ZM520.36 830.616C523.256 830.616 524.704 832.232 524.704 835.464V843H522.28V835.608C522.28 834.552 522.072 833.784 521.656 833.304C521.256 832.824 520.608 832.584 519.712 832.584C518.688 832.584 517.864 832.904 517.24 833.544C516.632 834.184 516.328 835.04 516.328 836.112V843H513.928V834.312C513.928 833.048 513.864 831.912 513.736 830.904H515.992L516.208 832.992C516.592 832.224 517.144 831.64 517.864 831.24C518.6 830.824 519.432 830.616 520.36 830.616ZM541.785 830.616C544.681 830.616 546.129 832.232 546.129 835.464V843H543.705V835.608C543.705 834.552 543.497 833.784 543.081 833.304C542.681 832.824 542.033 832.584 541.137 832.584C540.113 832.584 539.289 832.904 538.665 833.544C538.057 834.184 537.753 835.04 537.753 836.112V843H535.353V834.312C535.353 833.048 535.289 831.912 535.161 830.904H537.417L537.633 832.992C538.017 832.224 538.569 831.64 539.289 831.24C540.025 830.824 540.857 830.616 541.785 830.616ZM560.299 837H551.659C551.739 839.832 553.027 841.248 555.523 841.248C556.915 841.248 558.187 840.792 559.339 839.88L560.083 841.608C559.539 842.088 558.843 842.472 557.995 842.76C557.163 843.032 556.323 843.168 555.475 843.168C553.539 843.168 552.019 842.616 550.915 841.512C549.811 840.392 549.259 838.864 549.259 836.928C549.259 835.696 549.499 834.6 549.979 833.64C550.475 832.68 551.163 831.936 552.043 831.408C552.923 830.88 553.923 830.616 555.043 830.616C556.675 830.616 557.955 831.144 558.883 832.2C559.827 833.256 560.299 834.72 560.299 836.592V837ZM555.091 832.416C554.179 832.416 553.435 832.688 552.859 833.232C552.283 833.776 551.915 834.552 551.755 835.56H558.163C558.067 834.536 557.755 833.76 557.227 833.232C556.699 832.688 555.987 832.416 555.091 832.416ZM574.309 830.928L569.053 843H566.869L561.661 830.928H564.229L568.021 840.264L571.885 830.928H574.309ZM586.74 837H578.1C578.18 839.832 579.468 841.248 581.964 841.248C583.356 841.248 584.628 840.792 585.78 839.88L586.524 841.608C585.98 842.088 585.284 842.472 584.436 842.76C583.604 843.032 582.764 843.168 581.916 843.168C579.98 843.168 578.46 842.616 577.356 841.512C576.252 840.392 575.7 838.864 575.7 836.928C575.7 835.696 575.94 834.6 576.42 833.64C576.916 832.68 577.604 831.936 578.484 831.408C579.364 830.88 580.364 830.616 581.484 830.616C583.116 830.616 584.396 831.144 585.324 832.2C586.268 833.256 586.74 834.72 586.74 836.592V837ZM581.532 832.416C580.62 832.416 579.876 832.688 579.3 833.232C578.724 833.776 578.356 834.552 578.196 835.56H584.604C584.508 834.536 584.196 833.76 583.668 833.232C583.14 832.688 582.428 832.416 581.532 832.416ZM595.945 830.616C596.313 830.616 596.697 830.672 597.097 830.784L597.049 832.992C596.617 832.832 596.145 832.752 595.633 832.752C594.529 832.752 593.697 833.088 593.137 833.76C592.593 834.416 592.321 835.248 592.321 836.256V843H589.921V834.312C589.921 833.048 589.857 831.912 589.729 830.904H591.985L592.201 833.088C592.521 832.288 593.017 831.68 593.689 831.264C594.361 830.832 595.113 830.616 595.945 830.616ZM611.255 827.28C609.927 827.28 609.263 828.04 609.263 829.56V830.904H612.095V832.776H609.263V843H606.839V832.776H604.511V830.904H606.839V829.368C606.839 828.024 607.175 827 607.847 826.296C608.535 825.592 609.495 825.24 610.727 825.24C611.367 825.24 611.951 825.32 612.479 825.48V827.472C612.047 827.344 611.639 827.28 611.255 827.28ZM625.904 830.904V843H623.504V840.936C623.152 841.656 622.624 842.208 621.92 842.592C621.232 842.976 620.424 843.168 619.496 843.168C618.424 843.168 617.48 842.912 616.664 842.4C615.864 841.888 615.24 841.168 614.792 840.24C614.344 839.296 614.12 838.2 614.12 836.952C614.12 835.704 614.344 834.6 614.792 833.64C615.256 832.68 615.896 831.936 616.712 831.408C617.528 830.88 618.456 830.616 619.496 830.616C620.424 830.616 621.232 830.816 621.92 831.216C622.608 831.6 623.136 832.152 623.504 832.872V830.904H625.904ZM620.072 841.248C621.16 841.248 622 840.872 622.592 840.12C623.2 839.352 623.504 838.28 623.504 836.904C623.504 835.512 623.2 834.44 622.592 833.688C622 832.936 621.152 832.56 620.048 832.56C618.96 832.56 618.104 832.952 617.48 833.736C616.872 834.504 616.568 835.576 616.568 836.952C616.568 838.312 616.872 839.368 617.48 840.12C618.104 840.872 618.968 841.248 620.072 841.248ZM629.865 825.336H632.265V843H629.865V825.336ZM636.218 825.336H638.618V843H636.218V825.336ZM642.571 830.904H644.971V843H642.571V830.904ZM645.163 825.624V828.168H642.355V825.624H645.163ZM655.356 830.616C658.252 830.616 659.7 832.232 659.7 835.464V843H657.276V835.608C657.276 834.552 657.068 833.784 656.652 833.304C656.252 832.824 655.604 832.584 654.708 832.584C653.684 832.584 652.86 832.904 652.236 833.544C651.628 834.184 651.324 835.04 651.324 836.112V843H648.924V834.312C648.924 833.048 648.86 831.912 648.732 830.904H650.988L651.204 832.992C651.588 832.224 652.14 831.64 652.86 831.24C653.596 830.824 654.428 830.616 655.356 830.616ZM674.711 830.904V842.784C674.711 844.624 674.223 846.008 673.247 846.936C672.287 847.88 670.855 848.352 668.951 848.352C667.111 848.352 665.503 847.952 664.127 847.152L664.535 845.256C665.287 845.656 666.007 845.952 666.695 846.144C667.399 846.336 668.143 846.432 668.927 846.432C671.183 846.432 672.311 845.28 672.311 842.976V840.36C671.943 841.064 671.407 841.624 670.703 842.04C669.999 842.44 669.183 842.64 668.255 842.64C667.199 842.64 666.255 842.392 665.423 841.896C664.607 841.4 663.967 840.696 663.503 839.784C663.055 838.872 662.831 837.824 662.831 836.64C662.831 835.456 663.055 834.408 663.503 833.496C663.967 832.584 664.607 831.88 665.423 831.384C666.255 830.872 667.199 830.616 668.255 830.616C669.183 830.616 669.999 830.816 670.703 831.216C671.407 831.6 671.943 832.152 672.311 832.872V830.904H674.711ZM668.807 840.696C669.895 840.696 670.751 840.336 671.375 839.616C671.999 838.896 672.311 837.904 672.311 836.64C672.311 835.376 671.999 834.384 671.375 833.664C670.767 832.928 669.911 832.56 668.807 832.56C667.719 832.56 666.855 832.928 666.215 833.664C665.591 834.384 665.279 835.376 665.279 836.64C665.279 837.888 665.591 838.88 666.215 839.616C666.855 840.336 667.719 840.696 668.807 840.696ZM681.214 840.12V842.088C681.214 842.84 681.086 843.52 680.83 844.128C680.574 844.752 680.142 845.368 679.534 845.976L678.502 845.136C679.174 844.4 679.558 843.688 679.654 843H678.334V840.12H681.214ZM214.186 860.616C215.242 860.616 216.178 860.872 216.994 861.384C217.81 861.896 218.442 862.624 218.89 863.568C219.338 864.512 219.562 865.608 219.562 866.856C219.562 868.104 219.33 869.208 218.866 870.168C218.418 871.112 217.786 871.848 216.97 872.376C216.154 872.904 215.226 873.168 214.186 873.168C213.258 873.168 212.442 872.976 211.738 872.592C211.05 872.192 210.53 871.624 210.178 870.888V873H207.778V855.336H210.178V862.896C210.53 862.176 211.05 861.616 211.738 861.216C212.442 860.816 213.258 860.616 214.186 860.616ZM213.634 871.248C214.722 871.248 215.57 870.864 216.178 870.096C216.786 869.312 217.09 868.232 217.09 866.856C217.09 865.496 216.786 864.44 216.178 863.688C215.57 862.936 214.722 862.56 213.634 862.56C212.53 862.56 211.674 862.936 211.066 863.688C210.474 864.44 210.178 865.512 210.178 866.904C210.178 868.296 210.474 869.368 211.066 870.12C211.674 870.872 212.53 871.248 213.634 871.248ZM233.315 860.904V873H230.963V870.984C230.579 871.688 230.051 872.232 229.379 872.616C228.707 872.984 227.947 873.168 227.099 873.168C224.187 873.168 222.731 871.552 222.731 868.32V860.904H225.131V868.296C225.131 869.288 225.331 870.024 225.731 870.504C226.147 870.968 226.771 871.2 227.603 871.2C228.595 871.2 229.387 870.88 229.979 870.24C230.587 869.6 230.891 868.752 230.891 867.696V860.904H233.315ZM240.41 862.776V868.848C240.41 869.68 240.586 870.272 240.938 870.624C241.306 870.96 241.81 871.128 242.45 871.128C242.866 871.128 243.29 871.064 243.722 870.936V872.904C243.194 873.08 242.594 873.168 241.922 873.168C240.674 873.168 239.706 872.816 239.018 872.112C238.33 871.408 237.986 870.384 237.986 869.04V862.776H235.634V860.904H237.986V857.88L240.41 857.04V860.904H243.746V862.776H240.41ZM253.183 860.904H255.583V873H253.183V860.904ZM255.775 855.624V858.168H252.967V855.624H255.775ZM265.968 860.616C268.864 860.616 270.312 862.232 270.312 865.464V873H267.888V865.608C267.888 864.552 267.68 863.784 267.264 863.304C266.864 862.824 266.216 862.584 265.32 862.584C264.296 862.584 263.472 862.904 262.848 863.544C262.24 864.184 261.936 865.04 261.936 866.112V873H259.536V864.312C259.536 863.048 259.472 861.912 259.344 860.904H261.6L261.816 862.992C262.2 862.224 262.752 861.64 263.472 861.24C264.208 860.824 265.04 860.616 265.968 860.616ZM286.985 860.616C287.353 860.616 287.737 860.672 288.137 860.784L288.089 862.992C287.657 862.832 287.185 862.752 286.673 862.752C285.569 862.752 284.737 863.088 284.177 863.76C283.633 864.416 283.361 865.248 283.361 866.256V873H280.961V864.312C280.961 863.048 280.897 861.912 280.769 860.904H283.025L283.241 863.088C283.561 862.288 284.057 861.68 284.729 861.264C285.401 860.832 286.153 860.616 286.985 860.616ZM290.385 860.904H292.785V873H290.385V860.904ZM292.977 855.624V858.168H290.169V855.624H292.977ZM300.962 873.168C298.85 873.168 297.186 872.656 295.97 871.632L296.69 869.88C297.954 870.84 299.402 871.32 301.034 871.32C301.866 871.32 302.498 871.184 302.93 870.912C303.362 870.624 303.578 870.224 303.578 869.712C303.578 869.28 303.426 868.944 303.122 868.704C302.834 868.448 302.338 868.232 301.634 868.056L299.618 867.576C298.562 867.352 297.754 866.96 297.194 866.4C296.65 865.824 296.378 865.112 296.378 864.264C296.378 863.176 296.81 862.296 297.674 861.624C298.554 860.952 299.714 860.616 301.154 860.616C302.018 860.616 302.834 860.752 303.602 861.024C304.386 861.296 305.05 861.68 305.594 862.176L304.85 863.88C303.682 862.952 302.45 862.488 301.154 862.488C300.37 862.488 299.762 862.64 299.33 862.944C298.898 863.232 298.682 863.64 298.682 864.168C298.682 864.584 298.818 864.92 299.09 865.176C299.362 865.432 299.794 865.632 300.386 865.776L302.45 866.28C303.602 866.536 304.45 866.944 304.994 867.504C305.554 868.048 305.834 868.76 305.834 869.64C305.834 870.728 305.394 871.592 304.514 872.232C303.65 872.856 302.466 873.168 300.962 873.168ZM309.091 860.904H311.491V873H309.091V860.904ZM311.683 855.624V858.168H308.875V855.624H311.683ZM321.876 860.616C324.772 860.616 326.22 862.232 326.22 865.464V873H323.796V865.608C323.796 864.552 323.588 863.784 323.172 863.304C322.772 862.824 322.124 862.584 321.228 862.584C320.204 862.584 319.38 862.904 318.756 863.544C318.148 864.184 317.844 865.04 317.844 866.112V873H315.444V864.312C315.444 863.048 315.38 861.912 315.252 860.904H317.508L317.724 862.992C318.108 862.224 318.66 861.64 319.38 861.24C320.116 860.824 320.948 860.616 321.876 860.616ZM341.231 860.904V872.784C341.231 874.624 340.743 876.008 339.767 876.936C338.807 877.88 337.375 878.352 335.471 878.352C333.631 878.352 332.023 877.952 330.647 877.152L331.055 875.256C331.807 875.656 332.527 875.952 333.215 876.144C333.919 876.336 334.663 876.432 335.447 876.432C337.703 876.432 338.831 875.28 338.831 872.976V870.36C338.463 871.064 337.927 871.624 337.223 872.04C336.519 872.44 335.703 872.64 334.775 872.64C333.719 872.64 332.775 872.392 331.943 871.896C331.127 871.4 330.487 870.696 330.023 869.784C329.575 868.872 329.351 867.824 329.351 866.64C329.351 865.456 329.575 864.408 330.023 863.496C330.487 862.584 331.127 861.88 331.943 861.384C332.775 860.872 333.719 860.616 334.775 860.616C335.703 860.616 336.519 860.816 337.223 861.216C337.927 861.6 338.463 862.152 338.831 862.872V860.904H341.231ZM335.327 870.696C336.415 870.696 337.271 870.336 337.895 869.616C338.519 868.896 338.831 867.904 338.831 866.64C338.831 865.376 338.519 864.384 337.895 863.664C337.287 862.928 336.431 862.56 335.327 862.56C334.239 862.56 333.375 862.928 332.735 863.664C332.111 864.384 331.799 865.376 331.799 866.64C331.799 867.888 332.111 868.88 332.735 869.616C333.375 870.336 334.239 870.696 335.327 870.696ZM362.308 867H353.668C353.748 869.832 355.036 871.248 357.532 871.248C358.924 871.248 360.196 870.792 361.348 869.88L362.092 871.608C361.548 872.088 360.852 872.472 360.004 872.76C359.172 873.032 358.332 873.168 357.484 873.168C355.548 873.168 354.028 872.616 352.924 871.512C351.82 870.392 351.268 868.864 351.268 866.928C351.268 865.696 351.508 864.6 351.988 863.64C352.484 862.68 353.172 861.936 354.052 861.408C354.932 860.88 355.932 860.616 357.052 860.616C358.684 860.616 359.964 861.144 360.892 862.2C361.836 863.256 362.308 864.72 362.308 866.592V867ZM357.1 862.416C356.188 862.416 355.444 862.688 354.868 863.232C354.292 863.776 353.924 864.552 353.764 865.56H360.172C360.076 864.536 359.764 863.76 359.236 863.232C358.708 862.688 357.996 862.416 357.1 862.416ZM376.317 860.928L371.061 873H368.877L363.669 860.928H366.237L370.029 870.264L373.893 860.928H376.317ZM388.748 867H380.108C380.188 869.832 381.476 871.248 383.972 871.248C385.364 871.248 386.636 870.792 387.788 869.88L388.532 871.608C387.988 872.088 387.292 872.472 386.444 872.76C385.612 873.032 384.772 873.168 383.924 873.168C381.988 873.168 380.468 872.616 379.364 871.512C378.26 870.392 377.708 868.864 377.708 866.928C377.708 865.696 377.948 864.6 378.428 863.64C378.924 862.68 379.612 861.936 380.492 861.408C381.372 860.88 382.372 860.616 383.492 860.616C385.124 860.616 386.404 861.144 387.332 862.2C388.276 863.256 388.748 864.72 388.748 866.592V867ZM383.54 862.416C382.628 862.416 381.884 862.688 381.308 863.232C380.732 863.776 380.364 864.552 380.204 865.56H386.612C386.516 864.536 386.204 863.76 385.676 863.232C385.148 862.688 384.436 862.416 383.54 862.416ZM397.954 860.616C398.322 860.616 398.706 860.672 399.106 860.784L399.058 862.992C398.626 862.832 398.154 862.752 397.642 862.752C396.538 862.752 395.706 863.088 395.146 863.76C394.602 864.416 394.33 865.248 394.33 866.256V873H391.93V864.312C391.93 863.048 391.866 861.912 391.738 860.904H393.994L394.21 863.088C394.53 862.288 395.026 861.68 395.698 861.264C396.37 860.832 397.122 860.616 397.954 860.616ZM413.072 860.904L407.432 873.984C406.808 875.408 406.024 876.448 405.08 877.104C404.152 877.776 403 878.224 401.624 878.448L401.096 876.576C402.232 876.32 403.088 875.984 403.664 875.568C404.256 875.168 404.728 874.56 405.08 873.744L405.512 872.736L400.424 860.904H402.992L406.784 870.264L410.648 860.904H413.072ZM425.29 862.776V868.848C425.29 869.68 425.466 870.272 425.818 870.624C426.186 870.96 426.69 871.128 427.33 871.128C427.746 871.128 428.17 871.064 428.602 870.936V872.904C428.074 873.08 427.474 873.168 426.802 873.168C425.554 873.168 424.586 872.816 423.898 872.112C423.21 871.408 422.866 870.384 422.866 869.04V862.776H420.514V860.904H422.866V857.88L425.29 857.04V860.904H428.626V862.776H425.29ZM431.264 860.904H433.664V873H431.264V860.904ZM433.856 855.624V858.168H431.048V855.624H433.856ZM451.417 860.616C454.105 860.616 455.449 862.232 455.449 865.464V873H453.025V865.584C453.025 864.544 452.841 863.784 452.473 863.304C452.121 862.824 451.545 862.584 450.745 862.584C449.817 862.584 449.081 862.904 448.537 863.544C448.009 864.184 447.745 865.056 447.745 866.16V873H445.321V865.584C445.321 864.544 445.137 863.784 444.769 863.304C444.417 862.824 443.841 862.584 443.041 862.584C442.113 862.584 441.377 862.904 440.833 863.544C440.289 864.184 440.017 865.056 440.017 866.16V873H437.617V864.312C437.617 863.048 437.553 861.912 437.425 860.904H439.681L439.897 862.92C440.249 862.184 440.753 861.616 441.409 861.216C442.065 860.816 442.833 860.616 443.713 860.616C445.585 860.616 446.809 861.392 447.385 862.944C447.753 862.224 448.289 861.656 448.993 861.24C449.713 860.824 450.521 860.616 451.417 860.616ZM469.642 867H461.002C461.082 869.832 462.37 871.248 464.866 871.248C466.258 871.248 467.53 870.792 468.682 869.88L469.426 871.608C468.882 872.088 468.186 872.472 467.338 872.76C466.506 873.032 465.666 873.168 464.818 873.168C462.882 873.168 461.362 872.616 460.258 871.512C459.154 870.392 458.602 868.864 458.602 866.928C458.602 865.696 458.842 864.6 459.322 863.64C459.818 862.68 460.506 861.936 461.386 861.408C462.266 860.88 463.266 860.616 464.386 860.616C466.018 860.616 467.298 861.144 468.226 862.2C469.17 863.256 469.642 864.72 469.642 866.592V867ZM464.434 862.416C463.522 862.416 462.778 862.688 462.202 863.232C461.626 863.776 461.258 864.552 461.098 865.56H467.506C467.41 864.536 467.098 863.76 466.57 863.232C466.042 862.688 465.33 862.416 464.434 862.416ZM498.39 860.904L493.782 873H491.574L488.334 864.24L485.118 873H482.91L478.302 860.904H480.822L484.11 870.144L487.446 860.904H489.366L492.702 870.144L496.014 860.904H498.39ZM511.201 867H502.561C502.641 869.832 503.929 871.248 506.425 871.248C507.817 871.248 509.089 870.792 510.241 869.88L510.985 871.608C510.441 872.088 509.745 872.472 508.897 872.76C508.065 873.032 507.225 873.168 506.377 873.168C504.441 873.168 502.921 872.616 501.817 871.512C500.713 870.392 500.161 868.864 500.161 866.928C500.161 865.696 500.401 864.6 500.881 863.64C501.377 862.68 502.065 861.936 502.945 861.408C503.825 860.88 504.825 860.616 505.945 860.616C507.577 860.616 508.857 861.144 509.785 862.2C510.729 863.256 511.201 864.72 511.201 866.592V867ZM505.993 862.416C505.081 862.416 504.337 862.688 503.761 863.232C503.185 863.776 502.817 864.552 502.657 865.56H509.065C508.969 864.536 508.657 863.76 508.129 863.232C507.601 862.688 506.889 862.416 505.993 862.416ZM526.293 857.28C524.965 857.28 524.301 858.04 524.301 859.56V860.904H527.133V862.776H524.301V873H521.877V862.776H519.549V860.904H521.877V859.368C521.877 858.024 522.213 857 522.885 856.296C523.573 855.592 524.533 855.24 525.765 855.24C526.405 855.24 526.989 855.32 527.517 855.48V857.472C527.085 857.344 526.677 857.28 526.293 857.28ZM540.942 860.904V873H538.542V870.936C538.19 871.656 537.662 872.208 536.958 872.592C536.27 872.976 535.462 873.168 534.534 873.168C533.462 873.168 532.518 872.912 531.702 872.4C530.902 871.888 530.278 871.168 529.83 870.24C529.382 869.296 529.158 868.2 529.158 866.952C529.158 865.704 529.382 864.6 529.83 863.64C530.294 862.68 530.934 861.936 531.75 861.408C532.566 860.88 533.494 860.616 534.534 860.616C535.462 860.616 536.27 860.816 536.958 861.216C537.646 861.6 538.174 862.152 538.542 862.872V860.904H540.942ZM535.11 871.248C536.198 871.248 537.038 870.872 537.63 870.12C538.238 869.352 538.542 868.28 538.542 866.904C538.542 865.512 538.238 864.44 537.63 863.688C537.038 862.936 536.19 862.56 535.086 862.56C533.998 862.56 533.142 862.952 532.518 863.736C531.91 864.504 531.606 865.576 531.606 866.952C531.606 868.312 531.91 869.368 532.518 870.12C533.142 870.872 534.006 871.248 535.11 871.248ZM544.903 855.336H547.303V873H544.903V855.336ZM551.256 855.336H553.656V873H551.256V855.336ZM560.154 855.912V857.88C560.154 858.632 560.026 859.312 559.77 859.92C559.514 860.528 559.082 861.136 558.474 861.744L557.442 860.928C558.114 860.192 558.498 859.48 558.594 858.792H557.274V855.912H560.154ZM564.45 855.912V857.88C564.45 858.632 564.322 859.312 564.066 859.92C563.81 860.528 563.378 861.136 562.77 861.744L561.738 860.928C562.41 860.192 562.794 859.48 562.89 858.792H561.57V855.912H564.45Z" fill="#F7F7F7"/>
<path d="M296.241 907.416C295.937 908.168 295.521 908.752 294.993 909.168C294.465 909.584 293.841 909.792 293.121 909.792C292.593 909.792 292.089 909.696 291.609 909.504C291.129 909.312 290.553 909.04 289.881 908.688C289.353 908.4 288.929 908.192 288.609 908.064C288.289 907.92 287.977 907.848 287.673 907.848C287.161 907.848 286.745 907.992 286.425 908.28C286.105 908.552 285.841 908.944 285.633 909.456L284.433 908.784C284.721 908.032 285.129 907.456 285.657 907.056C286.201 906.64 286.833 906.432 287.553 906.432C288.081 906.432 288.585 906.528 289.065 906.72C289.545 906.912 290.121 907.184 290.793 907.536C291.289 907.808 291.705 908.016 292.041 908.16C292.377 908.288 292.697 908.352 293.001 908.352C293.513 908.352 293.929 908.216 294.249 907.944C294.569 907.656 294.833 907.264 295.041 906.768L296.241 907.416ZM320.401 897.912V915H318.865L308.545 901.248V915H306.697V897.912H308.209L318.529 911.664V897.912H320.401ZM334.867 908.904H326.011C326.027 910.44 326.379 911.6 327.067 912.384C327.771 913.168 328.787 913.56 330.115 913.56C331.523 913.56 332.819 913.088 334.003 912.144L334.651 913.56C334.123 914.056 333.443 914.448 332.611 914.736C331.795 915.024 330.955 915.168 330.091 915.168C328.203 915.168 326.723 914.616 325.651 913.512C324.579 912.392 324.043 910.864 324.043 908.928C324.043 907.696 324.283 906.608 324.763 905.664C325.243 904.704 325.915 903.96 326.779 903.432C327.643 902.904 328.627 902.64 329.731 902.64C331.331 902.64 332.587 903.168 333.499 904.224C334.411 905.264 334.867 906.704 334.867 908.544V908.904ZM329.755 904.152C328.747 904.152 327.923 904.456 327.283 905.064C326.659 905.672 326.259 906.528 326.083 907.632H333.115C333.019 906.496 332.683 905.632 332.107 905.04C331.547 904.448 330.763 904.152 329.755 904.152ZM338.218 897.336H340.162V915H338.218V897.336ZM348.417 915.168C346.385 915.168 344.777 914.648 343.593 913.608L344.241 912.168C344.897 912.68 345.561 913.048 346.233 913.272C346.905 913.496 347.657 913.608 348.489 913.608C349.401 913.608 350.089 913.456 350.553 913.152C351.033 912.832 351.273 912.376 351.273 911.784C351.273 911.304 351.113 910.92 350.793 910.632C350.473 910.344 349.945 910.12 349.209 909.96L347.169 909.48C346.161 909.256 345.377 908.856 344.817 908.28C344.273 907.704 344.001 907.016 344.001 906.216C344.001 905.16 344.425 904.304 345.273 903.648C346.121 902.976 347.241 902.64 348.633 902.64C349.481 902.64 350.281 902.776 351.033 903.048C351.785 903.32 352.417 903.712 352.929 904.224L352.281 905.64C351.145 904.696 349.929 904.224 348.633 904.224C347.769 904.224 347.097 904.392 346.617 904.728C346.153 905.048 345.921 905.504 345.921 906.096C345.921 906.592 346.065 906.984 346.353 907.272C346.657 907.56 347.137 907.784 347.793 907.944L349.833 908.448C350.953 908.704 351.785 909.104 352.329 909.648C352.873 910.176 353.145 910.872 353.145 911.736C353.145 912.776 352.721 913.608 351.873 914.232C351.025 914.856 349.873 915.168 348.417 915.168ZM361.635 915.168C360.499 915.168 359.499 914.912 358.635 914.4C357.771 913.888 357.099 913.16 356.619 912.216C356.155 911.272 355.923 910.168 355.923 908.904C355.923 907.64 356.155 906.536 356.619 905.592C357.099 904.648 357.771 903.92 358.635 903.408C359.499 902.896 360.499 902.64 361.635 902.64C362.771 902.64 363.771 902.896 364.635 903.408C365.499 903.92 366.163 904.648 366.627 905.592C367.107 906.536 367.347 907.64 367.347 908.904C367.347 910.168 367.107 911.272 366.627 912.216C366.163 913.16 365.499 913.888 364.635 914.4C363.771 914.912 362.771 915.168 361.635 915.168ZM361.635 913.56C362.835 913.56 363.755 913.168 364.395 912.384C365.035 911.584 365.355 910.424 365.355 908.904C365.355 907.432 365.027 906.296 364.371 905.496C363.715 904.68 362.803 904.272 361.635 904.272C360.451 904.272 359.531 904.68 358.875 905.496C358.219 906.296 357.891 907.432 357.891 908.904C357.891 910.424 358.211 911.584 358.851 912.384C359.507 913.168 360.435 913.56 361.635 913.56ZM376.801 902.64C379.697 902.64 381.145 904.232 381.145 907.416V915H379.201V907.512C379.201 906.392 378.977 905.576 378.529 905.064C378.081 904.536 377.377 904.272 376.417 904.272C375.297 904.272 374.401 904.616 373.729 905.304C373.057 905.992 372.721 906.92 372.721 908.088V915H370.777V906.312C370.777 905.064 370.713 903.936 370.585 902.928H372.433L372.625 905.088C372.993 904.304 373.545 903.704 374.281 903.288C375.017 902.856 375.857 902.64 376.801 902.64ZM408.266 897.912V915H406.442V902.304L400.898 915H399.506L393.914 902.4L393.938 915H392.114V897.912H393.746L400.226 912.648L406.634 897.912H408.266ZM423.274 902.928V915H421.354V912.816C421.002 913.568 420.466 914.152 419.746 914.568C419.042 914.968 418.218 915.168 417.274 915.168C416.202 915.168 415.258 914.912 414.442 914.4C413.642 913.888 413.018 913.168 412.57 912.24C412.138 911.296 411.922 910.2 411.922 908.952C411.922 907.704 412.146 906.608 412.594 905.664C413.042 904.704 413.666 903.96 414.466 903.432C415.282 902.904 416.218 902.64 417.274 902.64C418.218 902.64 419.042 902.848 419.746 903.264C420.45 903.68 420.986 904.264 421.354 905.016V902.928H423.274ZM417.658 913.56C418.842 913.56 419.754 913.16 420.394 912.36C421.034 911.544 421.354 910.392 421.354 908.904C421.354 907.416 421.034 906.272 420.394 905.472C419.754 904.672 418.842 904.272 417.658 904.272C416.474 904.272 415.546 904.688 414.874 905.52C414.218 906.336 413.89 907.48 413.89 908.952C413.89 910.424 414.218 911.56 414.874 912.36C415.53 913.16 416.458 913.56 417.658 913.56ZM433.456 902.64C436.352 902.64 437.8 904.232 437.8 907.416V915H435.856V907.512C435.856 906.392 435.632 905.576 435.184 905.064C434.736 904.536 434.032 904.272 433.072 904.272C431.952 904.272 431.056 904.616 430.384 905.304C429.712 905.992 429.376 906.92 429.376 908.088V915H427.432V906.312C427.432 905.064 427.368 903.936 427.24 902.928H429.088L429.28 905.088C429.648 904.304 430.2 903.704 430.936 903.288C431.672 902.856 432.512 902.64 433.456 902.64ZM452.503 897.336V915H450.583V912.816C450.231 913.568 449.695 914.152 448.975 914.568C448.271 914.968 447.447 915.168 446.503 915.168C445.447 915.168 444.511 914.904 443.695 914.376C442.895 913.848 442.271 913.112 441.823 912.168C441.375 911.208 441.151 910.104 441.151 908.856C441.151 907.608 441.367 906.52 441.799 905.592C442.247 904.648 442.879 903.92 443.695 903.408C444.511 902.896 445.447 902.64 446.503 902.64C447.447 902.64 448.271 902.848 448.975 903.264C449.679 903.664 450.207 904.232 450.559 904.968V897.336H452.503ZM446.887 913.56C448.071 913.56 448.983 913.16 449.623 912.36C450.263 911.544 450.583 910.392 450.583 908.904C450.583 907.432 450.263 906.296 449.623 905.496C448.983 904.68 448.071 904.272 446.887 904.272C445.703 904.272 444.775 904.672 444.103 905.472C443.447 906.272 443.119 907.4 443.119 908.856C443.119 910.344 443.447 911.504 444.103 912.336C444.775 913.152 445.703 913.56 446.887 913.56ZM466.766 908.904H457.91C457.926 910.44 458.278 911.6 458.966 912.384C459.67 913.168 460.686 913.56 462.014 913.56C463.422 913.56 464.718 913.088 465.902 912.144L466.55 913.56C466.022 914.056 465.342 914.448 464.51 914.736C463.694 915.024 462.854 915.168 461.99 915.168C460.102 915.168 458.622 914.616 457.55 913.512C456.478 912.392 455.942 910.864 455.942 908.928C455.942 907.696 456.182 906.608 456.662 905.664C457.142 904.704 457.814 903.96 458.678 903.432C459.542 902.904 460.526 902.64 461.63 902.64C463.23 902.64 464.486 903.168 465.398 904.224C466.31 905.264 466.766 906.704 466.766 908.544V908.904ZM461.654 904.152C460.646 904.152 459.822 904.456 459.182 905.064C458.558 905.672 458.158 906.528 457.982 907.632H465.014C464.918 906.496 464.582 905.632 464.006 905.04C463.446 904.448 462.662 904.152 461.654 904.152ZM470.117 897.336H472.061V915H470.117V897.336ZM486.867 902.928V915H484.947V912.816C484.595 913.568 484.059 914.152 483.339 914.568C482.635 914.968 481.811 915.168 480.867 915.168C479.795 915.168 478.851 914.912 478.035 914.4C477.235 913.888 476.611 913.168 476.163 912.24C475.731 911.296 475.515 910.2 475.515 908.952C475.515 907.704 475.739 906.608 476.187 905.664C476.635 904.704 477.259 903.96 478.059 903.432C478.875 902.904 479.811 902.64 480.867 902.64C481.811 902.64 482.635 902.848 483.339 903.264C484.043 903.68 484.579 904.264 484.947 905.016V902.928H486.867ZM481.251 913.56C482.435 913.56 483.347 913.16 483.987 912.36C484.627 911.544 484.947 910.392 484.947 908.904C484.947 907.416 484.627 906.272 483.987 905.472C483.347 904.672 482.435 904.272 481.251 904.272C480.067 904.272 479.139 904.688 478.467 905.52C477.811 906.336 477.483 907.48 477.483 908.952C477.483 910.424 477.811 911.56 478.467 912.36C479.123 913.16 480.051 913.56 481.251 913.56Z" fill="#F7F7F7"/>
<circle cx="385.945" cy="368" r="210" fill="white"/>
<path d="M158.945 629.182C163.533 607.206 200.661 592.036 244.022 580.568C244.022 580.568 380.799 539.225 413.924 478.689C447.864 416.666 478.405 389.134 559.459 389.134C593.988 389.134 625.728 394.717 650.791 404.056V629.182H158.945ZM500.015 386.603C500.025 386.614 500.029 386.619 500.029 386.619L502.941 358.437L489.25 362.376C494.682 375.449 499.774 386.085 500.015 386.603ZM596.886 352.943L592.194 366.393C606.002 369.511 617.624 371.495 618.191 371.597C618.204 371.596 618.21 371.596 618.21 371.596L596.886 352.943ZM296.254 215.377V199.312C296.254 198.332 295.459 197.537 294.479 197.537C293.499 197.537 292.704 198.332 292.704 199.312V215.376C292.704 216.356 293.499 217.151 294.479 217.151C295.459 217.151 296.254 216.357 296.254 215.377ZM296.254 273.601V257.538C296.254 256.558 295.459 255.763 294.479 255.763C293.499 255.763 292.704 256.558 292.704 257.538V273.601C292.704 274.581 293.499 275.376 294.479 275.376C295.459 275.376 296.254 274.581 296.254 273.601ZM275.172 236.458C275.172 235.478 274.377 234.682 273.397 234.682H257.334C256.354 234.682 255.559 235.478 255.559 236.458C255.559 237.437 256.354 238.233 257.334 238.233H273.397C274.377 238.233 275.172 237.437 275.172 236.458ZM333.399 236.458C333.399 235.478 332.604 234.682 331.624 234.682H315.562C314.582 234.682 313.787 235.478 313.787 236.458C313.787 237.437 314.582 238.233 315.562 238.233H331.624C332.604 238.233 333.399 237.437 333.399 236.458ZM280.827 222.806C281.52 222.113 281.52 220.989 280.827 220.296L269.468 208.937C268.776 208.244 267.65 208.244 266.958 208.937C266.265 209.629 266.265 210.754 266.958 211.447L278.317 222.806C278.664 223.153 279.118 223.326 279.572 223.326C280.027 223.326 280.481 223.153 280.827 222.806ZM321.999 263.976C322.693 263.283 322.693 262.16 321.999 261.466L310.64 250.108C309.948 249.415 308.823 249.415 308.13 250.108C307.438 250.801 307.438 251.925 308.13 252.618L319.49 263.976C319.837 264.323 320.29 264.497 320.744 264.497C321.199 264.497 321.652 264.323 321.999 263.976ZM269.468 263.976L280.827 252.619C281.52 251.925 281.52 250.801 280.827 250.108C280.133 249.415 279.009 249.416 278.316 250.108L266.957 261.466C266.264 262.16 266.264 263.283 266.957 263.976C267.304 264.323 267.759 264.497 268.213 264.497C268.668 264.497 269.121 264.323 269.468 263.976ZM310.64 222.805L321.999 211.447C322.693 210.754 322.693 209.629 321.999 208.937C321.308 208.244 320.182 208.244 319.49 208.937L308.13 220.295C307.438 220.988 307.438 222.112 308.13 222.805C308.477 223.152 308.931 223.325 309.385 223.325C309.84 223.325 310.293 223.152 310.64 222.805Z" fill="#672D25"/>
<path d="M443.725 263.309L428.573 260.601C426.59 264.083 424.226 266.998 422.079 268.517C417.264 271.922 414.938 267.325 411.771 261.629C411.197 261.889 410.652 262.062 410.208 262.106C408.224 262.3 408.962 259.95 408.734 257.602C408.7 257.257 408.707 256.921 408.738 256.595C408.631 256.434 408.521 256.277 408.41 256.117C403.104 248.616 403.938 238.901 410.275 234.418C416.612 229.937 426.051 232.387 431.358 239.888C431.562 240.178 431.742 240.488 431.908 240.804H459.282L443.725 263.309ZM218.432 405.168C219.11 395.98 207.398 392.199 204.624 395.384C198.613 402.285 190.461 430.823 192.34 443.777C190.034 447.827 191.168 457.281 197.661 461.139C201.914 463.667 204.969 457.208 204.969 457.208C204.969 457.208 209.944 451.304 209.045 449.29C208.182 447.361 204.381 445.202 200.817 443.732C203.997 438.529 206.909 431.643 206.909 431.643C206.909 431.643 218.046 410.39 218.432 405.168ZM319.727 344.187C320.269 343.873 320.728 343.528 321.022 343.193C322.334 341.69 319.992 340.927 318.213 339.374C317.953 339.146 317.677 338.955 317.393 338.792C317.325 338.612 317.258 338.432 317.193 338.248C314.174 329.571 305.783 324.601 298.452 327.152C291.121 329.703 287.628 338.808 290.65 347.487C290.654 347.497 290.659 347.507 290.664 347.519L279.211 364.579L302.517 371.166L309.12 357.263C313.107 357.673 316.854 357.443 319.337 356.579C324.908 354.64 322.519 350.075 319.727 344.187ZM404.538 345.816C404.538 345.816 398.255 341.334 396.319 342.392C394.08 343.621 391.847 349.154 390.798 353.276C384.813 355.302 375.857 361.062 375.857 361.062C375.857 361.062 355.703 371.796 351.691 376.123C351.593 376.23 351.493 376.338 351.414 376.437C346.451 382.667 351.423 390.783 355.5 392.17C356.137 392.387 356.752 392.447 357.304 392.301C365.949 390.044 387.91 371.903 394.295 360.099C398.974 360.808 406.207 358.586 409.044 352.784C411.221 348.343 404.538 345.816 404.538 345.816ZM442.052 303.886C442.052 303.886 441.954 309.971 442.529 316.576C437.273 318.837 420.47 334.754 420.47 334.754C420.47 334.754 397.524 351.877 402.473 354.23C410.085 357.856 438.067 342.834 450.591 332.526C459.956 328.645 467.06 305.493 469.126 286.616H443.729C442.536 294.499 442.052 303.886 442.052 303.886ZM565.085 215.696C557.5 208.422 537.997 200.58 525.879 198.222C515.945 193.26 490.302 204.295 474.452 215.447C475.449 214.836 476.036 214.503 476.036 214.503L490.33 234.717C497.857 231.043 509.152 222.927 509.152 222.927C509.152 222.927 513.967 219.203 518.765 214.627C523.812 217.319 546.741 220.497 546.741 220.497C546.741 220.497 554.038 222.129 560.12 222.566C559.244 226.321 558.792 230.67 559.858 232.495C560.975 234.398 568.672 233.779 568.672 233.779C568.672 233.779 575.702 235.049 576.119 230.117C576.755 222.589 569.722 216.174 565.085 215.696Z" fill="#FFD2BB"/>
<path d="M435.186 628.738C437.029 608.803 454.002 593.182 474.692 593.182C483.413 593.182 491.448 595.986 497.999 600.691C497.509 598.681 497.226 596.594 497.226 594.437C497.226 579.653 509.375 567.667 524.359 567.667C535.417 567.667 544.911 574.207 549.143 583.568C550.816 564.552 566.972 549.622 586.682 549.622C607.509 549.622 624.389 566.278 624.389 586.821C624.389 591.285 623.55 595.546 622.089 599.512C622.847 599.446 623.61 599.399 624.389 599.399C638.699 599.399 650.304 610.846 650.304 624.966C650.304 626.249 650.178 627.506 649.993 628.738H435.186ZM390.191 518.102H390.783C390.12 513.232 390.21 508.269 390.556 503.366C390.973 497.408 391.426 491.316 393.557 485.683C393.99 484.534 395.851 485.031 395.412 486.193C394.539 488.503 393.952 490.895 393.526 493.323C393.148 495.893 392.851 498.475 392.629 501.064C392.573 501.834 392.525 502.602 392.479 503.366C392.185 508.286 392.045 513.228 392.732 518.102H397.823C397.842 516.305 397.99 512.741 398.71 507.291C399.798 499.05 401.975 493.445 401.758 485.203C401.541 476.962 391.525 477.29 386.953 485.203C382.38 493.114 386.953 517.511 386.953 517.511L390.191 518.102ZM383.789 518.102C382.093 516.362 380.38 514.637 378.654 512.926C377.525 512.062 376.38 511.209 375.301 510.281C371.253 506.797 367.119 503.436 363.398 499.6C362.532 498.71 363.893 497.35 364.758 498.242C368.687 502.292 373.024 506.122 377.479 509.584C379.688 511.304 382.004 512.928 383.951 514.901C383.217 511.874 382.637 508.817 382.324 505.721C378.078 500.627 373.073 495.601 369.058 494.41C360.294 491.815 352.802 498.469 358.315 504.599C363.674 510.557 368.964 513.159 375.189 518.102H383.789ZM409.564 508.023C413.27 504.744 416.623 501.113 420.696 498.274C421.715 497.559 422.676 499.228 421.668 499.933C417.434 502.887 413.833 506.723 409.999 510.165C407.156 512.715 404.288 515.242 401.77 518.099H409.6C415.646 513.364 420.822 510.743 426.06 504.917C431.574 498.787 424.082 492.136 415.317 494.729C411.299 495.918 405.554 500.945 401.31 506.039C400.92 509.888 400.72 513.676 399.833 517.419C402.767 513.99 406.17 511.027 409.564 508.023ZM363.033 528.437C369.616 524.282 377.763 519.142 379.213 518.487C385.727 518.42 390.671 518.203 394.653 518.029C409.876 517.362 409.874 517.364 427.179 529.457C427.781 529.877 428.61 529.732 429.033 529.129C429.455 528.526 429.308 527.697 428.705 527.275C410.825 514.782 410.507 514.674 394.536 515.369C390.534 515.545 385.553 515.762 378.981 515.826C378.213 515.835 377.362 516.248 361.613 526.185C354.365 530.758 345.366 536.435 344.003 536.974C343.389 537.092 342.924 537.633 342.924 538.282C342.924 539.017 343.519 539.613 344.255 539.613C345.118 539.613 346.953 538.583 363.033 528.437Z" fill="#258775"/>
<path d="M411.233 253.187C411.653 252.901 412.36 253.222 412.812 253.902C413.273 254.585 413.302 255.369 412.891 255.655C412.473 255.942 411.77 255.617 411.311 254.937C410.851 254.257 410.821 253.471 411.233 253.187ZM411.668 224.238L411.626 224.267C411.483 224.361 411.339 224.463 411.196 224.564C408.317 226.6 409.586 226.246 407.133 228.141C406.653 228.512 406.027 228.971 405.201 229.554C401.579 232.093 397.749 231.762 394.7 233.918C390.58 236.834 389.641 242.588 392.596 246.765C395.533 250.918 401.201 251.961 405.316 249.126L405.408 249.062C406 248.641 413.58 243.638 412.985 244.383C413.76 248.51 415.803 251.845 418.661 253.451C418.369 252.251 418.35 250.996 418.72 249.837C419.424 247.62 421.754 245.781 424.176 246.295C425.979 246.681 426.892 248.365 426.808 250.137C426.775 250.911 426.599 251.645 426.292 252.318C426.004 252.963 425.609 253.552 425.125 254.058C426.214 253.705 427.268 253.138 428.262 252.378C430.143 250.964 431.796 248.883 433.009 246.344C433.03 246.316 433.042 246.291 433.052 246.261C433.625 245.057 434.104 243.753 434.457 242.373C434.607 241.778 434.735 241.169 434.846 240.548C435.244 238.248 434.842 232.742 432.481 228.837C429.459 223.835 423.347 217.384 411.668 224.238ZM500.015 386.607C490.375 396.975 482.483 402.699 482.108 403.133C482.105 403.146 482.141 403.122 482.141 403.122L508.52 394.12L500.015 386.607ZM618.19 371.601C620.538 385.564 620.205 395.42 620.321 395.978C620.332 395.994 620.333 395.952 620.333 395.952L630.353 369.514L618.19 371.601ZM313.163 338.845C312.689 339.017 312.54 339.781 312.827 340.546C313.115 341.315 313.737 341.796 314.209 341.628C314.684 341.455 314.831 340.694 314.546 339.927C314.256 339.156 313.635 338.675 313.163 338.845ZM184.203 602.414L214.439 589.448C214.439 589.448 202.452 588.604 188.553 585.908L184.203 602.414ZM337.717 550.556H365.984C365.984 550.556 366.026 550.571 366.014 550.558C365.528 550.26 355.554 544.004 343.19 537.104L337.717 550.556Z" fill="#181818"/>
<path d="M313.297 331.665L313.19 331.703C312.505 331.942 304.028 335.2 304.98 335.149C307.887 338.178 309.413 341.781 309.058 345.042C308.251 344.106 307.241 343.36 306.081 342.987C303.868 342.275 301.016 343.098 300.029 345.37C299.294 347.065 300.134 348.785 301.624 349.745C302.274 350.169 302.976 350.452 303.701 350.594C304.389 350.735 305.099 350.754 305.793 350.655C304.874 351.335 303.799 351.862 302.603 352.23C300.359 352.936 297.706 353.072 294.935 352.584C294.9 352.584 294.872 352.58 294.842 352.57C293.531 352.336 292.191 351.967 290.862 351.452C290.29 351.229 289.723 350.982 289.152 350.71C287.048 349.697 282.805 346.171 280.997 341.977C279.762 339.112 278.705 335.29 279.869 331.51C279.65 331.529 279.432 331.544 279.209 331.544C274.651 331.544 270.956 327.849 270.956 323.29C270.956 318.732 274.651 315.037 279.209 315.037C283.769 315.037 287.465 318.732 287.465 323.29C287.465 323.294 287.465 323.298 287.465 323.301C288.057 322.982 288.683 322.669 289.358 322.368L289.407 322.35C289.565 322.289 289.731 322.229 289.897 322.174C293.227 321.013 292.203 321.84 295.17 320.946C295.753 320.772 296.49 320.527 297.444 320.196C301.614 318.722 303.572 315.413 307.097 314.187C311.865 312.526 317.093 315.109 318.773 319.94C320.444 324.743 317.999 329.962 313.297 331.665ZM355.503 392.171C351.425 390.783 346.455 382.667 351.417 376.438C351.496 376.338 351.594 376.232 351.694 376.123C345.876 374.201 340.412 373.027 340.412 373.027C340.412 373.027 298.021 362.678 287.267 362.396L281.996 361.578C281.834 361.536 281.656 361.505 281.45 361.493C266.158 360.576 200.96 386.939 201.69 401.78C202.085 409.821 219.321 403.628 219.321 403.628C219.321 403.628 241.028 394.618 254.617 388.114C250.869 396.038 247.793 405.65 246.841 416.667C245.092 436.896 225.782 449.903 225.782 449.903L279.576 450.645C279.576 450.645 274.193 445.634 279.209 435.826C282.918 428.579 289.305 419.388 294.951 410.545C295.205 410.559 295.454 410.578 295.711 410.578C303.46 410.578 309.746 405.215 309.746 398.6C309.747 395.286 308.17 392.285 305.622 390.117C305.839 389.355 306.008 388.623 306.123 387.925C319.533 392.422 342.277 395.431 355.503 392.171ZM596.886 352.944L595.424 351.666C595.424 351.666 571.728 336.28 562.848 333.15C566.396 321.932 568.563 310.016 568.563 310.016C568.563 310.016 568.731 308.662 568.974 306.448C569.03 306.153 569.11 305.396 569.205 304.283C569.968 296.892 572.486 255.757 568.578 250.431C559.86 238.555 548.263 240.543 548.263 240.543L535.804 249.636C511.3 266.4 472.826 301.055 475.964 318.854C476.082 328.504 482.901 347.103 489.253 362.377L502.944 358.438L503.144 356.507C503.144 356.507 501.931 326.053 499.142 318.26C509.446 313.745 519.306 307.824 519.306 307.824C519.306 307.824 526.531 303.134 534.112 297.551C532.814 320.316 536.263 346.986 549.2 352.245L549.203 352.246C557.267 357.671 576.196 362.789 592.197 366.396L596.886 352.944Z" fill="#636363"/>
<path d="M343.19 537.1C343.191 537.114 322.999 515.811 322.999 515.811C322.999 515.811 307.797 491.617 304.921 482.812C291.365 484.328 276.404 484.235 276.404 484.235C276.404 484.235 268.862 483.901 259.66 483.132C257.196 493.254 253.127 504.035 248.067 513.137C248.067 513.138 248.067 513.14 248.067 513.141C248.067 513.141 248.06 513.151 248.054 513.16C245.823 517.173 243.4 520.858 240.836 524.014C232.438 536.263 218.139 555.94 205.69 567.302C195.234 576.846 187.459 585.755 187.051 586.153C187.039 586.161 187.035 586.162 187.035 586.162C187.035 586.162 201.72 538.107 206.7 533.541C209.011 531.42 213.066 528.582 217.757 525.662C216.362 512.56 220.885 490.323 220.885 490.323C220.885 490.323 222.484 483.664 224.765 475.837C211.912 467.217 217.734 450.913 226.369 448.252L278.511 449.467C298.685 453.789 319.023 461.86 325.16 471.667C330.755 478.398 343.098 536.533 343.19 537.1ZM483.16 240.543C485.307 238.997 487.768 237.208 490.624 235.131L490.33 234.715L476.036 214.502C476.036 214.502 475.449 214.836 474.453 215.445C469.336 218.574 453.233 229.101 448.103 240.542C447.936 240.912 447.862 241.327 447.866 241.768L443.727 263.31C442.593 266.431 443.727 286.619 443.727 286.619H443.728H469.125H469.127C469.127 286.619 469.474 284.262 469.803 280.6C484.336 282.538 499.982 279.319 499.982 279.319L548.261 240.543H483.16Z" fill="#B73642"/>
<defs>
<linearGradient id="paint0_linear_2012_678" x1="140.958" y1="249.844" x2="662.507" y2="984.499" gradientUnits="userSpaceOnUse">
<stop stop-color="#B06AB3"/>
<stop offset="1" stop-color="#4A68DB"/>
</linearGradient>
</defs>
</svg>
