<svg width="208" height="104" viewBox="0 0 208 104" fill="none" xmlns="http://www.w3.org/2000/svg">
<path fill-rule="evenodd" clip-rule="evenodd" d="M165.844 74.3589L190.669 51.7129L178.91 28.2852L165.844 74.3589Z" fill="#097939"/>
<path fill-rule="evenodd" clip-rule="evenodd" d="M157.48 74.3589L182.305 51.7129L170.546 28.2852L157.48 74.3589Z" fill="#ED752E"/>
<path fill-rule="evenodd" clip-rule="evenodd" d="M38.8447 28.5481L28.3927 65.7715L65.4981 66.0315L75.6901 28.5481H85.0969L72.8769 72.1241C72.4089 73.7881 70.6271 75.1401 68.8989 75.1401H21.338C18.4537 75.1401 16.7447 72.8868 17.5247 70.1135L29.1796 28.5481H38.8447ZM153.56 28.2881H162.967L149.901 75.1401H140.229L153.56 28.2881ZM86.1439 47.8089L133.18 47.5489L136.317 37.6568H88.4943L91.3681 28.5464L142.328 28.0784C145.5 28.0489 147.389 30.5051 146.554 33.5679L141.753 51.1161C140.915 54.1772 137.662 56.6576 134.49 56.6576H92.4151L87.4543 75.9201H78.3023L86.1439 47.8089Z" fill="#747474"/>
</svg>
