<!-- <svg xmlns="http://www.w3.org/2000/svg" width="15" height="15" viewBox="0 0 6.75 5.063"><defs><style>.a{fill: #00FF00;}</style></defs><g transform="translate(-1)"><g transform="translate(0 0)"><path class="a" d="M5.79,1.165,2.25,4.7.96,3.415a.562.562,0,1,0-.8.8L1.852,5.9a.562.562,0,0,0,.8,0L6.585,1.96a.562.562,0,1,0-.8-.8Z" transform="translate(1 -1)"/></g></g></svg> -->
<svg width="27" height="28" viewBox="0 0 27 28" fill="none" xmlns="http://www.w3.org/2000/svg">
<path 
d="M12 2C6.48 2 2 6.48 2 12s4.48 10 10 10 10-4.48 10-10S17.52 2 12 2zm-2 15-5-5 1.41-1.41L10 14.17l7.59-7.59L19 8l-9 9z"
fill="#00FF00"/>
</svg>
