<svg width="78" height="78" viewBox="0 0 78 78" fill="none" xmlns="http://www.w3.org/2000/svg">
<g filter="url(#filter0_d)">
<path d="M39 70C58.33 70 74 54.33 74 35C74 15.67 58.33 0 39 0C19.67 0 4 15.67 4 35C4 54.33 19.67 70 39 70Z" fill="black"/>
<path d="M52.7608 28.3398L43.2227 35.1532L52.7608 41.9665V28.3398Z" stroke="white" stroke-width="1.51852" stroke-linecap="round" stroke-linejoin="round"/>
<path d="M25.5041 25.6094H40.4945C40.8525 25.609 41.2071 25.6793 41.538 25.816C41.8689 25.9528 42.1696 26.1535 42.4229 26.4065C42.6762 26.6596 42.8771 26.9601 43.0142 27.2908C43.1513 27.6216 43.2219 27.9761 43.2219 28.3342V41.9609C43.2219 42.6835 42.9348 43.3766 42.4238 43.8876C41.9128 44.3986 41.2197 44.6857 40.4971 44.6857H25.5041C24.7819 44.6857 24.0892 44.399 23.5783 43.8885C23.0674 43.3781 22.78 42.6857 22.7793 41.9635V28.3342C22.7793 27.6115 23.0664 26.9185 23.5774 26.4075C24.0884 25.8965 24.7814 25.6094 25.5041 25.6094V25.6094Z" stroke="white" stroke-width="2" stroke-linecap="round" stroke-linejoin="round"/>
</g>
<defs>
<filter id="filter0_d" x="0" y="0" width="78" height="78" filterUnits="userSpaceOnUse" color-interpolation-filters="sRGB">
<feFlood flood-opacity="0" result="BackgroundImageFix"/>
<feColorMatrix in="SourceAlpha" type="matrix" values="0 0 0 0 0 0 0 0 0 0 0 0 0 0 0 0 0 0 127 0" result="hardAlpha"/>
<feOffset dy="4"/>
<feGaussianBlur stdDeviation="2"/>
<feComposite in2="hardAlpha" operator="out"/>
<feColorMatrix type="matrix" values="0 0 0 0 0 0 0 0 0 0 0 0 0 0 0 0 0 0 0.25 0"/>
<feBlend mode="normal" in2="BackgroundImageFix" result="effect1_dropShadow"/>
<feBlend mode="normal" in="SourceGraphic" in2="effect1_dropShadow" result="shape"/>
</filter>
</defs>
</svg>
