<svg width="39" height="14" viewBox="0 0 39 14" fill="none" xmlns="http://www.w3.org/2000/svg">
<path d="M37.4711 0H29.6473L15.5566 11.8597V12.5811C15.5591 13.3635 16.1932 13.9976 16.9755 14H37.4705C38.2528 13.9976 38.8869 13.3641 38.89 12.5817V1.41892C38.8875 0.636529 38.2535 0.00244115 37.4711 0Z" fill="#E72636"/>
<path d="M16.9664 0C16.1891 0.00243343 15.5591 0.634517 15.5566 1.41443V11.8222L29.5566 0H16.9664Z" fill="#E92D3C"/>
<path d="M19.9008 5.48822H18.2539V4.60742H22.6245V5.48822H20.9582V10.3894H19.9008V5.48822Z" fill="white"/>
<path d="M26.5714 9.1345C26.5714 9.63166 26.589 10.0451 26.6054 10.388H25.6778L25.6262 9.75125H25.611C25.3276 10.2168 24.8164 10.4949 24.2713 10.4797C23.5071 10.4797 22.8145 10.0238 22.8145 8.65859V6.20801H23.867V8.48255C23.867 9.177 24.0923 9.62802 24.6489 9.62802C25.1327 9.61406 25.517 9.21646 25.5145 8.73204V6.20922H26.5708L26.5714 9.1345Z" fill="white"/>
<path d="M27.6758 10.3887C27.6934 10.104 27.7122 9.64324 27.7122 9.21285V4.2959H28.766V6.78473H28.7836C29.0811 6.34342 29.5879 6.09028 30.1191 6.11699C31.1419 6.11699 31.8698 6.96684 31.8625 8.23614C31.8625 9.73854 30.9088 10.4822 29.9667 10.4822C29.4259 10.5095 28.9153 10.2314 28.6458 9.76161H28.6282L28.5766 10.3881L27.6758 10.3887ZM28.7684 8.66349C28.7672 8.74726 28.7763 8.83042 28.7945 8.91176C28.9014 9.34275 29.2856 9.64688 29.7294 9.65234C30.3898 9.65234 30.7941 9.11876 30.7941 8.27984C30.7941 7.53926 30.442 6.9377 29.7379 6.9377C29.2868 6.95287 28.9032 7.26974 28.803 7.70984C28.7824 7.79968 28.7715 7.89195 28.769 7.98422L28.7684 8.66349Z" fill="white"/>
<path d="M33.4783 8.59715C33.5013 9.2236 34.0282 9.71287 34.6547 9.6898C34.6917 9.68859 34.7288 9.68555 34.7652 9.68009C35.1598 9.6892 35.5525 9.62424 35.9228 9.48827L36.0782 10.2167C35.612 10.3946 35.116 10.4826 34.6171 10.4759C33.5293 10.5749 32.5665 9.77297 32.4676 8.68517C32.4579 8.57772 32.4566 8.46967 32.4645 8.36223C32.368 7.22222 33.2136 6.22001 34.3536 6.12349C34.4046 6.11925 34.455 6.11682 34.506 6.11621C35.8633 6.11621 36.3089 7.23497 36.3089 8.15219C36.3101 8.30152 36.2985 8.45085 36.2749 8.59836H33.4783V8.59715ZM35.3145 7.85657C35.3813 7.36427 35.0365 6.91081 34.5442 6.84404C34.5121 6.83979 34.4799 6.83676 34.4471 6.83615C33.9056 6.86832 33.4807 7.31388 33.4758 7.85657H35.3145Z" fill="white"/>
<path d="M1.82838 10.3878V7.97911L0 4.60645H1.20192L1.89637 6.0876C2.09547 6.51738 2.24116 6.84457 2.39656 7.23793H2.41174C2.55924 6.86946 2.72011 6.50949 2.91921 6.0876L3.61366 4.60645H4.80465L2.88218 7.9524V10.3872L1.82838 10.3878Z" fill="#415E72"/>
<path d="M8.57316 8.25953C8.65936 9.39832 7.80587 10.3908 6.66708 10.477C6.58756 10.4831 6.50804 10.4843 6.42913 10.4813C5.31583 10.5256 4.37736 9.65813 4.33305 8.54483C4.33001 8.47381 4.33122 8.40218 4.33608 8.33116C4.24988 7.1948 5.10215 6.20352 6.23852 6.11732C6.32532 6.11064 6.41213 6.10943 6.49893 6.11428C7.60434 6.0724 8.53492 6.93438 8.5768 8.03979C8.57984 8.11324 8.57862 8.18669 8.57316 8.25953ZM5.4257 8.30627C5.4257 9.10937 5.81906 9.72065 6.4619 9.72065C7.06347 9.72065 7.48475 9.13001 7.48475 8.28563C7.48475 7.63307 7.19156 6.88946 6.47222 6.88946C5.72618 6.88642 5.4257 7.60636 5.4257 8.30627Z" fill="#415E72"/>
<path d="M13.1814 9.13353C13.1814 9.63069 13.199 10.0441 13.2153 10.387H12.2878L12.2362 9.75027H12.2204C11.9369 10.2159 11.4258 10.4939 10.8807 10.4787C10.1165 10.4787 9.42383 10.0228 9.42383 8.65762V6.20703H10.4776V8.48158C10.4776 9.17602 10.7028 9.62704 11.2595 9.62704C11.7433 9.61308 12.1275 9.21548 12.1251 8.73107V6.20825H13.1814V9.13353Z" fill="#415E72"/>
</svg>
