<svg xmlns="http://www.w3.org/2000/svg" width="27" height="29" viewBox="0 0 27 29" fill="none">
<g clip-path="url(#clip0_2558_520)">
<path d="M20.6925 4.82581C20.6925 4.16891 20.4545 3.5505 20.023 3.08588L17.8688 0.765922C17.4433 0.307695 16.8394 0.0449219 16.2383 0.0449219H16.1074V4.9668H20.6926L20.6925 4.82581Z" fill="white"/>
<path d="M14.822 16.9708C14.9678 16.4941 15.2222 16.0503 15.554 15.6906L20.7114 10.1588V6.60547H15.3591C14.938 6.60547 14.6221 6.23857 14.6221 5.78516V0.0429688H3.19629C1.9362 0.0429688 0.911133 1.14689 0.911133 2.50391V25.582C0.911133 26.939 1.9362 28.043 3.19629 28.043H18.4059C19.666 28.043 20.7114 26.939 20.7114 25.582V19.4597L19.8743 20.3393C19.5352 20.7014 19.1379 20.9649 18.6901 21.126L16.2681 21.9968L15.8991 22.0184C15.2891 22.0184 14.7119 21.6988 14.3534 21.1637C13.9978 20.631 13.9011 19.9404 14.0945 19.3164L14.822 16.9708ZM4.71973 14.8086H12.3122C12.7332 14.8086 13.0739 15.1755 13.0739 15.6289C13.0739 16.0823 12.7332 16.4492 12.3122 16.4492H4.71973C4.2987 16.4492 3.95801 16.0823 3.95801 15.6289C3.95801 15.1755 4.2987 14.8086 4.71973 14.8086ZM3.95801 12.3477C3.95801 11.8942 4.2987 11.5273 4.71973 11.5273H12.3122C12.7332 11.5273 13.0739 11.8942 13.0739 12.3477C13.0739 12.8011 12.7332 13.168 12.3122 13.168H4.71973C4.2987 13.168 3.95801 12.8011 3.95801 12.3477ZM3.95801 18.9102C3.95801 18.4567 4.2987 18.0898 4.71973 18.0898H12.3122C12.7332 18.0898 13.0739 18.4567 13.0739 18.9102C13.0739 19.3636 12.7332 19.7305 12.3122 19.7305H4.71973C4.2987 19.7305 3.95801 19.3636 3.95801 18.9102ZM15.3591 23.0117C15.7801 23.0117 16.1208 23.3786 16.1208 23.832C16.1208 24.2854 15.7801 24.6523 15.3591 24.6523H10.7887C10.3677 24.6523 10.027 24.2854 10.027 23.832C10.027 23.3786 10.3677 23.0117 10.7887 23.0117H15.3591ZM4.71973 9.88672C4.2987 9.88672 3.95801 9.51982 3.95801 9.06641C3.95801 8.61299 4.2987 8.24609 4.71973 8.24609H15.3591C15.7801 8.24609 16.1208 8.61299 16.1208 9.06641C16.1208 9.51982 15.7801 9.88672 15.3591 9.88672H4.71973Z" fill="white"/>
<path d="M16.2015 17.6973L15.5388 19.8383C15.4395 20.1591 15.7229 20.4642 16.0207 20.357L18.0077 19.6424L16.2015 17.6973Z" fill="white"/>
<path d="M22.1172 10.9473L17.1006 16.3498L19.2641 18.6797C20.398 17.4585 22.6042 15.0822 24.2805 13.277L22.1172 10.9473Z" fill="white"/>
<path d="M26.4639 8.59059C26.1961 8.30058 25.8019 8.13477 25.3838 8.13477C24.9657 8.13477 24.5715 8.30058 24.3022 8.59141L23.1953 9.78343L25.3585 12.113C25.9645 11.4604 26.3833 11.0093 26.4655 10.9209C27.0605 10.2791 27.0604 9.23382 26.4639 8.59059Z" fill="white"/>
<path d="M26.4629 10.9253C26.463 10.9253 26.463 10.9253 26.463 10.9252C26.4654 10.9229 26.4665 10.9218 26.4684 10.9199C26.4665 10.9219 26.4654 10.9229 26.4629 10.9253Z" fill="white"/>
<path d="M26.4678 10.9219C26.4707 10.9191 26.474 10.9158 26.4758 10.9141C26.474 10.9158 26.4707 10.9191 26.4678 10.9219Z" fill="white"/>
<path d="M26.4746 10.9146C26.4806 10.9087 26.4807 10.9086 26.4746 10.9146V10.9146Z" fill="white"/>
</g>
<defs>
<clipPath id="clip0_2558_520">
<rect width="26" height="28" fill="white" transform="translate(0.912109 0.046875)"/>
</clipPath>
</defs>
</svg>
