<svg xmlns="http://www.w3.org/2000/svg" width="28" height="28" viewBox="0 0 28 28" fill="none">
<g clip-path="url(#clip0_2558_495)">
<path d="M19.5783 0.421875H3.4359C1.84128 0.421875 0.543945 1.71921 0.543945 3.31383V4.62836H19.5783V0.421875Z" fill="white"/>
<path d="M24.573 0.421875H21.1553V4.62836H27.465V3.31383C27.465 1.71921 26.1677 0.421875 24.573 0.421875Z" fill="white"/>
<path d="M19.0001 15.1117V12.2422C17.4947 12.5993 16.3711 13.954 16.3711 15.5671C16.3711 15.9075 16.4218 16.2361 16.5149 16.5466L19.0001 15.1117Z" fill="white"/>
<path d="M19.0003 16.9336L17.3057 17.912C17.756 18.3888 18.3414 18.7361 19.0003 18.8924V16.9336Z" fill="white"/>
<path d="M8.22044 16.3555C6.6072 16.3555 5.2515 17.4789 4.89453 18.9845H11.5464C11.1894 17.4789 9.83368 16.3555 8.22044 16.3555Z" fill="white"/>
<path d="M9.5353 13.4638V12.4122C9.5353 11.6874 8.94561 11.0977 8.22078 11.0977C7.49595 11.0977 6.90625 11.6874 6.90625 12.4122V13.4638C6.90625 14.1886 7.49595 14.7783 8.22078 14.7783C8.94561 14.7783 9.5353 14.1886 9.5353 13.4638Z" fill="white"/>
<path d="M0.543945 6.20703V24.4526C0.543945 26.0473 1.84128 27.3446 3.4359 27.3446H24.5735C26.1681 27.3446 27.4654 26.0473 27.4654 24.4526V6.20703H0.543945ZM11.6385 24.032H4.80301C4.36743 24.032 4.01429 23.6789 4.01429 23.2433C4.01429 22.8077 4.36743 22.4546 4.80301 22.4546H11.6385C12.0741 22.4546 12.4273 22.8077 12.4273 23.2433C12.4273 23.6789 12.0741 24.032 11.6385 24.032ZM12.4273 20.5617H4.01429C3.57871 20.5617 3.22558 20.2085 3.22558 19.7729C3.22558 17.8192 4.35323 16.1241 5.99166 15.3036C5.57784 14.8032 5.32882 14.1618 5.32882 13.4632V12.4116C5.32882 10.817 6.62615 9.51964 8.22078 9.51964C9.8154 9.51964 11.1127 10.817 11.1127 12.4116V13.4632C11.1127 14.1618 10.8637 14.8032 10.4499 15.3036C12.0883 16.1241 13.216 17.8192 13.216 19.7729C13.216 20.2085 12.8628 20.5617 12.4273 20.5617ZM23.2064 24.032H16.3708C15.9353 24.032 15.5821 23.6789 15.5821 23.2433C15.5821 22.8077 15.9353 22.4546 16.3708 22.4546H23.2064C23.642 22.4546 23.9951 22.8077 23.9951 23.2433C23.9951 23.6789 23.642 24.032 23.2064 24.032ZM19.7886 20.5617C17.0343 20.5617 14.7934 18.3208 14.7934 15.5665C14.7934 12.8121 17.0343 10.5713 19.7886 10.5713C22.543 10.5713 24.7838 12.8121 24.7838 15.5665C24.7838 18.3208 22.543 20.5617 19.7886 20.5617Z" fill="white"/>
<path d="M20.5771 12.2422V18.892C22.0826 18.5348 23.2062 17.1801 23.2062 15.567C23.2062 13.954 22.0826 12.5993 20.5771 12.2422Z" fill="white"/>
</g>
<defs>
<clipPath id="clip0_2558_495">
<rect width="26.9215" height="26.9215" fill="white" transform="translate(0.543945 0.423828)"/>
</clipPath>
</defs>
</svg>