<svg xmlns="http://www.w3.org/2000/svg" width="28" height="28" viewBox="0 0 28 28" fill="none">
<path d="M21.533 8.99023H18.3691V13.8506H21.533V8.99023Z" fill="white"/>
<path d="M16.281 5.93164H13.1172V13.8511H16.281V5.93164Z" fill="white"/>
<path d="M26.7888 2.31055H23.625V13.8524H26.7888V2.31055Z" fill="white"/>
<path d="M13.1719 16.2334L16.5525 24.2741C17.4153 23.8644 18.2199 23.3421 18.9452 22.7207L18.9685 22.7003C20.6997 21.215 21.9074 19.2124 22.4133 16.9882L22.4221 16.9561C22.4774 16.7142 22.5241 16.4665 22.562 16.2305L13.1719 16.2334ZM20.1664 18.2268C19.9453 18.7291 19.6769 19.2092 19.3649 19.6607C18.9253 20.2989 18.4051 20.8779 17.8174 21.3831L17.8028 21.3976C17.6658 21.5142 17.5259 21.6279 17.3831 21.7357L15.8035 17.982L20.2742 17.9791C20.2392 18.0636 20.2042 18.1452 20.1664 18.2268Z" fill="white"/>
<path d="M10.7317 15.5871C10.7189 15.5523 10.7109 15.5299 10.7045 15.5077C10.7004 15.4933 10.6973 15.4802 10.6905 15.4498L10.682 15.4093C10.6789 15.3916 10.6762 15.3741 10.674 15.3549C10.672 15.3404 10.6706 15.3204 10.6691 15.2922L10.6668 15.1769L11.3069 3.86133C10.6997 3.89832 10.0967 3.98608 9.50423 4.12368C8.12102 4.4487 6.81609 5.04507 5.66511 5.87823C4.51413 6.71138 3.53999 7.76473 2.79918 8.97721C2.05836 10.1897 1.56562 11.5372 1.34951 12.9415C1.1334 14.3459 1.19822 15.7791 1.54022 17.1583C1.88222 18.5374 2.4946 19.8349 3.34184 20.9755C4.18908 22.1162 5.25433 23.0773 6.47582 23.8031C7.69731 24.529 9.05075 25.0051 10.4576 25.204C11.8645 25.4028 13.2969 25.3203 14.6717 24.9614L10.7317 15.5871Z" fill="white"/>
</svg>