<svg xmlns="http://www.w3.org/2000/svg" width="34" height="31" viewBox="0 0 34 31" fill="none">
<path fill-rule="evenodd" clip-rule="evenodd" d="M18.6871 19.4105L24.6438 18.4528C25.1721 18.3681 25.6752 18.7302 25.7599 19.2601L26.6236 24.6273C26.7083 25.1556 26.3446 25.6588 25.8163 25.7434L19.8596 26.7012C19.3314 26.7859 18.8282 26.4222 18.7435 25.8939L17.8798 20.5266C17.7952 19.9984 18.1589 19.4952 18.6871 19.4105ZM10.1597 18.7992L15.947 20.5047C16.4612 20.6567 16.7575 21.2007 16.6054 21.7148L15.0692 26.9285C14.9172 27.4427 14.3732 27.7389 13.8591 27.5869L8.07325 25.8829C7.5591 25.7309 7.26283 25.187 7.41488 24.6728L8.95108 19.4591C9.10156 18.945 9.6455 18.6487 10.1597 18.7992ZM12.8997 24.1195L13.8324 24.8311C13.6506 25.0992 13.4468 25.3045 13.2211 25.444C12.9954 25.5851 12.7508 25.6635 12.4875 25.6792C12.2241 25.6948 11.92 25.6384 11.572 25.5067C11.1488 25.3484 10.8274 25.1572 10.6048 24.9346C10.3838 24.712 10.2349 24.4094 10.1565 24.027C10.0781 23.6461 10.1283 23.2134 10.3101 22.7322C10.5515 22.091 10.9074 21.6615 11.3776 21.4452C11.8495 21.2289 12.3981 21.2383 13.0236 21.4734C13.5126 21.6568 13.8606 21.8998 14.066 22.2039C14.2713 22.5064 14.3654 22.8889 14.3466 23.3498L13.2023 23.1868C13.2101 23.0551 13.2023 22.9548 13.1819 22.8858C13.149 22.7698 13.0925 22.6679 13.0142 22.5833C12.9358 22.497 12.8355 22.4312 12.7163 22.3873C12.4436 22.2854 12.1943 22.3152 11.967 22.4798C11.7977 22.6005 11.6457 22.8341 11.5156 23.1805C11.3541 23.61 11.3087 23.9282 11.3792 24.1383C11.4497 24.3467 11.6034 24.4957 11.8401 24.5834C12.0689 24.6697 12.2664 24.6712 12.4326 24.585C12.6003 24.4988 12.7555 24.3436 12.8997 24.1195ZM13.0941 10.8392L19.0508 9.88142C19.5791 9.79677 20.0822 10.1589 20.1669 10.6887L21.0306 16.056C21.1152 16.5843 20.7531 17.0874 20.2233 17.1721L14.2666 18.1299C13.7384 18.2145 13.2352 17.8508 13.1505 17.3226L12.2868 11.9553C12.2022 11.427 12.5658 10.9238 13.0941 10.8392ZM17.4237 15.0872L15.9894 15.3145L15.8906 16.0215L14.599 16.2269L15.4893 11.8863L16.875 11.6669L19.0602 15.5183L17.7356 15.7284L17.4237 15.0872ZM17.0145 14.2439L16.3342 12.8425L16.1195 14.385L17.0145 14.2439ZM20.4051 20.9859L22.7753 20.6097C23.1703 20.547 23.4885 20.5972 23.7315 20.7586C23.9745 20.9201 24.1187 21.1458 24.1641 21.4342C24.2033 21.6756 24.161 21.8967 24.0356 22.0926C23.9541 22.2243 23.8208 22.3387 23.6374 22.4375C23.9431 22.461 24.1782 22.5488 24.3444 22.6993C24.5106 22.8497 24.614 23.0551 24.6548 23.3153C24.6893 23.5285 24.6689 23.726 24.5983 23.911C24.5262 24.0959 24.4118 24.2511 24.2566 24.3781C24.1594 24.4565 24.0058 24.527 23.7958 24.5882C23.5167 24.6712 23.3302 24.7198 23.2377 24.7339L21.0525 25.0804L20.4051 20.9859ZM21.9366 22.3904L22.4884 22.3027C22.6859 22.2713 22.8192 22.2149 22.885 22.1349C22.9508 22.0534 22.9744 21.95 22.954 21.8214C22.9352 21.7023 22.8819 21.6145 22.7941 21.5612C22.7063 21.5064 22.5652 21.4938 22.374 21.5236L21.8128 21.6129L21.9366 22.3904ZM22.1922 23.9972L22.838 23.8953C23.0559 23.8608 23.2032 23.7965 23.2816 23.7056C23.3584 23.6147 23.3866 23.5034 23.3662 23.3733C23.3474 23.2526 23.2879 23.1617 23.1875 23.1021C23.0872 23.0425 22.9258 23.03 22.7032 23.0661L22.0605 23.168L22.1922 23.9972Z" fill="white"/>
<path d="M23.6084 0.707031H4.31738C2.41171 0.707031 0.861328 2.27988 0.861328 4.21317V5.80687H23.6084V0.707031Z" fill="white"/>
<path d="M29.5776 0.707031H25.4932V5.80687H33.0336V4.21317C33.0336 2.27988 31.4833 0.707031 29.5776 0.707031Z" fill="white"/>
<path d="M3.36133 9.39062H30.6479V20.6049C30.6479 24.7471 27.2901 28.1049 23.1479 28.1049H10.8613C6.71919 28.1049 3.36133 24.7471 3.36133 20.6049V9.39062Z" stroke="white" stroke-width="5"/>
</svg>