<svg xmlns="http://www.w3.org/2000/svg" width="34" height="30" viewBox="0 0 34 30" fill="none">
<path d="M0.922852 29.901H30.3795H33.086V27.1631V6.27734H0.922852V29.901ZM17.0044 8.77243C22.1416 8.77243 26.3211 12.9519 26.3211 18.0892C26.3211 23.2265 22.1417 27.4059 17.0044 27.4059C11.8671 27.4059 7.68766 23.2264 7.68766 18.0891C7.68766 12.9518 11.8672 8.77243 17.0044 8.77243Z" fill="white"/>
<path d="M23.6962 0.00390625H4.47897C2.58059 0.00390625 1.03613 1.57074 1.03613 3.49664V5.08424H23.6962V0.00390625Z" fill="white"/>
<path d="M29.643 0.00390625H25.5742V5.08424H33.0859V3.49664C33.0859 1.57074 31.5414 0.00390625 29.643 0.00390625Z" fill="white"/>
<path d="M19.0301 17.9961C17.5709 17.9961 16.377 19.2073 16.377 20.6877C16.377 21.2261 16.5428 21.7644 16.8413 22.2354C16.9076 22.3364 17.0071 22.37 17.1066 22.37C17.2061 22.37 17.3056 22.3027 17.3719 22.2354C17.6041 21.899 17.9357 21.6298 18.3337 21.4952L19.7598 19.4765C19.8593 19.3419 20.0583 19.2746 20.2241 19.4092C20.3567 19.5101 20.4231 19.712 20.2904 19.8802L19.2291 21.3606C19.7929 21.4279 20.3236 21.7307 20.6552 22.2018C20.7216 22.3027 20.821 22.3364 20.9205 22.3364C21.02 22.3364 21.1195 22.2691 21.1859 22.2018C21.4843 21.7644 21.6502 21.2261 21.6502 20.6541C21.6833 19.2073 20.4894 17.9961 19.0301 17.9961Z" fill="white"/>
<path d="M15.6817 20.6881C15.6817 18.8376 17.1741 17.3235 18.9982 17.3235C20.0926 17.3235 21.0544 17.8619 21.6514 18.6694V14.9683C21.6514 14.3964 21.2203 13.959 20.6565 13.959H13.3602C12.7964 13.959 12.3652 14.3964 12.3652 14.9683V21.0245C12.3652 21.5965 12.7964 22.0339 13.3602 22.0339H15.947C15.7812 21.5965 15.6817 21.1591 15.6817 20.6881ZM15.7149 15.1702C15.7481 15.1366 15.7481 15.1029 15.7812 15.0693C15.9139 14.9347 16.1129 14.9347 16.2455 15.0693C16.2787 15.1029 16.3119 15.1366 16.3119 15.1702C16.345 15.2039 16.345 15.2712 16.345 15.3048C16.345 15.3385 16.345 15.4057 16.3119 15.4394C16.2787 15.473 16.2787 15.5067 16.2455 15.5403C16.1792 15.6076 16.1129 15.6413 16.0134 15.6413C15.9802 15.6413 15.9139 15.6413 15.8807 15.6076C15.8475 15.574 15.8144 15.574 15.7812 15.5403C15.7481 15.5067 15.7149 15.473 15.7149 15.4394C15.6817 15.4057 15.6817 15.3385 15.6817 15.3048C15.6817 15.2712 15.6817 15.2039 15.7149 15.1702ZM14.7199 15.1702C14.7531 15.1366 14.7531 15.1029 14.7863 15.0693C14.8194 15.0356 14.8526 15.002 14.8858 15.002C15.0184 14.9347 15.1511 14.9683 15.2506 15.0693C15.2837 15.1029 15.3169 15.1366 15.3169 15.1702C15.3501 15.2039 15.3501 15.2712 15.3501 15.3048C15.3501 15.4057 15.3169 15.473 15.2506 15.5403C15.1842 15.6076 15.1179 15.6413 15.0184 15.6413C14.9189 15.6413 14.8526 15.6076 14.7863 15.5403C14.7199 15.473 14.6868 15.4057 14.6868 15.3048C14.6868 15.2712 14.6868 15.2039 14.7199 15.1702ZM13.7913 15.0693L13.8245 15.0356C13.8577 15.0356 13.8577 15.002 13.8908 15.002C13.924 14.9683 13.924 14.9683 13.9571 14.9683C13.9903 14.9683 14.0566 14.9683 14.0898 14.9683C14.123 14.9683 14.123 14.9683 14.1561 15.002C14.1893 15.002 14.1893 15.0356 14.2225 15.0356L14.2556 15.0693C14.2888 15.1029 14.322 15.1366 14.322 15.1702C14.3551 15.2039 14.3551 15.2712 14.3551 15.3048C14.3551 15.3385 14.3551 15.4057 14.322 15.4394C14.322 15.473 14.2888 15.5067 14.2556 15.5403C14.1893 15.6076 14.123 15.6413 14.0235 15.6413C13.924 15.6413 13.8577 15.6076 13.7913 15.5403C13.725 15.473 13.6918 15.4057 13.6918 15.3048C13.6918 15.2039 13.725 15.1366 13.7913 15.0693ZM14.0235 17.3235H15.6817C15.8807 17.3235 16.0134 17.4581 16.0134 17.66C16.0134 17.8619 15.8807 17.9964 15.6817 17.9964H14.0235C13.8245 17.9964 13.6918 17.8619 13.6918 17.66C13.6918 17.4581 13.8245 17.3235 14.0235 17.3235ZM14.6868 19.0058H14.0235C13.8245 19.0058 13.6918 18.8712 13.6918 18.6694C13.6918 18.4675 13.8245 18.3329 14.0235 18.3329H14.6868C14.8858 18.3329 15.0184 18.4675 15.0184 18.6694C15.0184 18.8712 14.8858 19.0058 14.6868 19.0058Z" fill="white"/>
</svg>
