<svg xmlns="http://www.w3.org/2000/svg" width="28" height="27" viewBox="0 0 28 27" fill="none">
<path d="M24.8844 0.046875C20.3928 0.046875 14.3659 3.01428 10.3187 8.11596H6.96353C4.53915 8.11596 3.14963 9.85848 2.19291 11.7013L0.912109 14.1678H3.93583H6.96353L10.1058 17.1937L13.2481 20.2196V23.1351V26.0469L15.8095 24.8137C17.7231 23.8922 19.5327 22.5542 19.5327 20.2196V16.9887C24.8306 13.0914 27.9121 7.28767 27.9121 2.96244V0.046875H24.8844ZM19.5327 6.09869C20.6897 6.09869 21.6275 7.00182 21.6275 8.11596C21.6275 9.2301 20.6897 10.1332 19.5327 10.1332C18.3757 10.1332 17.4378 9.2301 17.4378 8.11596C17.4378 7.00182 18.3757 6.09869 19.5327 6.09869ZM5.9161 18.2023L4.86867 19.2109C3.35576 20.6678 2.77381 24.2541 2.77381 24.2541C2.77381 24.2541 6.33088 23.8547 8.01096 22.2369L9.05838 21.2282L5.9161 18.2023Z" fill="white"/>
</svg>