<svg xmlns="http://www.w3.org/2000/svg" width="28" height="25" viewBox="0 0 28 25" fill="none">
<path d="M3.66211 0.0566406H5.24512V2.6282H3.66211V0.0566406Z" fill="white"/>
<path d="M6.83008 0.0566406H8.41309V2.6282H6.83008V0.0566406Z" fill="white"/>
<path d="M0.496094 0.0566406H2.07911V2.6282H0.496094V0.0566406Z" fill="white"/>
<path d="M9.99512 0.0566406H27.5138V2.6282H9.99512V0.0566406Z" fill="white"/>
<path d="M11.6503 8.91793C11.7277 8.67758 11.8086 8.45954 11.892 8.25977C9.72491 9.04141 8.11055 10.9897 7.81152 13.343H10.9633C11.021 11.6806 11.2596 10.132 11.6503 8.91793Z" fill="white"/>
<path d="M14.905 9.57063C14.5236 8.29561 14.1114 7.92951 14.0049 7.89062C13.8983 7.92951 13.4861 8.29556 13.1047 9.57057C12.7933 10.6115 12.6006 11.9282 12.5479 13.3404H15.4619C15.4091 11.9282 15.2164 10.6116 14.905 9.57063Z" fill="white"/>
<path d="M14.0049 20.3755C14.1114 20.3366 14.5236 19.9705 14.905 18.6955C15.2164 17.6546 15.4091 16.3379 15.4619 14.9258H12.5479C12.6006 16.3379 12.7933 17.6546 13.1047 18.6956C13.4861 19.9706 13.8984 20.3366 14.0049 20.3755Z" fill="white"/>
<path d="M17.0479 13.343H20.1997C19.9006 10.9898 18.2863 9.04141 16.1191 8.25977C16.2026 8.45954 16.2835 8.67758 16.3608 8.91793C16.7516 10.132 16.9902 11.6806 17.0479 13.343Z" fill="white"/>
<path d="M0.496094 24.0546H27.5129V4.21094H0.496094V24.0546ZM14.0045 6.3068C18.3197 6.3068 21.8305 9.8175 21.8305 14.1328C21.8305 18.4481 18.3198 21.9587 14.0045 21.9587C9.68919 21.9587 6.17848 18.448 6.17848 14.1327C6.17848 9.81745 9.68924 6.3068 14.0045 6.3068Z" fill="white"/>
<path d="M20.1996 14.9258H17.0478C16.9901 16.5883 16.7515 18.1369 16.3608 19.3509C16.2835 19.5912 16.2026 19.8093 16.1191 20.009C18.2862 19.2274 19.9006 17.279 20.1996 14.9258Z" fill="white"/>
<path d="M11.892 20.009C11.8086 19.8093 11.7277 19.5912 11.6503 19.3509C11.2596 18.1369 11.021 16.5883 10.9633 14.9258H7.81152C8.11055 17.279 9.72491 19.2274 11.892 20.009Z" fill="white"/>
</svg>