<svg width="54" height="54" viewBox="0 0 54 54" fill="none" xmlns="http://www.w3.org/2000/svg">
<g filter="url(#filter0_d_3281_1999)">
<circle cx="27" cy="25" r="20" fill="white"/>
</g>
<mask id="path-2-outside-1_3281_1999" maskUnits="userSpaceOnUse" x="16" y="12" width="22" height="21" fill="black">
<rect fill="white" x="16" y="12" width="22" height="21"/>
<path d="M35.6383 28.71C35.8227 28.5039 35.9482 28.2547 36.0023 27.987C36.0563 27.7193 36.037 27.4426 35.9464 27.1844C35.8557 26.9262 35.6968 26.6955 35.4855 26.5153C35.2742 26.3351 35.0178 26.2117 34.7419 26.1573V23.3135C34.7419 23.2307 34.7079 23.1512 34.6475 23.0926C34.587 23.034 34.5049 23.001 34.4194 23.001H27.3226V20.8135H29.5887C29.6743 20.8135 29.7563 20.7806 29.8168 20.722C29.8773 20.6634 29.9113 20.5839 29.9113 20.501V18.626C29.9105 18.1078 29.7202 17.6067 29.3741 17.2116C29.028 16.8165 28.5486 16.5529 28.021 16.4678C28.3788 16.2526 28.6543 15.9301 28.8058 15.5494C28.9573 15.1686 28.9765 14.7504 28.8604 14.3582C28.7443 13.9659 28.4993 13.6211 28.1625 13.376C27.8258 13.1309 27.4157 12.9989 26.9945 13C26.5733 13.0011 26.164 13.1353 25.8286 13.3823C25.4933 13.6292 25.2503 13.9753 25.1364 14.3682C25.0226 14.761 25.0441 15.1791 25.1978 15.5591C25.3515 15.939 25.6289 16.26 25.9879 16.4733C25.467 16.5646 24.9956 16.8301 24.6559 17.2234C24.3162 17.6168 24.1298 18.1132 24.129 18.626V20.501C24.129 20.5839 24.163 20.6634 24.2235 20.722C24.284 20.7806 24.3661 20.8135 24.4516 20.8135H26.6774V23.001H19.5806C19.4951 23.001 19.413 23.034 19.3525 23.0926C19.2921 23.1512 19.2581 23.2307 19.2581 23.3135V26.1573C18.9822 26.2117 18.7258 26.3351 18.5145 26.5153C18.3032 26.6955 18.1443 26.9262 18.0536 27.1844C17.963 27.4426 17.9437 27.7193 17.9977 27.987C18.0518 28.2547 18.1773 28.5039 18.3617 28.71C17.9674 28.8292 17.6227 29.0671 17.3778 29.3893C17.1328 29.7114 17.0005 30.1009 17 30.501V32.0635C17 32.1464 17.034 32.2259 17.0945 32.2845C17.155 32.3431 17.237 32.376 17.3226 32.376H21.8387C21.9243 32.376 22.0063 32.3431 22.0668 32.2845C22.1273 32.2259 22.1613 32.1464 22.1613 32.0635V30.501C22.1608 30.1009 22.0284 29.7114 21.7835 29.3893C21.5386 29.0671 21.1939 28.8292 20.7996 28.71C20.984 28.5039 21.1095 28.2547 21.1636 27.987C21.2176 27.7193 21.1983 27.4426 21.1077 27.1844C21.017 26.9262 20.8581 26.6955 20.6468 26.5153C20.4355 26.3351 20.1791 26.2117 19.9032 26.1573V23.626H26.6774V26.1573C26.4015 26.2117 26.1452 26.3351 25.9339 26.5153C25.7225 26.6955 25.5636 26.9262 25.473 27.1844C25.3823 27.4426 25.363 27.7193 25.4171 27.987C25.4711 28.2547 25.5966 28.5039 25.781 28.71C25.3868 28.8292 25.0421 29.0671 24.7971 29.3893C24.5522 29.7114 24.4199 30.1009 24.4194 30.501V32.0635C24.4194 32.1464 24.4533 32.2259 24.5138 32.2845C24.5743 32.3431 24.6564 32.376 24.7419 32.376H29.2581C29.3436 32.376 29.4257 32.3431 29.4862 32.2845C29.5467 32.2259 29.5806 32.1464 29.5806 32.0635V30.501C29.5801 30.1009 29.4478 29.7114 29.2029 29.3893C28.9579 29.0671 28.6132 28.8292 28.219 28.71C28.4034 28.5039 28.5289 28.2547 28.5829 27.987C28.637 27.7193 28.6177 27.4426 28.527 27.1844C28.4364 26.9262 28.2775 26.6955 28.0661 26.5153C27.8548 26.3351 27.5985 26.2117 27.3226 26.1573V23.626H34.0968V26.1573C33.8209 26.2117 33.5645 26.3351 33.3532 26.5153C33.1419 26.6955 32.983 26.9262 32.8923 27.1844C32.8017 27.4426 32.7824 27.7193 32.8364 27.987C32.8905 28.2547 33.016 28.5039 33.2004 28.71C32.8061 28.8292 32.4614 29.0671 32.2165 29.3893C31.9716 29.7114 31.8392 30.1009 31.8387 30.501V32.0635C31.8387 32.1464 31.8727 32.2259 31.9332 32.2845C31.9937 32.3431 32.0757 32.376 32.1613 32.376H36.6774C36.763 32.376 36.845 32.3431 36.9055 32.2845C36.966 32.2259 37 32.1464 37 32.0635V30.501C36.9995 30.1009 36.8672 29.7114 36.6222 29.3893C36.3773 29.0671 36.0326 28.8292 35.6383 28.71ZM21.5161 30.501V31.751H17.6452V30.501C17.6455 30.1696 17.7816 29.8519 18.0235 29.6176C18.2654 29.3832 18.5934 29.2514 18.9355 29.251H20.2258C20.5679 29.2514 20.8959 29.3832 21.1378 29.6176C21.3797 29.8519 21.5157 30.1696 21.5161 30.501ZM20.5484 27.6885C20.5484 27.874 20.4916 28.0552 20.3853 28.2094C20.279 28.3636 20.1278 28.4837 19.951 28.5547C19.7742 28.6256 19.5796 28.6442 19.3918 28.608C19.2041 28.5718 19.0317 28.4826 18.8963 28.3514C18.761 28.2203 18.6688 28.0533 18.6315 27.8714C18.5942 27.6896 18.6133 27.5011 18.6866 27.3298C18.7598 27.1585 18.8839 27.012 19.043 26.909C19.2021 26.806 19.3892 26.751 19.5806 26.751C19.8372 26.7514 20.0832 26.8502 20.2646 27.026C20.446 27.2017 20.548 27.44 20.5484 27.6885ZM25.7097 14.876C25.7097 14.6288 25.7854 14.3871 25.9271 14.1816C26.0689 13.976 26.2704 13.8158 26.5062 13.7212C26.742 13.6266 27.0014 13.6018 27.2517 13.6501C27.502 13.6983 27.7319 13.8173 27.9124 13.9922C28.0928 14.167 28.2157 14.3897 28.2655 14.6322C28.3153 14.8746 28.2898 15.126 28.1921 15.3544C28.0944 15.5828 27.9291 15.778 27.7169 15.9154C27.5047 16.0527 27.2552 16.126 27 16.126C26.6579 16.1257 26.3299 15.9939 26.088 15.7596C25.846 15.5252 25.71 15.2075 25.7097 14.876ZM28.9355 30.501V31.751H25.0645V30.501C25.0649 30.1696 25.201 29.8519 25.4429 29.6176C25.6848 29.3832 26.0127 29.2514 26.3548 29.251H27.6452C27.9873 29.2514 28.3152 29.3832 28.5571 29.6176C28.799 29.8519 28.9351 30.1696 28.9355 30.501ZM27.9677 27.6885C27.9677 27.874 27.911 28.0552 27.8046 28.2094C27.6983 28.3636 27.5472 28.4837 27.3703 28.5547C27.1935 28.6256 26.9989 28.6442 26.8112 28.608C26.6235 28.5718 26.451 28.4826 26.3157 28.3514C26.1804 28.2203 26.0882 28.0533 26.0509 27.8714C26.0135 27.6896 26.0327 27.5011 26.1059 27.3298C26.1792 27.1585 26.3032 27.012 26.4624 26.909C26.6215 26.806 26.8086 26.751 27 26.751C27.2566 26.7514 27.5025 26.8502 27.6839 27.026C27.8653 27.2017 27.9674 27.44 27.9677 27.6885ZM24.7742 20.1885V18.626C24.7746 18.2118 24.9447 17.8146 25.2471 17.5216C25.5495 17.2287 25.9595 17.0639 26.3871 17.0635H27.6532C28.0809 17.0639 28.4909 17.2287 28.7932 17.5216C29.0956 17.8146 29.2657 18.2118 29.2661 18.626V20.1885H24.7742ZM34.4194 26.751C34.6108 26.751 34.7979 26.806 34.957 26.909C35.1161 27.012 35.2402 27.1585 35.3134 27.3298C35.3867 27.5011 35.4058 27.6896 35.3685 27.8714C35.3312 28.0533 35.239 28.2203 35.1037 28.3514C34.9683 28.4826 34.7959 28.5718 34.6082 28.608C34.4204 28.6442 34.2258 28.6256 34.049 28.5547C33.8722 28.4837 33.721 28.3636 33.6147 28.2094C33.5084 28.0552 33.4516 27.874 33.4516 27.6885C33.452 27.44 33.554 27.2017 33.7354 27.026C33.9168 26.8502 34.1628 26.7514 34.4194 26.751ZM36.3548 31.751H32.4839V30.501C32.4843 30.1696 32.6203 29.8519 32.8622 29.6176C33.1041 29.3832 33.4321 29.2514 33.7742 29.251H35.0645C35.4066 29.2514 35.7346 29.3832 35.9765 29.6176C36.2184 29.8519 36.3545 30.1696 36.3548 30.501V31.751Z"/>
</mask>
<path d="M35.6383 28.71C35.8227 28.5039 35.9482 28.2547 36.0023 27.987C36.0563 27.7193 36.037 27.4426 35.9464 27.1844C35.8557 26.9262 35.6968 26.6955 35.4855 26.5153C35.2742 26.3351 35.0178 26.2117 34.7419 26.1573V23.3135C34.7419 23.2307 34.7079 23.1512 34.6475 23.0926C34.587 23.034 34.5049 23.001 34.4194 23.001H27.3226V20.8135H29.5887C29.6743 20.8135 29.7563 20.7806 29.8168 20.722C29.8773 20.6634 29.9113 20.5839 29.9113 20.501V18.626C29.9105 18.1078 29.7202 17.6067 29.3741 17.2116C29.028 16.8165 28.5486 16.5529 28.021 16.4678C28.3788 16.2526 28.6543 15.9301 28.8058 15.5494C28.9573 15.1686 28.9765 14.7504 28.8604 14.3582C28.7443 13.9659 28.4993 13.6211 28.1625 13.376C27.8258 13.1309 27.4157 12.9989 26.9945 13C26.5733 13.0011 26.164 13.1353 25.8286 13.3823C25.4933 13.6292 25.2503 13.9753 25.1364 14.3682C25.0226 14.761 25.0441 15.1791 25.1978 15.5591C25.3515 15.939 25.6289 16.26 25.9879 16.4733C25.467 16.5646 24.9956 16.8301 24.6559 17.2234C24.3162 17.6168 24.1298 18.1132 24.129 18.626V20.501C24.129 20.5839 24.163 20.6634 24.2235 20.722C24.284 20.7806 24.3661 20.8135 24.4516 20.8135H26.6774V23.001H19.5806C19.4951 23.001 19.413 23.034 19.3525 23.0926C19.2921 23.1512 19.2581 23.2307 19.2581 23.3135V26.1573C18.9822 26.2117 18.7258 26.3351 18.5145 26.5153C18.3032 26.6955 18.1443 26.9262 18.0536 27.1844C17.963 27.4426 17.9437 27.7193 17.9977 27.987C18.0518 28.2547 18.1773 28.5039 18.3617 28.71C17.9674 28.8292 17.6227 29.0671 17.3778 29.3893C17.1328 29.7114 17.0005 30.1009 17 30.501V32.0635C17 32.1464 17.034 32.2259 17.0945 32.2845C17.155 32.3431 17.237 32.376 17.3226 32.376H21.8387C21.9243 32.376 22.0063 32.3431 22.0668 32.2845C22.1273 32.2259 22.1613 32.1464 22.1613 32.0635V30.501C22.1608 30.1009 22.0284 29.7114 21.7835 29.3893C21.5386 29.0671 21.1939 28.8292 20.7996 28.71C20.984 28.5039 21.1095 28.2547 21.1636 27.987C21.2176 27.7193 21.1983 27.4426 21.1077 27.1844C21.017 26.9262 20.8581 26.6955 20.6468 26.5153C20.4355 26.3351 20.1791 26.2117 19.9032 26.1573V23.626H26.6774V26.1573C26.4015 26.2117 26.1452 26.3351 25.9339 26.5153C25.7225 26.6955 25.5636 26.9262 25.473 27.1844C25.3823 27.4426 25.363 27.7193 25.4171 27.987C25.4711 28.2547 25.5966 28.5039 25.781 28.71C25.3868 28.8292 25.0421 29.0671 24.7971 29.3893C24.5522 29.7114 24.4199 30.1009 24.4194 30.501V32.0635C24.4194 32.1464 24.4533 32.2259 24.5138 32.2845C24.5743 32.3431 24.6564 32.376 24.7419 32.376H29.2581C29.3436 32.376 29.4257 32.3431 29.4862 32.2845C29.5467 32.2259 29.5806 32.1464 29.5806 32.0635V30.501C29.5801 30.1009 29.4478 29.7114 29.2029 29.3893C28.9579 29.0671 28.6132 28.8292 28.219 28.71C28.4034 28.5039 28.5289 28.2547 28.5829 27.987C28.637 27.7193 28.6177 27.4426 28.527 27.1844C28.4364 26.9262 28.2775 26.6955 28.0661 26.5153C27.8548 26.3351 27.5985 26.2117 27.3226 26.1573V23.626H34.0968V26.1573C33.8209 26.2117 33.5645 26.3351 33.3532 26.5153C33.1419 26.6955 32.983 26.9262 32.8923 27.1844C32.8017 27.4426 32.7824 27.7193 32.8364 27.987C32.8905 28.2547 33.016 28.5039 33.2004 28.71C32.8061 28.8292 32.4614 29.0671 32.2165 29.3893C31.9716 29.7114 31.8392 30.1009 31.8387 30.501V32.0635C31.8387 32.1464 31.8727 32.2259 31.9332 32.2845C31.9937 32.3431 32.0757 32.376 32.1613 32.376H36.6774C36.763 32.376 36.845 32.3431 36.9055 32.2845C36.966 32.2259 37 32.1464 37 32.0635V30.501C36.9995 30.1009 36.8672 29.7114 36.6222 29.3893C36.3773 29.0671 36.0326 28.8292 35.6383 28.71ZM21.5161 30.501V31.751H17.6452V30.501C17.6455 30.1696 17.7816 29.8519 18.0235 29.6176C18.2654 29.3832 18.5934 29.2514 18.9355 29.251H20.2258C20.5679 29.2514 20.8959 29.3832 21.1378 29.6176C21.3797 29.8519 21.5157 30.1696 21.5161 30.501ZM20.5484 27.6885C20.5484 27.874 20.4916 28.0552 20.3853 28.2094C20.279 28.3636 20.1278 28.4837 19.951 28.5547C19.7742 28.6256 19.5796 28.6442 19.3918 28.608C19.2041 28.5718 19.0317 28.4826 18.8963 28.3514C18.761 28.2203 18.6688 28.0533 18.6315 27.8714C18.5942 27.6896 18.6133 27.5011 18.6866 27.3298C18.7598 27.1585 18.8839 27.012 19.043 26.909C19.2021 26.806 19.3892 26.751 19.5806 26.751C19.8372 26.7514 20.0832 26.8502 20.2646 27.026C20.446 27.2017 20.548 27.44 20.5484 27.6885ZM25.7097 14.876C25.7097 14.6288 25.7854 14.3871 25.9271 14.1816C26.0689 13.976 26.2704 13.8158 26.5062 13.7212C26.742 13.6266 27.0014 13.6018 27.2517 13.6501C27.502 13.6983 27.7319 13.8173 27.9124 13.9922C28.0928 14.167 28.2157 14.3897 28.2655 14.6322C28.3153 14.8746 28.2898 15.126 28.1921 15.3544C28.0944 15.5828 27.9291 15.778 27.7169 15.9154C27.5047 16.0527 27.2552 16.126 27 16.126C26.6579 16.1257 26.3299 15.9939 26.088 15.7596C25.846 15.5252 25.71 15.2075 25.7097 14.876ZM28.9355 30.501V31.751H25.0645V30.501C25.0649 30.1696 25.201 29.8519 25.4429 29.6176C25.6848 29.3832 26.0127 29.2514 26.3548 29.251H27.6452C27.9873 29.2514 28.3152 29.3832 28.5571 29.6176C28.799 29.8519 28.9351 30.1696 28.9355 30.501ZM27.9677 27.6885C27.9677 27.874 27.911 28.0552 27.8046 28.2094C27.6983 28.3636 27.5472 28.4837 27.3703 28.5547C27.1935 28.6256 26.9989 28.6442 26.8112 28.608C26.6235 28.5718 26.451 28.4826 26.3157 28.3514C26.1804 28.2203 26.0882 28.0533 26.0509 27.8714C26.0135 27.6896 26.0327 27.5011 26.1059 27.3298C26.1792 27.1585 26.3032 27.012 26.4624 26.909C26.6215 26.806 26.8086 26.751 27 26.751C27.2566 26.7514 27.5025 26.8502 27.6839 27.026C27.8653 27.2017 27.9674 27.44 27.9677 27.6885ZM24.7742 20.1885V18.626C24.7746 18.2118 24.9447 17.8146 25.2471 17.5216C25.5495 17.2287 25.9595 17.0639 26.3871 17.0635H27.6532C28.0809 17.0639 28.4909 17.2287 28.7932 17.5216C29.0956 17.8146 29.2657 18.2118 29.2661 18.626V20.1885H24.7742ZM34.4194 26.751C34.6108 26.751 34.7979 26.806 34.957 26.909C35.1161 27.012 35.2402 27.1585 35.3134 27.3298C35.3867 27.5011 35.4058 27.6896 35.3685 27.8714C35.3312 28.0533 35.239 28.2203 35.1037 28.3514C34.9683 28.4826 34.7959 28.5718 34.6082 28.608C34.4204 28.6442 34.2258 28.6256 34.049 28.5547C33.8722 28.4837 33.721 28.3636 33.6147 28.2094C33.5084 28.0552 33.4516 27.874 33.4516 27.6885C33.452 27.44 33.554 27.2017 33.7354 27.026C33.9168 26.8502 34.1628 26.7514 34.4194 26.751ZM36.3548 31.751H32.4839V30.501C32.4843 30.1696 32.6203 29.8519 32.8622 29.6176C33.1041 29.3832 33.4321 29.2514 33.7742 29.251H35.0645C35.4066 29.2514 35.7346 29.3832 35.9765 29.6176C36.2184 29.8519 36.3545 30.1696 36.3548 30.501V31.751Z" fill="black"/>
<path d="M35.6383 28.71C35.8227 28.5039 35.9482 28.2547 36.0023 27.987C36.0563 27.7193 36.037 27.4426 35.9464 27.1844C35.8557 26.9262 35.6968 26.6955 35.4855 26.5153C35.2742 26.3351 35.0178 26.2117 34.7419 26.1573V23.3135C34.7419 23.2307 34.7079 23.1512 34.6475 23.0926C34.587 23.034 34.5049 23.001 34.4194 23.001H27.3226V20.8135H29.5887C29.6743 20.8135 29.7563 20.7806 29.8168 20.722C29.8773 20.6634 29.9113 20.5839 29.9113 20.501V18.626C29.9105 18.1078 29.7202 17.6067 29.3741 17.2116C29.028 16.8165 28.5486 16.5529 28.021 16.4678C28.3788 16.2526 28.6543 15.9301 28.8058 15.5494C28.9573 15.1686 28.9765 14.7504 28.8604 14.3582C28.7443 13.9659 28.4993 13.6211 28.1625 13.376C27.8258 13.1309 27.4157 12.9989 26.9945 13C26.5733 13.0011 26.164 13.1353 25.8286 13.3823C25.4933 13.6292 25.2503 13.9753 25.1364 14.3682C25.0226 14.761 25.0441 15.1791 25.1978 15.5591C25.3515 15.939 25.6289 16.26 25.9879 16.4733C25.467 16.5646 24.9956 16.8301 24.6559 17.2234C24.3162 17.6168 24.1298 18.1132 24.129 18.626V20.501C24.129 20.5839 24.163 20.6634 24.2235 20.722C24.284 20.7806 24.3661 20.8135 24.4516 20.8135H26.6774V23.001H19.5806C19.4951 23.001 19.413 23.034 19.3525 23.0926C19.2921 23.1512 19.2581 23.2307 19.2581 23.3135V26.1573C18.9822 26.2117 18.7258 26.3351 18.5145 26.5153C18.3032 26.6955 18.1443 26.9262 18.0536 27.1844C17.963 27.4426 17.9437 27.7193 17.9977 27.987C18.0518 28.2547 18.1773 28.5039 18.3617 28.71C17.9674 28.8292 17.6227 29.0671 17.3778 29.3893C17.1328 29.7114 17.0005 30.1009 17 30.501V32.0635C17 32.1464 17.034 32.2259 17.0945 32.2845C17.155 32.3431 17.237 32.376 17.3226 32.376H21.8387C21.9243 32.376 22.0063 32.3431 22.0668 32.2845C22.1273 32.2259 22.1613 32.1464 22.1613 32.0635V30.501C22.1608 30.1009 22.0284 29.7114 21.7835 29.3893C21.5386 29.0671 21.1939 28.8292 20.7996 28.71C20.984 28.5039 21.1095 28.2547 21.1636 27.987C21.2176 27.7193 21.1983 27.4426 21.1077 27.1844C21.017 26.9262 20.8581 26.6955 20.6468 26.5153C20.4355 26.3351 20.1791 26.2117 19.9032 26.1573V23.626H26.6774V26.1573C26.4015 26.2117 26.1452 26.3351 25.9339 26.5153C25.7225 26.6955 25.5636 26.9262 25.473 27.1844C25.3823 27.4426 25.363 27.7193 25.4171 27.987C25.4711 28.2547 25.5966 28.5039 25.781 28.71C25.3868 28.8292 25.0421 29.0671 24.7971 29.3893C24.5522 29.7114 24.4199 30.1009 24.4194 30.501V32.0635C24.4194 32.1464 24.4533 32.2259 24.5138 32.2845C24.5743 32.3431 24.6564 32.376 24.7419 32.376H29.2581C29.3436 32.376 29.4257 32.3431 29.4862 32.2845C29.5467 32.2259 29.5806 32.1464 29.5806 32.0635V30.501C29.5801 30.1009 29.4478 29.7114 29.2029 29.3893C28.9579 29.0671 28.6132 28.8292 28.219 28.71C28.4034 28.5039 28.5289 28.2547 28.5829 27.987C28.637 27.7193 28.6177 27.4426 28.527 27.1844C28.4364 26.9262 28.2775 26.6955 28.0661 26.5153C27.8548 26.3351 27.5985 26.2117 27.3226 26.1573V23.626H34.0968V26.1573C33.8209 26.2117 33.5645 26.3351 33.3532 26.5153C33.1419 26.6955 32.983 26.9262 32.8923 27.1844C32.8017 27.4426 32.7824 27.7193 32.8364 27.987C32.8905 28.2547 33.016 28.5039 33.2004 28.71C32.8061 28.8292 32.4614 29.0671 32.2165 29.3893C31.9716 29.7114 31.8392 30.1009 31.8387 30.501V32.0635C31.8387 32.1464 31.8727 32.2259 31.9332 32.2845C31.9937 32.3431 32.0757 32.376 32.1613 32.376H36.6774C36.763 32.376 36.845 32.3431 36.9055 32.2845C36.966 32.2259 37 32.1464 37 32.0635V30.501C36.9995 30.1009 36.8672 29.7114 36.6222 29.3893C36.3773 29.0671 36.0326 28.8292 35.6383 28.71ZM21.5161 30.501V31.751H17.6452V30.501C17.6455 30.1696 17.7816 29.8519 18.0235 29.6176C18.2654 29.3832 18.5934 29.2514 18.9355 29.251H20.2258C20.5679 29.2514 20.8959 29.3832 21.1378 29.6176C21.3797 29.8519 21.5157 30.1696 21.5161 30.501ZM20.5484 27.6885C20.5484 27.874 20.4916 28.0552 20.3853 28.2094C20.279 28.3636 20.1278 28.4837 19.951 28.5547C19.7742 28.6256 19.5796 28.6442 19.3918 28.608C19.2041 28.5718 19.0317 28.4826 18.8963 28.3514C18.761 28.2203 18.6688 28.0533 18.6315 27.8714C18.5942 27.6896 18.6133 27.5011 18.6866 27.3298C18.7598 27.1585 18.8839 27.012 19.043 26.909C19.2021 26.806 19.3892 26.751 19.5806 26.751C19.8372 26.7514 20.0832 26.8502 20.2646 27.026C20.446 27.2017 20.548 27.44 20.5484 27.6885ZM25.7097 14.876C25.7097 14.6288 25.7854 14.3871 25.9271 14.1816C26.0689 13.976 26.2704 13.8158 26.5062 13.7212C26.742 13.6266 27.0014 13.6018 27.2517 13.6501C27.502 13.6983 27.7319 13.8173 27.9124 13.9922C28.0928 14.167 28.2157 14.3897 28.2655 14.6322C28.3153 14.8746 28.2898 15.126 28.1921 15.3544C28.0944 15.5828 27.9291 15.778 27.7169 15.9154C27.5047 16.0527 27.2552 16.126 27 16.126C26.6579 16.1257 26.3299 15.9939 26.088 15.7596C25.846 15.5252 25.71 15.2075 25.7097 14.876ZM28.9355 30.501V31.751H25.0645V30.501C25.0649 30.1696 25.201 29.8519 25.4429 29.6176C25.6848 29.3832 26.0127 29.2514 26.3548 29.251H27.6452C27.9873 29.2514 28.3152 29.3832 28.5571 29.6176C28.799 29.8519 28.9351 30.1696 28.9355 30.501ZM27.9677 27.6885C27.9677 27.874 27.911 28.0552 27.8046 28.2094C27.6983 28.3636 27.5472 28.4837 27.3703 28.5547C27.1935 28.6256 26.9989 28.6442 26.8112 28.608C26.6235 28.5718 26.451 28.4826 26.3157 28.3514C26.1804 28.2203 26.0882 28.0533 26.0509 27.8714C26.0135 27.6896 26.0327 27.5011 26.1059 27.3298C26.1792 27.1585 26.3032 27.012 26.4624 26.909C26.6215 26.806 26.8086 26.751 27 26.751C27.2566 26.7514 27.5025 26.8502 27.6839 27.026C27.8653 27.2017 27.9674 27.44 27.9677 27.6885ZM24.7742 20.1885V18.626C24.7746 18.2118 24.9447 17.8146 25.2471 17.5216C25.5495 17.2287 25.9595 17.0639 26.3871 17.0635H27.6532C28.0809 17.0639 28.4909 17.2287 28.7932 17.5216C29.0956 17.8146 29.2657 18.2118 29.2661 18.626V20.1885H24.7742ZM34.4194 26.751C34.6108 26.751 34.7979 26.806 34.957 26.909C35.1161 27.012 35.2402 27.1585 35.3134 27.3298C35.3867 27.5011 35.4058 27.6896 35.3685 27.8714C35.3312 28.0533 35.239 28.2203 35.1037 28.3514C34.9683 28.4826 34.7959 28.5718 34.6082 28.608C34.4204 28.6442 34.2258 28.6256 34.049 28.5547C33.8722 28.4837 33.721 28.3636 33.6147 28.2094C33.5084 28.0552 33.4516 27.874 33.4516 27.6885C33.452 27.44 33.554 27.2017 33.7354 27.026C33.9168 26.8502 34.1628 26.7514 34.4194 26.751ZM36.3548 31.751H32.4839V30.501C32.4843 30.1696 32.6203 29.8519 32.8622 29.6176C33.1041 29.3832 33.4321 29.2514 33.7742 29.251H35.0645C35.4066 29.2514 35.7346 29.3832 35.9765 29.6176C36.2184 29.8519 36.3545 30.1696 36.3548 30.501V31.751Z" stroke="black" stroke-width="0.4" mask="url(#path-2-outside-1_3281_1999)"/>
<circle cx="40" cy="41" r="6.5" stroke="#339B31"/>
<circle cx="40" cy="41" r="5" fill="#62D05F"/>
<defs>
<filter id="filter0_d_3281_1999" x="0" y="0" width="54" height="54" filterUnits="userSpaceOnUse" color-interpolation-filters="sRGB">
<feFlood flood-opacity="0" result="BackgroundImageFix"/>
<feColorMatrix in="SourceAlpha" type="matrix" values="0 0 0 0 0 0 0 0 0 0 0 0 0 0 0 0 0 0 127 0" result="hardAlpha"/>
<feOffset dy="2"/>
<feGaussianBlur stdDeviation="3.5"/>
<feColorMatrix type="matrix" values="0 0 0 0 0 0 0 0 0 0 0 0 0 0 0 0 0 0 0.2 0"/>
<feBlend mode="normal" in2="BackgroundImageFix" result="effect1_dropShadow_3281_1999"/>
<feBlend mode="normal" in="SourceGraphic" in2="effect1_dropShadow_3281_1999" result="shape"/>
</filter>
</defs>
</svg>
