<svg xmlns="http://www.w3.org/2000/svg" width="60" height="60" viewBox="0 0 60 60" fill="none">
<circle cx="30" cy="30" r="30" fill="white"/>
<circle cx="48" cy="54" r="6" fill="#339B31"/>
<path d="M40.3333 27.75V20.1667C40.3333 19.592 40.1051 19.0409 39.6987 18.6346C39.2924 18.2283 38.7413 18 38.1667 18H12.1667C11.592 18 11.0409 18.2283 10.6346 18.6346C10.2283 19.0409 10 19.592 10 20.1667V41.8333C10 42.408 10.2283 42.9591 10.6346 43.3654C11.0409 43.7717 11.592 44 12.1667 44H38.1667C38.7413 44 39.2924 43.7717 39.6987 43.3654C40.1051 42.9591 40.3333 42.408 40.3333 41.8333V34.25L49 42.9167V19.0833L40.3333 27.75Z" fill="black"/>
<path d="M20.5686 22.3359C19.3921 23.7227 18.6641 25.638 18.6641 27.7526C18.6641 29.8672 19.3921 31.7825 20.5686 33.1693L21.4851 32.089C20.5426 30.9857 19.9641 29.4535 19.9641 27.7526C19.9641 26.0594 20.5426 24.5195 21.4851 23.4162L20.5686 22.3359ZM29.7596 22.3359L28.8431 23.4162C29.7856 24.5195 30.3641 26.0594 30.3641 27.7526C30.3641 29.4535 29.7856 30.9857 28.8431 32.089L29.7596 33.1693C30.9361 31.7825 31.6641 29.8672 31.6641 27.7526C31.6641 25.638 30.9361 23.7227 29.7596 22.3359ZM22.4081 24.5041C21.6996 25.3392 21.2641 26.4885 21.2641 27.7526C21.2641 29.0167 21.6996 30.166 22.4081 31.0011L23.3246 29.9208C22.8566 29.3692 22.5641 28.603 22.5641 27.7526C22.5641 26.9022 22.8566 26.136 23.3246 25.5844L22.4081 24.5041ZM27.9201 24.5041L27.0036 25.5844C27.4716 26.136 27.7641 26.9022 27.7641 27.7526C27.7641 28.603 27.4716 29.3692 27.0036 29.9208L27.9201 31.0011C28.6286 30.166 29.0641 29.0167 29.0641 27.7526C29.0641 26.4885 28.6286 25.3392 27.9201 24.5041ZM25.1641 26.2203C24.8193 26.2203 24.4886 26.3817 24.2448 26.6691C24.001 26.9565 23.8641 27.3462 23.8641 27.7526C23.8641 28.159 24.001 28.5487 24.2448 28.8361C24.4886 29.1235 24.8193 29.2849 25.1641 29.2849C25.5088 29.2849 25.8395 29.1235 26.0833 28.8361C26.3271 28.5487 26.4641 28.159 26.4641 27.7526C26.4641 27.3462 26.3271 26.9565 26.0833 26.6691C25.8395 26.3817 25.5088 26.2203 25.1641 26.2203Z" fill="#E5E5E5"/>
<path d="M22 38.924V36.104H22.624V38.4H23.896V38.924H22Z" fill="white"/>
<path d="M24.2373 38.924V36.896H24.8413V38.924H24.2373ZM24.2133 36.564V36H24.8613V36.564H24.2133Z" fill="white"/>
<path d="M25.923 38.924L25.047 36.896H25.683L26.263 38.368H26.131L26.731 36.896H27.327L26.443 38.924H25.923Z" fill="white"/>
<path d="M28.5113 38.968C28.1593 38.968 27.8846 38.8733 27.6873 38.684C27.4899 38.4947 27.3913 38.2373 27.3913 37.912C27.3913 37.7013 27.4326 37.5173 27.5153 37.36C27.6006 37.2027 27.7179 37.08 27.8672 36.992C28.0192 36.9013 28.1966 36.856 28.3993 36.856C28.5992 36.856 28.7659 36.8987 28.8993 36.984C29.0353 37.0693 29.1366 37.1893 29.2032 37.344C29.2726 37.496 29.3073 37.6733 29.3073 37.876V38.016H27.8872V37.716H28.8672L28.7993 37.772C28.7993 37.604 28.7646 37.4773 28.6953 37.392C28.6286 37.304 28.5312 37.26 28.4033 37.26C28.2619 37.26 28.1526 37.312 28.0753 37.416C28.0006 37.52 27.9633 37.6693 27.9633 37.864V37.928C27.9633 38.1253 28.0113 38.272 28.1073 38.368C28.2059 38.464 28.3472 38.512 28.5312 38.512C28.6406 38.512 28.7432 38.4987 28.8393 38.472C28.9379 38.4427 29.0312 38.3973 29.1192 38.336L29.2873 38.736C29.1859 38.8107 29.0686 38.868 28.9352 38.908C28.8046 38.948 28.6632 38.968 28.5113 38.968Z" fill="white"/>
</svg>