<svg width="54" height="54" viewBox="0 0 54 54" fill="none" xmlns="http://www.w3.org/2000/svg">
<g filter="url(#filter0_d_3281_1951)">
<circle cx="27" cy="25" r="20" fill="white"/>
</g>
<path d="M36.9082 20.9342V24.3974C36.9082 24.5394 36.9471 24.6778 37.0192 24.7922C37.0913 24.9067 37.1928 24.9913 37.3091 25.0337L42.2601 26.8388C42.3457 26.87 42.4363 26.8773 42.5247 26.86C42.6131 26.8428 42.6968 26.8015 42.769 26.7396C42.8412 26.6777 42.8999 26.5968 42.9403 26.5035C42.9808 26.4102 43.0019 26.3071 43.0018 26.2025V19.1291C43.0019 19.0245 42.9808 18.9214 42.9403 18.8281C42.8999 18.7348 42.8412 18.6539 42.769 18.592C42.6968 18.53 42.6131 18.4888 42.5247 18.4716C42.4363 18.4543 42.3457 18.4616 42.2601 18.4928L37.3091 20.2979C37.1928 20.3403 37.0913 20.4249 37.0192 20.5394C36.9471 20.6538 36.9082 20.7922 36.9082 20.9342Z" stroke="black"/>
<rect x="13" y="15" width="23.9058" height="14.8349" rx="3" stroke="black"/>
<path d="M25.1874 24.6425C26.9342 24.6425 28.3514 23.1474 28.3514 21.3047C28.3514 19.4619 26.9342 17.9668 25.1874 17.9668C23.4406 17.9668 22.0234 19.4619 22.0234 21.3047C22.0234 23.1474 23.4406 24.6425 25.1874 24.6425ZM27.9999 25.3843H26.7892C26.3014 25.6207 25.7587 25.7551 25.1874 25.7551C24.6161 25.7551 24.0756 25.6207 23.5856 25.3843H22.375C20.8215 25.3843 19.5625 26.7124 19.5625 28.3512V28.7221C19.5625 29.3364 20.0349 29.8347 20.6172 29.8347H29.7576C30.3399 29.8347 30.8123 29.3364 30.8123 28.7221V28.3512C30.8123 26.7124 29.5533 25.3843 27.9999 25.3843Z" fill="black"/>
<circle cx="36" cy="41" r="6.5" stroke="#339B31"/>
<circle cx="36" cy="41" r="5" fill="#62D05F"/>
<defs>
<filter id="filter0_d_3281_1951" x="0" y="0" width="54" height="54" filterUnits="userSpaceOnUse" color-interpolation-filters="sRGB">
<feFlood flood-opacity="0" result="BackgroundImageFix"/>
<feColorMatrix in="SourceAlpha" type="matrix" values="0 0 0 0 0 0 0 0 0 0 0 0 0 0 0 0 0 0 127 0" result="hardAlpha"/>
<feOffset dy="2"/>
<feGaussianBlur stdDeviation="3.5"/>
<feColorMatrix type="matrix" values="0 0 0 0 0 0 0 0 0 0 0 0 0 0 0 0 0 0 0.2 0"/>
<feBlend mode="normal" in2="BackgroundImageFix" result="effect1_dropShadow_3281_1951"/>
<feBlend mode="normal" in="SourceGraphic" in2="effect1_dropShadow_3281_1951" result="shape"/>
</filter>
</defs>
</svg>
