<svg xmlns="http://www.w3.org/2000/svg" width="60" height="60" viewBox="0 0 60 60" fill="none">
<circle cx="30" cy="30" r="30" fill="white"/>
<circle cx="48" cy="54" r="6" fill="#339B31"/>
<path d="M22.5 13.9375C22.5 13.6889 22.4012 13.4504 22.2254 13.2746C22.0496 13.0988 21.8111 13 21.5625 13C21.3139 13 21.0754 13.0988 20.8996 13.2746C20.7238 13.4504 20.625 13.6889 20.625 13.9375V14.875H18.75C17.7554 14.875 16.8016 15.2701 16.0983 15.9733C15.3951 16.6766 15 17.6304 15 18.625V20.5H45V18.625C45 17.6304 44.6049 16.6766 43.9016 15.9733C43.1984 15.2701 42.2446 14.875 41.25 14.875H39.375V13.9375C39.375 13.6889 39.2762 13.4504 39.1004 13.2746C38.9246 13.0988 38.6861 13 38.4375 13C38.1889 13 37.9504 13.0988 37.7746 13.2746C37.5988 13.4504 37.5 13.6889 37.5 13.9375V14.875H22.5V13.9375ZM45 39.25V22.375H15V39.25C15 40.2446 15.3951 41.1984 16.0983 41.9016C16.8016 42.6049 17.7554 43 18.75 43H41.25C42.2446 43 43.1984 42.6049 43.9016 41.9016C44.6049 41.1984 45 40.2446 45 39.25ZM38.4375 26.125H40.3125C40.5611 26.125 40.7996 26.2238 40.9754 26.3996C41.1512 26.5754 41.25 26.8139 41.25 27.0625V28.9375C41.25 29.1861 41.1512 29.4246 40.9754 29.6004C40.7996 29.7762 40.5611 29.875 40.3125 29.875H38.4375C38.1889 29.875 37.9504 29.7762 37.7746 29.6004C37.5988 29.4246 37.5 29.1861 37.5 28.9375V27.0625C37.5 26.8139 37.5988 26.5754 37.7746 26.3996C37.9504 26.2238 38.1889 26.125 38.4375 26.125Z" fill="black"/>
<path d="M20.625 33.625C21.1223 33.625 21.5992 33.8225 21.9508 34.1742C22.3025 34.5258 22.5 35.0027 22.5 35.5C22.5 35.9973 22.3025 36.4742 21.9508 36.8258C21.5992 37.1775 21.1223 37.375 20.625 37.375C20.1277 37.375 19.6508 37.1775 19.2992 36.8258C18.9475 36.4742 18.75 35.9973 18.75 35.5C18.75 35.0027 18.9475 34.5258 19.2992 34.1742C19.6508 33.8225 20.1277 33.625 20.625 33.625ZM20.625 38.3125C22.6969 38.3125 24.375 39.1516 24.375 40.1875V41.125H16.875V40.1875C16.875 39.1516 18.5531 38.3125 20.625 38.3125Z" fill="#F2F2F2"/>
<path d="M20.625 33.625C21.1223 33.625 21.5992 33.8225 21.9508 34.1742C22.3025 34.5258 22.5 35.0027 22.5 35.5C22.5 35.9973 22.3025 36.4742 21.9508 36.8258C21.5992 37.1775 21.1223 37.375 20.625 37.375C20.1277 37.375 19.6508 37.1775 19.2992 36.8258C18.9475 36.4742 18.75 35.9973 18.75 35.5C18.75 35.0027 18.9475 34.5258 19.2992 34.1742C19.6508 33.8225 20.1277 33.625 20.625 33.625ZM20.625 38.3125C22.6969 38.3125 24.375 39.1516 24.375 40.1875V41.125H16.875V40.1875C16.875 39.1516 18.5531 38.3125 20.625 38.3125Z" fill="#F2F2F2"/>
<path d="M20.625 33.625C21.1223 33.625 21.5992 33.8225 21.9508 34.1742C22.3025 34.5258 22.5 35.0027 22.5 35.5C22.5 35.9973 22.3025 36.4742 21.9508 36.8258C21.5992 37.1775 21.1223 37.375 20.625 37.375C20.1277 37.375 19.6508 37.1775 19.2992 36.8258C18.9475 36.4742 18.75 35.9973 18.75 35.5C18.75 35.0027 18.9475 34.5258 19.2992 34.1742C19.6508 33.8225 20.1277 33.625 20.625 33.625ZM20.625 38.3125C22.6969 38.3125 24.375 39.1516 24.375 40.1875V41.125H16.875V40.1875C16.875 39.1516 18.5531 38.3125 20.625 38.3125Z" fill="#F2F2F2"/>
<path d="M20.625 33.625C21.1223 33.625 21.5992 33.8225 21.9508 34.1742C22.3025 34.5258 22.5 35.0027 22.5 35.5C22.5 35.9973 22.3025 36.4742 21.9508 36.8258C21.5992 37.1775 21.1223 37.375 20.625 37.375C20.1277 37.375 19.6508 37.1775 19.2992 36.8258C18.9475 36.4742 18.75 35.9973 18.75 35.5C18.75 35.0027 18.9475 34.5258 19.2992 34.1742C19.6508 33.8225 20.1277 33.625 20.625 33.625ZM20.625 38.3125C22.6969 38.3125 24.375 39.1516 24.375 40.1875V41.125H16.875V40.1875C16.875 39.1516 18.5531 38.3125 20.625 38.3125Z" fill="#F2F2F2"/>
<path d="M30 33.625C30.4973 33.625 30.9742 33.8225 31.3258 34.1742C31.6775 34.5258 31.875 35.0027 31.875 35.5C31.875 35.9973 31.6775 36.4742 31.3258 36.8258C30.9742 37.1775 30.4973 37.375 30 37.375C29.5027 37.375 29.0258 37.1775 28.6742 36.8258C28.3225 36.4742 28.125 35.9973 28.125 35.5C28.125 35.0027 28.3225 34.5258 28.6742 34.1742C29.0258 33.8225 29.5027 33.625 30 33.625ZM30 38.3125C32.0719 38.3125 33.75 39.1516 33.75 40.1875V41.125H26.25V40.1875C26.25 39.1516 27.9281 38.3125 30 38.3125Z" fill="#F2F2F2"/>
<path d="M30 33.625C30.4973 33.625 30.9742 33.8225 31.3258 34.1742C31.6775 34.5258 31.875 35.0027 31.875 35.5C31.875 35.9973 31.6775 36.4742 31.3258 36.8258C30.9742 37.1775 30.4973 37.375 30 37.375C29.5027 37.375 29.0258 37.1775 28.6742 36.8258C28.3225 36.4742 28.125 35.9973 28.125 35.5C28.125 35.0027 28.3225 34.5258 28.6742 34.1742C29.0258 33.8225 29.5027 33.625 30 33.625ZM30 38.3125C32.0719 38.3125 33.75 39.1516 33.75 40.1875V41.125H26.25V40.1875C26.25 39.1516 27.9281 38.3125 30 38.3125Z" fill="#F2F2F2"/>
<path d="M30 33.625C30.4973 33.625 30.9742 33.8225 31.3258 34.1742C31.6775 34.5258 31.875 35.0027 31.875 35.5C31.875 35.9973 31.6775 36.4742 31.3258 36.8258C30.9742 37.1775 30.4973 37.375 30 37.375C29.5027 37.375 29.0258 37.1775 28.6742 36.8258C28.3225 36.4742 28.125 35.9973 28.125 35.5C28.125 35.0027 28.3225 34.5258 28.6742 34.1742C29.0258 33.8225 29.5027 33.625 30 33.625ZM30 38.3125C32.0719 38.3125 33.75 39.1516 33.75 40.1875V41.125H26.25V40.1875C26.25 39.1516 27.9281 38.3125 30 38.3125Z" fill="#F2F2F2"/>
<path d="M30 33.625C30.4973 33.625 30.9742 33.8225 31.3258 34.1742C31.6775 34.5258 31.875 35.0027 31.875 35.5C31.875 35.9973 31.6775 36.4742 31.3258 36.8258C30.9742 37.1775 30.4973 37.375 30 37.375C29.5027 37.375 29.0258 37.1775 28.6742 36.8258C28.3225 36.4742 28.125 35.9973 28.125 35.5C28.125 35.0027 28.3225 34.5258 28.6742 34.1742C29.0258 33.8225 29.5027 33.625 30 33.625ZM30 38.3125C32.0719 38.3125 33.75 39.1516 33.75 40.1875V41.125H26.25V40.1875C26.25 39.1516 27.9281 38.3125 30 38.3125Z" fill="#F2F2F2"/>
<path d="M39.375 33.625C39.8723 33.625 40.3492 33.8225 40.7008 34.1742C41.0525 34.5258 41.25 35.0027 41.25 35.5C41.25 35.9973 41.0525 36.4742 40.7008 36.8258C40.3492 37.1775 39.8723 37.375 39.375 37.375C38.8777 37.375 38.4008 37.1775 38.0492 36.8258C37.6975 36.4742 37.5 35.9973 37.5 35.5C37.5 35.0027 37.6975 34.5258 38.0492 34.1742C38.4008 33.8225 38.8777 33.625 39.375 33.625ZM39.375 38.3125C41.4469 38.3125 43.125 39.1516 43.125 40.1875V41.125H35.625V40.1875C35.625 39.1516 37.3031 38.3125 39.375 38.3125Z" fill="#F2F2F2"/>
<path d="M39.375 33.625C39.8723 33.625 40.3492 33.8225 40.7008 34.1742C41.0525 34.5258 41.25 35.0027 41.25 35.5C41.25 35.9973 41.0525 36.4742 40.7008 36.8258C40.3492 37.1775 39.8723 37.375 39.375 37.375C38.8777 37.375 38.4008 37.1775 38.0492 36.8258C37.6975 36.4742 37.5 35.9973 37.5 35.5C37.5 35.0027 37.6975 34.5258 38.0492 34.1742C38.4008 33.8225 38.8777 33.625 39.375 33.625ZM39.375 38.3125C41.4469 38.3125 43.125 39.1516 43.125 40.1875V41.125H35.625V40.1875C35.625 39.1516 37.3031 38.3125 39.375 38.3125Z" fill="#F2F2F2"/>
<path d="M39.375 33.625C39.8723 33.625 40.3492 33.8225 40.7008 34.1742C41.0525 34.5258 41.25 35.0027 41.25 35.5C41.25 35.9973 41.0525 36.4742 40.7008 36.8258C40.3492 37.1775 39.8723 37.375 39.375 37.375C38.8777 37.375 38.4008 37.1775 38.0492 36.8258C37.6975 36.4742 37.5 35.9973 37.5 35.5C37.5 35.0027 37.6975 34.5258 38.0492 34.1742C38.4008 33.8225 38.8777 33.625 39.375 33.625ZM39.375 38.3125C41.4469 38.3125 43.125 39.1516 43.125 40.1875V41.125H35.625V40.1875C35.625 39.1516 37.3031 38.3125 39.375 38.3125Z" fill="#F2F2F2"/>
<path d="M39.375 33.625C39.8723 33.625 40.3492 33.8225 40.7008 34.1742C41.0525 34.5258 41.25 35.0027 41.25 35.5C41.25 35.9973 41.0525 36.4742 40.7008 36.8258C40.3492 37.1775 39.8723 37.375 39.375 37.375C38.8777 37.375 38.4008 37.1775 38.0492 36.8258C37.6975 36.4742 37.5 35.9973 37.5 35.5C37.5 35.0027 37.6975 34.5258 38.0492 34.1742C38.4008 33.8225 38.8777 33.625 39.375 33.625ZM39.375 38.3125C41.4469 38.3125 43.125 39.1516 43.125 40.1875V41.125H35.625V40.1875C35.625 39.1516 37.3031 38.3125 39.375 38.3125Z" fill="#F2F2F2"/>
<rect x="37.5" y="26.125" width="3.75" height="3.75" rx="0.5" fill="white"/>
</svg>