<!-- <svg width="54" height="54" viewBox="0 0 54 54" fill="none" xmlns="http://www.w3.org/2000/svg">
<g filter="url(#filter0_d)">
<circle cx="27" cy="25" r="20" fill="white"/>
</g>
<circle cx="38" cy="40" r="6.5" stroke="#339B31"/>
<circle cx="38" cy="40" r="5" fill="#62D05F"/>
<path d="M27.8262 23.9081C28.4892 23.9081 29.125 24.1954 29.5939 24.7068C30.0627 25.2182 30.3261 25.9119 30.3261 26.6351L30.3244 27.995C30.4961 31.3347 28.1378 33 23.7664 33C19.4099 32.9982 17 31.3565 17 28.0441V26.6351C17 25.9119 17.2634 25.2182 17.7322 24.7068C18.201 24.1954 18.8369 23.9081 19.4999 23.9081H27.8262ZM34.4925 23.9081C35.1556 23.9081 35.7914 24.1954 36.2602 24.7068C36.729 25.2182 36.9924 25.9119 36.9924 26.6351V27.5932C37.1424 30.5875 35.0592 32.0892 31.2527 32.0892C30.736 32.0892 30.2494 32.0619 29.7961 32.0074C30.2794 31.5201 30.641 30.9402 30.871 30.2657L31.2527 30.2712C34.2259 30.2712 35.4142 29.4149 35.3258 27.6423V26.6351C35.3258 26.394 35.238 26.1628 35.0818 25.9924C34.9255 25.8219 34.7135 25.7261 34.4925 25.7261H31.0544C30.8871 25.0219 30.5301 24.3886 30.0294 23.9081H34.4925ZM27.8262 25.7261H19.4999C19.2789 25.7261 19.0669 25.8219 18.9107 25.9924C18.7544 26.1628 18.6666 26.394 18.6666 26.6351V28.0441C18.6666 30.1257 20.2132 31.1802 23.7664 31.1802C27.3062 31.1802 28.7661 30.1493 28.6595 28.0441V26.6351C28.6595 26.394 28.5717 26.1628 28.4154 25.9924C28.2591 25.8219 28.0472 25.7261 27.8262 25.7261ZM23.6664 13C24.7714 13 25.8311 13.4789 26.6125 14.3312C27.3939 15.1836 27.8328 16.3396 27.8328 17.545C27.8328 18.7505 27.3939 19.9065 26.6125 20.7589C25.8311 21.6112 24.7714 22.0901 23.6664 22.0901C22.5613 22.0901 21.5016 21.6112 20.7202 20.7589C19.9389 19.9065 19.4999 18.7505 19.4999 17.545C19.4999 16.3396 19.9389 15.1836 20.7202 14.3312C21.5016 13.4789 22.5613 13 23.6664 13ZM31.9993 14.818C32.8833 14.818 33.7311 15.2011 34.3562 15.883C34.9813 16.5649 35.3325 17.4897 35.3325 18.454C35.3325 19.4184 34.9813 20.3432 34.3562 21.0251C33.7311 21.707 32.8833 22.0901 31.9993 22.0901C31.1153 22.0901 30.2675 21.707 29.6424 21.0251C29.0173 20.3432 28.6661 19.4184 28.6661 18.454C28.6661 17.4897 29.0173 16.5649 29.6424 15.883C30.2675 15.2011 31.1153 14.818 31.9993 14.818ZM23.6664 14.818C23.0034 14.818 22.3675 15.1053 21.8987 15.6167C21.4299 16.1282 21.1665 16.8218 21.1665 17.545C21.1665 18.2683 21.4299 18.9619 21.8987 19.4733C22.3675 19.9848 23.0034 20.2721 23.6664 20.2721C24.3294 20.2721 24.9652 19.9848 25.4341 19.4733C25.9029 18.9619 26.1663 18.2683 26.1663 17.545C26.1663 16.8218 25.9029 16.1282 25.4341 15.6167C24.9652 15.1053 24.3294 14.818 23.6664 14.818ZM31.9993 16.636C31.5573 16.636 31.1334 16.8276 30.8209 17.1685C30.5083 17.5095 30.3327 17.9719 30.3327 18.454C30.3327 18.9362 30.5083 19.3986 30.8209 19.7396C31.1334 20.0805 31.5573 20.2721 31.9993 20.2721C32.4413 20.2721 32.8652 20.0805 33.1778 19.7396C33.4903 19.3986 33.6659 18.9362 33.6659 18.454C33.6659 17.9719 33.4903 17.5095 33.1778 17.1685C32.8652 16.8276 32.4413 16.636 31.9993 16.636Z" fill="black"/>
<defs>
<filter id="filter0_d" x="0" y="0" width="54" height="54" filterUnits="userSpaceOnUse" color-interpolation-filters="sRGB">
<feFlood flood-opacity="0" result="BackgroundImageFix"/>
<feColorMatrix in="SourceAlpha" type="matrix" values="0 0 0 0 0 0 0 0 0 0 0 0 0 0 0 0 0 0 127 0"/>
<feOffset dy="2"/>
<feGaussianBlur stdDeviation="3.5"/>
<feColorMatrix type="matrix" values="0 0 0 0 0 0 0 0 0 0 0 0 0 0 0 0 0 0 0.2 0"/>
<feBlend mode="normal" in2="BackgroundImageFix" result="effect1_dropShadow"/>
<feBlend mode="normal" in="SourceGraphic" in2="effect1_dropShadow" result="shape"/>
</filter>
</defs>
</svg> -->
<svg xmlns="http://www.w3.org/2000/svg" width="60" height="60" viewBox="0 0 60 60" fill="none">
<circle cx="30" cy="30" r="30" fill="white"/>
<rect x="11" y="15" width="38" height="29" rx="2" fill="black"/>
<path d="M18.8217 30.6172C19.2663 30.6172 19.6927 30.7935 20.0071 31.1072C20.3215 31.421 20.4982 31.8465 20.4982 32.2903C20.4982 32.734 20.3215 33.1595 20.0071 33.4733C19.6927 33.7871 19.2663 33.9633 18.8217 33.9633C18.3771 33.9633 17.9506 33.7871 17.6362 33.4733C17.3218 33.1595 17.1452 32.734 17.1452 32.2903C17.1452 31.8465 17.3218 31.421 17.6362 31.1072C17.9506 30.7935 18.3771 30.6172 18.8217 30.6172ZM18.8217 34.7999C20.6742 34.7999 22.1746 35.5486 22.1746 36.473V37.3095H15.4688V36.473C15.4688 35.5486 16.9692 34.7999 18.8217 34.7999Z" fill="#F2F2F2"/>
<line x1="27.1484" y1="27.8828" x2="46.2661" y2="27.8828" stroke="#F2F2F2" stroke-linecap="round"/>
<line x1="33.8516" y1="23.4219" x2="46.2633" y2="23.4219" stroke="#F2F2F2" stroke-linecap="round"/>
<line x1="27.1484" y1="32.3438" x2="46.2661" y2="32.3438" stroke="#F2F2F2" stroke-linecap="round"/>
<line x1="27.1484" y1="36.8047" x2="46.2661" y2="36.8047" stroke="#F2F2F2" stroke-linecap="round"/>
<path d="M29.108 24.7037L29.0191 23.9899C28.9709 23.9713 28.9254 23.949 28.8827 23.923C28.84 23.8969 28.7983 23.869 28.7577 23.8393L28.096 24.1181L27.4844 23.0585L28.0571 22.6235C28.0534 22.5975 28.0515 22.5724 28.0515 22.5481V22.3978C28.0515 22.3735 28.0534 22.3484 28.0571 22.3224L27.4844 21.8874L28.096 20.8278L28.7577 21.1066C28.7985 21.0769 28.8411 21.049 28.8856 21.023C28.9301 20.9969 28.9746 20.9746 29.0191 20.956L29.108 20.2422H30.3313L30.4203 20.956C30.4685 20.9746 30.5139 20.9969 30.5566 21.023C30.5993 21.049 30.641 21.0769 30.6816 21.1066L31.3433 20.8278L31.955 21.8874L31.3822 22.3224C31.3859 22.3484 31.3878 22.3735 31.3878 22.3978V22.5481C31.3878 22.5724 31.3841 22.5975 31.3767 22.6235L31.9494 23.0585L31.3378 24.1181L30.6816 23.8393C30.6408 23.869 30.5982 23.8969 30.5537 23.923C30.5093 23.949 30.4648 23.9713 30.4203 23.9899L30.3313 24.7037H29.108ZM29.7308 23.2537C29.9458 23.2537 30.1293 23.1775 30.2813 23.0251C30.4333 22.8726 30.5093 22.6886 30.5093 22.473C30.5093 22.2573 30.4333 22.0733 30.2813 21.9208C30.1293 21.7684 29.9458 21.6922 29.7308 21.6922C29.5121 21.6922 29.3276 21.7684 29.1774 21.9208C29.0272 22.0733 28.9522 22.2573 28.9523 22.473C28.9523 22.6886 29.0274 22.8726 29.1774 23.0251C29.3275 23.1775 29.5119 23.2537 29.7308 23.2537Z" fill="#F2F2F2"/>
</svg>
