<svg xmlns="http://www.w3.org/2000/svg" width="100" height="80" viewBox="0 0 100 80" fill="none">
<rect width="100" height="80" rx="4" fill="white"/>
<path d="M28.5715 71C28.1815 71 27.8815 70.895 27.6715 70.685C27.4615 70.475 27.3565 70.175 27.3565 69.785V61.64C27.3565 61.25 27.4615 60.95 27.6715 60.74C27.8815 60.53 28.1815 60.425 28.5715 60.425H33.8065C34.1065 60.425 34.3315 60.505 34.4815 60.665C34.6415 60.815 34.7215 61.035 34.7215 61.325C34.7215 61.625 34.6415 61.855 34.4815 62.015C34.3315 62.165 34.1065 62.24 33.8065 62.24H29.5765V64.715H33.4615C33.7715 64.715 34.0015 64.795 34.1515 64.955C34.3115 65.105 34.3915 65.33 34.3915 65.63C34.3915 65.93 34.3115 66.16 34.1515 66.32C34.0015 66.47 33.7715 66.545 33.4615 66.545H29.5765V69.185H33.8065C34.1065 69.185 34.3315 69.265 34.4815 69.425C34.6415 69.575 34.7215 69.795 34.7215 70.085C34.7215 70.385 34.6415 70.615 34.4815 70.775C34.3315 70.925 34.1065 71 33.8065 71H28.5715ZM39.261 71.135C38.971 71.135 38.716 71.06 38.496 70.91C38.276 70.75 38.101 70.515 37.971 70.205L35.706 64.985C35.596 64.725 35.556 64.485 35.586 64.265C35.616 64.035 35.721 63.855 35.901 63.725C36.091 63.585 36.351 63.515 36.681 63.515C36.951 63.515 37.171 63.58 37.341 63.71C37.511 63.83 37.661 64.065 37.791 64.415L39.561 68.915H39.081L40.926 64.4C41.066 64.06 41.221 63.83 41.391 63.71C41.561 63.58 41.796 63.515 42.096 63.515C42.356 63.515 42.561 63.585 42.711 63.725C42.871 63.855 42.966 64.03 42.996 64.25C43.036 64.47 42.996 64.71 42.876 64.97L40.566 70.205C40.436 70.525 40.261 70.76 40.041 70.91C39.831 71.06 39.571 71.135 39.261 71.135ZM47.8029 71.165C46.9329 71.165 46.1829 71.01 45.5529 70.7C44.9329 70.38 44.4529 69.935 44.1129 69.365C43.7829 68.785 43.6179 68.105 43.6179 67.325C43.6179 66.565 43.7779 65.9 44.0979 65.33C44.4179 64.75 44.8629 64.3 45.4329 63.98C46.0129 63.65 46.6679 63.485 47.3979 63.485C47.9279 63.485 48.4079 63.575 48.8379 63.755C49.2679 63.925 49.6379 64.175 49.9479 64.505C50.2579 64.825 50.4929 65.22 50.6529 65.69C50.8129 66.15 50.8929 66.665 50.8929 67.235C50.8929 67.425 50.8329 67.57 50.7129 67.67C50.5929 67.76 50.4179 67.805 50.1879 67.805H45.4779V66.635H49.2579L49.0179 66.845C49.0179 66.435 48.9579 66.095 48.8379 65.825C48.7179 65.545 48.5429 65.335 48.3129 65.195C48.0929 65.055 47.8179 64.985 47.4879 64.985C47.1179 64.985 46.8029 65.07 46.5429 65.24C46.2829 65.41 46.0829 65.655 45.9429 65.975C45.8029 66.295 45.7329 66.68 45.7329 67.13V67.25C45.7329 68.01 45.9079 68.57 46.2579 68.93C46.6179 69.29 47.1479 69.47 47.8479 69.47C48.0879 69.47 48.3629 69.44 48.6729 69.38C48.9829 69.32 49.2729 69.225 49.5429 69.095C49.7729 68.985 49.9779 68.95 50.1579 68.99C50.3379 69.02 50.4779 69.1 50.5779 69.23C50.6779 69.36 50.7329 69.51 50.7429 69.68C50.7629 69.85 50.7279 70.02 50.6379 70.19C50.5479 70.35 50.3979 70.485 50.1879 70.595C49.8479 70.785 49.4629 70.925 49.0329 71.015C48.6129 71.115 48.2029 71.165 47.8029 71.165ZM53.3503 71.135C52.9803 71.135 52.6953 71.035 52.4953 70.835C52.3053 70.635 52.2103 70.35 52.2103 69.98V64.655C52.2103 64.285 52.3053 64.005 52.4953 63.815C52.6953 63.615 52.9703 63.515 53.3203 63.515C53.6803 63.515 53.9553 63.615 54.1453 63.815C54.3353 64.005 54.4303 64.285 54.4303 64.655V65.51L54.2653 65.015C54.4953 64.525 54.8353 64.15 55.2853 63.89C55.7453 63.62 56.2653 63.485 56.8453 63.485C57.4353 63.485 57.9203 63.6 58.3003 63.83C58.6803 64.05 58.9653 64.39 59.1553 64.85C59.3453 65.3 59.4403 65.875 59.4403 66.575V69.98C59.4403 70.35 59.3403 70.635 59.1403 70.835C58.9503 71.035 58.6703 71.135 58.3003 71.135C57.9403 71.135 57.6603 71.035 57.4603 70.835C57.2703 70.635 57.1753 70.35 57.1753 69.98V66.68C57.1753 66.17 57.0803 65.805 56.8903 65.585C56.7103 65.355 56.4303 65.24 56.0503 65.24C55.5703 65.24 55.1853 65.39 54.8953 65.69C54.6153 65.99 54.4753 66.39 54.4753 66.89V69.98C54.4753 70.75 54.1003 71.135 53.3503 71.135ZM64.7462 71.165C64.0562 71.165 63.4762 71.05 63.0062 70.82C62.5462 70.59 62.2012 70.255 61.9712 69.815C61.7512 69.375 61.6412 68.82 61.6412 68.15V65.33H61.0112C60.7312 65.33 60.5112 65.255 60.3512 65.105C60.2012 64.955 60.1262 64.75 60.1262 64.49C60.1262 64.21 60.2012 64 60.3512 63.86C60.5112 63.71 60.7312 63.635 61.0112 63.635H61.6412V62.495C61.6412 62.115 61.7412 61.83 61.9412 61.64C62.1412 61.44 62.4212 61.34 62.7812 61.34C63.1512 61.34 63.4312 61.44 63.6212 61.64C63.8112 61.83 63.9062 62.115 63.9062 62.495V63.635H65.3312C65.6112 63.635 65.8262 63.71 65.9762 63.86C66.1262 64 66.2012 64.21 66.2012 64.49C66.2012 64.75 66.1262 64.955 65.9762 65.105C65.8262 65.255 65.6112 65.33 65.3312 65.33H63.9062V68.06C63.9062 68.48 64.0012 68.795 64.1912 69.005C64.3912 69.215 64.7062 69.32 65.1362 69.32C65.2862 69.32 65.4262 69.305 65.5562 69.275C65.6862 69.245 65.8062 69.225 65.9162 69.215C66.0562 69.205 66.1712 69.25 66.2612 69.35C66.3512 69.44 66.3962 69.645 66.3962 69.965C66.3962 70.205 66.3562 70.415 66.2762 70.595C66.1962 70.775 66.0562 70.905 65.8562 70.985C65.7262 71.035 65.5462 71.075 65.3162 71.105C65.0962 71.145 64.9062 71.165 64.7462 71.165ZM70.0157 71.165C69.5757 71.165 69.1207 71.125 68.6507 71.045C68.1907 70.965 67.7707 70.83 67.3907 70.64C67.1907 70.54 67.0457 70.415 66.9557 70.265C66.8757 70.105 66.8407 69.945 66.8507 69.785C66.8607 69.625 66.9107 69.48 67.0007 69.35C67.1007 69.22 67.2257 69.135 67.3757 69.095C67.5357 69.045 67.7107 69.06 67.9007 69.14C68.3107 69.31 68.6857 69.43 69.0257 69.5C69.3657 69.57 69.7007 69.605 70.0307 69.605C70.4607 69.605 70.7707 69.54 70.9607 69.41C71.1607 69.27 71.2607 69.09 71.2607 68.87C71.2607 68.67 71.1957 68.52 71.0657 68.42C70.9357 68.32 70.7457 68.25 70.4957 68.21L68.9207 67.925C68.3007 67.815 67.8207 67.59 67.4807 67.25C67.1507 66.9 66.9857 66.455 66.9857 65.915C66.9857 65.415 67.1257 64.985 67.4057 64.625C67.6857 64.255 68.0707 63.975 68.5607 63.785C69.0607 63.585 69.6257 63.485 70.2557 63.485C70.7057 63.485 71.1207 63.525 71.5007 63.605C71.8807 63.685 72.2457 63.815 72.5957 63.995C72.7757 64.085 72.9007 64.205 72.9707 64.355C73.0507 64.505 73.0757 64.66 73.0457 64.82C73.0257 64.98 72.9657 65.125 72.8657 65.255C72.7657 65.385 72.6357 65.47 72.4757 65.51C72.3257 65.55 72.1507 65.53 71.9507 65.45C71.6307 65.3 71.3357 65.195 71.0657 65.135C70.7957 65.065 70.5357 65.03 70.2857 65.03C69.8357 65.03 69.5107 65.105 69.3107 65.255C69.1107 65.395 69.0107 65.575 69.0107 65.795C69.0107 65.965 69.0657 66.11 69.1757 66.23C69.2957 66.34 69.4757 66.415 69.7157 66.455L71.2907 66.74C71.9407 66.85 72.4357 67.07 72.7757 67.4C73.1157 67.72 73.2857 68.16 73.2857 68.72C73.2857 69.48 72.9857 70.08 72.3857 70.52C71.7957 70.95 71.0057 71.165 70.0157 71.165Z" fill="black"/>
<path d="M40.5 17.1875C40.5 16.8726 40.3749 16.5705 40.1522 16.3478C39.9295 16.1251 39.6274 16 39.3125 16C38.9976 16 38.6955 16.1251 38.4728 16.3478C38.2501 16.5705 38.125 16.8726 38.125 17.1875V18.375H35.75C34.4902 18.375 33.282 18.8754 32.3912 19.7662C31.5004 20.657 31 21.8652 31 23.125V25.5H69V23.125C69 21.8652 68.4996 20.657 67.6088 19.7662C66.718 18.8754 65.5098 18.375 64.25 18.375H61.875V17.1875C61.875 16.8726 61.7499 16.5705 61.5272 16.3478C61.3045 16.1251 61.0024 16 60.6875 16C60.3726 16 60.0705 16.1251 59.8478 16.3478C59.6251 16.5705 59.5 16.8726 59.5 17.1875V18.375H40.5V17.1875ZM69 49.25V27.875H31V49.25C31 50.5098 31.5004 51.718 32.3912 52.6088C33.282 53.4996 34.4902 54 35.75 54H64.25C65.5098 54 66.718 53.4996 67.6088 52.6088C68.4996 51.718 69 50.5098 69 49.25ZM60.6875 32.625H63.0625C63.3774 32.625 63.6795 32.7501 63.9022 32.9728C64.1249 33.1955 64.25 33.4976 64.25 33.8125V36.1875C64.25 36.5024 64.1249 36.8045 63.9022 37.0272C63.6795 37.2499 63.3774 37.375 63.0625 37.375H60.6875C60.3726 37.375 60.0705 37.2499 59.8478 37.0272C59.6251 36.8045 59.5 36.5024 59.5 36.1875V33.8125C59.5 33.4976 59.6251 33.1955 59.8478 32.9728C60.0705 32.7501 60.3726 32.625 60.6875 32.625Z" fill="black"/>
<path d="M47.48 38.5L50 33L52.5 38.5L58 41L52.5 43.52L50 49L47.48 43.52L42 41L47.48 38.5Z" fill="white"/>
<rect x="58" y="31" width="8" height="8" fill="black"/>
</svg>