<svg xmlns="http://www.w3.org/2000/svg" width="62" height="62" viewBox="0 0 62 62" fill="none">
<rect width="62" height="62" rx="4" fill="white"/>
<path d="M21.5 13.1875C21.5 12.8726 21.3749 12.5705 21.1522 12.3478C20.9295 12.1251 20.6274 12 20.3125 12C19.9976 12 19.6955 12.1251 19.4728 12.3478C19.2501 12.5705 19.125 12.8726 19.125 13.1875V14.375H16.75C15.4902 14.375 14.282 14.8754 13.3912 15.7662C12.5004 16.657 12 17.8652 12 19.125L12 21.5H50V19.125C50 17.8652 49.4996 16.657 48.6088 15.7662C47.718 14.8754 46.5098 14.375 45.25 14.375H42.875V13.1875C42.875 12.8726 42.7499 12.5705 42.5272 12.3478C42.3045 12.1251 42.0024 12 41.6875 12C41.3726 12 41.0705 12.1251 40.8478 12.3478C40.6251 12.5705 40.5 12.8726 40.5 13.1875V14.375H21.5V13.1875ZM50 45.25V23.875H12V45.25C12 46.5098 12.5004 47.718 13.3912 48.6088C14.282 49.4996 15.4902 50 16.75 50H45.25C46.5098 50 47.718 49.4996 48.6088 48.6088C49.4996 47.718 50 46.5098 50 45.25ZM41.6875 28.625H44.0625C44.3774 28.625 44.6795 28.7501 44.9022 28.9728C45.1249 29.1955 45.25 29.4976 45.25 29.8125V32.1875C45.25 32.5024 45.1249 32.8045 44.9022 33.0272C44.6795 33.2499 44.3774 33.375 44.0625 33.375H41.6875C41.3726 33.375 41.0705 33.2499 40.8478 33.0272C40.6251 32.8045 40.5 32.5024 40.5 32.1875V29.8125C40.5 29.4976 40.6251 29.1955 40.8478 28.9728C41.0705 28.7501 41.3726 28.625 41.6875 28.625Z" fill="black"/>
<path d="M28.48 34.5L31 29L33.5 34.5L39 37L33.5 39.52L31 45L28.48 39.52L23 37L28.48 34.5Z" fill="white"/>
<rect x="39" y="27" width="8" height="8" fill="black"/>
</svg>