<svg xmlns="http://www.w3.org/2000/svg" width="39" height="43" viewBox="0 0 39 43" fill="none">
<mask id="mask0_7597_10839" style="mask-type:luminance" maskUnits="userSpaceOnUse" x="0" y="0" width="39" height="43">
<path d="M19.4469 35.85V23.55V3.05V1M3.04688 37.9H29.6969L35.8469 31.75M10.2219 37.9V42M27.6469 37.9V42" stroke="white" stroke-width="1.66667" stroke-linecap="round" stroke-linejoin="round"/>
<path d="M19.45 3.05469C9.26048 3.05469 1 11.2895 1 21.4473V23.5547C1 21.0147 3.06538 18.4297 5.6125 18.4297C8.15963 18.4297 10.225 21.0147 10.225 23.5547C10.225 21.0147 12.2904 18.4297 14.8375 18.4297C17.3846 18.4297 19.45 21.0147 19.45 23.5547C19.45 21.0147 21.5154 18.4297 24.0625 18.4297C26.6096 18.4297 28.675 21.0147 28.675 23.5547C28.675 21.0147 30.7404 18.4297 33.2875 18.4297C35.8346 18.4297 37.9 21.0147 37.9 23.5547V21.4473C37.9 11.2895 29.6395 3.05469 19.45 3.05469Z" fill="#555555" stroke="white" stroke-width="1.66667" stroke-linecap="round" stroke-linejoin="round"/>
<path d="M10.2231 23.5547C10.2231 23.5547 8.68556 17.9172 11.2481 12.2797C13.8116 6.64219 19.4481 3.05469 19.4481 3.05469M19.4481 3.05469C19.4481 3.05469 24.0606 5.61719 26.6231 12.2797C29.1856 18.9422 28.6731 23.5547 28.6731 23.5547M19.4481 3.05469V22.5297" stroke="white" stroke-width="1.66667" stroke-linecap="round" stroke-linejoin="round"/>
<path d="M33.2883 18.4297C30.7412 18.4297 28.6758 21.0147 28.6758 23.5547C28.6758 21.0147 26.6104 18.4297 24.0633 18.4297C21.5162 18.4297 19.4508 21.0147 19.4508 23.5547C19.4508 21.0147 17.3854 18.4297 14.8383 18.4297C12.2912 18.4297 10.2258 21.0147 10.2258 23.5547C10.2258 21.0147 8.16041 18.4297 5.61328 18.4297M10.9771 5.10469C13.516 3.79474 16.3963 3.05469 19.4508 3.05469C22.5053 3.05469 25.3855 3.79474 27.9234 5.10469" stroke="white" stroke-width="1.66667" stroke-linecap="round" stroke-linejoin="round"/>
</mask>
<g mask="url(#mask0_7597_10839)">
<path d="M-5.14844 -3.09375H44.0516V46.1063H-5.14844V-3.09375Z" fill="black"/>
</g>
</svg>