<svg xmlns="http://www.w3.org/2000/svg" width="329" height="34" viewBox="0 0 329 34" fill="none">
<path d="M1.66359 26.1113L2.85359 20.0913H0.228594V17.2913H3.37859L4.88359 9.97633H0.998594V7.14133H5.44359L6.59859 1.43633H9.64359L8.48859 7.14133H13.0036L14.1586 1.43633H17.2036L16.0486 7.14133H18.6386V9.97633H15.4536L13.9836 17.2913H17.9036V20.0913H13.4236L12.2336 26.1113H9.15359L10.3786 20.0913H5.89859L4.74359 26.1113H1.66359ZM6.45859 17.2913H10.9386L12.4086 9.97633H7.92859L6.45859 17.2913ZM23.0499 26.1113V1.43633H33.8649C36.5483 1.43633 38.6133 2.00799 40.0599 3.15133C41.5066 4.27133 42.2299 5.83466 42.2299 7.84133C42.2299 9.33466 41.7866 10.5947 40.8999 11.6213C40.0133 12.648 38.7883 13.3363 37.2249 13.6863V13.1613C39.0216 13.418 40.4099 14.0713 41.3899 15.1213C42.3933 16.148 42.8949 17.513 42.8949 19.2163C42.8949 21.4097 42.1366 23.113 40.6199 24.3263C39.1033 25.5163 36.9916 26.1113 34.2849 26.1113H23.0499ZM27.3899 22.6813H33.7599C35.2766 22.6813 36.4549 22.4013 37.2949 21.8413C38.1349 21.258 38.5549 20.313 38.5549 19.0063C38.5549 17.6763 38.1349 16.7313 37.2949 16.1713C36.4549 15.588 35.2766 15.2963 33.7599 15.2963H27.3899V22.6813ZM27.3899 11.9013H33.0949C34.7049 11.9013 35.8949 11.6097 36.6649 11.0263C37.4583 10.4197 37.8549 9.53299 37.8549 8.36633C37.8549 7.19966 37.4583 6.32466 36.6649 5.74133C35.8949 5.13466 34.7049 4.83133 33.0949 4.83133H27.3899V11.9013ZM55.805 26.4613C52.8416 26.4613 50.52 25.6447 48.84 24.0113C47.16 22.378 46.32 20.138 46.32 17.2913C46.32 15.448 46.6816 13.838 47.405 12.4613C48.1283 11.0847 49.1316 10.0113 50.415 9.24133C51.7216 8.47133 53.2383 8.08633 54.965 8.08633C56.6683 8.08633 58.0916 8.44799 59.235 9.17133C60.3783 9.89466 61.2416 10.9097 61.825 12.2163C62.4316 13.523 62.735 15.0513 62.735 16.8013V17.9563H49.855V15.6463H59.62L59.025 16.1363C59.025 14.503 58.675 13.2547 57.975 12.3913C57.2983 11.528 56.3066 11.0963 55 11.0963C53.5533 11.0963 52.4333 11.6097 51.64 12.6363C50.87 13.663 50.485 15.098 50.485 16.9413V17.3963C50.485 19.3097 50.9516 20.7447 51.885 21.7013C52.8416 22.6347 54.1833 23.1013 55.91 23.1013C56.9133 23.1013 57.8466 22.973 58.71 22.7163C59.5966 22.4363 60.4366 21.993 61.23 21.3863L62.525 24.3263C61.685 25.003 60.6816 25.528 59.515 25.9013C58.3483 26.2747 57.1116 26.4613 55.805 26.4613ZM64.4598 26.1113L75.6248 1.43633H79.4048L90.7098 26.1113H86.1248L83.1148 19.1813L84.9348 20.4063H70.1298L72.0198 19.1813L69.0098 26.1113H64.4598ZM77.4798 6.26633L72.5448 17.9563L71.6348 16.8713H83.3948L82.6598 17.9563L77.6198 6.26633H77.4798ZM104.807 26.4613C102.24 26.4613 100.035 25.948 98.1921 24.9213C96.3721 23.8713 94.9721 22.4013 93.9921 20.5113C93.0121 18.598 92.5221 16.3463 92.5221 13.7563C92.5221 11.1663 93.0121 8.92633 93.9921 7.03633C94.9721 5.14633 96.3721 3.68799 98.1921 2.66133C100.035 1.61133 102.24 1.08633 104.807 1.08633C106.534 1.08633 108.085 1.33133 109.462 1.82133C110.862 2.31133 112.064 3.03466 113.067 3.99133L111.597 7.56133C110.5 6.67466 109.439 6.04466 108.412 5.67133C107.409 5.27466 106.254 5.07633 104.947 5.07633C102.45 5.07633 100.537 5.83466 99.2071 7.35133C97.9004 8.84466 97.2471 10.9797 97.2471 13.7563C97.2471 16.533 97.9004 18.6797 99.2071 20.1963C100.537 21.713 102.45 22.4713 104.947 22.4713C106.254 22.4713 107.409 22.2847 108.412 21.9113C109.439 21.5147 110.5 20.8613 111.597 19.9513L113.067 23.5213C112.064 24.4547 110.862 25.178 109.462 25.6913C108.085 26.2047 106.534 26.4613 104.807 26.4613ZM117.337 26.1113V0.351326H121.712V11.9713H121.222C121.759 10.7113 122.587 9.75466 123.707 9.10133C124.827 8.42466 126.11 8.08633 127.557 8.08633C129.657 8.08633 131.22 8.68133 132.247 9.87133C133.274 11.038 133.787 12.823 133.787 15.2263V26.1113H129.412V15.4363C129.412 14.0597 129.144 13.068 128.607 12.4613C128.094 11.8313 127.265 11.5163 126.122 11.5163C124.792 11.5163 123.719 11.9363 122.902 12.7763C122.109 13.593 121.712 14.6897 121.712 16.0663V26.1113H117.337ZM145.651 26.4613C144.111 26.4613 142.758 26.0997 141.591 25.3763C140.424 24.6297 139.514 23.568 138.861 22.1913C138.208 20.8147 137.881 19.1697 137.881 17.2563C137.881 15.343 138.208 13.7097 138.861 12.3563C139.514 10.9797 140.424 9.92966 141.591 9.20633C142.758 8.45966 144.111 8.08633 145.651 8.08633C147.144 8.08633 148.451 8.45966 149.571 9.20633C150.714 9.92966 151.473 10.9097 151.846 12.1463H151.461L151.846 8.43633H156.046C155.976 9.15966 155.906 9.89466 155.836 10.6413C155.789 11.388 155.766 12.123 155.766 12.8463V26.1113H151.426L151.391 22.4713H151.811C151.438 23.6847 150.679 24.653 149.536 25.3763C148.393 26.0997 147.098 26.4613 145.651 26.4613ZM146.876 23.1013C148.253 23.1013 149.361 22.623 150.201 21.6663C151.041 20.6863 151.461 19.2163 151.461 17.2563C151.461 15.2963 151.041 13.838 150.201 12.8813C149.361 11.9247 148.253 11.4463 146.876 11.4463C145.499 11.4463 144.391 11.9247 143.551 12.8813C142.711 13.838 142.291 15.2963 142.291 17.2563C142.291 19.2163 142.699 20.6863 143.516 21.6663C144.356 22.623 145.476 23.1013 146.876 23.1013ZM160.93 26.1113V12.8463C160.93 12.123 160.907 11.388 160.86 10.6413C160.813 9.89466 160.743 9.15966 160.65 8.43633H164.885L165.235 11.9363H164.815C165.375 10.6997 166.203 9.75466 167.3 9.10133C168.397 8.42466 169.668 8.08633 171.115 8.08633C173.192 8.08633 174.755 8.66966 175.805 9.83633C176.855 11.003 177.38 12.823 177.38 15.2963V26.1113H173.005V15.5063C173.005 14.083 172.725 13.068 172.165 12.4613C171.628 11.8313 170.812 11.5163 169.715 11.5163C168.362 11.5163 167.288 11.9363 166.495 12.7763C165.702 13.6163 165.305 14.7363 165.305 16.1363V26.1113H160.93ZM190.609 33.9513C188.976 33.9513 187.494 33.7763 186.164 33.4263C184.857 33.0763 183.691 32.5397 182.664 31.8163L183.609 28.6663C184.286 29.1097 184.986 29.4713 185.709 29.7513C186.432 30.0313 187.179 30.2413 187.949 30.3813C188.719 30.5213 189.501 30.5913 190.294 30.5913C191.927 30.5913 193.141 30.183 193.934 29.3663C194.751 28.573 195.159 27.4297 195.159 25.9363V21.7013H195.509C195.136 22.9147 194.377 23.883 193.234 24.6063C192.114 25.3297 190.819 25.6913 189.349 25.6913C187.762 25.6913 186.374 25.3413 185.184 24.6413C184.017 23.918 183.107 22.8913 182.454 21.5613C181.801 20.2313 181.474 18.668 181.474 16.8713C181.474 15.0747 181.801 13.523 182.454 12.2163C183.107 10.8863 184.017 9.87133 185.184 9.17133C186.374 8.44799 187.762 8.08633 189.349 8.08633C190.842 8.08633 192.137 8.44799 193.234 9.17133C194.354 9.87133 195.101 10.828 195.474 12.0413L195.159 11.8313L195.509 8.43633H199.744C199.651 9.15966 199.581 9.89466 199.534 10.6413C199.487 11.388 199.464 12.123 199.464 12.8463V25.4113C199.464 28.188 198.706 30.2997 197.189 31.7463C195.696 33.2163 193.502 33.9513 190.609 33.9513ZM190.539 22.3313C191.939 22.3313 193.047 21.8647 193.864 20.9313C194.704 19.9747 195.124 18.6213 195.124 16.8713C195.124 15.1213 194.704 13.7797 193.864 12.8463C193.047 11.913 191.939 11.4463 190.539 11.4463C189.116 11.4463 187.984 11.913 187.144 12.8463C186.304 13.7797 185.884 15.1213 185.884 16.8713C185.884 18.6213 186.304 19.9747 187.144 20.9313C187.984 21.8647 189.116 22.3313 190.539 22.3313ZM213.131 26.4613C210.168 26.4613 207.846 25.6447 206.166 24.0113C204.486 22.378 203.646 20.138 203.646 17.2913C203.646 15.448 204.008 13.838 204.731 12.4613C205.455 11.0847 206.458 10.0113 207.741 9.24133C209.048 8.47133 210.565 8.08633 212.291 8.08633C213.995 8.08633 215.418 8.44799 216.561 9.17133C217.705 9.89466 218.568 10.9097 219.151 12.2163C219.758 13.523 220.061 15.0513 220.061 16.8013V17.9563H207.181V15.6463H216.946L216.351 16.1363C216.351 14.503 216.001 13.2547 215.301 12.3913C214.625 11.528 213.633 11.0963 212.326 11.0963C210.88 11.0963 209.76 11.6097 208.966 12.6363C208.196 13.663 207.811 15.098 207.811 16.9413V17.3963C207.811 19.3097 208.278 20.7447 209.211 21.7013C210.168 22.6347 211.51 23.1013 213.236 23.1013C214.24 23.1013 215.173 22.973 216.036 22.7163C216.923 22.4363 217.763 21.993 218.556 21.3863L219.851 24.3263C219.011 25.003 218.008 25.528 216.841 25.9013C215.675 26.2747 214.438 26.4613 213.131 26.4613ZM224.166 26.1113V12.8463C224.166 12.123 224.143 11.388 224.096 10.6413C224.049 9.89466 223.979 9.15966 223.886 8.43633H228.121L228.471 11.9363H228.051C228.541 10.723 229.288 9.77799 230.291 9.10133C231.318 8.42466 232.531 8.08633 233.931 8.08633C235.331 8.08633 236.486 8.42466 237.396 9.10133C238.329 9.75466 238.983 10.7813 239.356 12.1813H238.796C239.286 10.9213 240.091 9.92966 241.211 9.20633C242.331 8.45966 243.614 8.08633 245.061 8.08633C247.044 8.08633 248.526 8.66966 249.506 9.83633C250.486 11.003 250.976 12.823 250.976 15.2963V26.1113H246.601V15.4713C246.601 14.0713 246.368 13.068 245.901 12.4613C245.434 11.8313 244.688 11.5163 243.661 11.5163C242.448 11.5163 241.491 11.948 240.791 12.8113C240.091 13.6513 239.741 14.7947 239.741 16.2413V26.1113H235.366V15.4713C235.366 14.0713 235.133 13.068 234.666 12.4613C234.199 11.8313 233.453 11.5163 232.426 11.5163C231.213 11.5163 230.256 11.948 229.556 12.8113C228.879 13.6513 228.541 14.7947 228.541 16.2413V26.1113H224.166ZM262.871 26.4613C261.331 26.4613 259.977 26.0997 258.811 25.3763C257.644 24.6297 256.734 23.568 256.081 22.1913C255.427 20.8147 255.101 19.1697 255.101 17.2563C255.101 15.343 255.427 13.7097 256.081 12.3563C256.734 10.9797 257.644 9.92966 258.811 9.20633C259.977 8.45966 261.331 8.08633 262.871 8.08633C264.364 8.08633 265.671 8.45966 266.791 9.20633C267.934 9.92966 268.692 10.9097 269.066 12.1463H268.681L269.066 8.43633H273.266C273.196 9.15966 273.126 9.89466 273.056 10.6413C273.009 11.388 272.986 12.123 272.986 12.8463V26.1113H268.646L268.611 22.4713H269.031C268.657 23.6847 267.899 24.653 266.756 25.3763C265.612 26.0997 264.317 26.4613 262.871 26.4613ZM264.096 23.1013C265.472 23.1013 266.581 22.623 267.421 21.6663C268.261 20.6863 268.681 19.2163 268.681 17.2563C268.681 15.2963 268.261 13.838 267.421 12.8813C266.581 11.9247 265.472 11.4463 264.096 11.4463C262.719 11.4463 261.611 11.9247 260.771 12.8813C259.931 13.838 259.511 15.2963 259.511 17.2563C259.511 19.2163 259.919 20.6863 260.736 21.6663C261.576 22.623 262.696 23.1013 264.096 23.1013ZM278.15 26.1113V0.351326H282.525V15.9613H282.595L289.77 8.43633H295.055L286.13 17.7813L286.165 16.0313L295.685 26.1113H290.26L282.595 18.2013H282.525V26.1113H278.15ZM306.059 26.4613C303.096 26.4613 300.774 25.6447 299.094 24.0113C297.414 22.378 296.574 20.138 296.574 17.2913C296.574 15.448 296.936 13.838 297.659 12.4613C298.383 11.0847 299.386 10.0113 300.669 9.24133C301.976 8.47133 303.493 8.08633 305.219 8.08633C306.923 8.08633 308.346 8.44799 309.489 9.17133C310.633 9.89466 311.496 10.9097 312.079 12.2163C312.686 13.523 312.989 15.0513 312.989 16.8013V17.9563H300.109V15.6463H309.874L309.279 16.1363C309.279 14.503 308.929 13.2547 308.229 12.3913C307.553 11.528 306.561 11.0963 305.254 11.0963C303.808 11.0963 302.688 11.6097 301.894 12.6363C301.124 13.663 300.739 15.098 300.739 16.9413V17.3963C300.739 19.3097 301.206 20.7447 302.139 21.7013C303.096 22.6347 304.438 23.1013 306.164 23.1013C307.168 23.1013 308.101 22.973 308.964 22.7163C309.851 22.4363 310.691 21.993 311.484 21.3863L312.779 24.3263C311.939 25.003 310.936 25.528 309.769 25.9013C308.603 26.2747 307.366 26.4613 306.059 26.4613ZM317.059 26.1113V12.9513C317.059 12.2047 317.036 11.4463 316.989 10.6763C316.966 9.90633 316.908 9.15966 316.814 8.43633H321.049L321.539 13.2663H320.839C321.073 12.0997 321.458 11.1313 321.994 10.3613C322.554 9.59133 323.231 9.01966 324.024 8.64633C324.818 8.27299 325.681 8.08633 326.614 8.08633C327.034 8.08633 327.373 8.10966 327.629 8.15633C327.886 8.17966 328.143 8.23799 328.399 8.33133L328.364 12.1813C327.921 11.9947 327.536 11.878 327.209 11.8313C326.906 11.7847 326.521 11.7613 326.054 11.7613C325.051 11.7613 324.199 11.9713 323.499 12.3913C322.823 12.8113 322.309 13.3947 321.959 14.1413C321.633 14.888 321.469 15.7397 321.469 16.6963V26.1113H317.059Z" fill="white"/>
</svg>
