<svg xmlns="http://www.w3.org/2000/svg" width="22" height="22" viewBox="0 0 22 22" fill="none">
<path d="M18.4794 17.3005C18.1516 17.3046 17.8386 17.4383 17.609 17.6723C17.3793 17.9063 17.2515 18.2217 17.2536 18.5496C17.2556 18.8775 17.3873 19.1912 17.6199 19.4223C17.8525 19.6535 18.1671 19.7832 18.495 19.7832C18.8228 19.7832 19.1374 19.6535 19.37 19.4223C19.6026 19.1912 19.7343 18.8775 19.7363 18.5496C19.7384 18.2217 19.6106 17.9063 19.3809 17.6723C19.1513 17.4383 18.8383 17.3046 18.5105 17.3005M2.96219 1.7832C2.63433 1.7873 2.3214 1.92095 2.09173 2.15497C1.86206 2.38899 1.7343 2.70437 1.73635 3.03225C1.7384 3.36014 1.87009 3.67389 2.10267 3.90502C2.33524 4.13615 2.64982 4.26588 2.97771 4.26588C3.3056 4.26588 3.62017 4.13615 3.85275 3.90502C4.08532 3.67389 4.21701 3.36014 4.21906 3.03225C4.22111 2.70437 4.09336 2.38899 3.86369 2.15497C3.63402 1.92095 3.32109 1.7873 2.99323 1.7832H2.96219ZM10.7208 1.7832C10.3929 1.7873 10.08 1.92095 9.85035 2.15497C9.62068 2.38899 9.49292 2.70437 9.49497 3.03225C9.49702 3.36014 9.62871 3.67389 9.86129 3.90502C10.0939 4.13615 10.4084 4.26588 10.7363 4.26588C11.0642 4.26588 11.3788 4.13615 11.6114 3.90502C11.8439 3.67389 11.9756 3.36014 11.9777 3.03225C11.9797 2.70437 11.852 2.38899 11.6223 2.15497C11.3926 1.92095 11.0797 1.7873 10.7518 1.7832H10.7208ZM18.4794 1.7832C18.1516 1.7873 17.8386 1.92095 17.609 2.15497C17.3793 2.38899 17.2515 2.70437 17.2536 3.03225C17.2556 3.36014 17.3873 3.67389 17.6199 3.90502C17.8525 4.13615 18.1671 4.26588 18.495 4.26588C18.8228 4.26588 19.1374 4.13615 19.37 3.90502C19.6026 3.67389 19.7343 3.36014 19.7363 3.03225C19.7384 2.70437 19.6106 2.38899 19.3809 2.15497C19.1513 1.92095 18.8383 1.7873 18.5105 1.7832H18.4794ZM2.96219 9.54187C2.63433 9.54596 2.3214 9.67961 2.09173 9.91363C1.86206 10.1476 1.7343 10.463 1.73635 10.7909C1.7384 11.1188 1.87009 11.4326 2.10267 11.6637C2.33524 11.8948 2.64982 12.0245 2.97771 12.0245C3.3056 12.0245 3.62017 11.8948 3.85275 11.6637C4.08532 11.4326 4.21701 11.1188 4.21906 10.7909C4.22111 10.463 4.09336 10.1476 3.86369 9.91363C3.63402 9.67961 3.32109 9.54596 2.99323 9.54187H2.96219ZM10.7208 9.54187C10.3929 9.54596 10.08 9.67961 9.85035 9.91363C9.62068 10.1476 9.49292 10.463 9.49497 10.7909C9.49702 11.1188 9.62871 11.4326 9.86129 11.6637C10.0939 11.8948 10.4084 12.0245 10.7363 12.0245C11.0642 12.0245 11.3788 11.8948 11.6114 11.6637C11.8439 11.4326 11.9756 11.1188 11.9777 10.7909C11.9797 10.463 11.852 10.1476 11.6223 9.91363C11.3926 9.67961 11.0797 9.54596 10.7518 9.54187H10.7208ZM18.4794 9.54187C18.1516 9.54596 17.8386 9.67961 17.609 9.91363C17.3793 10.1476 17.2515 10.463 17.2536 10.7909C17.2556 11.1188 17.3873 11.4326 17.6199 11.6637C17.8525 11.8948 18.1671 12.0245 18.495 12.0245C18.8228 12.0245 19.1374 11.8948 19.37 11.6637C19.6026 11.4326 19.7343 11.1188 19.7363 10.7909C19.7384 10.463 19.6106 10.1476 19.3809 9.91363C19.1513 9.67961 18.8383 9.54596 18.5105 9.54187H18.4794ZM2.96219 17.3005C2.63433 17.3046 2.3214 17.4383 2.09173 17.6723C1.86206 17.9063 1.7343 18.2217 1.73635 18.5496C1.7384 18.8775 1.87009 19.1912 2.10267 19.4223C2.33524 19.6535 2.64982 19.7832 2.97771 19.7832C3.3056 19.7832 3.62017 19.6535 3.85275 19.4223C4.08532 19.1912 4.21701 18.8775 4.21906 18.5496C4.22111 18.2217 4.09336 17.9063 3.86369 17.6723C3.63402 17.4383 3.32109 17.3046 2.99323 17.3005H2.96219ZM10.7208 17.3005C10.3929 17.3046 10.08 17.4383 9.85035 17.6723C9.62068 17.9063 9.49292 18.2217 9.49497 18.5496C9.49702 18.8775 9.62871 19.1912 9.86129 19.4223C10.0939 19.6535 10.4084 19.7832 10.7363 19.7832C11.0642 19.7832 11.3788 19.6535 11.6114 19.4223C11.8439 19.1912 11.9756 18.8775 11.9777 18.5496C11.9797 18.2217 11.852 17.9063 11.6223 17.6723C11.3926 17.4383 11.0797 17.3046 10.7518 17.3005H10.7208Z" stroke="white" stroke-width="2.68281" stroke-linecap="round"/>
</svg>