<svg xmlns="http://www.w3.org/2000/svg" width="28" height="16" viewBox="0 0 28 16" fill="none">
<path d="M2.13086 3.26758H20.1309C20.9589 3.26758 21.6309 2.59558 21.6309 1.76758C21.6309 0.939578 20.9589 0.267578 20.1309 0.267578H2.13086C1.30286 0.267578 0.630859 0.939578 0.630859 1.76758C0.630859 2.59558 1.30286 3.26758 2.13086 3.26758ZM20.1309 6.26758H2.13086C1.30286 6.26758 0.630859 6.93958 0.630859 7.76758C0.630859 8.59558 1.30286 9.26758 2.13086 9.26758H20.1309C20.9589 9.26758 21.6309 8.59558 21.6309 7.76758C21.6309 6.93958 20.9589 6.26758 20.1309 6.26758ZM20.1309 12.2676H2.13086C1.30286 12.2676 0.630859 12.9396 0.630859 13.7676C0.630859 14.5956 1.30286 15.2676 2.13086 15.2676H20.1309C20.9589 15.2676 21.6309 14.5956 21.6309 13.7676C21.6309 12.9396 20.9589 12.2676 20.1309 12.2676Z" fill="white"/>
<path d="M11.1309 7.76758H25.9531" stroke="white" stroke-width="3" stroke-linecap="round"/>
</svg>
