<svg xmlns="http://www.w3.org/2000/svg" width="25" height="27" viewBox="0 0 25 27" fill="none">
<path d="M19.9291 8.98415C19.9291 7.07434 19.1705 5.24275 17.82 3.89231C16.4696 2.54187 14.638 1.7832 12.7282 1.7832C10.8184 1.7832 8.98678 2.54187 7.63634 3.89231C6.2859 5.24275 5.52723 7.07434 5.52723 8.98415C5.52723 17.3852 1.92676 19.7856 1.92676 19.7856H23.5296C23.5296 19.7856 19.9291 17.3852 19.9291 8.98415Z" stroke="white" stroke-width="2" stroke-linecap="round" stroke-linejoin="round"/>
<path d="M14.8039 24.5879C14.5929 24.9516 14.2901 25.2536 13.9257 25.4634C13.5613 25.6733 13.1481 25.7838 12.7276 25.7838C12.3071 25.7838 11.894 25.6733 11.5296 25.4634C11.1652 25.2536 10.8624 24.9516 10.6514 24.5879" stroke="white" stroke-width="2" stroke-linecap="round" stroke-linejoin="round"/>
</svg>