<svg xmlns="http://www.w3.org/2000/svg" width="50" height="51" viewBox="0 0 50 51" fill="none">
<path d="M15.0881 18.1521C17.1566 18.1521 19.2252 18.1521 21.2805 18.1521C21.4452 18.1354 21.6111 18.1696 21.7558 18.2501C21.9004 18.3305 22.0169 18.4533 22.0893 18.6019L25.033 23.6159C25.0993 23.7217 25.1258 23.8672 25.2717 23.8805C25.4175 23.8937 25.4573 23.7349 25.5236 23.6291C26.5049 21.9357 27.4817 20.2335 28.4541 18.5225C28.5187 18.4006 28.6199 18.3019 28.7436 18.2403C28.8672 18.1786 29.0071 18.157 29.1436 18.1785H41.7405C42.2178 18.1785 42.2709 18.2844 42.0322 18.6945L37.5238 26.4867C36.9404 27.4789 36.357 28.4843 35.7868 29.4898C35.5746 29.8602 35.3625 29.9396 34.8586 29.9925C34.3547 30.0454 33.9039 29.9925 33.2807 29.9925C33.1083 29.9925 32.9094 29.9925 32.8166 29.8867C32.7238 29.7808 32.8166 29.5692 32.9094 29.4236C34.4564 26.7777 35.999 24.1318 37.5371 21.4859C38.0012 20.6657 38.0012 20.6657 37.02 20.6657C34.8586 20.6657 32.6972 20.6657 30.5359 20.6657C30.3734 20.6519 30.2106 20.6891 30.0703 20.7721C29.93 20.8551 29.8193 20.9798 29.7535 21.1287C28.7856 22.8353 27.7911 24.5287 26.7966 26.2221C26.7224 26.319 26.6822 26.4375 26.6822 26.5594C26.6822 26.6814 26.7224 26.7999 26.7966 26.8968L31.8088 35.3505C31.906 35.4854 31.9582 35.6474 31.9582 35.8135C31.9582 35.9796 31.906 36.1416 31.8088 36.2765L25.5899 47.0321C25.5899 47.0321 25.5236 47.1644 25.4838 47.2173C25.2584 47.5481 25.1391 47.5481 24.9535 47.2173C24.4363 46.3574 23.9457 45.4975 23.4418 44.5714L19.4639 37.6789C19.1721 37.1497 18.8804 36.6205 18.5622 36.1178C18.4841 36.005 18.4422 35.8712 18.4422 35.7341C18.4422 35.597 18.4841 35.4632 18.5622 35.3505C19.4904 33.7762 20.4053 32.2018 21.3202 30.6275C22.0628 29.3046 22.8053 28.0478 23.5612 26.7777C23.6353 26.6683 23.6749 26.5393 23.6749 26.4073C23.6749 26.2753 23.6353 26.1463 23.5612 26.0369C22.5534 24.2729 21.5545 22.5355 20.5644 20.8244C20.5119 20.7276 20.433 20.6477 20.3367 20.5938C20.2405 20.5399 20.131 20.5144 20.0208 20.5202H12.8339C12.4494 20.5202 12.4096 20.5995 12.5952 20.9435C14.1599 23.5894 15.7157 26.2706 17.2627 28.9871C17.4086 29.2252 17.6605 29.503 17.5809 29.7544C17.5014 30.0057 17.0373 29.8602 16.7588 29.8602C16.2815 29.8602 15.8174 29.8602 15.34 29.8602C15.2088 29.87 15.0777 29.8399 14.9641 29.7737C14.8504 29.7076 14.7596 29.6086 14.7035 29.4898C12.7809 26.1427 10.8449 22.875 8.92223 19.475C8.74985 19.184 8.56421 18.8797 8.40509 18.5754C8.24598 18.2712 8.24598 18.0859 8.69681 18.0859C10.2084 18.0859 11.7333 18.0859 13.2582 18.0859H15.0881V18.1521ZM21.307 35.9061C21.35 36.0863 21.4264 36.2568 21.5324 36.4088L22.9777 38.896C23.654 40.0602 24.3037 41.2244 25.0065 42.3886C25.1524 42.6532 25.2717 42.7061 25.4176 42.3886C25.4176 42.296 25.5236 42.2166 25.5634 42.1372C26.6905 40.2057 27.7911 38.2874 28.9182 36.3691C29.0306 36.2264 29.0993 36.0543 29.1157 35.8735C29.1322 35.6927 29.0958 35.5111 29.011 35.3505C27.9237 33.5248 26.8761 31.6727 25.8021 29.847C25.2982 28.9738 25.2717 28.9871 24.7678 29.847L21.4396 35.4828C21.345 35.6131 21.2981 35.7719 21.307 35.9326V35.9061Z" fill="#F2F2F2"/>
<path d="M30.9215 7.38444V13.9992L30.537 14.1976L26.8772 16.3144C26.3275 16.5985 25.796 16.9166 25.2861 17.2669H25.1667C25.0935 17.1826 25.0031 17.1149 24.9015 17.0684L22.7799 15.8513L19.5312 13.9992V7.38444C19.6901 7.30859 19.845 7.22469 19.9953 7.13308L23.7081 5.01635C24.23 4.75027 24.7309 4.44511 25.2065 4.10352H25.3258C25.4037 4.18842 25.4985 4.25603 25.6043 4.30196L27.6861 5.5323L30.9215 7.38444ZM29.0784 10.705C29.0784 10.0568 29.0784 9.38209 29.0784 8.78677C29.0883 8.68985 29.0682 8.59223 29.0208 8.50706C28.9734 8.4219 28.9009 8.3533 28.8132 8.3105L25.5247 6.40545C25.4362 6.34094 25.3294 6.30618 25.2197 6.30618C25.1101 6.30618 25.0033 6.34094 24.9148 6.40545C23.8407 7.04047 22.7401 7.7284 21.6528 8.28404C21.5685 8.33083 21.499 8.40024 21.4521 8.4844C21.4052 8.56857 21.3829 8.66414 21.3876 8.76031V12.5969C21.3822 12.6914 21.4044 12.7854 21.4515 12.8676C21.4986 12.9498 21.5685 13.0166 21.6528 13.0599C22.7534 13.6817 23.8407 14.3167 24.928 14.9517C25.0153 15.0132 25.1195 15.0462 25.2264 15.0462C25.3332 15.0462 25.4375 15.0132 25.5247 14.9517L28.8132 13.0599C28.8997 13.0121 28.9706 12.9406 29.0176 12.8539C29.0646 12.7671 29.0857 12.6688 29.0784 12.5704C29.0121 11.9618 29.0784 11.3268 29.0784 10.705Z" fill="#F2F2F2"/>
<path d="M14.8255 17.9153H21.0576C21.2236 17.9017 21.3898 17.9387 21.5342 18.0214C21.6787 18.1041 21.7945 18.2286 21.8665 18.3784L24.7572 23.3527C24.7572 23.4585 24.8367 23.6173 24.9958 23.6173C25.1549 23.6173 25.1815 23.4717 25.2345 23.3659C26.2157 21.6725 27.1926 19.9747 28.1649 18.2725C28.2276 18.1482 28.328 18.0468 28.4518 17.9826C28.5756 17.9185 28.7165 17.8949 28.8545 17.9153H41.5177C41.995 17.9153 42.0613 18.0212 41.8226 18.4313L37.301 26.2235C36.7176 27.2289 36.1341 28.2211 35.564 29.2266C35.3518 29.6102 35.1397 29.6764 34.6358 29.7293C34.1319 29.7822 33.6811 29.7293 33.0578 29.7293C32.8987 29.7293 32.6866 29.7293 32.5938 29.6235C32.5009 29.5176 32.5938 29.306 32.6998 29.1604C34.238 26.5145 35.7806 23.8686 37.3275 21.2227C37.7916 20.4025 37.7916 20.4025 36.8104 20.4025H30.3396C30.1737 20.3889 30.0077 20.4275 29.865 20.5129C29.7223 20.5984 29.61 20.7263 29.544 20.8788C28.5716 22.581 27.5859 24.2743 26.587 25.9589C26.5157 26.0595 26.4773 26.1796 26.4773 26.3029C26.4773 26.4261 26.5157 26.5463 26.587 26.6468C28.2578 29.4912 29.902 32.3355 31.5727 35.1799C31.6629 35.3176 31.7109 35.4785 31.7109 35.6429C31.7109 35.8074 31.6629 35.9683 31.5727 36.1059L25.3406 46.8748L25.2345 47.0468C25.0223 47.3775 24.8897 47.3907 24.7041 47.0468L23.1925 44.4008L19.2145 37.5083C18.9228 36.9923 18.6443 36.4631 18.3261 35.9472C18.2422 35.8368 18.1968 35.7021 18.1968 35.5635C18.1968 35.425 18.2422 35.2903 18.3261 35.1799L21.0576 30.4569C21.8135 29.134 22.5427 27.8772 23.2986 26.5939C23.3763 26.486 23.4181 26.3564 23.4181 26.2235C23.4181 26.0906 23.3763 25.961 23.2986 25.8531L20.3018 20.6539C20.2539 20.5524 20.1763 20.4677 20.0793 20.411C19.9823 20.3544 19.8703 20.3283 19.7582 20.3363H12.558C12.1735 20.3363 12.1337 20.4157 12.3326 20.7597L17.0001 28.8032C17.1327 29.0546 17.3846 29.3324 17.3051 29.5706C17.2255 29.8087 16.7747 29.6764 16.483 29.6896C16.1913 29.7029 15.5415 29.6896 15.0642 29.6896C14.9327 29.7014 14.8008 29.672 14.6867 29.6056C14.5727 29.5393 14.4822 29.4392 14.4277 29.3192C12.5094 25.9854 10.5823 22.6515 8.64637 19.3177L8.12923 18.4048C7.91707 18.0344 7.98337 17.9153 8.42095 17.9153H14.8255ZM21.0576 35.6561C21.0966 35.8376 21.1734 36.0089 21.2831 36.1589L22.7284 38.646C23.4179 39.8102 24.0942 40.9744 24.7572 42.1386C24.9163 42.4032 25.0223 42.4561 25.1682 42.1386L25.3008 41.9666C26.3616 39.9822 27.5152 37.9978 28.6423 36.1324C28.7484 35.9812 28.8053 35.801 28.8053 35.6164C28.8053 35.4318 28.7484 35.2517 28.6423 35.1005C27.555 33.2616 26.5075 31.4227 25.4334 29.5838C24.9295 28.7239 24.903 28.7239 24.4124 29.5838C23.3074 31.4536 22.2157 33.3277 21.1372 35.2063C21.063 35.3439 21.0351 35.5016 21.0576 35.6561Z" fill="#F2F2F2"/>
<path d="M30.6535 7.10905V13.7238C30.5214 13.782 30.3929 13.8482 30.269 13.9222L26.596 16.039C26.0534 16.3282 25.5266 16.6461 25.0181 16.9915H24.8855C24.8088 16.911 24.7192 16.8439 24.6203 16.7931C23.9175 16.3829 23.2147 15.9728 22.4987 15.5759L19.25 13.7238V7.10905L19.7274 6.87091L23.4004 4.74096C23.9222 4.47487 24.4231 4.16972 24.8987 3.82812H25.0313C25.104 3.91633 25.1943 3.98842 25.2965 4.0398L27.4181 5.25691L30.6535 7.10905ZM28.7971 10.4297C28.7971 9.79464 28.7971 9.1067 28.7971 8.51137C28.8071 8.41446 28.787 8.31683 28.7395 8.23167C28.6921 8.14651 28.6197 8.07791 28.5319 8.03511C27.4314 7.4001 26.3308 6.77831 25.2435 6.13006C25.1562 6.06856 25.052 6.03554 24.9451 6.03554C24.8383 6.03554 24.7341 6.06856 24.6468 6.13006L21.3716 8.02188C21.2872 8.06867 21.2177 8.13808 21.1708 8.22224C21.124 8.30641 21.1016 8.40198 21.1064 8.49815V12.3347C21.1013 12.4325 21.1249 12.5297 21.1743 12.6143C21.2238 12.6989 21.297 12.7673 21.3848 12.811L24.6468 14.6896C24.7341 14.7511 24.8383 14.7841 24.9451 14.7841C25.052 14.7841 25.1562 14.7511 25.2435 14.6896L28.5452 12.8639C28.6292 12.8143 28.6974 12.7421 28.742 12.6554C28.7866 12.5688 28.8057 12.4714 28.7971 12.3744V10.4297Z" fill="#F2F2F2"/>
</svg>
