<svg xmlns="http://www.w3.org/2000/svg" width="23" height="25" viewBox="0 0 23 25" fill="none">
<path d="M21.0115 0.609375H6.99103C6.18868 0.609375 5.53589 1.26217 5.53589 2.06452V5.32086C2.8762 6.08201 0.923828 8.53538 0.923828 11.4362C0.923828 14.3371 2.87615 16.7905 5.53589 17.5516V23.1542C5.53589 23.9566 6.18868 24.6094 6.99103 24.6094H18.4485C18.5844 24.6094 18.7147 24.5554 18.8109 24.4593L22.3165 20.9536C22.4126 20.8575 22.4666 20.7271 22.4666 20.5912V2.06452C22.4666 1.26217 21.8139 0.609375 21.0115 0.609375ZM6.99103 1.6344H21.0115C21.2486 1.6344 21.4416 1.82734 21.4416 2.06452V3.61127H6.56091V2.06452C6.56091 1.82734 6.75386 1.6344 6.99103 1.6344ZM1.94885 11.4362C1.94885 8.49472 4.34188 6.10168 7.28335 6.10168C10.2248 6.10168 12.6179 8.49472 12.6179 11.4362C12.6179 14.3777 10.2248 16.7707 7.28335 16.7707C4.34188 16.7707 1.94885 14.3777 1.94885 11.4362ZM6.56091 23.1542V17.7545C6.79813 17.7814 7.03911 17.7958 7.2834 17.7958C9.1936 17.7958 10.9096 16.949 12.0764 15.6114H15.2166C15.4997 15.6114 15.7291 15.3819 15.7291 15.0989C15.7291 14.8158 15.4997 14.5864 15.2166 14.5864H12.8063C13.2521 13.8078 13.5377 12.9266 13.6187 11.9876H15.2166C15.4996 11.9876 15.7291 11.7581 15.7291 11.4751C15.7291 11.192 15.4996 10.9626 15.2166 10.9626H13.6252C13.5559 10.0257 13.2826 9.14478 12.8498 8.36386H15.2165C15.4996 8.36386 15.729 8.1344 15.729 7.85135C15.729 7.5683 15.4996 7.33884 15.2165 7.33884H12.1427C10.9753 5.95638 9.23021 5.07661 7.28326 5.07661C7.03896 5.07661 6.79798 5.09096 6.56076 5.11791V4.63629H21.4414V20.0786H19.391C18.5886 20.0786 17.9359 20.7314 17.9359 21.5337V23.5843H6.99103C6.75386 23.5843 6.56091 23.3914 6.56091 23.1542ZM18.961 22.8594V21.5337C18.961 21.2966 19.154 21.1037 19.3911 21.1037H20.7168L18.961 22.8594Z" fill="#F2F2F2"/>
<path d="M10.2988 10.1094L6.79883 13.6094L4.92383 11.7912" stroke="#F2F2F2" stroke-linecap="round" stroke-linejoin="round"/>
<path d="M14.8758 8.36291L18.9318 8.36295C19.2148 8.36295 19.4443 8.1335 19.4443 7.85044C19.4443 7.56739 19.2148 7.33793 18.9318 7.33793L14.8758 7.33789C14.5927 7.33789 14.3633 7.56735 14.3633 7.8504C14.3633 8.13345 14.5927 8.36291 14.8758 8.36291Z" fill="#F2F2F2"/>
<path d="M14.8446 11.9879H18.9331C19.2162 11.9879 19.4457 11.7585 19.4457 11.4754C19.4457 11.1923 19.2162 10.9629 18.9331 10.9629H14.8446C14.5616 10.9629 14.3321 11.1923 14.3321 11.4754C14.3321 11.7585 14.5616 11.9879 14.8446 11.9879Z" fill="#F2F2F2"/>
<path d="M13.9168 15.611H18.9329C19.2159 15.611 19.4454 15.3815 19.4454 15.0984C19.4454 14.8154 19.2159 14.5859 18.9329 14.5859H13.9168C13.6338 14.5859 13.4043 14.8154 13.4043 15.0984C13.4043 15.3815 13.6338 15.611 13.9168 15.611Z" fill="#F2F2F2"/>
<path d="M18.9319 19.236C19.215 19.236 19.4444 19.0065 19.4444 18.7234C19.4444 18.4404 19.215 18.2109 18.9319 18.2109H14.1375C13.8545 18.2109 13.625 18.4404 13.625 18.7234C13.625 19.0065 13.8545 19.236 14.1375 19.236H18.9319Z" fill="#F2F2F2"/>
</svg>
