<svg xmlns="http://www.w3.org/2000/svg" width="25" height="25" viewBox="0 0 25 25" fill="none">
<path d="M12.9238 12.6094C14.1173 12.6094 15.2619 12.1353 16.1058 11.2914C16.9497 10.4474 17.4238 9.30285 17.4238 8.10938C17.4238 6.9159 16.9497 5.77131 16.1058 4.92739C15.2619 4.08348 14.1173 3.60938 12.9238 3.60938C11.7304 3.60938 10.5858 4.08348 9.74185 4.92739C8.89793 5.77131 8.42383 6.9159 8.42383 8.10938C8.42383 9.30285 8.89793 10.4474 9.74185 11.2914C10.5858 12.1353 11.7304 12.6094 12.9238 12.6094V12.6094ZM15.9238 8.10938C15.9238 8.90502 15.6078 9.66809 15.0451 10.2307C14.4825 10.7933 13.7195 11.1094 12.9238 11.1094C12.1282 11.1094 11.3651 10.7933 10.8025 10.2307C10.2399 9.66809 9.92383 8.90502 9.92383 8.10938C9.92383 7.31373 10.2399 6.55066 10.8025 5.98805C11.3651 5.42545 12.1282 5.10938 12.9238 5.10938C13.7195 5.10938 14.4825 5.42545 15.0451 5.98805C15.6078 6.55066 15.9238 7.31373 15.9238 8.10938V8.10938ZM21.9238 20.1094C21.9238 21.6094 20.4238 21.6094 20.4238 21.6094H5.42383C5.42383 21.6094 3.92383 21.6094 3.92383 20.1094C3.92383 18.6094 5.42383 14.1094 12.9238 14.1094C20.4238 14.1094 21.9238 18.6094 21.9238 20.1094ZM20.4238 20.1034C20.4223 19.7344 20.1928 18.6244 19.1758 17.6074C18.1978 16.6294 16.3573 15.6094 12.9238 15.6094C9.48883 15.6094 7.64983 16.6294 6.67183 17.6074C5.65483 18.6244 5.42683 19.7344 5.42383 20.1034H20.4238Z" fill="#F2F2F2"/>
</svg>
