<svg xmlns="http://www.w3.org/2000/svg" width="25" height="25" viewBox="0 0 25 25" fill="none">
<path d="M2.92383 7.60938C2.92383 7.07894 3.13454 6.57023 3.50961 6.19516C3.88469 5.82009 4.3934 5.60938 4.92383 5.60938H20.9238C21.4543 5.60938 21.963 5.82009 22.338 6.19516C22.7131 6.57023 22.9238 7.07894 22.9238 7.60938V17.6094C22.9238 18.1398 22.7131 18.6485 22.338 19.0236C21.963 19.3987 21.4543 19.6094 20.9238 19.6094H4.92383C4.3934 19.6094 3.88469 19.3987 3.50961 19.0236C3.13454 18.6485 2.92383 18.1398 2.92383 17.6094V7.60938Z" stroke="#F2F2F2" stroke-width="2" stroke-linecap="round" stroke-linejoin="round"/>
<path d="M12.9238 15.6094C14.5807 15.6094 15.9238 14.2662 15.9238 12.6094C15.9238 10.9525 14.5807 9.60938 12.9238 9.60938C11.267 9.60938 9.92383 10.9525 9.92383 12.6094C9.92383 14.2662 11.267 15.6094 12.9238 15.6094Z" stroke="#F2F2F2" stroke-width="2" stroke-linecap="round" stroke-linejoin="round"/>
<path d="M2.92383 9.60938C3.98469 9.60937 5.00211 9.18795 5.75226 8.4378C6.5024 7.68766 6.92383 6.67024 6.92383 5.60938" stroke="#F2F2F2" stroke-width="2" stroke-linecap="round" stroke-linejoin="round"/>
<path d="M18.9238 19.6094C18.9238 18.5485 19.3453 17.5311 20.0954 16.7809C20.8455 16.0308 21.863 15.6094 22.9238 15.6094" stroke="#F2F2F2" stroke-width="2" stroke-linecap="round" stroke-linejoin="round"/>
</svg>
