<svg xmlns="http://www.w3.org/2000/svg" width="25" height="25" viewBox="0 0 25 25" fill="none">
<g id='pending' height="16px" viewBox="0 0 18 18" margin="5px" width="24px" fill="#FFA500" >
<path d="M24.2769 11.0482C24.2762 11.0477 24.2757 11.0469 24.2751 11.0464L14.485 1.25665C14.0677 0.839172 13.5129 0.609375 12.9228 0.609375C12.3326 0.609375 11.7778 0.839172 11.3603 1.25665L1.57534 11.0414C1.57205 11.0447 1.56857 11.0482 1.56545 11.0515C0.708521 11.9134 0.709986 13.3118 1.56967 14.1714C1.96243 14.5644 2.48098 14.7918 3.03561 14.8158C3.05831 14.818 3.08102 14.8191 3.10391 14.8191H3.49392V22.0236C3.49392 23.4494 4.65408 24.6094 6.07992 24.6094H9.91012C10.2985 24.6094 10.6132 24.2944 10.6132 23.9062V18.2578C10.6132 17.6072 11.1426 17.0781 11.7932 17.0781H14.0523C14.7029 17.0781 15.2321 17.6072 15.2321 18.2578V23.9062C15.2321 24.2944 15.5468 24.6094 15.9352 24.6094H19.7654C21.1914 24.6094 22.3514 23.4494 22.3514 22.0236V14.8191H22.7132C23.3032 14.8191 23.858 14.5893 24.2757 14.1716C25.1363 13.3107 25.1366 11.9097 24.2769 11.0482V11.0482ZM23.2812 13.1774C23.1294 13.3292 22.9276 13.4128 22.7132 13.4128H21.6483C21.2599 13.4128 20.9452 13.7276 20.9452 14.116V22.0236C20.9452 22.674 20.416 23.2031 19.7654 23.2031H16.6383V18.2578C16.6383 16.832 15.4784 15.6718 14.0523 15.6718H11.7932C10.3672 15.6718 9.20699 16.832 9.20699 18.2578V23.2031H6.07992C5.42953 23.2031 4.90017 22.674 4.90017 22.0236V14.116C4.90017 13.7276 4.58541 13.4128 4.19705 13.4128H3.15042C3.13943 13.4121 3.12863 13.4116 3.11746 13.4114C2.90798 13.4077 2.71151 13.3246 2.56429 13.1772C2.25118 12.8641 2.25118 12.3545 2.56429 12.0412C2.56448 12.0412 2.56448 12.041 2.56466 12.0408L2.56521 12.0403L12.3549 2.25092C12.5066 2.09912 12.7082 2.01562 12.9228 2.01562C13.1372 2.01562 13.3388 2.09912 13.4906 2.25092L23.2781 12.0383C23.2796 12.0397 23.2812 12.0412 23.2827 12.0427C23.5941 12.3563 23.5936 12.8648 23.2812 13.1774V13.1774Z" fill="#F2F2F2"/>
</g>
</svg>
