<svg xmlns="http://www.w3.org/2000/svg" width="26" height="25" viewBox="0 0 26 25" fill="none">
<path d="M12.918 24.6091C12.8389 24.6091 12.7589 24.5901 12.6869 24.5521L1.19479 18.5521C1.02978 18.4661 0.925781 18.295 0.925781 18.109V6.85888C0.925781 6.68588 1.01578 6.52488 1.16278 6.43388C1.30979 6.34288 1.49479 6.33488 1.64879 6.41188L13.141 12.162C13.31 12.247 13.417 12.42 13.417 12.609V24.1091C13.417 24.2841 13.326 24.4461 13.176 24.5371C13.098 24.5851 13.008 24.6091 12.918 24.6091ZM1.9258 17.806L12.4179 23.2841V12.918L1.9258 7.6679V17.806Z" fill="#F2F2F2" stroke="#F2F2F2" stroke-width="0.5"/>
<path d="M12.9336 24.6099C12.8436 24.6099 12.7536 24.5859 12.6746 24.5379C12.5256 24.4468 12.4336 24.2848 12.4336 24.1098V12.6097C12.4336 12.4207 12.5406 12.2477 12.7096 12.1627L24.2018 6.41262C24.3548 6.33462 24.5408 6.34262 24.6878 6.43462C24.8358 6.52562 24.9258 6.68663 24.9258 6.85963V18.1098C24.9258 18.2958 24.8218 18.4668 24.6568 18.5528L13.1646 24.5529C13.0926 24.5909 13.0126 24.6099 12.9336 24.6099V24.6099ZM13.4336 12.9187V23.2848L23.9258 17.8068V7.66864L13.4336 12.9187ZM24.4258 18.1098H24.4358H24.4258Z" fill="#F2F2F2" stroke="#F2F2F2" stroke-width="0.5"/>
<path d="M1.42487 7.35897C1.24087 7.35897 1.06487 7.25797 0.976868 7.08297C0.852866 6.83596 0.953868 6.53596 1.20087 6.41196L12.709 0.661876C12.85 0.591875 13.016 0.591875 13.156 0.661876L24.6482 6.41196C24.8952 6.53596 24.9952 6.83596 24.8722 7.08297C24.7482 7.32997 24.4492 7.42897 24.2012 7.30697L12.933 1.66789L1.64888 7.30597C1.57688 7.34197 1.50088 7.35897 1.42487 7.35897V7.35897Z" fill="#F2F2F2" stroke="#F2F2F2" stroke-width="0.5"/>
<path d="M18.926 15.6097C18.65 15.6097 18.426 15.3857 18.426 15.1097V9.91863L7.20984 4.30655C6.96284 4.18355 6.86284 3.88254 6.98684 3.63554C7.11084 3.38854 7.41084 3.28954 7.65785 3.41154L19.15 9.16162C19.319 9.24762 19.426 9.42062 19.426 9.60963V15.1097C19.426 15.3857 19.202 15.6097 18.926 15.6097V15.6097Z" fill="#F2F2F2" stroke="#F2F2F2" stroke-width="0.5"/>
</svg>
