<svg xmlns="http://www.w3.org/2000/svg" width="35" height="34" viewBox="0 0 35 34" fill="none">
<g filter="url(#filter0_d_2423_585)">
<path d="M29.8252 11.2139C29.7354 8.18522 21.8094 6.96675 17.3409 8.83421C15.8899 9.44068 15.0801 10.2842 15.0526 11.2139C15.0505 11.2448 15.0512 12.5027 15.0512 17.2828C10.6021 18.1019 5.70662 16.7066 5.70662 14.9898V12.8309C7.5506 14.4849 11.5209 14.7888 14.0041 14.5373C14.2191 14.5156 14.3758 14.3236 14.3541 14.1085C14.3322 13.8934 14.1399 13.7362 13.9252 13.7585C9.71131 14.1851 5.70667 12.8465 5.70667 11.3061V9.14709C7.52114 10.7748 11.4248 11.1148 14.0041 10.8536C14.2192 10.8319 14.3759 10.6398 14.3541 10.4248C14.3323 10.2097 14.14 10.0526 13.9253 10.0748C9.71141 10.5012 5.70672 9.16338 5.70672 7.6223V5.44896C8.36025 7.82915 16.2629 7.82915 18.9164 5.44896V7.04386C18.9164 7.26001 19.0916 7.43526 19.3078 7.43526C19.5239 7.43526 19.6992 7.26001 19.6992 7.04386C19.6992 6.68989 19.6992 4.27717 19.6992 3.92417C19.6992 1.23816 13.4939 -0.0927915 8.84211 0.982378C8.63149 1.03106 8.50023 1.24129 8.54891 1.45191C8.59759 1.66253 8.80777 1.79365 9.01839 1.74512C15.2578 0.302569 22.327 3.44921 17.1077 5.63062C11.9055 7.80469 3.37164 5.35527 6.30634 2.91422C6.47254 2.77601 6.49519 2.52923 6.35698 2.36299C6.21872 2.19684 5.97194 2.17418 5.80575 2.3124C5.22882 2.7923 4.92383 3.34965 4.92383 3.92417V18.6736C4.92383 21.2609 10.5906 22.5353 15.0512 21.7613V22.294C15.0512 23.243 15.8644 24.1056 17.3409 24.7227C21.8415 26.6036 29.8265 25.3513 29.8265 22.294C29.8265 22.0631 29.8273 11.2448 29.8252 11.2139V11.2139ZM17.6427 9.55644C20.2811 8.45387 24.5972 8.45402 27.2351 9.55644C31.671 11.4104 27.2491 14.005 21.7697 13.7819C21.554 13.7726 21.3715 13.9411 21.3627 14.1571C21.3539 14.373 21.5219 14.5553 21.7379 14.564C24.0239 14.6571 27.3992 14.2628 29.0438 12.7876V14.9265C29.0438 15.5305 28.3845 16.1525 27.2351 16.6329C24.5968 17.7355 20.2806 17.7353 17.6427 16.6329C16.4933 16.1525 15.834 15.5305 15.834 14.9265V12.7894C16.3907 13.2885 17.2306 13.7152 18.3115 14.0326C18.519 14.0933 18.7365 13.9747 18.7974 13.7673C18.8583 13.5599 18.7395 13.3424 18.5321 13.2815C15.5683 12.4114 14.7381 10.7705 17.6427 9.55644V9.55644ZM5.70662 18.6736V16.5146C7.61112 18.2229 11.9807 18.6104 15.0512 18.0777V20.9666C10.6021 21.7856 5.70662 20.3903 5.70662 18.6736ZM27.2351 24.0004C24.5968 25.103 20.2806 25.1029 17.6427 24.0004C16.4933 23.52 15.834 22.8981 15.834 22.294C15.834 22.0361 15.834 20.1411 15.834 20.135C18.1611 22.2224 24.5885 22.5132 27.9575 20.8478C28.1512 20.752 28.2307 20.5172 28.1349 20.3235C28.0391 20.1297 27.8043 20.0503 27.6106 20.1461C25.0996 21.3874 20.4674 21.4972 17.6427 20.3167C16.4933 19.8363 15.834 19.2143 15.834 18.6103C15.834 14.8782 15.834 18.0061 15.834 16.4513C18.4815 18.8261 26.375 18.845 29.0437 16.4513V22.294C29.0437 22.898 28.3845 23.52 27.2351 24.0004V24.0004Z" fill="#F2F2F2" stroke="#F2F2F2" stroke-width="0.5"/>
</g>
<defs>
<filter id="filter0_d_2423_585" x="0.673828" y="0.359375" width="33.4023" height="33.5" filterUnits="userSpaceOnUse" color-interpolation-filters="sRGB">
<feFlood flood-opacity="0" result="BackgroundImageFix"/>
<feColorMatrix in="SourceAlpha" type="matrix" values="0 0 0 0 0 0 0 0 0 0 0 0 0 0 0 0 0 0 127 0" result="hardAlpha"/>
<feOffset dy="4"/>
<feGaussianBlur stdDeviation="2"/>
<feComposite in2="hardAlpha" operator="out"/>
<feColorMatrix type="matrix" values="0 0 0 0 0 0 0 0 0 0 0 0 0 0 0 0 0 0 0.25 0"/>
<feBlend mode="normal" in2="BackgroundImageFix" result="effect1_dropShadow_2423_585"/>
<feBlend mode="normal" in="SourceGraphic" in2="effect1_dropShadow_2423_585" result="shape"/>
</filter>
</defs>
</svg>