<svg xmlns="http://www.w3.org/2000/svg" width="25" height="25" viewBox="0 0 25 25" fill="none">
<path d="M20.6591 4.875V7.69031C21.1302 7.62281 21.6087 7.62516 22.0653 7.69031V4.17188C22.0653 3.78375 21.7503 3.46875 21.3622 3.46875H17.8438C17.9111 3.9398 17.909 4.41867 17.8438 4.875H20.6591Z" fill="#F2F2F2"/>
<path d="M16.4431 13.3125C16.3756 12.8414 16.378 12.3628 16.4431 11.9062H9.40625C9.47356 12.3773 9.47145 12.8562 9.40625 13.3125H16.4431Z" fill="#F2F2F2"/>
<path d="M24.6205 20.4677L21.6045 18.3888C21.1371 18.067 20.502 18.4038 20.502 18.9677V20.3435H17.8438C17.9111 20.8146 17.909 21.2934 17.8438 21.7497H20.502V23.1255C20.502 23.694 21.1417 24.0239 21.6045 23.7044L24.6205 21.6255C25.0253 21.3464 25.0261 20.7474 24.6205 20.4677V20.4677Z" fill="#F2F2F2"/>
<path d="M5.18945 20.3446V17.5293C4.71555 17.5968 4.23695 17.594 3.7832 17.5293V21.0477C3.7832 21.4359 4.0982 21.7509 4.48633 21.7509H8.00477C7.93745 21.2798 7.93956 20.801 8.00477 20.3446H5.18945Z" fill="#F2F2F2"/>
<path d="M12.9238 0.609375C11.0234 0.609375 9.46591 2.1052 9.36653 3.98133C9.32462 3.83086 9.23313 3.69178 9.08969 3.59292L6.07342 1.51416C5.60748 1.19311 4.9713 1.52756 4.9713 2.09311V3.46875H3.08008C2.69177 3.46875 2.37695 3.78356 2.37695 4.17188C2.37695 4.56019 2.69177 4.875 3.08008 4.875H4.97134V6.25064C4.97134 6.82059 5.61161 7.14802 6.07347 6.82959L9.08973 4.75083C9.23298 4.65211 9.32462 4.51294 9.36658 4.36219C9.46581 6.23841 11.0233 7.73438 12.9238 7.73438C14.8882 7.73438 16.4863 6.13627 16.4863 4.17188C16.4863 2.20748 14.8882 0.609375 12.9238 0.609375Z" fill="#F2F2F2"/>
<path d="M12.9238 24.6094C14.8913 24.6094 16.4863 23.0144 16.4863 21.0469C16.4863 19.0794 14.8913 17.4844 12.9238 17.4844C10.9563 17.4844 9.36133 19.0794 9.36133 21.0469C9.36133 23.0144 10.9563 24.6094 12.9238 24.6094Z" fill="#F2F2F2"/>
<path d="M21.3613 16.1719C23.3288 16.1719 24.9238 14.5769 24.9238 12.6094C24.9238 10.6419 23.3288 9.04688 21.3613 9.04688C19.3938 9.04688 17.7988 10.6419 17.7988 12.6094C17.7988 14.5769 19.3938 16.1719 21.3613 16.1719Z" fill="#F2F2F2"/>
<path d="M4.48633 16.1719C6.45384 16.1719 8.04883 14.5769 8.04883 12.6094C8.04883 10.6419 6.45384 9.04688 4.48633 9.04688C2.51881 9.04688 0.923828 10.6419 0.923828 12.6094C0.923828 14.5769 2.51881 16.1719 4.48633 16.1719Z" fill="#F2F2F2"/>
</svg>
