<svg xmlns="http://www.w3.org/2000/svg" width="25" height="25" viewBox="0 0 25 25" fill="none">
<g clip-path="url(#clip0_2423_792)">
<path d="M12.9238 15.6094C14.5807 15.6094 15.9238 14.2662 15.9238 12.6094C15.9238 10.9525 14.5807 9.60938 12.9238 9.60938C11.267 9.60938 9.92383 10.9525 9.92383 12.6094C9.92383 14.2662 11.267 15.6094 12.9238 15.6094Z" stroke="#F2F2F2" stroke-width="2" stroke-linecap="round" stroke-linejoin="round"/>
<path d="M20.3238 15.6094C20.1907 15.911 20.151 16.2456 20.2098 16.57C20.2686 16.8944 20.4233 17.1937 20.6538 17.4294L20.7138 17.4894C20.8998 17.6751 21.0473 17.8957 21.1479 18.1385C21.2486 18.3813 21.3004 18.6415 21.3004 18.9044C21.3004 19.1672 21.2486 19.4275 21.1479 19.6703C21.0473 19.9131 20.8998 20.1336 20.7138 20.3194C20.5281 20.5053 20.3075 20.6528 20.0647 20.7535C19.8219 20.8541 19.5617 20.9059 19.2988 20.9059C19.036 20.9059 18.7757 20.8541 18.5329 20.7535C18.2902 20.6528 18.0696 20.5053 17.8838 20.3194L17.8238 20.2594C17.5881 20.0288 17.2888 19.8742 16.9644 19.8154C16.64 19.7566 16.3054 19.7963 16.0038 19.9294C15.7081 20.0561 15.4558 20.2666 15.2781 20.5349C15.1005 20.8032 15.0051 21.1176 15.0038 21.4394V21.6094C15.0038 22.1398 14.7931 22.6485 14.418 23.0236C14.043 23.3987 13.5343 23.6094 13.0038 23.6094C12.4734 23.6094 11.9647 23.3987 11.5896 23.0236C11.2145 22.6485 11.0038 22.1398 11.0038 21.6094V21.5194C10.9961 21.1884 10.8889 20.8674 10.6963 20.5981C10.5037 20.3288 10.2346 20.1237 9.92383 20.0094C9.62221 19.8763 9.28763 19.8366 8.96324 19.8954C8.63884 19.9542 8.33951 20.1088 8.10383 20.3394L8.04383 20.3994C7.85808 20.5853 7.6375 20.7328 7.39471 20.8335C7.15191 20.9341 6.89166 20.9859 6.62883 20.9859C6.366 20.9859 6.10574 20.9341 5.86295 20.8335C5.62015 20.7328 5.39957 20.5853 5.21383 20.3994C5.02788 20.2136 4.88036 19.9931 4.77971 19.7503C4.67906 19.5075 4.62725 19.2472 4.62725 18.9844C4.62725 18.7215 4.67906 18.4613 4.77971 18.2185C4.88036 17.9757 5.02788 17.7551 5.21383 17.5694L5.27383 17.5094C5.50436 17.2737 5.65901 16.9744 5.71783 16.65C5.77665 16.3256 5.73694 15.991 5.60383 15.6894C5.47707 15.3936 5.26658 15.1414 4.99829 14.9637C4.73 14.786 4.41561 14.6907 4.09383 14.6894H3.92383C3.3934 14.6894 2.88469 14.4787 2.50961 14.1036C2.13454 13.7285 1.92383 13.2198 1.92383 12.6894C1.92383 12.1589 2.13454 11.6502 2.50961 11.2752C2.88469 10.9001 3.3934 10.6894 3.92383 10.6894H4.01383C4.34482 10.6816 4.66583 10.5745 4.93513 10.3819C5.20442 10.1893 5.40954 9.92011 5.52383 9.60938C5.65694 9.30776 5.69665 8.97318 5.63783 8.64879C5.57901 8.32439 5.42436 8.02505 5.19383 7.78937L5.13383 7.72937C4.94788 7.54363 4.80036 7.32305 4.69971 7.08026C4.59906 6.83746 4.54725 6.57721 4.54725 6.31437C4.54725 6.05154 4.59906 5.79129 4.69971 5.54849C4.80036 5.3057 4.94788 5.08512 5.13383 4.89937C5.31957 4.71342 5.54015 4.5659 5.78295 4.46526C6.02574 4.36461 6.286 4.3128 6.54883 4.3128C6.81166 4.3128 7.07191 4.36461 7.31471 4.46526C7.5575 4.5659 7.77808 4.71342 7.96383 4.89937L8.02383 4.95937C8.25951 5.18991 8.55884 5.34456 8.88324 5.40338C9.20763 5.4622 9.54221 5.42249 9.84383 5.28937H9.92383C10.2196 5.16261 10.4718 4.95213 10.6495 4.68384C10.8272 4.41555 10.9225 4.10116 10.9238 3.77938V3.60938C10.9238 3.07894 11.1345 2.57023 11.5096 2.19516C11.8847 1.82009 12.3934 1.60938 12.9238 1.60938C13.4543 1.60938 13.963 1.82009 14.338 2.19516C14.7131 2.57023 14.9238 3.07894 14.9238 3.60938V3.69937C14.9251 4.02116 15.0205 4.33555 15.1981 4.60384C15.3758 4.87213 15.6281 5.08261 15.9238 5.20937C16.2254 5.34249 16.56 5.3822 16.8844 5.32338C17.2088 5.26456 17.5081 5.10991 17.7438 4.87937L17.8038 4.81938C17.9896 4.63342 18.2102 4.4859 18.4529 4.38526C18.6957 4.28461 18.956 4.2328 19.2188 4.2328C19.4817 4.2328 19.7419 4.28461 19.9847 4.38526C20.2275 4.4859 20.4481 4.63342 20.6338 4.81938C20.8198 5.00512 20.9673 5.2257 21.0679 5.46849C21.1686 5.71129 21.2204 5.97154 21.2204 6.23438C21.2204 6.49721 21.1686 6.75746 21.0679 7.00026C20.9673 7.24305 20.8198 7.46363 20.6338 7.64937L20.5738 7.70937C20.3433 7.94505 20.1886 8.24439 20.1298 8.56879C20.071 8.89318 20.1107 9.22776 20.2438 9.52938V9.60938C20.3706 9.90514 20.5811 10.1574 20.8494 10.3351C21.1177 10.5127 21.432 10.6081 21.7538 10.6094H21.9238C22.4543 10.6094 22.963 10.8201 23.338 11.1952C23.7131 11.5702 23.9238 12.0789 23.9238 12.6094C23.9238 13.1398 23.7131 13.6485 23.338 14.0236C22.963 14.3987 22.4543 14.6094 21.9238 14.6094H21.8338C21.512 14.6107 21.1977 14.706 20.9294 14.8837C20.6611 15.0614 20.4506 15.3136 20.3238 15.6094V15.6094Z" stroke="#F2F2F2" stroke-width="2" stroke-linecap="round" stroke-linejoin="round"/>
</g>
<defs>
<clipPath id="clip0_2423_792">
<rect width="24" height="24" fill="white" transform="translate(0.923828 0.609375)"/>
</clipPath>
</defs>
</svg>
