<svg xmlns="http://www.w3.org/2000/svg">
  <defs>
    <g id="logo_facebook" width="10" height="16" viewBox="0 0 10 16"><defs><style>.a{fill:#8181a5;}</style></defs><g transform="translate(-3)"><path class="a" d="M6.023,16,6,9H3V6H6V4c0-2.7,1.672-4,4.079-4a22.346,22.346,0,0,1,2.434.124V2.945h-1.67c-1.31,0-1.563.622-1.563,1.535V6H13L12,9H9.28v7Z"/></g></g>
    <g id="logo_github" width="16.1" height="15.62" viewBox="0 0 16.1 15.62"><defs><style>.a{fill:#8181a5;fill-rule:evenodd;}</style></defs><g transform="translate(0 -0.2)"><path class="a" d="M8,.2a8.024,8.024,0,0,0-8,8,8.085,8.085,0,0,0,5.5,7.6c.4.1.5-.2.5-.4V14c-2.2.5-2.7-1-2.7-1a2.689,2.689,0,0,0-.9-1.2c-.7-.5.1-.5.1-.5a1.741,1.741,0,0,1,1.2.8,1.632,1.632,0,0,0,2.3.7,2.257,2.257,0,0,1,.5-1.1c-1.8-.2-3.6-.9-3.6-4a2.865,2.865,0,0,1,.8-2.1,2.486,2.486,0,0,1,.1-2.1s.7-.2,2.2.8A6.448,6.448,0,0,1,8,4a6.448,6.448,0,0,1,2,.3c1.5-1,2.2-.8,2.2-.8a2.983,2.983,0,0,1,.1,2.1,3.227,3.227,0,0,1,.8,2.1c0,3.1-1.9,3.7-3.7,3.9a2.578,2.578,0,0,1,.6,1.6v2.2c0,.2.1.5.6.4a8.085,8.085,0,0,0,5.5-7.6A8.176,8.176,0,0,0,8,.2Z"/></g></g>
    <g id="logo_linked_in" width="16.1" height="16" viewBox="0 0 16.1 16"><defs><style>.a{fill:#8181a5;}</style></defs><path class="a" d="M15.3,0H.7A.684.684,0,0,0,0,.7V15.4a.669.669,0,0,0,.7.6H15.4a.684.684,0,0,0,.7-.7V.7A.849.849,0,0,0,15.3,0ZM4.7,13.6H2.4V6H4.8v7.6ZM3.6,5A1.43,1.43,0,0,1,2.2,3.6,1.367,1.367,0,0,1,3.6,2.2,1.367,1.367,0,0,1,5,3.6,1.593,1.593,0,0,1,3.6,5Zm10,8.6H11.2V9.9c0-.9,0-2-1.2-2s-1.4,1-1.4,2v3.8H6.2V6H8.5V7h0a2.441,2.441,0,0,1,2.2-1.2c2.4,0,2.8,1.6,2.8,3.6v4.2Z"/></g>
    <g id="logo_twitter" width="16" height="13" viewBox="0 0 16 13"><defs><style>.a{fill:#8181a5;}</style></defs><g transform="translate(0 -1.5)"><path class="a" d="M16,3a5.918,5.918,0,0,1-1.9.5,2.827,2.827,0,0,0,1.4-1.8,6.561,6.561,0,0,1-2.1.8,3.492,3.492,0,0,0-2.4-1A3.311,3.311,0,0,0,7.8,4.8a1.483,1.483,0,0,0,.1.7A9.2,9.2,0,0,1,1.1,2.1,3.064,3.064,0,0,0,.7,3.8,3.282,3.282,0,0,0,2.2,6.5,4.191,4.191,0,0,1,.7,6.1h0A3.228,3.228,0,0,0,3.3,9.3a2.769,2.769,0,0,1-.9.1,1.268,1.268,0,0,1-.6-.1,3.24,3.24,0,0,0,3.1,2.3A6.359,6.359,0,0,1,.8,13H0a9.757,9.757,0,0,0,5,1.5,9.256,9.256,0,0,0,9.3-9.3V4.8A5.814,5.814,0,0,0,16,3Z"/></g></g>

    <g id='fullscreen' height="24px" viewBox="0 0 24 24" width="24px"><path d="M0 0h24v24H0z" fill="none"/><path d="M7 14H5v5h5v-2H7v-3zm-2-4h2V7h3V5H5v5zm12 7h-3v2h5v-5h-2v3zM14 5v2h3v3h2V5h-5z"/></g>
    <g id='fullscreen-exit' height="24px" viewBox="0 0 24 24" width="24px"><path d="M0 0h24v24H0z" fill="none"/><path d="M5 16h3v3h2v-5H5v2zm3-8H5v2h5V5H8v3zm6 11h2v-3h3v-2h-5v5zm2-11V5h-2v5h5V8h-3z"/></g>

    <g id='link' height="18px" viewBox="0 0 24 24" width="18px"><path d="M0 0h24v24H0z" fill="none"/><path d="M3.9 12c0-1.71 1.39-3.1 3.1-3.1h4V7H7c-2.76 0-5 2.24-5 5s2.24 5 5 5h4v-1.9H7c-1.71 0-3.1-1.39-3.1-3.1zM8 13h8v-2H8v2zm9-6h-4v1.9h4c1.71 0 3.1 1.39 3.1 3.1s-1.39 3.1-3.1 3.1h-4V17h4c2.76 0 5-2.24 5-5s-2.24-5-5-5z"/></g>
    <g id='lightresource' height="24px" viewBox="0 0 24 24" width="24px" fill="#cebaa8"><path d="M0 0h24v24H0z" fill="none"/><path d="M8.4 18.2c.38.5.6 1.12.6 1.8 0 1.66-1.34 3-3 3s-3-1.34-3-3 1.34-3 3-3c.44 0 .85.09 1.23.26l1.41-1.77c-.92-1.03-1.29-2.39-1.09-3.69l-2.03-.68c-.54.83-1.46 1.38-2.52 1.38-1.66 0-3-1.34-3-3s1.34-3 3-3 3 1.34 3 3c0 .07 0 .14-.01.21l2.03.68c.64-1.21 1.82-2.09 3.22-2.32V5.91C9.96 5.57 9 4.4 9 3c0-1.66 1.34-3 3-3s3 1.34 3 3c0 1.4-.96 2.57-2.25 2.91v2.16c1.4.23 2.58 1.11 3.22 2.32L18 9.71V9.5c0-1.66 1.34-3 3-3s3 1.34 3 3-1.34 3-3 3c-1.06 0-1.98-.55-2.52-1.37l-2.03.68c.2 1.29-.16 2.65-1.09 3.69l1.41 1.77c.38-.18.79-.27 1.23-.27 1.66 0 3 1.34 3 3s-1.34 3-3 3-3-1.34-3-3c0-.68.22-1.3.6-1.8l-1.41-1.77c-1.35.75-3.01.76-4.37 0L8.4 18.2z"></path></g>
    <g id='resource' height="24px" viewBox="0 0 24 24" width="24px" fill="#fff"><path d="M0 0h24v24H0z" fill="none"/><path d="M8.4 18.2c.38.5.6 1.12.6 1.8 0 1.66-1.34 3-3 3s-3-1.34-3-3 1.34-3 3-3c.44 0 .85.09 1.23.26l1.41-1.77c-.92-1.03-1.29-2.39-1.09-3.69l-2.03-.68c-.54.83-1.46 1.38-2.52 1.38-1.66 0-3-1.34-3-3s1.34-3 3-3 3 1.34 3 3c0 .07 0 .14-.01.21l2.03.68c.64-1.21 1.82-2.09 3.22-2.32V5.91C9.96 5.57 9 4.4 9 3c0-1.66 1.34-3 3-3s3 1.34 3 3c0 1.4-.96 2.57-2.25 2.91v2.16c1.4.23 2.58 1.11 3.22 2.32L18 9.71V9.5c0-1.66 1.34-3 3-3s3 1.34 3 3-1.34 3-3 3c-1.06 0-1.98-.55-2.52-1.37l-2.03.68c.2 1.29-.16 2.65-1.09 3.69l1.41 1.77c.38-.18.79-.27 1.23-.27 1.66 0 3 1.34 3 3s-1.34 3-3 3-3-1.34-3-3c0-.68.22-1.3.6-1.8l-1.41-1.77c-1.35.75-3.01.76-4.37 0L8.4 18.2z"></path></g>
    
    
   <g id='lightprogramManager' height="24px" viewBox="0 0 24 24" width="24px" fill="#cebaa8"><path d="M0 0h24v24H0z" fill="none"/><circle cx="10" cy="8" r="4"></circle><path d="M10.67 13.02c-.22-.01-.44-.02-.67-.02-2.42 0-4.68.67-6.61 1.82-.88.52-1.39 1.5-1.39 2.53V20h9.26c-.79-1.13-1.26-2.51-1.26-4 0-1.07.25-2.07.67-2.98zM20.75 16c0-.22-.03-.42-.06-.63l1.14-1.01-1-1.73-1.45.49c-.32-.27-.68-.48-1.08-.63L18 11h-2l-.3 1.49c-.4.15-.76.36-1.08.63l-1.45-.49-1 1.73 1.14 1.01c-.03.21-.06.41-.06.63s.03.42.06.63l-1.14 1.01 1 1.73 1.45-.49c.32.27.68.48 1.08.63L16 21h2l.3-1.49c.4-.15.76-.36 1.08-.63l1.45.49 1-1.73-1.14-1.01c.03-.21.06-.41.06-.63zM17 18c-1.1 0-2-.9-2-2s.9-2 2-2 2 .9 2 2-.9 2-2 2z"></path></g>
    <g id='programManager' height="24px" viewBox="0 0 24 24" width="24px" fill="#fff"><path d="M0 0h24v24H0z" fill="none"/><circle cx="10" cy="8" r="4"></circle><path d="M10.67 13.02c-.22-.01-.44-.02-.67-.02-2.42 0-4.68.67-6.61 1.82-.88.52-1.39 1.5-1.39 2.53V20h9.26c-.79-1.13-1.26-2.51-1.26-4 0-1.07.25-2.07.67-2.98zM20.75 16c0-.22-.03-.42-.06-.63l1.14-1.01-1-1.73-1.45.49c-.32-.27-.68-.48-1.08-.63L18 11h-2l-.3 1.49c-.4.15-.76.36-1.08.63l-1.45-.49-1 1.73 1.14 1.01c-.03.21-.06.41-.06.63s.03.42.06.63l-1.14 1.01 1 1.73 1.45-.49c.32.27.68.48 1.08.63L16 21h2l.3-1.49c.4-.15.76-.36 1.08-.63l1.45.49 1-1.73-1.14-1.01c.03-.21.06-.41.06-.63zM17 18c-1.1 0-2-.9-2-2s.9-2 2-2 2 .9 2 2-.9 2-2 2z"></path></g>
    <g id='lightoffering' height="24px" viewBox="0 0 24 24" width="24px" fill="#cebaa8"><path d="M0 0h24v24H0z" fill="none"/><path d="M20 2H4c-1 0-2 .9-2 2v3.01c0 .72.43 1.34 1 1.69V20c0 1.1 1.1 2 2 2h14c.9 0 2-.9 2-2V8.7c.57-.35 1-.97 1-1.69V4c0-1.1-1-2-2-2zm-5 12H9v-2h6v2zm5-7H4V4h16v3z"></path></g>
    <g id='offering' height="24px" viewBox="0 0 24 24" width="24px" fill="#fff"><path d="M0 0h24v24H0z" fill="none"/><path d="M20 2H4c-1 0-2 .9-2 2v3.01c0 .72.43 1.34 1 1.69V20c0 1.1 1.1 2 2 2h14c.9 0 2-.9 2-2V8.7c.57-.35 1-.97 1-1.69V4c0-1.1-1-2-2-2zm-5 12H9v-2h6v2zm5-7H4V4h16v3z"></path></g>
    <g id='lightsetting' height="16px" viewBox="0 0 18 18" margin="5px" width="24px" fill="#cebaa8"><path d="M0 0h24v24H0z" fill="none"/><path d="M19.14 12.94c.04-.3.06-.61.06-.94 0-.32-.02-.64-.07-.94l2.03-1.58c.18-.14.23-.41.12-.61l-1.92-3.32c-.12-.22-.37-.29-.59-.22l-2.39.96c-.5-.38-1.03-.7-1.62-.94l-.36-2.54c-.04-.24-.24-.41-.48-.41h-3.84c-.24 0-.43.17-.47.41l-.36 2.54c-.59.24-1.13.57-1.62.94l-2.39-.96c-.22-.08-.47 0-.59.22L2.74 8.87c-.12.21-.08.47.12.61l2.03 1.58c-.05.3-.09.63-.09.94s.02.64.07.94l-2.03 1.58c-.18.14-.23.41-.12.61l1.92 3.32c.12.22.37.29.59.22l2.39-.96c.5.38 1.03.7 1.62.94l.36 2.54c.05.24.24.41.48.41h3.84c.24 0 .44-.17.47-.41l.36-2.54c.59-.24 1.13-.56 1.62-.94l2.39.96c.22.08.47 0 .59-.22l1.92-3.32c.12-.22.07-.47-.12-.61l-2.01-1.58zM12 15.6c-1.98 0-3.6-1.62-3.6-3.6s1.62-3.6 3.6-3.6 3.6 1.62 3.6 3.6-1.62 3.6-3.6 3.6z"></path></g>
    <g id='setting' height="16px" viewBox="0 0 18 18" margin="5px" width="24px" fill="#ffffff"><path d="M0 0h24v24H0z" fill="none"/><path d="M19.14 12.94c.04-.3.06-.61.06-.94 0-.32-.02-.64-.07-.94l2.03-1.58c.18-.14.23-.41.12-.61l-1.92-3.32c-.12-.22-.37-.29-.59-.22l-2.39.96c-.5-.38-1.03-.7-1.62-.94l-.36-2.54c-.04-.24-.24-.41-.48-.41h-3.84c-.24 0-.43.17-.47.41l-.36 2.54c-.59.24-1.13.57-1.62.94l-2.39-.96c-.22-.08-.47 0-.59.22L2.74 8.87c-.12.21-.08.47.12.61l2.03 1.58c-.05.3-.09.63-.09.94s.02.64.07.94l-2.03 1.58c-.18.14-.23.41-.12.61l1.92 3.32c.12.22.37.29.59.22l2.39-.96c.5.38 1.03.7 1.62.94l.36 2.54c.05.24.24.41.48.41h3.84c.24 0 .44-.17.47-.41l.36-2.54c.59-.24 1.13-.56 1.62-.94l2.39.96c.22.08.47 0 .59-.22l1.92-3.32c.12-.22.07-.47-.12-.61l-2.01-1.58zM12 15.6c-1.98 0-3.6-1.62-3.6-3.6s1.62-3.6 3.6-3.6 3.6 1.62 3.6 3.6-1.62 3.6-3.6 3.6z"></path></g>
    <g id='lightcommunication' height="16px" viewBox="0 0 18 18" margin="5px" width="24px" fill="#cebaa8" ><path d="M0 0h24v24H0z" fill="none"/><path d="M3 9v6h4l5 5V4L7 9H3zm13.5 3c0-1.77-1.02-3.29-2.5-4.03v8.05c1.48-.73 2.5-2.25 2.5-4.02zM14 3.23v2.06c2.89.86 5 3.54 5 6.71s-2.11 5.85-5 6.71v2.06c4.01-.91 7-4.49 7-8.77s-2.99-7.86-7-8.77z"></path></g>
    <g id='communication' height="16px" viewBox="0 0 18 18" margin="5px" width="24px" fill="#fff" ><path d="M0 0h24v24H0z" fill="none"/><path d="M3 9v6h4l5 5V4L7 9H3zm13.5 3c0-1.77-1.02-3.29-2.5-4.03v8.05c1.48-.73 2.5-2.25 2.5-4.02zM14 3.23v2.06c2.89.86 5 3.54 5 6.71s-2.11 5.85-5 6.71v2.06c4.01-.91 7-4.49 7-8.77s-2.99-7.86-7-8.77z"></path></g>
    <g id='lightfinance' height="16px" viewBox="0 0 18 18" margin="5px" width="24px" fill="#cebaa8" ><path d="M0 0h24v24H0z" fill="none"/><path d="M5 8h2v8H5zm7 0H9c-.55 0-1 .45-1 1v6c0 .55.45 1 1 1h3c.55 0 1-.45 1-1V9c0-.55-.45-1-1-1zm-1 6h-1v-4h1v4zm7-6h-3c-.55 0-1 .45-1 1v6c0 .55.45 1 1 1h3c.55 0 1-.45 1-1V9c0-.55-.45-1-1-1zm-1 6h-1v-4h1v4z"></path><path d="M2 4v16h20V4H2zm2 14V6h16v12H4z"></path></g>
    <g id='finance' height="16px" viewBox="0 0 18 18" margin="5px" width="24px" fill="#fff" ><path d="M0 0h24v24H0z" fill="none"/><path d="M5 8h2v8H5zm7 0H9c-.55 0-1 .45-1 1v6c0 .55.45 1 1 1h3c.55 0 1-.45 1-1V9c0-.55-.45-1-1-1zm-1 6h-1v-4h1v4zm7-6h-3c-.55 0-1 .45-1 1v6c0 .55.45 1 1 1h3c.55 0 1-.45 1-1V9c0-.55-.45-1-1-1zm-1 6h-1v-4h1v4z"></path><path d="M2 4v16h20V4H2zm2 14V6h16v12H4z"></path></g>
    <g id='lightbooking' height="16px" viewBox="0 0 18 18" margin="5px" width="24px" fill="#cebaa8" ><path d="M0 0h24v24H0z" fill="none"/><path d="M4 6H2v14c0 1.1.9 2 2 2h14v-2H4V6zm16-4H8c-1.1 0-2 .9-2 2v12c0 1.1.9 2 2 2h12c1.1 0 2-.9 2-2V4c0-1.1-.9-2-2-2zm-1 9H9V9h10v2zm-4 4H9v-2h6v2zm4-8H9V5h10v2z"></path></g>
    <g id='booking' height="16px" viewBox="0 0 18 18" margin="5px" width="24px" fill="#fff" ><path d="M0 0h24v24H0z" fill="none"/><path d="M4 6H2v14c0 1.1.9 2 2 2h14v-2H4V6zm16-4H8c-1.1 0-2 .9-2 2v12c0 1.1.9 2 2 2h12c1.1 0 2-.9 2-2V4c0-1.1-.9-2-2-2zm-1 9H9V9h10v2zm-4 4H9v-2h6v2zm4-8H9V5h10v2z"></path></g>
    <g id='user'  height="16px" viewBox="0 0 18 18" margin="5px" width="24px" fill="#fff" ><path d="M0 0h24v24H0z" fill="none"/><path d="M12 12c2.21 0 4-1.79 4-4s-1.79-4-4-4-4 1.79-4 4 1.79 4 4 4zm0 2c-2.67 0-8 1.34-8 4v2h16v-2c0-2.66-5.33-4-8-4z"></path></g>
    <g id='lightuser'  height="16px" viewBox="0 0 18 18" margin="5px" width="24px" fill="#cebaa8" ><path d="M0 0h24v24H0z" fill="none"/><path d="M12 12c2.21 0 4-1.79 4-4s-1.79-4-4-4-4 1.79-4 4 1.79 4 4 4zm0 2c-2.67 0-8 1.34-8 4v2h16v-2c0-2.66-5.33-4-8-4z"></path></g>
    <g id='lighthome' height="16px" viewBox="0 0 18 18" margin="5px" width="24px" fill="#cebaa8" ><path d="M0 0h24v24H0z" fill="none"/><path d="M10 20v-6h4v6h5v-8h3L12 3 2 12h3v8z"></path></g>
    <g id='home' height="16px" viewBox="0 0 18 18" margin="5px" width="24px" fill="#fff" ><path d="M0 0h24v24H0z" fill="none"/><path d="M10 20v-6h4v6h5v-8h3L12 3 2 12h3v8z"></path></g>
    <g id='lightschedule' height="16px" viewBox="0 0 18 18" margin="5px" width="24px" fill="#cebaa8" ><path d="M0 0h24v24H0z" fill="none"/><path d="M19 4h-1V2h-2v2H8V2H6v2H5c-1.11 0-1.99.9-1.99 2L3 20c0 1.1.89 2 2 2h14c1.1 0 2-.9 2-2V6c0-1.1-.9-2-2-2zm0 16H5V10h14v10zM9 14H7v-2h2v2zm4 0h-2v-2h2v2zm4 0h-2v-2h2v2zm-8 4H7v-2h2v2zm4 0h-2v-2h2v2zm4 0h-2v-2h2v2z"></path></g>
    <g id='schedule' height="16px" viewBox="0 0 18 18" margin="5px" width="24px" fill="#fff" ><path d="M0 0h24v24H0z" fill="none"/><path d="M19 4h-1V2h-2v2H8V2H6v2H5c-1.11 0-1.99.9-1.99 2L3 20c0 1.1.89 2 2 2h14c1.1 0 2-.9 2-2V6c0-1.1-.9-2-2-2zm0 16H5V10h14v10zM9 14H7v-2h2v2zm4 0h-2v-2h2v2zm4 0h-2v-2h2v2zm-8 4H7v-2h2v2zm4 0h-2v-2h2v2zm4 0h-2v-2h2v2z"></path></g>
  </defs>
</svg>
