<svg xmlns="http://www.w3.org/2000/svg">
  <defs>

    <g id='lightresource' height="24px" viewBox="0 0 24 24" width="24px" fill="#cebaa8"><path d="M0 0h24v24H0z" fill="none"/><path d="M8.4 18.2c.38.5.6 1.12.6 1.8 0 1.66-1.34 3-3 3s-3-1.34-3-3 1.34-3 3-3c.44 0 .85.09 1.23.26l1.41-1.77c-.92-1.03-1.29-2.39-1.09-3.69l-2.03-.68c-.54.83-1.46 1.38-2.52 1.38-1.66 0-3-1.34-3-3s1.34-3 3-3 3 1.34 3 3c0 .07 0 .14-.01.21l2.03.68c.64-1.21 1.82-2.09 3.22-2.32V5.91C9.96 5.57 9 4.4 9 3c0-1.66 1.34-3 3-3s3 1.34 3 3c0 1.4-.96 2.57-2.25 2.91v2.16c1.4.23 2.58 1.11 3.22 2.32L18 9.71V9.5c0-1.66 1.34-3 3-3s3 1.34 3 3-1.34 3-3 3c-1.06 0-1.98-.55-2.52-1.37l-2.03.68c.2 1.29-.16 2.65-1.09 3.69l1.41 1.77c.38-.18.79-.27 1.23-.27 1.66 0 3 1.34 3 3s-1.34 3-3 3-3-1.34-3-3c0-.68.22-1.3.6-1.8l-1.41-1.77c-1.35.75-3.01.76-4.37 0L8.4 18.2z"></path></g>
    <g id='resource' height="24px" viewBox="0 0 24 24" width="24px" fill="#fff"><path d="M0 0h24v24H0z" fill="none"/><path d="M8.4 18.2c.38.5.6 1.12.6 1.8 0 1.66-1.34 3-3 3s-3-1.34-3-3 1.34-3 3-3c.44 0 .85.09 1.23.26l1.41-1.77c-.92-1.03-1.29-2.39-1.09-3.69l-2.03-.68c-.54.83-1.46 1.38-2.52 1.38-1.66 0-3-1.34-3-3s1.34-3 3-3 3 1.34 3 3c0 .07 0 .14-.01.21l2.03.68c.64-1.21 1.82-2.09 3.22-2.32V5.91C9.96 5.57 9 4.4 9 3c0-1.66 1.34-3 3-3s3 1.34 3 3c0 1.4-.96 2.57-2.25 2.91v2.16c1.4.23 2.58 1.11 3.22 2.32L18 9.71V9.5c0-1.66 1.34-3 3-3s3 1.34 3 3-1.34 3-3 3c-1.06 0-1.98-.55-2.52-1.37l-2.03.68c.2 1.29-.16 2.65-1.09 3.69l1.41 1.77c.38-.18.79-.27 1.23-.27 1.66 0 3 1.34 3 3s-1.34 3-3 3-3-1.34-3-3c0-.68.22-1.3.6-1.8l-1.41-1.77c-1.35.75-3.01.76-4.37 0L8.4 18.2z"></path></g>
    <g id='lightprogramManager' height="24px" viewBox="0 0 24 24" width="24px" fill="#cebaa8"><path d="M0 0h24v24H0z" fill="none"/><circle cx="10" cy="8" r="4"></circle><path d="M10.67 13.02c-.22-.01-.44-.02-.67-.02-2.42 0-4.68.67-6.61 1.82-.88.52-1.39 1.5-1.39 2.53V20h9.26c-.79-1.13-1.26-2.51-1.26-4 0-1.07.25-2.07.67-2.98zM20.75 16c0-.22-.03-.42-.06-.63l1.14-1.01-1-1.73-1.45.49c-.32-.27-.68-.48-1.08-.63L18 11h-2l-.3 1.49c-.4.15-.76.36-1.08.63l-1.45-.49-1 1.73 1.14 1.01c-.03.21-.06.41-.06.63s.03.42.06.63l-1.14 1.01 1 1.73 1.45-.49c.32.27.68.48 1.08.63L16 21h2l.3-1.49c.4-.15.76-.36 1.08-.63l1.45.49 1-1.73-1.14-1.01c.03-.21.06-.41.06-.63zM17 18c-1.1 0-2-.9-2-2s.9-2 2-2 2 .9 2 2-.9 2-2 2z"></path></g>
    <g id='programManager' height="24px" viewBox="0 0 24 24" width="24px" fill="#fff"><path d="M0 0h24v24H0z" fill="none"/><circle cx="10" cy="8" r="4"></circle><path d="M10.67 13.02c-.22-.01-.44-.02-.67-.02-2.42 0-4.68.67-6.61 1.82-.88.52-1.39 1.5-1.39 2.53V20h9.26c-.79-1.13-1.26-2.51-1.26-4 0-1.07.25-2.07.67-2.98zM20.75 16c0-.22-.03-.42-.06-.63l1.14-1.01-1-1.73-1.45.49c-.32-.27-.68-.48-1.08-.63L18 11h-2l-.3 1.49c-.4.15-.76.36-1.08.63l-1.45-.49-1 1.73 1.14 1.01c-.03.21-.06.41-.06.63s.03.42.06.63l-1.14 1.01 1 1.73 1.45-.49c.32.27.68.48 1.08.63L16 21h2l.3-1.49c.4-.15.76-.36 1.08-.63l1.45.49 1-1.73-1.14-1.01c.03-.21.06-.41.06-.63zM17 18c-1.1 0-2-.9-2-2s.9-2 2-2 2 .9 2 2-.9 2-2 2z"></path></g>
    <g id='lightoffering' height="24px" viewBox="0 0 24 24" width="24px" fill="#cebaa8"><path d="M0 0h24v24H0z" fill="none"/><path d="M20 2H4c-1 0-2 .9-2 2v3.01c0 .72.43 1.34 1 1.69V20c0 1.1 1.1 2 2 2h14c.9 0 2-.9 2-2V8.7c.57-.35 1-.97 1-1.69V4c0-1.1-1-2-2-2zm-5 12H9v-2h6v2zm5-7H4V4h16v3z"></path></g>
    <g id='offering' height="24px" viewBox="0 0 24 24" width="24px" fill="#fff"><path d="M0 0h24v24H0z" fill="none"/><path d="M20 2H4c-1 0-2 .9-2 2v3.01c0 .72.43 1.34 1 1.69V20c0 1.1 1.1 2 2 2h14c.9 0 2-.9 2-2V8.7c.57-.35 1-.97 1-1.69V4c0-1.1-1-2-2-2zm-5 12H9v-2h6v2zm5-7H4V4h16v3z"></path></g>
    <g id='lightsetting' height="16px" viewBox="0 0 18 18" margin="5px" width="24px" fill="#cebaa8"><path d="M0 0h24v24H0z" fill="none"/><path d="M19.14 12.94c.04-.3.06-.61.06-.94 0-.32-.02-.64-.07-.94l2.03-1.58c.18-.14.23-.41.12-.61l-1.92-3.32c-.12-.22-.37-.29-.59-.22l-2.39.96c-.5-.38-1.03-.7-1.62-.94l-.36-2.54c-.04-.24-.24-.41-.48-.41h-3.84c-.24 0-.43.17-.47.41l-.36 2.54c-.59.24-1.13.57-1.62.94l-2.39-.96c-.22-.08-.47 0-.59.22L2.74 8.87c-.12.21-.08.47.12.61l2.03 1.58c-.05.3-.09.63-.09.94s.02.64.07.94l-2.03 1.58c-.18.14-.23.41-.12.61l1.92 3.32c.12.22.37.29.59.22l2.39-.96c.5.38 1.03.7 1.62.94l.36 2.54c.05.24.24.41.48.41h3.84c.24 0 .44-.17.47-.41l.36-2.54c.59-.24 1.13-.56 1.62-.94l2.39.96c.22.08.47 0 .59-.22l1.92-3.32c.12-.22.07-.47-.12-.61l-2.01-1.58zM12 15.6c-1.98 0-3.6-1.62-3.6-3.6s1.62-3.6 3.6-3.6 3.6 1.62 3.6 3.6-1.62 3.6-3.6 3.6z"></path></g>
    <g id='setting' height="16px" viewBox="0 0 18 18" margin="5px" width="24px" fill="#ffffff"><path d="M0 0h24v24H0z" fill="none"/><path d="M19.14 12.94c.04-.3.06-.61.06-.94 0-.32-.02-.64-.07-.94l2.03-1.58c.18-.14.23-.41.12-.61l-1.92-3.32c-.12-.22-.37-.29-.59-.22l-2.39.96c-.5-.38-1.03-.7-1.62-.94l-.36-2.54c-.04-.24-.24-.41-.48-.41h-3.84c-.24 0-.43.17-.47.41l-.36 2.54c-.59.24-1.13.57-1.62.94l-2.39-.96c-.22-.08-.47 0-.59.22L2.74 8.87c-.12.21-.08.47.12.61l2.03 1.58c-.05.3-.09.63-.09.94s.02.64.07.94l-2.03 1.58c-.18.14-.23.41-.12.61l1.92 3.32c.12.22.37.29.59.22l2.39-.96c.5.38 1.03.7 1.62.94l.36 2.54c.05.24.24.41.48.41h3.84c.24 0 .44-.17.47-.41l.36-2.54c.59-.24 1.13-.56 1.62-.94l2.39.96c.22.08.47 0 .59-.22l1.92-3.32c.12-.22.07-.47-.12-.61l-2.01-1.58zM12 15.6c-1.98 0-3.6-1.62-3.6-3.6s1.62-3.6 3.6-3.6 3.6 1.62 3.6 3.6-1.62 3.6-3.6 3.6z"></path></g>
    <g id='lightcommunication' height="16px" viewBox="0 0 18 18" margin="5px" width="24px" fill="#cebaa8" ><path d="M0 0h24v24H0z" fill="none"/><path d="M3 9v6h4l5 5V4L7 9H3zm13.5 3c0-1.77-1.02-3.29-2.5-4.03v8.05c1.48-.73 2.5-2.25 2.5-4.02zM14 3.23v2.06c2.89.86 5 3.54 5 6.71s-2.11 5.85-5 6.71v2.06c4.01-.91 7-4.49 7-8.77s-2.99-7.86-7-8.77z"></path></g>
    <g id='communication' height="16px" viewBox="0 0 18 18" margin="5px" width="24px" fill="#fff" ><path d="M0 0h24v24H0z" fill="none"/><path d="M3 9v6h4l5 5V4L7 9H3zm13.5 3c0-1.77-1.02-3.29-2.5-4.03v8.05c1.48-.73 2.5-2.25 2.5-4.02zM14 3.23v2.06c2.89.86 5 3.54 5 6.71s-2.11 5.85-5 6.71v2.06c4.01-.91 7-4.49 7-8.77s-2.99-7.86-7-8.77z"></path></g>
    <g id='lightfinance' height="16px" viewBox="0 0 18 18" margin="5px" width="24px" fill="#cebaa8" ><path d="M0 0h24v24H0z" fill="none"/><path d="M5 8h2v8H5zm7 0H9c-.55 0-1 .45-1 1v6c0 .55.45 1 1 1h3c.55 0 1-.45 1-1V9c0-.55-.45-1-1-1zm-1 6h-1v-4h1v4zm7-6h-3c-.55 0-1 .45-1 1v6c0 .55.45 1 1 1h3c.55 0 1-.45 1-1V9c0-.55-.45-1-1-1zm-1 6h-1v-4h1v4z"></path><path d="M2 4v16h20V4H2zm2 14V6h16v12H4z"></path></g>
    <g id='finance' height="16px" viewBox="0 0 18 18" margin="5px" width="24px" fill="#fff" ><path d="M0 0h24v24H0z" fill="none"/><path d="M5 8h2v8H5zm7 0H9c-.55 0-1 .45-1 1v6c0 .55.45 1 1 1h3c.55 0 1-.45 1-1V9c0-.55-.45-1-1-1zm-1 6h-1v-4h1v4zm7-6h-3c-.55 0-1 .45-1 1v6c0 .55.45 1 1 1h3c.55 0 1-.45 1-1V9c0-.55-.45-1-1-1zm-1 6h-1v-4h1v4z"></path><path d="M2 4v16h20V4H2zm2 14V6h16v12H4z"></path></g>
    <g id='lightbooking' height="16px" viewBox="0 0 18 18" margin="5px" width="24px" fill="#cebaa8" ><path d="M0 0h24v24H0z" fill="none"/><path d="M4 6H2v14c0 1.1.9 2 2 2h14v-2H4V6zm16-4H8c-1.1 0-2 .9-2 2v12c0 1.1.9 2 2 2h12c1.1 0 2-.9 2-2V4c0-1.1-.9-2-2-2zm-1 9H9V9h10v2zm-4 4H9v-2h6v2zm4-8H9V5h10v2z"></path></g>
    <g id='booking' height="16px" viewBox="0 0 18 18" margin="5px" width="24px" fill="#fff" ><path d="M0 0h24v24H0z" fill="none"/><path d="M4 6H2v14c0 1.1.9 2 2 2h14v-2H4V6zm16-4H8c-1.1 0-2 .9-2 2v12c0 1.1.9 2 2 2h12c1.1 0 2-.9 2-2V4c0-1.1-.9-2-2-2zm-1 9H9V9h10v2zm-4 4H9v-2h6v2zm4-8H9V5h10v2z"></path></g>
    <g id='user'  height="16px" viewBox="0 0 18 18" margin="5px" width="24px" fill="#fff" ><path d="M0 0h24v24H0z" fill="none"/><path d="M12 12c2.21 0 4-1.79 4-4s-1.79-4-4-4-4 1.79-4 4 1.79 4 4 4zm0 2c-2.67 0-8 1.34-8 4v2h16v-2c0-2.66-5.33-4-8-4z"></path></g>
    <g id='lightuser'  height="16px" viewBox="0 0 18 18" margin="5px" width="24px" fill="#cebaa8" ><path d="M0 0h24v24H0z" fill="none"/><path d="M12 12c2.21 0 4-1.79 4-4s-1.79-4-4-4-4 1.79-4 4 1.79 4 4 4zm0 2c-2.67 0-8 1.34-8 4v2h16v-2c0-2.66-5.33-4-8-4z"></path></g>
    <g id='lighthome' height="16px" viewBox="0 0 18 18" margin="5px" width="24px" fill="#cebaa8" ><path d="M0 0h24v24H0z" fill="none"/><path d="M10 20v-6h4v6h5v-8h3L12 3 2 12h3v8z"></path></g>
    <g id='home' height="16px" viewBox="0 0 18 18" margin="5px" width="24px" fill="#fff" ><path d="M0 0h24v24H0z" fill="none"/><path d="M10 20v-6h4v6h5v-8h3L12 3 2 12h3v8z"></path></g>
    <g id='lightschedule' height="16px" viewBox="0 0 18 18" margin="5px" width="24px" fill="#cebaa8" ><path d="M0 0h24v24H0z" fill="none"/><path d="M19 4h-1V2h-2v2H8V2H6v2H5c-1.11 0-1.99.9-1.99 2L3 20c0 1.1.89 2 2 2h14c1.1 0 2-.9 2-2V6c0-1.1-.9-2-2-2zm0 16H5V10h14v10zM9 14H7v-2h2v2zm4 0h-2v-2h2v2zm4 0h-2v-2h2v2zm-8 4H7v-2h2v2zm4 0h-2v-2h2v2zm4 0h-2v-2h2v2z"></path></g>
    <g id='schedule' height="16px" viewBox="0 0 18 18" margin="5px" width="24px" fill="#fff" ><path d="M0 0h24v24H0z" fill="none"/><path d="M19 4h-1V2h-2v2H8V2H6v2H5c-1.11 0-1.99.9-1.99 2L3 20c0 1.1.89 2 2 2h14c1.1 0 2-.9 2-2V6c0-1.1-.9-2-2-2zm0 16H5V10h14v10zM9 14H7v-2h2v2zm4 0h-2v-2h2v2zm4 0h-2v-2h2v2zm-8 4H7v-2h2v2zm4 0h-2v-2h2v2zm4 0h-2v-2h2v2z"></path></g>
    <g id='close' height="16px" viewBox="0 0 18 18" margin="5px" width="24px" fill="#000" ><path d="M0 0h24v24H0z" fill="none"/><path d="M19 6.41 17.59 5 12 10.59 6.41 5 5 6.41 10.59 12 5 17.59 6.41 19 12 13.41 17.59 19 19 17.59 13.41 12z"></path></g>
    <g id='readeye' height="16px" viewBox="0 0 18 18" margin="5px" width="24px" fill="#03e8fc" ><path d="M0 0h24v24H0z" fill="none"/><path d="M12 4.5C7 4.5 2.73 7.61 1 12c1.73 4.39 6 7.5 11 7.5s9.27-3.11 11-7.5c-1.73-4.39-6-7.5-11-7.5zM12 17c-2.76 0-5-2.24-5-5s2.24-5 5-5 5 2.24 5 5-2.24 5-5 5zm0-8c-1.66 0-3 1.34-3 3s1.34 3 3 3 3-1.34 3-3-1.34-3-3-3z"></path></g>
    <g id='unreadeye' height="16px" viewBox="0 0 18 18" margin="5px" width="24px" fill="#000" ><path d="M0 0h24v24H0z" fill="none"/><path d="M12 4.5C7 4.5 2.73 7.61 1 12c1.73 4.39 6 7.5 11 7.5s9.27-3.11 11-7.5c-1.73-4.39-6-7.5-11-7.5zM12 17c-2.76 0-5-2.24-5-5s2.24-5 5-5 5 2.24 5 5-2.24 5-5 5zm0-8c-1.66 0-3 1.34-3 3s1.34 3 3 3 3-1.34 3-3-1.34-3-3-3z"></path></g>
    <g id='done' height="16px" viewBox="0 0 18 18" margin="5px" width="24px" fill="#198754" ><path d="M0 0h24v24H0z" fill="none"/><path d="M12 2C6.48 2 2 6.48 2 12s4.48 10 10 10 10-4.48 10-10S17.52 2 12 2zm-2 15-5-5 1.41-1.41L10 14.17l7.59-7.59L19 8l-9 9z"></path></g>
    <g id='cancel'  height="16px" viewBox="0 0 18 18" margin="5px" width="24px" fill="#ff0000" ><path d="M0 0h24v24H0z" fill="none"/><path d="M12 2C6.47 2 2 6.47 2 12s4.47 10 10 10 10-4.47 10-10S17.53 2 12 2zm5 13.59L15.59 17 12 13.41 8.41 17 7 15.59 10.59 12 7 8.41 8.41 7 12 10.59 15.59 7 17 8.41 13.41 12 17 15.59z"></path></g>
    <g id='rightchevron'  height="16px" viewBox="0 0 18 18" margin="5px" width="24px" fill="#000" ><path d="M0 0h24v24H0z" fill="none"/><path d="M6.23 20.23 8 22l10-10L8 2 6.23 3.77 14.46 12z"></path></g>
    <g id='edit'  height="16px" viewBox="0 0 18 18" margin="5px" width="24px" fill="#000" ><path d="M0 0h24v24H0z" fill="none"/><path d="M3 17.25V21h3.75L17.81 9.94l-3.75-3.75L3 17.25zM20.71 7.04c.39-.39.39-1.02 0-1.41l-2.34-2.34a.9959.9959 0 0 0-1.41 0l-1.83 1.83 3.75 3.75 1.83-1.83z"></path></g>
    <g id='info' height="16px" viewBox="0 0 18 18" margin="5px" width="24px" fill="#000" ><path d="M0 0h24v24H0z" fill="none"/><path d="M12 2C6.48 2 2 6.48 2 12s4.48 10 10 10 10-4.48 10-10S17.52 2 12 2zm1 15h-2v-6h2v6zm0-8h-2V7h2v2z"></path></g>
    <g  id='linkicon' height="16px"  viewBox="0 0 18 18" ><path d="M18.3338 1.6645C16.1144 -0.554832 12.5017 -0.554832 10.2824 1.6645L7.40948 4.53742C7.24645 4.70261 7.09562 4.87642 6.957 5.05526C7.85916 4.82796 8.79945 4.79588 9.715 4.96117C9.9003 4.99349 10.0849 5.03443 10.268 5.08327L10.2745 5.1278L12.0133 3.38897C12.3149 3.08667 12.6731 2.84684 13.0675 2.6832C13.4619 2.51956 13.8847 2.43533 14.3117 2.43533C14.7387 2.43533 15.1614 2.51956 15.5558 2.6832C15.9502 2.84684 16.3084 3.08667 16.61 3.38897C17.8741 4.66023 17.8813 6.72155 16.61 7.98563L13.7371 10.8586C13.1912 11.4044 12.4945 11.6989 11.7835 11.7779C10.8426 11.8784 9.85865 11.584 9.14042 10.8586C8.67154 10.3857 8.36045 9.77928 8.24981 9.12259C7.73859 9.18519 7.26238 9.41497 6.89523 9.77618L6.11523 10.5569C6.39832 11.3178 6.84223 12.0086 7.41667 12.5823C8.23842 13.4057 9.2945 13.955 10.4404 14.1552C11.3437 14.3127 12.2716 14.2513 13.1463 13.9764C14.0211 13.7015 14.8172 13.221 15.468 12.5751L18.3409 9.7022C20.5531 7.49724 20.5531 3.88383 18.3338 1.6645Z" fill="#F2F2F2"/><path d="M12.5888 15.4695C12.7546 15.3017 12.9098 15.1238 13.0535 14.9366C12.1489 15.1645 11.2065 15.1995 10.2876 15.0393C10.0869 15.0041 9.88724 14.9595 9.69071 14.9057L7.98492 16.6115C7.68336 16.9138 7.32513 17.1536 6.93074 17.3173C6.53636 17.4809 6.11357 17.5651 5.68658 17.5651C5.2596 17.5651 4.8368 17.4809 4.44242 17.3173C4.04803 17.1536 3.68981 16.9138 3.38825 16.6115C3.08596 16.31 2.84612 15.9517 2.68248 15.5573C2.51884 15.163 2.43461 14.7402 2.43461 14.3132C2.43461 13.8862 2.51884 13.4634 2.68248 13.069C2.84612 12.6746 3.08596 12.3164 3.38825 12.0148L6.26117 9.14192C6.80702 8.59607 7.5037 8.30159 8.21475 8.22259C9.15563 8.12204 10.1396 8.41651 10.8578 9.14192C11.3271 9.61444 11.6387 10.2206 11.7499 10.8772C12.2608 10.8144 12.7367 10.5846 13.1037 10.2236L13.8837 9.44286C13.6005 8.6819 13.1563 7.99103 12.5816 7.41745C11.7598 6.59409 10.7038 6.04473 9.55784 5.84453C8.43881 5.64296 7.28502 5.78312 6.2468 6.24674C5.62912 6.51967 5.04736 6.90751 4.53742 7.41745L1.6645 10.2904C-0.554832 12.5097 -0.554832 16.1224 1.6645 18.3417C3.88383 20.5611 7.49652 20.5611 9.71585 18.3417L12.5888 15.4695Z" fill="#F2F2F2"/></g>
    <g  id='workout' height="25px"  viewBox="0 0 25 25" ><path d="M20.57 14.86 22 13.43 20.57 12 17 15.57 8.43 7 12 3.43 10.57 2 9.14 3.43 7.71 2 5.57 4.14 4.14 2.71 2.71 4.14l1.43 1.43L2 7.71l1.43 1.43L2 10.57 3.43 12 7 8.43 15.57 17 12 20.57 13.43 22l1.43-1.43L16.29 22l2.14-2.14 1.43 1.43 1.43-1.43-1.43-1.43L22 16.29z" fill="white"/></g>
    <g  id='ai' height="25px"  viewBox="0 0 25 25" ><path d="M15.8333 7.41417V4.935C15.8333 4.49297 15.6577 4.06905 15.3452 3.75649C15.0326 3.44393 14.6087 3.26833 14.1667 3.26833H9.16667V2.175C9.42083 1.94667 9.58333 1.61833 9.58333 1.25C9.58333 0.918479 9.45164 0.600537 9.21722 0.366117C8.9828 0.131696 8.66485 0 8.33333 0C8.00181 0 7.68387 0.131696 7.44945 0.366117C7.21503 0.600537 7.08333 0.918479 7.08333 1.25C7.08333 1.61833 7.24583 1.94667 7.5 2.175V3.26833H2.5C2.05797 3.26833 1.63405 3.44393 1.32149 3.75649C1.00893 4.06905 0.833333 4.49297 0.833333 4.935V7.43333L0.773333 7.4375C0.56324 7.45247 0.366629 7.54652 0.223125 7.70069C0.07962 7.85487 -0.000110828 8.05771 1.15627e-07 8.26833V9.935C1.15627e-07 10.156 0.0877974 10.368 0.244078 10.5243C0.400358 10.6805 0.61232 10.7683 0.833333 10.7683V14.935C0.833333 15.377 1.00893 15.8009 1.32149 16.1135C1.63405 16.4261 2.05797 16.6017 2.5 16.6017H14.1667C14.6087 16.6017 15.0326 16.4261 15.3452 16.1135C15.6577 15.8009 15.8333 15.377 15.8333 14.935V10.7683C16.0543 10.7683 16.2663 10.6805 16.4226 10.5243C16.5789 10.368 16.6667 10.156 16.6667 9.935V8.32C16.6763 8.19067 16.6558 8.06086 16.6067 7.94083C16.4383 7.53417 16.0775 7.43667 15.8333 7.41417ZM4.16667 8.26833C4.16667 7.34833 4.72667 6.60167 5.41667 6.60167C6.10667 6.60167 6.66667 7.34833 6.66667 8.26833C6.66667 9.18833 6.10667 9.935 5.41667 9.935C4.72667 9.935 4.16667 9.18833 4.16667 8.26833ZM11.665 13.2683C10.8308 13.2658 5 13.2683 5 13.2683V11.6017C5 11.6017 10.8342 11.6 11.6683 11.6017L11.665 13.2683ZM11.25 9.935C10.56 9.935 10 9.18833 10 8.26833C10 7.34833 10.56 6.60167 11.25 6.60167C11.94 6.60167 12.5 7.34833 12.5 8.26833C12.5 9.18833 11.94 9.935 11.25 9.935Z" fill="white"/></g>
    <g  id='create' height="25px"  viewBox="0 0 25 25" ><path fill-rule="evenodd" clip-rule="evenodd" d="M6.66667 0V5.41667C6.66668 5.7274 6.78243 6.02699 6.99135 6.25702C7.20026 6.48704 7.48737 6.631 7.79667 6.66083L7.91667 6.66667H13.3333V15C13.3335 15.4205 13.1747 15.8255 12.8888 16.1338C12.6028 16.4421 12.211 16.631 11.7917 16.6625L11.6667 16.6667H1.66667C1.24619 16.6668 0.841195 16.508 0.532877 16.2221C0.224559 15.9362 0.0357029 15.5443 0.00416685 15.125L8.35567e-08 15V1.66667C-0.000132983 1.24619 0.158672 0.841194 0.444581 0.532877C0.73049 0.224559 1.12237 0.0357028 1.54167 0.00416676L1.66667 0H6.66667ZM6.66667 7.91667C6.46256 7.91669 6.26555 7.99163 6.11302 8.12726C5.96049 8.26289 5.86305 8.44979 5.83917 8.6525L5.83333 8.75V10H4.58333C4.37093 10.0002 4.16664 10.0816 4.01219 10.2274C3.85775 10.3732 3.7648 10.5725 3.75236 10.7845C3.73991 10.9965 3.8089 11.2053 3.94522 11.3682C4.08155 11.5311 4.27492 11.6357 4.48583 11.6608L4.58333 11.6667H5.83333V12.9167C5.83357 13.1291 5.9149 13.3334 6.06071 13.4878C6.20651 13.6423 6.40579 13.7352 6.61783 13.7476C6.82986 13.7601 7.03865 13.6911 7.20153 13.5548C7.3644 13.4185 7.46908 13.2251 7.49417 13.0142L7.5 12.9167V11.6667H8.75C8.9624 11.6664 9.16669 11.5851 9.32114 11.4393C9.47559 11.2935 9.56853 11.0942 9.58098 10.8822C9.59342 10.6701 9.52444 10.4614 9.38811 10.2985C9.25179 10.1356 9.05841 10.0309 8.8475 10.0058L8.75 10H7.5V8.75C7.5 8.52899 7.4122 8.31702 7.25592 8.16074C7.09964 8.00446 6.88768 7.91667 6.66667 7.91667ZM8.33333 0.0358333C8.60282 0.0930414 8.85391 0.216157 9.06417 0.394167L9.16667 0.488333L12.845 4.16667C13.0403 4.36176 13.184 4.60229 13.2633 4.86667L13.2967 5H8.33333V0.0358333Z" fill="white"/>
    <g  id='library' height="25px"  viewBox="0 0 25 25" ><path d="M1.5 0C0.67 0 0 0.67 0 1.498V14.479C0 15.307 0.671 15.977 1.5 15.977H2.5C3.327 15.977 3.999 15.307 3.999 14.479V1.498C3.999 0.67 3.327 0 2.499 0H1.5ZM6.498 0C5.67 0 4.998 0.67 4.998 1.498V14.479C4.998 15.307 5.67 15.977 6.498 15.977H7.498C8.326 15.977 8.997 15.307 8.997 14.479V1.498C8.997 0.671 8.326 0 7.497 0H6.497H6.498ZM13.718 4.157C13.6723 3.95904 13.5869 3.77243 13.4669 3.60848C13.3469 3.44453 13.1949 3.30666 13.02 3.20324C12.8452 3.09982 12.6511 3.03299 12.4496 3.00682C12.2482 2.98065 12.0435 2.99568 11.848 3.051L11.103 3.261C10.739 3.3639 10.4275 3.60068 10.2308 3.9238C10.0342 4.24692 9.96712 4.63245 10.043 5.003L12.046 14.802C12.0869 15.0006 12.1677 15.1889 12.2834 15.3554C12.3992 15.5219 12.5474 15.6632 12.7193 15.7708C12.8912 15.8784 13.0832 15.95 13.2835 15.9813C13.4839 16.0126 13.6885 16.003 13.885 15.953L14.87 15.703C15.66 15.503 16.144 14.709 15.962 13.916L13.718 4.157Z" fill="#F2F2F2"/></g>
    <g  id='activeprograms' height="25px"  viewBox="0 0 25 25" ><path d="M10.5417 5V0H14.9792V5H10.5417ZM5.27083 5V0H9.70833V5H5.27083ZM0 5V0H4.4375V5H0ZM0 10.8333V5.83333H4.4375V10.8333H0ZM5.27083 10.8333V5.83333H9.70833V10.8333H5.27083ZM10.5417 10.8333V5.83333H14.9792V10.8333H10.5417Z" fill="white"/></g>
    <g  id='view' height="25px"  viewBox="0 0 25 25" ><path fill-rule="evenodd" clip-rule="evenodd" d="M0.0571675 6.36333C1.50217 2.66167 4.903 0 9.16633 0C13.4297 0 16.8305 2.66167 18.2755 6.36333C18.3517 6.55837 18.3517 6.77496 18.2755 6.97C16.8305 10.6717 13.4297 13.3333 9.16633 13.3333C4.903 13.3333 1.50217 10.6717 0.0571675 6.97C-0.0190558 6.77496 -0.0190558 6.55837 0.0571675 6.36333ZM9.16633 9.16667C9.82938 9.16667 10.4653 8.90327 10.9341 8.43443C11.4029 7.96559 11.6663 7.32971 11.6663 6.66667C11.6663 6.00363 11.4029 5.36774 10.9341 4.8989C10.4653 4.43006 9.82938 4.16667 9.16633 4.16667C8.50329 4.16667 7.86741 4.43006 7.39857 4.8989C6.92973 5.36774 6.66633 6.00363 6.66633 6.66667C6.66633 7.32971 6.92973 7.96559 7.39857 8.43443C7.86741 8.90327 8.50329 9.16667 9.16633 9.16667Z" fill="white"/></g>
    <g  id='markday' height="25px"  viewBox="0 0 25 25" ><path d="M5 0C5.69141 0 6.25 0.558594 6.25 1.25V2.5H11.25V1.25C11.25 0.558594 11.8086 0 12.5 0C13.1914 0 13.75 0.558594 13.75 1.25V2.5H15.625C16.6602 2.5 17.5 3.33984 17.5 4.375V6.25H0V4.375C0 3.33984 0.839844 2.5 1.875 2.5H3.75V1.25C3.75 0.558594 4.30859 0 5 0ZM0 7.5H17.5V18.125C17.5 19.1602 16.6602 20 15.625 20H1.875C0.839844 20 0 19.1602 0 18.125V7.5ZM3.125 10C2.78125 10 2.5 10.2812 2.5 10.625V14.375C2.5 14.7188 2.78125 15 3.125 15H6.875C7.21875 15 7.5 14.7188 7.5 14.375V10.625C7.5 10.2812 7.21875 10 6.875 10H3.125Z" fill="white"/><path d="M5.98165 13.6067L5.37496 13L5.98165 12.3933C5.99328 12.3815 5.99979 12.3657 5.99979 12.3491C5.99979 12.3326 5.99328 12.3167 5.98165 12.3049L5.69505 12.0183C5.68926 12.0125 5.68237 12.0079 5.67479 12.0048C5.66721 12.0016 5.65908 12 5.65087 12C5.64266 12 5.63453 12.0016 5.62695 12.0048C5.61937 12.0079 5.61248 12.0125 5.60669 12.0183L5 12.625L4.39331 12.0183C4.38159 12.0066 4.3657 12.0001 4.34913 12.0001C4.33256 12.0001 4.31666 12.0066 4.30495 12.0183L4.01835 12.3049C4.01253 12.3107 4.00792 12.3176 4.00477 12.3252C4.00162 12.3328 4 12.3409 4 12.3491C4 12.3573 4.00162 12.3655 4.00477 12.373C4.00792 12.3806 4.01253 12.3875 4.01835 12.3933L4.62504 13L4.01835 13.6067C4.00663 13.6184 4.00005 13.6343 4.00005 13.6509C4.00005 13.6674 4.00663 13.6833 4.01835 13.6951L4.30495 13.9817C4.31074 13.9875 4.31763 13.9921 4.32521 13.9952C4.33279 13.9984 4.34092 14 4.34913 14C4.35734 14 4.36547 13.9984 4.37305 13.9952C4.38063 13.9921 4.38752 13.9875 4.39331 13.9817L5 13.375L5.60669 13.9817C5.61841 13.9934 5.6343 13.9999 5.65087 13.9999C5.66744 13.9999 5.68334 13.9934 5.69505 13.9817L5.98165 13.6951C5.98747 13.6893 5.99208 13.6824 5.99523 13.6748C5.99838 13.6672 6 13.6591 6 13.6509C6 13.6427 5.99838 13.6345 5.99523 13.627C5.99208 13.6194 5.98747 13.6125 5.98165 13.6067Z" fill="white"/></g>
    <g  id='expandless' height="25px"  viewBox="0 0 25 25" fill="#fff"><path d="m12 8-6 6 1.41 1.41L12 10.83l4.59 4.58L18 14z"></path></g>
</g>
  </defs>
</svg>