<svg xmlns="http://www.w3.org/2000/svg">
  <defs>
    <g id='dashboard' viewBox="0 0 24 24" width="18px" height="18px"><path d="M0 0h24v24H0V0z" fill="none"/><path d="M4 13h6c.55 0 1-.45 1-1V4c0-.55-.45-1-1-1H4c-.55 0-1 .45-1 1v8c0 .55.45 1 1 1zm0 8h6c.55 0 1-.45 1-1v-4c0-.55-.45-1-1-1H4c-.55 0-1 .45-1 1v4c0 .55.45 1 1 1zm10 0h6c.55 0 1-.45 1-1v-8c0-.55-.45-1-1-1h-6c-.55 0-1 .45-1 1v8c0 .55.45 1 1 1zM13 4v4c0 .55.45 1 1 1h6c.55 0 1-.45 1-1V4c0-.55-.45-1-1-1h-6c-.55 0-1 .45-1 1z"/></g>
    <g id='employees' enable-background="new 0 0 24 24" viewBox="0 0 24 24" width="18px" height="18px"><rect fill="none" height="24" width="24"/><g><path d="M12,12.75c1.63,0,3.07,0.39,4.24,0.9c1.08,0.48,1.76,1.56,1.76,2.73L18,17c0,0.55-0.45,1-1,1H7c-0.55,0-1-0.45-1-1l0-0.61 c0-1.18,0.68-2.26,1.76-2.73C8.93,13.14,10.37,12.75,12,12.75z M4,13c1.1,0,2-0.9,2-2c0-1.1-0.9-2-2-2s-2,0.9-2,2 C2,12.1,2.9,13,4,13z M5.13,14.1C4.76,14.04,4.39,14,4,14c-0.99,0-1.93,0.21-2.78,0.58C0.48,14.9,0,15.62,0,16.43L0,17 c0,0.55,0.45,1,1,1l3.5,0v-1.61C4.5,15.56,4.73,14.78,5.13,14.1z M20,13c1.1,0,2-0.9,2-2c0-1.1-0.9-2-2-2s-2,0.9-2,2 C18,12.1,18.9,13,20,13z M24,16.43c0-0.81-0.48-1.53-1.22-1.85C21.93,14.21,20.99,14,20,14c-0.39,0-0.76,0.04-1.13,0.1 c0.4,0.68,0.63,1.46,0.63,2.29V18l3.5,0c0.55,0,1-0.45,1-1L24,16.43z M12,6c1.66,0,3,1.34,3,3c0,1.66-1.34,3-3,3s-3-1.34-3-3 C9,7.34,10.34,6,12,6z"/></g></g>
    <g id='feedback' viewBox="0 0 24 24"  width="18px" height="18px"><path d="M0 0h24v24H0V0z" fill="none"/><path d="M20 2H4.01c-1.1 0-2 .9-2 2v18L6 18h14c1.1 0 2-.9 2-2V4c0-1.1-.9-2-2-2zm-7 12h-2v-2h2v2zm0-5c0 .55-.45 1-1 1s-1-.45-1-1V7c0-.55.45-1 1-1s1 .45 1 1v2z"/></g>
    <g id='follow_up' viewBox="0 0 24 24" width="18px" height="18px"><path d="M0 0h24v24H0V0z" fill="none"/><path d="M20 3h-7c-.55 0-1 .45-1 1v9l3-3h5c.55 0 1-.45 1-1V4c0-.55-.45-1-1-1zm-.77 12.26l-2.54-.29c-.61-.07-1.21.14-1.64.57l-1.84 1.84c-2.83-1.44-5.15-3.75-6.59-6.59l1.85-1.85c.43-.43.64-1.03.57-1.64l-.29-2.52c-.12-1.01-.97-1.77-1.99-1.77H5.03c-1.13 0-2.07.94-2 2.07.53 8.54 7.36 15.36 15.89 15.89 1.13.07 2.07-.87 2.07-2v-1.73c.01-1.01-.75-1.86-1.76-1.98z"/></g>
    <g id='products' viewBox="0 0 24 24" width="18px" height="18px"><path d="M0 0h24v24H0V0z" fill="none"/><path d="M11.15 3.4L7.43 9.48c-.41.66.07 1.52.85 1.52h7.43c.78 0 1.26-.86.85-1.52L12.85 3.4c-.39-.64-1.31-.64-1.7 0z"/><circle cx="17.5" cy="17.5" r="4.5"/><path d="M4 21.5h6c.55 0 1-.45 1-1v-6c0-.55-.45-1-1-1H4c-.55 0-1 .45-1 1v6c0 .55.45 1 1 1z"/></g>
    <g id='stores' viewBox="0 0 24 24" width="18px" height="18px"><path d="M0 0h24v24H0V0z" fill="none"/><path d="M5 6h14c.55 0 1-.45 1-1s-.45-1-1-1H5c-.55 0-1 .45-1 1s.45 1 1 1zm15.16 1.8c-.09-.46-.5-.8-.98-.8H4.82c-.48 0-.89.34-.98.8l-1 5c-.12.62.35 1.2.98 1.2H4v5c0 .55.45 1 1 1h8c.55 0 1-.45 1-1v-5h4v5c0 .55.45 1 1 1s1-.45 1-1v-5h.18c.63 0 1.1-.58.98-1.2l-1-5zM12 18H6v-4h6v4z"/></g>
    <g id='orders' enable-background="new 0 0 24 24" viewBox="0 0 24 24" width="18px" height="18px"><rect fill="none" height="24" width="24"/><g><path d="M3,5v14h18V5H3z M7,7v2H5V7H7z M5,13v-2h2v2H5z M5,15h2v2H5V15z M19,17H9v-2h10V17z M19,13H9v-2h10V13z M19,9H9V7h10V9z"/></g></g>
    <g id='message_template' viewBox="0 0 24 24" width="18px" height="18px"><path d="M0 0h24v24H0z" fill="none"/><path d="M20 2H4c-1.1 0-1.99.9-1.99 2L2 22l4-4h14c1.1 0 2-.9 2-2V4c0-1.1-.9-2-2-2zm-2 12H6v-2h12v2zm0-3H6V9h12v2zm0-3H6V6h12v2z"/></g>
    <g id='integrations' enable-background="new 0 0 24 24" height="24px" viewBox="0 0 24 24" width="24px"><g><rect fill="none" height="24" width="24"/></g><g><g><path d="M21,14c0-0.55-0.45-1-1-1h-2v2h2C20.55,15,21,14.55,21,14z"/><path d="M20,17h-2v2h2c0.55,0,1-0.45,1-1C21,17.45,20.55,17,20,17z"/><path d="M12,14h-2v4h2c0,1.1,0.9,2,2,2h3v-8h-3C12.9,12,12,12.9,12,14z"/><path d="M5,13c0-1.1,0.9-2,2-2h1.5c1.93,0,3.5-1.57,3.5-3.5S10.43,4,8.5,4H5C4.45,4,4,4.45,4,5c0,0.55,0.45,1,1,1h3.5 C9.33,6,10,6.67,10,7.5S9.33,9,8.5,9H7c-2.21,0-4,1.79-4,4c0,2.21,1.79,4,4,4h2v-2H7C5.9,15,5,14.1,5,13z"/></g></g></g>
    <g id='admin' enable-background="new 0 0 24 24" height="24px" viewBox="0 0 24 24" width="24px"><path d="M24.74,14.23a.93.93,0,0,0-.34-.5l-.48-.42,0-.07,0-.27,0-.63a.14.14,0,0,1,0-.07l.57-.57a1,1,0,0,0,.17-.28,1,1,0,0,0-.06-.85l-1-1.76A1,1,0,0,0,23,8.38a1.08,1.08,0,0,0-.61,0l-.61.22-.52-.23-.34-.22a.15.15,0,0,1,0-.06l-.2-.78A1,1,0,0,0,20.5,7,1,1,0,0,0,20,6.71a1,1,0,0,0-.3,0h-2a1,1,0,0,0-.67.27.94.94,0,0,0-.28.54l-.13.63,0,.07-.23.15-.56.28H15.7l-.78-.22a1,1,0,0,0-.84.21.94.94,0,0,0-.19.24l-1,1.76a1,1,0,0,0-.1.72.93.93,0,0,0,.33.51l.47.43,0,.07,0,.84v.09a.15.15,0,0,1,0,.07l-.59.56a1,1,0,0,0-.24.83.94.94,0,0,0,.11.29l1,1.78a1,1,0,0,0,.56.45,1.14,1.14,0,0,0,.61,0l.61-.19h.08l.24.12.52.35a.14.14,0,0,1,0,.06l.19.79a.93.93,0,0,0,.14.29.95.95,0,0,0,.76.39l2.05,0a1,1,0,0,0,.66-.26.93.93,0,0,0,.29-.53l.15-.62,0-.07.77-.49.17-.1h.08l.78.21a1,1,0,0,0,.84-.23.94.94,0,0,0,.19-.24l1-1.79A1,1,0,0,0,24.74,14.23Zm-1.94.53-.36.65a2.5,2.5,0,0,0-3.29,2h-.91a2.49,2.49,0,0,0-3.21-2l-.37-.67A2.49,2.49,0,0,0,14.62,11l.43-.74a2.49,2.49,0,0,0,.79.14,2.52,2.52,0,0,0,2.46-2h.83a2.49,2.49,0,0,0,3.31,1.85l.42.73a2.48,2.48,0,0,0-.05,3.81Z"/><path d="M12.89,1.21A4.64,4.64,0,0,0,9.7,0,4.64,4.64,0,0,0,6.51,1.21,4.86,4.86,0,0,0,5.18,5.07,5.21,5.21,0,0,0,6.67,8.13a4.29,4.29,0,0,0,3,1.71h0a4.27,4.27,0,0,0,3-1.71,5.22,5.22,0,0,0,1.49-3.06A4.86,4.86,0,0,0,12.89,1.21Zm-.36,3.7a3.56,3.56,0,0,1-1,2.08C11,7.47,10.42,8.13,9.7,8.14S8.48,7.59,7.92,7a3.55,3.55,0,0,1-1-2.08,3.19,3.19,0,0,1,.81-2.46,3,3,0,0,1,2-.74,3,3,0,0,1,2,.74A3.19,3.19,0,0,1,12.53,4.9Z"/><path d="M11.76,17.39H1.92a7.91,7.91,0,0,1,4.57-5.25,6.73,6.73,0,0,0,3.1.82H9.7a6.56,6.56,0,0,0,.76-.05.85.85,0,0,0-.24-1.68,4.48,4.48,0,0,1-.52,0H9.61a5.09,5.09,0,0,1-2.72-.86.52.52,0,0,0-.29-.09.55.55,0,0,0-.18,0A9.63,9.63,0,0,0,0,18.4a.67.67,0,0,0,.11.4.74.74,0,0,0,.58.29H11.76a.85.85,0,0,0,0-1.7Z"/><circle cx="18.75" cy="12.8" r="1.29"/></g>
    <g id='my_company' enable-background="new 0 0 24 24" height="24px" viewBox="0 0 24 24" width="24px"><path d="M17 11V3H7v4H3v14h8v-4h2v4h8V11h-4zM7 19H5v-2h2v2zm0-4H5v-2h2v2zm0-4H5V9h2v2zm4 4H9v-2h2v2zm0-4H9V9h2v2zm0-4H9V5h2v2zm4 8h-2v-2h2v2zm0-4h-2V9h2v2zm0-4h-2V5h2v2zm4 12h-2v-2h2v2zm0-4h-2v-2h2v2z"></path></g>
    <g id='support' enable-background="new 0 0 24 24" height="24px" viewBox="0 0 24 24" width="24px"><path d="M21 8V7l-3 2-3-2v1l3 2 3-2zm1-5H2C.9 3 0 3.9 0 5v14c0 1.1.9 2 2 2h20c1.1 0 1.99-.9 1.99-2L24 5c0-1.1-.9-2-2-2zM8 6c1.66 0 3 1.34 3 3s-1.34 3-3 3-3-1.34-3-3 1.34-3 3-3zm6 12H2v-1c0-2 4-3.1 6-3.1s6 1.1 6 3.1v1zm8-6h-8V6h8v6z"></path><circle cx="18.75" cy="12.8" r="1.29"/></g>
    <g id='coupon' enable-background="new 0 0 24 24" height="24px" viewBox="0 0 24 24" width="24px" ><path d="M0 0h24v24H0z" fill="none"/><path d="M12.79 21 3 11.21v2c0 .53.21 1.04.59 1.41l7.79 7.79c.78.78 2.05.78 2.83 0l6.21-6.21c.78-.78.78-2.05 0-2.83L12.79 21z"></path><path d="M11.38 17.41c.78.78 2.05.78 2.83 0l6.21-6.21c.78-.78.78-2.05 0-2.83L12.63.58C12.25.21 11.74 0 11.21 0H5C3.9 0 3 .9 3 2v6.21c0 .53.21 1.04.59 1.41l7.79 7.79zM7.25 3c.69 0 1.25.56 1.25 1.25S7.94 5.5 7.25 5.5 6 4.94 6 4.25 6.56 3 7.25 3z"></path></g>
    <g id='inventory_management' enable-background="new 0 0 24 24" height="24px" viewBox="0 0 24 24" width="24px" ><path d="M0 0h24v24H0z" fill="none"/><path d="M20 2H4c-1 0-2 .9-2 2v3.01c0 .72.43 1.34 1 1.69V20c0 1.1 1.1 2 2 2h14c.9 0 2-.9 2-2V8.7c.57-.35 1-.97 1-1.69V4c0-1.1-1-2-2-2zm-5 12H9v-2h6v2zm5-7H4V4l16-.02V7z"></path></g>

    <g id='missing' viewBox="0 0 24 24" width="18px" height="18px"><circle cx="10" cy="8" r="4"/><path d="M10.35,14.01C7.62,13.91,2,15.27,2,18v2h9.54C9.07,17.24,10.31,14.11,10.35,14.01z"/><path d="M19.43,18.02C19.79,17.43,20,16.74,20,16c0-2.21-1.79-4-4-4s-4,1.79-4,4c0,2.21,1.79,4,4,4c0.74,0,1.43-0.22,2.02-0.57 L20.59,22L22,20.59L19.43,18.02z M16,18c-1.1,0-2-0.9-2-2c0-1.1,0.9-2,2-2s2,0.9,2,2C18,17.1,17.1,18,16,18z"/></g>
    <g id='order' height="24px" viewBox="0 0 24 24" width="24px"><path d="M0 0h24v24H0z" fill="none"/><path d="M7 18c-1.1 0-1.99.9-1.99 2S5.9 22 7 22s2-.9 2-2-.9-2-2-2zM1 2v2h2l3.6 7.59-1.35 2.45c-.16.28-.25.61-.25.96 0 1.1.9 2 2 2h12v-2H7.42c-.14 0-.25-.11-.25-.25l.03-.12.9-1.63h7.45c.75 0 1.41-.41 1.75-1.03l3.58-6.49c.08-.14.12-.31.12-.48 0-.55-.45-1-1-1H5.21l-.94-2H1zm16 16c-1.1 0-1.99.9-1.99 2s.89 2 1.99 2 2-.9 2-2-.9-2-2-2z"/></g>
    <g id='feedback' height="24px" viewBox="0 0 24 24" width="24px"><path xmlns="http://www.w3.org/2000/svg" d="M16,3H5C3.9,3,3,3.9,3,5v14c0,1.1,0.9,2,2,2h14c1.1,0,2-0.9,2-2V8L16,3z M7,7h5v2H7V7z M17,17H7v-2h10V17z M17,13H7v-2h10 V13z M15,9V5l4,4H15z"/>
    <g id='performance' viewBox="0 0 24 24" width="18px" height="18px"><path d="M0 0h24v24H0V0z" fill="none"/><path d="M20 8h-3V4H3c-1.1 0-2 .9-2 2v11h2c0 1.66 1.34 3 3 3s3-1.34 3-3h6c0 1.66 1.34 3 3 3s3-1.34 3-3h2v-5l-3-4zM6 18.5c-.83 0-1.5-.67-1.5-1.5s.67-1.5 1.5-1.5 1.5.67 1.5 1.5-.67 1.5-1.5 1.5zm13.5-9l1.96 2.5H17V9.5h2.5zm-1.5 9c-.83 0-1.5-.67-1.5-1.5s.67-1.5 1.5-1.5 1.5.67 1.5 1.5-.67 1.5-1.5 1.5z"/></g>

    <g id='left-arrow' enable-background="new 0 0 24 24" viewBox="0 0 24 24" fill="#000000" width="48px" height="48px"><g><rect fill="none" height="24" width="24" y="0"/></g><g><path d="M15.29,15.46l-3.88-3.88l3.88-3.88c0.39-0.39,0.39-1.02,0-1.41l0,0c-0.39-0.39-1.02-0.39-1.41,0l-4.59,4.59 c-0.39,0.39-0.39,1.02,0,1.41l4.59,4.59c0.39,0.39,1.02,0.39,1.41,0l0,0C15.67,16.49,15.68,15.85,15.29,15.46z"/></g></g>
    <g id='low-arrow' viewBox="0 0 24 24" fill="#FB4047" width="18px" height="18px"><path d="M0 0h24v24H0V0z" fill="none"/><path d="M11 5v11.17l-4.88-4.88c-.39-.39-1.03-.39-1.42 0-.39.39-.39 1.02 0 1.41l6.59 6.59c.39.39 1.02.39 1.41 0l6.59-6.59c.39-.39.39-1.02 0-1.41-.39-.39-1.02-.39-1.41 0L13 16.17V5c0-.55-.45-1-1-1s-1 .45-1 1z"/></g>
    <g id='high-arrow' viewBox="0 0 24 24" fill="#2DCE89" width="18px" height="18px"><path d="M0 0h24v24H0V0z" fill="none"/><path d="M13 19V7.83l4.88 4.88c.39.39 1.03.39 1.42 0 .39-.39.39-1.02 0-1.41l-6.59-6.59c-.39-.39-1.02-.39-1.41 0l-6.6 6.58c-.39.39-.39 1.02 0 1.41.39.39 1.02.39 1.41 0L11 7.83V19c0 .55.45 1 1 1s1-.45 1-1z"/></g>
    <g id='copy' height="18px" viewBox="0 0 24 24" width="18px"><path d="M0 0h24v24H0z" fill="none"/><path d="M16 1H4c-1.1 0-2 .9-2 2v14h2V3h12V1zm3 4H8c-1.1 0-2 .9-2 2v14c0 1.1.9 2 2 2h11c1.1 0 2-.9 2-2V7c0-1.1-.9-2-2-2zm0 16H8V7h11v14z"/></g>

    <g id='arrow-down' viewBox="0 0 24 24" fill="#555" width="18px" height="18px"><path d="M0 0h24v24H0V0z" fill="none"/><path d="M7.41 8.59L12 13.17l4.59-4.58L18 10l-6 6-6-6 1.41-1.41z"/></g>
    <g id='arrow-up' viewBox="0 0 24 24" fill="#555" width="18px" height="18px"><path d="M0 0h24v24H0z" fill="none"/><path d="M7.41 15.41L12 10.83l4.59 4.58L18 14l-6-6-6 6z"/></g>

    <g id="logo_facebook" width="10" height="16" viewBox="0 0 10 16"><defs><style>.a{fill:#8181a5;}</style></defs><g transform="translate(-3)"><path class="a" d="M6.023,16,6,9H3V6H6V4c0-2.7,1.672-4,4.079-4a22.346,22.346,0,0,1,2.434.124V2.945h-1.67c-1.31,0-1.563.622-1.563,1.535V6H13L12,9H9.28v7Z"/></g></g>
    <g id="logo_github" width="16.1" height="15.62" viewBox="0 0 16.1 15.62"><defs><style>.a{fill:#8181a5;fill-rule:evenodd;}</style></defs><g transform="translate(0 -0.2)"><path class="a" d="M8,.2a8.024,8.024,0,0,0-8,8,8.085,8.085,0,0,0,5.5,7.6c.4.1.5-.2.5-.4V14c-2.2.5-2.7-1-2.7-1a2.689,2.689,0,0,0-.9-1.2c-.7-.5.1-.5.1-.5a1.741,1.741,0,0,1,1.2.8,1.632,1.632,0,0,0,2.3.7,2.257,2.257,0,0,1,.5-1.1c-1.8-.2-3.6-.9-3.6-4a2.865,2.865,0,0,1,.8-2.1,2.486,2.486,0,0,1,.1-2.1s.7-.2,2.2.8A6.448,6.448,0,0,1,8,4a6.448,6.448,0,0,1,2,.3c1.5-1,2.2-.8,2.2-.8a2.983,2.983,0,0,1,.1,2.1,3.227,3.227,0,0,1,.8,2.1c0,3.1-1.9,3.7-3.7,3.9a2.578,2.578,0,0,1,.6,1.6v2.2c0,.2.1.5.6.4a8.085,8.085,0,0,0,5.5-7.6A8.176,8.176,0,0,0,8,.2Z"/></g></g>
    <g id="logo_linked_in" width="16.1" height="16" viewBox="0 0 16.1 16"><defs><style>.a{fill:#8181a5;}</style></defs><path class="a" d="M15.3,0H.7A.684.684,0,0,0,0,.7V15.4a.669.669,0,0,0,.7.6H15.4a.684.684,0,0,0,.7-.7V.7A.849.849,0,0,0,15.3,0ZM4.7,13.6H2.4V6H4.8v7.6ZM3.6,5A1.43,1.43,0,0,1,2.2,3.6,1.367,1.367,0,0,1,3.6,2.2,1.367,1.367,0,0,1,5,3.6,1.593,1.593,0,0,1,3.6,5Zm10,8.6H11.2V9.9c0-.9,0-2-1.2-2s-1.4,1-1.4,2v3.8H6.2V6H8.5V7h0a2.441,2.441,0,0,1,2.2-1.2c2.4,0,2.8,1.6,2.8,3.6v4.2Z"/></g>
    <g id="logo_twitter" width="16" height="13" viewBox="0 0 16 13"><defs><style>.a{fill:#8181a5;}</style></defs><g transform="translate(0 -1.5)"><path class="a" d="M16,3a5.918,5.918,0,0,1-1.9.5,2.827,2.827,0,0,0,1.4-1.8,6.561,6.561,0,0,1-2.1.8,3.492,3.492,0,0,0-2.4-1A3.311,3.311,0,0,0,7.8,4.8a1.483,1.483,0,0,0,.1.7A9.2,9.2,0,0,1,1.1,2.1,3.064,3.064,0,0,0,.7,3.8,3.282,3.282,0,0,0,2.2,6.5,4.191,4.191,0,0,1,.7,6.1h0A3.228,3.228,0,0,0,3.3,9.3a2.769,2.769,0,0,1-.9.1,1.268,1.268,0,0,1-.6-.1,3.24,3.24,0,0,0,3.1,2.3A6.359,6.359,0,0,1,.8,13H0a9.757,9.757,0,0,0,5,1.5,9.256,9.256,0,0,0,9.3-9.3V4.8A5.814,5.814,0,0,0,16,3Z"/></g></g>

    <g id='fullscreen' height="24px" viewBox="0 0 24 24" width="24px"><path d="M0 0h24v24H0z" fill="none"/><path d="M7 14H5v5h5v-2H7v-3zm-2-4h2V7h3V5H5v5zm12 7h-3v2h5v-5h-2v3zM14 5v2h3v3h2V5h-5z"/></g>
    <g id='fullscreen-exit' height="24px" viewBox="0 0 24 24" width="24px"><path d="M0 0h24v24H0z" fill="none"/><path d="M5 16h3v3h2v-5H5v2zm3-8H5v2h5V5H8v3zm6 11h2v-3h3v-2h-5v5zm2-11V5h-2v5h5V8h-3z"/></g>

    <g id='link' height="18px" viewBox="0 0 24 24" width="18px"><path d="M0 0h24v24H0z" fill="none"/><path d="M3.9 12c0-1.71 1.39-3.1 3.1-3.1h4V7H7c-2.76 0-5 2.24-5 5s2.24 5 5 5h4v-1.9H7c-1.71 0-3.1-1.39-3.1-3.1zM8 13h8v-2H8v2zm9-6h-4v1.9h4c1.71 0 3.1 1.39 3.1 3.1s-1.39 3.1-3.1 3.1h-4V17h4c2.76 0 5-2.24 5-5s-2.24-5-5-5z"/></g>
    <g id='prev-page' height="24px" viewBox="0 0 24 24" width="24px" fill="#000000"><path d="M0 0h24v24H0z" fill="none"/><path d="M15.41 7.41L14 6l-6 6 6 6 1.41-1.41L10.83 12z"/></g>
    <g id='next-page' height="24px" viewBox="0 0 24 24" width="24px" fill="#000000"><path d="M0 0h24v24H0z" fill="none"/><path d="M10 6L8.59 7.41 13.17 12l-4.58 4.59L10 18l6-6z"/></g>
    
    <g id='email' height="24px" viewBox="0 0 24 24" width="24px" fill="#555"><path d="M0 0h24v24H0z" fill="none"/><path d="M20 4H4c-1.1 0-1.99.9-1.99 2L2 18c0 1.1.9 2 2 2h16c1.1 0 2-.9 2-2V6c0-1.1-.9-2-2-2zm0 4-8 5-8-5V6l8 5 8-5v2z"></path></g>
    <g id='phone' height="24px" viewBox="0 0 24 24" width="24px" fill="#555"><path d="M0 0h24v24H0z" fill="none"/><path d="M6.62 10.79c1.44 2.83 3.76 5.14 6.59 6.59l2.2-2.2c.27-.27.67-.36 1.02-.24 1.12.37 2.33.57 3.57.57.55 0 1 .45 1 1V20c0 .55-.45 1-1 1-9.39 0-17-7.61-17-17 0-.55.45-1 1-1h3.5c.55 0 1 .45 1 1 0 1.25.2 2.45.57 3.57.11.35.03.74-.25 1.02l-2.2 2.2z"></path></g>
    <g id='goback' height="24px" viewBox="0 0 24 24" width="24px" fill="#333"><path d="M0 0h24v24H0z" fill="none"/><path d="M20 11H7.83l5.59-5.59L12 4l-8 8 8 8 1.41-1.41L7.83 13H20v-2z"/></g>
    <g id='edit' height="24px" viewBox="0 0 24 24" width="24px" fill="#333"><path d="M0 0h24v24H0z" fill="none"/><path d="M3 17.25V21h3.75L17.81 9.94l-3.75-3.75L3 17.25zM20.71 7.04c.39-.39.39-1.02 0-1.41l-2.34-2.34a.9959.9959 0 0 0-1.41 0l-1.83 1.83 3.75 3.75 1.83-1.83z"></path></g>
    <g id='avatar' height="24px" viewBox="0 0 24 24" width="24px" fill="#333"><path d="M0 0h24v24H0z" fill="none"/><path d="M12 2C6.48 2 2 6.48 2 12s4.48 10 10 10 10-4.48 10-10S17.52 2 12 2zm0 3c1.66 0 3 1.34 3 3s-1.34 3-3 3-3-1.34-3-3 1.34-3 3-3zm0 14.2c-2.5 0-4.71-1.28-6-3.22.03-1.99 4-3.08 6-3.08 1.99 0 5.97 1.09 6 3.08-1.29 1.94-3.5 3.22-6 3.22z"></path></g>
    <g id='white-edit' height="16px" viewBox="0 0 18 18" margin="5px" width="24px" fill="#ffffff"><path d="M0 0h24v24H0z" fill="none"/><path d="M3 17.25V21h3.75L17.81 9.94l-3.75-3.75L3 17.25zM20.71 7.04c.39-.39.39-1.02 0-1.41l-2.34-2.34a.9959.9959 0 0 0-1.41 0l-1.83 1.83 3.75 3.75 1.83-1.83z"></path></g>
    <g id='search' height="16px" viewBox="0 0 18 18" margin="5px" width="24px" fill="#333" ><path d="M0 0h24v24H0z" fill="none"/><path d="M15.5 14h-.79l-.28-.27C15.41 12.59 16 11.11 16 9.5 16 5.91 13.09 3 9.5 3S3 5.91 3 9.5 5.91 16 9.5 16c1.61 0 3.09-.59 4.23-1.57l.27.28v.79l5 4.99L20.49 19l-4.99-5zm-6 0C7.01 14 5 11.99 5 9.5S7.01 5 9.5 5 14 7.01 14 9.5 11.99 14 9.5 14z"></path></g>
    <g id='delete' height="16px" viewBox="0 0 18 18" margin="5px" width="24px" fill="#000" ><path d="M0 0h24v24H0z" fill="none"/><path d="M6 19c0 1.1.9 2 2 2h8c1.1 0 2-.9 2-2V7H6v12zM19 4h-3.5l-1-1h-5l-1 1H5v2h14V4z"></path></g>
    <g id='lightbooking' height="16px" viewBox="0 0 18 18" margin="5px" width="24px" fill="#cebaa8" ><path d="M0 0h24v24H0z" fill="none"/><path d="M4 6H2v14c0 1.1.9 2 2 2h14v-2H4V6zm16-4H8c-1.1 0-2 .9-2 2v12c0 1.1.9 2 2 2h12c1.1 0 2-.9 2-2V4c0-1.1-.9-2-2-2zm-1 9H9V9h10v2zm-4 4H9v-2h6v2zm4-8H9V5h10v2z"></path></g>
    <g id='booking' height="16px" viewBox="0 0 18 18" margin="5px" width="24px" fill="#fff" ><path d="M0 0h24v24H0z" fill="none"/><path d="M4 6H2v14c0 1.1.9 2 2 2h14v-2H4V6zm16-4H8c-1.1 0-2 .9-2 2v12c0 1.1.9 2 2 2h12c1.1 0 2-.9 2-2V4c0-1.1-.9-2-2-2zm-1 9H9V9h10v2zm-4 4H9v-2h6v2zm4-8H9V5h10v2z"></path></g>
    <g id='user'  height="16px" viewBox="0 0 18 18" margin="5px" width="24px" fill="#fff" ><path d="M0 0h24v24H0z" fill="none"/><path d="M12 12c2.21 0 4-1.79 4-4s-1.79-4-4-4-4 1.79-4 4 1.79 4 4 4zm0 2c-2.67 0-8 1.34-8 4v2h16v-2c0-2.66-5.33-4-8-4z"></path></g>
    <g id='lightuser'  height="16px" viewBox="0 0 18 18" margin="5px" width="24px" fill="#cebaa8" ><path d="M0 0h24v24H0z" fill="none"/><path d="M12 12c2.21 0 4-1.79 4-4s-1.79-4-4-4-4 1.79-4 4 1.79 4 4 4zm0 2c-2.67 0-8 1.34-8 4v2h16v-2c0-2.66-5.33-4-8-4z"></path></g>
    <g id='lighthome' height="16px" viewBox="0 0 18 18" margin="5px" width="24px" fill="#cebaa8" ><path d="M0 0h24v24H0z" fill="none"/><path d="M10 20v-6h4v6h5v-8h3L12 3 2 12h3v8z"></path></g>
    <g id='home' height="16px" viewBox="0 0 18 18" margin="5px" width="24px" fill="#fff" ><path d="M0 0h24v24H0z" fill="none"/><path d="M10 20v-6h4v6h5v-8h3L12 3 2 12h3v8z"></path></g>
    <g id='lightschedule' height="16px" viewBox="0 0 18 18" margin="5px" width="24px" fill="#cebaa8" ><path d="M0 0h24v24H0z" fill="none"/><path d="M19 4h-1V2h-2v2H8V2H6v2H5c-1.11 0-1.99.9-1.99 2L3 20c0 1.1.89 2 2 2h14c1.1 0 2-.9 2-2V6c0-1.1-.9-2-2-2zm0 16H5V10h14v10zM9 14H7v-2h2v2zm4 0h-2v-2h2v2zm4 0h-2v-2h2v2zm-8 4H7v-2h2v2zm4 0h-2v-2h2v2zm4 0h-2v-2h2v2z"></path></g>
    <g id='schedule' height="16px" viewBox="0 0 18 18" margin="5px" width="24px" fill="#fff" ><path d="M0 0h24v24H0z" fill="none"/><path d="M19 4h-1V2h-2v2H8V2H6v2H5c-1.11 0-1.99.9-1.99 2L3 20c0 1.1.89 2 2 2h14c1.1 0 2-.9 2-2V6c0-1.1-.9-2-2-2zm0 16H5V10h14v10zM9 14H7v-2h2v2zm4 0h-2v-2h2v2zm4 0h-2v-2h2v2zm-8 4H7v-2h2v2zm4 0h-2v-2h2v2zm4 0h-2v-2h2v2z"></path></g>
  </defs>
</svg>
