<svg xmlns="http://www.w3.org/2000/svg">
  <defs>
    <g id='lightresource' height="24px" viewBox="0 0 24 24" width="24px" fill="#cebaa8"><path d="M0 0h24v24H0z" fill="none"/><path d="M8.4 18.2c.38.5.6 1.12.6 1.8 0 1.66-1.34 3-3 3s-3-1.34-3-3 1.34-3 3-3c.44 0 .85.09 1.23.26l1.41-1.77c-.92-1.03-1.29-2.39-1.09-3.69l-2.03-.68c-.54.83-1.46 1.38-2.52 1.38-1.66 0-3-1.34-3-3s1.34-3 3-3 3 1.34 3 3c0 .07 0 .14-.01.21l2.03.68c.64-1.21 1.82-2.09 3.22-2.32V5.91C9.96 5.57 9 4.4 9 3c0-1.66 1.34-3 3-3s3 1.34 3 3c0 1.4-.96 2.57-2.25 2.91v2.16c1.4.23 2.58 1.11 3.22 2.32L18 9.71V9.5c0-1.66 1.34-3 3-3s3 1.34 3 3-1.34 3-3 3c-1.06 0-1.98-.55-2.52-1.37l-2.03.68c.2 1.29-.16 2.65-1.09 3.69l1.41 1.77c.38-.18.79-.27 1.23-.27 1.66 0 3 1.34 3 3s-1.34 3-3 3-3-1.34-3-3c0-.68.22-1.3.6-1.8l-1.41-1.77c-1.35.75-3.01.76-4.37 0L8.4 18.2z"></path></g>
    <g id='resource' height="24px" viewBox="0 0 24 24" width="24px" fill="#fff"><path d="M0 0h24v24H0z" fill="none"/><path d="M8.4 18.2c.38.5.6 1.12.6 1.8 0 1.66-1.34 3-3 3s-3-1.34-3-3 1.34-3 3-3c.44 0 .85.09 1.23.26l1.41-1.77c-.92-1.03-1.29-2.39-1.09-3.69l-2.03-.68c-.54.83-1.46 1.38-2.52 1.38-1.66 0-3-1.34-3-3s1.34-3 3-3 3 1.34 3 3c0 .07 0 .14-.01.21l2.03.68c.64-1.21 1.82-2.09 3.22-2.32V5.91C9.96 5.57 9 4.4 9 3c0-1.66 1.34-3 3-3s3 1.34 3 3c0 1.4-.96 2.57-2.25 2.91v2.16c1.4.23 2.58 1.11 3.22 2.32L18 9.71V9.5c0-1.66 1.34-3 3-3s3 1.34 3 3-1.34 3-3 3c-1.06 0-1.98-.55-2.52-1.37l-2.03.68c.2 1.29-.16 2.65-1.09 3.69l1.41 1.77c.38-.18.79-.27 1.23-.27 1.66 0 3 1.34 3 3s-1.34 3-3 3-3-1.34-3-3c0-.68.22-1.3.6-1.8l-1.41-1.77c-1.35.75-3.01.76-4.37 0L8.4 18.2z"></path></g>
    <g id='lightprogramManager' height="24px" viewBox="0 0 24 24" width="24px" fill="#cebaa8"><path d="M0 0h24v24H0z" fill="none"/><circle cx="10" cy="8" r="4"></circle><path d="M10.67 13.02c-.22-.01-.44-.02-.67-.02-2.42 0-4.68.67-6.61 1.82-.88.52-1.39 1.5-1.39 2.53V20h9.26c-.79-1.13-1.26-2.51-1.26-4 0-1.07.25-2.07.67-2.98zM20.75 16c0-.22-.03-.42-.06-.63l1.14-1.01-1-1.73-1.45.49c-.32-.27-.68-.48-1.08-.63L18 11h-2l-.3 1.49c-.4.15-.76.36-1.08.63l-1.45-.49-1 1.73 1.14 1.01c-.03.21-.06.41-.06.63s.03.42.06.63l-1.14 1.01 1 1.73 1.45-.49c.32.27.68.48 1.08.63L16 21h2l.3-1.49c.4-.15.76-.36 1.08-.63l1.45.49 1-1.73-1.14-1.01c.03-.21.06-.41.06-.63zM17 18c-1.1 0-2-.9-2-2s.9-2 2-2 2 .9 2 2-.9 2-2 2z"></path></g>
    <g id='programManager' height="24px" viewBox="0 0 24 24" width="24px" fill="#fff"><path d="M0 0h24v24H0z" fill="none"/><circle cx="10" cy="8" r="4"></circle><path d="M10.67 13.02c-.22-.01-.44-.02-.67-.02-2.42 0-4.68.67-6.61 1.82-.88.52-1.39 1.5-1.39 2.53V20h9.26c-.79-1.13-1.26-2.51-1.26-4 0-1.07.25-2.07.67-2.98zM20.75 16c0-.22-.03-.42-.06-.63l1.14-1.01-1-1.73-1.45.49c-.32-.27-.68-.48-1.08-.63L18 11h-2l-.3 1.49c-.4.15-.76.36-1.08.63l-1.45-.49-1 1.73 1.14 1.01c-.03.21-.06.41-.06.63s.03.42.06.63l-1.14 1.01 1 1.73 1.45-.49c.32.27.68.48 1.08.63L16 21h2l.3-1.49c.4-.15.76-.36 1.08-.63l1.45.49 1-1.73-1.14-1.01c.03-.21.06-.41.06-.63zM17 18c-1.1 0-2-.9-2-2s.9-2 2-2 2 .9 2 2-.9 2-2 2z"></path></g>
    <g id='lightoffering' height="24px" viewBox="0 0 24 24" width="24px" fill="#cebaa8"><path d="M0 0h24v24H0z" fill="none"/><path d="M20 2H4c-1 0-2 .9-2 2v3.01c0 .72.43 1.34 1 1.69V20c0 1.1 1.1 2 2 2h14c.9 0 2-.9 2-2V8.7c.57-.35 1-.97 1-1.69V4c0-1.1-1-2-2-2zm-5 12H9v-2h6v2zm5-7H4V4h16v3z"></path></g>
    <g id='offering' height="24px" viewBox="0 0 24 24" width="24px" fill="#fff"><path d="M0 0h24v24H0z" fill="none"/><path d="M20 2H4c-1 0-2 .9-2 2v3.01c0 .72.43 1.34 1 1.69V20c0 1.1 1.1 2 2 2h14c.9 0 2-.9 2-2V8.7c.57-.35 1-.97 1-1.69V4c0-1.1-1-2-2-2zm-5 12H9v-2h6v2zm5-7H4V4h16v3z"></path></g>
    <g id='lightsetting' height="16px" viewBox="0 0 18 18" margin="5px" width="24px" fill="#cebaa8"><path d="M0 0h24v24H0z" fill="none"/><path d="M19.14 12.94c.04-.3.06-.61.06-.94 0-.32-.02-.64-.07-.94l2.03-1.58c.18-.14.23-.41.12-.61l-1.92-3.32c-.12-.22-.37-.29-.59-.22l-2.39.96c-.5-.38-1.03-.7-1.62-.94l-.36-2.54c-.04-.24-.24-.41-.48-.41h-3.84c-.24 0-.43.17-.47.41l-.36 2.54c-.59.24-1.13.57-1.62.94l-2.39-.96c-.22-.08-.47 0-.59.22L2.74 8.87c-.12.21-.08.47.12.61l2.03 1.58c-.05.3-.09.63-.09.94s.02.64.07.94l-2.03 1.58c-.18.14-.23.41-.12.61l1.92 3.32c.12.22.37.29.59.22l2.39-.96c.5.38 1.03.7 1.62.94l.36 2.54c.05.24.24.41.48.41h3.84c.24 0 .44-.17.47-.41l.36-2.54c.59-.24 1.13-.56 1.62-.94l2.39.96c.22.08.47 0 .59-.22l1.92-3.32c.12-.22.07-.47-.12-.61l-2.01-1.58zM12 15.6c-1.98 0-3.6-1.62-3.6-3.6s1.62-3.6 3.6-3.6 3.6 1.62 3.6 3.6-1.62 3.6-3.6 3.6z"></path></g>
    <g id='setting' height="16px" viewBox="0 0 18 18" margin="5px" width="24px" fill="#ffffff"><path d="M0 0h24v24H0z" fill="none"/><path d="M19.14 12.94c.04-.3.06-.61.06-.94 0-.32-.02-.64-.07-.94l2.03-1.58c.18-.14.23-.41.12-.61l-1.92-3.32c-.12-.22-.37-.29-.59-.22l-2.39.96c-.5-.38-1.03-.7-1.62-.94l-.36-2.54c-.04-.24-.24-.41-.48-.41h-3.84c-.24 0-.43.17-.47.41l-.36 2.54c-.59.24-1.13.57-1.62.94l-2.39-.96c-.22-.08-.47 0-.59.22L2.74 8.87c-.12.21-.08.47.12.61l2.03 1.58c-.05.3-.09.63-.09.94s.02.64.07.94l-2.03 1.58c-.18.14-.23.41-.12.61l1.92 3.32c.12.22.37.29.59.22l2.39-.96c.5.38 1.03.7 1.62.94l.36 2.54c.05.24.24.41.48.41h3.84c.24 0 .44-.17.47-.41l.36-2.54c.59-.24 1.13-.56 1.62-.94l2.39.96c.22.08.47 0 .59-.22l1.92-3.32c.12-.22.07-.47-.12-.61l-2.01-1.58zM12 15.6c-1.98 0-3.6-1.62-3.6-3.6s1.62-3.6 3.6-3.6 3.6 1.62 3.6 3.6-1.62 3.6-3.6 3.6z"></path></g>
    <g id='lightcommunication' height="16px" viewBox="0 0 18 18" margin="5px" width="24px" fill="#cebaa8" ><path d="M0 0h24v24H0z" fill="none"/><path d="M3 9v6h4l5 5V4L7 9H3zm13.5 3c0-1.77-1.02-3.29-2.5-4.03v8.05c1.48-.73 2.5-2.25 2.5-4.02zM14 3.23v2.06c2.89.86 5 3.54 5 6.71s-2.11 5.85-5 6.71v2.06c4.01-.91 7-4.49 7-8.77s-2.99-7.86-7-8.77z"></path></g>
    <g id='communication' height="16px" viewBox="0 0 18 18" margin="5px" width="24px" fill="#fff" ><path d="M0 0h24v24H0z" fill="none"/><path d="M3 9v6h4l5 5V4L7 9H3zm13.5 3c0-1.77-1.02-3.29-2.5-4.03v8.05c1.48-.73 2.5-2.25 2.5-4.02zM14 3.23v2.06c2.89.86 5 3.54 5 6.71s-2.11 5.85-5 6.71v2.06c4.01-.91 7-4.49 7-8.77s-2.99-7.86-7-8.77z"></path></g>
    <g id='lightfinance' height="16px" viewBox="0 0 18 18" margin="5px" width="24px" fill="#cebaa8" ><path d="M0 0h24v24H0z" fill="none"/><path d="M5 8h2v8H5zm7 0H9c-.55 0-1 .45-1 1v6c0 .55.45 1 1 1h3c.55 0 1-.45 1-1V9c0-.55-.45-1-1-1zm-1 6h-1v-4h1v4zm7-6h-3c-.55 0-1 .45-1 1v6c0 .55.45 1 1 1h3c.55 0 1-.45 1-1V9c0-.55-.45-1-1-1zm-1 6h-1v-4h1v4z"></path><path d="M2 4v16h20V4H2zm2 14V6h16v12H4z"></path></g>
    <g id='finance' height="16px" viewBox="0 0 18 18" margin="5px" width="24px" fill="#fff" ><path d="M0 0h24v24H0z" fill="none"/><path d="M5 8h2v8H5zm7 0H9c-.55 0-1 .45-1 1v6c0 .55.45 1 1 1h3c.55 0 1-.45 1-1V9c0-.55-.45-1-1-1zm-1 6h-1v-4h1v4zm7-6h-3c-.55 0-1 .45-1 1v6c0 .55.45 1 1 1h3c.55 0 1-.45 1-1V9c0-.55-.45-1-1-1zm-1 6h-1v-4h1v4z"></path><path d="M2 4v16h20V4H2zm2 14V6h16v12H4z"></path></g>
    <g id='lightbooking' height="16px" viewBox="0 0 18 18" margin="5px" width="24px" fill="#cebaa8" ><path d="M0 0h24v24H0z" fill="none"/><path d="M4 6H2v14c0 1.1.9 2 2 2h14v-2H4V6zm16-4H8c-1.1 0-2 .9-2 2v12c0 1.1.9 2 2 2h12c1.1 0 2-.9 2-2V4c0-1.1-.9-2-2-2zm-1 9H9V9h10v2zm-4 4H9v-2h6v2zm4-8H9V5h10v2z"></path></g>
    <g id='booking' height="16px" viewBox="0 0 18 18" margin="5px" width="24px" fill="#fff" ><path d="M0 0h24v24H0z" fill="none"/><path d="M4 6H2v14c0 1.1.9 2 2 2h14v-2H4V6zm16-4H8c-1.1 0-2 .9-2 2v12c0 1.1.9 2 2 2h12c1.1 0 2-.9 2-2V4c0-1.1-.9-2-2-2zm-1 9H9V9h10v2zm-4 4H9v-2h6v2zm4-8H9V5h10v2z"></path></g>
    <g id='user'  height="16px" viewBox="0 0 18 18" margin="5px" width="24px" fill="#fff" ><path d="M0 0h24v24H0z" fill="none"/><path d="M12 12c2.21 0 4-1.79 4-4s-1.79-4-4-4-4 1.79-4 4 1.79 4 4 4zm0 2c-2.67 0-8 1.34-8 4v2h16v-2c0-2.66-5.33-4-8-4z"></path></g>
    <g id='lightuser'  height="16px" viewBox="0 0 18 18" margin="5px" width="24px" fill="#cebaa8" ><path d="M0 0h24v24H0z" fill="none"/><path d="M12 12c2.21 0 4-1.79 4-4s-1.79-4-4-4-4 1.79-4 4 1.79 4 4 4zm0 2c-2.67 0-8 1.34-8 4v2h16v-2c0-2.66-5.33-4-8-4z"></path></g>
    <g id='lighthome' height="16px" viewBox="0 0 18 18" margin="5px" width="24px" fill="#cebaa8" ><path d="M0 0h24v24H0z" fill="none"/><path d="M10 20v-6h4v6h5v-8h3L12 3 2 12h3v8z"></path></g>
    <g id='home' height="16px" viewBox="0 0 18 18" margin="5px" width="24px" fill="#fff" ><path d="M0 0h24v24H0z" fill="none"/><path d="M10 20v-6h4v6h5v-8h3L12 3 2 12h3v8z"></path></g>
    <g id='lightschedule' height="16px" viewBox="0 0 18 18" margin="5px" width="24px" fill="#cebaa8" ><path d="M0 0h24v24H0z" fill="none"/><path d="M19 4h-1V2h-2v2H8V2H6v2H5c-1.11 0-1.99.9-1.99 2L3 20c0 1.1.89 2 2 2h14c1.1 0 2-.9 2-2V6c0-1.1-.9-2-2-2zm0 16H5V10h14v10zM9 14H7v-2h2v2zm4 0h-2v-2h2v2zm4 0h-2v-2h2v2zm-8 4H7v-2h2v2zm4 0h-2v-2h2v2zm4 0h-2v-2h2v2z"></path></g>
    <g id='schedule' height="16px" viewBox="0 0 18 18" margin="5px" width="24px" fill="#fff" ><path d="M0 0h24v24H0z" fill="none"/><path d="M19 4h-1V2h-2v2H8V2H6v2H5c-1.11 0-1.99.9-1.99 2L3 20c0 1.1.89 2 2 2h14c1.1 0 2-.9 2-2V6c0-1.1-.9-2-2-2zm0 16H5V10h14v10zM9 14H7v-2h2v2zm4 0h-2v-2h2v2zm4 0h-2v-2h2v2zm-8 4H7v-2h2v2zm4 0h-2v-2h2v2zm4 0h-2v-2h2v2z"></path></g>
    <g id='close' height="16px" viewBox="0 0 18 18" margin="5px" width="24px" fill="#000" ><path d="M0 0h24v24H0z" fill="none"/><path d="M19 6.41 17.59 5 12 10.59 6.41 5 5 6.41 10.59 12 5 17.59 6.41 19 12 13.41 17.59 19 19 17.59 13.41 12z"></path></g>
    <g id='readeye' height="16px" viewBox="0 0 18 18" margin="5px" width="24px" fill="#03e8fc" ><path d="M0 0h24v24H0z" fill="none"/><path d="M12 4.5C7 4.5 2.73 7.61 1 12c1.73 4.39 6 7.5 11 7.5s9.27-3.11 11-7.5c-1.73-4.39-6-7.5-11-7.5zM12 17c-2.76 0-5-2.24-5-5s2.24-5 5-5 5 2.24 5 5-2.24 5-5 5zm0-8c-1.66 0-3 1.34-3 3s1.34 3 3 3 3-1.34 3-3-1.34-3-3-3z"></path></g>
    <g id='unreadeye' height="16px" viewBox="0 0 18 18" margin="5px" width="24px" fill="#000" ><path d="M0 0h24v24H0z" fill="none"/><path d="M12 4.5C7 4.5 2.73 7.61 1 12c1.73 4.39 6 7.5 11 7.5s9.27-3.11 11-7.5c-1.73-4.39-6-7.5-11-7.5zM12 17c-2.76 0-5-2.24-5-5s2.24-5 5-5 5 2.24 5 5-2.24 5-5 5zm0-8c-1.66 0-3 1.34-3 3s1.34 3 3 3 3-1.34 3-3-1.34-3-3-3z"></path></g>
    <g id='done' height="16px" viewBox="0 0 18 18" margin="5px" width="24px" fill="#198754" ><path d="M0 0h24v24H0z" fill="none"/><path d="M12 2C6.48 2 2 6.48 2 12s4.48 10 10 10 10-4.48 10-10S17.52 2 12 2zm-2 15-5-5 1.41-1.41L10 14.17l7.59-7.59L19 8l-9 9z"></path></g>
    <g id='cancel'  height="16px" viewBox="0 0 18 18" margin="5px" width="24px" fill="#ff0000" ><path d="M0 0h24v24H0z" fill="none"/><path d="M12 2C6.47 2 2 6.47 2 12s4.47 10 10 10 10-4.47 10-10S17.53 2 12 2zm5 13.59L15.59 17 12 13.41 8.41 17 7 15.59 10.59 12 7 8.41 8.41 7 12 10.59 15.59 7 17 8.41 13.41 12 17 15.59z"></path></g>
    <g id='rightchevron'  height="16px" viewBox="0 0 18 18" margin="5px" width="24px" fill="#000" ><path d="M0 0h24v24H0z" fill="none"/><path d="M6.23 20.23 8 22l10-10L8 2 6.23 3.77 14.46 12z"></path></g>
    <g id='edit'  height="16px" viewBox="0 0 18 18" margin="5px" width="24px" fill="#000" ><path d="M0 0h24v24H0z" fill="none"/><path d="M3 17.25V21h3.75L17.81 9.94l-3.75-3.75L3 17.25zM20.71 7.04c.39-.39.39-1.02 0-1.41l-2.34-2.34a.9959.9959 0 0 0-1.41 0l-1.83 1.83 3.75 3.75 1.83-1.83z"></path></g>
    <g id='info' height="16px" viewBox="0 0 18 18" margin="5px" width="24px" fill="#000" ><path d="M0 0h24v24H0z" fill="none"/><path d="M12 2C6.48 2 2 6.48 2 12s4.48 10 10 10 10-4.48 10-10S17.52 2 12 2zm1 15h-2v-6h2v6zm0-8h-2V7h2v2z"></path></g>
    <g  id='linkicon' height="16px"  viewBox="0 0 18 18" ><path d="M18.3338 1.6645C16.1144 -0.554832 12.5017 -0.554832 10.2824 1.6645L7.40948 4.53742C7.24645 4.70261 7.09562 4.87642 6.957 5.05526C7.85916 4.82796 8.79945 4.79588 9.715 4.96117C9.9003 4.99349 10.0849 5.03443 10.268 5.08327L10.2745 5.1278L12.0133 3.38897C12.3149 3.08667 12.6731 2.84684 13.0675 2.6832C13.4619 2.51956 13.8847 2.43533 14.3117 2.43533C14.7387 2.43533 15.1614 2.51956 15.5558 2.6832C15.9502 2.84684 16.3084 3.08667 16.61 3.38897C17.8741 4.66023 17.8813 6.72155 16.61 7.98563L13.7371 10.8586C13.1912 11.4044 12.4945 11.6989 11.7835 11.7779C10.8426 11.8784 9.85865 11.584 9.14042 10.8586C8.67154 10.3857 8.36045 9.77928 8.24981 9.12259C7.73859 9.18519 7.26238 9.41497 6.89523 9.77618L6.11523 10.5569C6.39832 11.3178 6.84223 12.0086 7.41667 12.5823C8.23842 13.4057 9.2945 13.955 10.4404 14.1552C11.3437 14.3127 12.2716 14.2513 13.1463 13.9764C14.0211 13.7015 14.8172 13.221 15.468 12.5751L18.3409 9.7022C20.5531 7.49724 20.5531 3.88383 18.3338 1.6645Z" fill="#F2F2F2"/><path d="M12.5888 15.4695C12.7546 15.3017 12.9098 15.1238 13.0535 14.9366C12.1489 15.1645 11.2065 15.1995 10.2876 15.0393C10.0869 15.0041 9.88724 14.9595 9.69071 14.9057L7.98492 16.6115C7.68336 16.9138 7.32513 17.1536 6.93074 17.3173C6.53636 17.4809 6.11357 17.5651 5.68658 17.5651C5.2596 17.5651 4.8368 17.4809 4.44242 17.3173C4.04803 17.1536 3.68981 16.9138 3.38825 16.6115C3.08596 16.31 2.84612 15.9517 2.68248 15.5573C2.51884 15.163 2.43461 14.7402 2.43461 14.3132C2.43461 13.8862 2.51884 13.4634 2.68248 13.069C2.84612 12.6746 3.08596 12.3164 3.38825 12.0148L6.26117 9.14192C6.80702 8.59607 7.5037 8.30159 8.21475 8.22259C9.15563 8.12204 10.1396 8.41651 10.8578 9.14192C11.3271 9.61444 11.6387 10.2206 11.7499 10.8772C12.2608 10.8144 12.7367 10.5846 13.1037 10.2236L13.8837 9.44286C13.6005 8.6819 13.1563 7.99103 12.5816 7.41745C11.7598 6.59409 10.7038 6.04473 9.55784 5.84453C8.43881 5.64296 7.28502 5.78312 6.2468 6.24674C5.62912 6.51967 5.04736 6.90751 4.53742 7.41745L1.6645 10.2904C-0.554832 12.5097 -0.554832 16.1224 1.6645 18.3417C3.88383 20.5611 7.49652 20.5611 9.71585 18.3417L12.5888 15.4695Z" fill="#F2F2F2"/></g>
    <g  id='website' height="16px"  viewBox="0 0 18 18" ><path  d="M0 2.14286C0 1.57454 0.225765 1.02949 0.627628 0.627628C1.02949 0.225765 1.57454 0 2.14286 0H27.8571C28.4255 0 28.9705 0.225765 29.3724 0.627628C29.7742 1.02949 30 1.57454 30 2.14286V6.42857C30 6.99689 29.7742 7.54194 29.3724 7.9438C28.9705 8.34566 28.4255 8.57143 27.8571 8.57143H2.14286C1.57454 8.57143 1.02949 8.34566 0.627628 7.9438C0.225765 7.54194 0 6.99689 0 6.42857V2.14286ZM0 15C0 14.4317 0.225765 13.8866 0.627628 13.4848C1.02949 13.0829 1.57454 12.8571 2.14286 12.8571H15C15.5683 12.8571 16.1134 13.0829 16.5152 13.4848C16.9171 13.8866 17.1429 14.4317 17.1429 15V27.8571C17.1429 28.4255 16.9171 28.9705 16.5152 29.3724C16.1134 29.7742 15.5683 30 15 30H2.14286C1.57454 30 1.02949 29.7742 0.627628 29.3724C0.225765 28.9705 0 28.4255 0 27.8571V15ZM23.5714 12.8571C23.0031 12.8571 22.4581 13.0829 22.0562 13.4848C21.6543 13.8866 21.4286 14.4317 21.4286 15V27.8571C21.4286 28.4255 21.6543 28.9705 22.0562 29.3724C22.4581 29.7742 23.0031 30 23.5714 30H27.8571C28.4255 30 28.9705 29.7742 29.3724 29.3724C29.7742 28.9705 30 28.4255 30 27.8571V15C30 14.4317 29.7742 13.8866 29.3724 13.4848C28.9705 13.0829 28.4255 12.8571 27.8571 12.8571H23.5714Z" fill="white"/></g>
    <g  id='workout' height="25px"  viewBox="0 0 25 25" ><path d="M20.57 14.86 22 13.43 20.57 12 17 15.57 8.43 7 12 3.43 10.57 2 9.14 3.43 7.71 2 5.57 4.14 4.14 2.71 2.71 4.14l1.43 1.43L2 7.71l1.43 1.43L2 10.57 3.43 12 7 8.43 15.57 17 12 20.57 13.43 22l1.43-1.43L16.29 22l2.14-2.14 1.43 1.43 1.43-1.43-1.43-1.43L22 16.29z" fill="white"/></g>
    <g  id='ai' height="25px"  viewBox="0 0 25 25" fill="#cebaa8"><path d="M20 9V7c0-1.1-.9-2-2-2h-3c0-1.66-1.34-3-3-3S9 3.34 9 5H6c-1.1 0-2 .9-2 2v2c-1.66 0-3 1.34-3 3s1.34 3 3 3v4c0 1.1.9 2 2 2h12c1.1 0 2-.9 2-2v-4c1.66 0 3-1.34 3-3s-1.34-3-3-3zM7.5 11.5c0-.83.67-1.5 1.5-1.5s1.5.67 1.5 1.5S9.83 13 9 13s-1.5-.67-1.5-1.5zM16 17H8v-2h8v2zm-1-4c-.83 0-1.5-.67-1.5-1.5S14.17 10 15 10s1.5.67 1.5 1.5S15.83 13 15 13z"></path></g>
    <g  id='create' height="50px"  viewBox="0 0 35 35" fill="#cebaa8"><path d="M20 6h-8l-2-2H4c-1.11 0-1.99.89-1.99 2L2 18c0 1.11.89 2 2 2h16c1.11 0 2-.89 2-2V8c0-1.11-.89-2-2-2zm-1 8h-3v3h-2v-3h-3v-2h3V9h2v3h3v2z"></path></g>
    <g  id='library' height="25px" viewBox="0 0 25 25" fill="#cebaa8"><path d="M4 6H2v14c0 1.1.9 2 2 2h14v-2H4V6zm16-4H8c-1.1 0-2 .9-2 2v12c0 1.1.9 2 2 2h12c1.1 0 2-.9 2-2V4c0-1.1-.9-2-2-2zm-1 9H9V9h10v2zm-4 4H9v-2h6v2zm4-8H9V5h10v2z"></path></g>
    <g  id='activeprograms' height="25px"  viewBox="0 0 25 25" fill="#cebaa8" ><path fill-rule="evenodd" d="M3 3v8h8V3H3zm6 6H5V5h4v4zm-6 4v8h8v-8H3zm6 6H5v-4h4v4zm4-16v8h8V3h-8zm6 6h-4V5h4v4zm-6 4v8h8v-8h-8zm6 6h-4v-4h4v4z"></path></g>
    <g  id='view' height="25px"  viewBox="0 0 25 25" fill="#cebaa8"><path d="M12 4.5C7 4.5 2.73 7.61 1 12c1.73 4.39 6 7.5 11 7.5s9.27-3.11 11-7.5c-1.73-4.39-6-7.5-11-7.5zM12 17c-2.76 0-5-2.24-5-5s2.24-5 5-5 5 2.24 5 5-2.24 5-5 5zm0-8c-1.66 0-3 1.34-3 3s1.34 3 3 3 3-1.34 3-3-1.34-3-3-3z"></path></g>
    <g  id='markday' height="25px"  viewBox="0 0 25 25" fill="#cebaa8"><path d="M19 3H5c-1.11 0-2 .9-2 2v14c0 1.1.89 2 2 2h14c1.11 0 2-.9 2-2V5c0-1.1-.89-2-2-2zm-9 14-5-5 1.41-1.41L10 14.17l7.59-7.59L19 8l-9 9z"></path></g>
    <g  id='expandless' height="25px"  viewBox="0 0 25 25" fill="#fff"><path d="m12 8-6 6 1.41 1.41L12 10.83l4.59 4.58L18 14z"></path></g>
    <g id='delete' height="16px" viewBox="0 0 18 18" margin="5px" width="24px" fill="#000" ><path d="M0 0h24v24H0z" fill="none"/><path d="M6 19c0 1.1.9 2 2 2h8c1.1 0 2-.9 2-2V7H6v12zM19 4h-3.5l-1-1h-5l-1 1H5v2h14V4z"></path></g>
    <g id='link' height="18px" viewBox="0 0 24 24" width="18px"><path d="M0 0h24v24H0z" fill="none"/><path d="M3.9 12c0-1.71 1.39-3.1 3.1-3.1h4V7H7c-2.76 0-5 2.24-5 5s2.24 5 5 5h4v-1.9H7c-1.71 0-3.1-1.39-3.1-3.1zM8 13h8v-2H8v2zm9-6h-4v1.9h4c1.71 0 3.1 1.39 3.1 3.1s-1.39 3.1-3.1 3.1h-4V17h4c2.76 0 5-2.24 5-5s-2.24-5-5-5z"/></g>
</g>

  </defs>
</svg>