<svg xmlns="http://www.w3.org/2000/svg">
  <defs>

    <g id='lightresource' height="24px" viewBox="0 0 24 24" width="24px" fill="#cebaa8"><path d="M0 0h24v24H0z" fill="none"/><path d="M8.4 18.2c.38.5.6 1.12.6 1.8 0 1.66-1.34 3-3 3s-3-1.34-3-3 1.34-3 3-3c.44 0 .85.09 1.23.26l1.41-1.77c-.92-1.03-1.29-2.39-1.09-3.69l-2.03-.68c-.54.83-1.46 1.38-2.52 1.38-1.66 0-3-1.34-3-3s1.34-3 3-3 3 1.34 3 3c0 .07 0 .14-.01.21l2.03.68c.64-1.21 1.82-2.09 3.22-2.32V5.91C9.96 5.57 9 4.4 9 3c0-1.66 1.34-3 3-3s3 1.34 3 3c0 1.4-.96 2.57-2.25 2.91v2.16c1.4.23 2.58 1.11 3.22 2.32L18 9.71V9.5c0-1.66 1.34-3 3-3s3 1.34 3 3-1.34 3-3 3c-1.06 0-1.98-.55-2.52-1.37l-2.03.68c.2 1.29-.16 2.65-1.09 3.69l1.41 1.77c.38-.18.79-.27 1.23-.27 1.66 0 3 1.34 3 3s-1.34 3-3 3-3-1.34-3-3c0-.68.22-1.3.6-1.8l-1.41-1.77c-1.35.75-3.01.76-4.37 0L8.4 18.2z"></path></g>
    <g id='resource' height="24px" viewBox="0 0 24 24" width="24px" fill="#fff"><path d="M0 0h24v24H0z" fill="none"/><path d="M8.4 18.2c.38.5.6 1.12.6 1.8 0 1.66-1.34 3-3 3s-3-1.34-3-3 1.34-3 3-3c.44 0 .85.09 1.23.26l1.41-1.77c-.92-1.03-1.29-2.39-1.09-3.69l-2.03-.68c-.54.83-1.46 1.38-2.52 1.38-1.66 0-3-1.34-3-3s1.34-3 3-3 3 1.34 3 3c0 .07 0 .14-.01.21l2.03.68c.64-1.21 1.82-2.09 3.22-2.32V5.91C9.96 5.57 9 4.4 9 3c0-1.66 1.34-3 3-3s3 1.34 3 3c0 1.4-.96 2.57-2.25 2.91v2.16c1.4.23 2.58 1.11 3.22 2.32L18 9.71V9.5c0-1.66 1.34-3 3-3s3 1.34 3 3-1.34 3-3 3c-1.06 0-1.98-.55-2.52-1.37l-2.03.68c.2 1.29-.16 2.65-1.09 3.69l1.41 1.77c.38-.18.79-.27 1.23-.27 1.66 0 3 1.34 3 3s-1.34 3-3 3-3-1.34-3-3c0-.68.22-1.3.6-1.8l-1.41-1.77c-1.35.75-3.01.76-4.37 0L8.4 18.2z"></path></g>
    <g id='lightprogramManager' height="24px" viewBox="0 0 24 24" width="24px" fill="#cebaa8"><path d="M0 0h24v24H0z" fill="none"/><circle cx="10" cy="8" r="4"></circle><path d="M10.67 13.02c-.22-.01-.44-.02-.67-.02-2.42 0-4.68.67-6.61 1.82-.88.52-1.39 1.5-1.39 2.53V20h9.26c-.79-1.13-1.26-2.51-1.26-4 0-1.07.25-2.07.67-2.98zM20.75 16c0-.22-.03-.42-.06-.63l1.14-1.01-1-1.73-1.45.49c-.32-.27-.68-.48-1.08-.63L18 11h-2l-.3 1.49c-.4.15-.76.36-1.08.63l-1.45-.49-1 1.73 1.14 1.01c-.03.21-.06.41-.06.63s.03.42.06.63l-1.14 1.01 1 1.73 1.45-.49c.32.27.68.48 1.08.63L16 21h2l.3-1.49c.4-.15.76-.36 1.08-.63l1.45.49 1-1.73-1.14-1.01c.03-.21.06-.41.06-.63zM17 18c-1.1 0-2-.9-2-2s.9-2 2-2 2 .9 2 2-.9 2-2 2z"></path></g>
    <g id='programManager' height="24px" viewBox="0 0 24 24" width="24px" fill="#fff"><path d="M0 0h24v24H0z" fill="none"/><circle cx="10" cy="8" r="4"></circle><path d="M10.67 13.02c-.22-.01-.44-.02-.67-.02-2.42 0-4.68.67-6.61 1.82-.88.52-1.39 1.5-1.39 2.53V20h9.26c-.79-1.13-1.26-2.51-1.26-4 0-1.07.25-2.07.67-2.98zM20.75 16c0-.22-.03-.42-.06-.63l1.14-1.01-1-1.73-1.45.49c-.32-.27-.68-.48-1.08-.63L18 11h-2l-.3 1.49c-.4.15-.76.36-1.08.63l-1.45-.49-1 1.73 1.14 1.01c-.03.21-.06.41-.06.63s.03.42.06.63l-1.14 1.01 1 1.73 1.45-.49c.32.27.68.48 1.08.63L16 21h2l.3-1.49c.4-.15.76-.36 1.08-.63l1.45.49 1-1.73-1.14-1.01c.03-.21.06-.41.06-.63zM17 18c-1.1 0-2-.9-2-2s.9-2 2-2 2 .9 2 2-.9 2-2 2z"></path></g>
    <g id='lightoffering' height="24px" viewBox="0 0 24 24" width="24px" fill="#cebaa8"><path d="M0 0h24v24H0z" fill="none"/><path d="M20 2H4c-1 0-2 .9-2 2v3.01c0 .72.43 1.34 1 1.69V20c0 1.1 1.1 2 2 2h14c.9 0 2-.9 2-2V8.7c.57-.35 1-.97 1-1.69V4c0-1.1-1-2-2-2zm-5 12H9v-2h6v2zm5-7H4V4h16v3z"></path></g>
    <g id='offering' height="24px" viewBox="0 0 24 24" width="24px" fill="#fff"><path d="M0 0h24v24H0z" fill="none"/><path d="M20 2H4c-1 0-2 .9-2 2v3.01c0 .72.43 1.34 1 1.69V20c0 1.1 1.1 2 2 2h14c.9 0 2-.9 2-2V8.7c.57-.35 1-.97 1-1.69V4c0-1.1-1-2-2-2zm-5 12H9v-2h6v2zm5-7H4V4h16v3z"></path></g>
    <g id='lightsetting' height="16px" viewBox="0 0 18 18" margin="5px" width="24px" fill="#cebaa8"><path d="M0 0h24v24H0z" fill="none"/><path d="M19.14 12.94c.04-.3.06-.61.06-.94 0-.32-.02-.64-.07-.94l2.03-1.58c.18-.14.23-.41.12-.61l-1.92-3.32c-.12-.22-.37-.29-.59-.22l-2.39.96c-.5-.38-1.03-.7-1.62-.94l-.36-2.54c-.04-.24-.24-.41-.48-.41h-3.84c-.24 0-.43.17-.47.41l-.36 2.54c-.59.24-1.13.57-1.62.94l-2.39-.96c-.22-.08-.47 0-.59.22L2.74 8.87c-.12.21-.08.47.12.61l2.03 1.58c-.05.3-.09.63-.09.94s.02.64.07.94l-2.03 1.58c-.18.14-.23.41-.12.61l1.92 3.32c.12.22.37.29.59.22l2.39-.96c.5.38 1.03.7 1.62.94l.36 2.54c.05.24.24.41.48.41h3.84c.24 0 .44-.17.47-.41l.36-2.54c.59-.24 1.13-.56 1.62-.94l2.39.96c.22.08.47 0 .59-.22l1.92-3.32c.12-.22.07-.47-.12-.61l-2.01-1.58zM12 15.6c-1.98 0-3.6-1.62-3.6-3.6s1.62-3.6 3.6-3.6 3.6 1.62 3.6 3.6-1.62 3.6-3.6 3.6z"></path></g>
    <g id='setting' height="16px" viewBox="0 0 18 18" margin="5px" width="24px" fill="#ffffff"><path d="M0 0h24v24H0z" fill="none"/><path d="M19.14 12.94c.04-.3.06-.61.06-.94 0-.32-.02-.64-.07-.94l2.03-1.58c.18-.14.23-.41.12-.61l-1.92-3.32c-.12-.22-.37-.29-.59-.22l-2.39.96c-.5-.38-1.03-.7-1.62-.94l-.36-2.54c-.04-.24-.24-.41-.48-.41h-3.84c-.24 0-.43.17-.47.41l-.36 2.54c-.59.24-1.13.57-1.62.94l-2.39-.96c-.22-.08-.47 0-.59.22L2.74 8.87c-.12.21-.08.47.12.61l2.03 1.58c-.05.3-.09.63-.09.94s.02.64.07.94l-2.03 1.58c-.18.14-.23.41-.12.61l1.92 3.32c.12.22.37.29.59.22l2.39-.96c.5.38 1.03.7 1.62.94l.36 2.54c.05.24.24.41.48.41h3.84c.24 0 .44-.17.47-.41l.36-2.54c.59-.24 1.13-.56 1.62-.94l2.39.96c.22.08.47 0 .59-.22l1.92-3.32c.12-.22.07-.47-.12-.61l-2.01-1.58zM12 15.6c-1.98 0-3.6-1.62-3.6-3.6s1.62-3.6 3.6-3.6 3.6 1.62 3.6 3.6-1.62 3.6-3.6 3.6z"></path></g>
    <g id='lightcommunication' height="16px" viewBox="0 0 18 18" margin="5px" width="24px" fill="#cebaa8" ><path d="M0 0h24v24H0z" fill="none"/><path d="M3 9v6h4l5 5V4L7 9H3zm13.5 3c0-1.77-1.02-3.29-2.5-4.03v8.05c1.48-.73 2.5-2.25 2.5-4.02zM14 3.23v2.06c2.89.86 5 3.54 5 6.71s-2.11 5.85-5 6.71v2.06c4.01-.91 7-4.49 7-8.77s-2.99-7.86-7-8.77z"></path></g>
    <g id='communication' height="16px" viewBox="0 0 18 18" margin="5px" width="24px" fill="#fff" ><path d="M0 0h24v24H0z" fill="none"/><path d="M3 9v6h4l5 5V4L7 9H3zm13.5 3c0-1.77-1.02-3.29-2.5-4.03v8.05c1.48-.73 2.5-2.25 2.5-4.02zM14 3.23v2.06c2.89.86 5 3.54 5 6.71s-2.11 5.85-5 6.71v2.06c4.01-.91 7-4.49 7-8.77s-2.99-7.86-7-8.77z"></path></g>
    <g id='lightfinance' height="16px" viewBox="0 0 18 18" margin="5px" width="24px" fill="#cebaa8" ><path d="M0 0h24v24H0z" fill="none"/><path d="M5 8h2v8H5zm7 0H9c-.55 0-1 .45-1 1v6c0 .55.45 1 1 1h3c.55 0 1-.45 1-1V9c0-.55-.45-1-1-1zm-1 6h-1v-4h1v4zm7-6h-3c-.55 0-1 .45-1 1v6c0 .55.45 1 1 1h3c.55 0 1-.45 1-1V9c0-.55-.45-1-1-1zm-1 6h-1v-4h1v4z"></path><path d="M2 4v16h20V4H2zm2 14V6h16v12H4z"></path></g>
    <g id='finance' height="16px" viewBox="0 0 18 18" margin="5px" width="24px" fill="#fff" ><path d="M0 0h24v24H0z" fill="none"/><path d="M5 8h2v8H5zm7 0H9c-.55 0-1 .45-1 1v6c0 .55.45 1 1 1h3c.55 0 1-.45 1-1V9c0-.55-.45-1-1-1zm-1 6h-1v-4h1v4zm7-6h-3c-.55 0-1 .45-1 1v6c0 .55.45 1 1 1h3c.55 0 1-.45 1-1V9c0-.55-.45-1-1-1zm-1 6h-1v-4h1v4z"></path><path d="M2 4v16h20V4H2zm2 14V6h16v12H4z"></path></g>
    <g id='lightbooking' height="16px" viewBox="0 0 18 18" margin="5px" width="24px" fill="#cebaa8" ><path d="M0 0h24v24H0z" fill="none"/><path d="M4 6H2v14c0 1.1.9 2 2 2h14v-2H4V6zm16-4H8c-1.1 0-2 .9-2 2v12c0 1.1.9 2 2 2h12c1.1 0 2-.9 2-2V4c0-1.1-.9-2-2-2zm-1 9H9V9h10v2zm-4 4H9v-2h6v2zm4-8H9V5h10v2z"></path></g>
    <g id='booking' height="16px" viewBox="0 0 18 18" margin="5px" width="24px" fill="#fff" ><path d="M0 0h24v24H0z" fill="none"/><path d="M4 6H2v14c0 1.1.9 2 2 2h14v-2H4V6zm16-4H8c-1.1 0-2 .9-2 2v12c0 1.1.9 2 2 2h12c1.1 0 2-.9 2-2V4c0-1.1-.9-2-2-2zm-1 9H9V9h10v2zm-4 4H9v-2h6v2zm4-8H9V5h10v2z"></path></g>
    <g id='user'  height="16px" viewBox="0 0 18 18" margin="5px" width="24px" fill="#fff" ><path d="M0 0h24v24H0z" fill="none"/><path d="M12 12c2.21 0 4-1.79 4-4s-1.79-4-4-4-4 1.79-4 4 1.79 4 4 4zm0 2c-2.67 0-8 1.34-8 4v2h16v-2c0-2.66-5.33-4-8-4z"></path></g>
    <g id='lightuser'  height="16px" viewBox="0 0 18 18" margin="5px" width="24px" fill="#cebaa8" ><path d="M0 0h24v24H0z" fill="none"/><path d="M12 12c2.21 0 4-1.79 4-4s-1.79-4-4-4-4 1.79-4 4 1.79 4 4 4zm0 2c-2.67 0-8 1.34-8 4v2h16v-2c0-2.66-5.33-4-8-4z"></path></g>
    <g id='lighthome' height="16px" viewBox="0 0 18 18" margin="5px" width="24px" fill="#cebaa8" ><path d="M0 0h24v24H0z" fill="none"/><path d="M10 20v-6h4v6h5v-8h3L12 3 2 12h3v8z"></path></g>
    <g id='home' height="16px" viewBox="0 0 18 18" margin="5px" width="24px" fill="#fff" ><path d="M0 0h24v24H0z" fill="none"/><path d="M10 20v-6h4v6h5v-8h3L12 3 2 12h3v8z"></path></g>
    <g id='lightschedule' height="16px" viewBox="0 0 18 18" margin="5px" width="24px" fill="#cebaa8" ><path d="M0 0h24v24H0z" fill="none"/><path d="M19 4h-1V2h-2v2H8V2H6v2H5c-1.11 0-1.99.9-1.99 2L3 20c0 1.1.89 2 2 2h14c1.1 0 2-.9 2-2V6c0-1.1-.9-2-2-2zm0 16H5V10h14v10zM9 14H7v-2h2v2zm4 0h-2v-2h2v2zm4 0h-2v-2h2v2zm-8 4H7v-2h2v2zm4 0h-2v-2h2v2zm4 0h-2v-2h2v2z"></path></g>
    <g id='schedule' height="16px" viewBox="0 0 18 18" margin="5px" width="24px" fill="#fff" ><path d="M0 0h24v24H0z" fill="none"/><path d="M19 4h-1V2h-2v2H8V2H6v2H5c-1.11 0-1.99.9-1.99 2L3 20c0 1.1.89 2 2 2h14c1.1 0 2-.9 2-2V6c0-1.1-.9-2-2-2zm0 16H5V10h14v10zM9 14H7v-2h2v2zm4 0h-2v-2h2v2zm4 0h-2v-2h2v2zm-8 4H7v-2h2v2zm4 0h-2v-2h2v2zm4 0h-2v-2h2v2z"></path></g>
    <g id='close' height="16px" viewBox="0 0 18 18" margin="5px" width="24px" fill="#000" ><path d="M0 0h24v24H0z" fill="none"/><path d="M19 6.41 17.59 5 12 10.59 6.41 5 5 6.41 10.59 12 5 17.59 6.41 19 12 13.41 17.59 19 19 17.59 13.41 12z"></path></g>

  </defs>
</svg>
