<svg xmlns="http://www.w3.org/2000/svg" width="72" height="72" viewBox="0 0 72 72" fill="none">
<circle cx="36" cy="36" r="36" fill="#474747"/>
<path d="M13.1748 48.47C13.1748 47.73 13.3081 47.09 13.5748 46.55C13.8481 46.01 14.2381 45.5933 14.7448 45.3C15.2515 45 15.8548 44.85 16.5548 44.85C17.2481 44.85 17.8481 45 18.3548 45.3C18.8615 45.5933 19.2515 46.01 19.5248 46.55C19.8048 47.09 19.9448 47.7267 19.9448 48.46C19.9448 49.2 19.8048 49.8433 19.5248 50.39C19.2515 50.93 18.8615 51.35 18.3548 51.65C17.8481 51.95 17.2481 52.1 16.5548 52.1C15.8548 52.1 15.2515 51.95 14.7448 51.65C14.2448 51.35 13.8581 50.93 13.5848 50.39C13.3115 49.8433 13.1748 49.2033 13.1748 48.47ZM14.5248 48.47C14.5248 49.2633 14.6948 49.8833 15.0348 50.33C15.3748 50.7767 15.8815 51 16.5548 51C17.2081 51 17.7115 50.7767 18.0648 50.33C18.4181 49.8833 18.5948 49.2633 18.5948 48.47C18.5948 47.67 18.4181 47.05 18.0648 46.61C17.7181 46.17 17.2148 45.95 16.5548 45.95C15.8815 45.95 15.3748 46.17 15.0348 46.61C14.6948 47.05 14.5248 47.67 14.5248 48.47ZM21.7159 52V47.89H20.7459V46.95H22.0659L21.7159 47.27V46.5C21.7159 45.8733 21.8759 45.4 22.1959 45.08C22.5226 44.76 22.9992 44.6 23.6259 44.6C23.7726 44.6 23.9259 44.61 24.0859 44.63C24.2526 44.65 24.3959 44.6867 24.5159 44.74V45.72C24.4292 45.6867 24.3259 45.66 24.2059 45.64C24.0859 45.62 23.9692 45.61 23.8559 45.61C23.6826 45.61 23.5259 45.6433 23.3859 45.71C23.2526 45.7767 23.1459 45.88 23.0659 46.02C22.9926 46.1533 22.9559 46.3333 22.9559 46.56V47.17L22.7759 46.95H24.2859V47.89H22.9659V52H21.7159ZM25.3729 52V47.89H24.4029V46.95H25.7229L25.3729 47.27V46.5C25.3729 45.8733 25.5329 45.4 25.8529 45.08C26.1796 44.76 26.6563 44.6 27.2829 44.6C27.4296 44.6 27.5829 44.61 27.7429 44.63C27.9096 44.65 28.0529 44.6867 28.1729 44.74V45.72C28.0863 45.6867 27.9829 45.66 27.8629 45.64C27.7429 45.62 27.6263 45.61 27.5129 45.61C27.3396 45.61 27.1829 45.6433 27.0429 45.71C26.9096 45.7767 26.8029 45.88 26.7229 46.02C26.6496 46.1533 26.6129 46.3333 26.6129 46.56V47.17L26.4329 46.95H27.9429V47.89H26.6229V52H25.3729ZM31.2276 52.1C30.381 52.1 29.7176 51.8667 29.2376 51.4C28.7576 50.9333 28.5176 50.2933 28.5176 49.48C28.5176 48.9533 28.621 48.4933 28.8276 48.1C29.0343 47.7067 29.321 47.4 29.6876 47.18C30.061 46.96 30.4943 46.85 30.9876 46.85C31.4743 46.85 31.881 46.9533 32.2076 47.16C32.5343 47.3667 32.781 47.6567 32.9476 48.03C33.121 48.4033 33.2076 48.84 33.2076 49.34V49.67H29.5276V49.01H32.3176L32.1476 49.15C32.1476 48.6833 32.0476 48.3267 31.8476 48.08C31.6543 47.8333 31.371 47.71 30.9976 47.71C30.5843 47.71 30.2643 47.8567 30.0376 48.15C29.8176 48.4433 29.7076 48.8533 29.7076 49.38V49.51C29.7076 50.0567 29.841 50.4667 30.1076 50.74C30.381 51.0067 30.7643 51.14 31.2576 51.14C31.5443 51.14 31.811 51.1033 32.0576 51.03C32.311 50.95 32.551 50.8233 32.7776 50.65L33.1476 51.49C32.9076 51.6833 32.621 51.8333 32.2876 51.94C31.9543 52.0467 31.601 52.1 31.2276 52.1ZM34.4561 52V48.24C34.4561 48.0267 34.4495 47.81 34.4361 47.59C34.4295 47.37 34.4128 47.1567 34.3861 46.95H35.5961L35.7361 48.33H35.5361C35.6028 47.9967 35.7128 47.72 35.8661 47.5C36.0261 47.28 36.2195 47.1167 36.4461 47.01C36.6728 46.9033 36.9195 46.85 37.1861 46.85C37.3061 46.85 37.4028 46.8567 37.4761 46.87C37.5495 46.8767 37.6228 46.8933 37.6961 46.92L37.6861 48.02C37.5595 47.9667 37.4495 47.9333 37.3561 47.92C37.2695 47.9067 37.1595 47.9 37.0261 47.9C36.7395 47.9 36.4961 47.96 36.2961 48.08C36.1028 48.2 35.9561 48.3667 35.8561 48.58C35.7628 48.7933 35.7161 49.0367 35.7161 49.31V52H34.4561ZM38.5919 52V46.95H39.8419V52H38.5919ZM38.5219 46V44.78H39.9119V46H38.5219ZM41.3993 52V48.21C41.3993 48.0033 41.3927 47.7933 41.3793 47.58C41.366 47.3667 41.346 47.1567 41.3193 46.95H42.5293L42.6293 47.95H42.5093C42.6693 47.5967 42.906 47.3267 43.2193 47.14C43.5327 46.9467 43.896 46.85 44.3093 46.85C44.9027 46.85 45.3493 47.0167 45.6493 47.35C45.9493 47.6833 46.0993 48.2033 46.0993 48.91V52H44.8493V48.97C44.8493 48.5633 44.7693 48.2733 44.6093 48.1C44.456 47.92 44.2227 47.83 43.9093 47.83C43.5227 47.83 43.216 47.95 42.9893 48.19C42.7627 48.43 42.6493 48.75 42.6493 49.15V52H41.3993ZM49.9647 54.24C49.4981 54.24 49.0747 54.19 48.6947 54.09C48.3214 53.99 47.9881 53.8367 47.6947 53.63L47.9647 52.73C48.1581 52.8567 48.3581 52.96 48.5647 53.04C48.7714 53.12 48.9847 53.18 49.2047 53.22C49.4247 53.26 49.6481 53.28 49.8747 53.28C50.3414 53.28 50.6881 53.1633 50.9147 52.93C51.1481 52.7033 51.2647 52.3767 51.2647 51.95V50.74H51.3647C51.2581 51.0867 51.0414 51.3633 50.7147 51.57C50.3947 51.7767 50.0247 51.88 49.6047 51.88C49.1514 51.88 48.7547 51.78 48.4147 51.58C48.0814 51.3733 47.8214 51.08 47.6347 50.7C47.4481 50.32 47.3547 49.8733 47.3547 49.36C47.3547 48.8467 47.4481 48.4033 47.6347 48.03C47.8214 47.65 48.0814 47.36 48.4147 47.16C48.7547 46.9533 49.1514 46.85 49.6047 46.85C50.0314 46.85 50.4014 46.9533 50.7147 47.16C51.0347 47.36 51.2481 47.6333 51.3547 47.98L51.2647 47.92L51.3647 46.95H52.5747C52.5481 47.1567 52.5281 47.3667 52.5147 47.58C52.5014 47.7933 52.4947 48.0033 52.4947 48.21V51.8C52.4947 52.5933 52.2781 53.1967 51.8447 53.61C51.4181 54.03 50.7914 54.24 49.9647 54.24ZM49.9447 50.92C50.3447 50.92 50.6614 50.7867 50.8947 50.52C51.1347 50.2467 51.2547 49.86 51.2547 49.36C51.2547 48.86 51.1347 48.4767 50.8947 48.21C50.6614 47.9433 50.3447 47.81 49.9447 47.81C49.5381 47.81 49.2147 47.9433 48.9747 48.21C48.7347 48.4767 48.6147 48.86 48.6147 49.36C48.6147 49.86 48.7347 50.2467 48.9747 50.52C49.2147 50.7867 49.5381 50.92 49.9447 50.92ZM55.8454 52.1C55.4121 52.1 55.0121 52.05 54.6454 51.95C54.2854 51.8433 53.9821 51.6967 53.7354 51.51L54.0854 50.67C54.3388 50.8433 54.6188 50.9767 54.9254 51.07C55.2321 51.1633 55.5421 51.21 55.8554 51.21C56.1888 51.21 56.4354 51.1533 56.5954 51.04C56.7621 50.9267 56.8454 50.7733 56.8454 50.58C56.8454 50.4267 56.7921 50.3067 56.6854 50.22C56.5854 50.1267 56.4221 50.0567 56.1954 50.01L55.1954 49.82C54.7688 49.7267 54.4421 49.5667 54.2154 49.34C53.9954 49.1133 53.8854 48.8167 53.8854 48.45C53.8854 48.1367 53.9688 47.86 54.1354 47.62C54.3088 47.38 54.5521 47.1933 54.8654 47.06C55.1854 46.92 55.5588 46.85 55.9854 46.85C56.3588 46.85 56.7088 46.9 57.0354 47C57.3688 47.1 57.6488 47.25 57.8754 47.45L57.5154 48.26C57.3088 48.0933 57.0721 47.9633 56.8054 47.87C56.5388 47.7767 56.2788 47.73 56.0254 47.73C55.6788 47.73 55.4254 47.7933 55.2654 47.92C55.1054 48.04 55.0254 48.1967 55.0254 48.39C55.0254 48.5367 55.0721 48.66 55.1654 48.76C55.2654 48.8533 55.4188 48.9233 55.6254 48.97L56.6254 49.16C57.0721 49.2467 57.4088 49.4 57.6354 49.62C57.8688 49.8333 57.9854 50.1267 57.9854 50.5C57.9854 50.8333 57.8954 51.12 57.7154 51.36C57.5354 51.6 57.2854 51.7833 56.9654 51.91C56.6454 52.0367 56.2721 52.1 55.8454 52.1Z" fill="#F2F2F2"/>
<path d="M35.9931 35.9998C35.9141 35.9998 35.8341 35.9808 35.7621 35.9428L24.27 29.9427C24.105 29.8567 24.001 29.6857 24.001 29.4997V18.2495C24.001 18.0765 24.091 17.9155 24.238 17.8245C24.385 17.7335 24.57 17.7255 24.724 17.8025L36.2162 23.5526C36.3852 23.6376 36.4922 23.8106 36.4922 23.9996V35.4998C36.4922 35.6748 36.4012 35.8368 36.2512 35.9278C36.1731 35.9758 36.0831 35.9998 35.9931 35.9998ZM25.001 29.1967L35.4931 34.6747V24.3086L25.001 19.0585V29.1967Z" fill="#F2F2F2" stroke="#F2F2F2" stroke-width="0.5"/>
<path d="M36.0088 36.0005C35.9188 36.0005 35.8288 35.9765 35.7498 35.9285C35.6008 35.8375 35.5088 35.6755 35.5088 35.5005V24.0003C35.5088 23.8113 35.6158 23.6383 35.7848 23.5533L47.277 17.8032C47.43 17.7252 47.616 17.7332 47.763 17.8252C47.911 17.9162 48.001 18.0773 48.001 18.2503V29.5004C48.001 29.6864 47.897 29.8574 47.732 29.9434L36.2398 35.9435C36.1678 35.9815 36.0878 36.0005 36.0088 36.0005ZM36.5088 24.3093V34.6755L47.001 29.1974V19.0593L36.5088 24.3093ZM47.501 29.5004H47.511H47.501Z" fill="#F2F2F2" stroke="#F2F2F2" stroke-width="0.5"/>
<path d="M24.501 18.7496C24.317 18.7496 24.141 18.6486 24.053 18.4736C23.929 18.2266 24.03 17.9266 24.277 17.8026L35.7852 12.0525C35.9262 11.9825 36.0922 11.9825 36.2322 12.0525L47.7244 17.8026C47.9714 17.9266 48.0714 18.2266 47.9484 18.4736C47.8244 18.7206 47.5254 18.8196 47.2774 18.6976L36.0092 13.0585L24.725 18.6966C24.653 18.7326 24.577 18.7496 24.501 18.7496Z" fill="#F2F2F2" stroke="#F2F2F2" stroke-width="0.5"/>
<path d="M42.0012 27.0003C41.7252 27.0003 41.5012 26.7763 41.5012 26.5003V21.3093L30.285 15.6972C30.038 15.5742 29.938 15.2732 30.062 15.0262C30.186 14.7792 30.486 14.6802 30.733 14.8022L42.2252 20.5522C42.3942 20.6382 42.5012 20.8112 42.5012 21.0003V26.5003C42.5012 26.7763 42.2772 27.0003 42.0012 27.0003Z" fill="#F2F2F2" stroke="#F2F2F2" stroke-width="0.5"/>
</svg>