<svg xmlns="http://www.w3.org/2000/svg" width="72" height="72" viewBox="0 0 72 72" fill="none">
<circle cx="36" cy="36" r="36" fill="#474747"/>
<path d="M25.4313 53.1C24.4247 53.1 23.6747 52.85 23.1813 52.35C22.6947 51.8433 22.4513 51.0967 22.4513 50.11V45.95H23.7413V50.1C23.7413 50.7267 23.8747 51.2 24.1413 51.52C24.4147 51.84 24.8447 52 25.4313 52C25.9913 52 26.4113 51.84 26.6913 51.52C26.978 51.2 27.1213 50.7267 27.1213 50.1V45.95H28.3913V50.11C28.3913 51.0967 28.1413 51.8433 27.6413 52.35C27.148 52.85 26.4113 53.1 25.4313 53.1ZM31.7937 53.1C31.3603 53.1 30.9603 53.05 30.5937 52.95C30.2337 52.8433 29.9303 52.6967 29.6837 52.51L30.0337 51.67C30.287 51.8433 30.567 51.9767 30.8737 52.07C31.1803 52.1633 31.4903 52.21 31.8037 52.21C32.137 52.21 32.3837 52.1533 32.5437 52.04C32.7103 51.9267 32.7937 51.7733 32.7937 51.58C32.7937 51.4267 32.7403 51.3067 32.6337 51.22C32.5337 51.1267 32.3703 51.0567 32.1437 51.01L31.1437 50.82C30.717 50.7267 30.3903 50.5667 30.1637 50.34C29.9437 50.1133 29.8337 49.8167 29.8337 49.45C29.8337 49.1367 29.917 48.86 30.0837 48.62C30.257 48.38 30.5003 48.1933 30.8137 48.06C31.1337 47.92 31.507 47.85 31.9337 47.85C32.307 47.85 32.657 47.9 32.9837 48C33.317 48.1 33.597 48.25 33.8237 48.45L33.4637 49.26C33.257 49.0933 33.0203 48.9633 32.7537 48.87C32.487 48.7767 32.227 48.73 31.9737 48.73C31.627 48.73 31.3737 48.7933 31.2137 48.92C31.0537 49.04 30.9737 49.1967 30.9737 49.39C30.9737 49.5367 31.0203 49.66 31.1137 49.76C31.2137 49.8533 31.367 49.9233 31.5737 49.97L32.5737 50.16C33.0203 50.2467 33.357 50.4 33.5837 50.62C33.817 50.8333 33.9337 51.1267 33.9337 51.5C33.9337 51.8333 33.8437 52.12 33.6637 52.36C33.4837 52.6 33.2337 52.7833 32.9137 52.91C32.5937 53.0367 32.2203 53.1 31.7937 53.1ZM37.6434 53.1C36.7968 53.1 36.1334 52.8667 35.6534 52.4C35.1734 51.9333 34.9334 51.2933 34.9334 50.48C34.9334 49.9533 35.0368 49.4933 35.2434 49.1C35.4501 48.7067 35.7368 48.4 36.1034 48.18C36.4768 47.96 36.9101 47.85 37.4034 47.85C37.8901 47.85 38.2968 47.9533 38.6234 48.16C38.9501 48.3667 39.1968 48.6567 39.3634 49.03C39.5368 49.4033 39.6234 49.84 39.6234 50.34V50.67H35.9434V50.01H38.7334L38.5634 50.15C38.5634 49.6833 38.4634 49.3267 38.2634 49.08C38.0701 48.8333 37.7868 48.71 37.4134 48.71C37.0001 48.71 36.6801 48.8567 36.4534 49.15C36.2334 49.4433 36.1234 49.8533 36.1234 50.38V50.51C36.1234 51.0567 36.2568 51.4667 36.5234 51.74C36.7968 52.0067 37.1801 52.14 37.6734 52.14C37.9601 52.14 38.2268 52.1033 38.4734 52.03C38.7268 51.95 38.9668 51.8233 39.1934 51.65L39.5634 52.49C39.3234 52.6833 39.0368 52.8333 38.7034 52.94C38.3701 53.0467 38.0168 53.1 37.6434 53.1ZM40.872 53V49.24C40.872 49.0267 40.8653 48.81 40.852 48.59C40.8453 48.37 40.8286 48.1567 40.802 47.95H42.012L42.152 49.33H41.952C42.0186 48.9967 42.1286 48.72 42.282 48.5C42.442 48.28 42.6353 48.1167 42.862 48.01C43.0886 47.9033 43.3353 47.85 43.602 47.85C43.722 47.85 43.8186 47.8567 43.892 47.87C43.9653 47.8767 44.0386 47.8933 44.112 47.92L44.102 49.02C43.9753 48.9667 43.8653 48.9333 43.772 48.92C43.6853 48.9067 43.5753 48.9 43.442 48.9C43.1553 48.9 42.912 48.96 42.712 49.08C42.5186 49.2 42.372 49.3667 42.272 49.58C42.1786 49.7933 42.132 50.0367 42.132 50.31V53H40.872ZM46.7589 53.1C46.3256 53.1 45.9256 53.05 45.5589 52.95C45.1989 52.8433 44.8956 52.6967 44.6489 52.51L44.9989 51.67C45.2522 51.8433 45.5322 51.9767 45.8389 52.07C46.1456 52.1633 46.4556 52.21 46.7689 52.21C47.1022 52.21 47.3489 52.1533 47.5089 52.04C47.6756 51.9267 47.7589 51.7733 47.7589 51.58C47.7589 51.4267 47.7056 51.3067 47.5989 51.22C47.4989 51.1267 47.3356 51.0567 47.1089 51.01L46.1089 50.82C45.6822 50.7267 45.3556 50.5667 45.1289 50.34C44.9089 50.1133 44.7989 49.8167 44.7989 49.45C44.7989 49.1367 44.8822 48.86 45.0489 48.62C45.2222 48.38 45.4656 48.1933 45.7789 48.06C46.0989 47.92 46.4722 47.85 46.8989 47.85C47.2722 47.85 47.6222 47.9 47.9489 48C48.2822 48.1 48.5622 48.25 48.7889 48.45L48.4289 49.26C48.2222 49.0933 47.9856 48.9633 47.7189 48.87C47.4522 48.7767 47.1922 48.73 46.9389 48.73C46.5922 48.73 46.3389 48.7933 46.1789 48.92C46.0189 49.04 45.9389 49.1967 45.9389 49.39C45.9389 49.5367 45.9856 49.66 46.0789 49.76C46.1789 49.8533 46.3322 49.9233 46.5389 49.97L47.5389 50.16C47.9856 50.2467 48.3222 50.4 48.5489 50.62C48.7822 50.8333 48.8989 51.1267 48.8989 51.5C48.8989 51.8333 48.8089 52.12 48.6289 52.36C48.4489 52.6 48.1989 52.7833 47.8789 52.91C47.5589 53.0367 47.1856 53.1 46.7589 53.1Z" fill="#F2F2F2"/>
<path d="M26.5 28.5C27.8924 28.5 29.2277 27.9469 30.2123 26.9623C31.1969 25.9777 31.75 24.6424 31.75 23.25C31.75 21.8576 31.1969 20.5223 30.2123 19.5377C29.2277 18.5531 27.8924 18 26.5 18C25.1076 18 23.7723 18.5531 22.7877 19.5377C21.8031 20.5223 21.25 21.8576 21.25 23.25C21.25 24.6424 21.8031 25.9777 22.7877 26.9623C23.7723 27.9469 25.1076 28.5 26.5 28.5ZM30 23.25C30 24.1783 29.6313 25.0685 28.9749 25.7249C28.3185 26.3813 27.4283 26.75 26.5 26.75C25.5717 26.75 24.6815 26.3813 24.0251 25.7249C23.3687 25.0685 23 24.1783 23 23.25C23 22.3217 23.3687 21.4315 24.0251 20.7751C24.6815 20.1187 25.5717 19.75 26.5 19.75C27.4283 19.75 28.3185 20.1187 28.9749 20.7751C29.6313 21.4315 30 22.3217 30 23.25ZM37 37.25C37 39 35.25 39 35.25 39H17.75C17.75 39 16 39 16 37.25C16 35.5 17.75 30.25 26.5 30.25C35.25 30.25 37 35.5 37 37.25ZM35.25 37.243C35.2482 36.8125 34.9805 35.5175 33.794 34.331C32.653 33.19 30.5057 32 26.5 32C22.4925 32 20.347 33.19 19.206 34.331C18.0195 35.5175 17.7535 36.8125 17.75 37.243H35.25Z" fill="#F2F2F2"/>
<path d="M44.5 28.5C45.8924 28.5 47.2277 27.9469 48.2123 26.9623C49.1969 25.9777 49.75 24.6424 49.75 23.25C49.75 21.8576 49.1969 20.5223 48.2123 19.5377C47.2277 18.5531 45.8924 18 44.5 18C43.1076 18 41.7723 18.5531 40.7877 19.5377C39.8031 20.5223 39.25 21.8576 39.25 23.25C39.25 24.6424 39.8031 25.9777 40.7877 26.9623C41.7723 27.9469 43.1076 28.5 44.5 28.5ZM48 23.25C48 24.1783 47.6313 25.0685 46.9749 25.7249C46.3185 26.3813 45.4283 26.75 44.5 26.75C43.5717 26.75 42.6815 26.3813 42.0251 25.7249C41.3687 25.0685 41 24.1783 41 23.25C41 22.3217 41.3687 21.4315 42.0251 20.7751C42.6815 20.1187 43.5717 19.75 44.5 19.75C45.4283 19.75 46.3185 20.1187 46.9749 20.7751C47.6313 21.4315 48 22.3217 48 23.25ZM55 37.25C55 39 53.25 39 53.25 39H35.75C35.75 39 34 39 34 37.25C34 35.5 35.75 30.25 44.5 30.25C53.25 30.25 55 35.5 55 37.25ZM53.25 37.243C53.2482 36.8125 52.9805 35.5175 51.794 34.331C50.653 33.19 48.5058 32 44.5 32C40.4925 32 38.347 33.19 37.206 34.331C36.0195 35.5175 35.7535 36.8125 35.75 37.243H53.25Z" fill="#F2F2F2"/>
</svg>